0
SECTION
2
HEADER
9
$INSUNITS
70
4
9
$ACADVER
1
AC1014
9
$HANDSEED
5
FFFF
0
ENDSEC
0
SECTION
2
TABLES
0
TABLE
2
VPORT
5
8
100
AcDbSymbolTable
0
ENDTAB
0
TABLE
2
LTYPE
5
5
100
AcDbSymbolTable
0
LTYPE
5
14
100
AcDbSymbolTableRecord
100
AcDbLinetypeTableRecord
2
BYBLOCK
70
0
0
LTYPE
5
15
100
AcDbSymbolTableRecord
100
AcDbLinetypeTableRecord
2
BYLAYER
70
0
0
ENDTAB
0
TABLE
2
LAYER
5
2
100
AcDbSymbolTable
70
2
0
LAYER
5
50
100
AcDbSymbolTableRecord
100
AcDbLayerTableRecord
2
0
70
0
6
CONTINUOUS
0
ENDTAB
0
TABLE
2
STYLE
5
3
100
AcDbSymbolTable
70
1
0
STYLE
5
11
100
AcDbSymbolTableRecord
100
AcDbTextStyleTableRecord
2
STANDARD
70
0
0
ENDTAB
0
TABLE
2
VIEW
5
6
100
AcDbSymbolTable
70
0
0
ENDTAB
0
TABLE
2
UCS
5
7
100
AcDbSymbolTable
70
0
0
ENDTAB
0
TABLE
2
APPID
5
9
100
AcDbSymbolTable
70
2
0
APPID
5
12
100
AcDbSymbolTableRecord
100
AcDbRegAppTableRecord
2
ACAD
70
0
0
ENDTAB
0
TABLE
2
DIMSTYLE
5
A
100
AcDbSymbolTable
70
1
0
ENDTAB
0
TABLE
2
BLOCK_RECORD
5
1
100
AcDbSymbolTable
70
1
0
BLOCK_RECORD
5
1F
100
AcDbSymbolTableRecord
100
AcDbBlockTableRecord
2
*MODEL_SPACE
0
BLOCK_RECORD
5
1B
100
AcDbSymbolTableRecord
100
AcDbBlockTableRecord
2
*PAPER_SPACE
0
ENDTAB
0
ENDSEC
0
SECTION
2
BLOCKS
0
BLOCK
5
20
100
AcDbEntity
100
AcDbBlockBegin
2
*MODEL_SPACE
0
ENDBLK
5
21
100
AcDbEntity
100
AcDbBlockEnd
0
BLOCK
5
1C
100
AcDbEntity
100
AcDbBlockBegin
2
*PAPER_SPACE
0
ENDBLK
5
1D
100
AcDbEntity
100
AcDbBlockEnd
0
ENDSEC
0
SECTION
2
ENTITIES
0
LINE
5
100
100
AcDbEntity
8
0
100
AcDbLine
10
-11.329026015756769
20
38.514556427495464
30
8.8311096807971843e-15
11
-25.320991675867273
21
38.51452861543661
31
5.0555267335991323e-15
0
CIRCLE
5
101
100
AcDbEntity
8
0
100
AcDbCircle
10
-8.3750000005162377
20
-7.4354364425669006
30
0
40
1.4500000000000002
210
-0
220
5.5511151231257815e-17
230
1
0
CIRCLE
5
102
100
AcDbEntity
8
0
100
AcDbCircle
10
-28.775000000515952
20
34.164563557433056
30
-8.8817841970012523e-15
40
1.4500000000000002
210
-0
220
5.5511151231257815e-17
230
1
0
CIRCLE
5
103
100
AcDbEntity
8
0
100
AcDbCircle
10
-28.275000000515973
20
-7.4354364425669806
30
0
40
1.4500000000000002
210
-0
220
5.5511151231257815e-17
230
1
0
CIRCLE
5
104
100
AcDbEntity
8
0
100
AcDbCircle
10
-18.075000000516219
20
7.1145635574330734
30
0
40
1.4500000000000002
210
-0
220
5.5511151231257815e-17
230
1
0
CIRCLE
5
105
100
AcDbEntity
8
0
100
AcDbCircle
10
-18.075000000516205
20
19.614563557433083
30
0
40
1.4500000000000002
210
-0
220
5.5511151231257815e-17
230
1
0
CIRCLE
5
106
100
AcDbEntity
8
0
100
AcDbCircle
10
-7.8750000005161986
20
34.164563557433148
30
0
40
1.4500000000000002
210
-0
220
5.5511151231257815e-17
230
1
0
ARC
5
107
100
AcDbEntity
8
0
100
AcDbCircle
10
-7.8750000005161986
20
34.164563557433148
30
0
40
3.3499999999999996
210
1.6023737137301798e-31
220
5.5511151231257482e-17
230
1
100
AcDbArc
50
20.756743094826721
51
90.013254679412569
0
ARC
5
108
100
AcDbEntity
8
0
100
AcDbCircle
10
-2.8722497381795447
20
36.060609393559105
30
-1.0833355937178202e-32
40
2.0000000000000067
210
-3.0333529702599023e-17
220
-1.2945627068861644e-17
230
1
100
AcDbArc
50
200.7567430948271
51
267.76544620377655
0
ARC
5
109
100
AcDbEntity
8
0
100
AcDbCircle
10
-3.0750000005162095
20
30.86456355743309
30
0
40
3.2000000000000024
210
0
220
-0
230
1
100
AcDbArc
50
0
51
87.765446203776648
0
LINE
5
110
100
AcDbEntity
8
0
100
AcDbLine
10
0.12499999948379303
20
30.864563557433119
30
0
11
0.12499999948396916
21
-4.1354370237122184
31
-6.6613381477509392e-15
0
ARC
5
111
100
AcDbEntity
8
0
100
AcDbCircle
10
-3.0750000005160278
20
-4.1354370237122282
30
4.622231866529366e-32
40
3.1999999999999966
210
9.0358557831260664e-31
220
5.5511151231257815e-17
230
1
100
AcDbArc
50
-89.999999999999702
51
0
0
LINE
5
112
100
AcDbEntity
8
0
100
AcDbLine
10
-3.0750000005160096
20
-7.3354370237122248
30
1.7763568394002491e-16
11
-3.3737503775072728
21
-7.3354370237122355
31
1.2385146807954836e-15
0
ARC
5
113
100
AcDbEntity
8
0
100
AcDbCircle
10
-3.3737503775072621
20
-9.3354370237122346
30
0
40
1.9999999999999984
210
3.4375687873885841e-30
220
-6.192573403977423e-16
230
1
100
AcDbArc
50
90.000000000000313
51
159.19795698724943
0
ARC
5
114
100
AcDbEntity
8
0
100
AcDbCircle
10
-8.3750000005162377
20
-7.4354364425669006
30
0
40
3.3500000000000005
210
3.3896367021215342e-31
220
5.5511151231257839e-17
230
1
100
AcDbArc
50
200.8020430127512
51
339.19795698724948
0
LINE
5
115
100
AcDbEntity
8
0
100
AcDbLine
10
-13.376249623525201
20
-7.3354370237122923
30
8.8817841970012523e-15
11
-23.273750377507021
21
-7.3354370237123456
31
1.3868388801128107e-16
0
ARC
5
116
100
AcDbEntity
8
0
100
AcDbCircle
10
-23.273750377507017
20
-9.3354370237123359
30
0
40
1.9999999999999907
210
1.5397004561466238e-31
220
-6.9341944005640857e-17
230
1
100
AcDbArc
50
90.000000000000099
51
159.19795698724926
0
ARC
5
117
100
AcDbEntity
8
0
100
AcDbCircle
10
-28.275000000515973
20
-7.4354364425669806
30
0
40
3.3499999999999988
210
-9.2444637330587321e-33
220
5.5511151231257827e-17
230
1
100
AcDbArc
50
200.75674985050992
51
339.19795698724909
0
ARC
5
118
100
AcDbEntity
8
0
100
AcDbCircle
10
-33.277750039291888
20
-9.3314828685617695
30
-1.6948183510607676e-31
40
1.9999999999999993
210
-1.2703339401389297e-17
220
-5.9463205961262966e-17
230
1
100
AcDbArc
50
20.756749850509966
51
87.76544866893731
0
ARC
5
119
100
AcDbEntity
8
0
100
AcDbCircle
10
-33.075000000515985
20
-4.1354370237124014
30
-9.2444637330587321e-32
40
3.1999999999999984
210
-6.2483927017549981e-31
220
5.5511151231257852e-17
230
1
100
AcDbArc
50
180
51
267.76544866893732
0
LINE
5
120
100
AcDbEntity
8
0
100
AcDbLine
10
-36.275000000515988
20
-4.1354370237124343
30
-3.0466731350082977e-31
11
-36.275000000516158
21
30.864563557432913
31
2.2204460492503131e-15
0
ARC
5
121
100
AcDbEntity
8
0
100
AcDbCircle
10
-33.075000000516177
20
30.864563557432948
30
-9.6296497219361793e-31
40
3.1999999999999846
210
2.1878564168238999e-31
220
5.551115123125763e-17
230
1
100
AcDbArc
50
97.958742266920225
51
180
0
ARC
5
122
100
AcDbEntity
8
0
100
AcDbCircle
10
-33.794991945690221
20
36.014477304175145
30
-1.9644485432749806e-31
40
1.999999999999994
210
2.5923383542433641e-17
220
-8.5193581786234184e-17
230
1
100
AcDbArc
50
277.95874226692018
51
339.7706884806671
0
ARC
5
123
100
AcDbEntity
8
0
100
AcDbCircle
10
-28.775000000515952
20
34.164563557433056
30
-8.8817841970012523e-15
40
3.3500000000000036
210
-1.3240409376287061e-17
220
-2.5957346522298369e-15
230
1
100
AcDbArc
50
89.713865357696946
51
159.77068848066713
0
LINE
5
124
100
AcDbEntity
8
0
100
AcDbLine
10
-7.8757749820886254
20
37.514563291577034
30
0
11
-9.0929560505450482
21
37.514560872166321
31
2.7755575615629037e-17
0
LINE
5
125
100
AcDbEntity
8
0
100
AcDbLine
10
-28.758270198155348
20
37.514521783099902
30
-1.859600376833885e-16
11
-27.557057665646315
21
37.514524170769704
31
8.6854943699913169e-16
0
ARC
5
126
100
AcDbEntity
8
0
100
AcDbCircle
10
-9.092960025977753
20
39.514560872162356
30
5.9318642287126864e-31
40
1.9999999999999882
210
6.5041750008565263e-15
220
-6.4854208939156864e-16
230
1
100
AcDbArc
50
221.81042878353611
51
270.00011388775783
0
ARC
5
127
100
AcDbEntity
8
0
100
AcDbCircle
10
-27.557061641079024
20
39.514524170765796
30
8.8817841970012618e-15
40
2.0000000000000404
210
1.1776489841993334e-16
220
-4.0066171459256842e-15
230
1
100
AcDbArc
50
270.00011388775795
51
318.18979899197888
0
ARC
5
128
100
AcDbEntity
8
0
100
AcDbCircle
10
-11.32902402804042
20
37.514556427497439
30
8.8817841970012523e-15
40
1.0000000000000011
210
-2.2503133786488227e-15
220
2.591928383857827e-15
230
1
100
AcDbArc
50
41.810428783536466
51
90.000113887757649
0
ARC
5
129
100
AcDbEntity
8
0
100
AcDbCircle
10
-25.320989688150924
20
37.514528615438593
30
0
40
0.99999999999999578
210
1.0048953128258596e-20
220
-5.0555267335891666e-15
230
1
100
AcDbArc
50
90.000113887757649
51
138.18979899197936
0
ARC
5
130
100
AcDbEntity
8
0
100
AcDbCircle
10
-13.376249623525192
20
-9.3354370237122914
30
5.854827030937197e-31
40
2.0000000000000009
210
-1.3513545974742819e-17
220
-5.7410338291375233e-17
230
1
100
AcDbArc
50
20.802043012751128
51
90.000000000000256
0
ENDSEC
0
SECTION
2
OBJECTS
0
DICTIONARY
5
C
100
AcDbDictionary
3
ACAD_GROUP
350
D
3
ACAD_MLINESTYLE
350
17
0
DICTIONARY
5
D
100
AcDbDictionary
0
DICTIONARY
5
1A
330
C
100
AcDbDictionary
0
DICTIONARY
5
17
100
AcDbDictionary
0
ENDSEC
0
EOF
