%TF.GenerationSoftware,KiCad,Pcbnew,(5.99.0-11604-g878538abff)*%
%TF.CreationDate,2021-08-06T14:00:02+02:00*%
%TF.ProjectId,pixel-pump-ui-board,7375636b-6572-42d6-9f6e-652d75692d62,rev?*%
%TF.SameCoordinates,Original*%
%TF.FileFunction,Soldermask,Top*%
%TF.FilePolarity,Negative*%
%FSLAX46Y46*%
G04 Gerber Fmt 4.6, Leading zero omitted, Abs format (unit mm)*
G04 Created by KiCad (PCBNEW (5.99.0-11604-g878538abff)) date 2021-08-06 14:00:02*
%MOMM*%
%LPD*%
G01*
G04 APERTURE LIST*
G04 Aperture macros list*
%AMRoundRect*
0 Rectangle with rounded corners*
0 $1 Rounding radius*
0 $2 $3 $4 $5 $6 $7 $8 $9 X,Y pos of 4 corners*
0 Add a 4 corners polygon primitive as box body*
4,1,4,$2,$3,$4,$5,$6,$7,$8,$9,$2,$3,0*
0 Add four circle primitives for the rounded corners*
1,1,$1+$1,$2,$3*
1,1,$1+$1,$4,$5*
1,1,$1+$1,$6,$7*
1,1,$1+$1,$8,$9*
0 Add four rect primitives between the rounded corners*
20,1,$1+$1,$2,$3,$4,$5,0*
20,1,$1+$1,$4,$5,$6,$7,0*
20,1,$1+$1,$6,$7,$8,$9,0*
20,1,$1+$1,$8,$9,$2,$3,0*%
G04 Aperture macros list end*
%ADD10R,0.700000X0.700000*%
%ADD11RoundRect,0.225000X-0.225000X-0.250000X0.225000X-0.250000X0.225000X0.250000X-0.225000X0.250000X0*%
%ADD12R,1.700000X0.900000*%
G04 APERTURE END LIST*
D10*
%TO.C,U6*%
X77555000Y-100102000D03*
X78655000Y-100102000D03*
X78655000Y-98272000D03*
X77555000Y-98272000D03*
%TD*%
D11*
%TO.C,C4*%
X72859600Y-89966800D03*
X74409600Y-89966800D03*
%TD*%
D10*
%TO.C,U5*%
X77555000Y-87529000D03*
X78655000Y-87529000D03*
X78655000Y-85699000D03*
X77555000Y-85699000D03*
%TD*%
%TO.C,U8*%
X85302000Y-87529000D03*
X86402000Y-87529000D03*
X86402000Y-85699000D03*
X85302000Y-85699000D03*
%TD*%
%TO.C,U2*%
X68665000Y-87566522D03*
X69765000Y-87566522D03*
X69765000Y-85736522D03*
X68665000Y-85736522D03*
%TD*%
D11*
%TO.C,C5*%
X89395000Y-102438200D03*
X90945000Y-102438200D03*
%TD*%
D12*
%TO.C,SW1*%
X73660000Y-75817200D03*
X73660000Y-72417200D03*
%TD*%
%TO.C,SW5*%
X90170000Y-75842600D03*
X90170000Y-72442600D03*
%TD*%
D10*
%TO.C,U10*%
X94065000Y-74956000D03*
X95165000Y-74956000D03*
X95165000Y-73126000D03*
X94065000Y-73126000D03*
%TD*%
D11*
%TO.C,C6*%
X72859600Y-102438200D03*
X74409600Y-102438200D03*
%TD*%
%TO.C,C2*%
X72859600Y-77419200D03*
X74409600Y-77419200D03*
%TD*%
D10*
%TO.C,U4*%
X77555000Y-75045478D03*
X78655000Y-75045478D03*
X78655000Y-73215478D03*
X77555000Y-73215478D03*
%TD*%
%TO.C,U11*%
X94192000Y-87402000D03*
X95292000Y-87402000D03*
X95292000Y-85572000D03*
X94192000Y-85572000D03*
%TD*%
%TO.C,U9*%
X85302000Y-99975000D03*
X86402000Y-99975000D03*
X86402000Y-98145000D03*
X85302000Y-98145000D03*
%TD*%
%TO.C,U7*%
X85302000Y-74956000D03*
X86402000Y-74956000D03*
X86402000Y-73126000D03*
X85302000Y-73126000D03*
%TD*%
D11*
%TO.C,C7*%
X72910400Y-70815200D03*
X74460400Y-70815200D03*
%TD*%
D12*
%TO.C,SW4*%
X90170000Y-100836200D03*
X90170000Y-97436200D03*
%TD*%
%TO.C,SW3*%
X73685400Y-100836200D03*
X73685400Y-97436200D03*
%TD*%
D10*
%TO.C,U3*%
X68665000Y-99975000D03*
X69765000Y-99975000D03*
X69765000Y-98145000D03*
X68665000Y-98145000D03*
%TD*%
D11*
%TO.C,C3*%
X89395000Y-77444600D03*
X90945000Y-77444600D03*
%TD*%
D10*
%TO.C,U12*%
X94065000Y-99975000D03*
X95165000Y-99975000D03*
X95165000Y-98145000D03*
X94065000Y-98145000D03*
%TD*%
D11*
%TO.C,C1*%
X89420400Y-89916000D03*
X90970400Y-89916000D03*
%TD*%
D12*
%TO.C,SW2*%
X73660000Y-88339400D03*
X73660000Y-84939400D03*
%TD*%
D10*
%TO.C,U1*%
X68792000Y-75083000D03*
X69892000Y-75083000D03*
X69892000Y-73253000D03*
X68792000Y-73253000D03*
%TD*%
D12*
%TO.C,SW6*%
X90170000Y-88314000D03*
X90170000Y-84914000D03*
%TD*%
M02*
