M48
; DRILL file {KiCad (5.99.0-11604-g878538abff)} date Friday, August 06, 2021 at 02:00:04 PM
; FORMAT={-:-/ absolute / inch / decimal}
; #@! TF.CreationDate,2021-08-06T14:00:04+02:00
; #@! TF.GenerationSoftware,Kicad,Pcbnew,(5.99.0-11604-g878538abff)
; #@! TF.FileFunction,Plated,1,4,PTH
FMAT,2
INCH
; #@! TA.AperFunction,Plated,PTH,ViaDrill
T1C0.0157
%
G90
G05
T1
X2.626Y-4.0512
X2.6476Y-2.9232
X2.657Y-3.828
X2.6693Y-3.752
X2.691Y-3.33
X2.752Y-3.013
X2.795Y-3.324
X2.795Y-3.842
X2.7953Y-2.7657
X2.8031Y-3.4409
X2.8071Y-3.937
X2.81Y-3.016
X2.816Y-3.562
X2.82Y-4.057
X2.822Y-3.086
X2.831Y-3.489
X2.873Y-2.72
X2.889Y-3.778
X2.91Y-3.272
X2.916Y-2.74
X2.93Y-3.11
X2.93Y-4.098
X2.931Y-3.607
X2.947Y-3.172
X2.964Y-3.487
X2.974Y-3.243
X2.981Y-2.937
X2.991Y-3.048
X2.997Y-2.88
X2.997Y-3.542
X2.999Y-2.729
X2.999Y-4.033
X3.007Y-3.173
X3.034Y-3.825
X3.035Y-3.332
X3.05Y-2.789
X3.084Y-2.831
X3.1136Y-2.9881
X3.127Y-3.487
X3.137Y-4.005
X3.2476Y-2.9992
X3.265Y-2.963
X3.289Y-3.013
X3.32Y-3.038
X3.331Y-3.332
X3.334Y-3.825
X3.381Y-2.827
X3.417Y-3.988
X3.419Y-2.989
X3.427Y-3.492
X3.454Y-2.734
X3.466Y-3.555
X3.478Y-3.081
X3.478Y-3.995
X3.491Y-2.988
X3.506Y-3.243
X3.55Y-3.927
X3.552Y-3.236
X3.554Y-4.12
X3.581Y-3.116
X3.581Y-3.602
X3.62Y-2.994
X3.624Y-3.461
X3.626Y-4.0236
X3.648Y-3.049
X3.649Y-3.541
X3.675Y-2.845
X3.683Y-3.816
X3.686Y-3.323
X3.768Y-2.99
X3.778Y-3.486
X3.8031Y-3.9213
T0
M30
