%TF.GenerationSoftware,KiCad,Pcbnew,(5.99.0-9379-gbf5cd2e233)*%
%TF.CreationDate,2021-03-11T01:06:43+01:00*%
%TF.ProjectId,sucker-one-ui-board,7375636b-6572-42d6-9f6e-652d75692d62,rev?*%
%TF.SameCoordinates,Original*%
%TF.FileFunction,Soldermask,Top*%
%TF.FilePolarity,Negative*%
%FSLAX46Y46*%
G04 Gerber Fmt 4.6, Leading zero omitted, Abs format (unit mm)*
G04 Created by KiCad (PCBNEW (5.99.0-9379-gbf5cd2e233)) date 2021-03-11 01:06:43*
%MOMM*%
%LPD*%
G01*
G04 APERTURE LIST*
%ADD10R,0.700000X0.700000*%
%ADD11R,1.700000X0.900000*%
G04 APERTURE END LIST*
D10*
%TO.C,U6*%
X77555000Y-100102000D03*
X78655000Y-100102000D03*
X78655000Y-98272000D03*
X77555000Y-98272000D03*
%TD*%
%TO.C,U5*%
X77555000Y-87529000D03*
X78655000Y-87529000D03*
X78655000Y-85699000D03*
X77555000Y-85699000D03*
%TD*%
%TO.C,U8*%
X85302000Y-87529000D03*
X86402000Y-87529000D03*
X86402000Y-85699000D03*
X85302000Y-85699000D03*
%TD*%
%TO.C,U2*%
X68665000Y-87566522D03*
X69765000Y-87566522D03*
X69765000Y-85736522D03*
X68665000Y-85736522D03*
%TD*%
D11*
%TO.C,SW1*%
X73660000Y-75817200D03*
X73660000Y-72417200D03*
%TD*%
%TO.C,SW5*%
X90170000Y-75842600D03*
X90170000Y-72442600D03*
%TD*%
D10*
%TO.C,U10*%
X94065000Y-74956000D03*
X95165000Y-74956000D03*
X95165000Y-73126000D03*
X94065000Y-73126000D03*
%TD*%
%TO.C,U4*%
X77555000Y-75045478D03*
X78655000Y-75045478D03*
X78655000Y-73215478D03*
X77555000Y-73215478D03*
%TD*%
%TO.C,U11*%
X94192000Y-87402000D03*
X95292000Y-87402000D03*
X95292000Y-85572000D03*
X94192000Y-85572000D03*
%TD*%
%TO.C,U9*%
X85302000Y-99975000D03*
X86402000Y-99975000D03*
X86402000Y-98145000D03*
X85302000Y-98145000D03*
%TD*%
%TO.C,U7*%
X85302000Y-74956000D03*
X86402000Y-74956000D03*
X86402000Y-73126000D03*
X85302000Y-73126000D03*
%TD*%
D11*
%TO.C,SW4*%
X90170000Y-100836200D03*
X90170000Y-97436200D03*
%TD*%
%TO.C,SW3*%
X73685400Y-100836200D03*
X73685400Y-97436200D03*
%TD*%
D10*
%TO.C,U3*%
X68665000Y-99975000D03*
X69765000Y-99975000D03*
X69765000Y-98145000D03*
X68665000Y-98145000D03*
%TD*%
%TO.C,U12*%
X94065000Y-99975000D03*
X95165000Y-99975000D03*
X95165000Y-98145000D03*
X94065000Y-98145000D03*
%TD*%
D11*
%TO.C,SW2*%
X73660000Y-88339400D03*
X73660000Y-84939400D03*
%TD*%
D10*
%TO.C,U1*%
X68792000Y-75083000D03*
X69892000Y-75083000D03*
X69892000Y-73253000D03*
X68792000Y-73253000D03*
%TD*%
D11*
%TO.C,SW6*%
X90170000Y-88314000D03*
X90170000Y-84914000D03*
%TD*%
M02*
