%TF.GenerationSoftware,KiCad,Pcbnew,(5.99.0-9379-gbf5cd2e233)*%
%TF.CreationDate,2021-03-05T23:03:01+01:00*%
%TF.ProjectId,sucker-one-ui-board,7375636b-6572-42d6-9f6e-652d75692d62,rev?*%
%TF.SameCoordinates,Original*%
%TF.FileFunction,Copper,L1,Top*%
%TF.FilePolarity,Positive*%
%FSLAX46Y46*%
G04 Gerber Fmt 4.6, Leading zero omitted, Abs format (unit mm)*
G04 Created by KiCad (PCBNEW (5.99.0-9379-gbf5cd2e233)) date 2021-03-05 23:03:01*
%MOMM*%
%LPD*%
G01*
G04 APERTURE LIST*
%TA.AperFunction,SMDPad,CuDef*%
%ADD10R,0.700000X0.700000*%
%TD*%
%TA.AperFunction,SMDPad,CuDef*%
%ADD11R,1.700000X0.900000*%
%TD*%
%TA.AperFunction,ViaPad*%
%ADD12C,0.800000*%
%TD*%
%TA.AperFunction,Conductor*%
%ADD13C,0.250000*%
%TD*%
%TA.AperFunction,Conductor*%
%ADD14C,0.400000*%
%TD*%
G04 APERTURE END LIST*
D10*
%TO.P,U6,1,DO*%
%TO.N,DO_REV*%
X77555000Y-100102000D03*
%TO.P,U6,2,GND*%
%TO.N,GND*%
X78655000Y-100102000D03*
%TO.P,U6,3,DI*%
%TO.N,Net-(U3-Pad1)*%
X78655000Y-98272000D03*
%TO.P,U6,4,VDD*%
%TO.N,+5V*%
X77555000Y-98272000D03*
%TD*%
%TO.P,U5,1,DO*%
%TO.N,DO_LOW*%
X77555000Y-87529000D03*
%TO.P,U5,2,GND*%
%TO.N,GND*%
X78655000Y-87529000D03*
%TO.P,U5,3,DI*%
%TO.N,Net-(U2-Pad1)*%
X78655000Y-85699000D03*
%TO.P,U5,4,VDD*%
%TO.N,+5V*%
X77555000Y-85699000D03*
%TD*%
%TO.P,U8,1,DO*%
%TO.N,Net-(U11-Pad3)*%
X85302000Y-87529000D03*
%TO.P,U8,2,GND*%
%TO.N,GND*%
X86402000Y-87529000D03*
%TO.P,U8,3,DI*%
%TO.N,DO_LOW*%
X86402000Y-85699000D03*
%TO.P,U8,4,VDD*%
%TO.N,+5V*%
X85302000Y-85699000D03*
%TD*%
%TO.P,U2,1,DO*%
%TO.N,Net-(U2-Pad1)*%
X68665000Y-87566522D03*
%TO.P,U2,2,GND*%
%TO.N,GND*%
X69765000Y-87566522D03*
%TO.P,U2,3,DI*%
%TO.N,DO_DROP*%
X69765000Y-85736522D03*
%TO.P,U2,4,VDD*%
%TO.N,+5V*%
X68665000Y-85736522D03*
%TD*%
D11*
%TO.P,SW1,1,A*%
%TO.N,LIFT_BTN*%
X73660000Y-75817200D03*
%TO.P,SW1,2,B*%
%TO.N,+3V3*%
X73660000Y-72417200D03*
%TD*%
%TO.P,SW5,1,A*%
%TO.N,DROP_BTN*%
X90170000Y-75842600D03*
%TO.P,SW5,2,B*%
%TO.N,+3V3*%
X90170000Y-72442600D03*
%TD*%
D10*
%TO.P,U10,1,DO*%
%TO.N,DO_DROP*%
X94065000Y-74956000D03*
%TO.P,U10,2,GND*%
%TO.N,GND*%
X95165000Y-74956000D03*
%TO.P,U10,3,DI*%
%TO.N,Net-(U10-Pad3)*%
X95165000Y-73126000D03*
%TO.P,U10,4,VDD*%
%TO.N,+5V*%
X94065000Y-73126000D03*
%TD*%
%TO.P,U4,1,DO*%
%TO.N,DO_LIFT*%
X77555000Y-75045478D03*
%TO.P,U4,2,GND*%
%TO.N,GND*%
X78655000Y-75045478D03*
%TO.P,U4,3,DI*%
%TO.N,Net-(U1-Pad1)*%
X78655000Y-73215478D03*
%TO.P,U4,4,VDD*%
%TO.N,+5V*%
X77555000Y-73215478D03*
%TD*%
%TO.P,U11,1,DO*%
%TO.N,DO_HIGH*%
X94192000Y-87402000D03*
%TO.P,U11,2,GND*%
%TO.N,GND*%
X95292000Y-87402000D03*
%TO.P,U11,3,DI*%
%TO.N,Net-(U11-Pad3)*%
X95292000Y-85572000D03*
%TO.P,U11,4,VDD*%
%TO.N,+5V*%
X94192000Y-85572000D03*
%TD*%
%TO.P,U9,1,DO*%
%TO.N,Net-(U12-Pad3)*%
X85302000Y-99975000D03*
%TO.P,U9,2,GND*%
%TO.N,GND*%
X86402000Y-99975000D03*
%TO.P,U9,3,DI*%
%TO.N,DO_REV*%
X86402000Y-98145000D03*
%TO.P,U9,4,VDD*%
%TO.N,+5V*%
X85302000Y-98145000D03*
%TD*%
%TO.P,U7,1,DO*%
%TO.N,Net-(U10-Pad3)*%
X85302000Y-74956000D03*
%TO.P,U7,2,GND*%
%TO.N,GND*%
X86402000Y-74956000D03*
%TO.P,U7,3,DI*%
%TO.N,DO_LIFT*%
X86402000Y-73126000D03*
%TO.P,U7,4,VDD*%
%TO.N,+5V*%
X85302000Y-73126000D03*
%TD*%
D11*
%TO.P,SW4,1,A*%
%TO.N,TRIGGER_BTN*%
X90170000Y-100836200D03*
%TO.P,SW4,2,B*%
%TO.N,+3V3*%
X90170000Y-97436200D03*
%TD*%
%TO.P,SW3,1,A*%
%TO.N,REVERSE_BTN*%
X73685400Y-100836200D03*
%TO.P,SW3,2,B*%
%TO.N,+3V3*%
X73685400Y-97436200D03*
%TD*%
D10*
%TO.P,U3,1,DO*%
%TO.N,Net-(U3-Pad1)*%
X68665000Y-99975000D03*
%TO.P,U3,2,GND*%
%TO.N,GND*%
X69765000Y-99975000D03*
%TO.P,U3,3,DI*%
%TO.N,DO_HIGH*%
X69765000Y-98145000D03*
%TO.P,U3,4,VDD*%
%TO.N,+5V*%
X68665000Y-98145000D03*
%TD*%
%TO.P,U12,1,DO*%
%TO.N,unconnected-(U12-Pad1)*%
X94065000Y-99975000D03*
%TO.P,U12,2,GND*%
%TO.N,GND*%
X95165000Y-99975000D03*
%TO.P,U12,3,DI*%
%TO.N,Net-(U12-Pad3)*%
X95165000Y-98145000D03*
%TO.P,U12,4,VDD*%
%TO.N,+5V*%
X94065000Y-98145000D03*
%TD*%
D11*
%TO.P,SW2,1,A*%
%TO.N,LOW_BTN*%
X73660000Y-88339400D03*
%TO.P,SW2,2,B*%
%TO.N,+3V3*%
X73660000Y-84939400D03*
%TD*%
D10*
%TO.P,U1,1,DO*%
%TO.N,Net-(U1-Pad1)*%
X68792000Y-75083000D03*
%TO.P,U1,2,GND*%
%TO.N,GND*%
X69892000Y-75083000D03*
%TO.P,U1,3,DI*%
%TO.N,LED_DATA*%
X69892000Y-73253000D03*
%TO.P,U1,4,VDD*%
%TO.N,+5V*%
X68792000Y-73253000D03*
%TD*%
D11*
%TO.P,SW6,1,A*%
%TO.N,HIGH_BTN*%
X90170000Y-88314000D03*
%TO.P,SW6,2,B*%
%TO.N,+3V3*%
X90170000Y-84914000D03*
%TD*%
D12*
%TO.N,Net-(U12-Pad3)*%
X87376000Y-99060000D03*
X92456000Y-99060000D03*
%TO.N,DO_REV*%
X86868000Y-97028000D03*
X82550000Y-98806000D03*
%TO.N,GND*%
X80010000Y-99060000D03*
X71628000Y-102108000D03*
X70104000Y-91948000D03*
X71120000Y-93726000D03*
X70612000Y-100838000D03*
%TO.N,Net-(U3-Pad1)*%
X71628000Y-99060000D03*
X74930000Y-95758000D03*
%TO.N,HIGH_BTN*%
X83820000Y-101092000D03*
X87122000Y-92710000D03*
X86106000Y-94742000D03*
%TO.N,TRIGGER_BTN*%
X92456000Y-102108000D03*
%TO.N,REVERSE_BTN*%
X89916000Y-102362000D03*
%TO.N,DO_HIGH*%
X92964000Y-89408000D03*
X74676000Y-99314000D03*
%TO.N,Net-(U11-Pad3)*%
X90424000Y-86868000D03*
X92964000Y-86360000D03*
%TO.N,DO_LOW*%
X84328000Y-86614000D03*
X79502000Y-86614000D03*
%TO.N,LOW_BTN*%
X87630000Y-102108000D03*
X68326000Y-95250000D03*
X66294000Y-97282000D03*
X73152000Y-89916000D03*
X79502000Y-103886000D03*
X66294000Y-102870000D03*
X68834000Y-103124000D03*
%TO.N,Net-(U2-Pad1)*%
X71882000Y-86106000D03*
X74422000Y-86106000D03*
%TO.N,DROP_BTN*%
X89662000Y-77470000D03*
X82296000Y-103886000D03*
X84743995Y-104938990D03*
%TO.N,LIFT_BTN*%
X66941288Y-101418586D03*
X68391299Y-101600000D03*
X66802000Y-82804000D03*
%TO.N,DO_DROP*%
X69088000Y-83312000D03*
X70358000Y-84836000D03*
X86360000Y-78486000D03*
X76454000Y-82550000D03*
%TO.N,Net-(U10-Pad3)*%
X87630000Y-74676000D03*
X95250000Y-72136000D03*
%TO.N,DO_LIFT*%
X84836000Y-76962000D03*
X87376000Y-73406000D03*
%TO.N,LOW_BTN*%
X74930000Y-87376000D03*
X83312000Y-72390000D03*
X82550000Y-70612000D03*
%TO.N,HIGH_BTN*%
X81534000Y-70866000D03*
X82296000Y-72390000D03*
X82296000Y-74639010D03*
%TO.N,REVERSE_BTN*%
X81280000Y-74676000D03*
X80264000Y-70866000D03*
X71882000Y-100838000D03*
X81282651Y-72334979D03*
X81026000Y-89408000D03*
%TO.N,TRIGGER_BTN*%
X80266775Y-72334979D03*
X79248000Y-70866000D03*
X80270590Y-74639010D03*
X87884000Y-94742000D03*
X87884000Y-96520000D03*
%TO.N,DROP_BTN*%
X84582000Y-70612000D03*
X91694000Y-69850000D03*
X86106000Y-70104000D03*
%TO.N,LIFT_BTN*%
X75948778Y-68889021D03*
X76068340Y-66670340D03*
X76708000Y-72136000D03*
X75006597Y-73203940D03*
X73660000Y-74930000D03*
%TO.N,LED_DATA*%
X68834000Y-76962000D03*
X67564000Y-78486000D03*
X70612000Y-74168000D03*
%TO.N,Net-(J1-Pad9)*%
X71120000Y-68580000D03*
X68834000Y-68580000D03*
%TO.N,+3V3*%
X91694000Y-96774000D03*
X90170000Y-94488000D03*
X88392000Y-77216000D03*
X90170000Y-83820000D03*
X75692000Y-99060000D03*
X72898000Y-95758000D03*
X72898000Y-93726000D03*
X72390000Y-82042000D03*
X72136000Y-84637021D03*
X70104000Y-79756000D03*
X72136000Y-71628000D03*
X77430208Y-70597288D03*
X72136000Y-69596000D03*
X88392000Y-73152000D03*
%TO.N,+5V*%
X77555000Y-96605000D03*
X66548000Y-75184000D03*
X87122000Y-68326000D03*
%TO.N,GND*%
X78740000Y-88646000D03*
X70104000Y-88392000D03*
X71120000Y-75692000D03*
X78486000Y-75946000D03*
X87122000Y-100838000D03*
X96012000Y-99314000D03*
X95250000Y-88392000D03*
X86868000Y-88392000D03*
X86868000Y-76200000D03*
X97790000Y-74422000D03*
%TD*%
D13*
%TO.N,Net-(U12-Pad3)*%
X85852000Y-99060000D02*
X87376000Y-99060000D01*
%TO.N,TRIGGER_BTN*%
X87884000Y-96520000D02*
X87884000Y-98494998D01*
%TO.N,Net-(U12-Pad3)*%
X94435020Y-99060000D02*
X95165000Y-98330020D01*
%TO.N,TRIGGER_BTN*%
X87884000Y-98494998D02*
X90170000Y-100780998D01*
X90170000Y-100780998D02*
X90170000Y-100836200D01*
%TO.N,Net-(U12-Pad3)*%
X85302000Y-99610000D02*
X85852000Y-99060000D01*
X92456000Y-99060000D02*
X94435020Y-99060000D01*
X85302000Y-99975000D02*
X85302000Y-99610000D01*
X95165000Y-98330020D02*
X95165000Y-98145000D01*
%TO.N,DO_REV*%
X77555000Y-100669000D02*
X78232000Y-101346000D01*
X78232000Y-101346000D02*
X79248000Y-101346000D01*
X79248000Y-101346000D02*
X79502000Y-101092000D01*
X79502000Y-101092000D02*
X81788000Y-98806000D01*
X77555000Y-100102000D02*
X77555000Y-100669000D01*
X86868000Y-97679000D02*
X86402000Y-98145000D01*
X81788000Y-98806000D02*
X82550000Y-98806000D01*
X86868000Y-97028000D02*
X86868000Y-97679000D01*
D14*
%TO.N,GND*%
X78655000Y-100102000D02*
X78968000Y-100102000D01*
X78968000Y-100102000D02*
X80010000Y-99060000D01*
X70612000Y-100838000D02*
X70612000Y-101092000D01*
X70612000Y-101092000D02*
X71628000Y-102108000D01*
X70104000Y-92710000D02*
X71120000Y-93726000D01*
X70104000Y-91948000D02*
X70104000Y-92710000D01*
X70612000Y-100838000D02*
X70612000Y-100822000D01*
X70612000Y-100822000D02*
X69765000Y-99975000D01*
D13*
%TO.N,Net-(U3-Pad1)*%
X76454000Y-97282000D02*
X76454000Y-98456020D01*
X77057980Y-99060000D02*
X78052020Y-99060000D01*
X69088000Y-99060000D02*
X71628000Y-99060000D01*
X78655000Y-98457020D02*
X78655000Y-98272000D01*
X76454000Y-98456020D02*
X77057980Y-99060000D01*
X68665000Y-99483000D02*
X69088000Y-99060000D01*
X68665000Y-99975000D02*
X68665000Y-99483000D01*
X74930000Y-95758000D02*
X76454000Y-97282000D01*
X78052020Y-99060000D02*
X78655000Y-98457020D01*
%TO.N,HIGH_BTN*%
X87122000Y-91694000D02*
X85344000Y-89916000D01*
X87122000Y-92710000D02*
X87122000Y-91694000D01*
X83820000Y-101092000D02*
X83820000Y-97028000D01*
X83820000Y-97028000D02*
X86106000Y-94742000D01*
%TO.N,TRIGGER_BTN*%
X90170000Y-100836200D02*
X91184200Y-100836200D01*
X91184200Y-100836200D02*
X92456000Y-102108000D01*
%TO.N,REVERSE_BTN*%
X89408000Y-105664000D02*
X89916000Y-105156000D01*
X89916000Y-105156000D02*
X89916000Y-102362000D01*
%TO.N,DROP_BTN*%
X82296000Y-103886000D02*
X83691005Y-103886000D01*
%TO.N,REVERSE_BTN*%
X80518000Y-104648000D02*
X81026000Y-105156000D01*
X83058000Y-105664000D02*
X85344000Y-105664000D01*
X81026000Y-105156000D02*
X81534000Y-105664000D01*
%TO.N,DROP_BTN*%
X83691005Y-103886000D02*
X84743995Y-104938990D01*
%TO.N,REVERSE_BTN*%
X77470000Y-104648000D02*
X80518000Y-104648000D01*
X75692000Y-104648000D02*
X77470000Y-104648000D01*
X81534000Y-105664000D02*
X83058000Y-105664000D01*
X85344000Y-105664000D02*
X89408000Y-105664000D01*
X71882000Y-100838000D02*
X75692000Y-104648000D01*
%TO.N,DO_HIGH*%
X92964000Y-88630000D02*
X92964000Y-89408000D01*
X94192000Y-87402000D02*
X92964000Y-88630000D01*
X73152000Y-99314000D02*
X71983000Y-98145000D01*
X71983000Y-98145000D02*
X69765000Y-98145000D01*
X74676000Y-99314000D02*
X73152000Y-99314000D01*
%TO.N,Net-(U11-Pad3)*%
X85598000Y-86868000D02*
X85641978Y-86824022D01*
X95292000Y-85757020D02*
X95292000Y-85572000D01*
%TO.N,DO_LOW*%
X86402000Y-85884020D02*
X86402000Y-85699000D01*
X84567989Y-86374011D02*
X85912009Y-86374011D01*
X85912009Y-86374011D02*
X86402000Y-85884020D01*
%TO.N,Net-(U11-Pad3)*%
X85302000Y-87164000D02*
X85598000Y-86868000D01*
X85302000Y-87529000D02*
X85302000Y-87164000D01*
X85641978Y-86824022D02*
X90380022Y-86824022D01*
%TO.N,DO_LOW*%
X84328000Y-86614000D02*
X84567989Y-86374011D01*
%TO.N,Net-(U11-Pad3)*%
X90380022Y-86824022D02*
X90424000Y-86868000D01*
X92964000Y-86360000D02*
X94689020Y-86360000D01*
X94689020Y-86360000D02*
X95292000Y-85757020D01*
%TO.N,HIGH_BTN*%
X82296000Y-75058412D02*
X82296000Y-74639010D01*
X85344000Y-89916000D02*
X83602999Y-88174999D01*
%TO.N,DO_LOW*%
X78561432Y-86614000D02*
X79248000Y-86614000D01*
%TO.N,HIGH_BTN*%
X88568000Y-89916000D02*
X85344000Y-89916000D01*
%TO.N,Net-(U2-Pad1)*%
X74422000Y-86106000D02*
X74690011Y-86374011D01*
%TO.N,HIGH_BTN*%
X83602999Y-88174999D02*
X83602999Y-76365411D01*
X83602999Y-76365411D02*
X82296000Y-75058412D01*
X90170000Y-88314000D02*
X88568000Y-89916000D01*
%TO.N,DO_LOW*%
X77724000Y-86868000D02*
X77767978Y-86824022D01*
X79248000Y-86614000D02*
X79502000Y-86614000D01*
X77767978Y-86824022D02*
X78351410Y-86824022D01*
%TO.N,Net-(U2-Pad1)*%
X74690011Y-86374011D02*
X78165009Y-86374011D01*
X78165009Y-86374011D02*
X78655000Y-85884020D01*
%TO.N,DO_LOW*%
X78351410Y-86824022D02*
X78561432Y-86614000D01*
X77555000Y-87529000D02*
X77555000Y-87037000D01*
%TO.N,Net-(U2-Pad1)*%
X78655000Y-85884020D02*
X78655000Y-85699000D01*
%TO.N,DO_LOW*%
X77555000Y-87037000D02*
X77724000Y-86868000D01*
%TO.N,LOW_BTN*%
X84186004Y-101854000D02*
X87376000Y-101854000D01*
X87376000Y-101854000D02*
X87630000Y-102108000D01*
D14*
%TO.N,+5V*%
X68665000Y-85736522D02*
X65493999Y-88907523D01*
D13*
%TO.N,LIFT_BTN*%
X66941288Y-101418586D02*
X68209885Y-101418586D01*
D14*
%TO.N,+5V*%
X65972998Y-98145000D02*
X68665000Y-98145000D01*
D13*
%TO.N,LOW_BTN*%
X73660000Y-88339400D02*
X73660000Y-89408000D01*
X68326000Y-95250000D02*
X66294000Y-97282000D01*
D14*
%TO.N,+5V*%
X65493999Y-97666001D02*
X65972998Y-98145000D01*
D13*
%TO.N,LOW_BTN*%
X79756000Y-102108000D02*
X80010000Y-101854000D01*
%TO.N,LIFT_BTN*%
X68209885Y-101418586D02*
X68391299Y-101600000D01*
%TO.N,LOW_BTN*%
X80010000Y-101854000D02*
X81026000Y-101854000D01*
X73660000Y-89408000D02*
X73152000Y-89916000D01*
X81026000Y-101854000D02*
X84186004Y-101854000D01*
X66294000Y-102870000D02*
X68580000Y-102870000D01*
X79502000Y-103886000D02*
X79502000Y-102362000D01*
D14*
%TO.N,+5V*%
X65493999Y-88907523D02*
X65493999Y-97666001D01*
D13*
%TO.N,LOW_BTN*%
X79502000Y-102362000D02*
X79756000Y-102108000D01*
X68580000Y-102870000D02*
X68834000Y-103124000D01*
%TO.N,Net-(U2-Pad1)*%
X71374000Y-86614000D02*
X71882000Y-86106000D01*
X68665000Y-87566522D02*
X68665000Y-87037000D01*
%TO.N,+3V3*%
X72607001Y-85108022D02*
X72136000Y-84637021D01*
X72353001Y-93181001D02*
X72353001Y-86708001D01*
X72353001Y-86708001D02*
X72607001Y-86454001D01*
%TO.N,Net-(U2-Pad1)*%
X69850000Y-86614000D02*
X71374000Y-86614000D01*
X68834000Y-86868000D02*
X69088000Y-86614000D01*
%TO.N,+3V3*%
X72898000Y-93726000D02*
X72353001Y-93181001D01*
%TO.N,Net-(U2-Pad1)*%
X68665000Y-87037000D02*
X68834000Y-86868000D01*
X69088000Y-86614000D02*
X69850000Y-86614000D01*
%TO.N,+3V3*%
X72607001Y-86454001D02*
X72607001Y-85108022D01*
%TO.N,DROP_BTN*%
X90170000Y-76962000D02*
X89662000Y-77470000D01*
X90170000Y-75842600D02*
X90170000Y-76962000D01*
%TO.N,LIFT_BTN*%
X69850000Y-77978000D02*
X68834000Y-78994000D01*
D14*
%TO.N,+5V*%
X66001999Y-75730001D02*
X66001999Y-83188001D01*
D13*
%TO.N,LIFT_BTN*%
X66802000Y-81026000D02*
X66802000Y-82804000D01*
D14*
%TO.N,+5V*%
X68550520Y-85736522D02*
X68665000Y-85736522D01*
D13*
%TO.N,LIFT_BTN*%
X68834000Y-78994000D02*
X66802000Y-81026000D01*
D14*
%TO.N,+5V*%
X66001999Y-83188001D02*
X68550520Y-85736522D01*
D13*
%TO.N,LIFT_BTN*%
X71120000Y-77978000D02*
X69850000Y-77978000D01*
X73660000Y-75817200D02*
X71499200Y-77978000D01*
D14*
%TO.N,+5V*%
X66548000Y-75184000D02*
X66001999Y-75730001D01*
D13*
%TO.N,LIFT_BTN*%
X71499200Y-77978000D02*
X71120000Y-77978000D01*
D14*
%TO.N,+5V*%
X75693011Y-83837011D02*
X77555000Y-85699000D01*
D13*
%TO.N,DO_DROP*%
X73406000Y-82550000D02*
X73152000Y-82804000D01*
D14*
%TO.N,+5V*%
X68665000Y-85736522D02*
X68665000Y-85259000D01*
X70086989Y-83837011D02*
X75693011Y-83837011D01*
D13*
%TO.N,DO_DROP*%
X74676000Y-82550000D02*
X73406000Y-82550000D01*
D14*
%TO.N,+5V*%
X68665000Y-85259000D02*
X70086989Y-83837011D01*
D13*
%TO.N,+3V3*%
X72588979Y-85090000D02*
X72136000Y-84637021D01*
%TO.N,DO_DROP*%
X72644000Y-83312000D02*
X69088000Y-83312000D01*
%TO.N,+3V3*%
X73509400Y-85090000D02*
X72588979Y-85090000D01*
%TO.N,DO_DROP*%
X73152000Y-82804000D02*
X72644000Y-83312000D01*
%TO.N,+3V3*%
X73660000Y-84939400D02*
X73509400Y-85090000D01*
%TO.N,DO_DROP*%
X70358000Y-84836000D02*
X70358000Y-85143522D01*
X70358000Y-85143522D02*
X69765000Y-85736522D01*
%TO.N,+3V3*%
X71499588Y-82042000D02*
X72390000Y-82042000D01*
%TO.N,DO_DROP*%
X94065000Y-74956000D02*
X93446000Y-74956000D01*
D14*
%TO.N,+5V*%
X85302000Y-73126000D02*
X84345011Y-74082989D01*
D13*
%TO.N,DO_DROP*%
X76454000Y-82550000D02*
X74676000Y-82550000D01*
X93446000Y-74956000D02*
X92202000Y-76200000D01*
D14*
%TO.N,+5V*%
X84345011Y-74082989D02*
X84345011Y-75287009D01*
D13*
%TO.N,DO_DROP*%
X87884000Y-78486000D02*
X86360000Y-78486000D01*
%TO.N,+3V3*%
X70104000Y-79756000D02*
X70104000Y-80646412D01*
D14*
%TO.N,+5V*%
X85636001Y-76577999D02*
X85636001Y-77771997D01*
D13*
%TO.N,DO_DROP*%
X89916000Y-78486000D02*
X87884000Y-78486000D01*
D14*
%TO.N,+5V*%
X85636001Y-77771997D02*
X85302000Y-78105998D01*
D13*
%TO.N,+3V3*%
X70104000Y-80646412D02*
X71499588Y-82042000D01*
%TO.N,DO_DROP*%
X92202000Y-76200000D02*
X89916000Y-78486000D01*
D14*
%TO.N,+5V*%
X85302000Y-78105998D02*
X85302000Y-85699000D01*
X84345011Y-75287009D02*
X85636001Y-76577999D01*
D13*
%TO.N,Net-(U10-Pad3)*%
X85302000Y-74956000D02*
X85302000Y-74464000D01*
X87122000Y-74168000D02*
X87630000Y-74676000D01*
X85598000Y-74168000D02*
X87122000Y-74168000D01*
X85302000Y-74464000D02*
X85598000Y-74168000D01*
X95250000Y-72136000D02*
X95250000Y-73041000D01*
X95250000Y-73041000D02*
X95165000Y-73126000D01*
D14*
%TO.N,+5V*%
X81751466Y-73134989D02*
X79824987Y-73134989D01*
D13*
%TO.N,DO_LIFT*%
X79502000Y-73914000D02*
X83058000Y-73914000D01*
D14*
%TO.N,+5V*%
X79463999Y-72774001D02*
X79463999Y-72332477D01*
D13*
%TO.N,DO_LIFT*%
X84074000Y-76200000D02*
X84836000Y-76962000D01*
X83566000Y-74422000D02*
X83566000Y-74930000D01*
%TO.N,TRIGGER_BTN*%
X80270590Y-75939410D02*
X80270590Y-74639010D01*
X80300999Y-84364999D02*
X77978000Y-82042000D01*
%TO.N,DO_LIFT*%
X83566000Y-74930000D02*
X83566000Y-75692000D01*
%TO.N,REVERSE_BTN*%
X81282651Y-71884651D02*
X81282651Y-72334979D01*
D14*
%TO.N,+5V*%
X79824987Y-73134989D02*
X79463999Y-72774001D01*
X81806478Y-73190001D02*
X81751466Y-73134989D01*
D13*
%TO.N,REVERSE_BTN*%
X80264000Y-70866000D02*
X81282651Y-71884651D01*
D14*
%TO.N,+5V*%
X85302000Y-73126000D02*
X85237999Y-73190001D01*
D13*
%TO.N,DO_LIFT*%
X87376000Y-73406000D02*
X87096000Y-73126000D01*
X83566000Y-75692000D02*
X84074000Y-76200000D01*
X79248000Y-74168000D02*
X79502000Y-73914000D01*
D14*
%TO.N,+5V*%
X79013522Y-71882000D02*
X78232000Y-71882000D01*
D13*
%TO.N,TRIGGER_BTN*%
X87884000Y-94742000D02*
X83275001Y-90133001D01*
%TO.N,DO_LIFT*%
X83058000Y-73914000D02*
X83566000Y-74422000D01*
D14*
%TO.N,+5V*%
X78232000Y-71882000D02*
X77555000Y-72559000D01*
D13*
%TO.N,TRIGGER_BTN*%
X80677999Y-90133001D02*
X80300999Y-89756001D01*
D14*
%TO.N,+5V*%
X77555000Y-72559000D02*
X77555000Y-73215478D01*
D13*
%TO.N,DO_LIFT*%
X78987498Y-74168000D02*
X79248000Y-74168000D01*
%TO.N,TRIGGER_BTN*%
X83275001Y-90133001D02*
X80677999Y-90133001D01*
D14*
%TO.N,+5V*%
X79463999Y-72332477D02*
X79013522Y-71882000D01*
X85237999Y-73190001D02*
X81806478Y-73190001D01*
D13*
%TO.N,TRIGGER_BTN*%
X80300999Y-89756001D02*
X80300999Y-84364999D01*
X77978000Y-78232000D02*
X80270590Y-75939410D01*
X77978000Y-82042000D02*
X77978000Y-78232000D01*
%TO.N,DO_LIFT*%
X87096000Y-73126000D02*
X86402000Y-73126000D01*
%TO.N,REVERSE_BTN*%
X81280000Y-74676000D02*
X81280000Y-76200000D01*
X81280000Y-76200000D02*
X78740000Y-78740000D01*
X78740000Y-78740000D02*
X78740000Y-81788000D01*
X78740000Y-81788000D02*
X81026000Y-84074000D01*
X81026000Y-84074000D02*
X81026000Y-85090000D01*
X81026000Y-85090000D02*
X81026000Y-89408000D01*
%TO.N,DO_LIFT*%
X77555000Y-75045478D02*
X77555000Y-74860458D01*
X77555000Y-74860458D02*
X78044991Y-74370467D01*
X78537533Y-74370467D02*
X78740000Y-74168000D01*
%TO.N,TRIGGER_BTN*%
X79248000Y-71316204D02*
X80266775Y-72334979D01*
%TO.N,DO_LIFT*%
X78044991Y-74370467D02*
X78537533Y-74370467D01*
%TO.N,TRIGGER_BTN*%
X79248000Y-70866000D02*
X79248000Y-71316204D01*
%TO.N,DO_LIFT*%
X78740000Y-74168000D02*
X78987498Y-74168000D01*
%TO.N,LOW_BTN*%
X74930000Y-87376000D02*
X74623400Y-87376000D01*
X74623400Y-87376000D02*
X73660000Y-88339400D01*
X83312000Y-71374000D02*
X83312000Y-72390000D01*
X82550000Y-70612000D02*
X83312000Y-71374000D01*
%TO.N,HIGH_BTN*%
X81534000Y-70866000D02*
X82296000Y-71628000D01*
X82296000Y-71628000D02*
X82296000Y-72390000D01*
%TO.N,REVERSE_BTN*%
X73683600Y-100838000D02*
X73685400Y-100836200D01*
X71882000Y-100838000D02*
X73683600Y-100838000D01*
D14*
%TO.N,+5V*%
X94065000Y-98145000D02*
X94065000Y-96859000D01*
X94065000Y-96859000D02*
X92925999Y-95719999D01*
X86652001Y-95719999D02*
X85302000Y-97070000D01*
X85302000Y-97070000D02*
X85302000Y-98145000D01*
X92925999Y-95719999D02*
X86652001Y-95719999D01*
D13*
%TO.N,DROP_BTN*%
X91289400Y-75842600D02*
X90170000Y-75842600D01*
X91694000Y-75438000D02*
X91289400Y-75842600D01*
X91694000Y-69850000D02*
X91694000Y-75438000D01*
D14*
%TO.N,+5V*%
X87122000Y-70272002D02*
X85302000Y-72092002D01*
X87122000Y-68326000D02*
X87122000Y-70272002D01*
X85302000Y-72092002D02*
X85302000Y-73126000D01*
D13*
%TO.N,DROP_BTN*%
X84582000Y-70612000D02*
X85598000Y-70612000D01*
X85598000Y-70612000D02*
X86106000Y-70104000D01*
%TO.N,LIFT_BTN*%
X75948778Y-66789902D02*
X76068340Y-66670340D01*
%TO.N,+3V3*%
X76585009Y-70597288D02*
X77430208Y-70597288D01*
X72136000Y-69596000D02*
X75583721Y-69596000D01*
X75583721Y-69596000D02*
X76585009Y-70597288D01*
%TO.N,LIFT_BTN*%
X75948778Y-68889021D02*
X75948778Y-66789902D01*
X75006597Y-73203940D02*
X75640060Y-73203940D01*
X75640060Y-73203940D02*
X76708000Y-72136000D01*
D14*
%TO.N,+5V*%
X77092001Y-71335999D02*
X77555000Y-71798998D01*
X70612000Y-70612000D02*
X75600000Y-70612000D01*
X77555000Y-71798998D02*
X77555000Y-73215478D01*
X68792000Y-72432000D02*
X70612000Y-70612000D01*
X76323999Y-71335999D02*
X77092001Y-71335999D01*
X75600000Y-70612000D02*
X76323999Y-71335999D01*
X68792000Y-73253000D02*
X68792000Y-72432000D01*
D13*
%TO.N,LIFT_BTN*%
X73660000Y-75817200D02*
X73660000Y-74930000D01*
%TO.N,LED_DATA*%
X68834000Y-76962000D02*
X68834000Y-77216000D01*
X68834000Y-77216000D02*
X67564000Y-78486000D01*
%TO.N,Net-(U1-Pad1)*%
X78655000Y-73400498D02*
X78655000Y-73215478D01*
X68792000Y-75083000D02*
X68792000Y-75650000D01*
X76454000Y-74168000D02*
X76708000Y-73914000D01*
X68792000Y-75650000D02*
X69850000Y-76708000D01*
X69850000Y-76708000D02*
X71628000Y-76708000D01*
X71628000Y-76708000D02*
X72136000Y-76200000D01*
X72136000Y-76200000D02*
X72136000Y-74930000D01*
X72136000Y-74930000D02*
X72898000Y-74168000D01*
X72898000Y-74168000D02*
X76454000Y-74168000D01*
X76708000Y-73914000D02*
X78141498Y-73914000D01*
X78141498Y-73914000D02*
X78655000Y-73400498D01*
%TO.N,LED_DATA*%
X70612000Y-74168000D02*
X70612000Y-73973000D01*
X70612000Y-73973000D02*
X69892000Y-73253000D01*
%TO.N,Net-(J1-Pad9)*%
X71120000Y-68580000D02*
X68834000Y-68580000D01*
%TO.N,+3V3*%
X90170000Y-84914000D02*
X90248000Y-84914000D01*
X90248000Y-84914000D02*
X92202000Y-86868000D01*
X90170000Y-92710000D02*
X90170000Y-94488000D01*
X92202000Y-86868000D02*
X92202000Y-89662000D01*
X92202000Y-89662000D02*
X91948000Y-89916000D01*
X90170000Y-91694000D02*
X90170000Y-92710000D01*
X91440000Y-97028000D02*
X91440000Y-97282000D01*
X91285800Y-97436200D02*
X90170000Y-97436200D01*
X91948000Y-89916000D02*
X90170000Y-91694000D01*
X91694000Y-96774000D02*
X91440000Y-97028000D01*
X91440000Y-97282000D02*
X91285800Y-97436200D01*
D14*
%TO.N,+5V*%
X85302000Y-85699000D02*
X85302000Y-85378980D01*
X87660981Y-83019999D02*
X92671999Y-83019999D01*
X85302000Y-85378980D02*
X87660981Y-83019999D01*
D13*
%TO.N,+3V3*%
X88392000Y-73152000D02*
X88392000Y-77216000D01*
D14*
%TO.N,+5V*%
X92671999Y-83019999D02*
X94192000Y-84540000D01*
D13*
%TO.N,+3V3*%
X90170000Y-83820000D02*
X90170000Y-84914000D01*
X73685400Y-97436200D02*
X74068200Y-97436200D01*
X74068200Y-97436200D02*
X75692000Y-99060000D01*
X72898000Y-95758000D02*
X72898000Y-96648800D01*
X72898000Y-96648800D02*
X73685400Y-97436200D01*
X72925200Y-72417200D02*
X73660000Y-72417200D01*
X72136000Y-71628000D02*
X72925200Y-72417200D01*
X88392000Y-73152000D02*
X89460600Y-73152000D01*
X89460600Y-73152000D02*
X90170000Y-72442600D01*
D14*
%TO.N,+5V*%
X94065000Y-97197000D02*
X94065000Y-98145000D01*
X94658000Y-84074000D02*
X96774000Y-84074000D01*
X94192000Y-84540000D02*
X94658000Y-84074000D01*
X96774000Y-84074000D02*
X97536000Y-84836000D01*
X97536000Y-94996000D02*
X96774000Y-95758000D01*
X97536000Y-84836000D02*
X97536000Y-94996000D01*
X96774000Y-95758000D02*
X95504000Y-95758000D01*
X95504000Y-95758000D02*
X94065000Y-97197000D01*
X94192000Y-84540000D02*
X94192000Y-85572000D01*
X77555000Y-96605000D02*
X77555000Y-98272000D01*
X68665000Y-98145000D02*
X68665000Y-96435000D01*
X68665000Y-96435000D02*
X70358000Y-94742000D01*
X75692000Y-94742000D02*
X77555000Y-96605000D01*
X70358000Y-94742000D02*
X75692000Y-94742000D01*
X67463000Y-73253000D02*
X66548000Y-74168000D01*
X66548000Y-74168000D02*
X66548000Y-75184000D01*
X68792000Y-73253000D02*
X67463000Y-73253000D01*
X91948000Y-68326000D02*
X94065000Y-70443000D01*
X94065000Y-70443000D02*
X94065000Y-73126000D01*
X87122000Y-68326000D02*
X91948000Y-68326000D01*
%TO.N,GND*%
X78740000Y-88646000D02*
X78740000Y-87614000D01*
X78740000Y-87614000D02*
X78655000Y-87529000D01*
X70104000Y-87905522D02*
X69765000Y-87566522D01*
X70104000Y-88392000D02*
X70104000Y-87905522D01*
X69892000Y-75083000D02*
X70511000Y-75083000D01*
X70511000Y-75083000D02*
X71120000Y-75692000D01*
X78486000Y-75946000D02*
X78486000Y-75214478D01*
X78486000Y-75214478D02*
X78655000Y-75045478D01*
X87122000Y-100838000D02*
X87122000Y-100695000D01*
X87122000Y-100695000D02*
X86402000Y-99975000D01*
X96012000Y-99314000D02*
X95826000Y-99314000D01*
X95826000Y-99314000D02*
X95165000Y-99975000D01*
X95250000Y-88392000D02*
X95250000Y-87444000D01*
X95250000Y-87444000D02*
X95292000Y-87402000D01*
X86868000Y-88392000D02*
X86868000Y-87995000D01*
X86868000Y-87995000D02*
X86402000Y-87529000D01*
X86402000Y-74956000D02*
X86402000Y-75734000D01*
X86402000Y-75734000D02*
X86868000Y-76200000D01*
X97256000Y-74956000D02*
X95165000Y-74956000D01*
X97790000Y-74422000D02*
X97256000Y-74956000D01*
%TD*%
M02*
