M48
; DRILL file {KiCad (5.99.0-9379-gbf5cd2e233)} date Friday, March 05, 2021 at 06:33:37 PM
; FORMAT={-:-/ absolute / inch / decimal}
; #@! TF.CreationDate,2021-03-05T18:33:37+01:00
; #@! TF.GenerationSoftware,Kicad,Pcbnew,(5.99.0-9379-gbf5cd2e233)
; #@! TF.FileFunction,Plated,1,2,PTH
FMAT,2
INCH
T1C0.0157
%
G90
G05
T1
X2.67Y-2.91
X2.7Y-3.83
X2.71Y-3.34
X2.7281Y-2.9558
X2.78Y-3.8
X2.8Y-3.38
X2.81Y-2.92
X2.81Y-3.49
X2.82Y-2.983
X2.82Y-3.87
X2.83Y-2.85
X2.83Y-3.55
X2.84Y-3.39
X2.85Y-2.69
X2.85Y-3.02
X2.89Y-3.72
X2.92Y-3.08
X2.92Y-3.56
X2.95Y-2.69
X2.95Y-2.94
X2.95Y-3.39
X2.96Y-3.16
X2.96Y-3.99
X2.98Y-3.04
X2.98Y-3.89
X2.99Y-2.85
X2.99Y-2.99
X3.0Y-2.75
X3.01Y-3.41
X3.0159Y-3.94
X3.02Y-2.88
X3.0297Y-2.9193
X3.05Y-3.33
X3.05Y-3.77
X3.05Y-3.84
X3.09Y-2.77
X3.09Y-3.72
X3.1193Y-3.0008
X3.13Y-2.75
X3.13Y-3.99
X3.1373Y-3.0373
X3.14Y-2.9
X3.15Y-3.42
X3.16Y-2.78
X3.1698Y-3.3202
X3.18Y-2.9
X3.1893Y-2.9547
X3.19Y-2.75
X3.2Y-3.47
X3.21Y-3.37
X3.22Y-2.85
X3.23Y-2.77
X3.23Y-3.04
X3.25Y-3.42
X3.26Y-2.84
X3.26Y-2.95
X3.26Y-3.86
X3.2691Y-2.906
X3.28Y-3.33
X3.28Y-3.75
X3.28Y-3.93
X3.3Y-3.81
X3.31Y-2.76
X3.31Y-3.42
X3.32Y-3.99
X3.3225Y-2.7986
X3.3398Y-3.7785
X3.35Y-3.82
X3.3535Y-2.8333
X3.36Y-3.34
X3.3602Y-2.7598
X3.37Y-3.98
X3.4037Y-2.9246
X3.41Y-3.7
X3.44Y-3.41
X3.44Y-3.88
X3.45Y-2.74
X3.45Y-3.74
X3.47Y-3.56
X3.47Y-4.01
X3.5Y-3.27
X3.5Y-3.5
X3.51Y-2.66
X3.54Y-3.53
X3.55Y-3.29
X3.55Y-3.76
X3.6Y-3.24
X3.61Y-2.83
X3.62Y-3.79
X3.63Y-3.11
X3.63Y-3.48
X3.64Y-3.01
X3.64Y-3.98
X3.65Y-4.02
X3.66Y-3.28
X3.66Y-3.4
X3.7Y-3.83
X3.7073Y-2.8227
X3.71Y-3.33
X3.72Y-3.99
X3.75Y-3.83
X3.79Y-2.95
X3.79Y-3.01
X3.8Y-3.35
X3.83Y-2.92
T0
M30
