%TF.GenerationSoftware,KiCad,Pcbnew,(5.99.0-10573-gc33b2cfa8d)*%
%TF.CreationDate,2021-05-20T09:22:53+02:00*%
%TF.ProjectId,sucker-one-ui-board,7375636b-6572-42d6-9f6e-652d75692d62,rev?*%
%TF.SameCoordinates,Original*%
%TF.FileFunction,Legend,Top*%
%TF.FilePolarity,Positive*%
%FSLAX46Y46*%
G04 Gerber Fmt 4.6, Leading zero omitted, Abs format (unit mm)*
G04 Created by KiCad (PCBNEW (5.99.0-10573-gc33b2cfa8d)) date 2021-05-20 09:22:53*
%MOMM*%
%LPD*%
G01*
G04 APERTURE LIST*
%ADD10C,0.150000*%
%ADD11C,0.127000*%
%ADD12C,0.200000*%
%ADD13C,0.120000*%
G04 APERTURE END LIST*
D10*
X70251714Y-81398628D02*
X69966000Y-81398628D01*
X69966000Y-80798628D01*
X70451714Y-81084342D02*
X70651714Y-81084342D01*
X70737428Y-81398628D02*
X70451714Y-81398628D01*
X70451714Y-80798628D01*
X70737428Y-80798628D01*
X70994571Y-81398628D02*
X70994571Y-80798628D01*
X71137428Y-80798628D01*
X71223142Y-80827200D01*
X71280285Y-80884342D01*
X71308857Y-80941485D01*
X71337428Y-81055771D01*
X71337428Y-81141485D01*
X71308857Y-81255771D01*
X71280285Y-81312914D01*
X71223142Y-81370057D01*
X71137428Y-81398628D01*
X70994571Y-81398628D01*
X68651714Y-81764628D02*
X68766000Y-81764628D01*
X68823142Y-81793200D01*
X68880285Y-81850342D01*
X68908857Y-81964628D01*
X68908857Y-82164628D01*
X68880285Y-82278914D01*
X68823142Y-82336057D01*
X68766000Y-82364628D01*
X68651714Y-82364628D01*
X68594571Y-82336057D01*
X68537428Y-82278914D01*
X68508857Y-82164628D01*
X68508857Y-81964628D01*
X68537428Y-81850342D01*
X68594571Y-81793200D01*
X68651714Y-81764628D01*
X69166000Y-82364628D02*
X69166000Y-81964628D01*
X69166000Y-82078914D02*
X69194571Y-82021771D01*
X69223142Y-81993200D01*
X69280285Y-81964628D01*
X69337428Y-81964628D01*
X69537428Y-82364628D02*
X69537428Y-81964628D01*
X69537428Y-81764628D02*
X69508857Y-81793200D01*
X69537428Y-81821771D01*
X69566000Y-81793200D01*
X69537428Y-81764628D01*
X69537428Y-81821771D01*
X70051714Y-82336057D02*
X69994571Y-82364628D01*
X69880285Y-82364628D01*
X69823142Y-82336057D01*
X69794571Y-82278914D01*
X69794571Y-82050342D01*
X69823142Y-81993200D01*
X69880285Y-81964628D01*
X69994571Y-81964628D01*
X70051714Y-81993200D01*
X70080285Y-82050342D01*
X70080285Y-82107485D01*
X69794571Y-82164628D01*
X70337428Y-81964628D02*
X70337428Y-82364628D01*
X70337428Y-82021771D02*
X70366000Y-81993200D01*
X70423142Y-81964628D01*
X70508857Y-81964628D01*
X70566000Y-81993200D01*
X70594571Y-82050342D01*
X70594571Y-82364628D01*
X70794571Y-81964628D02*
X71023142Y-81964628D01*
X70880285Y-81764628D02*
X70880285Y-82278914D01*
X70908857Y-82336057D01*
X70966000Y-82364628D01*
X71023142Y-82364628D01*
X71480285Y-82364628D02*
X71480285Y-82050342D01*
X71451714Y-81993200D01*
X71394571Y-81964628D01*
X71280285Y-81964628D01*
X71223142Y-81993200D01*
X71480285Y-82336057D02*
X71423142Y-82364628D01*
X71280285Y-82364628D01*
X71223142Y-82336057D01*
X71194571Y-82278914D01*
X71194571Y-82221771D01*
X71223142Y-82164628D01*
X71280285Y-82136057D01*
X71423142Y-82136057D01*
X71480285Y-82107485D01*
X71680285Y-81964628D02*
X71908857Y-81964628D01*
X71766000Y-81764628D02*
X71766000Y-82278914D01*
X71794571Y-82336057D01*
X71851714Y-82364628D01*
X71908857Y-82364628D01*
X72108857Y-82364628D02*
X72108857Y-81964628D01*
X72108857Y-81764628D02*
X72080285Y-81793200D01*
X72108857Y-81821771D01*
X72137428Y-81793200D01*
X72108857Y-81764628D01*
X72108857Y-81821771D01*
X72480285Y-82364628D02*
X72423142Y-82336057D01*
X72394571Y-82307485D01*
X72366000Y-82250342D01*
X72366000Y-82078914D01*
X72394571Y-82021771D01*
X72423142Y-81993200D01*
X72480285Y-81964628D01*
X72566000Y-81964628D01*
X72623142Y-81993200D01*
X72651714Y-82021771D01*
X72680285Y-82078914D01*
X72680285Y-82250342D01*
X72651714Y-82307485D01*
X72623142Y-82336057D01*
X72566000Y-82364628D01*
X72480285Y-82364628D01*
X72937428Y-81964628D02*
X72937428Y-82364628D01*
X72937428Y-82021771D02*
X72966000Y-81993200D01*
X73023142Y-81964628D01*
X73108857Y-81964628D01*
X73166000Y-81993200D01*
X73194571Y-82050342D01*
X73194571Y-82364628D01*
X67373500Y-77609700D02*
X68389500Y-77609700D01*
X66154300Y-81470500D02*
X66154300Y-77609700D01*
X68389500Y-81470500D02*
X67398900Y-81470500D01*
X69634100Y-77609700D02*
X69634100Y-81470500D01*
X68389500Y-81470500D02*
G75*
G02*
X69634100Y-81470500I622300J0D01*
G01*
X66154300Y-81470500D02*
G75*
G02*
X67398900Y-81470500I622300J0D01*
G01*
X67398900Y-77609700D02*
G75*
G02*
X66154300Y-77609700I-622300J0D01*
G01*
X69634100Y-77609700D02*
G75*
G02*
X68389500Y-77609700I-622300J0D01*
G01*
X67995800Y-78613000D02*
X69240400Y-78613000D01*
X69240400Y-78613000D02*
X69240400Y-80314800D01*
X69240400Y-80314800D02*
X67995800Y-80314800D01*
X67995800Y-80314800D02*
X67995800Y-78613000D01*
G36*
X67995800Y-78613000D02*
G01*
X69240400Y-78613000D01*
X69240400Y-80314800D01*
X67995800Y-80314800D01*
X67995800Y-78613000D01*
G37*
%TO.C,C4*%
X72604333Y-91847942D02*
X72556714Y-91895561D01*
X72413857Y-91943180D01*
X72318619Y-91943180D01*
X72175761Y-91895561D01*
X72080523Y-91800323D01*
X72032904Y-91705085D01*
X71985285Y-91514609D01*
X71985285Y-91371752D01*
X72032904Y-91181276D01*
X72080523Y-91086038D01*
X72175761Y-90990800D01*
X72318619Y-90943180D01*
X72413857Y-90943180D01*
X72556714Y-90990800D01*
X72604333Y-91038419D01*
X73461476Y-91276514D02*
X73461476Y-91943180D01*
X73223380Y-90895561D02*
X72985285Y-91609847D01*
X73604333Y-91609847D01*
%TO.C,C5*%
X88631733Y-104293942D02*
X88584114Y-104341561D01*
X88441257Y-104389180D01*
X88346019Y-104389180D01*
X88203161Y-104341561D01*
X88107923Y-104246323D01*
X88060304Y-104151085D01*
X88012685Y-103960609D01*
X88012685Y-103817752D01*
X88060304Y-103627276D01*
X88107923Y-103532038D01*
X88203161Y-103436800D01*
X88346019Y-103389180D01*
X88441257Y-103389180D01*
X88584114Y-103436800D01*
X88631733Y-103484419D01*
X89536495Y-103389180D02*
X89060304Y-103389180D01*
X89012685Y-103865371D01*
X89060304Y-103817752D01*
X89155542Y-103770133D01*
X89393638Y-103770133D01*
X89488876Y-103817752D01*
X89536495Y-103865371D01*
X89584114Y-103960609D01*
X89584114Y-104198704D01*
X89536495Y-104293942D01*
X89488876Y-104341561D01*
X89393638Y-104389180D01*
X89155542Y-104389180D01*
X89060304Y-104341561D01*
X89012685Y-104293942D01*
%TO.C,C6*%
X72604333Y-104370142D02*
X72556714Y-104417761D01*
X72413857Y-104465380D01*
X72318619Y-104465380D01*
X72175761Y-104417761D01*
X72080523Y-104322523D01*
X72032904Y-104227285D01*
X71985285Y-104036809D01*
X71985285Y-103893952D01*
X72032904Y-103703476D01*
X72080523Y-103608238D01*
X72175761Y-103513000D01*
X72318619Y-103465380D01*
X72413857Y-103465380D01*
X72556714Y-103513000D01*
X72604333Y-103560619D01*
X73461476Y-103465380D02*
X73271000Y-103465380D01*
X73175761Y-103513000D01*
X73128142Y-103560619D01*
X73032904Y-103703476D01*
X72985285Y-103893952D01*
X72985285Y-104274904D01*
X73032904Y-104370142D01*
X73080523Y-104417761D01*
X73175761Y-104465380D01*
X73366238Y-104465380D01*
X73461476Y-104417761D01*
X73509095Y-104370142D01*
X73556714Y-104274904D01*
X73556714Y-104036809D01*
X73509095Y-103941571D01*
X73461476Y-103893952D01*
X73366238Y-103846333D01*
X73175761Y-103846333D01*
X73080523Y-103893952D01*
X73032904Y-103941571D01*
X72985285Y-104036809D01*
%TO.C,C2*%
X72807533Y-79274942D02*
X72759914Y-79322561D01*
X72617057Y-79370180D01*
X72521819Y-79370180D01*
X72378961Y-79322561D01*
X72283723Y-79227323D01*
X72236104Y-79132085D01*
X72188485Y-78941609D01*
X72188485Y-78798752D01*
X72236104Y-78608276D01*
X72283723Y-78513038D01*
X72378961Y-78417800D01*
X72521819Y-78370180D01*
X72617057Y-78370180D01*
X72759914Y-78417800D01*
X72807533Y-78465419D01*
X73188485Y-78465419D02*
X73236104Y-78417800D01*
X73331342Y-78370180D01*
X73569438Y-78370180D01*
X73664676Y-78417800D01*
X73712295Y-78465419D01*
X73759914Y-78560657D01*
X73759914Y-78655895D01*
X73712295Y-78798752D01*
X73140866Y-79370180D01*
X73759914Y-79370180D01*
%TO.C,C3*%
X89266733Y-79478142D02*
X89219114Y-79525761D01*
X89076257Y-79573380D01*
X88981019Y-79573380D01*
X88838161Y-79525761D01*
X88742923Y-79430523D01*
X88695304Y-79335285D01*
X88647685Y-79144809D01*
X88647685Y-79001952D01*
X88695304Y-78811476D01*
X88742923Y-78716238D01*
X88838161Y-78621000D01*
X88981019Y-78573380D01*
X89076257Y-78573380D01*
X89219114Y-78621000D01*
X89266733Y-78668619D01*
X89600066Y-78573380D02*
X90219114Y-78573380D01*
X89885780Y-78954333D01*
X90028638Y-78954333D01*
X90123876Y-79001952D01*
X90171495Y-79049571D01*
X90219114Y-79144809D01*
X90219114Y-79382904D01*
X90171495Y-79478142D01*
X90123876Y-79525761D01*
X90028638Y-79573380D01*
X89742923Y-79573380D01*
X89647685Y-79525761D01*
X89600066Y-79478142D01*
%TO.C,C1*%
X89165133Y-91873342D02*
X89117514Y-91920961D01*
X88974657Y-91968580D01*
X88879419Y-91968580D01*
X88736561Y-91920961D01*
X88641323Y-91825723D01*
X88593704Y-91730485D01*
X88546085Y-91540009D01*
X88546085Y-91397152D01*
X88593704Y-91206676D01*
X88641323Y-91111438D01*
X88736561Y-91016200D01*
X88879419Y-90968580D01*
X88974657Y-90968580D01*
X89117514Y-91016200D01*
X89165133Y-91063819D01*
X90117514Y-91968580D02*
X89546085Y-91968580D01*
X89831800Y-91968580D02*
X89831800Y-90968580D01*
X89736561Y-91111438D01*
X89641323Y-91206676D01*
X89546085Y-91254295D01*
D11*
%TO.C,U6*%
X77105000Y-99487000D02*
X77105000Y-98887000D01*
X79105000Y-99487000D02*
X79105000Y-98887000D01*
D12*
X77577956Y-100957000D02*
G75*
G03*
X77577956Y-100957000I-102956J0D01*
G01*
D13*
%TO.C,C4*%
X73494020Y-89456800D02*
X73775180Y-89456800D01*
X73494020Y-90476800D02*
X73775180Y-90476800D01*
D11*
%TO.C,U5*%
X79105000Y-86914000D02*
X79105000Y-86314000D01*
X77105000Y-86914000D02*
X77105000Y-86314000D01*
D12*
X77577956Y-88384000D02*
G75*
G03*
X77577956Y-88384000I-102956J0D01*
G01*
D11*
%TO.C,U8*%
X86852000Y-86914000D02*
X86852000Y-86314000D01*
X84852000Y-86914000D02*
X84852000Y-86314000D01*
D12*
X85324956Y-88384000D02*
G75*
G03*
X85324956Y-88384000I-102956J0D01*
G01*
D11*
%TO.C,U2*%
X70215000Y-86951522D02*
X70215000Y-86351522D01*
X68215000Y-86951522D02*
X68215000Y-86351522D01*
D12*
X68687956Y-88421522D02*
G75*
G03*
X68687956Y-88421522I-102956J0D01*
G01*
D13*
%TO.C,C5*%
X90029420Y-102948200D02*
X90310580Y-102948200D01*
X90029420Y-101928200D02*
X90310580Y-101928200D01*
%TO.C,SW1*%
X75060000Y-72467200D02*
X74760000Y-72467200D01*
X72260000Y-72467200D02*
X72560000Y-72467200D01*
X75060000Y-75767200D02*
X75060000Y-72467200D01*
X72560000Y-75767200D02*
X72260000Y-75767200D01*
X74760000Y-75767200D02*
X75060000Y-75767200D01*
X72260000Y-75767200D02*
X72260000Y-72467200D01*
%TO.C,SW5*%
X91570000Y-72492600D02*
X91270000Y-72492600D01*
X88770000Y-75792600D02*
X88770000Y-72492600D01*
X91270000Y-75792600D02*
X91570000Y-75792600D01*
X88770000Y-72492600D02*
X89070000Y-72492600D01*
X91570000Y-75792600D02*
X91570000Y-72492600D01*
X89070000Y-75792600D02*
X88770000Y-75792600D01*
D11*
%TO.C,U10*%
X93615000Y-74341000D02*
X93615000Y-73741000D01*
X95615000Y-74341000D02*
X95615000Y-73741000D01*
D12*
X94087956Y-75811000D02*
G75*
G03*
X94087956Y-75811000I-102956J0D01*
G01*
D13*
%TO.C,C6*%
X73494020Y-101928200D02*
X73775180Y-101928200D01*
X73494020Y-102948200D02*
X73775180Y-102948200D01*
%TO.C,C2*%
X73494020Y-77929200D02*
X73775180Y-77929200D01*
X73494020Y-76909200D02*
X73775180Y-76909200D01*
D11*
%TO.C,U4*%
X79105000Y-74430478D02*
X79105000Y-73830478D01*
X77105000Y-74430478D02*
X77105000Y-73830478D01*
D12*
X77577956Y-75900478D02*
G75*
G03*
X77577956Y-75900478I-102956J0D01*
G01*
D11*
%TO.C,U11*%
X93742000Y-86787000D02*
X93742000Y-86187000D01*
X95742000Y-86787000D02*
X95742000Y-86187000D01*
D12*
X94214956Y-88257000D02*
G75*
G03*
X94214956Y-88257000I-102956J0D01*
G01*
D11*
%TO.C,U9*%
X86852000Y-99360000D02*
X86852000Y-98760000D01*
X84852000Y-99360000D02*
X84852000Y-98760000D01*
D12*
X85324956Y-100830000D02*
G75*
G03*
X85324956Y-100830000I-102956J0D01*
G01*
D11*
%TO.C,U7*%
X86852000Y-74341000D02*
X86852000Y-73741000D01*
X84852000Y-74341000D02*
X84852000Y-73741000D01*
D12*
X85324956Y-75811000D02*
G75*
G03*
X85324956Y-75811000I-102956J0D01*
G01*
D13*
%TO.C,SW4*%
X88770000Y-97486200D02*
X89070000Y-97486200D01*
X91270000Y-100786200D02*
X91570000Y-100786200D01*
X89070000Y-100786200D02*
X88770000Y-100786200D01*
X91570000Y-100786200D02*
X91570000Y-97486200D01*
X88770000Y-100786200D02*
X88770000Y-97486200D01*
X91570000Y-97486200D02*
X91270000Y-97486200D01*
%TO.C,SW3*%
X72285400Y-97486200D02*
X72585400Y-97486200D01*
X75085400Y-100786200D02*
X75085400Y-97486200D01*
X75085400Y-97486200D02*
X74785400Y-97486200D01*
X72285400Y-100786200D02*
X72285400Y-97486200D01*
X74785400Y-100786200D02*
X75085400Y-100786200D01*
X72585400Y-100786200D02*
X72285400Y-100786200D01*
D11*
%TO.C,U3*%
X70215000Y-99360000D02*
X70215000Y-98760000D01*
X68215000Y-99360000D02*
X68215000Y-98760000D01*
D12*
X68687956Y-100830000D02*
G75*
G03*
X68687956Y-100830000I-102956J0D01*
G01*
D13*
%TO.C,C3*%
X90029420Y-77954600D02*
X90310580Y-77954600D01*
X90029420Y-76934600D02*
X90310580Y-76934600D01*
D11*
%TO.C,U12*%
X95615000Y-99360000D02*
X95615000Y-98760000D01*
X93615000Y-99360000D02*
X93615000Y-98760000D01*
D12*
X94087956Y-100830000D02*
G75*
G03*
X94087956Y-100830000I-102956J0D01*
G01*
D13*
%TO.C,C1*%
X90054820Y-90426000D02*
X90335980Y-90426000D01*
X90054820Y-89406000D02*
X90335980Y-89406000D01*
%TO.C,SW2*%
X72560000Y-88289400D02*
X72260000Y-88289400D01*
X72260000Y-84989400D02*
X72560000Y-84989400D01*
X74760000Y-88289400D02*
X75060000Y-88289400D01*
X75060000Y-84989400D02*
X74760000Y-84989400D01*
X72260000Y-88289400D02*
X72260000Y-84989400D01*
X75060000Y-88289400D02*
X75060000Y-84989400D01*
D11*
%TO.C,U1*%
X68342000Y-74468000D02*
X68342000Y-73868000D01*
X70342000Y-74468000D02*
X70342000Y-73868000D01*
D12*
X68814956Y-75938000D02*
G75*
G03*
X68814956Y-75938000I-102956J0D01*
G01*
D13*
%TO.C,SW6*%
X91570000Y-84964000D02*
X91270000Y-84964000D01*
X91270000Y-88264000D02*
X91570000Y-88264000D01*
X91570000Y-88264000D02*
X91570000Y-84964000D01*
X89070000Y-88264000D02*
X88770000Y-88264000D01*
X88770000Y-88264000D02*
X88770000Y-84964000D01*
X88770000Y-84964000D02*
X89070000Y-84964000D01*
%TD*%
M02*
