%TF.GenerationSoftware,KiCad,Pcbnew,(5.99.0-9379-gbf5cd2e233)*%
%TF.CreationDate,2021-03-05T18:33:33+01:00*%
%TF.ProjectId,sucker-one-ui-board,7375636b-6572-42d6-9f6e-652d75692d62,rev?*%
%TF.SameCoordinates,Original*%
%TF.FileFunction,Copper,L1,Top*%
%TF.FilePolarity,Positive*%
%FSLAX46Y46*%
G04 Gerber Fmt 4.6, Leading zero omitted, Abs format (unit mm)*
G04 Created by KiCad (PCBNEW (5.99.0-9379-gbf5cd2e233)) date 2021-03-05 18:33:33*
%MOMM*%
%LPD*%
G01*
G04 APERTURE LIST*
G04 Aperture macros list*
%AMRoundRect*
0 Rectangle with rounded corners*
0 $1 Rounding radius*
0 $2 $3 $4 $5 $6 $7 $8 $9 X,Y pos of 4 corners*
0 Add a 4 corners polygon primitive as box body*
4,1,4,$2,$3,$4,$5,$6,$7,$8,$9,$2,$3,0*
0 Add four circle primitives for the rounded corners*
1,1,$1+$1,$2,$3*
1,1,$1+$1,$4,$5*
1,1,$1+$1,$6,$7*
1,1,$1+$1,$8,$9*
0 Add four rect primitives between the rounded corners*
20,1,$1+$1,$2,$3,$4,$5,0*
20,1,$1+$1,$4,$5,$6,$7,0*
20,1,$1+$1,$6,$7,$8,$9,0*
20,1,$1+$1,$8,$9,$2,$3,0*%
G04 Aperture macros list end*
%TA.AperFunction,SMDPad,CuDef*%
%ADD10R,0.700000X0.700000*%
%TD*%
%TA.AperFunction,SMDPad,CuDef*%
%ADD11RoundRect,0.200000X0.200000X0.275000X-0.200000X0.275000X-0.200000X-0.275000X0.200000X-0.275000X0*%
%TD*%
%TA.AperFunction,SMDPad,CuDef*%
%ADD12R,1.700000X0.900000*%
%TD*%
%TA.AperFunction,SMDPad,CuDef*%
%ADD13RoundRect,0.150000X-0.587500X-0.150000X0.587500X-0.150000X0.587500X0.150000X-0.587500X0.150000X0*%
%TD*%
%TA.AperFunction,SMDPad,CuDef*%
%ADD14RoundRect,0.200000X-0.200000X-0.275000X0.200000X-0.275000X0.200000X0.275000X-0.200000X0.275000X0*%
%TD*%
%TA.AperFunction,ViaPad*%
%ADD15C,0.800000*%
%TD*%
%TA.AperFunction,Conductor*%
%ADD16C,0.400000*%
%TD*%
%TA.AperFunction,Conductor*%
%ADD17C,0.250000*%
%TD*%
G04 APERTURE END LIST*
D10*
%TO.P,U6,1,DO*%
%TO.N,DO_REV*%
X77555000Y-100102000D03*
%TO.P,U6,2,GND*%
%TO.N,GND*%
X78655000Y-100102000D03*
%TO.P,U6,3,DI*%
%TO.N,Net-(U3-Pad1)*%
X78655000Y-98272000D03*
%TO.P,U6,4,VDD*%
%TO.N,+5V*%
X77555000Y-98272000D03*
%TD*%
%TO.P,U5,1,DO*%
%TO.N,DO_LOW*%
X77555000Y-87529000D03*
%TO.P,U5,2,GND*%
%TO.N,GND*%
X78655000Y-87529000D03*
%TO.P,U5,3,DI*%
%TO.N,Net-(U2-Pad1)*%
X78655000Y-85699000D03*
%TO.P,U5,4,VDD*%
%TO.N,+5V*%
X77555000Y-85699000D03*
%TD*%
%TO.P,U8,1,DO*%
%TO.N,Net-(U11-Pad3)*%
X85302000Y-87529000D03*
%TO.P,U8,2,GND*%
%TO.N,GND*%
X86402000Y-87529000D03*
%TO.P,U8,3,DI*%
%TO.N,DO_LOW*%
X86402000Y-85699000D03*
%TO.P,U8,4,VDD*%
%TO.N,+5V*%
X85302000Y-85699000D03*
%TD*%
%TO.P,U2,1,DO*%
%TO.N,Net-(U2-Pad1)*%
X68665000Y-87566522D03*
%TO.P,U2,2,GND*%
%TO.N,GND*%
X69765000Y-87566522D03*
%TO.P,U2,3,DI*%
%TO.N,DO_DROP*%
X69765000Y-85736522D03*
%TO.P,U2,4,VDD*%
%TO.N,+5V*%
X68665000Y-85736522D03*
%TD*%
D11*
%TO.P,R1,1*%
%TO.N,Net-(J1-Pad9)*%
X78676000Y-71501000D03*
%TO.P,R1,2*%
%TO.N,+3V3*%
X77026000Y-71501000D03*
%TD*%
D12*
%TO.P,SW1,1,A*%
%TO.N,LIFT_BTN*%
X73660000Y-75817200D03*
%TO.P,SW1,2,B*%
%TO.N,+3V3*%
X73660000Y-72417200D03*
%TD*%
%TO.P,SW5,1,A*%
%TO.N,DROP_BTN*%
X90170000Y-75842600D03*
%TO.P,SW5,2,B*%
%TO.N,+3V3*%
X90170000Y-72442600D03*
%TD*%
D10*
%TO.P,U10,1,DO*%
%TO.N,DO_DROP*%
X94065000Y-74956000D03*
%TO.P,U10,2,GND*%
%TO.N,GND*%
X95165000Y-74956000D03*
%TO.P,U10,3,DI*%
%TO.N,Net-(U10-Pad3)*%
X95165000Y-73126000D03*
%TO.P,U10,4,VDD*%
%TO.N,+5V*%
X94065000Y-73126000D03*
%TD*%
%TO.P,U4,1,DO*%
%TO.N,DO_LIFT*%
X77555000Y-75045478D03*
%TO.P,U4,2,GND*%
%TO.N,GND*%
X78655000Y-75045478D03*
%TO.P,U4,3,DI*%
%TO.N,Net-(U1-Pad1)*%
X78655000Y-73215478D03*
%TO.P,U4,4,VDD*%
%TO.N,+5V*%
X77555000Y-73215478D03*
%TD*%
%TO.P,U11,1,DO*%
%TO.N,DO_HIGH*%
X94192000Y-87402000D03*
%TO.P,U11,2,GND*%
%TO.N,GND*%
X95292000Y-87402000D03*
%TO.P,U11,3,DI*%
%TO.N,Net-(U11-Pad3)*%
X95292000Y-85572000D03*
%TO.P,U11,4,VDD*%
%TO.N,+5V*%
X94192000Y-85572000D03*
%TD*%
%TO.P,U9,1,DO*%
%TO.N,Net-(U12-Pad3)*%
X85302000Y-99975000D03*
%TO.P,U9,2,GND*%
%TO.N,GND*%
X86402000Y-99975000D03*
%TO.P,U9,3,DI*%
%TO.N,DO_REV*%
X86402000Y-98145000D03*
%TO.P,U9,4,VDD*%
%TO.N,+5V*%
X85302000Y-98145000D03*
%TD*%
%TO.P,U7,1,DO*%
%TO.N,Net-(U10-Pad3)*%
X85302000Y-74956000D03*
%TO.P,U7,2,GND*%
%TO.N,GND*%
X86402000Y-74956000D03*
%TO.P,U7,3,DI*%
%TO.N,DO_LIFT*%
X86402000Y-73126000D03*
%TO.P,U7,4,VDD*%
%TO.N,+5V*%
X85302000Y-73126000D03*
%TD*%
D12*
%TO.P,SW4,1,A*%
%TO.N,TRIGGER_BTN*%
X90170000Y-100836200D03*
%TO.P,SW4,2,B*%
%TO.N,+3V3*%
X90170000Y-97436200D03*
%TD*%
%TO.P,SW3,1,A*%
%TO.N,REVERSE_BTN*%
X73685400Y-100836200D03*
%TO.P,SW3,2,B*%
%TO.N,+3V3*%
X73685400Y-97436200D03*
%TD*%
D10*
%TO.P,U3,1,DO*%
%TO.N,Net-(U3-Pad1)*%
X68665000Y-99975000D03*
%TO.P,U3,2,GND*%
%TO.N,GND*%
X69765000Y-99975000D03*
%TO.P,U3,3,DI*%
%TO.N,DO_HIGH*%
X69765000Y-98145000D03*
%TO.P,U3,4,VDD*%
%TO.N,+5V*%
X68665000Y-98145000D03*
%TD*%
D13*
%TO.P,Q1,1,G*%
%TO.N,+3V3*%
X69090300Y-70551000D03*
%TO.P,Q1,2,S*%
%TO.N,Net-(J1-Pad9)*%
X69090300Y-72451000D03*
%TO.P,Q1,3,D*%
%TO.N,LED_DATA*%
X70965300Y-71501000D03*
%TD*%
D10*
%TO.P,U12,1,DO*%
%TO.N,unconnected-(U12-Pad1)*%
X94065000Y-99975000D03*
%TO.P,U12,2,GND*%
%TO.N,GND*%
X95165000Y-99975000D03*
%TO.P,U12,3,DI*%
%TO.N,Net-(U12-Pad3)*%
X95165000Y-98145000D03*
%TO.P,U12,4,VDD*%
%TO.N,+5V*%
X94065000Y-98145000D03*
%TD*%
D12*
%TO.P,SW2,1,A*%
%TO.N,LOW_BTN*%
X73660000Y-88339400D03*
%TO.P,SW2,2,B*%
%TO.N,+3V3*%
X73660000Y-84939400D03*
%TD*%
D10*
%TO.P,U1,1,DO*%
%TO.N,Net-(U1-Pad1)*%
X68792000Y-75972000D03*
%TO.P,U1,2,GND*%
%TO.N,GND*%
X69892000Y-75972000D03*
%TO.P,U1,3,DI*%
%TO.N,LED_DATA*%
X69892000Y-74142000D03*
%TO.P,U1,4,VDD*%
%TO.N,+5V*%
X68792000Y-74142000D03*
%TD*%
D12*
%TO.P,SW6,1,A*%
%TO.N,HIGH_BTN*%
X90170000Y-88314000D03*
%TO.P,SW6,2,B*%
%TO.N,+3V3*%
X90170000Y-84914000D03*
%TD*%
D14*
%TO.P,R2,1*%
%TO.N,LED_DATA*%
X77026000Y-77216000D03*
%TO.P,R2,2*%
%TO.N,+5V*%
X78676000Y-77216000D03*
%TD*%
D15*
%TO.N,GND*%
X89154000Y-67564000D03*
X96266000Y-74930000D03*
X86453624Y-74284715D03*
X79502000Y-101346000D03*
X87630000Y-69596000D03*
X75946000Y-72390000D03*
%TO.N,LIFT_BTN*%
X78486000Y-94488000D03*
X84074000Y-70104000D03*
X75946000Y-75946000D03*
X74168000Y-78232000D03*
X83312000Y-84582000D03*
X79230511Y-76219108D03*
X75184000Y-80264000D03*
X84074000Y-86868000D03*
%TO.N,HIGH_BTN*%
X81788000Y-72390000D03*
X82804000Y-98044000D03*
X83312000Y-95250000D03*
X83820000Y-96774000D03*
X88138000Y-90424000D03*
X81026000Y-69850000D03*
X88900000Y-88900000D03*
X84328000Y-101346000D03*
X82804000Y-74930000D03*
X83312000Y-99822000D03*
%TO.N,REVERSE_BTN*%
X81007840Y-75049571D03*
X80264000Y-70612000D03*
X80513340Y-84332660D03*
X75184000Y-101346000D03*
%TO.N,DROP_BTN*%
X92710000Y-102108000D03*
X88138000Y-101854000D03*
X92964000Y-83312000D03*
X84392370Y-71083425D03*
X94488000Y-101346000D03*
X96520000Y-85090000D03*
X85598000Y-101092000D03*
X92202000Y-78994000D03*
%TO.N,LOW_BTN*%
X82042000Y-77216000D03*
X82042000Y-70358000D03*
X82804000Y-72136000D03*
X74168000Y-90424000D03*
%TO.N,TRIGGER_BTN*%
X84831340Y-95975010D03*
X79501159Y-69851122D03*
X91948000Y-96266000D03*
X87630000Y-94996000D03*
X79756000Y-73660000D03*
X92456000Y-101092000D03*
%TO.N,+5V*%
X94234000Y-84582000D03*
X77470000Y-84582000D03*
X76708000Y-73152000D03*
X93980000Y-97282000D03*
X79687134Y-77147134D03*
X68834000Y-84836000D03*
X68580000Y-97282000D03*
X94164693Y-71697307D03*
X85344000Y-84836000D03*
X85177960Y-71964938D03*
X85090000Y-97028000D03*
X77470000Y-97536000D03*
X67818000Y-73914000D03*
%TO.N,LED_DATA*%
X75692000Y-77216000D03*
X71882000Y-72390000D03*
%TO.N,Net-(U1-Pad1)*%
X76953949Y-74150523D03*
X74930000Y-74676000D03*
X69292779Y-75076206D03*
X71628000Y-75768011D03*
%TO.N,Net-(U2-Pad1)*%
X74930000Y-86106000D03*
X76454000Y-86614000D03*
%TO.N,DO_DROP*%
X81280000Y-88138000D03*
X81534000Y-85598000D03*
X71120000Y-85852000D03*
X88900000Y-83058000D03*
X92456000Y-76454000D03*
X91440000Y-82296000D03*
%TO.N,Net-(U3-Pad1)*%
X75692000Y-98806000D03*
X76604998Y-100076000D03*
%TO.N,DO_LOW*%
X80010000Y-86868000D03*
X82550000Y-86868000D03*
%TO.N,DO_LIFT*%
X83034552Y-73813282D03*
X80772000Y-73660000D03*
%TO.N,DO_HIGH*%
X89916000Y-89662000D03*
X77470000Y-95758000D03*
X70612000Y-96520000D03*
X86614000Y-93980000D03*
%TO.N,Net-(U10-Pad3)*%
X97282000Y-74168000D03*
X96266000Y-76454000D03*
%TO.N,Net-(U11-Pad3)*%
X87376000Y-86614000D03*
X92964000Y-86360000D03*
%TO.N,Net-(U12-Pad3)*%
X87376000Y-98552000D03*
X95250000Y-97282000D03*
%TO.N,+3V3*%
X90170000Y-83566000D03*
X90170000Y-95504000D03*
X72390000Y-76708000D03*
X92202000Y-88392000D03*
X73406000Y-94488000D03*
X71628000Y-98298000D03*
X71374000Y-88646000D03*
X71882000Y-90170000D03*
X91694000Y-71882000D03*
X72136000Y-86106000D03*
X85348660Y-70099340D03*
X71374000Y-74168000D03*
%TO.N,Net-(J1-Pad9)*%
X74930000Y-68326000D03*
X72390000Y-68326000D03*
X76200000Y-69850000D03*
X78486000Y-70358000D03*
%TD*%
D16*
%TO.N,GND*%
X89335001Y-90462001D02*
X88573001Y-89700001D01*
X69596000Y-88900000D02*
X70866000Y-90170000D01*
X78655000Y-88731000D02*
X78655000Y-87529000D01*
X97028000Y-93218000D02*
X93726000Y-89916000D01*
X70866000Y-90170000D02*
X70866000Y-92964000D01*
X71751999Y-91224001D02*
X76161999Y-91224001D01*
X93472000Y-89916000D02*
X92925999Y-90462001D01*
X95292000Y-88096000D02*
X93472000Y-89916000D01*
X88176001Y-95973999D02*
X90932000Y-93218000D01*
X70895999Y-74968001D02*
X71851677Y-74968001D01*
X90932000Y-93218000D02*
X97028000Y-93218000D01*
X69469000Y-101727000D02*
X69888001Y-102146001D01*
X89154000Y-68072000D02*
X87630000Y-69596000D01*
X78655000Y-101177000D02*
X78655000Y-100102000D01*
X75907989Y-72767994D02*
X75907989Y-74129989D01*
X86402000Y-99975000D02*
X87137002Y-99975000D01*
X96266000Y-74930000D02*
X97320001Y-75984001D01*
X86402000Y-87586002D02*
X86402000Y-87529000D01*
X67310000Y-84074000D02*
X67310000Y-88138000D01*
X78824000Y-101346000D02*
X79502000Y-101346000D01*
X96266000Y-74930000D02*
X95191000Y-74930000D01*
X95191000Y-74930000D02*
X95165000Y-74956000D01*
X69888001Y-102146001D02*
X77685999Y-102146001D01*
X71851677Y-74968001D02*
X72943679Y-73875999D01*
X72943679Y-73875999D02*
X75653999Y-73875999D01*
X77130002Y-75946000D02*
X78062513Y-75946000D01*
X88176001Y-98936001D02*
X88176001Y-95973999D01*
X69892000Y-75972000D02*
X69892000Y-81492000D01*
X93726000Y-89916000D02*
X93472000Y-89916000D01*
X95292000Y-87402000D02*
X95292000Y-88096000D01*
X97320001Y-75984001D02*
X97320001Y-85474001D01*
X97028000Y-99060000D02*
X97028000Y-93218000D01*
X76161999Y-91224001D02*
X78655000Y-88731000D01*
X69469000Y-101727000D02*
X69765000Y-101431000D01*
X75907989Y-74723987D02*
X77130002Y-75946000D01*
X67310000Y-101346000D02*
X67818000Y-101854000D01*
X86402000Y-74956000D02*
X86402000Y-74336339D01*
X88573001Y-89700001D02*
X88515999Y-89700001D01*
X68072000Y-88900000D02*
X69596000Y-88900000D01*
X75946000Y-72729983D02*
X75907989Y-72767994D01*
X69765000Y-101431000D02*
X69765000Y-99975000D01*
X67310000Y-96520000D02*
X67310000Y-101346000D01*
X70866000Y-90338002D02*
X71751999Y-91224001D01*
X87137002Y-99975000D02*
X88176001Y-98936001D01*
X88515999Y-89700001D02*
X86402000Y-87586002D01*
X78062513Y-75946000D02*
X78655000Y-75353513D01*
X97320001Y-85474001D02*
X95392002Y-87402000D01*
X67310000Y-88138000D02*
X68072000Y-88900000D01*
X89154000Y-67564000D02*
X89154000Y-68072000D01*
X69342000Y-101854000D02*
X69469000Y-101727000D01*
X69765000Y-88731000D02*
X69765000Y-87566522D01*
X96113000Y-99975000D02*
X97028000Y-99060000D01*
X95392002Y-87402000D02*
X95292000Y-87402000D01*
X70866000Y-90170000D02*
X70866000Y-90338002D01*
X78655000Y-101177000D02*
X78824000Y-101346000D01*
X78655000Y-75353513D02*
X78655000Y-75045478D01*
X70866000Y-92964000D02*
X67310000Y-96520000D01*
X95165000Y-99975000D02*
X96113000Y-99975000D01*
X69892000Y-75972000D02*
X70895999Y-74968001D01*
X77685999Y-102146001D02*
X78655000Y-101177000D01*
X75907989Y-74129989D02*
X75907989Y-74723987D01*
X75946000Y-72390000D02*
X75946000Y-72729983D01*
X69892000Y-81492000D02*
X67310000Y-84074000D01*
X75653999Y-73875999D02*
X75907989Y-74129989D01*
X86402000Y-74336339D02*
X86453624Y-74284715D01*
X92925999Y-90462001D02*
X89335001Y-90462001D01*
X69596000Y-88900000D02*
X69765000Y-88731000D01*
X67818000Y-101854000D02*
X69342000Y-101854000D01*
D17*
%TO.N,LIFT_BTN*%
X80863622Y-76219108D02*
X79230511Y-76219108D01*
X83762011Y-72830400D02*
X83731410Y-72861001D01*
X83508011Y-71187599D02*
X83762011Y-71441599D01*
X77470000Y-80264000D02*
X75184000Y-80264000D01*
X83312000Y-84582000D02*
X82550000Y-83820000D01*
X83762011Y-71441599D02*
X83762011Y-72830400D01*
X74168000Y-78232000D02*
X74168000Y-76325200D01*
X78486000Y-92456000D02*
X84074000Y-86868000D01*
X84074000Y-70104000D02*
X83508011Y-70669989D01*
X81026000Y-83820000D02*
X78740000Y-81534000D01*
X78740000Y-81534000D02*
X77470000Y-80264000D01*
X78486000Y-94488000D02*
X78486000Y-92456000D01*
X83508011Y-70669989D02*
X83508011Y-71187599D01*
X74168000Y-76325200D02*
X73660000Y-75817200D01*
X82078999Y-75003731D02*
X80863622Y-76219108D01*
X73660000Y-75817200D02*
X75817200Y-75817200D01*
X83731410Y-72861001D02*
X82715410Y-72861001D01*
X75817200Y-75817200D02*
X75946000Y-75946000D01*
X82715410Y-72861001D02*
X82078999Y-73497412D01*
X82550000Y-83820000D02*
X81534000Y-83820000D01*
X82078999Y-73497412D02*
X82078999Y-75003731D01*
X81534000Y-83820000D02*
X81026000Y-83820000D01*
%TO.N,HIGH_BTN*%
X87884000Y-80010000D02*
X87884000Y-86028000D01*
X86360000Y-92456000D02*
X88138000Y-90678000D01*
X88138000Y-90678000D02*
X88138000Y-90424000D01*
X82804000Y-98044000D02*
X82804000Y-97790000D01*
X81026000Y-69850000D02*
X81026000Y-71628000D01*
X87884000Y-86028000D02*
X90170000Y-88314000D01*
X88900000Y-88900000D02*
X89584000Y-88900000D01*
X89584000Y-88900000D02*
X90170000Y-88314000D01*
X83312000Y-95250000D02*
X83566000Y-95250000D01*
X83566000Y-95250000D02*
X86360000Y-92456000D01*
X84328000Y-100838000D02*
X83312000Y-99822000D01*
X82804000Y-74930000D02*
X87884000Y-80010000D01*
X84328000Y-101346000D02*
X84328000Y-100838000D01*
X81026000Y-71628000D02*
X81788000Y-72390000D01*
X82804000Y-97790000D02*
X83820000Y-96774000D01*
%TO.N,REVERSE_BTN*%
X75184000Y-101346000D02*
X74195200Y-101346000D01*
X80513340Y-85972928D02*
X80513340Y-84332660D01*
X81222011Y-87054401D02*
X81222011Y-86681599D01*
X80264000Y-70612000D02*
X80264000Y-72078983D01*
X74195200Y-101346000D02*
X73685400Y-100836200D01*
X81222011Y-86681599D02*
X80513340Y-85972928D01*
X76417001Y-91859411D02*
X81222011Y-87054401D01*
X81497011Y-73311994D02*
X81497011Y-74560400D01*
X80264000Y-72078983D02*
X81497011Y-73311994D01*
X73685400Y-100836200D02*
X74734802Y-100836200D01*
X74734802Y-100836200D02*
X76417001Y-99154001D01*
X81497011Y-74560400D02*
X81007840Y-75049571D01*
X76417001Y-99154001D02*
X76417001Y-91859411D01*
%TO.N,DROP_BTN*%
X96520000Y-84582000D02*
X96520000Y-85090000D01*
X86577425Y-71083425D02*
X84392370Y-71083425D01*
X93472000Y-83820000D02*
X95758000Y-83820000D01*
X90170000Y-74676000D02*
X86577425Y-71083425D01*
X90170000Y-76962000D02*
X92202000Y-78994000D01*
X95758000Y-83820000D02*
X96520000Y-84582000D01*
X94488000Y-101346000D02*
X93472000Y-101346000D01*
X90170000Y-75842600D02*
X90170000Y-76962000D01*
X90170000Y-75842600D02*
X90170000Y-74676000D01*
X88138000Y-101854000D02*
X87376000Y-101092000D01*
X93472000Y-101346000D02*
X92710000Y-102108000D01*
X87376000Y-101092000D02*
X85598000Y-101092000D01*
X92964000Y-83312000D02*
X93472000Y-83820000D01*
%TO.N,LOW_BTN*%
X74458999Y-79915999D02*
X74458999Y-80612001D01*
X75655001Y-81808003D02*
X75655001Y-86454001D01*
X73660000Y-89916000D02*
X74168000Y-90424000D01*
X79719001Y-79538999D02*
X74835999Y-79538999D01*
X82042000Y-71374000D02*
X82804000Y-72136000D01*
X74458999Y-80612001D02*
X75655001Y-81808003D01*
X74835999Y-79538999D02*
X74458999Y-79915999D01*
X73660000Y-88339400D02*
X73660000Y-89916000D01*
X75655001Y-86454001D02*
X73769602Y-88339400D01*
X73769602Y-88339400D02*
X73660000Y-88339400D01*
X82042000Y-70358000D02*
X82042000Y-71374000D01*
X82042000Y-77216000D02*
X79719001Y-79538999D01*
%TO.N,TRIGGER_BTN*%
X91948000Y-96266000D02*
X91948000Y-99058200D01*
X86650990Y-95975010D02*
X84831340Y-95975010D01*
X90170000Y-100836200D02*
X92200200Y-100836200D01*
X79501159Y-73405159D02*
X79756000Y-73660000D01*
X92200200Y-100836200D02*
X92456000Y-101092000D01*
X87630000Y-94996000D02*
X86650990Y-95975010D01*
X79501159Y-69851122D02*
X79501159Y-73405159D01*
X91948000Y-99058200D02*
X90170000Y-100836200D01*
D16*
%TO.N,+5V*%
X94065000Y-73126000D02*
X94065000Y-71797000D01*
X77491522Y-73152000D02*
X77555000Y-73215478D01*
X68834000Y-85567522D02*
X68665000Y-85736522D01*
X94234000Y-84582000D02*
X94234000Y-85530000D01*
X77470000Y-98187000D02*
X77555000Y-98272000D01*
X93980000Y-98060000D02*
X94065000Y-98145000D01*
X93980000Y-97282000D02*
X93980000Y-98060000D01*
X68580000Y-98060000D02*
X68665000Y-98145000D01*
X78676000Y-77216000D02*
X79618268Y-77216000D01*
X77470000Y-84582000D02*
X77470000Y-85614000D01*
X76708000Y-73152000D02*
X77491522Y-73152000D01*
X85302000Y-73126000D02*
X85302000Y-72088978D01*
X79618268Y-77216000D02*
X79687134Y-77147134D01*
X68580000Y-97282000D02*
X68580000Y-98060000D01*
X85090000Y-97028000D02*
X85090000Y-97933000D01*
X67818000Y-73914000D02*
X68564000Y-73914000D01*
X85302000Y-72088978D02*
X85177960Y-71964938D01*
X94234000Y-85530000D02*
X94192000Y-85572000D01*
X85344000Y-84836000D02*
X85344000Y-85657000D01*
X68564000Y-73914000D02*
X68792000Y-74142000D01*
X85344000Y-85657000D02*
X85302000Y-85699000D01*
X77470000Y-85614000D02*
X77555000Y-85699000D01*
X85090000Y-97933000D02*
X85302000Y-98145000D01*
X77470000Y-97536000D02*
X77470000Y-98187000D01*
X68834000Y-84836000D02*
X68834000Y-85567522D01*
X94065000Y-71797000D02*
X94164693Y-71697307D01*
D17*
%TO.N,LED_DATA*%
X71120000Y-72644000D02*
X71374000Y-72390000D01*
X71120000Y-72644000D02*
X71120000Y-71655700D01*
X75692000Y-77216000D02*
X77026000Y-77216000D01*
X69892000Y-74142000D02*
X70001589Y-74142000D01*
X70001589Y-74142000D02*
X71120000Y-73023589D01*
X71120000Y-73023589D02*
X71120000Y-72644000D01*
X71374000Y-72390000D02*
X71882000Y-72390000D01*
X71120000Y-71655700D02*
X70965300Y-71501000D01*
%TO.N,Net-(U1-Pad1)*%
X71794145Y-75768011D02*
X71628000Y-75768011D01*
X77184016Y-73920456D02*
X78135042Y-73920456D01*
X76953949Y-74150523D02*
X77184016Y-73920456D01*
X68792000Y-75972000D02*
X68792000Y-75576985D01*
X78655000Y-73400498D02*
X78655000Y-73215478D01*
X68792000Y-75576985D02*
X69292779Y-75076206D01*
X78135042Y-73920456D02*
X78655000Y-73400498D01*
X72886156Y-74676000D02*
X71794145Y-75768011D01*
X74930000Y-74676000D02*
X72886156Y-74676000D01*
%TO.N,Net-(U2-Pad1)*%
X76693989Y-86374011D02*
X78165009Y-86374011D01*
X69215501Y-86831001D02*
X74204999Y-86831001D01*
X68665000Y-87566522D02*
X68665000Y-87381502D01*
X78655000Y-85884020D02*
X78655000Y-85699000D01*
X68665000Y-87381502D02*
X69215501Y-86831001D01*
X74204999Y-86831001D02*
X74930000Y-86106000D01*
X76454000Y-86614000D02*
X76693989Y-86374011D01*
X78165009Y-86374011D02*
X78655000Y-85884020D01*
%TO.N,DO_DROP*%
X89662000Y-82296000D02*
X88900000Y-83058000D01*
X71120000Y-85852000D02*
X69880478Y-85852000D01*
X93954000Y-74956000D02*
X92456000Y-76454000D01*
X81534000Y-85598000D02*
X81672022Y-85736022D01*
X81672022Y-85736022D02*
X81672022Y-87745978D01*
X69880478Y-85852000D02*
X69765000Y-85736522D01*
X91440000Y-82296000D02*
X89662000Y-82296000D01*
X94065000Y-74956000D02*
X93954000Y-74956000D01*
X81672022Y-87745978D02*
X81280000Y-88138000D01*
%TO.N,Net-(U3-Pad1)*%
X68665000Y-99789980D02*
X69394980Y-99060000D01*
X77395002Y-98976978D02*
X78135042Y-98976978D01*
X78655000Y-98457020D02*
X78655000Y-98272000D01*
X68665000Y-99975000D02*
X68665000Y-99789980D01*
X76604998Y-99766982D02*
X77395002Y-98976978D01*
X76604998Y-100076000D02*
X76604998Y-99766982D01*
X69850000Y-99060000D02*
X72390000Y-99060000D01*
X78135042Y-98976978D02*
X78655000Y-98457020D01*
X75438000Y-98552000D02*
X75692000Y-98806000D01*
X72898000Y-98552000D02*
X75438000Y-98552000D01*
X69394980Y-99060000D02*
X69850000Y-99060000D01*
X72390000Y-99060000D02*
X72898000Y-98552000D01*
%TO.N,DO_LOW*%
X77979989Y-86918991D02*
X78044991Y-86853989D01*
X78074958Y-86824022D02*
X79966022Y-86824022D01*
X83275001Y-86142999D02*
X84422001Y-86142999D01*
X77979989Y-87374011D02*
X77979989Y-86918991D01*
X82550000Y-86868000D02*
X83275001Y-86142999D01*
X84682980Y-86403978D02*
X85882042Y-86403978D01*
X78044991Y-86853989D02*
X78074958Y-86824022D01*
X77825000Y-87529000D02*
X77979989Y-87374011D01*
X79966022Y-86824022D02*
X80010000Y-86868000D01*
X85882042Y-86403978D02*
X86402000Y-85884020D01*
X86402000Y-85884020D02*
X86402000Y-85699000D01*
X77555000Y-87529000D02*
X77825000Y-87529000D01*
X84422001Y-86142999D02*
X84682980Y-86403978D01*
%TO.N,DO_LIFT*%
X77555000Y-74860458D02*
X78044991Y-74370467D01*
X77555000Y-75045478D02*
X77555000Y-74860458D01*
X86402000Y-73311020D02*
X85899738Y-73813282D01*
X79393465Y-74370467D02*
X79407999Y-74385001D01*
X86402000Y-73126000D02*
X86402000Y-73311020D01*
X79407999Y-74385001D02*
X80104001Y-74385001D01*
X78044991Y-74370467D02*
X79393465Y-74370467D01*
X80104001Y-74385001D02*
X80772000Y-73717002D01*
X85899738Y-73813282D02*
X83034552Y-73813282D01*
X80772000Y-73717002D02*
X80772000Y-73660000D01*
%TO.N,DO_HIGH*%
X92005002Y-89662000D02*
X89916000Y-89662000D01*
X84483334Y-95249999D02*
X83721333Y-96012000D01*
X94192000Y-87475002D02*
X92005002Y-89662000D01*
X85344002Y-95249999D02*
X84483334Y-95249999D01*
X77724000Y-96012000D02*
X77470000Y-95758000D01*
X83721333Y-96012000D02*
X81026000Y-96012000D01*
X70612000Y-96520000D02*
X70612000Y-97298000D01*
X70612000Y-97298000D02*
X69765000Y-98145000D01*
X81026000Y-96012000D02*
X77724000Y-96012000D01*
X86614000Y-93980000D02*
X85344002Y-95249999D01*
X94192000Y-87402000D02*
X94192000Y-87475002D01*
%TO.N,DO_REV*%
X78044991Y-99426989D02*
X79135011Y-99426989D01*
X86402000Y-98330020D02*
X86402000Y-98145000D01*
X79135011Y-99426989D02*
X79712022Y-98849978D01*
X77555000Y-100102000D02*
X77555000Y-99916980D01*
X85882042Y-98849978D02*
X86402000Y-98330020D01*
X77555000Y-99916980D02*
X78044991Y-99426989D01*
X79712022Y-98849978D02*
X85882042Y-98849978D01*
%TO.N,Net-(U10-Pad3)*%
X97282000Y-74168000D02*
X96240000Y-73126000D01*
X89625001Y-79719001D02*
X93000999Y-79719001D01*
X96240000Y-73126000D02*
X95165000Y-73126000D01*
X93000999Y-79719001D02*
X96266000Y-76454000D01*
X85302000Y-75396000D02*
X89625001Y-79719001D01*
X85302000Y-74956000D02*
X85302000Y-75396000D01*
%TO.N,Net-(U11-Pad3)*%
X95292000Y-85757020D02*
X95292000Y-85572000D01*
X85302000Y-87343980D02*
X85791991Y-86853989D01*
X92964000Y-86360000D02*
X94689020Y-86360000D01*
X85302000Y-87529000D02*
X85302000Y-87343980D01*
X85791991Y-86853989D02*
X87136011Y-86853989D01*
X87136011Y-86853989D02*
X87376000Y-86614000D01*
X94689020Y-86360000D02*
X95292000Y-85757020D01*
%TO.N,Net-(U12-Pad3)*%
X85791991Y-99299989D02*
X86628011Y-99299989D01*
X95250000Y-97282000D02*
X95250000Y-98060000D01*
X85302000Y-99975000D02*
X85445000Y-99975000D01*
X85726989Y-99693011D02*
X85726989Y-99364991D01*
X95250000Y-98060000D02*
X95165000Y-98145000D01*
X86628011Y-99299989D02*
X87376000Y-98552000D01*
X85726989Y-99364991D02*
X85791991Y-99299989D01*
X85445000Y-99975000D02*
X85726989Y-99693011D01*
%TO.N,+3V3*%
X92202000Y-86946000D02*
X92202000Y-88392000D01*
X82051320Y-66802000D02*
X85348660Y-70099340D01*
X77026000Y-71501000D02*
X74576200Y-71501000D01*
X73406000Y-94488000D02*
X73406000Y-97156800D01*
X72489800Y-97436200D02*
X73685400Y-97436200D01*
X73660000Y-72417200D02*
X71909200Y-74168000D01*
X90170000Y-95504000D02*
X90170000Y-97436200D01*
X90170000Y-72442600D02*
X90170000Y-71120000D01*
X69090300Y-70551000D02*
X71435000Y-70551000D01*
X72390000Y-76708000D02*
X72390000Y-83669400D01*
X73660000Y-84939400D02*
X73302600Y-84939400D01*
X73406000Y-97156800D02*
X73685400Y-97436200D01*
X71628000Y-70358000D02*
X75184000Y-66802000D01*
X90170000Y-72442600D02*
X91133400Y-72442600D01*
X71628000Y-70358000D02*
X73660000Y-72390000D01*
X71374000Y-88646000D02*
X71374000Y-89662000D01*
X71374000Y-89662000D02*
X71882000Y-90170000D01*
X73660000Y-72390000D02*
X73660000Y-72417200D01*
X90170000Y-84914000D02*
X92202000Y-86946000D01*
X89444999Y-70394999D02*
X85644319Y-70394999D01*
X90170000Y-83566000D02*
X90170000Y-84914000D01*
X72390000Y-83669400D02*
X73660000Y-84939400D01*
X74576200Y-71501000D02*
X73660000Y-72417200D01*
X85644319Y-70394999D02*
X85348660Y-70099340D01*
X75184000Y-66802000D02*
X82051320Y-66802000D01*
X91133400Y-72442600D02*
X91694000Y-71882000D01*
X73302600Y-84939400D02*
X72136000Y-86106000D01*
X90170000Y-71120000D02*
X89444999Y-70394999D01*
X71435000Y-70551000D02*
X71628000Y-70358000D01*
X71628000Y-98298000D02*
X72489800Y-97436200D01*
X71909200Y-74168000D02*
X71374000Y-74168000D01*
%TO.N,Net-(J1-Pad9)*%
X69088000Y-68326000D02*
X72390000Y-68326000D01*
X67818000Y-71374000D02*
X67818000Y-69596000D01*
X78486000Y-71311000D02*
X78676000Y-71501000D01*
X74930000Y-68580000D02*
X76200000Y-69850000D01*
X68013300Y-71374000D02*
X67818000Y-71374000D01*
X74930000Y-68326000D02*
X74930000Y-68580000D01*
X69090300Y-72451000D02*
X68013300Y-71374000D01*
X67818000Y-69596000D02*
X69088000Y-68326000D01*
X78486000Y-70358000D02*
X78486000Y-71311000D01*
%TD*%
M02*
