%TF.GenerationSoftware,KiCad,Pcbnew,(5.99.0-10573-gc33b2cfa8d)*%
%TF.CreationDate,2021-05-20T09:22:53+02:00*%
%TF.ProjectId,sucker-one-ui-board,7375636b-6572-42d6-9f6e-652d75692d62,rev?*%
%TF.SameCoordinates,Original*%
%TF.FileFunction,Copper,L3,Inr*%
%TF.FilePolarity,Positive*%
%FSLAX46Y46*%
G04 Gerber Fmt 4.6, Leading zero omitted, Abs format (unit mm)*
G04 Created by KiCad (PCBNEW (5.99.0-10573-gc33b2cfa8d)) date 2021-05-20 09:22:53*
%MOMM*%
%LPD*%
G01*
G04 APERTURE LIST*
%TA.AperFunction,ViaPad*%
%ADD10C,0.800000*%
%TD*%
G04 APERTURE END LIST*
D10*
%TO.N,+3V3*%
X68884800Y-96418400D03*
%TO.N,REVERSE_BTN*%
X67564000Y-102336600D03*
%TO.N,LOW_BTN*%
X71907400Y-88620600D03*
%TO.N,DROP_BTN*%
X91948000Y-76047600D03*
%TO.N,LIFT_BTN*%
X71374000Y-76606400D03*
%TO.N,GND*%
X93141800Y-70408800D03*
%TO.N,TRIGGER_BTN*%
X89052400Y-82372200D03*
X83947000Y-71704200D03*
X84328000Y-77165200D03*
X84074000Y-73507600D03*
X90170000Y-99745800D03*
%TO.N,REVERSE_BTN*%
X83540600Y-76530200D03*
X74853800Y-80568800D03*
X76377800Y-80594200D03*
X82837036Y-71961472D03*
X83007200Y-73482200D03*
%TO.N,HIGH_BTN*%
X81838800Y-72059800D03*
X82014161Y-73646490D03*
X90220800Y-82194400D03*
X92049600Y-87909400D03*
X83413499Y-75538811D03*
%TO.N,LOW_BTN*%
X81356200Y-74472800D03*
X75539600Y-82372200D03*
X80837556Y-72726234D03*
X82524600Y-76098400D03*
X75285600Y-88569800D03*
%TO.N,DROP_BTN*%
X80518000Y-75285600D03*
X79781400Y-73609200D03*
X88671400Y-75895200D03*
%TO.N,LIFT_BTN*%
X75717400Y-74599800D03*
%TO.N,DO_HIGH*%
X73380600Y-95961200D03*
X70993000Y-97586800D03*
%TO.N,DO_DROP*%
X73914000Y-83108800D03*
X70993000Y-84429600D03*
%TO.N,LED_DATA*%
X70180200Y-71678800D03*
%TO.N,+3V3*%
X78181200Y-70891400D03*
%TO.N,GND*%
X73914000Y-68554600D03*
X87376000Y-68427600D03*
X86156800Y-70307200D03*
%TO.N,+5V*%
X71678800Y-78384400D03*
X88341200Y-78257400D03*
X88036400Y-90297000D03*
X71526400Y-90474800D03*
X71628000Y-103047800D03*
X88341200Y-101473000D03*
%TO.N,GND*%
X95935800Y-101117400D03*
%TO.N,+5V*%
X93548200Y-96926400D03*
%TO.N,GND*%
X86791800Y-101295200D03*
%TO.N,+5V*%
X84683600Y-97155000D03*
%TO.N,GND*%
X79679800Y-101727000D03*
%TO.N,+5V*%
X77063600Y-97155000D03*
%TO.N,GND*%
X70535800Y-101295200D03*
%TO.N,+5V*%
X67487800Y-97231200D03*
%TO.N,GND*%
X95961200Y-88544400D03*
%TO.N,+5V*%
X93624400Y-84404200D03*
%TO.N,GND*%
X87045800Y-88696800D03*
%TO.N,+5V*%
X84607400Y-84632800D03*
%TO.N,GND*%
X79425800Y-88569800D03*
%TO.N,+5V*%
X77089000Y-84632800D03*
%TO.N,GND*%
X70256400Y-88544400D03*
%TO.N,+5V*%
X68351400Y-84582000D03*
X93345000Y-72263000D03*
%TO.N,GND*%
X95707200Y-75946000D03*
X86842600Y-75920600D03*
%TO.N,+5V*%
X85185000Y-72563058D03*
%TO.N,GND*%
X79086158Y-75897278D03*
%TO.N,+5V*%
X77165200Y-72313800D03*
%TO.N,GND*%
X69900800Y-76530200D03*
%TO.N,+5V*%
X67906226Y-72577470D03*
%TO.N,GND*%
X74447400Y-91617800D03*
X76123800Y-89966800D03*
X90271600Y-104648000D03*
X92354400Y-101498400D03*
X92659200Y-77444600D03*
X74422000Y-104089200D03*
X74422000Y-78994000D03*
X75971400Y-77419200D03*
X76174600Y-102438200D03*
X92684600Y-89941400D03*
X90957400Y-79146400D03*
X90957400Y-91490800D03*
%TO.N,+5V*%
X75996800Y-68402200D03*
X77165200Y-70129400D03*
X66929000Y-75463400D03*
%TO.N,+3V3*%
X71043800Y-69596000D03*
%TD*%
%TA.AperFunction,Conductor*%
%TO.N,+5V*%
G36*
X71261379Y-62998729D02*
G01*
X71501357Y-63011988D01*
X71508282Y-63012563D01*
X71520427Y-63013909D01*
X71566772Y-63019046D01*
X71573659Y-63020002D01*
X71810714Y-63059617D01*
X71817538Y-63060952D01*
X71874971Y-63073842D01*
X71881713Y-63075552D01*
X72112941Y-63141037D01*
X72119575Y-63143115D01*
X72175249Y-63162257D01*
X72181761Y-63164699D01*
X72404370Y-63255259D01*
X72410736Y-63258056D01*
X72463953Y-63283211D01*
X72470155Y-63286355D01*
X72598641Y-63356006D01*
X72681441Y-63400891D01*
X72687453Y-63404369D01*
X72737588Y-63435242D01*
X72743399Y-63439045D01*
X72940794Y-63576169D01*
X72946373Y-63580278D01*
X72992787Y-63616475D01*
X72998148Y-63620898D01*
X73179233Y-63778934D01*
X73179251Y-63778950D01*
X73184338Y-63783643D01*
X73226507Y-63824757D01*
X73231325Y-63829722D01*
X73351720Y-63960817D01*
X73393883Y-64006728D01*
X73398438Y-64011970D01*
X73410858Y-64027090D01*
X73435815Y-64057472D01*
X73440078Y-64062964D01*
X73514349Y-64164298D01*
X73582159Y-64256818D01*
X73586102Y-64262522D01*
X73609605Y-64298608D01*
X73618223Y-64311840D01*
X73621855Y-64317768D01*
X73647861Y-64362968D01*
X73741723Y-64526108D01*
X73745013Y-64532212D01*
X73747405Y-64536956D01*
X73771507Y-64584774D01*
X73774463Y-64591065D01*
X73870640Y-64811320D01*
X73873246Y-64817768D01*
X73893790Y-64872932D01*
X73896036Y-64879512D01*
X73967360Y-65109015D01*
X73969240Y-65115710D01*
X73983579Y-65172790D01*
X73985086Y-65179578D01*
X74030692Y-65415535D01*
X74031822Y-65422393D01*
X74038607Y-65472067D01*
X74039788Y-65480717D01*
X74040538Y-65487621D01*
X74059038Y-65716835D01*
X74059874Y-65727191D01*
X74060241Y-65734124D01*
X74062258Y-65813670D01*
X74062282Y-65818819D01*
X74060020Y-65962257D01*
X74065263Y-66003484D01*
X74065253Y-66005058D01*
X74065631Y-66006380D01*
X74065953Y-66008914D01*
X74065953Y-66008916D01*
X74070631Y-66045697D01*
X74074098Y-66072965D01*
X74077683Y-66081192D01*
X74087867Y-66104561D01*
X74104790Y-66143397D01*
X74105223Y-66144910D01*
X74105957Y-66146073D01*
X74132771Y-66207605D01*
X74181999Y-66266593D01*
X74182838Y-66267922D01*
X74183867Y-66268831D01*
X74198792Y-66286714D01*
X74221125Y-66313476D01*
X74221128Y-66313479D01*
X74226875Y-66320365D01*
X74290680Y-66363165D01*
X74291858Y-66364205D01*
X74293101Y-66364789D01*
X74295212Y-66366205D01*
X74295213Y-66366206D01*
X74322874Y-66384760D01*
X74348845Y-66402181D01*
X74357406Y-66404889D01*
X74416475Y-66423574D01*
X74416477Y-66423574D01*
X74422097Y-66425352D01*
X74423520Y-66426020D01*
X74424877Y-66426231D01*
X74488875Y-66446475D01*
X74568199Y-66448211D01*
X74626736Y-66449492D01*
X74626738Y-66449492D01*
X74635708Y-66449688D01*
X74644375Y-66447358D01*
X74653287Y-66446280D01*
X74653299Y-66446382D01*
X74675605Y-66443436D01*
X88671248Y-66443436D01*
X88690366Y-66446080D01*
X88690474Y-66445267D01*
X88699376Y-66446454D01*
X88708012Y-66448889D01*
X88780597Y-66448188D01*
X88845902Y-66447558D01*
X88845905Y-66447558D01*
X88854874Y-66447471D01*
X88873240Y-66441907D01*
X88915497Y-66429107D01*
X88915498Y-66429106D01*
X88919114Y-66428011D01*
X88920474Y-66427816D01*
X88921906Y-66427165D01*
X88995434Y-66404891D01*
X89002946Y-66399984D01*
X89002948Y-66399983D01*
X89048445Y-66370263D01*
X89051629Y-66368183D01*
X89052881Y-66367614D01*
X89054074Y-66366586D01*
X89118394Y-66324571D01*
X89162024Y-66273571D01*
X89163070Y-66272670D01*
X89163930Y-66271344D01*
X89166952Y-66267812D01*
X89166953Y-66267811D01*
X89208034Y-66219790D01*
X89208035Y-66219789D01*
X89213869Y-66212969D01*
X89241432Y-66151772D01*
X89242182Y-66150615D01*
X89242634Y-66149104D01*
X89274183Y-66079057D01*
X89283462Y-66012584D01*
X89283857Y-66011262D01*
X89283867Y-66009683D01*
X89290029Y-65965535D01*
X89287716Y-65818827D01*
X89287740Y-65813670D01*
X89287741Y-65813665D01*
X89288752Y-65773777D01*
X90162968Y-65773777D01*
X90164536Y-65813670D01*
X90165391Y-65835435D01*
X90165391Y-65835436D01*
X90173127Y-66032328D01*
X90173854Y-66050844D01*
X90223670Y-66323614D01*
X90249882Y-66402181D01*
X90303591Y-66563167D01*
X90311423Y-66586644D01*
X90360970Y-66685802D01*
X90418283Y-66800503D01*
X90435362Y-66834684D01*
X90593014Y-67062787D01*
X90596036Y-67066056D01*
X90778217Y-67263139D01*
X90778222Y-67263144D01*
X90781233Y-67266401D01*
X90996264Y-67441464D01*
X91000082Y-67443763D01*
X91000084Y-67443764D01*
X91225659Y-67579571D01*
X91233816Y-67584482D01*
X91290827Y-67608623D01*
X91485046Y-67690865D01*
X91485051Y-67690867D01*
X91489149Y-67692602D01*
X91493446Y-67693741D01*
X91493451Y-67693743D01*
X91623159Y-67728134D01*
X91757169Y-67763666D01*
X92032529Y-67796257D01*
X92309734Y-67789724D01*
X92314132Y-67788992D01*
X92578862Y-67744929D01*
X92578866Y-67744928D01*
X92583252Y-67744198D01*
X92587493Y-67742857D01*
X92587496Y-67742856D01*
X92843381Y-67661930D01*
X92843383Y-67661929D01*
X92847627Y-67660587D01*
X92851638Y-67658661D01*
X92851643Y-67658659D01*
X93093565Y-67542490D01*
X93093566Y-67542489D01*
X93097584Y-67540560D01*
X93213500Y-67463107D01*
X93324428Y-67388988D01*
X93324432Y-67388985D01*
X93328136Y-67386510D01*
X93331453Y-67383539D01*
X93331457Y-67383536D01*
X93531363Y-67204485D01*
X93531364Y-67204484D01*
X93534681Y-67201513D01*
X93713099Y-66989258D01*
X93849481Y-66770577D01*
X93857473Y-66757763D01*
X93857473Y-66757762D01*
X93859831Y-66753982D01*
X93971948Y-66500379D01*
X94047213Y-66233507D01*
X94049055Y-66219790D01*
X94083698Y-65961876D01*
X94083699Y-65961868D01*
X94084125Y-65958694D01*
X94086509Y-65882835D01*
X94087898Y-65838658D01*
X94087898Y-65838653D01*
X94087999Y-65835436D01*
X94086458Y-65813665D01*
X94078552Y-65702015D01*
X94068415Y-65558847D01*
X94051595Y-65480717D01*
X94010992Y-65292123D01*
X94010991Y-65292121D01*
X94010056Y-65287776D01*
X93914084Y-65027633D01*
X93826614Y-64865522D01*
X93784528Y-64787524D01*
X93782415Y-64783608D01*
X93617676Y-64560569D01*
X93575582Y-64517808D01*
X93426285Y-64366149D01*
X93423154Y-64362968D01*
X93419614Y-64360267D01*
X93419608Y-64360261D01*
X93206271Y-64197448D01*
X93202731Y-64194746D01*
X93198842Y-64192568D01*
X92964690Y-64061436D01*
X92964687Y-64061435D01*
X92960804Y-64059260D01*
X92956665Y-64057659D01*
X92956657Y-64057655D01*
X92765014Y-63983515D01*
X92702200Y-63959214D01*
X92697879Y-63958212D01*
X92697871Y-63958210D01*
X92519929Y-63916966D01*
X92432080Y-63896604D01*
X92155832Y-63872678D01*
X92151397Y-63872922D01*
X92151393Y-63872922D01*
X91883413Y-63887670D01*
X91883406Y-63887671D01*
X91878970Y-63887915D01*
X91607016Y-63942010D01*
X91602806Y-63943488D01*
X91602804Y-63943489D01*
X91449557Y-63997306D01*
X91345398Y-64033884D01*
X91099334Y-64161703D01*
X91095707Y-64164295D01*
X91095702Y-64164298D01*
X91056143Y-64192568D01*
X90873736Y-64322919D01*
X90831754Y-64362968D01*
X90709269Y-64479812D01*
X90673103Y-64514312D01*
X90501440Y-64732066D01*
X90455417Y-64811300D01*
X90364405Y-64967988D01*
X90364402Y-64967994D01*
X90362171Y-64971835D01*
X90360501Y-64975958D01*
X90278027Y-65179578D01*
X90258075Y-65228836D01*
X90257004Y-65233149D01*
X90257002Y-65233154D01*
X90193787Y-65487640D01*
X90191229Y-65497939D01*
X90190775Y-65502367D01*
X90190775Y-65502369D01*
X90171295Y-65692500D01*
X90162968Y-65773777D01*
X89288752Y-65773777D01*
X89288864Y-65769345D01*
X89289757Y-65734126D01*
X89290125Y-65727184D01*
X89309458Y-65487640D01*
X89310209Y-65480727D01*
X89318175Y-65422397D01*
X89319306Y-65415535D01*
X89364913Y-65179574D01*
X89366420Y-65172786D01*
X89380758Y-65115711D01*
X89382638Y-65109016D01*
X89453961Y-64879516D01*
X89456206Y-64872938D01*
X89468583Y-64839702D01*
X89476764Y-64817734D01*
X89479357Y-64811320D01*
X89575537Y-64591059D01*
X89578494Y-64584767D01*
X89604976Y-64532230D01*
X89608276Y-64526108D01*
X89728148Y-64317760D01*
X89731781Y-64311831D01*
X89763884Y-64262540D01*
X89767838Y-64256820D01*
X89866706Y-64121924D01*
X89909940Y-64062936D01*
X89914165Y-64057492D01*
X89951572Y-64011955D01*
X89956070Y-64006778D01*
X90078871Y-63873062D01*
X90118674Y-63829722D01*
X90123516Y-63824733D01*
X90165654Y-63783649D01*
X90170765Y-63778934D01*
X90351846Y-63620901D01*
X90357211Y-63616474D01*
X90403613Y-63580288D01*
X90409211Y-63576166D01*
X90606599Y-63439045D01*
X90612419Y-63435236D01*
X90662540Y-63404373D01*
X90668557Y-63400892D01*
X90879851Y-63286350D01*
X90886044Y-63283211D01*
X90939298Y-63258038D01*
X90945614Y-63255264D01*
X91069751Y-63204763D01*
X91168214Y-63164708D01*
X91174724Y-63162267D01*
X91230440Y-63143110D01*
X91237076Y-63141031D01*
X91468282Y-63075553D01*
X91475021Y-63073844D01*
X91532459Y-63060952D01*
X91539261Y-63059621D01*
X91776371Y-63019997D01*
X91783220Y-63019046D01*
X91841722Y-63012562D01*
X91848624Y-63011989D01*
X92088621Y-62998729D01*
X92095572Y-62998537D01*
X92154428Y-62998537D01*
X92161379Y-62998729D01*
X92401357Y-63011988D01*
X92408282Y-63012563D01*
X92420427Y-63013909D01*
X92466772Y-63019046D01*
X92473659Y-63020002D01*
X92710714Y-63059617D01*
X92717538Y-63060952D01*
X92774971Y-63073842D01*
X92781713Y-63075552D01*
X93012941Y-63141037D01*
X93019575Y-63143115D01*
X93075249Y-63162257D01*
X93081761Y-63164699D01*
X93304370Y-63255259D01*
X93310736Y-63258056D01*
X93363953Y-63283211D01*
X93370155Y-63286355D01*
X93498641Y-63356006D01*
X93581441Y-63400891D01*
X93587453Y-63404369D01*
X93637588Y-63435242D01*
X93643399Y-63439045D01*
X93840794Y-63576169D01*
X93846373Y-63580278D01*
X93892787Y-63616475D01*
X93898148Y-63620898D01*
X94079233Y-63778934D01*
X94079251Y-63778950D01*
X94084338Y-63783643D01*
X94126507Y-63824757D01*
X94131325Y-63829722D01*
X94251720Y-63960817D01*
X94293883Y-64006728D01*
X94298438Y-64011970D01*
X94310858Y-64027090D01*
X94335815Y-64057472D01*
X94340078Y-64062964D01*
X94414349Y-64164298D01*
X94482159Y-64256818D01*
X94486102Y-64262522D01*
X94509605Y-64298608D01*
X94518223Y-64311840D01*
X94521855Y-64317768D01*
X94547861Y-64362968D01*
X94641723Y-64526108D01*
X94645013Y-64532212D01*
X94647405Y-64536956D01*
X94671507Y-64584774D01*
X94674463Y-64591065D01*
X94770640Y-64811320D01*
X94773246Y-64817768D01*
X94793790Y-64872932D01*
X94796036Y-64879512D01*
X94867360Y-65109015D01*
X94869240Y-65115710D01*
X94883579Y-65172790D01*
X94885086Y-65179578D01*
X94930692Y-65415535D01*
X94931822Y-65422393D01*
X94938607Y-65472067D01*
X94939788Y-65480717D01*
X94940538Y-65487621D01*
X94959038Y-65716835D01*
X94959874Y-65727191D01*
X94960241Y-65734124D01*
X94962258Y-65813670D01*
X94962282Y-65818819D01*
X94960020Y-65962257D01*
X94965263Y-66003484D01*
X94965253Y-66005058D01*
X94965631Y-66006380D01*
X94965953Y-66008914D01*
X94965953Y-66008916D01*
X94970631Y-66045697D01*
X94974098Y-66072965D01*
X94977683Y-66081192D01*
X94987867Y-66104561D01*
X95004790Y-66143397D01*
X95005223Y-66144910D01*
X95005957Y-66146073D01*
X95032771Y-66207605D01*
X95081999Y-66266593D01*
X95082838Y-66267922D01*
X95083867Y-66268831D01*
X95098792Y-66286714D01*
X95121125Y-66313476D01*
X95121128Y-66313479D01*
X95126875Y-66320365D01*
X95190680Y-66363165D01*
X95191858Y-66364205D01*
X95193101Y-66364789D01*
X95195212Y-66366205D01*
X95195213Y-66366206D01*
X95222874Y-66384760D01*
X95248845Y-66402181D01*
X95257406Y-66404889D01*
X95316475Y-66423574D01*
X95316477Y-66423574D01*
X95322097Y-66425352D01*
X95323520Y-66426020D01*
X95324877Y-66426231D01*
X95388875Y-66446475D01*
X95468199Y-66448211D01*
X95526736Y-66449492D01*
X95526738Y-66449492D01*
X95535708Y-66449688D01*
X95544375Y-66447358D01*
X95553287Y-66446280D01*
X95553299Y-66446382D01*
X95575605Y-66443436D01*
X96843009Y-66443436D01*
X96864151Y-66445222D01*
X96874766Y-66447029D01*
X96874770Y-66447029D01*
X96879562Y-66447845D01*
X96884430Y-66447914D01*
X96884432Y-66447914D01*
X96952256Y-66448872D01*
X97023489Y-66449879D01*
X97028756Y-66450064D01*
X97052233Y-66451382D01*
X97102828Y-66454224D01*
X97109869Y-66454818D01*
X97341261Y-66480889D01*
X97348259Y-66481877D01*
X97376618Y-66486695D01*
X97401908Y-66490992D01*
X97408824Y-66492368D01*
X97443924Y-66500379D01*
X97635853Y-66544186D01*
X97642696Y-66545951D01*
X97695002Y-66561020D01*
X97701736Y-66563167D01*
X97836184Y-66610212D01*
X97921542Y-66640080D01*
X97928117Y-66642590D01*
X97949174Y-66651312D01*
X97978380Y-66663410D01*
X97984829Y-66666296D01*
X98194626Y-66767328D01*
X98200905Y-66770572D01*
X98248564Y-66796912D01*
X98254652Y-66800503D01*
X98451812Y-66924388D01*
X98457688Y-66928314D01*
X98502033Y-66959778D01*
X98507680Y-66964028D01*
X98689776Y-67109244D01*
X98695154Y-67113784D01*
X98735744Y-67150058D01*
X98740871Y-67154906D01*
X98905521Y-67319556D01*
X98910377Y-67324692D01*
X98946641Y-67365272D01*
X98951201Y-67370671D01*
X99096399Y-67552743D01*
X99100648Y-67558390D01*
X99132120Y-67602745D01*
X99136042Y-67608615D01*
X99188815Y-67692602D01*
X99259938Y-67805794D01*
X99263529Y-67811881D01*
X99289858Y-67859519D01*
X99293089Y-67865773D01*
X99394149Y-68075624D01*
X99397024Y-68082051D01*
X99417841Y-68132309D01*
X99420359Y-68138904D01*
X99497279Y-68358729D01*
X99499418Y-68365440D01*
X99514486Y-68417745D01*
X99516251Y-68424588D01*
X99568066Y-68651606D01*
X99569444Y-68658533D01*
X99578563Y-68712204D01*
X99579541Y-68719131D01*
X99589203Y-68804877D01*
X99605617Y-68950559D01*
X99606211Y-68957601D01*
X99610371Y-69031671D01*
X99610556Y-69036954D01*
X99612544Y-69177596D01*
X99613242Y-69182023D01*
X99615462Y-69196104D01*
X99616999Y-69215727D01*
X99616999Y-104053447D01*
X99615213Y-104074589D01*
X99613844Y-104082635D01*
X99612590Y-104090000D01*
X99612521Y-104094868D01*
X99612521Y-104094870D01*
X99610556Y-104233919D01*
X99610371Y-104239204D01*
X99606211Y-104313266D01*
X99605617Y-104320307D01*
X99579546Y-104551700D01*
X99578558Y-104558698D01*
X99569445Y-104612335D01*
X99568069Y-104619252D01*
X99536414Y-104757944D01*
X99516246Y-104846305D01*
X99514481Y-104853146D01*
X99499415Y-104905443D01*
X99497283Y-104912132D01*
X99420361Y-105131963D01*
X99417840Y-105138566D01*
X99397021Y-105188826D01*
X99394135Y-105195276D01*
X99293100Y-105405078D01*
X99289857Y-105411356D01*
X99263521Y-105459008D01*
X99259947Y-105465066D01*
X99222067Y-105525352D01*
X99136053Y-105662242D01*
X99132126Y-105668119D01*
X99100645Y-105712487D01*
X99096396Y-105718134D01*
X98951201Y-105900202D01*
X98946641Y-105905601D01*
X98910377Y-105946181D01*
X98905521Y-105951317D01*
X98740881Y-106115957D01*
X98735744Y-106120814D01*
X98695150Y-106157090D01*
X98689752Y-106161648D01*
X98507719Y-106306816D01*
X98502073Y-106311066D01*
X98477404Y-106328570D01*
X98457666Y-106342575D01*
X98451814Y-106346485D01*
X98254611Y-106470395D01*
X98248568Y-106473960D01*
X98200931Y-106500288D01*
X98194653Y-106503531D01*
X97984820Y-106604581D01*
X97978371Y-106607467D01*
X97961158Y-106614597D01*
X97928130Y-106628278D01*
X97921563Y-106630785D01*
X97760023Y-106687311D01*
X97701724Y-106707710D01*
X97694990Y-106709857D01*
X97642695Y-106724923D01*
X97635851Y-106726688D01*
X97408829Y-106778504D01*
X97401900Y-106779882D01*
X97390802Y-106781768D01*
X97348246Y-106788998D01*
X97341294Y-106789981D01*
X97150308Y-106811500D01*
X97109877Y-106816055D01*
X97102835Y-106816649D01*
X97059742Y-106819069D01*
X97028761Y-106820809D01*
X97023481Y-106820994D01*
X96882839Y-106822982D01*
X96878411Y-106823680D01*
X96878412Y-106823680D01*
X96864331Y-106825900D01*
X96844708Y-106827437D01*
X96163855Y-106827437D01*
X95078749Y-106827436D01*
X95059631Y-106824792D01*
X95059523Y-106825605D01*
X95050621Y-106824418D01*
X95041985Y-106821983D01*
X94964932Y-106822727D01*
X94904100Y-106823314D01*
X94904098Y-106823314D01*
X94895123Y-106823401D01*
X94886531Y-106826004D01*
X94886530Y-106826004D01*
X94881803Y-106827436D01*
X94830875Y-106842864D01*
X94829525Y-106843057D01*
X94828104Y-106843703D01*
X94754563Y-106865981D01*
X94698358Y-106902695D01*
X94697118Y-106903259D01*
X94695937Y-106904277D01*
X94692086Y-106906793D01*
X94692085Y-106906793D01*
X94685968Y-106910789D01*
X94631603Y-106946301D01*
X94587964Y-106997311D01*
X94586929Y-106998203D01*
X94586078Y-106999515D01*
X94536128Y-107057903D01*
X94508559Y-107119114D01*
X94507817Y-107120258D01*
X94507370Y-107121753D01*
X94475814Y-107191815D01*
X94474573Y-107200703D01*
X94474573Y-107200704D01*
X94472270Y-107217206D01*
X94466533Y-107258302D01*
X94466142Y-107259611D01*
X94466132Y-107261174D01*
X94459968Y-107305337D01*
X94462020Y-107435436D01*
X94462281Y-107452021D01*
X94462257Y-107457180D01*
X94461745Y-107477386D01*
X94460240Y-107536746D01*
X94459872Y-107543688D01*
X94440539Y-107783234D01*
X94439789Y-107790141D01*
X94431821Y-107848485D01*
X94430697Y-107855305D01*
X94405185Y-107987304D01*
X94385086Y-108091289D01*
X94383579Y-108098076D01*
X94369237Y-108155169D01*
X94367358Y-108161861D01*
X94296033Y-108391368D01*
X94293791Y-108397934D01*
X94293790Y-108397939D01*
X94273241Y-108453115D01*
X94270643Y-108459542D01*
X94215651Y-108585481D01*
X94174466Y-108679800D01*
X94171509Y-108686092D01*
X94145013Y-108738657D01*
X94141724Y-108744759D01*
X94021844Y-108953120D01*
X94018232Y-108959016D01*
X93986099Y-109008353D01*
X93982158Y-109014052D01*
X93840071Y-109207913D01*
X93835808Y-109213406D01*
X93798453Y-109258881D01*
X93793893Y-109264130D01*
X93631331Y-109441142D01*
X93626487Y-109446132D01*
X93584332Y-109487232D01*
X93579232Y-109491938D01*
X93508109Y-109554009D01*
X93398167Y-109649957D01*
X93392833Y-109654360D01*
X93346342Y-109690616D01*
X93340762Y-109694724D01*
X93143380Y-109831839D01*
X93137583Y-109835634D01*
X93087472Y-109866492D01*
X93081470Y-109869963D01*
X92870155Y-109984517D01*
X92863952Y-109987661D01*
X92810741Y-110012813D01*
X92804375Y-110015610D01*
X92581760Y-110106172D01*
X92575248Y-110108614D01*
X92519562Y-110127760D01*
X92512927Y-110129838D01*
X92341478Y-110178393D01*
X92281700Y-110195322D01*
X92274984Y-110197026D01*
X92217538Y-110209919D01*
X92210725Y-110211252D01*
X91973659Y-110250869D01*
X91966772Y-110251825D01*
X91908275Y-110258309D01*
X91901345Y-110258884D01*
X91661379Y-110272142D01*
X91654428Y-110272334D01*
X91595570Y-110272334D01*
X91588619Y-110272142D01*
X91348646Y-110258883D01*
X91341716Y-110258308D01*
X91283225Y-110251825D01*
X91276338Y-110250869D01*
X91039284Y-110211254D01*
X91032459Y-110209919D01*
X91032450Y-110209917D01*
X90975014Y-110197026D01*
X90968282Y-110195318D01*
X90737055Y-110129834D01*
X90730421Y-110127756D01*
X90710679Y-110120968D01*
X90674747Y-110108614D01*
X90668267Y-110106184D01*
X90445592Y-110015597D01*
X90439250Y-110012811D01*
X90386071Y-109987673D01*
X90379871Y-109984530D01*
X90168553Y-109869977D01*
X90162533Y-109866495D01*
X90112422Y-109835637D01*
X90106605Y-109831830D01*
X90019933Y-109771622D01*
X89909211Y-109694707D01*
X89903624Y-109690592D01*
X89857210Y-109654394D01*
X89851848Y-109649970D01*
X89670767Y-109491938D01*
X89665656Y-109487222D01*
X89623502Y-109446122D01*
X89618660Y-109441134D01*
X89528402Y-109342856D01*
X89456092Y-109264119D01*
X89451570Y-109258913D01*
X89414170Y-109213384D01*
X89409939Y-109207934D01*
X89267827Y-109014035D01*
X89263908Y-109008366D01*
X89231777Y-108959032D01*
X89231767Y-108959016D01*
X89228135Y-108953089D01*
X89131302Y-108784785D01*
X89108279Y-108744768D01*
X89104984Y-108738656D01*
X89078491Y-108686097D01*
X89075534Y-108679805D01*
X88979363Y-108459563D01*
X88979355Y-108459544D01*
X88976755Y-108453111D01*
X88956208Y-108397939D01*
X88953962Y-108391359D01*
X88952637Y-108387093D01*
X88882640Y-108161862D01*
X88880760Y-108155166D01*
X88866420Y-108098081D01*
X88864913Y-108091294D01*
X88819308Y-107855347D01*
X88818177Y-107848485D01*
X88818176Y-107848474D01*
X88810208Y-107790135D01*
X88809458Y-107783228D01*
X88790124Y-107543671D01*
X88789758Y-107536757D01*
X88787741Y-107457180D01*
X88787717Y-107452054D01*
X88789979Y-107308616D01*
X88784736Y-107267389D01*
X88784746Y-107265815D01*
X88784368Y-107264493D01*
X88783753Y-107259651D01*
X88777033Y-107206812D01*
X88775901Y-107197908D01*
X88769680Y-107183631D01*
X88747572Y-107132898D01*
X88747571Y-107132897D01*
X88745209Y-107127476D01*
X88744776Y-107125963D01*
X88744042Y-107124800D01*
X88717228Y-107063268D01*
X88668000Y-107004280D01*
X88667161Y-107002951D01*
X88666132Y-107002042D01*
X88651207Y-106984159D01*
X88628874Y-106957397D01*
X88628871Y-106957394D01*
X88623124Y-106950508D01*
X88559319Y-106907708D01*
X88558141Y-106906668D01*
X88556898Y-106906084D01*
X88554205Y-106904277D01*
X88508611Y-106873694D01*
X88501154Y-106868692D01*
X88484355Y-106863378D01*
X88433524Y-106847299D01*
X88433522Y-106847299D01*
X88427902Y-106845521D01*
X88426479Y-106844853D01*
X88425122Y-106844642D01*
X88361124Y-106824398D01*
X88281800Y-106822662D01*
X88223263Y-106821381D01*
X88223261Y-106821381D01*
X88214291Y-106821185D01*
X88205624Y-106823515D01*
X88196712Y-106824593D01*
X88196700Y-106824491D01*
X88174394Y-106827437D01*
X81775101Y-106827437D01*
X75178748Y-106827436D01*
X75159631Y-106824793D01*
X75159523Y-106825606D01*
X75150626Y-106824420D01*
X75141985Y-106821983D01*
X75068554Y-106822692D01*
X75004100Y-106823314D01*
X75004098Y-106823314D01*
X74995123Y-106823401D01*
X74986531Y-106826004D01*
X74986530Y-106826004D01*
X74981803Y-106827436D01*
X74930875Y-106842864D01*
X74929525Y-106843057D01*
X74928104Y-106843703D01*
X74854563Y-106865981D01*
X74798358Y-106902695D01*
X74797118Y-106903259D01*
X74795937Y-106904277D01*
X74792086Y-106906793D01*
X74792085Y-106906793D01*
X74785968Y-106910789D01*
X74731603Y-106946301D01*
X74687964Y-106997311D01*
X74686929Y-106998203D01*
X74686078Y-106999515D01*
X74636128Y-107057903D01*
X74608559Y-107119114D01*
X74607817Y-107120258D01*
X74607370Y-107121753D01*
X74575814Y-107191815D01*
X74574573Y-107200703D01*
X74574573Y-107200704D01*
X74572270Y-107217206D01*
X74566533Y-107258302D01*
X74566142Y-107259611D01*
X74566132Y-107261174D01*
X74559968Y-107305337D01*
X74562020Y-107435436D01*
X74562281Y-107452021D01*
X74562257Y-107457180D01*
X74561745Y-107477386D01*
X74560240Y-107536746D01*
X74559872Y-107543688D01*
X74540539Y-107783234D01*
X74539789Y-107790141D01*
X74531821Y-107848485D01*
X74530697Y-107855305D01*
X74505185Y-107987304D01*
X74485086Y-108091289D01*
X74483579Y-108098076D01*
X74469237Y-108155169D01*
X74467358Y-108161861D01*
X74396033Y-108391368D01*
X74393791Y-108397934D01*
X74393790Y-108397939D01*
X74373241Y-108453115D01*
X74370643Y-108459542D01*
X74315651Y-108585481D01*
X74274466Y-108679800D01*
X74271509Y-108686092D01*
X74245013Y-108738657D01*
X74241724Y-108744759D01*
X74121844Y-108953120D01*
X74118232Y-108959016D01*
X74086099Y-109008353D01*
X74082158Y-109014052D01*
X73940071Y-109207913D01*
X73935808Y-109213406D01*
X73898453Y-109258881D01*
X73893893Y-109264130D01*
X73731331Y-109441142D01*
X73726487Y-109446132D01*
X73684332Y-109487232D01*
X73679232Y-109491938D01*
X73608109Y-109554009D01*
X73498167Y-109649957D01*
X73492833Y-109654360D01*
X73446342Y-109690616D01*
X73440762Y-109694724D01*
X73243380Y-109831839D01*
X73237583Y-109835634D01*
X73187472Y-109866492D01*
X73181470Y-109869963D01*
X72970155Y-109984517D01*
X72963952Y-109987661D01*
X72910741Y-110012813D01*
X72904375Y-110015610D01*
X72681760Y-110106172D01*
X72675248Y-110108614D01*
X72619562Y-110127760D01*
X72612927Y-110129838D01*
X72441478Y-110178393D01*
X72381700Y-110195322D01*
X72374984Y-110197026D01*
X72317538Y-110209919D01*
X72310725Y-110211252D01*
X72073659Y-110250869D01*
X72066772Y-110251825D01*
X72008275Y-110258309D01*
X72001345Y-110258884D01*
X71761379Y-110272142D01*
X71754428Y-110272334D01*
X71695570Y-110272334D01*
X71688619Y-110272142D01*
X71448646Y-110258883D01*
X71441716Y-110258308D01*
X71383225Y-110251825D01*
X71376338Y-110250869D01*
X71139284Y-110211254D01*
X71132459Y-110209919D01*
X71132450Y-110209917D01*
X71075014Y-110197026D01*
X71068282Y-110195318D01*
X70837055Y-110129834D01*
X70830421Y-110127756D01*
X70810679Y-110120968D01*
X70774747Y-110108614D01*
X70768267Y-110106184D01*
X70545592Y-110015597D01*
X70539250Y-110012811D01*
X70486071Y-109987673D01*
X70479871Y-109984530D01*
X70268553Y-109869977D01*
X70262533Y-109866495D01*
X70212422Y-109835637D01*
X70206605Y-109831830D01*
X70119933Y-109771622D01*
X70009211Y-109694707D01*
X70003624Y-109690592D01*
X69957210Y-109654394D01*
X69951848Y-109649970D01*
X69770767Y-109491938D01*
X69765656Y-109487222D01*
X69723502Y-109446122D01*
X69718660Y-109441134D01*
X69628402Y-109342856D01*
X69556092Y-109264119D01*
X69551570Y-109258913D01*
X69514170Y-109213384D01*
X69509939Y-109207934D01*
X69367827Y-109014035D01*
X69363908Y-109008366D01*
X69331777Y-108959032D01*
X69331767Y-108959016D01*
X69328135Y-108953089D01*
X69231302Y-108784785D01*
X69208279Y-108744768D01*
X69204984Y-108738656D01*
X69178491Y-108686097D01*
X69175534Y-108679805D01*
X69079363Y-108459563D01*
X69079355Y-108459544D01*
X69076755Y-108453111D01*
X69056208Y-108397939D01*
X69053962Y-108391359D01*
X69052637Y-108387093D01*
X68982640Y-108161862D01*
X68980760Y-108155166D01*
X68966420Y-108098081D01*
X68964913Y-108091294D01*
X68919308Y-107855347D01*
X68918177Y-107848485D01*
X68918176Y-107848474D01*
X68910208Y-107790135D01*
X68909458Y-107783228D01*
X68890124Y-107543671D01*
X68889758Y-107536757D01*
X68887741Y-107457180D01*
X68887717Y-107452054D01*
X68888951Y-107373777D01*
X69762968Y-107373777D01*
X69764111Y-107402863D01*
X69765391Y-107435435D01*
X69765391Y-107435436D01*
X69773127Y-107632328D01*
X69773854Y-107650844D01*
X69823670Y-107923614D01*
X69846508Y-107992069D01*
X69895593Y-108139194D01*
X69911423Y-108186644D01*
X69973655Y-108311189D01*
X70031103Y-108426160D01*
X70035362Y-108434684D01*
X70193014Y-108662787D01*
X70196036Y-108666056D01*
X70378217Y-108863139D01*
X70378222Y-108863144D01*
X70381233Y-108866401D01*
X70596264Y-109041464D01*
X70600082Y-109043763D01*
X70600084Y-109043764D01*
X70809810Y-109170029D01*
X70833816Y-109184482D01*
X70889150Y-109207913D01*
X71085046Y-109290865D01*
X71085051Y-109290867D01*
X71089149Y-109292602D01*
X71093446Y-109293741D01*
X71093451Y-109293743D01*
X71223159Y-109328134D01*
X71357169Y-109363666D01*
X71632529Y-109396257D01*
X71909734Y-109389724D01*
X71914132Y-109388992D01*
X72178862Y-109344929D01*
X72178866Y-109344928D01*
X72183252Y-109344198D01*
X72187493Y-109342857D01*
X72187496Y-109342856D01*
X72443381Y-109261930D01*
X72443383Y-109261929D01*
X72447627Y-109260587D01*
X72451638Y-109258661D01*
X72451643Y-109258659D01*
X72693565Y-109142490D01*
X72693566Y-109142489D01*
X72697584Y-109140560D01*
X72813500Y-109063107D01*
X72924428Y-108988988D01*
X72924432Y-108988985D01*
X72928136Y-108986510D01*
X72931453Y-108983539D01*
X72931457Y-108983536D01*
X73131363Y-108804485D01*
X73131364Y-108804484D01*
X73134681Y-108801513D01*
X73313099Y-108589258D01*
X73459831Y-108353982D01*
X73571948Y-108100379D01*
X73647213Y-107833507D01*
X73651536Y-107801325D01*
X73683698Y-107561876D01*
X73683699Y-107561868D01*
X73684125Y-107558694D01*
X73684226Y-107555483D01*
X73687898Y-107438658D01*
X73687898Y-107438653D01*
X73687999Y-107435436D01*
X73668415Y-107158847D01*
X73666157Y-107148356D01*
X73610992Y-106892123D01*
X73610991Y-106892121D01*
X73610056Y-106887776D01*
X73514084Y-106627633D01*
X73505535Y-106611788D01*
X73384528Y-106387524D01*
X73382415Y-106383608D01*
X73217676Y-106160569D01*
X73214252Y-106157090D01*
X73026285Y-105966149D01*
X73023154Y-105962968D01*
X73019614Y-105960267D01*
X73019608Y-105960261D01*
X72806271Y-105797448D01*
X72802731Y-105794746D01*
X72798842Y-105792568D01*
X72564690Y-105661436D01*
X72564687Y-105661435D01*
X72560804Y-105659260D01*
X72556665Y-105657659D01*
X72556657Y-105657655D01*
X72335653Y-105572156D01*
X72302200Y-105559214D01*
X72297879Y-105558212D01*
X72297871Y-105558210D01*
X72107585Y-105514105D01*
X72032080Y-105496604D01*
X71755832Y-105472678D01*
X71751397Y-105472922D01*
X71751393Y-105472922D01*
X71483413Y-105487670D01*
X71483406Y-105487671D01*
X71478970Y-105487915D01*
X71207016Y-105542010D01*
X71202806Y-105543488D01*
X71202804Y-105543489D01*
X71137384Y-105566463D01*
X70945398Y-105633884D01*
X70699334Y-105761703D01*
X70695707Y-105764295D01*
X70695702Y-105764298D01*
X70656143Y-105792568D01*
X70473736Y-105922919D01*
X70273103Y-106114312D01*
X70101440Y-106332066D01*
X70038687Y-106440102D01*
X69964405Y-106567988D01*
X69964402Y-106567994D01*
X69962171Y-106571835D01*
X69960501Y-106575958D01*
X69859794Y-106824593D01*
X69858075Y-106828836D01*
X69857004Y-106833149D01*
X69857002Y-106833154D01*
X69802869Y-107051080D01*
X69791229Y-107097939D01*
X69790775Y-107102367D01*
X69790775Y-107102369D01*
X69773269Y-107273238D01*
X69762968Y-107373777D01*
X68888951Y-107373777D01*
X68889979Y-107308616D01*
X68884736Y-107267389D01*
X68884746Y-107265815D01*
X68884368Y-107264493D01*
X68883753Y-107259651D01*
X68877033Y-107206812D01*
X68875901Y-107197908D01*
X68869680Y-107183631D01*
X68847572Y-107132898D01*
X68847571Y-107132897D01*
X68845209Y-107127476D01*
X68844776Y-107125963D01*
X68844042Y-107124800D01*
X68817228Y-107063268D01*
X68768000Y-107004280D01*
X68767161Y-107002951D01*
X68766132Y-107002042D01*
X68751207Y-106984159D01*
X68728874Y-106957397D01*
X68728871Y-106957394D01*
X68723124Y-106950508D01*
X68659319Y-106907708D01*
X68658141Y-106906668D01*
X68656898Y-106906084D01*
X68654205Y-106904277D01*
X68608611Y-106873694D01*
X68601154Y-106868692D01*
X68584355Y-106863378D01*
X68533524Y-106847299D01*
X68533522Y-106847299D01*
X68527902Y-106845521D01*
X68526479Y-106844853D01*
X68525122Y-106844642D01*
X68461124Y-106824398D01*
X68381800Y-106822662D01*
X68323263Y-106821381D01*
X68323261Y-106821381D01*
X68314291Y-106821185D01*
X68305624Y-106823515D01*
X68296712Y-106824593D01*
X68296700Y-106824491D01*
X68274394Y-106827437D01*
X67006989Y-106827437D01*
X66985847Y-106825651D01*
X66975232Y-106823844D01*
X66975228Y-106823844D01*
X66970436Y-106823028D01*
X66965568Y-106822959D01*
X66965566Y-106822959D01*
X66897742Y-106822001D01*
X66826509Y-106820994D01*
X66821242Y-106820809D01*
X66797765Y-106819491D01*
X66747170Y-106816649D01*
X66740129Y-106816055D01*
X66567387Y-106796592D01*
X66508730Y-106789983D01*
X66501738Y-106788996D01*
X66500164Y-106788729D01*
X66448090Y-106779881D01*
X66441184Y-106778507D01*
X66214131Y-106726684D01*
X66207290Y-106724919D01*
X66189991Y-106719936D01*
X66154993Y-106709853D01*
X66148304Y-106707721D01*
X65928466Y-106630796D01*
X65921870Y-106628278D01*
X65871610Y-106607459D01*
X65865160Y-106604573D01*
X65655358Y-106503538D01*
X65649080Y-106500295D01*
X65645661Y-106498405D01*
X65601428Y-106473959D01*
X65595358Y-106470378D01*
X65398194Y-106346491D01*
X65392317Y-106342564D01*
X65347949Y-106311083D01*
X65342302Y-106306834D01*
X65160234Y-106161639D01*
X65154835Y-106157079D01*
X65114255Y-106120815D01*
X65109119Y-106115959D01*
X64944479Y-105951319D01*
X64939622Y-105946182D01*
X64903346Y-105905588D01*
X64898788Y-105900190D01*
X64753620Y-105718157D01*
X64749370Y-105712511D01*
X64730346Y-105685701D01*
X64717861Y-105668104D01*
X64713945Y-105662242D01*
X64590041Y-105465049D01*
X64586476Y-105459006D01*
X64560141Y-105411356D01*
X64556905Y-105405091D01*
X64455855Y-105195258D01*
X64452969Y-105188809D01*
X64445839Y-105171596D01*
X64432156Y-105138564D01*
X64429651Y-105132001D01*
X64352726Y-104912162D01*
X64350579Y-104905428D01*
X64335513Y-104853133D01*
X64333748Y-104846289D01*
X64281932Y-104619267D01*
X64280554Y-104612339D01*
X64280478Y-104611893D01*
X64271435Y-104558669D01*
X64270457Y-104551742D01*
X64244380Y-104320307D01*
X64243787Y-104313272D01*
X64239627Y-104239202D01*
X64239442Y-104233918D01*
X64237636Y-104106150D01*
X64237454Y-104093277D01*
X64236811Y-104089200D01*
X73508500Y-104089200D01*
X73509190Y-104095765D01*
X73510453Y-104107777D01*
X73528462Y-104279127D01*
X73530502Y-104285405D01*
X73530502Y-104285406D01*
X73541842Y-104320307D01*
X73587476Y-104460754D01*
X73682963Y-104626142D01*
X73810749Y-104768063D01*
X73816091Y-104771944D01*
X73816093Y-104771946D01*
X73835474Y-104786027D01*
X73965250Y-104880314D01*
X73971278Y-104882998D01*
X73971280Y-104882999D01*
X74133682Y-104955305D01*
X74139713Y-104957990D01*
X74233113Y-104977843D01*
X74320056Y-104996324D01*
X74320061Y-104996324D01*
X74326513Y-104997696D01*
X74517487Y-104997696D01*
X74523939Y-104996324D01*
X74523944Y-104996324D01*
X74610887Y-104977843D01*
X74704287Y-104957990D01*
X74710318Y-104955305D01*
X74872720Y-104882999D01*
X74872722Y-104882998D01*
X74878750Y-104880314D01*
X75008526Y-104786027D01*
X75027907Y-104771946D01*
X75027909Y-104771944D01*
X75033251Y-104768063D01*
X75141356Y-104648000D01*
X89358100Y-104648000D01*
X89358790Y-104654565D01*
X89369656Y-104757944D01*
X89378062Y-104837927D01*
X89437076Y-105019554D01*
X89532563Y-105184942D01*
X89536981Y-105189849D01*
X89536982Y-105189850D01*
X89655927Y-105321952D01*
X89660349Y-105326863D01*
X89665691Y-105330744D01*
X89665693Y-105330746D01*
X89746614Y-105389538D01*
X89814850Y-105439114D01*
X89820878Y-105441798D01*
X89820880Y-105441799D01*
X89946234Y-105497610D01*
X89989313Y-105516790D01*
X90053451Y-105530423D01*
X90169656Y-105555124D01*
X90169661Y-105555124D01*
X90176113Y-105556496D01*
X90367087Y-105556496D01*
X90373540Y-105555124D01*
X90373553Y-105555123D01*
X90520262Y-105523938D01*
X90591052Y-105529339D01*
X90647685Y-105572156D01*
X90672179Y-105638793D01*
X90656758Y-105708095D01*
X90606780Y-105756818D01*
X90607088Y-105757321D01*
X90604870Y-105758680D01*
X90604547Y-105758995D01*
X90599334Y-105761703D01*
X90595707Y-105764295D01*
X90595702Y-105764298D01*
X90556143Y-105792568D01*
X90373736Y-105922919D01*
X90173103Y-106114312D01*
X90001440Y-106332066D01*
X89938687Y-106440102D01*
X89864405Y-106567988D01*
X89864402Y-106567994D01*
X89862171Y-106571835D01*
X89860501Y-106575958D01*
X89759794Y-106824593D01*
X89758075Y-106828836D01*
X89757004Y-106833149D01*
X89757002Y-106833154D01*
X89702869Y-107051080D01*
X89691229Y-107097939D01*
X89690775Y-107102367D01*
X89690775Y-107102369D01*
X89673269Y-107273238D01*
X89662968Y-107373777D01*
X89664111Y-107402863D01*
X89665391Y-107435435D01*
X89665391Y-107435436D01*
X89673127Y-107632328D01*
X89673854Y-107650844D01*
X89723670Y-107923614D01*
X89746508Y-107992069D01*
X89795593Y-108139194D01*
X89811423Y-108186644D01*
X89873655Y-108311189D01*
X89931103Y-108426160D01*
X89935362Y-108434684D01*
X90093014Y-108662787D01*
X90096036Y-108666056D01*
X90278217Y-108863139D01*
X90278222Y-108863144D01*
X90281233Y-108866401D01*
X90496264Y-109041464D01*
X90500082Y-109043763D01*
X90500084Y-109043764D01*
X90709810Y-109170029D01*
X90733816Y-109184482D01*
X90789150Y-109207913D01*
X90985046Y-109290865D01*
X90985051Y-109290867D01*
X90989149Y-109292602D01*
X90993446Y-109293741D01*
X90993451Y-109293743D01*
X91123159Y-109328134D01*
X91257169Y-109363666D01*
X91532529Y-109396257D01*
X91809734Y-109389724D01*
X91814132Y-109388992D01*
X92078862Y-109344929D01*
X92078866Y-109344928D01*
X92083252Y-109344198D01*
X92087493Y-109342857D01*
X92087496Y-109342856D01*
X92343381Y-109261930D01*
X92343383Y-109261929D01*
X92347627Y-109260587D01*
X92351638Y-109258661D01*
X92351643Y-109258659D01*
X92593565Y-109142490D01*
X92593566Y-109142489D01*
X92597584Y-109140560D01*
X92713500Y-109063107D01*
X92824428Y-108988988D01*
X92824432Y-108988985D01*
X92828136Y-108986510D01*
X92831453Y-108983539D01*
X92831457Y-108983536D01*
X93031363Y-108804485D01*
X93031364Y-108804484D01*
X93034681Y-108801513D01*
X93213099Y-108589258D01*
X93359831Y-108353982D01*
X93471948Y-108100379D01*
X93547213Y-107833507D01*
X93551536Y-107801325D01*
X93583698Y-107561876D01*
X93583699Y-107561868D01*
X93584125Y-107558694D01*
X93584226Y-107555483D01*
X93587898Y-107438658D01*
X93587898Y-107438653D01*
X93587999Y-107435436D01*
X93568415Y-107158847D01*
X93566157Y-107148356D01*
X93510992Y-106892123D01*
X93510991Y-106892121D01*
X93510056Y-106887776D01*
X93414084Y-106627633D01*
X93405535Y-106611788D01*
X93284528Y-106387524D01*
X93282415Y-106383608D01*
X93117676Y-106160569D01*
X93114252Y-106157090D01*
X92926285Y-105966149D01*
X92923154Y-105962968D01*
X92919614Y-105960267D01*
X92919608Y-105960261D01*
X92706271Y-105797448D01*
X92702731Y-105794746D01*
X92698842Y-105792568D01*
X92464690Y-105661436D01*
X92464687Y-105661435D01*
X92460804Y-105659260D01*
X92456665Y-105657659D01*
X92456657Y-105657655D01*
X92235653Y-105572156D01*
X92202200Y-105559214D01*
X92197879Y-105558212D01*
X92197871Y-105558210D01*
X92007585Y-105514105D01*
X91932080Y-105496604D01*
X91655832Y-105472678D01*
X91651397Y-105472922D01*
X91651393Y-105472922D01*
X91383413Y-105487670D01*
X91383406Y-105487671D01*
X91378970Y-105487915D01*
X91107016Y-105542010D01*
X91102806Y-105543488D01*
X91102804Y-105543489D01*
X90912396Y-105610356D01*
X90841496Y-105614055D01*
X90779851Y-105578836D01*
X90747033Y-105515879D01*
X90753462Y-105445174D01*
X90796586Y-105389538D01*
X90877507Y-105330746D01*
X90877509Y-105330744D01*
X90882851Y-105326863D01*
X90887273Y-105321952D01*
X91006218Y-105189850D01*
X91006219Y-105189849D01*
X91010637Y-105184942D01*
X91106124Y-105019554D01*
X91165138Y-104837927D01*
X91173545Y-104757944D01*
X91184410Y-104654565D01*
X91185100Y-104648000D01*
X91184410Y-104641435D01*
X91165828Y-104464637D01*
X91165828Y-104464636D01*
X91165138Y-104458073D01*
X91106124Y-104276446D01*
X91010637Y-104111058D01*
X90969744Y-104065641D01*
X90887273Y-103974048D01*
X90887272Y-103974047D01*
X90882851Y-103969137D01*
X90877509Y-103965256D01*
X90877507Y-103965254D01*
X90733692Y-103860767D01*
X90733691Y-103860766D01*
X90728350Y-103856886D01*
X90722322Y-103854202D01*
X90722320Y-103854201D01*
X90559918Y-103781895D01*
X90559917Y-103781895D01*
X90553887Y-103779210D01*
X90460487Y-103759357D01*
X90373544Y-103740876D01*
X90373539Y-103740876D01*
X90367087Y-103739504D01*
X90176113Y-103739504D01*
X90169661Y-103740876D01*
X90169656Y-103740876D01*
X90082713Y-103759357D01*
X89989313Y-103779210D01*
X89983283Y-103781895D01*
X89983282Y-103781895D01*
X89820880Y-103854201D01*
X89820878Y-103854202D01*
X89814850Y-103856886D01*
X89809509Y-103860766D01*
X89809508Y-103860767D01*
X89665693Y-103965254D01*
X89665691Y-103965256D01*
X89660349Y-103969137D01*
X89655928Y-103974047D01*
X89655927Y-103974048D01*
X89573457Y-104065641D01*
X89532563Y-104111058D01*
X89437076Y-104276446D01*
X89378062Y-104458073D01*
X89377372Y-104464636D01*
X89377372Y-104464637D01*
X89358790Y-104641435D01*
X89358100Y-104648000D01*
X75141356Y-104648000D01*
X75161037Y-104626142D01*
X75256524Y-104460754D01*
X75302158Y-104320307D01*
X75313498Y-104285406D01*
X75313498Y-104285405D01*
X75315538Y-104279127D01*
X75333548Y-104107777D01*
X75334810Y-104095765D01*
X75335500Y-104089200D01*
X75315538Y-103899273D01*
X75256524Y-103717646D01*
X75161037Y-103552258D01*
X75033251Y-103410337D01*
X75027909Y-103406456D01*
X75027907Y-103406454D01*
X74884092Y-103301967D01*
X74884091Y-103301966D01*
X74878750Y-103298086D01*
X74872722Y-103295402D01*
X74872720Y-103295401D01*
X74710318Y-103223095D01*
X74710317Y-103223095D01*
X74704287Y-103220410D01*
X74610887Y-103200557D01*
X74523944Y-103182076D01*
X74523939Y-103182076D01*
X74517487Y-103180704D01*
X74326513Y-103180704D01*
X74320061Y-103182076D01*
X74320056Y-103182076D01*
X74233113Y-103200557D01*
X74139713Y-103220410D01*
X74133683Y-103223095D01*
X74133682Y-103223095D01*
X73971280Y-103295401D01*
X73971278Y-103295402D01*
X73965250Y-103298086D01*
X73959909Y-103301966D01*
X73959908Y-103301967D01*
X73816093Y-103406454D01*
X73816091Y-103406456D01*
X73810749Y-103410337D01*
X73682963Y-103552258D01*
X73587476Y-103717646D01*
X73528462Y-103899273D01*
X73508500Y-104089200D01*
X64236811Y-104089200D01*
X64234536Y-104074769D01*
X64232999Y-104055146D01*
X64232999Y-102336600D01*
X66650500Y-102336600D01*
X66651190Y-102343165D01*
X66661869Y-102444765D01*
X66670462Y-102526527D01*
X66729476Y-102708154D01*
X66824963Y-102873542D01*
X66952749Y-103015463D01*
X66958091Y-103019344D01*
X66958093Y-103019346D01*
X67101908Y-103123833D01*
X67107250Y-103127714D01*
X67113278Y-103130398D01*
X67113280Y-103130399D01*
X67275682Y-103202705D01*
X67281713Y-103205390D01*
X67352376Y-103220410D01*
X67462056Y-103243724D01*
X67462061Y-103243724D01*
X67468513Y-103245096D01*
X67659487Y-103245096D01*
X67665939Y-103243724D01*
X67665944Y-103243724D01*
X67775624Y-103220410D01*
X67846287Y-103205390D01*
X67852318Y-103202705D01*
X68014720Y-103130399D01*
X68014722Y-103130398D01*
X68020750Y-103127714D01*
X68026092Y-103123833D01*
X68169907Y-103019346D01*
X68169909Y-103019344D01*
X68175251Y-103015463D01*
X68303037Y-102873542D01*
X68398524Y-102708154D01*
X68457538Y-102526527D01*
X68466132Y-102444765D01*
X68466822Y-102438200D01*
X75261100Y-102438200D01*
X75281062Y-102628127D01*
X75340076Y-102809754D01*
X75435563Y-102975142D01*
X75563349Y-103117063D01*
X75568691Y-103120944D01*
X75568693Y-103120946D01*
X75709290Y-103223095D01*
X75717850Y-103229314D01*
X75723878Y-103231998D01*
X75723880Y-103231999D01*
X75872314Y-103298086D01*
X75892313Y-103306990D01*
X75985713Y-103326843D01*
X76072656Y-103345324D01*
X76072661Y-103345324D01*
X76079113Y-103346696D01*
X76270087Y-103346696D01*
X76276539Y-103345324D01*
X76276544Y-103345324D01*
X76363487Y-103326843D01*
X76456887Y-103306990D01*
X76476886Y-103298086D01*
X76625320Y-103231999D01*
X76625322Y-103231998D01*
X76631350Y-103229314D01*
X76639910Y-103223095D01*
X76780507Y-103120946D01*
X76780509Y-103120944D01*
X76785851Y-103117063D01*
X76913637Y-102975142D01*
X77009124Y-102809754D01*
X77068138Y-102628127D01*
X77088100Y-102438200D01*
X77080354Y-102364505D01*
X77068828Y-102254837D01*
X77068828Y-102254836D01*
X77068138Y-102248273D01*
X77039881Y-102161305D01*
X77021351Y-102104277D01*
X77009124Y-102066646D01*
X76913637Y-101901258D01*
X76814678Y-101791352D01*
X76790273Y-101764248D01*
X76790272Y-101764247D01*
X76785851Y-101759337D01*
X76780509Y-101755456D01*
X76780507Y-101755454D01*
X76741343Y-101727000D01*
X78766300Y-101727000D01*
X78786262Y-101916927D01*
X78788302Y-101923205D01*
X78788302Y-101923206D01*
X78806088Y-101977946D01*
X78845276Y-102098554D01*
X78940763Y-102263942D01*
X78945181Y-102268849D01*
X78945182Y-102268850D01*
X79031310Y-102364505D01*
X79068549Y-102405863D01*
X79073891Y-102409744D01*
X79073893Y-102409746D01*
X79104021Y-102431635D01*
X79223050Y-102518114D01*
X79229078Y-102520798D01*
X79229080Y-102520799D01*
X79391482Y-102593105D01*
X79397513Y-102595790D01*
X79490913Y-102615643D01*
X79577856Y-102634124D01*
X79577861Y-102634124D01*
X79584313Y-102635496D01*
X79775287Y-102635496D01*
X79781739Y-102634124D01*
X79781744Y-102634124D01*
X79868687Y-102615643D01*
X79962087Y-102595790D01*
X79968118Y-102593105D01*
X80130520Y-102520799D01*
X80130522Y-102520798D01*
X80136550Y-102518114D01*
X80255579Y-102431635D01*
X80285707Y-102409746D01*
X80285709Y-102409744D01*
X80291051Y-102405863D01*
X80328290Y-102364505D01*
X80414418Y-102268850D01*
X80414419Y-102268849D01*
X80418837Y-102263942D01*
X80514324Y-102098554D01*
X80553512Y-101977946D01*
X80571298Y-101923206D01*
X80571298Y-101923205D01*
X80573338Y-101916927D01*
X80593300Y-101727000D01*
X80573338Y-101537073D01*
X80560773Y-101498400D01*
X80516366Y-101361731D01*
X80514324Y-101355446D01*
X80479541Y-101295200D01*
X85878300Y-101295200D01*
X85898262Y-101485127D01*
X85900302Y-101491405D01*
X85900302Y-101491406D01*
X85932757Y-101591293D01*
X85957276Y-101666754D01*
X86052763Y-101832142D01*
X86057181Y-101837049D01*
X86057182Y-101837050D01*
X86134757Y-101923206D01*
X86180549Y-101974063D01*
X86185891Y-101977944D01*
X86185893Y-101977946D01*
X86271648Y-102040250D01*
X86335050Y-102086314D01*
X86341078Y-102088998D01*
X86341080Y-102088999D01*
X86470618Y-102146673D01*
X86509513Y-102163990D01*
X86590225Y-102181146D01*
X86689856Y-102202324D01*
X86689861Y-102202324D01*
X86696313Y-102203696D01*
X86887287Y-102203696D01*
X86893739Y-102202324D01*
X86893744Y-102202324D01*
X86993375Y-102181146D01*
X87074087Y-102163990D01*
X87112982Y-102146673D01*
X87242520Y-102088999D01*
X87242522Y-102088998D01*
X87248550Y-102086314D01*
X87311952Y-102040250D01*
X87397707Y-101977946D01*
X87397709Y-101977944D01*
X87403051Y-101974063D01*
X87448843Y-101923206D01*
X87526418Y-101837050D01*
X87526419Y-101837049D01*
X87530837Y-101832142D01*
X87626324Y-101666754D01*
X87650843Y-101591293D01*
X87681026Y-101498400D01*
X91440900Y-101498400D01*
X91460862Y-101688327D01*
X91462902Y-101694605D01*
X91462902Y-101694606D01*
X91475561Y-101733565D01*
X91519876Y-101869954D01*
X91615363Y-102035342D01*
X91743149Y-102177263D01*
X91748491Y-102181144D01*
X91748493Y-102181146D01*
X91862453Y-102263942D01*
X91897650Y-102289514D01*
X91903678Y-102292198D01*
X91903680Y-102292199D01*
X92018152Y-102343165D01*
X92072113Y-102367190D01*
X92165513Y-102387043D01*
X92252456Y-102405524D01*
X92252461Y-102405524D01*
X92258913Y-102406896D01*
X92449887Y-102406896D01*
X92456339Y-102405524D01*
X92456344Y-102405524D01*
X92543287Y-102387043D01*
X92636687Y-102367190D01*
X92690648Y-102343165D01*
X92805120Y-102292199D01*
X92805122Y-102292198D01*
X92811150Y-102289514D01*
X92846347Y-102263942D01*
X92960307Y-102181146D01*
X92960309Y-102181144D01*
X92965651Y-102177263D01*
X93093437Y-102035342D01*
X93188924Y-101869954D01*
X93233239Y-101733565D01*
X93245898Y-101694606D01*
X93245898Y-101694605D01*
X93247938Y-101688327D01*
X93267900Y-101498400D01*
X93247938Y-101308473D01*
X93245759Y-101301765D01*
X93190966Y-101133131D01*
X93188924Y-101126846D01*
X93183471Y-101117400D01*
X95022300Y-101117400D01*
X95042262Y-101307327D01*
X95101276Y-101488954D01*
X95104579Y-101494676D01*
X95104580Y-101494677D01*
X95110520Y-101504965D01*
X95196763Y-101654342D01*
X95201181Y-101659249D01*
X95201182Y-101659250D01*
X95320127Y-101791352D01*
X95324549Y-101796263D01*
X95329891Y-101800144D01*
X95329893Y-101800146D01*
X95469063Y-101901258D01*
X95479050Y-101908514D01*
X95485078Y-101911198D01*
X95485080Y-101911199D01*
X95647482Y-101983505D01*
X95653513Y-101986190D01*
X95746913Y-102006043D01*
X95833856Y-102024524D01*
X95833861Y-102024524D01*
X95840313Y-102025896D01*
X96031287Y-102025896D01*
X96037739Y-102024524D01*
X96037744Y-102024524D01*
X96124687Y-102006043D01*
X96218087Y-101986190D01*
X96224118Y-101983505D01*
X96386520Y-101911199D01*
X96386522Y-101911198D01*
X96392550Y-101908514D01*
X96402537Y-101901258D01*
X96541707Y-101800146D01*
X96541709Y-101800144D01*
X96547051Y-101796263D01*
X96551473Y-101791352D01*
X96670418Y-101659250D01*
X96670419Y-101659249D01*
X96674837Y-101654342D01*
X96761080Y-101504965D01*
X96767020Y-101494677D01*
X96767021Y-101494676D01*
X96770324Y-101488954D01*
X96829338Y-101307327D01*
X96849300Y-101117400D01*
X96829338Y-100927473D01*
X96770324Y-100745846D01*
X96674837Y-100580458D01*
X96638048Y-100539599D01*
X96551473Y-100443448D01*
X96551472Y-100443447D01*
X96547051Y-100438537D01*
X96541709Y-100434656D01*
X96541707Y-100434654D01*
X96397892Y-100330167D01*
X96397891Y-100330166D01*
X96392550Y-100326286D01*
X96386522Y-100323602D01*
X96386520Y-100323601D01*
X96224118Y-100251295D01*
X96224117Y-100251295D01*
X96218087Y-100248610D01*
X96124687Y-100228757D01*
X96037744Y-100210276D01*
X96037739Y-100210276D01*
X96031287Y-100208904D01*
X95840313Y-100208904D01*
X95833861Y-100210276D01*
X95833856Y-100210276D01*
X95746913Y-100228757D01*
X95653513Y-100248610D01*
X95647483Y-100251295D01*
X95647482Y-100251295D01*
X95485080Y-100323601D01*
X95485078Y-100323602D01*
X95479050Y-100326286D01*
X95473709Y-100330166D01*
X95473708Y-100330167D01*
X95329893Y-100434654D01*
X95329891Y-100434656D01*
X95324549Y-100438537D01*
X95320128Y-100443447D01*
X95320127Y-100443448D01*
X95233553Y-100539599D01*
X95196763Y-100580458D01*
X95101276Y-100745846D01*
X95042262Y-100927473D01*
X95022300Y-101117400D01*
X93183471Y-101117400D01*
X93096738Y-100967176D01*
X93093437Y-100961458D01*
X93073907Y-100939767D01*
X92970073Y-100824448D01*
X92970072Y-100824447D01*
X92965651Y-100819537D01*
X92960309Y-100815656D01*
X92960307Y-100815654D01*
X92816492Y-100711167D01*
X92816491Y-100711166D01*
X92811150Y-100707286D01*
X92805122Y-100704602D01*
X92805120Y-100704601D01*
X92642718Y-100632295D01*
X92642717Y-100632295D01*
X92636687Y-100629610D01*
X92543287Y-100609757D01*
X92456344Y-100591276D01*
X92456339Y-100591276D01*
X92449887Y-100589904D01*
X92258913Y-100589904D01*
X92252461Y-100591276D01*
X92252456Y-100591276D01*
X92165513Y-100609757D01*
X92072113Y-100629610D01*
X92066083Y-100632295D01*
X92066082Y-100632295D01*
X91903680Y-100704601D01*
X91903678Y-100704602D01*
X91897650Y-100707286D01*
X91892309Y-100711166D01*
X91892308Y-100711167D01*
X91748493Y-100815654D01*
X91748491Y-100815656D01*
X91743149Y-100819537D01*
X91738728Y-100824447D01*
X91738727Y-100824448D01*
X91634894Y-100939767D01*
X91615363Y-100961458D01*
X91612062Y-100967176D01*
X91525330Y-101117400D01*
X91519876Y-101126846D01*
X91517834Y-101133131D01*
X91463042Y-101301765D01*
X91460862Y-101308473D01*
X91440900Y-101498400D01*
X87681026Y-101498400D01*
X87683298Y-101491406D01*
X87683298Y-101491405D01*
X87685338Y-101485127D01*
X87705300Y-101295200D01*
X87685338Y-101105273D01*
X87666774Y-101048137D01*
X87629700Y-100934037D01*
X87626324Y-100923646D01*
X87530837Y-100758258D01*
X87437230Y-100654296D01*
X87407473Y-100621248D01*
X87407472Y-100621247D01*
X87403051Y-100616337D01*
X87397709Y-100612456D01*
X87397707Y-100612454D01*
X87253892Y-100507967D01*
X87253891Y-100507966D01*
X87248550Y-100504086D01*
X87242522Y-100501402D01*
X87242520Y-100501401D01*
X87080118Y-100429095D01*
X87080117Y-100429095D01*
X87074087Y-100426410D01*
X86980687Y-100406557D01*
X86893744Y-100388076D01*
X86893739Y-100388076D01*
X86887287Y-100386704D01*
X86696313Y-100386704D01*
X86689861Y-100388076D01*
X86689856Y-100388076D01*
X86602913Y-100406557D01*
X86509513Y-100426410D01*
X86503483Y-100429095D01*
X86503482Y-100429095D01*
X86341080Y-100501401D01*
X86341078Y-100501402D01*
X86335050Y-100504086D01*
X86329709Y-100507966D01*
X86329708Y-100507967D01*
X86185893Y-100612454D01*
X86185891Y-100612456D01*
X86180549Y-100616337D01*
X86176128Y-100621247D01*
X86176127Y-100621248D01*
X86146371Y-100654296D01*
X86052763Y-100758258D01*
X85957276Y-100923646D01*
X85953900Y-100934037D01*
X85916827Y-101048137D01*
X85898262Y-101105273D01*
X85878300Y-101295200D01*
X80479541Y-101295200D01*
X80418837Y-101190058D01*
X80347505Y-101110835D01*
X80295473Y-101053048D01*
X80295472Y-101053047D01*
X80291051Y-101048137D01*
X80285709Y-101044256D01*
X80285707Y-101044254D01*
X80141892Y-100939767D01*
X80141891Y-100939766D01*
X80136550Y-100935886D01*
X80130522Y-100933202D01*
X80130520Y-100933201D01*
X79968118Y-100860895D01*
X79968117Y-100860895D01*
X79962087Y-100858210D01*
X79868687Y-100838357D01*
X79781744Y-100819876D01*
X79781739Y-100819876D01*
X79775287Y-100818504D01*
X79584313Y-100818504D01*
X79577861Y-100819876D01*
X79577856Y-100819876D01*
X79490913Y-100838357D01*
X79397513Y-100858210D01*
X79391483Y-100860895D01*
X79391482Y-100860895D01*
X79229080Y-100933201D01*
X79229078Y-100933202D01*
X79223050Y-100935886D01*
X79217709Y-100939766D01*
X79217708Y-100939767D01*
X79073893Y-101044254D01*
X79073891Y-101044256D01*
X79068549Y-101048137D01*
X79064128Y-101053047D01*
X79064127Y-101053048D01*
X79012096Y-101110835D01*
X78940763Y-101190058D01*
X78845276Y-101355446D01*
X78843234Y-101361731D01*
X78798828Y-101498400D01*
X78786262Y-101537073D01*
X78766300Y-101727000D01*
X76741343Y-101727000D01*
X76636692Y-101650967D01*
X76636691Y-101650966D01*
X76631350Y-101647086D01*
X76625322Y-101644402D01*
X76625320Y-101644401D01*
X76462918Y-101572095D01*
X76462917Y-101572095D01*
X76456887Y-101569410D01*
X76344335Y-101545486D01*
X76276544Y-101531076D01*
X76276539Y-101531076D01*
X76270087Y-101529704D01*
X76079113Y-101529704D01*
X76072661Y-101531076D01*
X76072656Y-101531076D01*
X76004865Y-101545486D01*
X75892313Y-101569410D01*
X75886283Y-101572095D01*
X75886282Y-101572095D01*
X75723880Y-101644401D01*
X75723878Y-101644402D01*
X75717850Y-101647086D01*
X75712509Y-101650966D01*
X75712508Y-101650967D01*
X75568693Y-101755454D01*
X75568691Y-101755456D01*
X75563349Y-101759337D01*
X75558928Y-101764247D01*
X75558927Y-101764248D01*
X75534523Y-101791352D01*
X75435563Y-101901258D01*
X75340076Y-102066646D01*
X75327849Y-102104277D01*
X75309320Y-102161305D01*
X75281062Y-102248273D01*
X75280372Y-102254836D01*
X75280372Y-102254837D01*
X75268846Y-102364505D01*
X75261100Y-102438200D01*
X68466822Y-102438200D01*
X68476810Y-102343165D01*
X68477500Y-102336600D01*
X68457538Y-102146673D01*
X68398524Y-101965046D01*
X68303037Y-101799658D01*
X68231705Y-101720435D01*
X68179673Y-101662648D01*
X68179672Y-101662647D01*
X68175251Y-101657737D01*
X68169909Y-101653856D01*
X68169907Y-101653854D01*
X68026092Y-101549367D01*
X68026091Y-101549366D01*
X68020750Y-101545486D01*
X68014722Y-101542802D01*
X68014720Y-101542801D01*
X67852318Y-101470495D01*
X67852317Y-101470495D01*
X67846287Y-101467810D01*
X67752887Y-101447957D01*
X67665944Y-101429476D01*
X67665939Y-101429476D01*
X67659487Y-101428104D01*
X67468513Y-101428104D01*
X67462061Y-101429476D01*
X67462056Y-101429476D01*
X67375113Y-101447957D01*
X67281713Y-101467810D01*
X67275683Y-101470495D01*
X67275682Y-101470495D01*
X67113280Y-101542801D01*
X67113278Y-101542802D01*
X67107250Y-101545486D01*
X67101909Y-101549366D01*
X67101908Y-101549367D01*
X66958093Y-101653854D01*
X66958091Y-101653856D01*
X66952749Y-101657737D01*
X66948328Y-101662647D01*
X66948327Y-101662648D01*
X66896296Y-101720435D01*
X66824963Y-101799658D01*
X66729476Y-101965046D01*
X66670462Y-102146673D01*
X66650500Y-102336600D01*
X64232999Y-102336600D01*
X64232999Y-101295200D01*
X69622300Y-101295200D01*
X69642262Y-101485127D01*
X69644302Y-101491405D01*
X69644302Y-101491406D01*
X69676757Y-101591293D01*
X69701276Y-101666754D01*
X69796763Y-101832142D01*
X69801181Y-101837049D01*
X69801182Y-101837050D01*
X69878757Y-101923206D01*
X69924549Y-101974063D01*
X69929891Y-101977944D01*
X69929893Y-101977946D01*
X70015648Y-102040250D01*
X70079050Y-102086314D01*
X70085078Y-102088998D01*
X70085080Y-102088999D01*
X70214618Y-102146673D01*
X70253513Y-102163990D01*
X70334225Y-102181146D01*
X70433856Y-102202324D01*
X70433861Y-102202324D01*
X70440313Y-102203696D01*
X70631287Y-102203696D01*
X70637739Y-102202324D01*
X70637744Y-102202324D01*
X70737375Y-102181146D01*
X70818087Y-102163990D01*
X70856982Y-102146673D01*
X70986520Y-102088999D01*
X70986522Y-102088998D01*
X70992550Y-102086314D01*
X71055952Y-102040250D01*
X71141707Y-101977946D01*
X71141709Y-101977944D01*
X71147051Y-101974063D01*
X71192843Y-101923206D01*
X71270418Y-101837050D01*
X71270419Y-101837049D01*
X71274837Y-101832142D01*
X71370324Y-101666754D01*
X71394843Y-101591293D01*
X71427298Y-101491406D01*
X71427298Y-101491405D01*
X71429338Y-101485127D01*
X71449300Y-101295200D01*
X71429338Y-101105273D01*
X71410774Y-101048137D01*
X71373700Y-100934037D01*
X71370324Y-100923646D01*
X71274837Y-100758258D01*
X71181230Y-100654296D01*
X71151473Y-100621248D01*
X71151472Y-100621247D01*
X71147051Y-100616337D01*
X71141709Y-100612456D01*
X71141707Y-100612454D01*
X70997892Y-100507967D01*
X70997891Y-100507966D01*
X70992550Y-100504086D01*
X70986522Y-100501402D01*
X70986520Y-100501401D01*
X70824118Y-100429095D01*
X70824117Y-100429095D01*
X70818087Y-100426410D01*
X70724687Y-100406557D01*
X70637744Y-100388076D01*
X70637739Y-100388076D01*
X70631287Y-100386704D01*
X70440313Y-100386704D01*
X70433861Y-100388076D01*
X70433856Y-100388076D01*
X70346913Y-100406557D01*
X70253513Y-100426410D01*
X70247483Y-100429095D01*
X70247482Y-100429095D01*
X70085080Y-100501401D01*
X70085078Y-100501402D01*
X70079050Y-100504086D01*
X70073709Y-100507966D01*
X70073708Y-100507967D01*
X69929893Y-100612454D01*
X69929891Y-100612456D01*
X69924549Y-100616337D01*
X69920128Y-100621247D01*
X69920127Y-100621248D01*
X69890371Y-100654296D01*
X69796763Y-100758258D01*
X69701276Y-100923646D01*
X69697900Y-100934037D01*
X69660827Y-101048137D01*
X69642262Y-101105273D01*
X69622300Y-101295200D01*
X64232999Y-101295200D01*
X64232999Y-99745800D01*
X89256500Y-99745800D01*
X89276462Y-99935727D01*
X89335476Y-100117354D01*
X89430963Y-100282742D01*
X89435381Y-100287649D01*
X89435382Y-100287650D01*
X89525806Y-100388076D01*
X89558749Y-100424663D01*
X89564091Y-100428544D01*
X89564093Y-100428546D01*
X89707908Y-100533033D01*
X89713250Y-100536914D01*
X89719278Y-100539598D01*
X89719280Y-100539599D01*
X89881682Y-100611905D01*
X89887713Y-100614590D01*
X89958376Y-100629610D01*
X90068056Y-100652924D01*
X90068061Y-100652924D01*
X90074513Y-100654296D01*
X90265487Y-100654296D01*
X90271939Y-100652924D01*
X90271944Y-100652924D01*
X90381624Y-100629610D01*
X90452287Y-100614590D01*
X90458318Y-100611905D01*
X90620720Y-100539599D01*
X90620722Y-100539598D01*
X90626750Y-100536914D01*
X90632092Y-100533033D01*
X90775907Y-100428546D01*
X90775909Y-100428544D01*
X90781251Y-100424663D01*
X90814194Y-100388076D01*
X90904618Y-100287650D01*
X90904619Y-100287649D01*
X90909037Y-100282742D01*
X91004524Y-100117354D01*
X91063538Y-99935727D01*
X91083500Y-99745800D01*
X91063538Y-99555873D01*
X91004524Y-99374246D01*
X90909037Y-99208858D01*
X90781251Y-99066937D01*
X90775909Y-99063056D01*
X90775907Y-99063054D01*
X90632092Y-98958567D01*
X90632091Y-98958566D01*
X90626750Y-98954686D01*
X90620722Y-98952002D01*
X90620720Y-98952001D01*
X90458318Y-98879695D01*
X90458317Y-98879695D01*
X90452287Y-98877010D01*
X90358887Y-98857157D01*
X90271944Y-98838676D01*
X90271939Y-98838676D01*
X90265487Y-98837304D01*
X90074513Y-98837304D01*
X90068061Y-98838676D01*
X90068056Y-98838676D01*
X89981113Y-98857157D01*
X89887713Y-98877010D01*
X89881683Y-98879695D01*
X89881682Y-98879695D01*
X89719280Y-98952001D01*
X89719278Y-98952002D01*
X89713250Y-98954686D01*
X89707909Y-98958566D01*
X89707908Y-98958567D01*
X89564093Y-99063054D01*
X89564091Y-99063056D01*
X89558749Y-99066937D01*
X89430963Y-99208858D01*
X89335476Y-99374246D01*
X89276462Y-99555873D01*
X89256500Y-99745800D01*
X64232999Y-99745800D01*
X64232999Y-97586800D01*
X70079500Y-97586800D01*
X70099462Y-97776727D01*
X70158476Y-97958354D01*
X70253963Y-98123742D01*
X70381749Y-98265663D01*
X70387091Y-98269544D01*
X70387093Y-98269546D01*
X70530908Y-98374033D01*
X70536250Y-98377914D01*
X70542278Y-98380598D01*
X70542280Y-98380599D01*
X70704682Y-98452905D01*
X70710713Y-98455590D01*
X70804113Y-98475443D01*
X70891056Y-98493924D01*
X70891061Y-98493924D01*
X70897513Y-98495296D01*
X71088487Y-98495296D01*
X71094939Y-98493924D01*
X71094944Y-98493924D01*
X71181887Y-98475443D01*
X71275287Y-98455590D01*
X71281318Y-98452905D01*
X71443720Y-98380599D01*
X71443722Y-98380598D01*
X71449750Y-98377914D01*
X71455092Y-98374033D01*
X71598907Y-98269546D01*
X71598909Y-98269544D01*
X71604251Y-98265663D01*
X71732037Y-98123742D01*
X71827524Y-97958354D01*
X71886538Y-97776727D01*
X71906500Y-97586800D01*
X71886538Y-97396873D01*
X71827524Y-97215246D01*
X71732037Y-97049858D01*
X71604251Y-96907937D01*
X71598909Y-96904056D01*
X71598907Y-96904054D01*
X71455092Y-96799567D01*
X71455091Y-96799566D01*
X71449750Y-96795686D01*
X71443722Y-96793002D01*
X71443720Y-96793001D01*
X71281318Y-96720695D01*
X71281317Y-96720695D01*
X71275287Y-96718010D01*
X71181887Y-96698157D01*
X71094944Y-96679676D01*
X71094939Y-96679676D01*
X71088487Y-96678304D01*
X70897513Y-96678304D01*
X70891061Y-96679676D01*
X70891056Y-96679676D01*
X70804113Y-96698157D01*
X70710713Y-96718010D01*
X70704683Y-96720695D01*
X70704682Y-96720695D01*
X70542280Y-96793001D01*
X70542278Y-96793002D01*
X70536250Y-96795686D01*
X70530909Y-96799566D01*
X70530908Y-96799567D01*
X70387093Y-96904054D01*
X70387091Y-96904056D01*
X70381749Y-96907937D01*
X70253963Y-97049858D01*
X70158476Y-97215246D01*
X70099462Y-97396873D01*
X70079500Y-97586800D01*
X64232999Y-97586800D01*
X64232999Y-96418400D01*
X67971300Y-96418400D01*
X67991262Y-96608327D01*
X67993302Y-96614605D01*
X67993302Y-96614606D01*
X68002835Y-96643946D01*
X68050276Y-96789954D01*
X68145763Y-96955342D01*
X68273549Y-97097263D01*
X68278891Y-97101144D01*
X68278893Y-97101146D01*
X68422708Y-97205633D01*
X68428050Y-97209514D01*
X68434078Y-97212198D01*
X68434080Y-97212199D01*
X68596482Y-97284505D01*
X68602513Y-97287190D01*
X68695913Y-97307043D01*
X68782856Y-97325524D01*
X68782861Y-97325524D01*
X68789313Y-97326896D01*
X68980287Y-97326896D01*
X68986739Y-97325524D01*
X68986744Y-97325524D01*
X69073687Y-97307043D01*
X69167087Y-97287190D01*
X69173118Y-97284505D01*
X69335520Y-97212199D01*
X69335522Y-97212198D01*
X69341550Y-97209514D01*
X69346892Y-97205633D01*
X69490707Y-97101146D01*
X69490709Y-97101144D01*
X69496051Y-97097263D01*
X69623837Y-96955342D01*
X69719324Y-96789954D01*
X69766765Y-96643946D01*
X69776298Y-96614606D01*
X69776298Y-96614605D01*
X69778338Y-96608327D01*
X69798300Y-96418400D01*
X69778338Y-96228473D01*
X69719324Y-96046846D01*
X69669876Y-95961200D01*
X72467100Y-95961200D01*
X72487062Y-96151127D01*
X72546076Y-96332754D01*
X72641563Y-96498142D01*
X72645981Y-96503049D01*
X72645982Y-96503050D01*
X72740774Y-96608327D01*
X72769349Y-96640063D01*
X72774691Y-96643944D01*
X72774693Y-96643946D01*
X72874746Y-96716638D01*
X72923850Y-96752314D01*
X72929878Y-96754998D01*
X72929880Y-96754999D01*
X73092282Y-96827305D01*
X73098313Y-96829990D01*
X73191713Y-96849843D01*
X73278656Y-96868324D01*
X73278661Y-96868324D01*
X73285113Y-96869696D01*
X73476087Y-96869696D01*
X73482539Y-96868324D01*
X73482544Y-96868324D01*
X73569487Y-96849843D01*
X73662887Y-96829990D01*
X73668918Y-96827305D01*
X73831320Y-96754999D01*
X73831322Y-96754998D01*
X73837350Y-96752314D01*
X73886454Y-96716638D01*
X73986507Y-96643946D01*
X73986509Y-96643944D01*
X73991851Y-96640063D01*
X74020426Y-96608327D01*
X74115218Y-96503050D01*
X74115219Y-96503049D01*
X74119637Y-96498142D01*
X74215124Y-96332754D01*
X74274138Y-96151127D01*
X74294100Y-95961200D01*
X74274138Y-95771273D01*
X74263827Y-95739537D01*
X74227354Y-95627286D01*
X74215124Y-95589646D01*
X74119637Y-95424258D01*
X73991851Y-95282337D01*
X73986509Y-95278456D01*
X73986507Y-95278454D01*
X73842692Y-95173967D01*
X73842691Y-95173966D01*
X73837350Y-95170086D01*
X73831322Y-95167402D01*
X73831320Y-95167401D01*
X73668918Y-95095095D01*
X73668917Y-95095095D01*
X73662887Y-95092410D01*
X73569487Y-95072557D01*
X73482544Y-95054076D01*
X73482539Y-95054076D01*
X73476087Y-95052704D01*
X73285113Y-95052704D01*
X73278661Y-95054076D01*
X73278656Y-95054076D01*
X73191713Y-95072557D01*
X73098313Y-95092410D01*
X73092283Y-95095095D01*
X73092282Y-95095095D01*
X72929880Y-95167401D01*
X72929878Y-95167402D01*
X72923850Y-95170086D01*
X72918509Y-95173966D01*
X72918508Y-95173967D01*
X72774693Y-95278454D01*
X72774691Y-95278456D01*
X72769349Y-95282337D01*
X72641563Y-95424258D01*
X72546076Y-95589646D01*
X72533846Y-95627286D01*
X72497374Y-95739537D01*
X72487062Y-95771273D01*
X72467100Y-95961200D01*
X69669876Y-95961200D01*
X69623837Y-95881458D01*
X69530537Y-95777837D01*
X69500473Y-95744448D01*
X69500472Y-95744447D01*
X69496051Y-95739537D01*
X69490709Y-95735656D01*
X69490707Y-95735654D01*
X69346892Y-95631167D01*
X69346891Y-95631166D01*
X69341550Y-95627286D01*
X69335522Y-95624602D01*
X69335520Y-95624601D01*
X69173118Y-95552295D01*
X69173117Y-95552295D01*
X69167087Y-95549610D01*
X69073687Y-95529757D01*
X68986744Y-95511276D01*
X68986739Y-95511276D01*
X68980287Y-95509904D01*
X68789313Y-95509904D01*
X68782861Y-95511276D01*
X68782856Y-95511276D01*
X68695913Y-95529757D01*
X68602513Y-95549610D01*
X68596483Y-95552295D01*
X68596482Y-95552295D01*
X68434080Y-95624601D01*
X68434078Y-95624602D01*
X68428050Y-95627286D01*
X68422709Y-95631166D01*
X68422708Y-95631167D01*
X68278893Y-95735654D01*
X68278891Y-95735656D01*
X68273549Y-95739537D01*
X68269128Y-95744447D01*
X68269127Y-95744448D01*
X68239064Y-95777837D01*
X68145763Y-95881458D01*
X68050276Y-96046846D01*
X67991262Y-96228473D01*
X67971300Y-96418400D01*
X64232999Y-96418400D01*
X64232999Y-92823777D01*
X79962968Y-92823777D01*
X79963143Y-92828229D01*
X79965391Y-92885435D01*
X79965391Y-92885436D01*
X79973127Y-93082328D01*
X79973854Y-93100844D01*
X80023670Y-93373614D01*
X80025079Y-93377837D01*
X80095593Y-93589194D01*
X80111423Y-93636644D01*
X80235362Y-93884684D01*
X80393014Y-94112787D01*
X80396036Y-94116056D01*
X80578217Y-94313139D01*
X80578222Y-94313144D01*
X80581233Y-94316401D01*
X80796264Y-94491464D01*
X80800082Y-94493763D01*
X80800084Y-94493764D01*
X80964068Y-94592490D01*
X81033816Y-94634482D01*
X81132521Y-94676279D01*
X81285046Y-94740865D01*
X81285051Y-94740867D01*
X81289149Y-94742602D01*
X81293446Y-94743741D01*
X81293451Y-94743743D01*
X81423159Y-94778134D01*
X81557169Y-94813666D01*
X81832529Y-94846257D01*
X82109734Y-94839724D01*
X82114132Y-94838992D01*
X82378862Y-94794929D01*
X82378866Y-94794928D01*
X82383252Y-94794198D01*
X82387493Y-94792857D01*
X82387496Y-94792856D01*
X82643381Y-94711930D01*
X82643383Y-94711929D01*
X82647627Y-94710587D01*
X82651638Y-94708661D01*
X82651643Y-94708659D01*
X82893565Y-94592490D01*
X82893566Y-94592489D01*
X82897584Y-94590560D01*
X83013500Y-94513107D01*
X83124428Y-94438988D01*
X83124432Y-94438985D01*
X83128136Y-94436510D01*
X83131453Y-94433539D01*
X83131457Y-94433536D01*
X83331363Y-94254485D01*
X83331364Y-94254484D01*
X83334681Y-94251513D01*
X83513099Y-94039258D01*
X83659831Y-93803982D01*
X83771948Y-93550379D01*
X83847213Y-93283507D01*
X83848944Y-93270616D01*
X83883698Y-93011876D01*
X83883699Y-93011868D01*
X83884125Y-93008694D01*
X83887999Y-92885436D01*
X83868415Y-92608847D01*
X83845037Y-92500256D01*
X83810992Y-92342123D01*
X83810991Y-92342121D01*
X83810056Y-92337776D01*
X83714084Y-92077633D01*
X83601014Y-91868077D01*
X83584528Y-91837524D01*
X83582415Y-91833608D01*
X83417676Y-91610569D01*
X83375582Y-91567808D01*
X83299773Y-91490800D01*
X90043900Y-91490800D01*
X90063862Y-91680727D01*
X90122876Y-91862354D01*
X90218363Y-92027742D01*
X90222781Y-92032649D01*
X90222782Y-92032650D01*
X90332714Y-92154742D01*
X90346149Y-92169663D01*
X90351491Y-92173544D01*
X90351493Y-92173546D01*
X90362686Y-92181678D01*
X90500650Y-92281914D01*
X90506678Y-92284598D01*
X90506680Y-92284599D01*
X90669082Y-92356905D01*
X90675113Y-92359590D01*
X90768513Y-92379443D01*
X90855456Y-92397924D01*
X90855461Y-92397924D01*
X90861913Y-92399296D01*
X91052887Y-92399296D01*
X91059339Y-92397924D01*
X91059344Y-92397924D01*
X91146287Y-92379443D01*
X91239687Y-92359590D01*
X91245718Y-92356905D01*
X91408120Y-92284599D01*
X91408122Y-92284598D01*
X91414150Y-92281914D01*
X91552114Y-92181678D01*
X91563307Y-92173546D01*
X91563309Y-92173544D01*
X91568651Y-92169663D01*
X91582086Y-92154742D01*
X91692018Y-92032650D01*
X91692019Y-92032649D01*
X91696437Y-92027742D01*
X91791924Y-91862354D01*
X91850938Y-91680727D01*
X91870900Y-91490800D01*
X91850938Y-91300873D01*
X91791924Y-91119246D01*
X91696437Y-90953858D01*
X91689906Y-90946604D01*
X91573073Y-90816848D01*
X91573072Y-90816847D01*
X91568651Y-90811937D01*
X91563309Y-90808056D01*
X91563307Y-90808054D01*
X91419492Y-90703567D01*
X91419491Y-90703566D01*
X91414150Y-90699686D01*
X91408122Y-90697002D01*
X91408120Y-90697001D01*
X91245718Y-90624695D01*
X91245717Y-90624695D01*
X91239687Y-90622010D01*
X91146287Y-90602157D01*
X91059344Y-90583676D01*
X91059339Y-90583676D01*
X91052887Y-90582304D01*
X90861913Y-90582304D01*
X90855461Y-90583676D01*
X90855456Y-90583676D01*
X90768513Y-90602157D01*
X90675113Y-90622010D01*
X90669083Y-90624695D01*
X90669082Y-90624695D01*
X90506680Y-90697001D01*
X90506678Y-90697002D01*
X90500650Y-90699686D01*
X90495309Y-90703566D01*
X90495308Y-90703567D01*
X90351493Y-90808054D01*
X90351491Y-90808056D01*
X90346149Y-90811937D01*
X90341728Y-90816847D01*
X90341727Y-90816848D01*
X90224895Y-90946604D01*
X90218363Y-90953858D01*
X90122876Y-91119246D01*
X90063862Y-91300873D01*
X90043900Y-91490800D01*
X83299773Y-91490800D01*
X83223154Y-91412968D01*
X83219614Y-91410267D01*
X83219608Y-91410261D01*
X83068047Y-91294594D01*
X83002731Y-91244746D01*
X82995190Y-91240523D01*
X82764690Y-91111436D01*
X82764687Y-91111435D01*
X82760804Y-91109260D01*
X82756665Y-91107659D01*
X82756657Y-91107655D01*
X82565014Y-91033515D01*
X82502200Y-91009214D01*
X82497879Y-91008212D01*
X82497871Y-91008210D01*
X82288045Y-90959576D01*
X82232080Y-90946604D01*
X81955832Y-90922678D01*
X81951397Y-90922922D01*
X81951393Y-90922922D01*
X81683413Y-90937670D01*
X81683406Y-90937671D01*
X81678970Y-90937915D01*
X81407016Y-90992010D01*
X81402806Y-90993488D01*
X81402804Y-90993489D01*
X81249557Y-91047306D01*
X81145398Y-91083884D01*
X80899334Y-91211703D01*
X80895707Y-91214295D01*
X80895702Y-91214298D01*
X80856143Y-91242568D01*
X80673736Y-91372919D01*
X80473103Y-91564312D01*
X80301440Y-91782066D01*
X80258456Y-91856069D01*
X80164405Y-92017988D01*
X80164402Y-92017994D01*
X80162171Y-92021835D01*
X80160501Y-92025958D01*
X80102295Y-92169663D01*
X80058075Y-92278836D01*
X80057004Y-92283149D01*
X80057002Y-92283154D01*
X79996946Y-92524924D01*
X79991229Y-92547939D01*
X79990775Y-92552367D01*
X79990775Y-92552369D01*
X79976823Y-92688544D01*
X79962968Y-92823777D01*
X64232999Y-92823777D01*
X64232999Y-91617800D01*
X73533900Y-91617800D01*
X73553862Y-91807727D01*
X73555902Y-91814005D01*
X73555902Y-91814006D01*
X73569569Y-91856069D01*
X73612876Y-91989354D01*
X73708363Y-92154742D01*
X73712781Y-92159649D01*
X73712782Y-92159650D01*
X73831727Y-92291752D01*
X73836149Y-92296663D01*
X73841491Y-92300544D01*
X73841493Y-92300546D01*
X73919065Y-92356905D01*
X73990650Y-92408914D01*
X73996678Y-92411598D01*
X73996680Y-92411599D01*
X74159082Y-92483905D01*
X74165113Y-92486590D01*
X74258513Y-92506443D01*
X74345456Y-92524924D01*
X74345461Y-92524924D01*
X74351913Y-92526296D01*
X74542887Y-92526296D01*
X74549339Y-92524924D01*
X74549344Y-92524924D01*
X74636287Y-92506443D01*
X74729687Y-92486590D01*
X74735718Y-92483905D01*
X74898120Y-92411599D01*
X74898122Y-92411598D01*
X74904150Y-92408914D01*
X74975735Y-92356905D01*
X75053307Y-92300546D01*
X75053309Y-92300544D01*
X75058651Y-92296663D01*
X75063073Y-92291752D01*
X75182018Y-92159650D01*
X75182019Y-92159649D01*
X75186437Y-92154742D01*
X75281924Y-91989354D01*
X75325231Y-91856069D01*
X75338898Y-91814006D01*
X75338898Y-91814005D01*
X75340938Y-91807727D01*
X75360900Y-91617800D01*
X75340938Y-91427873D01*
X75323083Y-91372919D01*
X75283966Y-91252531D01*
X75281924Y-91246246D01*
X75186437Y-91080858D01*
X75077235Y-90959576D01*
X75063073Y-90943848D01*
X75063072Y-90943847D01*
X75058651Y-90938937D01*
X75053309Y-90935056D01*
X75053307Y-90935054D01*
X74909492Y-90830567D01*
X74909491Y-90830566D01*
X74904150Y-90826686D01*
X74898122Y-90824002D01*
X74898120Y-90824001D01*
X74735718Y-90751695D01*
X74735717Y-90751695D01*
X74729687Y-90749010D01*
X74633822Y-90728633D01*
X74549344Y-90710676D01*
X74549339Y-90710676D01*
X74542887Y-90709304D01*
X74351913Y-90709304D01*
X74345461Y-90710676D01*
X74345456Y-90710676D01*
X74260978Y-90728633D01*
X74165113Y-90749010D01*
X74159083Y-90751695D01*
X74159082Y-90751695D01*
X73996680Y-90824001D01*
X73996678Y-90824002D01*
X73990650Y-90826686D01*
X73985309Y-90830566D01*
X73985308Y-90830567D01*
X73841493Y-90935054D01*
X73841491Y-90935056D01*
X73836149Y-90938937D01*
X73831728Y-90943847D01*
X73831727Y-90943848D01*
X73817566Y-90959576D01*
X73708363Y-91080858D01*
X73612876Y-91246246D01*
X73610834Y-91252531D01*
X73571718Y-91372919D01*
X73553862Y-91427873D01*
X73533900Y-91617800D01*
X64232999Y-91617800D01*
X64232999Y-88544400D01*
X69342900Y-88544400D01*
X69362862Y-88734327D01*
X69364902Y-88740605D01*
X69364902Y-88740606D01*
X69377114Y-88778190D01*
X69421876Y-88915954D01*
X69517363Y-89081342D01*
X69521781Y-89086249D01*
X69521782Y-89086250D01*
X69605805Y-89179567D01*
X69645149Y-89223263D01*
X69650491Y-89227144D01*
X69650493Y-89227146D01*
X69755374Y-89303346D01*
X69799650Y-89335514D01*
X69805678Y-89338198D01*
X69805680Y-89338199D01*
X69962081Y-89407833D01*
X69974113Y-89413190D01*
X70052529Y-89429858D01*
X70154456Y-89451524D01*
X70154461Y-89451524D01*
X70160913Y-89452896D01*
X70351887Y-89452896D01*
X70358339Y-89451524D01*
X70358344Y-89451524D01*
X70460271Y-89429858D01*
X70538687Y-89413190D01*
X70550719Y-89407833D01*
X70707120Y-89338199D01*
X70707122Y-89338198D01*
X70713150Y-89335514D01*
X70757426Y-89303346D01*
X70862307Y-89227146D01*
X70862309Y-89227144D01*
X70867651Y-89223263D01*
X70957954Y-89122972D01*
X71018399Y-89085733D01*
X71089383Y-89087085D01*
X71148367Y-89126599D01*
X71160706Y-89144280D01*
X71168363Y-89157542D01*
X71172781Y-89162449D01*
X71172782Y-89162450D01*
X71282275Y-89284054D01*
X71296149Y-89299463D01*
X71301491Y-89303344D01*
X71301493Y-89303346D01*
X71440663Y-89404458D01*
X71450650Y-89411714D01*
X71456678Y-89414398D01*
X71456680Y-89414399D01*
X71543146Y-89452896D01*
X71625113Y-89489390D01*
X71718513Y-89509243D01*
X71805456Y-89527724D01*
X71805461Y-89527724D01*
X71811913Y-89529096D01*
X72002887Y-89529096D01*
X72009339Y-89527724D01*
X72009344Y-89527724D01*
X72096287Y-89509243D01*
X72189687Y-89489390D01*
X72271654Y-89452896D01*
X72358120Y-89414399D01*
X72358122Y-89414398D01*
X72364150Y-89411714D01*
X72374137Y-89404458D01*
X72513307Y-89303346D01*
X72513309Y-89303344D01*
X72518651Y-89299463D01*
X72532525Y-89284054D01*
X72642018Y-89162450D01*
X72642019Y-89162449D01*
X72646437Y-89157542D01*
X72741924Y-88992154D01*
X72800938Y-88810527D01*
X72820900Y-88620600D01*
X72815561Y-88569800D01*
X74372100Y-88569800D01*
X74372790Y-88576365D01*
X74385839Y-88700514D01*
X74392062Y-88759727D01*
X74394102Y-88766005D01*
X74394102Y-88766006D01*
X74398061Y-88778190D01*
X74451076Y-88941354D01*
X74454379Y-88947076D01*
X74454380Y-88947077D01*
X74464294Y-88964248D01*
X74546563Y-89106742D01*
X74550981Y-89111649D01*
X74550982Y-89111650D01*
X74660914Y-89233742D01*
X74674349Y-89248663D01*
X74679691Y-89252544D01*
X74679693Y-89252546D01*
X74797585Y-89338199D01*
X74828850Y-89360914D01*
X74834878Y-89363598D01*
X74834880Y-89363599D01*
X74996543Y-89435576D01*
X75003313Y-89438590D01*
X75009774Y-89439963D01*
X75009779Y-89439965D01*
X75181535Y-89476474D01*
X75244009Y-89510202D01*
X75278330Y-89572352D01*
X75275171Y-89638656D01*
X75230262Y-89776873D01*
X75210300Y-89966800D01*
X75230262Y-90156727D01*
X75289276Y-90338354D01*
X75384763Y-90503742D01*
X75512549Y-90645663D01*
X75517891Y-90649544D01*
X75517893Y-90649546D01*
X75658490Y-90751695D01*
X75667050Y-90757914D01*
X75673078Y-90760598D01*
X75673080Y-90760599D01*
X75821514Y-90826686D01*
X75841513Y-90835590D01*
X75908817Y-90849896D01*
X76021856Y-90873924D01*
X76021861Y-90873924D01*
X76028313Y-90875296D01*
X76219287Y-90875296D01*
X76225739Y-90873924D01*
X76225744Y-90873924D01*
X76338783Y-90849896D01*
X76406087Y-90835590D01*
X76426086Y-90826686D01*
X76574520Y-90760599D01*
X76574522Y-90760598D01*
X76580550Y-90757914D01*
X76589110Y-90751695D01*
X76729707Y-90649546D01*
X76729709Y-90649544D01*
X76735051Y-90645663D01*
X76862837Y-90503742D01*
X76958324Y-90338354D01*
X77017338Y-90156727D01*
X77037300Y-89966800D01*
X77034630Y-89941400D01*
X91771100Y-89941400D01*
X91791062Y-90131327D01*
X91850076Y-90312954D01*
X91945563Y-90478342D01*
X91949981Y-90483249D01*
X91949982Y-90483250D01*
X92040406Y-90583676D01*
X92073349Y-90620263D01*
X92078691Y-90624144D01*
X92078693Y-90624146D01*
X92195904Y-90709304D01*
X92227850Y-90732514D01*
X92233878Y-90735198D01*
X92233880Y-90735199D01*
X92396282Y-90807505D01*
X92402313Y-90810190D01*
X92479920Y-90826686D01*
X92582656Y-90848524D01*
X92582661Y-90848524D01*
X92589113Y-90849896D01*
X92780087Y-90849896D01*
X92786539Y-90848524D01*
X92786544Y-90848524D01*
X92889280Y-90826686D01*
X92966887Y-90810190D01*
X92972918Y-90807505D01*
X93135320Y-90735199D01*
X93135322Y-90735198D01*
X93141350Y-90732514D01*
X93173296Y-90709304D01*
X93290507Y-90624146D01*
X93290509Y-90624144D01*
X93295851Y-90620263D01*
X93328794Y-90583676D01*
X93419218Y-90483250D01*
X93419219Y-90483249D01*
X93423637Y-90478342D01*
X93519124Y-90312954D01*
X93578138Y-90131327D01*
X93598100Y-89941400D01*
X93578138Y-89751473D01*
X93519124Y-89569846D01*
X93423637Y-89404458D01*
X93386848Y-89363599D01*
X93300273Y-89267448D01*
X93300272Y-89267447D01*
X93295851Y-89262537D01*
X93290509Y-89258656D01*
X93290507Y-89258654D01*
X93146692Y-89154167D01*
X93146691Y-89154166D01*
X93141350Y-89150286D01*
X93135322Y-89147602D01*
X93135320Y-89147601D01*
X92972918Y-89075295D01*
X92972917Y-89075295D01*
X92966887Y-89072610D01*
X92873487Y-89052757D01*
X92786544Y-89034276D01*
X92786539Y-89034276D01*
X92780087Y-89032904D01*
X92589113Y-89032904D01*
X92582661Y-89034276D01*
X92582656Y-89034276D01*
X92495713Y-89052757D01*
X92402313Y-89072610D01*
X92396283Y-89075295D01*
X92396282Y-89075295D01*
X92233880Y-89147601D01*
X92233878Y-89147602D01*
X92227850Y-89150286D01*
X92222509Y-89154166D01*
X92222508Y-89154167D01*
X92078693Y-89258654D01*
X92078691Y-89258656D01*
X92073349Y-89262537D01*
X92068928Y-89267447D01*
X92068927Y-89267448D01*
X91982353Y-89363599D01*
X91945563Y-89404458D01*
X91850076Y-89569846D01*
X91791062Y-89751473D01*
X91771100Y-89941400D01*
X77034630Y-89941400D01*
X77017338Y-89776873D01*
X76958324Y-89595246D01*
X76862837Y-89429858D01*
X76849065Y-89414562D01*
X76739473Y-89292848D01*
X76739472Y-89292847D01*
X76735051Y-89287937D01*
X76729709Y-89284056D01*
X76729707Y-89284054D01*
X76585892Y-89179567D01*
X76585891Y-89179566D01*
X76580550Y-89175686D01*
X76574522Y-89173002D01*
X76574520Y-89173001D01*
X76412118Y-89100695D01*
X76412117Y-89100695D01*
X76406087Y-89098010D01*
X76399626Y-89096637D01*
X76399621Y-89096635D01*
X76227865Y-89060126D01*
X76165391Y-89026398D01*
X76131070Y-88964248D01*
X76134229Y-88897944D01*
X76177098Y-88766006D01*
X76177098Y-88766005D01*
X76179138Y-88759727D01*
X76185362Y-88700514D01*
X76198410Y-88576365D01*
X76199100Y-88569800D01*
X78512300Y-88569800D01*
X78512990Y-88576365D01*
X78526039Y-88700514D01*
X78532262Y-88759727D01*
X78534302Y-88766005D01*
X78534302Y-88766006D01*
X78538261Y-88778190D01*
X78591276Y-88941354D01*
X78594579Y-88947076D01*
X78594580Y-88947077D01*
X78604494Y-88964248D01*
X78686763Y-89106742D01*
X78691181Y-89111649D01*
X78691182Y-89111650D01*
X78801114Y-89233742D01*
X78814549Y-89248663D01*
X78819891Y-89252544D01*
X78819893Y-89252546D01*
X78937785Y-89338199D01*
X78969050Y-89360914D01*
X78975078Y-89363598D01*
X78975080Y-89363599D01*
X79136743Y-89435576D01*
X79143513Y-89438590D01*
X79210817Y-89452896D01*
X79323856Y-89476924D01*
X79323861Y-89476924D01*
X79330313Y-89478296D01*
X79521287Y-89478296D01*
X79527739Y-89476924D01*
X79527744Y-89476924D01*
X79640783Y-89452896D01*
X79708087Y-89438590D01*
X79714857Y-89435576D01*
X79876520Y-89363599D01*
X79876522Y-89363598D01*
X79882550Y-89360914D01*
X79913815Y-89338199D01*
X80031707Y-89252546D01*
X80031709Y-89252544D01*
X80037051Y-89248663D01*
X80050486Y-89233742D01*
X80160418Y-89111650D01*
X80160419Y-89111649D01*
X80164837Y-89106742D01*
X80247106Y-88964248D01*
X80257020Y-88947077D01*
X80257021Y-88947076D01*
X80260324Y-88941354D01*
X80313339Y-88778190D01*
X80317298Y-88766006D01*
X80317298Y-88766005D01*
X80319338Y-88759727D01*
X80325562Y-88700514D01*
X80325952Y-88696800D01*
X86132300Y-88696800D01*
X86152262Y-88886727D01*
X86154302Y-88893005D01*
X86154302Y-88893006D01*
X86177450Y-88964248D01*
X86211276Y-89068354D01*
X86214579Y-89074076D01*
X86214580Y-89074077D01*
X86221310Y-89085733D01*
X86306763Y-89233742D01*
X86311181Y-89238649D01*
X86311182Y-89238650D01*
X86430127Y-89370752D01*
X86434549Y-89375663D01*
X86439891Y-89379544D01*
X86439893Y-89379546D01*
X86573304Y-89476474D01*
X86589050Y-89487914D01*
X86595078Y-89490598D01*
X86595080Y-89490599D01*
X86681546Y-89529096D01*
X86763513Y-89565590D01*
X86856913Y-89585443D01*
X86943856Y-89603924D01*
X86943861Y-89603924D01*
X86950313Y-89605296D01*
X87141287Y-89605296D01*
X87147739Y-89603924D01*
X87147744Y-89603924D01*
X87234687Y-89585443D01*
X87328087Y-89565590D01*
X87410054Y-89529096D01*
X87496520Y-89490599D01*
X87496522Y-89490598D01*
X87502550Y-89487914D01*
X87518296Y-89476474D01*
X87651707Y-89379546D01*
X87651709Y-89379544D01*
X87657051Y-89375663D01*
X87661473Y-89370752D01*
X87780418Y-89238650D01*
X87780419Y-89238649D01*
X87784837Y-89233742D01*
X87870290Y-89085733D01*
X87877020Y-89074077D01*
X87877021Y-89074076D01*
X87880324Y-89068354D01*
X87914150Y-88964248D01*
X87937298Y-88893006D01*
X87937298Y-88893005D01*
X87939338Y-88886727D01*
X87959300Y-88696800D01*
X87950601Y-88614035D01*
X87940028Y-88513437D01*
X87940028Y-88513436D01*
X87939338Y-88506873D01*
X87917813Y-88440624D01*
X87882366Y-88331531D01*
X87880324Y-88325246D01*
X87784837Y-88159858D01*
X87735989Y-88105606D01*
X87661473Y-88022848D01*
X87661472Y-88022847D01*
X87657051Y-88017937D01*
X87651709Y-88014056D01*
X87651707Y-88014054D01*
X87507892Y-87909567D01*
X87507891Y-87909566D01*
X87507662Y-87909400D01*
X91136100Y-87909400D01*
X91136790Y-87915965D01*
X91153812Y-88077915D01*
X91156062Y-88099327D01*
X91158102Y-88105605D01*
X91158102Y-88105606D01*
X91178090Y-88167123D01*
X91215076Y-88280954D01*
X91310563Y-88446342D01*
X91314981Y-88451249D01*
X91314982Y-88451250D01*
X91398855Y-88544400D01*
X91438349Y-88588263D01*
X91443691Y-88592144D01*
X91443693Y-88592146D01*
X91473821Y-88614035D01*
X91592850Y-88700514D01*
X91598878Y-88703198D01*
X91598880Y-88703199D01*
X91599253Y-88703365D01*
X91767313Y-88778190D01*
X91860713Y-88798043D01*
X91947656Y-88816524D01*
X91947661Y-88816524D01*
X91954113Y-88817896D01*
X92145087Y-88817896D01*
X92151539Y-88816524D01*
X92151544Y-88816524D01*
X92238487Y-88798043D01*
X92331887Y-88778190D01*
X92499947Y-88703365D01*
X92500320Y-88703199D01*
X92500322Y-88703198D01*
X92506350Y-88700514D01*
X92625379Y-88614035D01*
X92655507Y-88592146D01*
X92655509Y-88592144D01*
X92660851Y-88588263D01*
X92700345Y-88544400D01*
X95047700Y-88544400D01*
X95067662Y-88734327D01*
X95069702Y-88740605D01*
X95069702Y-88740606D01*
X95081914Y-88778190D01*
X95126676Y-88915954D01*
X95222163Y-89081342D01*
X95226581Y-89086249D01*
X95226582Y-89086250D01*
X95310605Y-89179567D01*
X95349949Y-89223263D01*
X95355291Y-89227144D01*
X95355293Y-89227146D01*
X95460174Y-89303346D01*
X95504450Y-89335514D01*
X95510478Y-89338198D01*
X95510480Y-89338199D01*
X95666881Y-89407833D01*
X95678913Y-89413190D01*
X95757329Y-89429858D01*
X95859256Y-89451524D01*
X95859261Y-89451524D01*
X95865713Y-89452896D01*
X96056687Y-89452896D01*
X96063139Y-89451524D01*
X96063144Y-89451524D01*
X96165071Y-89429858D01*
X96243487Y-89413190D01*
X96255519Y-89407833D01*
X96411920Y-89338199D01*
X96411922Y-89338198D01*
X96417950Y-89335514D01*
X96462226Y-89303346D01*
X96567107Y-89227146D01*
X96567109Y-89227144D01*
X96572451Y-89223263D01*
X96611795Y-89179567D01*
X96695818Y-89086250D01*
X96695819Y-89086249D01*
X96700237Y-89081342D01*
X96795724Y-88915954D01*
X96840486Y-88778190D01*
X96852698Y-88740606D01*
X96852698Y-88740605D01*
X96854738Y-88734327D01*
X96874700Y-88544400D01*
X96854738Y-88354473D01*
X96795724Y-88172846D01*
X96788226Y-88159858D01*
X96741696Y-88079267D01*
X96700237Y-88007458D01*
X96637566Y-87937854D01*
X96576873Y-87870448D01*
X96576872Y-87870447D01*
X96572451Y-87865537D01*
X96567109Y-87861656D01*
X96567107Y-87861654D01*
X96423292Y-87757167D01*
X96423291Y-87757166D01*
X96417950Y-87753286D01*
X96411922Y-87750602D01*
X96411920Y-87750601D01*
X96249518Y-87678295D01*
X96249517Y-87678295D01*
X96243487Y-87675610D01*
X96150087Y-87655757D01*
X96063144Y-87637276D01*
X96063139Y-87637276D01*
X96056687Y-87635904D01*
X95865713Y-87635904D01*
X95859261Y-87637276D01*
X95859256Y-87637276D01*
X95772313Y-87655757D01*
X95678913Y-87675610D01*
X95672883Y-87678295D01*
X95672882Y-87678295D01*
X95510480Y-87750601D01*
X95510478Y-87750602D01*
X95504450Y-87753286D01*
X95499109Y-87757166D01*
X95499108Y-87757167D01*
X95355293Y-87861654D01*
X95355291Y-87861656D01*
X95349949Y-87865537D01*
X95345528Y-87870447D01*
X95345527Y-87870448D01*
X95284835Y-87937854D01*
X95222163Y-88007458D01*
X95180704Y-88079267D01*
X95134175Y-88159858D01*
X95126676Y-88172846D01*
X95067662Y-88354473D01*
X95047700Y-88544400D01*
X92700345Y-88544400D01*
X92784218Y-88451250D01*
X92784219Y-88451249D01*
X92788637Y-88446342D01*
X92884124Y-88280954D01*
X92921110Y-88167123D01*
X92941098Y-88105606D01*
X92941098Y-88105605D01*
X92943138Y-88099327D01*
X92945389Y-88077915D01*
X92962410Y-87915965D01*
X92963100Y-87909400D01*
X92949769Y-87782567D01*
X92943828Y-87726037D01*
X92943828Y-87726036D01*
X92943138Y-87719473D01*
X92938012Y-87703695D01*
X92886166Y-87544131D01*
X92884124Y-87537846D01*
X92788637Y-87372458D01*
X92660851Y-87230537D01*
X92655509Y-87226656D01*
X92655507Y-87226654D01*
X92511692Y-87122167D01*
X92511691Y-87122166D01*
X92506350Y-87118286D01*
X92500322Y-87115602D01*
X92500320Y-87115601D01*
X92337918Y-87043295D01*
X92337917Y-87043295D01*
X92331887Y-87040610D01*
X92238487Y-87020757D01*
X92151544Y-87002276D01*
X92151539Y-87002276D01*
X92145087Y-87000904D01*
X91954113Y-87000904D01*
X91947661Y-87002276D01*
X91947656Y-87002276D01*
X91860713Y-87020757D01*
X91767313Y-87040610D01*
X91761283Y-87043295D01*
X91761282Y-87043295D01*
X91598880Y-87115601D01*
X91598878Y-87115602D01*
X91592850Y-87118286D01*
X91587509Y-87122166D01*
X91587508Y-87122167D01*
X91443693Y-87226654D01*
X91443691Y-87226656D01*
X91438349Y-87230537D01*
X91310563Y-87372458D01*
X91215076Y-87537846D01*
X91213034Y-87544131D01*
X91161189Y-87703695D01*
X91156062Y-87719473D01*
X91155372Y-87726036D01*
X91155372Y-87726037D01*
X91149431Y-87782567D01*
X91136100Y-87909400D01*
X87507662Y-87909400D01*
X87502550Y-87905686D01*
X87496522Y-87903002D01*
X87496520Y-87903001D01*
X87334118Y-87830695D01*
X87334117Y-87830695D01*
X87328087Y-87828010D01*
X87234687Y-87808157D01*
X87147744Y-87789676D01*
X87147739Y-87789676D01*
X87141287Y-87788304D01*
X86950313Y-87788304D01*
X86943861Y-87789676D01*
X86943856Y-87789676D01*
X86856913Y-87808157D01*
X86763513Y-87828010D01*
X86757483Y-87830695D01*
X86757482Y-87830695D01*
X86595080Y-87903001D01*
X86595078Y-87903002D01*
X86589050Y-87905686D01*
X86583709Y-87909566D01*
X86583708Y-87909567D01*
X86439893Y-88014054D01*
X86439891Y-88014056D01*
X86434549Y-88017937D01*
X86430128Y-88022847D01*
X86430127Y-88022848D01*
X86355612Y-88105606D01*
X86306763Y-88159858D01*
X86211276Y-88325246D01*
X86209234Y-88331531D01*
X86173788Y-88440624D01*
X86152262Y-88506873D01*
X86151572Y-88513436D01*
X86151572Y-88513437D01*
X86140999Y-88614035D01*
X86132300Y-88696800D01*
X80325952Y-88696800D01*
X80338610Y-88576365D01*
X80339300Y-88569800D01*
X80319338Y-88379873D01*
X80260324Y-88198246D01*
X80164837Y-88032858D01*
X80082792Y-87941737D01*
X80041473Y-87895848D01*
X80041472Y-87895847D01*
X80037051Y-87890937D01*
X80031709Y-87887056D01*
X80031707Y-87887054D01*
X79887892Y-87782567D01*
X79887891Y-87782566D01*
X79882550Y-87778686D01*
X79876522Y-87776002D01*
X79876520Y-87776001D01*
X79714118Y-87703695D01*
X79714117Y-87703695D01*
X79708087Y-87701010D01*
X79614687Y-87681157D01*
X79527744Y-87662676D01*
X79527739Y-87662676D01*
X79521287Y-87661304D01*
X79330313Y-87661304D01*
X79323861Y-87662676D01*
X79323856Y-87662676D01*
X79236913Y-87681157D01*
X79143513Y-87701010D01*
X79137483Y-87703695D01*
X79137482Y-87703695D01*
X78975080Y-87776001D01*
X78975078Y-87776002D01*
X78969050Y-87778686D01*
X78963709Y-87782566D01*
X78963708Y-87782567D01*
X78819893Y-87887054D01*
X78819891Y-87887056D01*
X78814549Y-87890937D01*
X78810128Y-87895847D01*
X78810127Y-87895848D01*
X78768809Y-87941737D01*
X78686763Y-88032858D01*
X78591276Y-88198246D01*
X78532262Y-88379873D01*
X78512300Y-88569800D01*
X76199100Y-88569800D01*
X76179138Y-88379873D01*
X76120124Y-88198246D01*
X76024637Y-88032858D01*
X75942592Y-87941737D01*
X75901273Y-87895848D01*
X75901272Y-87895847D01*
X75896851Y-87890937D01*
X75891509Y-87887056D01*
X75891507Y-87887054D01*
X75747692Y-87782567D01*
X75747691Y-87782566D01*
X75742350Y-87778686D01*
X75736322Y-87776002D01*
X75736320Y-87776001D01*
X75573918Y-87703695D01*
X75573917Y-87703695D01*
X75567887Y-87701010D01*
X75474487Y-87681157D01*
X75387544Y-87662676D01*
X75387539Y-87662676D01*
X75381087Y-87661304D01*
X75190113Y-87661304D01*
X75183661Y-87662676D01*
X75183656Y-87662676D01*
X75096713Y-87681157D01*
X75003313Y-87701010D01*
X74997283Y-87703695D01*
X74997282Y-87703695D01*
X74834880Y-87776001D01*
X74834878Y-87776002D01*
X74828850Y-87778686D01*
X74823509Y-87782566D01*
X74823508Y-87782567D01*
X74679693Y-87887054D01*
X74679691Y-87887056D01*
X74674349Y-87890937D01*
X74669928Y-87895847D01*
X74669927Y-87895848D01*
X74628609Y-87941737D01*
X74546563Y-88032858D01*
X74451076Y-88198246D01*
X74392062Y-88379873D01*
X74372100Y-88569800D01*
X72815561Y-88569800D01*
X72800938Y-88430673D01*
X72741924Y-88249046D01*
X72646437Y-88083658D01*
X72605688Y-88038401D01*
X72523073Y-87946648D01*
X72523069Y-87946644D01*
X72518651Y-87941737D01*
X72513309Y-87937856D01*
X72513307Y-87937854D01*
X72369492Y-87833367D01*
X72369491Y-87833366D01*
X72364150Y-87829486D01*
X72358122Y-87826802D01*
X72358120Y-87826801D01*
X72195718Y-87754495D01*
X72195717Y-87754495D01*
X72189687Y-87751810D01*
X72096287Y-87731957D01*
X72009344Y-87713476D01*
X72009339Y-87713476D01*
X72002887Y-87712104D01*
X71811913Y-87712104D01*
X71805461Y-87713476D01*
X71805456Y-87713476D01*
X71718513Y-87731957D01*
X71625113Y-87751810D01*
X71619083Y-87754495D01*
X71619082Y-87754495D01*
X71456680Y-87826801D01*
X71456678Y-87826802D01*
X71450650Y-87829486D01*
X71445309Y-87833366D01*
X71445308Y-87833367D01*
X71301493Y-87937854D01*
X71301491Y-87937856D01*
X71296149Y-87941737D01*
X71209113Y-88038401D01*
X71205847Y-88042028D01*
X71145401Y-88079267D01*
X71074417Y-88077915D01*
X71015433Y-88038401D01*
X71003094Y-88020720D01*
X70995437Y-88007458D01*
X70932766Y-87937854D01*
X70872073Y-87870448D01*
X70872072Y-87870447D01*
X70867651Y-87865537D01*
X70862309Y-87861656D01*
X70862307Y-87861654D01*
X70718492Y-87757167D01*
X70718491Y-87757166D01*
X70713150Y-87753286D01*
X70707122Y-87750602D01*
X70707120Y-87750601D01*
X70544718Y-87678295D01*
X70544717Y-87678295D01*
X70538687Y-87675610D01*
X70445287Y-87655757D01*
X70358344Y-87637276D01*
X70358339Y-87637276D01*
X70351887Y-87635904D01*
X70160913Y-87635904D01*
X70154461Y-87637276D01*
X70154456Y-87637276D01*
X70067513Y-87655757D01*
X69974113Y-87675610D01*
X69968083Y-87678295D01*
X69968082Y-87678295D01*
X69805680Y-87750601D01*
X69805678Y-87750602D01*
X69799650Y-87753286D01*
X69794309Y-87757166D01*
X69794308Y-87757167D01*
X69650493Y-87861654D01*
X69650491Y-87861656D01*
X69645149Y-87865537D01*
X69640728Y-87870447D01*
X69640727Y-87870448D01*
X69580035Y-87937854D01*
X69517363Y-88007458D01*
X69475904Y-88079267D01*
X69429375Y-88159858D01*
X69421876Y-88172846D01*
X69362862Y-88354473D01*
X69342900Y-88544400D01*
X64232999Y-88544400D01*
X64232999Y-84429600D01*
X70079500Y-84429600D01*
X70099462Y-84619527D01*
X70158476Y-84801154D01*
X70253963Y-84966542D01*
X70381749Y-85108463D01*
X70387091Y-85112344D01*
X70387093Y-85112346D01*
X70530908Y-85216833D01*
X70536250Y-85220714D01*
X70542278Y-85223398D01*
X70542280Y-85223399D01*
X70704682Y-85295705D01*
X70710713Y-85298390D01*
X70804113Y-85318243D01*
X70891056Y-85336724D01*
X70891061Y-85336724D01*
X70897513Y-85338096D01*
X71088487Y-85338096D01*
X71094939Y-85336724D01*
X71094944Y-85336724D01*
X71181887Y-85318243D01*
X71275287Y-85298390D01*
X71281318Y-85295705D01*
X71443720Y-85223399D01*
X71443722Y-85223398D01*
X71449750Y-85220714D01*
X71455092Y-85216833D01*
X71598907Y-85112346D01*
X71598909Y-85112344D01*
X71604251Y-85108463D01*
X71732037Y-84966542D01*
X71827524Y-84801154D01*
X71886538Y-84619527D01*
X71906500Y-84429600D01*
X71886538Y-84239673D01*
X71827524Y-84058046D01*
X71732037Y-83892658D01*
X71633078Y-83782752D01*
X71608673Y-83755648D01*
X71608672Y-83755647D01*
X71604251Y-83750737D01*
X71598909Y-83746856D01*
X71598907Y-83746854D01*
X71455092Y-83642367D01*
X71455091Y-83642366D01*
X71449750Y-83638486D01*
X71443722Y-83635802D01*
X71443720Y-83635801D01*
X71281318Y-83563495D01*
X71281317Y-83563495D01*
X71275287Y-83560810D01*
X71181887Y-83540957D01*
X71094944Y-83522476D01*
X71094939Y-83522476D01*
X71088487Y-83521104D01*
X70897513Y-83521104D01*
X70891061Y-83522476D01*
X70891056Y-83522476D01*
X70804113Y-83540957D01*
X70710713Y-83560810D01*
X70704683Y-83563495D01*
X70704682Y-83563495D01*
X70542280Y-83635801D01*
X70542278Y-83635802D01*
X70536250Y-83638486D01*
X70530909Y-83642366D01*
X70530908Y-83642367D01*
X70387093Y-83746854D01*
X70387091Y-83746856D01*
X70381749Y-83750737D01*
X70377328Y-83755647D01*
X70377327Y-83755648D01*
X70352923Y-83782752D01*
X70253963Y-83892658D01*
X70158476Y-84058046D01*
X70099462Y-84239673D01*
X70079500Y-84429600D01*
X64232999Y-84429600D01*
X64232999Y-83108800D01*
X73000500Y-83108800D01*
X73020462Y-83298727D01*
X73079476Y-83480354D01*
X73174963Y-83645742D01*
X73179381Y-83650649D01*
X73179382Y-83650650D01*
X73298327Y-83782752D01*
X73302749Y-83787663D01*
X73308091Y-83791544D01*
X73308093Y-83791546D01*
X73447263Y-83892658D01*
X73457250Y-83899914D01*
X73463278Y-83902598D01*
X73463280Y-83902599D01*
X73625682Y-83974905D01*
X73631713Y-83977590D01*
X73725113Y-83997443D01*
X73812056Y-84015924D01*
X73812061Y-84015924D01*
X73818513Y-84017296D01*
X74009487Y-84017296D01*
X74015939Y-84015924D01*
X74015944Y-84015924D01*
X74102887Y-83997443D01*
X74196287Y-83977590D01*
X74202318Y-83974905D01*
X74364720Y-83902599D01*
X74364722Y-83902598D01*
X74370750Y-83899914D01*
X74380737Y-83892658D01*
X74519907Y-83791546D01*
X74519909Y-83791544D01*
X74525251Y-83787663D01*
X74529673Y-83782752D01*
X74648618Y-83650650D01*
X74648619Y-83650649D01*
X74653037Y-83645742D01*
X74748524Y-83480354D01*
X74807538Y-83298727D01*
X74813462Y-83242362D01*
X74817481Y-83204129D01*
X74844495Y-83138472D01*
X74902716Y-83097843D01*
X74973661Y-83095140D01*
X75016852Y-83115364D01*
X75082850Y-83163314D01*
X75088878Y-83165998D01*
X75088880Y-83165999D01*
X75251282Y-83238305D01*
X75257313Y-83240990D01*
X75350713Y-83260843D01*
X75437656Y-83279324D01*
X75437661Y-83279324D01*
X75444113Y-83280696D01*
X75635087Y-83280696D01*
X75641539Y-83279324D01*
X75641544Y-83279324D01*
X75728487Y-83260843D01*
X75821887Y-83240990D01*
X75827918Y-83238305D01*
X75990320Y-83165999D01*
X75990322Y-83165998D01*
X75996350Y-83163314D01*
X76001692Y-83159433D01*
X76145507Y-83054946D01*
X76145509Y-83054944D01*
X76150851Y-83051063D01*
X76192769Y-83004508D01*
X76274218Y-82914050D01*
X76274219Y-82914049D01*
X76278637Y-82909142D01*
X76374124Y-82743754D01*
X76433138Y-82562127D01*
X76446516Y-82434848D01*
X76452410Y-82378765D01*
X76453100Y-82372200D01*
X88138900Y-82372200D01*
X88139590Y-82378765D01*
X88145485Y-82434848D01*
X88158862Y-82562127D01*
X88217876Y-82743754D01*
X88313363Y-82909142D01*
X88317781Y-82914049D01*
X88317782Y-82914050D01*
X88399231Y-83004508D01*
X88441149Y-83051063D01*
X88446491Y-83054944D01*
X88446493Y-83054946D01*
X88590308Y-83159433D01*
X88595650Y-83163314D01*
X88601678Y-83165998D01*
X88601680Y-83165999D01*
X88764082Y-83238305D01*
X88770113Y-83240990D01*
X88863513Y-83260843D01*
X88950456Y-83279324D01*
X88950461Y-83279324D01*
X88956913Y-83280696D01*
X89147887Y-83280696D01*
X89154339Y-83279324D01*
X89154344Y-83279324D01*
X89241287Y-83260843D01*
X89334687Y-83240990D01*
X89340718Y-83238305D01*
X89503120Y-83165999D01*
X89503122Y-83165998D01*
X89509150Y-83163314D01*
X89514492Y-83159433D01*
X89658307Y-83054946D01*
X89658309Y-83054944D01*
X89663651Y-83051063D01*
X89668073Y-83046152D01*
X89673260Y-83040392D01*
X89733707Y-83003154D01*
X89804691Y-83004508D01*
X89818143Y-83009598D01*
X89932482Y-83060505D01*
X89938513Y-83063190D01*
X90031913Y-83083043D01*
X90118856Y-83101524D01*
X90118861Y-83101524D01*
X90125313Y-83102896D01*
X90316287Y-83102896D01*
X90322739Y-83101524D01*
X90322744Y-83101524D01*
X90409687Y-83083043D01*
X90503087Y-83063190D01*
X90509118Y-83060505D01*
X90671520Y-82988199D01*
X90671522Y-82988198D01*
X90677550Y-82985514D01*
X90682892Y-82981633D01*
X90826707Y-82877146D01*
X90826709Y-82877144D01*
X90832051Y-82873263D01*
X90959837Y-82731342D01*
X91055324Y-82565954D01*
X91097923Y-82434848D01*
X91112298Y-82390606D01*
X91112298Y-82390605D01*
X91114338Y-82384327D01*
X91116303Y-82365636D01*
X91133610Y-82200965D01*
X91134300Y-82194400D01*
X91114338Y-82004473D01*
X91110859Y-81993764D01*
X91057366Y-81829131D01*
X91055324Y-81822846D01*
X90959837Y-81657458D01*
X90927216Y-81621228D01*
X90836473Y-81520448D01*
X90836472Y-81520447D01*
X90832051Y-81515537D01*
X90826709Y-81511656D01*
X90826707Y-81511654D01*
X90682892Y-81407167D01*
X90682891Y-81407166D01*
X90677550Y-81403286D01*
X90671522Y-81400602D01*
X90671520Y-81400601D01*
X90509118Y-81328295D01*
X90509117Y-81328295D01*
X90503087Y-81325610D01*
X90409687Y-81305757D01*
X90322744Y-81287276D01*
X90322739Y-81287276D01*
X90316287Y-81285904D01*
X90125313Y-81285904D01*
X90118861Y-81287276D01*
X90118856Y-81287276D01*
X90031913Y-81305757D01*
X89938513Y-81325610D01*
X89932483Y-81328295D01*
X89932482Y-81328295D01*
X89770080Y-81400601D01*
X89770078Y-81400602D01*
X89764050Y-81403286D01*
X89758709Y-81407166D01*
X89758708Y-81407167D01*
X89614893Y-81511654D01*
X89614891Y-81511656D01*
X89609549Y-81515537D01*
X89605128Y-81520447D01*
X89605127Y-81520448D01*
X89599940Y-81526208D01*
X89539493Y-81563446D01*
X89468509Y-81562092D01*
X89455057Y-81557002D01*
X89340718Y-81506095D01*
X89340717Y-81506095D01*
X89334687Y-81503410D01*
X89211832Y-81477296D01*
X89154344Y-81465076D01*
X89154339Y-81465076D01*
X89147887Y-81463704D01*
X88956913Y-81463704D01*
X88950461Y-81465076D01*
X88950456Y-81465076D01*
X88892968Y-81477296D01*
X88770113Y-81503410D01*
X88764083Y-81506095D01*
X88764082Y-81506095D01*
X88601680Y-81578401D01*
X88601678Y-81578402D01*
X88595650Y-81581086D01*
X88590309Y-81584966D01*
X88590308Y-81584967D01*
X88446493Y-81689454D01*
X88446491Y-81689456D01*
X88441149Y-81693337D01*
X88313363Y-81835258D01*
X88217876Y-82000646D01*
X88158862Y-82182273D01*
X88138900Y-82372200D01*
X76453100Y-82372200D01*
X76433138Y-82182273D01*
X76374124Y-82000646D01*
X76278637Y-81835258D01*
X76166459Y-81710671D01*
X76135741Y-81646664D01*
X76144506Y-81576210D01*
X76189969Y-81521679D01*
X76257696Y-81500384D01*
X76273264Y-81501051D01*
X76275855Y-81501323D01*
X76282313Y-81502696D01*
X76473287Y-81502696D01*
X76479739Y-81501324D01*
X76479744Y-81501324D01*
X76592783Y-81477296D01*
X76660087Y-81462990D01*
X76714055Y-81438962D01*
X76828520Y-81387999D01*
X76828522Y-81387998D01*
X76834550Y-81385314D01*
X76865815Y-81362599D01*
X76983707Y-81276946D01*
X76983709Y-81276944D01*
X76989051Y-81273063D01*
X77015159Y-81244067D01*
X77112418Y-81136050D01*
X77112419Y-81136049D01*
X77116837Y-81131142D01*
X77212324Y-80965754D01*
X77271338Y-80784127D01*
X77291300Y-80594200D01*
X77287940Y-80562235D01*
X77272028Y-80410837D01*
X77272028Y-80410836D01*
X77271338Y-80404273D01*
X77266265Y-80388658D01*
X77245184Y-80323777D01*
X79962968Y-80323777D01*
X79963143Y-80328229D01*
X79965391Y-80385435D01*
X79965391Y-80385436D01*
X79973127Y-80582328D01*
X79973854Y-80600844D01*
X80023670Y-80873614D01*
X80025079Y-80877837D01*
X80095593Y-81089194D01*
X80111423Y-81136644D01*
X80170658Y-81255192D01*
X80224327Y-81362599D01*
X80235362Y-81384684D01*
X80393014Y-81612787D01*
X80396036Y-81616056D01*
X80578217Y-81813139D01*
X80578222Y-81813144D01*
X80581233Y-81816401D01*
X80796264Y-81991464D01*
X80800082Y-81993763D01*
X80800084Y-81993764D01*
X80964068Y-82092490D01*
X81033816Y-82134482D01*
X81131850Y-82175994D01*
X81285046Y-82240865D01*
X81285051Y-82240867D01*
X81289149Y-82242602D01*
X81293446Y-82243741D01*
X81293451Y-82243743D01*
X81418396Y-82276871D01*
X81557169Y-82313666D01*
X81832529Y-82346257D01*
X82109734Y-82339724D01*
X82114132Y-82338992D01*
X82378862Y-82294929D01*
X82378866Y-82294928D01*
X82383252Y-82294198D01*
X82387493Y-82292857D01*
X82387496Y-82292856D01*
X82643381Y-82211930D01*
X82643383Y-82211929D01*
X82647627Y-82210587D01*
X82651638Y-82208661D01*
X82651643Y-82208659D01*
X82893565Y-82092490D01*
X82893566Y-82092489D01*
X82897584Y-82090560D01*
X83032150Y-82000646D01*
X83124428Y-81938988D01*
X83124432Y-81938985D01*
X83128136Y-81936510D01*
X83131453Y-81933539D01*
X83131457Y-81933536D01*
X83331363Y-81754485D01*
X83331364Y-81754484D01*
X83334681Y-81751513D01*
X83513099Y-81539258D01*
X83659831Y-81303982D01*
X83771948Y-81050379D01*
X83847213Y-80783507D01*
X83851423Y-80752163D01*
X83883698Y-80511876D01*
X83883699Y-80511868D01*
X83884125Y-80508694D01*
X83887407Y-80404273D01*
X83887898Y-80388658D01*
X83887898Y-80388653D01*
X83887999Y-80385436D01*
X83868415Y-80108847D01*
X83858540Y-80062976D01*
X83810992Y-79842123D01*
X83810991Y-79842121D01*
X83810056Y-79837776D01*
X83714084Y-79577633D01*
X83698022Y-79547864D01*
X83584528Y-79337524D01*
X83582415Y-79333608D01*
X83444141Y-79146400D01*
X90043900Y-79146400D01*
X90044590Y-79152965D01*
X90057792Y-79278570D01*
X90063862Y-79336327D01*
X90122876Y-79517954D01*
X90126179Y-79523676D01*
X90126180Y-79523677D01*
X90150217Y-79565310D01*
X90218363Y-79683342D01*
X90222781Y-79688249D01*
X90222782Y-79688250D01*
X90304346Y-79778836D01*
X90346149Y-79825263D01*
X90351491Y-79829144D01*
X90351493Y-79829146D01*
X90441918Y-79894843D01*
X90500650Y-79937514D01*
X90506678Y-79940198D01*
X90506680Y-79940199D01*
X90669082Y-80012505D01*
X90675113Y-80015190D01*
X90753529Y-80031858D01*
X90855456Y-80053524D01*
X90855461Y-80053524D01*
X90861913Y-80054896D01*
X91052887Y-80054896D01*
X91059339Y-80053524D01*
X91059344Y-80053524D01*
X91161271Y-80031858D01*
X91239687Y-80015190D01*
X91245718Y-80012505D01*
X91408120Y-79940199D01*
X91408122Y-79940198D01*
X91414150Y-79937514D01*
X91472882Y-79894843D01*
X91563307Y-79829146D01*
X91563309Y-79829144D01*
X91568651Y-79825263D01*
X91610454Y-79778836D01*
X91692018Y-79688250D01*
X91692019Y-79688249D01*
X91696437Y-79683342D01*
X91764583Y-79565310D01*
X91788620Y-79523677D01*
X91788621Y-79523676D01*
X91791924Y-79517954D01*
X91850938Y-79336327D01*
X91857009Y-79278570D01*
X91870210Y-79152965D01*
X91870900Y-79146400D01*
X91850938Y-78956473D01*
X91836803Y-78912968D01*
X91793966Y-78781131D01*
X91791924Y-78774846D01*
X91696437Y-78609458D01*
X91607621Y-78510817D01*
X91573073Y-78472448D01*
X91573072Y-78472447D01*
X91568651Y-78467537D01*
X91563309Y-78463656D01*
X91563307Y-78463654D01*
X91419492Y-78359167D01*
X91419491Y-78359166D01*
X91414150Y-78355286D01*
X91408122Y-78352602D01*
X91408120Y-78352601D01*
X91245718Y-78280295D01*
X91245717Y-78280295D01*
X91239687Y-78277610D01*
X91146287Y-78257757D01*
X91059344Y-78239276D01*
X91059339Y-78239276D01*
X91052887Y-78237904D01*
X90861913Y-78237904D01*
X90855461Y-78239276D01*
X90855456Y-78239276D01*
X90768513Y-78257757D01*
X90675113Y-78277610D01*
X90669083Y-78280295D01*
X90669082Y-78280295D01*
X90506680Y-78352601D01*
X90506678Y-78352602D01*
X90500650Y-78355286D01*
X90495309Y-78359166D01*
X90495308Y-78359167D01*
X90351493Y-78463654D01*
X90351491Y-78463656D01*
X90346149Y-78467537D01*
X90341728Y-78472447D01*
X90341727Y-78472448D01*
X90307180Y-78510817D01*
X90218363Y-78609458D01*
X90122876Y-78774846D01*
X90120834Y-78781131D01*
X90077998Y-78912968D01*
X90063862Y-78956473D01*
X90043900Y-79146400D01*
X83444141Y-79146400D01*
X83417676Y-79110569D01*
X83375582Y-79067808D01*
X83226285Y-78916149D01*
X83223154Y-78912968D01*
X83219614Y-78910267D01*
X83219608Y-78910261D01*
X83072240Y-78797794D01*
X83002731Y-78744746D01*
X82998842Y-78742568D01*
X82764690Y-78611436D01*
X82764687Y-78611435D01*
X82760804Y-78609260D01*
X82756665Y-78607659D01*
X82756657Y-78607655D01*
X82565014Y-78533515D01*
X82502200Y-78509214D01*
X82497879Y-78508212D01*
X82497871Y-78508210D01*
X82301851Y-78462776D01*
X82232080Y-78446604D01*
X81955832Y-78422678D01*
X81951397Y-78422922D01*
X81951393Y-78422922D01*
X81683413Y-78437670D01*
X81683406Y-78437671D01*
X81678970Y-78437915D01*
X81407016Y-78492010D01*
X81402806Y-78493488D01*
X81402804Y-78493489D01*
X81249557Y-78547306D01*
X81145398Y-78583884D01*
X80899334Y-78711703D01*
X80895707Y-78714295D01*
X80895702Y-78714298D01*
X80856143Y-78742568D01*
X80673736Y-78872919D01*
X80586148Y-78956473D01*
X80539928Y-79000565D01*
X80473103Y-79064312D01*
X80301440Y-79282066D01*
X80266276Y-79342606D01*
X80164405Y-79517988D01*
X80164402Y-79517994D01*
X80162171Y-79521835D01*
X80160501Y-79525958D01*
X80095242Y-79687076D01*
X80058075Y-79778836D01*
X80057004Y-79783149D01*
X80057002Y-79783154D01*
X79993802Y-80037580D01*
X79991229Y-80047939D01*
X79990775Y-80052367D01*
X79990775Y-80052369D01*
X79976823Y-80188544D01*
X79962968Y-80323777D01*
X77245184Y-80323777D01*
X77214366Y-80228931D01*
X77212324Y-80222646D01*
X77116837Y-80057258D01*
X77084993Y-80021891D01*
X76993473Y-79920248D01*
X76993472Y-79920247D01*
X76989051Y-79915337D01*
X76983709Y-79911456D01*
X76983707Y-79911454D01*
X76839892Y-79806967D01*
X76839891Y-79806966D01*
X76834550Y-79803086D01*
X76828522Y-79800402D01*
X76828520Y-79800401D01*
X76666118Y-79728095D01*
X76666117Y-79728095D01*
X76660087Y-79725410D01*
X76540591Y-79700010D01*
X76479744Y-79687076D01*
X76479739Y-79687076D01*
X76473287Y-79685704D01*
X76282313Y-79685704D01*
X76275861Y-79687076D01*
X76275856Y-79687076D01*
X76215009Y-79700010D01*
X76095513Y-79725410D01*
X76089483Y-79728095D01*
X76089482Y-79728095D01*
X75927080Y-79800401D01*
X75927078Y-79800402D01*
X75921050Y-79803086D01*
X75915709Y-79806966D01*
X75915708Y-79806967D01*
X75771893Y-79911454D01*
X75771891Y-79911456D01*
X75766549Y-79915337D01*
X75720869Y-79966070D01*
X75660426Y-80003308D01*
X75589442Y-80001957D01*
X75533602Y-79966070D01*
X75465051Y-79889937D01*
X75459709Y-79886056D01*
X75459707Y-79886054D01*
X75315892Y-79781567D01*
X75315891Y-79781566D01*
X75310550Y-79777686D01*
X75304522Y-79775002D01*
X75304520Y-79775001D01*
X75203626Y-79730080D01*
X75149530Y-79684099D01*
X75128881Y-79616172D01*
X75148234Y-79547864D01*
X75152941Y-79540909D01*
X75156613Y-79535855D01*
X75161037Y-79530942D01*
X75165232Y-79523677D01*
X75253220Y-79371277D01*
X75253221Y-79371276D01*
X75256524Y-79365554D01*
X75315538Y-79183927D01*
X75335500Y-78994000D01*
X75315538Y-78804073D01*
X75297140Y-78747448D01*
X75258566Y-78628731D01*
X75256524Y-78622446D01*
X75250168Y-78611436D01*
X75182070Y-78493489D01*
X75161037Y-78457058D01*
X75151279Y-78446220D01*
X75037673Y-78320048D01*
X75037672Y-78320047D01*
X75033251Y-78315137D01*
X75027909Y-78311256D01*
X75027907Y-78311254D01*
X74884092Y-78206767D01*
X74884091Y-78206766D01*
X74878750Y-78202886D01*
X74872722Y-78200202D01*
X74872720Y-78200201D01*
X74710318Y-78127895D01*
X74710317Y-78127895D01*
X74704287Y-78125210D01*
X74594840Y-78101946D01*
X74523944Y-78086876D01*
X74523939Y-78086876D01*
X74517487Y-78085504D01*
X74326513Y-78085504D01*
X74320061Y-78086876D01*
X74320056Y-78086876D01*
X74249160Y-78101946D01*
X74139713Y-78125210D01*
X74133683Y-78127895D01*
X74133682Y-78127895D01*
X73971280Y-78200201D01*
X73971278Y-78200202D01*
X73965250Y-78202886D01*
X73959909Y-78206766D01*
X73959908Y-78206767D01*
X73816093Y-78311254D01*
X73816091Y-78311256D01*
X73810749Y-78315137D01*
X73806328Y-78320047D01*
X73806327Y-78320048D01*
X73692722Y-78446220D01*
X73682963Y-78457058D01*
X73661930Y-78493489D01*
X73593833Y-78611436D01*
X73587476Y-78622446D01*
X73585434Y-78628731D01*
X73546861Y-78747448D01*
X73528462Y-78804073D01*
X73508500Y-78994000D01*
X73528462Y-79183927D01*
X73587476Y-79365554D01*
X73682963Y-79530942D01*
X73687381Y-79535849D01*
X73687382Y-79535850D01*
X73713908Y-79565310D01*
X73810749Y-79672863D01*
X73816091Y-79676744D01*
X73816093Y-79676746D01*
X73955026Y-79777686D01*
X73965250Y-79785114D01*
X73971278Y-79787798D01*
X73971280Y-79787799D01*
X74072174Y-79832720D01*
X74126270Y-79878701D01*
X74146919Y-79946628D01*
X74127566Y-80014936D01*
X74122859Y-80021891D01*
X74119187Y-80026945D01*
X74114763Y-80031858D01*
X74111461Y-80037577D01*
X74111459Y-80037580D01*
X74072829Y-80104489D01*
X74019276Y-80197246D01*
X73960262Y-80378873D01*
X73959572Y-80385434D01*
X73959572Y-80385436D01*
X73958252Y-80397994D01*
X73940300Y-80568800D01*
X73960262Y-80758727D01*
X74019276Y-80940354D01*
X74114763Y-81105742D01*
X74242549Y-81247663D01*
X74247891Y-81251544D01*
X74247893Y-81251546D01*
X74325270Y-81307763D01*
X74397050Y-81359914D01*
X74403078Y-81362598D01*
X74403080Y-81362599D01*
X74565482Y-81434905D01*
X74571513Y-81437590D01*
X74664913Y-81457443D01*
X74751856Y-81475924D01*
X74751861Y-81475924D01*
X74758313Y-81477296D01*
X74841078Y-81477296D01*
X74909199Y-81497298D01*
X74955692Y-81550954D01*
X74965796Y-81621228D01*
X74936302Y-81685808D01*
X74930322Y-81691903D01*
X74928349Y-81693337D01*
X74800563Y-81835258D01*
X74705076Y-82000646D01*
X74646062Y-82182273D01*
X74645372Y-82188836D01*
X74645372Y-82188837D01*
X74636119Y-82276871D01*
X74609105Y-82342528D01*
X74550884Y-82383157D01*
X74479939Y-82385860D01*
X74436748Y-82365636D01*
X74376092Y-82321567D01*
X74376091Y-82321566D01*
X74370750Y-82317686D01*
X74364722Y-82315002D01*
X74364720Y-82315001D01*
X74202318Y-82242695D01*
X74202317Y-82242695D01*
X74196287Y-82240010D01*
X74102887Y-82220157D01*
X74015944Y-82201676D01*
X74015939Y-82201676D01*
X74009487Y-82200304D01*
X73818513Y-82200304D01*
X73812061Y-82201676D01*
X73812056Y-82201676D01*
X73725113Y-82220157D01*
X73631713Y-82240010D01*
X73625683Y-82242695D01*
X73625682Y-82242695D01*
X73463280Y-82315001D01*
X73463278Y-82315002D01*
X73457250Y-82317686D01*
X73451909Y-82321566D01*
X73451908Y-82321567D01*
X73308093Y-82426054D01*
X73308091Y-82426056D01*
X73302749Y-82429937D01*
X73174963Y-82571858D01*
X73079476Y-82737246D01*
X73075502Y-82749477D01*
X73035282Y-82873263D01*
X73020462Y-82918873D01*
X73019772Y-82925436D01*
X73019772Y-82925437D01*
X73006568Y-83051063D01*
X73000500Y-83108800D01*
X64232999Y-83108800D01*
X64232999Y-76530200D01*
X68987300Y-76530200D01*
X68987990Y-76536765D01*
X69003927Y-76688392D01*
X69007262Y-76720127D01*
X69009302Y-76726405D01*
X69009302Y-76726406D01*
X69035090Y-76805774D01*
X69066276Y-76901754D01*
X69161763Y-77067142D01*
X69166181Y-77072049D01*
X69166182Y-77072050D01*
X69250055Y-77165200D01*
X69289549Y-77209063D01*
X69294891Y-77212944D01*
X69294893Y-77212946D01*
X69399774Y-77289146D01*
X69444050Y-77321314D01*
X69450078Y-77323998D01*
X69450080Y-77323999D01*
X69505252Y-77348563D01*
X69618513Y-77398990D01*
X69711913Y-77418843D01*
X69798856Y-77437324D01*
X69798861Y-77437324D01*
X69805313Y-77438696D01*
X69996287Y-77438696D01*
X70002739Y-77437324D01*
X70002744Y-77437324D01*
X70089687Y-77418843D01*
X70183087Y-77398990D01*
X70296348Y-77348563D01*
X70351520Y-77323999D01*
X70351522Y-77323998D01*
X70357550Y-77321314D01*
X70401826Y-77289146D01*
X70506707Y-77212946D01*
X70506709Y-77212944D01*
X70512051Y-77209063D01*
X70516469Y-77204156D01*
X70518515Y-77202314D01*
X70582523Y-77171598D01*
X70652977Y-77180364D01*
X70696459Y-77211640D01*
X70762749Y-77285263D01*
X70768091Y-77289144D01*
X70768093Y-77289146D01*
X70849874Y-77348563D01*
X70917250Y-77397514D01*
X70923278Y-77400198D01*
X70923280Y-77400199D01*
X71037752Y-77451165D01*
X71091713Y-77475190D01*
X71185113Y-77495043D01*
X71272056Y-77513524D01*
X71272061Y-77513524D01*
X71278513Y-77514896D01*
X71469487Y-77514896D01*
X71475939Y-77513524D01*
X71475944Y-77513524D01*
X71562887Y-77495043D01*
X71656287Y-77475190D01*
X71710248Y-77451165D01*
X71782043Y-77419200D01*
X75057900Y-77419200D01*
X75077862Y-77609127D01*
X75136876Y-77790754D01*
X75232363Y-77956142D01*
X75236781Y-77961049D01*
X75236782Y-77961050D01*
X75338209Y-78073696D01*
X75360149Y-78098063D01*
X75365491Y-78101944D01*
X75365493Y-78101946D01*
X75504426Y-78202886D01*
X75514650Y-78210314D01*
X75520678Y-78212998D01*
X75520680Y-78212999D01*
X75683082Y-78285305D01*
X75689113Y-78287990D01*
X75782513Y-78307843D01*
X75869456Y-78326324D01*
X75869461Y-78326324D01*
X75875913Y-78327696D01*
X76066887Y-78327696D01*
X76073339Y-78326324D01*
X76073344Y-78326324D01*
X76160287Y-78307843D01*
X76253687Y-78287990D01*
X76259718Y-78285305D01*
X76422120Y-78212999D01*
X76422122Y-78212998D01*
X76428150Y-78210314D01*
X76438374Y-78202886D01*
X76577307Y-78101946D01*
X76577309Y-78101944D01*
X76582651Y-78098063D01*
X76604591Y-78073696D01*
X76706018Y-77961050D01*
X76706019Y-77961049D01*
X76710437Y-77956142D01*
X76805924Y-77790754D01*
X76864938Y-77609127D01*
X76884900Y-77419200D01*
X76864938Y-77229273D01*
X76858372Y-77209063D01*
X76810400Y-77061421D01*
X76805924Y-77047646D01*
X76777352Y-76998157D01*
X76728403Y-76913376D01*
X76710437Y-76882258D01*
X76673648Y-76841399D01*
X76587073Y-76745248D01*
X76587072Y-76745247D01*
X76582651Y-76740337D01*
X76577309Y-76736456D01*
X76577307Y-76736454D01*
X76433492Y-76631967D01*
X76433491Y-76631966D01*
X76428150Y-76628086D01*
X76422122Y-76625402D01*
X76422120Y-76625401D01*
X76259718Y-76553095D01*
X76259717Y-76553095D01*
X76253687Y-76550410D01*
X76160287Y-76530557D01*
X76073344Y-76512076D01*
X76073339Y-76512076D01*
X76066887Y-76510704D01*
X75875913Y-76510704D01*
X75869461Y-76512076D01*
X75869456Y-76512076D01*
X75782513Y-76530557D01*
X75689113Y-76550410D01*
X75683083Y-76553095D01*
X75683082Y-76553095D01*
X75520680Y-76625401D01*
X75520678Y-76625402D01*
X75514650Y-76628086D01*
X75509309Y-76631966D01*
X75509308Y-76631967D01*
X75365493Y-76736454D01*
X75365491Y-76736456D01*
X75360149Y-76740337D01*
X75355728Y-76745247D01*
X75355727Y-76745248D01*
X75269153Y-76841399D01*
X75232363Y-76882258D01*
X75214397Y-76913376D01*
X75165449Y-76998157D01*
X75136876Y-77047646D01*
X75132400Y-77061421D01*
X75084429Y-77209063D01*
X75077862Y-77229273D01*
X75057900Y-77419200D01*
X71782043Y-77419200D01*
X71824720Y-77400199D01*
X71824722Y-77400198D01*
X71830750Y-77397514D01*
X71898126Y-77348563D01*
X71979907Y-77289146D01*
X71979909Y-77289144D01*
X71985251Y-77285263D01*
X72041318Y-77222994D01*
X72108618Y-77148250D01*
X72108619Y-77148249D01*
X72113037Y-77143342D01*
X72191814Y-77006896D01*
X72205220Y-76983677D01*
X72205221Y-76983676D01*
X72208524Y-76977954D01*
X72261539Y-76814790D01*
X72265498Y-76802606D01*
X72265498Y-76802605D01*
X72267538Y-76796327D01*
X72273762Y-76737114D01*
X72286810Y-76612965D01*
X72287500Y-76606400D01*
X72286255Y-76594552D01*
X72268228Y-76423037D01*
X72268228Y-76423036D01*
X72267538Y-76416473D01*
X72208524Y-76234846D01*
X72113037Y-76069458D01*
X72049579Y-75998980D01*
X71989673Y-75932448D01*
X71989672Y-75932447D01*
X71985251Y-75927537D01*
X71979909Y-75923656D01*
X71979907Y-75923654D01*
X71943603Y-75897278D01*
X78172658Y-75897278D01*
X78173348Y-75903843D01*
X78191800Y-76079399D01*
X78192620Y-76087205D01*
X78194660Y-76093483D01*
X78194660Y-76093484D01*
X78217874Y-76164928D01*
X78251634Y-76268832D01*
X78347121Y-76434220D01*
X78351539Y-76439127D01*
X78351540Y-76439128D01*
X78439453Y-76536765D01*
X78474907Y-76576141D01*
X78480249Y-76580022D01*
X78480251Y-76580024D01*
X78621206Y-76682433D01*
X78629408Y-76688392D01*
X78635436Y-76691076D01*
X78635438Y-76691077D01*
X78793173Y-76761305D01*
X78803871Y-76766068D01*
X78874807Y-76781146D01*
X78984214Y-76804402D01*
X78984219Y-76804402D01*
X78990671Y-76805774D01*
X79181645Y-76805774D01*
X79188097Y-76804402D01*
X79188102Y-76804402D01*
X79297509Y-76781146D01*
X79368445Y-76766068D01*
X79379143Y-76761305D01*
X79536878Y-76691077D01*
X79536880Y-76691076D01*
X79542908Y-76688392D01*
X79551110Y-76682433D01*
X79692065Y-76580024D01*
X79692067Y-76580022D01*
X79697409Y-76576141D01*
X79732863Y-76536765D01*
X79820776Y-76439128D01*
X79820777Y-76439127D01*
X79825195Y-76434220D01*
X79920682Y-76268832D01*
X79945411Y-76192724D01*
X79949738Y-76179407D01*
X79989811Y-76120801D01*
X80055208Y-76093164D01*
X80120819Y-76103236D01*
X80235713Y-76154390D01*
X80329113Y-76174243D01*
X80416056Y-76192724D01*
X80416061Y-76192724D01*
X80422513Y-76194096D01*
X80613487Y-76194096D01*
X80619939Y-76192724D01*
X80619944Y-76192724D01*
X80706887Y-76174243D01*
X80800287Y-76154390D01*
X80856499Y-76129363D01*
X80968720Y-76079399D01*
X80968722Y-76079398D01*
X80974750Y-76076714D01*
X80984737Y-76069458D01*
X81123907Y-75968346D01*
X81123909Y-75968344D01*
X81129251Y-75964463D01*
X81151786Y-75939435D01*
X81252618Y-75827450D01*
X81252619Y-75827449D01*
X81257037Y-75822542D01*
X81352524Y-75657154D01*
X81411538Y-75475527D01*
X81412228Y-75468962D01*
X81412865Y-75465966D01*
X81446595Y-75403493D01*
X81509913Y-75368920D01*
X81638487Y-75341590D01*
X81644514Y-75338907D01*
X81644522Y-75338904D01*
X81672879Y-75326278D01*
X81743246Y-75316843D01*
X81807544Y-75346949D01*
X81845357Y-75407037D01*
X81844682Y-75478031D01*
X81817765Y-75525694D01*
X81785563Y-75561458D01*
X81774436Y-75580731D01*
X81705994Y-75699276D01*
X81690076Y-75726846D01*
X81686700Y-75737237D01*
X81633242Y-75901765D01*
X81631062Y-75908473D01*
X81611100Y-76098400D01*
X81611790Y-76104965D01*
X81630304Y-76281111D01*
X81631062Y-76288327D01*
X81633102Y-76294605D01*
X81633102Y-76294606D01*
X81633688Y-76296410D01*
X81690076Y-76469954D01*
X81693379Y-76475676D01*
X81693380Y-76475677D01*
X81699535Y-76486337D01*
X81785563Y-76635342D01*
X81789981Y-76640249D01*
X81789982Y-76640250D01*
X81898980Y-76761305D01*
X81913349Y-76777263D01*
X81918691Y-76781144D01*
X81918693Y-76781146D01*
X82057863Y-76882258D01*
X82067850Y-76889514D01*
X82073878Y-76892198D01*
X82073880Y-76892199D01*
X82236282Y-76964505D01*
X82242313Y-76967190D01*
X82335713Y-76987043D01*
X82422656Y-77005524D01*
X82422661Y-77005524D01*
X82429113Y-77006896D01*
X82620087Y-77006896D01*
X82635791Y-77003558D01*
X82661201Y-76998157D01*
X82731991Y-77003558D01*
X82788624Y-77046375D01*
X82796514Y-77058398D01*
X82798259Y-77061421D01*
X82798264Y-77061427D01*
X82801563Y-77067142D01*
X82805981Y-77072049D01*
X82805982Y-77072050D01*
X82889855Y-77165200D01*
X82929349Y-77209063D01*
X82934691Y-77212944D01*
X82934693Y-77212946D01*
X83039574Y-77289146D01*
X83083850Y-77321314D01*
X83089878Y-77323998D01*
X83089880Y-77323999D01*
X83145052Y-77348563D01*
X83258313Y-77398990D01*
X83353393Y-77419200D01*
X83391683Y-77427339D01*
X83454157Y-77461068D01*
X83485319Y-77511649D01*
X83493476Y-77536754D01*
X83588963Y-77702142D01*
X83716749Y-77844063D01*
X83722091Y-77847944D01*
X83722093Y-77847946D01*
X83863143Y-77950424D01*
X83871250Y-77956314D01*
X83877278Y-77958998D01*
X83877280Y-77958999D01*
X84039682Y-78031305D01*
X84045713Y-78033990D01*
X84139113Y-78053843D01*
X84226056Y-78072324D01*
X84226061Y-78072324D01*
X84232513Y-78073696D01*
X84423487Y-78073696D01*
X84429939Y-78072324D01*
X84429944Y-78072324D01*
X84516887Y-78053843D01*
X84610287Y-78033990D01*
X84616318Y-78031305D01*
X84778720Y-77958999D01*
X84778722Y-77958998D01*
X84784750Y-77956314D01*
X84792857Y-77950424D01*
X84933907Y-77847946D01*
X84933909Y-77847944D01*
X84939251Y-77844063D01*
X85067037Y-77702142D01*
X85162524Y-77536754D01*
X85198586Y-77425765D01*
X85219498Y-77361406D01*
X85219498Y-77361405D01*
X85221538Y-77355127D01*
X85241500Y-77165200D01*
X85240810Y-77158635D01*
X85222228Y-76981837D01*
X85222228Y-76981836D01*
X85221538Y-76975273D01*
X85219358Y-76968562D01*
X85182295Y-76854496D01*
X85162524Y-76793646D01*
X85067037Y-76628258D01*
X84996943Y-76550410D01*
X84943673Y-76491248D01*
X84943672Y-76491247D01*
X84939251Y-76486337D01*
X84933909Y-76482456D01*
X84933907Y-76482454D01*
X84790092Y-76377967D01*
X84790091Y-76377966D01*
X84784750Y-76374086D01*
X84778722Y-76371402D01*
X84778720Y-76371401D01*
X84616318Y-76299095D01*
X84616317Y-76299095D01*
X84610287Y-76296410D01*
X84476917Y-76268061D01*
X84414443Y-76234332D01*
X84383281Y-76183751D01*
X84377165Y-76164928D01*
X84375124Y-76158646D01*
X84279637Y-75993258D01*
X84276427Y-75989693D01*
X84252795Y-75923455D01*
X84253164Y-75920600D01*
X85929100Y-75920600D01*
X85929790Y-75927165D01*
X85944746Y-76069458D01*
X85949062Y-76110527D01*
X85951102Y-76116805D01*
X85951102Y-76116806D01*
X85962837Y-76152923D01*
X86008076Y-76292154D01*
X86103563Y-76457542D01*
X86107981Y-76462449D01*
X86107982Y-76462450D01*
X86213846Y-76580024D01*
X86231349Y-76599463D01*
X86236691Y-76603344D01*
X86236693Y-76603346D01*
X86353750Y-76688392D01*
X86385850Y-76711714D01*
X86391878Y-76714398D01*
X86391880Y-76714399D01*
X86554282Y-76786705D01*
X86560313Y-76789390D01*
X86637393Y-76805774D01*
X86740656Y-76827724D01*
X86740661Y-76827724D01*
X86747113Y-76829096D01*
X86938087Y-76829096D01*
X86944539Y-76827724D01*
X86944544Y-76827724D01*
X87047807Y-76805774D01*
X87124887Y-76789390D01*
X87130918Y-76786705D01*
X87293320Y-76714399D01*
X87293322Y-76714398D01*
X87299350Y-76711714D01*
X87331450Y-76688392D01*
X87448507Y-76603346D01*
X87448509Y-76603344D01*
X87453851Y-76599463D01*
X87471354Y-76580024D01*
X87577218Y-76462450D01*
X87577219Y-76462449D01*
X87581637Y-76457542D01*
X87655214Y-76330103D01*
X87706595Y-76281111D01*
X87776309Y-76267675D01*
X87842220Y-76294061D01*
X87873451Y-76330104D01*
X87932363Y-76432142D01*
X87936781Y-76437049D01*
X87936782Y-76437050D01*
X88026566Y-76536765D01*
X88060149Y-76574063D01*
X88065491Y-76577944D01*
X88065493Y-76577946D01*
X88209308Y-76682433D01*
X88214650Y-76686314D01*
X88220678Y-76688998D01*
X88220680Y-76688999D01*
X88383082Y-76761305D01*
X88389113Y-76763990D01*
X88469825Y-76781146D01*
X88569456Y-76802324D01*
X88569461Y-76802324D01*
X88575913Y-76803696D01*
X88766887Y-76803696D01*
X88773339Y-76802324D01*
X88773344Y-76802324D01*
X88872975Y-76781146D01*
X88953687Y-76763990D01*
X88959718Y-76761305D01*
X89122120Y-76688999D01*
X89122122Y-76688998D01*
X89128150Y-76686314D01*
X89133492Y-76682433D01*
X89277307Y-76577946D01*
X89277309Y-76577944D01*
X89282651Y-76574063D01*
X89316234Y-76536765D01*
X89406018Y-76437050D01*
X89406019Y-76437049D01*
X89410437Y-76432142D01*
X89505924Y-76266754D01*
X89559054Y-76103236D01*
X89562898Y-76091406D01*
X89562898Y-76091405D01*
X89564938Y-76085127D01*
X89568882Y-76047600D01*
X91034500Y-76047600D01*
X91035190Y-76054165D01*
X91036282Y-76064550D01*
X91054462Y-76237527D01*
X91056502Y-76243805D01*
X91056502Y-76243806D01*
X91065818Y-76272477D01*
X91113476Y-76419154D01*
X91116779Y-76424876D01*
X91116780Y-76424877D01*
X91122174Y-76434220D01*
X91208963Y-76584542D01*
X91213381Y-76589449D01*
X91213382Y-76589450D01*
X91331044Y-76720127D01*
X91336749Y-76726463D01*
X91342091Y-76730344D01*
X91342093Y-76730346D01*
X91476123Y-76827724D01*
X91491250Y-76838714D01*
X91497278Y-76841398D01*
X91497280Y-76841399D01*
X91658943Y-76913376D01*
X91665713Y-76916390D01*
X91672168Y-76917762D01*
X91672177Y-76917765D01*
X91725141Y-76929023D01*
X91787614Y-76962751D01*
X91821935Y-77024901D01*
X91818776Y-77091205D01*
X91780482Y-77209063D01*
X91765662Y-77254673D01*
X91745700Y-77444600D01*
X91765662Y-77634527D01*
X91824676Y-77816154D01*
X91920163Y-77981542D01*
X91924581Y-77986449D01*
X91924582Y-77986450D01*
X92015006Y-78086876D01*
X92047949Y-78123463D01*
X92053291Y-78127344D01*
X92053293Y-78127346D01*
X92171185Y-78212999D01*
X92202450Y-78235714D01*
X92208478Y-78238398D01*
X92208480Y-78238399D01*
X92322945Y-78289362D01*
X92376913Y-78313390D01*
X92444217Y-78327696D01*
X92557256Y-78351724D01*
X92557261Y-78351724D01*
X92563713Y-78353096D01*
X92754687Y-78353096D01*
X92761139Y-78351724D01*
X92761144Y-78351724D01*
X92874183Y-78327696D01*
X92941487Y-78313390D01*
X92995455Y-78289362D01*
X93109920Y-78238399D01*
X93109922Y-78238398D01*
X93115950Y-78235714D01*
X93147215Y-78212999D01*
X93265107Y-78127346D01*
X93265109Y-78127344D01*
X93270451Y-78123463D01*
X93303394Y-78086876D01*
X93393818Y-77986450D01*
X93393819Y-77986449D01*
X93398237Y-77981542D01*
X93493724Y-77816154D01*
X93552738Y-77634527D01*
X93572700Y-77444600D01*
X93552738Y-77254673D01*
X93537919Y-77209063D01*
X93495766Y-77079331D01*
X93493724Y-77073046D01*
X93478326Y-77046375D01*
X93401538Y-76913376D01*
X93398237Y-76907658D01*
X93349135Y-76853124D01*
X93274873Y-76770648D01*
X93274872Y-76770647D01*
X93270451Y-76765737D01*
X93265109Y-76761856D01*
X93265107Y-76761854D01*
X93121292Y-76657367D01*
X93121291Y-76657366D01*
X93115950Y-76653486D01*
X93109922Y-76650802D01*
X93109920Y-76650801D01*
X92947518Y-76578495D01*
X92947517Y-76578495D01*
X92941487Y-76575810D01*
X92935032Y-76574438D01*
X92935023Y-76574435D01*
X92882059Y-76563177D01*
X92819586Y-76529449D01*
X92785265Y-76467299D01*
X92788424Y-76400995D01*
X92839498Y-76243806D01*
X92839498Y-76243805D01*
X92841538Y-76237527D01*
X92859719Y-76064550D01*
X92860810Y-76054165D01*
X92861500Y-76047600D01*
X92851897Y-75956236D01*
X92850821Y-75946000D01*
X94793700Y-75946000D01*
X94794390Y-75952565D01*
X94807439Y-76076714D01*
X94813662Y-76135927D01*
X94815702Y-76142205D01*
X94815702Y-76142206D01*
X94819184Y-76152923D01*
X94872676Y-76317554D01*
X94875979Y-76323276D01*
X94875980Y-76323277D01*
X94903765Y-76371401D01*
X94968163Y-76482942D01*
X94972581Y-76487849D01*
X94972582Y-76487850D01*
X95053705Y-76577946D01*
X95095949Y-76624863D01*
X95101291Y-76628744D01*
X95101293Y-76628746D01*
X95245108Y-76733233D01*
X95250450Y-76737114D01*
X95256478Y-76739798D01*
X95256480Y-76739799D01*
X95418882Y-76812105D01*
X95424913Y-76814790D01*
X95492217Y-76829096D01*
X95605256Y-76853124D01*
X95605261Y-76853124D01*
X95611713Y-76854496D01*
X95802687Y-76854496D01*
X95809139Y-76853124D01*
X95809144Y-76853124D01*
X95922183Y-76829096D01*
X95989487Y-76814790D01*
X95995518Y-76812105D01*
X96157920Y-76739799D01*
X96157922Y-76739798D01*
X96163950Y-76737114D01*
X96169292Y-76733233D01*
X96313107Y-76628746D01*
X96313109Y-76628744D01*
X96318451Y-76624863D01*
X96360695Y-76577946D01*
X96441818Y-76487850D01*
X96441819Y-76487849D01*
X96446237Y-76482942D01*
X96510635Y-76371401D01*
X96538420Y-76323277D01*
X96538421Y-76323276D01*
X96541724Y-76317554D01*
X96595216Y-76152923D01*
X96598698Y-76142206D01*
X96598698Y-76142205D01*
X96600738Y-76135927D01*
X96606962Y-76076714D01*
X96620010Y-75952565D01*
X96620700Y-75946000D01*
X96610751Y-75851337D01*
X96601428Y-75762637D01*
X96601428Y-75762636D01*
X96600738Y-75756073D01*
X96595612Y-75740295D01*
X96543766Y-75580731D01*
X96541724Y-75574446D01*
X96534226Y-75561458D01*
X96449538Y-75414776D01*
X96446237Y-75409058D01*
X96397967Y-75355448D01*
X96322873Y-75272048D01*
X96322872Y-75272047D01*
X96318451Y-75267137D01*
X96313109Y-75263256D01*
X96313107Y-75263254D01*
X96169292Y-75158767D01*
X96169291Y-75158766D01*
X96163950Y-75154886D01*
X96157922Y-75152202D01*
X96157920Y-75152201D01*
X95995518Y-75079895D01*
X95995517Y-75079895D01*
X95989487Y-75077210D01*
X95896087Y-75057357D01*
X95809144Y-75038876D01*
X95809139Y-75038876D01*
X95802687Y-75037504D01*
X95611713Y-75037504D01*
X95605261Y-75038876D01*
X95605256Y-75038876D01*
X95518313Y-75057357D01*
X95424913Y-75077210D01*
X95418883Y-75079895D01*
X95418882Y-75079895D01*
X95256480Y-75152201D01*
X95256478Y-75152202D01*
X95250450Y-75154886D01*
X95245109Y-75158766D01*
X95245108Y-75158767D01*
X95101293Y-75263254D01*
X95101291Y-75263256D01*
X95095949Y-75267137D01*
X95091528Y-75272047D01*
X95091527Y-75272048D01*
X95016434Y-75355448D01*
X94968163Y-75409058D01*
X94964862Y-75414776D01*
X94880175Y-75561458D01*
X94872676Y-75574446D01*
X94870634Y-75580731D01*
X94818789Y-75740295D01*
X94813662Y-75756073D01*
X94812972Y-75762636D01*
X94812972Y-75762637D01*
X94803649Y-75851337D01*
X94793700Y-75946000D01*
X92850821Y-75946000D01*
X92842228Y-75864237D01*
X92842228Y-75864236D01*
X92841538Y-75857673D01*
X92828266Y-75816824D01*
X92802134Y-75736401D01*
X92782524Y-75676046D01*
X92687037Y-75510658D01*
X92661061Y-75481808D01*
X92563673Y-75373648D01*
X92563672Y-75373647D01*
X92559251Y-75368737D01*
X92553909Y-75364856D01*
X92553907Y-75364854D01*
X92410092Y-75260367D01*
X92410091Y-75260366D01*
X92404750Y-75256486D01*
X92398722Y-75253802D01*
X92398720Y-75253801D01*
X92236318Y-75181495D01*
X92236317Y-75181495D01*
X92230287Y-75178810D01*
X92117735Y-75154886D01*
X92049944Y-75140476D01*
X92049939Y-75140476D01*
X92043487Y-75139104D01*
X91852513Y-75139104D01*
X91846061Y-75140476D01*
X91846056Y-75140476D01*
X91778265Y-75154886D01*
X91665713Y-75178810D01*
X91659683Y-75181495D01*
X91659682Y-75181495D01*
X91497280Y-75253801D01*
X91497278Y-75253802D01*
X91491250Y-75256486D01*
X91485909Y-75260366D01*
X91485908Y-75260367D01*
X91342093Y-75364854D01*
X91342091Y-75364856D01*
X91336749Y-75368737D01*
X91332328Y-75373647D01*
X91332327Y-75373648D01*
X91234940Y-75481808D01*
X91208963Y-75510658D01*
X91113476Y-75676046D01*
X91093866Y-75736401D01*
X91067735Y-75816824D01*
X91054462Y-75857673D01*
X91053772Y-75864236D01*
X91053772Y-75864237D01*
X91044103Y-75956236D01*
X91034500Y-76047600D01*
X89568882Y-76047600D01*
X89584900Y-75895200D01*
X89564938Y-75705273D01*
X89551559Y-75664095D01*
X89507966Y-75529931D01*
X89505924Y-75523646D01*
X89498426Y-75510658D01*
X89468711Y-75459192D01*
X89410437Y-75358258D01*
X89400255Y-75346949D01*
X89287073Y-75221248D01*
X89287072Y-75221247D01*
X89282651Y-75216337D01*
X89277309Y-75212456D01*
X89277307Y-75212454D01*
X89133492Y-75107967D01*
X89133491Y-75107966D01*
X89128150Y-75104086D01*
X89122122Y-75101402D01*
X89122120Y-75101401D01*
X88959718Y-75029095D01*
X88959717Y-75029095D01*
X88953687Y-75026410D01*
X88860287Y-75006557D01*
X88773344Y-74988076D01*
X88773339Y-74988076D01*
X88766887Y-74986704D01*
X88575913Y-74986704D01*
X88569461Y-74988076D01*
X88569456Y-74988076D01*
X88482513Y-75006557D01*
X88389113Y-75026410D01*
X88383083Y-75029095D01*
X88383082Y-75029095D01*
X88220680Y-75101401D01*
X88220678Y-75101402D01*
X88214650Y-75104086D01*
X88209309Y-75107966D01*
X88209308Y-75107967D01*
X88065493Y-75212454D01*
X88065491Y-75212456D01*
X88060149Y-75216337D01*
X88055728Y-75221247D01*
X88055727Y-75221248D01*
X87942546Y-75346949D01*
X87932363Y-75358258D01*
X87858786Y-75485697D01*
X87807405Y-75534689D01*
X87737691Y-75548125D01*
X87671780Y-75521739D01*
X87640549Y-75485696D01*
X87584938Y-75389376D01*
X87581637Y-75383658D01*
X87550327Y-75348884D01*
X87458273Y-75246648D01*
X87458272Y-75246647D01*
X87453851Y-75241737D01*
X87448509Y-75237856D01*
X87448507Y-75237854D01*
X87304692Y-75133367D01*
X87304691Y-75133366D01*
X87299350Y-75129486D01*
X87293322Y-75126802D01*
X87293320Y-75126801D01*
X87130918Y-75054495D01*
X87130917Y-75054495D01*
X87124887Y-75051810D01*
X87027799Y-75031173D01*
X86944544Y-75013476D01*
X86944539Y-75013476D01*
X86938087Y-75012104D01*
X86747113Y-75012104D01*
X86740661Y-75013476D01*
X86740656Y-75013476D01*
X86657401Y-75031173D01*
X86560313Y-75051810D01*
X86554283Y-75054495D01*
X86554282Y-75054495D01*
X86391880Y-75126801D01*
X86391878Y-75126802D01*
X86385850Y-75129486D01*
X86380509Y-75133366D01*
X86380508Y-75133367D01*
X86236693Y-75237854D01*
X86236691Y-75237856D01*
X86231349Y-75241737D01*
X86226928Y-75246647D01*
X86226927Y-75246648D01*
X86134874Y-75348884D01*
X86103563Y-75383658D01*
X86085597Y-75414776D01*
X86017776Y-75532246D01*
X86008076Y-75549046D01*
X85949062Y-75730673D01*
X85929100Y-75920600D01*
X84253164Y-75920600D01*
X84258757Y-75877329D01*
X84304997Y-75735017D01*
X84304997Y-75735016D01*
X84307037Y-75728738D01*
X84326999Y-75538811D01*
X84314463Y-75419537D01*
X84307727Y-75355448D01*
X84307727Y-75355447D01*
X84307037Y-75348884D01*
X84248023Y-75167257D01*
X84244104Y-75160468D01*
X84182920Y-75054495D01*
X84152536Y-75001869D01*
X84140753Y-74988782D01*
X84029172Y-74864859D01*
X84029171Y-74864858D01*
X84024750Y-74859948D01*
X84019408Y-74856067D01*
X84019406Y-74856065D01*
X83875591Y-74751578D01*
X83875590Y-74751577D01*
X83870249Y-74747697D01*
X83864221Y-74745013D01*
X83864219Y-74745012D01*
X83701817Y-74672706D01*
X83701816Y-74672706D01*
X83695786Y-74670021D01*
X83602386Y-74650168D01*
X83515443Y-74631687D01*
X83515438Y-74631687D01*
X83508986Y-74630315D01*
X83318012Y-74630315D01*
X83311560Y-74631687D01*
X83311555Y-74631687D01*
X83224612Y-74650168D01*
X83131212Y-74670021D01*
X83125182Y-74672706D01*
X83125181Y-74672706D01*
X82962779Y-74745012D01*
X82962777Y-74745013D01*
X82956749Y-74747697D01*
X82951408Y-74751577D01*
X82951407Y-74751578D01*
X82807592Y-74856065D01*
X82807590Y-74856067D01*
X82802248Y-74859948D01*
X82797827Y-74864858D01*
X82797826Y-74864859D01*
X82686246Y-74988782D01*
X82674462Y-75001869D01*
X82602332Y-75126801D01*
X82602273Y-75126904D01*
X82550891Y-75175897D01*
X82493154Y-75189904D01*
X82429113Y-75189904D01*
X82422661Y-75191276D01*
X82422656Y-75191276D01*
X82335713Y-75209757D01*
X82242313Y-75229610D01*
X82236286Y-75232293D01*
X82236278Y-75232296D01*
X82207921Y-75244922D01*
X82137554Y-75254357D01*
X82073256Y-75224251D01*
X82035443Y-75164163D01*
X82036118Y-75093169D01*
X82063035Y-75045506D01*
X82090818Y-75014650D01*
X82090819Y-75014649D01*
X82095237Y-75009742D01*
X82153791Y-74908323D01*
X82187420Y-74850077D01*
X82187421Y-74850076D01*
X82190724Y-74844354D01*
X82249738Y-74662727D01*
X82256099Y-74602206D01*
X82283112Y-74536550D01*
X82330159Y-74500271D01*
X82413620Y-74463112D01*
X82464881Y-74440289D01*
X82464883Y-74440288D01*
X82470911Y-74437604D01*
X82582487Y-74356540D01*
X82649354Y-74332681D01*
X82707796Y-74343369D01*
X82724913Y-74350990D01*
X82818313Y-74370843D01*
X82905256Y-74389324D01*
X82905261Y-74389324D01*
X82911713Y-74390696D01*
X83102687Y-74390696D01*
X83109139Y-74389324D01*
X83109144Y-74389324D01*
X83196087Y-74370843D01*
X83289487Y-74350990D01*
X83430824Y-74288063D01*
X83457913Y-74276002D01*
X83457914Y-74276001D01*
X83458729Y-74275638D01*
X83458731Y-74275638D01*
X83463950Y-74273314D01*
X83464375Y-74274268D01*
X83527402Y-74258973D01*
X83595477Y-74282895D01*
X83607935Y-74291946D01*
X83617250Y-74298714D01*
X83623278Y-74301398D01*
X83623280Y-74301399D01*
X83737745Y-74352362D01*
X83791713Y-74376390D01*
X83859017Y-74390696D01*
X83972056Y-74414724D01*
X83972061Y-74414724D01*
X83978513Y-74416096D01*
X84169487Y-74416096D01*
X84175939Y-74414724D01*
X84175944Y-74414724D01*
X84288983Y-74390696D01*
X84356287Y-74376390D01*
X84410255Y-74352362D01*
X84524720Y-74301399D01*
X84524722Y-74301398D01*
X84530750Y-74298714D01*
X84536092Y-74294833D01*
X84679907Y-74190346D01*
X84679909Y-74190344D01*
X84685251Y-74186463D01*
X84796545Y-74062858D01*
X84808618Y-74049450D01*
X84808619Y-74049449D01*
X84813037Y-74044542D01*
X84908524Y-73879154D01*
X84967538Y-73697527D01*
X84976132Y-73615765D01*
X84986810Y-73514165D01*
X84987500Y-73507600D01*
X84967538Y-73317673D01*
X84908524Y-73136046D01*
X84813037Y-72970658D01*
X84685251Y-72828737D01*
X84679909Y-72824856D01*
X84679907Y-72824854D01*
X84536092Y-72720367D01*
X84536091Y-72720366D01*
X84530750Y-72716486D01*
X84524722Y-72713802D01*
X84524720Y-72713801D01*
X84462626Y-72686155D01*
X84408530Y-72640174D01*
X84387881Y-72572247D01*
X84407234Y-72503939D01*
X84439814Y-72469112D01*
X84552907Y-72386946D01*
X84552909Y-72386944D01*
X84558251Y-72383063D01*
X84686037Y-72241142D01*
X84781524Y-72075754D01*
X84840538Y-71894127D01*
X84860500Y-71704200D01*
X84840538Y-71514273D01*
X84781524Y-71332646D01*
X84686037Y-71167258D01*
X84672908Y-71152676D01*
X84562673Y-71030248D01*
X84562672Y-71030247D01*
X84558251Y-71025337D01*
X84552909Y-71021456D01*
X84552907Y-71021454D01*
X84409092Y-70916967D01*
X84409091Y-70916966D01*
X84403750Y-70913086D01*
X84397722Y-70910402D01*
X84397720Y-70910401D01*
X84235318Y-70838095D01*
X84235317Y-70838095D01*
X84229287Y-70835410D01*
X84135887Y-70815557D01*
X84048944Y-70797076D01*
X84048939Y-70797076D01*
X84042487Y-70795704D01*
X83851513Y-70795704D01*
X83845061Y-70797076D01*
X83845056Y-70797076D01*
X83758113Y-70815557D01*
X83664713Y-70835410D01*
X83658683Y-70838095D01*
X83658682Y-70838095D01*
X83496280Y-70910401D01*
X83496278Y-70910402D01*
X83490250Y-70913086D01*
X83484909Y-70916966D01*
X83484908Y-70916967D01*
X83341093Y-71021454D01*
X83341091Y-71021456D01*
X83335749Y-71025337D01*
X83331328Y-71030247D01*
X83331327Y-71030248D01*
X83291786Y-71074163D01*
X83231340Y-71111403D01*
X83160357Y-71110051D01*
X83146903Y-71104961D01*
X83125354Y-71095367D01*
X83125352Y-71095366D01*
X83119323Y-71092682D01*
X83025923Y-71072829D01*
X82938980Y-71054348D01*
X82938975Y-71054348D01*
X82932523Y-71052976D01*
X82741549Y-71052976D01*
X82735097Y-71054348D01*
X82735092Y-71054348D01*
X82648149Y-71072829D01*
X82554749Y-71092682D01*
X82548719Y-71095367D01*
X82548718Y-71095367D01*
X82386316Y-71167673D01*
X82386314Y-71167674D01*
X82380286Y-71170358D01*
X82323027Y-71211959D01*
X82256162Y-71235816D01*
X82197719Y-71225129D01*
X82176533Y-71215696D01*
X82121087Y-71191010D01*
X82023928Y-71170358D01*
X81940744Y-71152676D01*
X81940739Y-71152676D01*
X81934287Y-71151304D01*
X81743313Y-71151304D01*
X81736861Y-71152676D01*
X81736856Y-71152676D01*
X81653672Y-71170358D01*
X81556513Y-71191010D01*
X81550483Y-71193695D01*
X81550482Y-71193695D01*
X81388080Y-71266001D01*
X81388078Y-71266002D01*
X81382050Y-71268686D01*
X81376709Y-71272566D01*
X81376708Y-71272567D01*
X81232893Y-71377054D01*
X81232891Y-71377056D01*
X81227549Y-71380937D01*
X81223128Y-71385847D01*
X81223127Y-71385848D01*
X81113147Y-71507994D01*
X81099763Y-71522858D01*
X81096462Y-71528576D01*
X81009730Y-71678800D01*
X81004276Y-71688246D01*
X81002235Y-71694528D01*
X80990490Y-71730675D01*
X80950416Y-71789280D01*
X80885019Y-71816917D01*
X80870657Y-71817738D01*
X80742069Y-71817738D01*
X80735617Y-71819110D01*
X80735612Y-71819110D01*
X80648669Y-71837591D01*
X80555269Y-71857444D01*
X80549239Y-71860129D01*
X80549238Y-71860129D01*
X80386836Y-71932435D01*
X80386834Y-71932436D01*
X80380806Y-71935120D01*
X80375465Y-71939000D01*
X80375464Y-71939001D01*
X80231649Y-72043488D01*
X80231647Y-72043490D01*
X80226305Y-72047371D01*
X80098519Y-72189292D01*
X80003032Y-72354680D01*
X79944018Y-72536307D01*
X79943328Y-72542868D01*
X79943328Y-72542870D01*
X79938598Y-72587875D01*
X79911585Y-72653532D01*
X79853363Y-72694161D01*
X79813288Y-72700704D01*
X79685913Y-72700704D01*
X79679461Y-72702076D01*
X79679456Y-72702076D01*
X79611665Y-72716486D01*
X79499113Y-72740410D01*
X79493083Y-72743095D01*
X79493082Y-72743095D01*
X79330680Y-72815401D01*
X79330678Y-72815402D01*
X79324650Y-72818086D01*
X79319309Y-72821966D01*
X79319308Y-72821967D01*
X79175493Y-72926454D01*
X79175491Y-72926456D01*
X79170149Y-72930337D01*
X79042363Y-73072258D01*
X78946876Y-73237646D01*
X78887862Y-73419273D01*
X78887172Y-73425836D01*
X78887172Y-73425837D01*
X78868590Y-73602635D01*
X78867900Y-73609200D01*
X78868590Y-73615765D01*
X78875519Y-73681686D01*
X78887862Y-73799127D01*
X78946876Y-73980754D01*
X79042363Y-74146142D01*
X79046781Y-74151049D01*
X79046782Y-74151050D01*
X79159032Y-74275716D01*
X79170149Y-74288063D01*
X79175491Y-74291944D01*
X79175493Y-74291946D01*
X79309523Y-74389324D01*
X79324650Y-74400314D01*
X79330678Y-74402998D01*
X79330680Y-74402999D01*
X79414435Y-74440289D01*
X79499113Y-74477990D01*
X79576720Y-74494486D01*
X79679456Y-74516324D01*
X79679461Y-74516324D01*
X79685913Y-74517696D01*
X79703922Y-74517696D01*
X79772043Y-74537698D01*
X79818536Y-74591354D01*
X79828640Y-74661628D01*
X79797560Y-74728004D01*
X79778963Y-74748658D01*
X79683476Y-74914046D01*
X79681434Y-74920331D01*
X79654420Y-75003471D01*
X79614347Y-75062077D01*
X79548950Y-75089714D01*
X79483339Y-75079642D01*
X79391777Y-75038876D01*
X79374476Y-75031173D01*
X79374475Y-75031173D01*
X79368445Y-75028488D01*
X79270115Y-75007587D01*
X79188102Y-74990154D01*
X79188097Y-74990154D01*
X79181645Y-74988782D01*
X78990671Y-74988782D01*
X78984219Y-74990154D01*
X78984214Y-74990154D01*
X78902201Y-75007587D01*
X78803871Y-75028488D01*
X78797841Y-75031173D01*
X78797840Y-75031173D01*
X78635438Y-75103479D01*
X78635436Y-75103480D01*
X78629408Y-75106164D01*
X78624067Y-75110044D01*
X78624066Y-75110045D01*
X78480251Y-75214532D01*
X78480249Y-75214534D01*
X78474907Y-75218415D01*
X78470486Y-75223325D01*
X78470485Y-75223326D01*
X78362765Y-75342962D01*
X78347121Y-75360336D01*
X78251634Y-75525724D01*
X78237663Y-75568723D01*
X78195690Y-75697904D01*
X78192620Y-75707351D01*
X78191930Y-75713914D01*
X78191930Y-75713915D01*
X78189157Y-75740295D01*
X78172658Y-75897278D01*
X71943603Y-75897278D01*
X71836092Y-75819167D01*
X71836091Y-75819166D01*
X71830750Y-75815286D01*
X71824722Y-75812602D01*
X71824720Y-75812601D01*
X71662318Y-75740295D01*
X71662317Y-75740295D01*
X71656287Y-75737610D01*
X71544812Y-75713915D01*
X71475944Y-75699276D01*
X71475939Y-75699276D01*
X71469487Y-75697904D01*
X71278513Y-75697904D01*
X71272061Y-75699276D01*
X71272056Y-75699276D01*
X71203188Y-75713915D01*
X71091713Y-75737610D01*
X71085683Y-75740295D01*
X71085682Y-75740295D01*
X70923280Y-75812601D01*
X70923278Y-75812602D01*
X70917250Y-75815286D01*
X70911909Y-75819166D01*
X70911908Y-75819167D01*
X70768093Y-75923654D01*
X70768091Y-75923656D01*
X70762749Y-75927537D01*
X70758331Y-75932444D01*
X70756285Y-75934286D01*
X70692277Y-75965002D01*
X70621823Y-75956236D01*
X70578340Y-75924959D01*
X70576986Y-75923455D01*
X70512051Y-75851337D01*
X70506709Y-75847456D01*
X70506707Y-75847454D01*
X70362892Y-75742967D01*
X70362891Y-75742966D01*
X70357550Y-75739086D01*
X70351522Y-75736402D01*
X70351520Y-75736401D01*
X70189118Y-75664095D01*
X70189117Y-75664095D01*
X70183087Y-75661410D01*
X70089687Y-75641557D01*
X70002744Y-75623076D01*
X70002739Y-75623076D01*
X69996287Y-75621704D01*
X69805313Y-75621704D01*
X69798861Y-75623076D01*
X69798856Y-75623076D01*
X69711913Y-75641557D01*
X69618513Y-75661410D01*
X69612483Y-75664095D01*
X69612482Y-75664095D01*
X69450080Y-75736401D01*
X69450078Y-75736402D01*
X69444050Y-75739086D01*
X69438709Y-75742966D01*
X69438708Y-75742967D01*
X69294893Y-75847454D01*
X69294891Y-75847456D01*
X69289549Y-75851337D01*
X69285131Y-75856244D01*
X69285127Y-75856248D01*
X69214862Y-75934286D01*
X69161763Y-75993258D01*
X69117769Y-76069458D01*
X69083183Y-76129363D01*
X69066276Y-76158646D01*
X69064235Y-76164928D01*
X69064234Y-76164931D01*
X69020642Y-76299095D01*
X69007262Y-76340273D01*
X68987300Y-76530200D01*
X64232999Y-76530200D01*
X64232999Y-74599800D01*
X74803900Y-74599800D01*
X74804590Y-74606365D01*
X74819546Y-74748658D01*
X74823862Y-74789727D01*
X74882876Y-74971354D01*
X74978363Y-75136742D01*
X74982781Y-75141649D01*
X74982782Y-75141650D01*
X75083763Y-75253801D01*
X75106149Y-75278663D01*
X75111491Y-75282544D01*
X75111493Y-75282546D01*
X75247412Y-75381296D01*
X75260650Y-75390914D01*
X75266678Y-75393598D01*
X75266680Y-75393599D01*
X75324938Y-75419537D01*
X75435113Y-75468590D01*
X75515590Y-75485696D01*
X75615456Y-75506924D01*
X75615461Y-75506924D01*
X75621913Y-75508296D01*
X75812887Y-75508296D01*
X75819339Y-75506924D01*
X75819344Y-75506924D01*
X75919210Y-75485696D01*
X75999687Y-75468590D01*
X76109862Y-75419537D01*
X76168120Y-75393599D01*
X76168122Y-75393598D01*
X76174150Y-75390914D01*
X76187388Y-75381296D01*
X76323307Y-75282546D01*
X76323309Y-75282544D01*
X76328651Y-75278663D01*
X76351037Y-75253801D01*
X76452018Y-75141650D01*
X76452019Y-75141649D01*
X76456437Y-75136742D01*
X76551924Y-74971354D01*
X76610938Y-74789727D01*
X76615255Y-74748658D01*
X76630210Y-74606365D01*
X76630900Y-74599800D01*
X76610938Y-74409873D01*
X76551924Y-74228246D01*
X76456437Y-74062858D01*
X76444365Y-74049450D01*
X76333073Y-73925848D01*
X76333072Y-73925847D01*
X76328651Y-73920937D01*
X76323309Y-73917056D01*
X76323307Y-73917054D01*
X76179492Y-73812567D01*
X76179491Y-73812566D01*
X76174150Y-73808686D01*
X76168122Y-73806002D01*
X76168120Y-73806001D01*
X76005718Y-73733695D01*
X76005717Y-73733695D01*
X75999687Y-73731010D01*
X75906287Y-73711157D01*
X75819344Y-73692676D01*
X75819339Y-73692676D01*
X75812887Y-73691304D01*
X75621913Y-73691304D01*
X75615461Y-73692676D01*
X75615456Y-73692676D01*
X75528513Y-73711157D01*
X75435113Y-73731010D01*
X75429083Y-73733695D01*
X75429082Y-73733695D01*
X75266680Y-73806001D01*
X75266678Y-73806002D01*
X75260650Y-73808686D01*
X75255309Y-73812566D01*
X75255308Y-73812567D01*
X75111493Y-73917054D01*
X75111491Y-73917056D01*
X75106149Y-73920937D01*
X75101728Y-73925847D01*
X75101727Y-73925848D01*
X74990436Y-74049450D01*
X74978363Y-74062858D01*
X74882876Y-74228246D01*
X74823862Y-74409873D01*
X74803900Y-74599800D01*
X64232999Y-74599800D01*
X64232999Y-71678800D01*
X69266700Y-71678800D01*
X69286662Y-71868727D01*
X69345676Y-72050354D01*
X69441163Y-72215742D01*
X69568949Y-72357663D01*
X69574291Y-72361544D01*
X69574293Y-72361546D01*
X69718108Y-72466033D01*
X69723450Y-72469914D01*
X69729478Y-72472598D01*
X69729480Y-72472599D01*
X69891882Y-72544905D01*
X69897913Y-72547590D01*
X69991313Y-72567443D01*
X70078256Y-72585924D01*
X70078261Y-72585924D01*
X70084713Y-72587296D01*
X70275687Y-72587296D01*
X70282139Y-72585924D01*
X70282144Y-72585924D01*
X70369087Y-72567443D01*
X70462487Y-72547590D01*
X70468518Y-72544905D01*
X70630920Y-72472599D01*
X70630922Y-72472598D01*
X70636950Y-72469914D01*
X70642292Y-72466033D01*
X70786107Y-72361546D01*
X70786109Y-72361544D01*
X70791451Y-72357663D01*
X70919237Y-72215742D01*
X71014724Y-72050354D01*
X71073738Y-71868727D01*
X71093700Y-71678800D01*
X71093010Y-71672235D01*
X71074428Y-71495437D01*
X71074428Y-71495436D01*
X71073738Y-71488873D01*
X71052213Y-71422624D01*
X71016766Y-71313531D01*
X71014724Y-71307246D01*
X70919237Y-71141858D01*
X70882448Y-71100999D01*
X70795873Y-71004848D01*
X70795872Y-71004847D01*
X70791451Y-70999937D01*
X70786109Y-70996056D01*
X70786107Y-70996054D01*
X70642292Y-70891567D01*
X70642291Y-70891566D01*
X70642062Y-70891400D01*
X77267700Y-70891400D01*
X77268390Y-70897965D01*
X77278700Y-70996054D01*
X77287662Y-71081327D01*
X77289702Y-71087605D01*
X77289702Y-71087606D01*
X77310399Y-71151304D01*
X77346676Y-71262954D01*
X77442163Y-71428342D01*
X77446581Y-71433249D01*
X77446582Y-71433250D01*
X77496665Y-71488873D01*
X77569949Y-71570263D01*
X77575291Y-71574144D01*
X77575293Y-71574146D01*
X77710302Y-71672235D01*
X77724450Y-71682514D01*
X77730478Y-71685198D01*
X77730480Y-71685199D01*
X77832621Y-71730675D01*
X77898913Y-71760190D01*
X77992313Y-71780043D01*
X78079256Y-71798524D01*
X78079261Y-71798524D01*
X78085713Y-71799896D01*
X78276687Y-71799896D01*
X78283139Y-71798524D01*
X78283144Y-71798524D01*
X78370087Y-71780043D01*
X78463487Y-71760190D01*
X78529779Y-71730675D01*
X78631920Y-71685199D01*
X78631922Y-71685198D01*
X78637950Y-71682514D01*
X78652098Y-71672235D01*
X78787107Y-71574146D01*
X78787109Y-71574144D01*
X78792451Y-71570263D01*
X78865735Y-71488873D01*
X78915818Y-71433250D01*
X78915819Y-71433249D01*
X78920237Y-71428342D01*
X79015724Y-71262954D01*
X79052001Y-71151304D01*
X79072698Y-71087606D01*
X79072698Y-71087605D01*
X79074738Y-71081327D01*
X79083701Y-70996054D01*
X79094010Y-70897965D01*
X79094700Y-70891400D01*
X79074738Y-70701473D01*
X79015724Y-70519846D01*
X78998818Y-70490563D01*
X78923538Y-70360176D01*
X78920237Y-70354458D01*
X78877686Y-70307200D01*
X85243300Y-70307200D01*
X85243990Y-70313765D01*
X85254669Y-70415365D01*
X85263262Y-70497127D01*
X85322276Y-70678754D01*
X85325579Y-70684476D01*
X85325580Y-70684477D01*
X85359489Y-70743208D01*
X85417763Y-70844142D01*
X85422181Y-70849049D01*
X85422182Y-70849050D01*
X85466225Y-70897965D01*
X85545549Y-70986063D01*
X85550891Y-70989944D01*
X85550893Y-70989946D01*
X85692298Y-71092682D01*
X85700050Y-71098314D01*
X85706078Y-71100998D01*
X85706080Y-71100999D01*
X85861863Y-71170358D01*
X85874513Y-71175990D01*
X85945176Y-71191010D01*
X86054856Y-71214324D01*
X86054861Y-71214324D01*
X86061313Y-71215696D01*
X86252287Y-71215696D01*
X86258739Y-71214324D01*
X86258744Y-71214324D01*
X86368424Y-71191010D01*
X86439087Y-71175990D01*
X86451737Y-71170358D01*
X86607520Y-71100999D01*
X86607522Y-71100998D01*
X86613550Y-71098314D01*
X86621302Y-71092682D01*
X86762707Y-70989946D01*
X86762709Y-70989944D01*
X86768051Y-70986063D01*
X86847375Y-70897965D01*
X86891418Y-70849050D01*
X86891419Y-70849049D01*
X86895837Y-70844142D01*
X86954111Y-70743208D01*
X86988020Y-70684477D01*
X86988021Y-70684476D01*
X86991324Y-70678754D01*
X87050338Y-70497127D01*
X87058932Y-70415365D01*
X87059622Y-70408800D01*
X92228300Y-70408800D01*
X92248262Y-70598727D01*
X92307276Y-70780354D01*
X92402763Y-70945742D01*
X92407181Y-70950649D01*
X92407182Y-70950650D01*
X92518934Y-71074763D01*
X92530549Y-71087663D01*
X92535891Y-71091544D01*
X92535893Y-71091546D01*
X92676490Y-71193695D01*
X92685050Y-71199914D01*
X92691078Y-71202598D01*
X92691080Y-71202599D01*
X92839494Y-71268677D01*
X92859513Y-71277590D01*
X92952913Y-71297443D01*
X93039856Y-71315924D01*
X93039861Y-71315924D01*
X93046313Y-71317296D01*
X93237287Y-71317296D01*
X93243739Y-71315924D01*
X93243744Y-71315924D01*
X93330687Y-71297443D01*
X93424087Y-71277590D01*
X93444106Y-71268677D01*
X93592520Y-71202599D01*
X93592522Y-71202598D01*
X93598550Y-71199914D01*
X93607110Y-71193695D01*
X93747707Y-71091546D01*
X93747709Y-71091544D01*
X93753051Y-71087663D01*
X93764666Y-71074763D01*
X93876418Y-70950650D01*
X93876419Y-70950649D01*
X93880837Y-70945742D01*
X93976324Y-70780354D01*
X94035338Y-70598727D01*
X94055300Y-70408800D01*
X94049073Y-70349550D01*
X94036028Y-70225437D01*
X94036028Y-70225436D01*
X94035338Y-70218873D01*
X93976324Y-70037246D01*
X93880837Y-69871858D01*
X93753051Y-69729937D01*
X93747709Y-69726056D01*
X93747707Y-69726054D01*
X93603892Y-69621567D01*
X93603891Y-69621566D01*
X93598550Y-69617686D01*
X93592522Y-69615002D01*
X93592520Y-69615001D01*
X93430118Y-69542695D01*
X93430117Y-69542695D01*
X93424087Y-69540010D01*
X93311535Y-69516086D01*
X93243744Y-69501676D01*
X93243739Y-69501676D01*
X93237287Y-69500304D01*
X93046313Y-69500304D01*
X93039861Y-69501676D01*
X93039856Y-69501676D01*
X92972065Y-69516086D01*
X92859513Y-69540010D01*
X92853483Y-69542695D01*
X92853482Y-69542695D01*
X92691080Y-69615001D01*
X92691078Y-69615002D01*
X92685050Y-69617686D01*
X92679709Y-69621566D01*
X92679708Y-69621567D01*
X92535893Y-69726054D01*
X92535891Y-69726056D01*
X92530549Y-69729937D01*
X92402763Y-69871858D01*
X92307276Y-70037246D01*
X92248262Y-70218873D01*
X92247572Y-70225436D01*
X92247572Y-70225437D01*
X92234527Y-70349550D01*
X92228300Y-70408800D01*
X87059622Y-70408800D01*
X87069610Y-70313765D01*
X87070300Y-70307200D01*
X87060351Y-70212537D01*
X87051028Y-70123837D01*
X87051028Y-70123836D01*
X87050338Y-70117273D01*
X86991324Y-69935646D01*
X86895837Y-69770258D01*
X86768051Y-69628337D01*
X86762709Y-69624456D01*
X86762707Y-69624454D01*
X86618892Y-69519967D01*
X86618891Y-69519966D01*
X86613550Y-69516086D01*
X86607522Y-69513402D01*
X86607520Y-69513401D01*
X86445118Y-69441095D01*
X86445117Y-69441095D01*
X86439087Y-69438410D01*
X86345687Y-69418557D01*
X86258744Y-69400076D01*
X86258739Y-69400076D01*
X86252287Y-69398704D01*
X86061313Y-69398704D01*
X86054861Y-69400076D01*
X86054856Y-69400076D01*
X85967913Y-69418557D01*
X85874513Y-69438410D01*
X85868483Y-69441095D01*
X85868482Y-69441095D01*
X85706080Y-69513401D01*
X85706078Y-69513402D01*
X85700050Y-69516086D01*
X85694709Y-69519966D01*
X85694708Y-69519967D01*
X85550893Y-69624454D01*
X85550891Y-69624456D01*
X85545549Y-69628337D01*
X85417763Y-69770258D01*
X85322276Y-69935646D01*
X85263262Y-70117273D01*
X85262572Y-70123836D01*
X85262572Y-70123837D01*
X85253249Y-70212537D01*
X85243300Y-70307200D01*
X78877686Y-70307200D01*
X78848570Y-70274863D01*
X78796873Y-70217448D01*
X78796872Y-70217447D01*
X78792451Y-70212537D01*
X78787109Y-70208656D01*
X78787107Y-70208654D01*
X78643292Y-70104167D01*
X78643291Y-70104166D01*
X78637950Y-70100286D01*
X78631922Y-70097602D01*
X78631920Y-70097601D01*
X78469518Y-70025295D01*
X78469517Y-70025295D01*
X78463487Y-70022610D01*
X78370087Y-70002757D01*
X78283144Y-69984276D01*
X78283139Y-69984276D01*
X78276687Y-69982904D01*
X78085713Y-69982904D01*
X78079261Y-69984276D01*
X78079256Y-69984276D01*
X77992313Y-70002757D01*
X77898913Y-70022610D01*
X77892883Y-70025295D01*
X77892882Y-70025295D01*
X77730480Y-70097601D01*
X77730478Y-70097602D01*
X77724450Y-70100286D01*
X77719109Y-70104166D01*
X77719108Y-70104167D01*
X77575293Y-70208654D01*
X77575291Y-70208656D01*
X77569949Y-70212537D01*
X77565528Y-70217447D01*
X77565527Y-70217448D01*
X77513831Y-70274863D01*
X77442163Y-70354458D01*
X77438862Y-70360176D01*
X77363583Y-70490563D01*
X77346676Y-70519846D01*
X77287662Y-70701473D01*
X77267700Y-70891400D01*
X70642062Y-70891400D01*
X70636950Y-70887686D01*
X70630922Y-70885002D01*
X70630920Y-70885001D01*
X70468518Y-70812695D01*
X70468517Y-70812695D01*
X70462487Y-70810010D01*
X70369087Y-70790157D01*
X70282144Y-70771676D01*
X70282139Y-70771676D01*
X70275687Y-70770304D01*
X70084713Y-70770304D01*
X70078261Y-70771676D01*
X70078256Y-70771676D01*
X69991313Y-70790157D01*
X69897913Y-70810010D01*
X69891883Y-70812695D01*
X69891882Y-70812695D01*
X69729480Y-70885001D01*
X69729478Y-70885002D01*
X69723450Y-70887686D01*
X69718109Y-70891566D01*
X69718108Y-70891567D01*
X69574293Y-70996054D01*
X69574291Y-70996056D01*
X69568949Y-70999937D01*
X69564528Y-71004847D01*
X69564527Y-71004848D01*
X69477953Y-71100999D01*
X69441163Y-71141858D01*
X69345676Y-71307246D01*
X69343634Y-71313531D01*
X69308188Y-71422624D01*
X69286662Y-71488873D01*
X69285972Y-71495436D01*
X69285972Y-71495437D01*
X69267390Y-71672235D01*
X69266700Y-71678800D01*
X64232999Y-71678800D01*
X64232999Y-69596000D01*
X70130300Y-69596000D01*
X70150262Y-69785927D01*
X70209276Y-69967554D01*
X70304763Y-70132942D01*
X70309181Y-70137849D01*
X70309182Y-70137850D01*
X70376482Y-70212594D01*
X70432549Y-70274863D01*
X70437891Y-70278744D01*
X70437893Y-70278746D01*
X70549973Y-70360176D01*
X70587050Y-70387114D01*
X70593078Y-70389798D01*
X70593080Y-70389799D01*
X70755482Y-70462105D01*
X70761513Y-70464790D01*
X70854913Y-70484643D01*
X70941856Y-70503124D01*
X70941861Y-70503124D01*
X70948313Y-70504496D01*
X71139287Y-70504496D01*
X71145739Y-70503124D01*
X71145744Y-70503124D01*
X71232687Y-70484643D01*
X71326087Y-70464790D01*
X71332118Y-70462105D01*
X71494520Y-70389799D01*
X71494522Y-70389798D01*
X71500550Y-70387114D01*
X71537627Y-70360176D01*
X71649707Y-70278746D01*
X71649709Y-70278744D01*
X71655051Y-70274863D01*
X71711118Y-70212594D01*
X71778418Y-70137850D01*
X71778419Y-70137849D01*
X71782837Y-70132942D01*
X71878324Y-69967554D01*
X71937338Y-69785927D01*
X71957300Y-69596000D01*
X71937338Y-69406073D01*
X71878324Y-69224446D01*
X71782837Y-69059058D01*
X71762936Y-69036955D01*
X71659473Y-68922048D01*
X71659472Y-68922047D01*
X71655051Y-68917137D01*
X71649709Y-68913256D01*
X71649707Y-68913254D01*
X71505892Y-68808767D01*
X71505891Y-68808766D01*
X71500550Y-68804886D01*
X71494522Y-68802202D01*
X71494520Y-68802201D01*
X71332118Y-68729895D01*
X71332117Y-68729895D01*
X71326087Y-68727210D01*
X71232687Y-68707357D01*
X71145744Y-68688876D01*
X71145739Y-68688876D01*
X71139287Y-68687504D01*
X70948313Y-68687504D01*
X70941861Y-68688876D01*
X70941856Y-68688876D01*
X70854913Y-68707357D01*
X70761513Y-68727210D01*
X70755483Y-68729895D01*
X70755482Y-68729895D01*
X70593080Y-68802201D01*
X70593078Y-68802202D01*
X70587050Y-68804886D01*
X70581709Y-68808766D01*
X70581708Y-68808767D01*
X70437893Y-68913254D01*
X70437891Y-68913256D01*
X70432549Y-68917137D01*
X70428128Y-68922047D01*
X70428127Y-68922048D01*
X70324665Y-69036955D01*
X70304763Y-69059058D01*
X70209276Y-69224446D01*
X70150262Y-69406073D01*
X70130300Y-69596000D01*
X64232999Y-69596000D01*
X64232999Y-69217426D01*
X64234785Y-69196284D01*
X64236592Y-69185669D01*
X64236592Y-69185665D01*
X64237408Y-69180873D01*
X64239442Y-69036946D01*
X64239627Y-69031669D01*
X64243787Y-68957607D01*
X64244381Y-68950566D01*
X64270452Y-68719174D01*
X64271440Y-68712176D01*
X64280554Y-68658533D01*
X64281933Y-68651600D01*
X64304073Y-68554600D01*
X73000500Y-68554600D01*
X73020462Y-68744527D01*
X73079476Y-68926154D01*
X73174963Y-69091542D01*
X73179381Y-69096449D01*
X73179382Y-69096450D01*
X73294630Y-69224446D01*
X73302749Y-69233463D01*
X73308091Y-69237344D01*
X73308093Y-69237346D01*
X73385665Y-69293705D01*
X73457250Y-69345714D01*
X73463278Y-69348398D01*
X73463280Y-69348399D01*
X73592818Y-69406073D01*
X73631713Y-69423390D01*
X73702376Y-69438410D01*
X73812056Y-69461724D01*
X73812061Y-69461724D01*
X73818513Y-69463096D01*
X74009487Y-69463096D01*
X74015939Y-69461724D01*
X74015944Y-69461724D01*
X74125624Y-69438410D01*
X74196287Y-69423390D01*
X74235182Y-69406073D01*
X74364720Y-69348399D01*
X74364722Y-69348398D01*
X74370750Y-69345714D01*
X74442335Y-69293705D01*
X74519907Y-69237346D01*
X74519909Y-69237344D01*
X74525251Y-69233463D01*
X74533370Y-69224446D01*
X74648618Y-69096450D01*
X74648619Y-69096449D01*
X74653037Y-69091542D01*
X74748524Y-68926154D01*
X74807538Y-68744527D01*
X74827500Y-68554600D01*
X74814152Y-68427600D01*
X86462500Y-68427600D01*
X86482462Y-68617527D01*
X86541476Y-68799154D01*
X86636963Y-68964542D01*
X86641381Y-68969449D01*
X86641382Y-68969450D01*
X86751314Y-69091542D01*
X86764749Y-69106463D01*
X86770091Y-69110344D01*
X86770093Y-69110346D01*
X86901548Y-69205853D01*
X86919250Y-69218714D01*
X86925278Y-69221398D01*
X86925280Y-69221399D01*
X86961098Y-69237346D01*
X87093713Y-69296390D01*
X87187113Y-69316243D01*
X87274056Y-69334724D01*
X87274061Y-69334724D01*
X87280513Y-69336096D01*
X87471487Y-69336096D01*
X87477939Y-69334724D01*
X87477944Y-69334724D01*
X87564887Y-69316243D01*
X87658287Y-69296390D01*
X87790902Y-69237346D01*
X87826720Y-69221399D01*
X87826722Y-69221398D01*
X87832750Y-69218714D01*
X87850452Y-69205853D01*
X87981907Y-69110346D01*
X87981909Y-69110344D01*
X87987251Y-69106463D01*
X88000686Y-69091542D01*
X88110618Y-68969450D01*
X88110619Y-68969449D01*
X88115037Y-68964542D01*
X88210524Y-68799154D01*
X88269538Y-68617527D01*
X88289500Y-68427600D01*
X88269538Y-68237673D01*
X88210524Y-68056046D01*
X88115037Y-67890658D01*
X88087000Y-67859519D01*
X87991673Y-67753648D01*
X87991672Y-67753647D01*
X87987251Y-67748737D01*
X87981909Y-67744856D01*
X87981907Y-67744854D01*
X87838092Y-67640367D01*
X87838091Y-67640366D01*
X87832750Y-67636486D01*
X87826722Y-67633802D01*
X87826720Y-67633801D01*
X87664318Y-67561495D01*
X87664317Y-67561495D01*
X87658287Y-67558810D01*
X87560780Y-67538084D01*
X87477944Y-67520476D01*
X87477939Y-67520476D01*
X87471487Y-67519104D01*
X87280513Y-67519104D01*
X87274061Y-67520476D01*
X87274056Y-67520476D01*
X87191220Y-67538084D01*
X87093713Y-67558810D01*
X87087683Y-67561495D01*
X87087682Y-67561495D01*
X86925280Y-67633801D01*
X86925278Y-67633802D01*
X86919250Y-67636486D01*
X86913909Y-67640366D01*
X86913908Y-67640367D01*
X86770093Y-67744854D01*
X86770091Y-67744856D01*
X86764749Y-67748737D01*
X86760328Y-67753647D01*
X86760327Y-67753648D01*
X86665001Y-67859519D01*
X86636963Y-67890658D01*
X86541476Y-68056046D01*
X86482462Y-68237673D01*
X86462500Y-68427600D01*
X74814152Y-68427600D01*
X74807538Y-68364673D01*
X74748524Y-68183046D01*
X74723042Y-68138909D01*
X74686489Y-68075598D01*
X74653037Y-68017658D01*
X74543835Y-67896376D01*
X74529673Y-67880648D01*
X74529672Y-67880647D01*
X74525251Y-67875737D01*
X74519909Y-67871856D01*
X74519907Y-67871854D01*
X74376092Y-67767367D01*
X74376091Y-67767366D01*
X74370750Y-67763486D01*
X74364722Y-67760802D01*
X74364720Y-67760801D01*
X74202318Y-67688495D01*
X74202317Y-67688495D01*
X74196287Y-67685810D01*
X74083942Y-67661930D01*
X74015944Y-67647476D01*
X74015939Y-67647476D01*
X74009487Y-67646104D01*
X73818513Y-67646104D01*
X73812061Y-67647476D01*
X73812056Y-67647476D01*
X73744058Y-67661930D01*
X73631713Y-67685810D01*
X73625683Y-67688495D01*
X73625682Y-67688495D01*
X73463280Y-67760801D01*
X73463278Y-67760802D01*
X73457250Y-67763486D01*
X73451909Y-67767366D01*
X73451908Y-67767367D01*
X73308093Y-67871854D01*
X73308091Y-67871856D01*
X73302749Y-67875737D01*
X73298328Y-67880647D01*
X73298327Y-67880648D01*
X73284166Y-67896376D01*
X73174963Y-68017658D01*
X73141511Y-68075598D01*
X73104959Y-68138909D01*
X73079476Y-68183046D01*
X73020462Y-68364673D01*
X73000500Y-68554600D01*
X64304073Y-68554600D01*
X64333749Y-68424582D01*
X64335514Y-68417739D01*
X64350583Y-68365433D01*
X64352730Y-68358699D01*
X64429637Y-68138910D01*
X64429643Y-68138892D01*
X64432158Y-68132304D01*
X64452973Y-68082055D01*
X64455859Y-68075606D01*
X64556891Y-67865809D01*
X64560135Y-67859530D01*
X64586475Y-67811871D01*
X64590066Y-67805783D01*
X64713951Y-67608623D01*
X64717877Y-67602747D01*
X64749341Y-67558402D01*
X64753591Y-67552755D01*
X64898807Y-67370659D01*
X64903347Y-67365281D01*
X64939630Y-67324681D01*
X64944469Y-67319564D01*
X65109119Y-67154914D01*
X65114255Y-67150058D01*
X65154835Y-67113794D01*
X65160234Y-67109234D01*
X65342306Y-66964036D01*
X65347953Y-66959787D01*
X65392308Y-66928315D01*
X65398185Y-66924388D01*
X65595357Y-66800497D01*
X65601444Y-66796906D01*
X65649082Y-66770577D01*
X65655336Y-66767346D01*
X65865187Y-66666286D01*
X65871614Y-66663411D01*
X65871617Y-66663410D01*
X65874833Y-66662078D01*
X65921872Y-66642594D01*
X65928467Y-66640076D01*
X66148292Y-66563156D01*
X66154998Y-66561019D01*
X66168512Y-66557125D01*
X66207308Y-66545949D01*
X66214151Y-66544184D01*
X66441169Y-66492369D01*
X66448097Y-66490991D01*
X66448543Y-66490915D01*
X66501767Y-66481872D01*
X66508694Y-66480894D01*
X66689287Y-66460546D01*
X66740122Y-66454818D01*
X66747164Y-66454224D01*
X66788320Y-66451913D01*
X66821239Y-66450064D01*
X66826517Y-66449879D01*
X66967159Y-66447891D01*
X66985667Y-66444973D01*
X67005290Y-66443436D01*
X67771248Y-66443436D01*
X67790366Y-66446080D01*
X67790474Y-66445267D01*
X67799376Y-66446454D01*
X67808012Y-66448889D01*
X67880597Y-66448188D01*
X67945902Y-66447558D01*
X67945905Y-66447558D01*
X67954874Y-66447471D01*
X67973240Y-66441907D01*
X68015497Y-66429107D01*
X68015498Y-66429106D01*
X68019114Y-66428011D01*
X68020474Y-66427816D01*
X68021906Y-66427165D01*
X68095434Y-66404891D01*
X68102946Y-66399984D01*
X68102948Y-66399983D01*
X68148445Y-66370263D01*
X68151629Y-66368183D01*
X68152881Y-66367614D01*
X68154074Y-66366586D01*
X68218394Y-66324571D01*
X68262024Y-66273571D01*
X68263070Y-66272670D01*
X68263930Y-66271344D01*
X68266952Y-66267812D01*
X68266953Y-66267811D01*
X68308034Y-66219790D01*
X68308035Y-66219789D01*
X68313869Y-66212969D01*
X68341432Y-66151772D01*
X68342182Y-66150615D01*
X68342634Y-66149104D01*
X68374183Y-66079057D01*
X68383462Y-66012584D01*
X68383857Y-66011262D01*
X68383867Y-66009683D01*
X68390029Y-65965535D01*
X68387716Y-65818827D01*
X68387740Y-65813670D01*
X68387741Y-65813665D01*
X68388752Y-65773777D01*
X69262968Y-65773777D01*
X69264536Y-65813670D01*
X69265391Y-65835435D01*
X69265391Y-65835436D01*
X69273127Y-66032328D01*
X69273854Y-66050844D01*
X69323670Y-66323614D01*
X69349882Y-66402181D01*
X69403591Y-66563167D01*
X69411423Y-66586644D01*
X69460970Y-66685802D01*
X69518283Y-66800503D01*
X69535362Y-66834684D01*
X69693014Y-67062787D01*
X69696036Y-67066056D01*
X69878217Y-67263139D01*
X69878222Y-67263144D01*
X69881233Y-67266401D01*
X70096264Y-67441464D01*
X70100082Y-67443763D01*
X70100084Y-67443764D01*
X70325659Y-67579571D01*
X70333816Y-67584482D01*
X70390827Y-67608623D01*
X70585046Y-67690865D01*
X70585051Y-67690867D01*
X70589149Y-67692602D01*
X70593446Y-67693741D01*
X70593451Y-67693743D01*
X70723159Y-67728134D01*
X70857169Y-67763666D01*
X71132529Y-67796257D01*
X71409734Y-67789724D01*
X71414132Y-67788992D01*
X71678862Y-67744929D01*
X71678866Y-67744928D01*
X71683252Y-67744198D01*
X71687493Y-67742857D01*
X71687496Y-67742856D01*
X71943381Y-67661930D01*
X71943383Y-67661929D01*
X71947627Y-67660587D01*
X71951638Y-67658661D01*
X71951643Y-67658659D01*
X72193565Y-67542490D01*
X72193566Y-67542489D01*
X72197584Y-67540560D01*
X72313500Y-67463107D01*
X72424428Y-67388988D01*
X72424432Y-67388985D01*
X72428136Y-67386510D01*
X72431453Y-67383539D01*
X72431457Y-67383536D01*
X72631363Y-67204485D01*
X72631364Y-67204484D01*
X72634681Y-67201513D01*
X72813099Y-66989258D01*
X72949481Y-66770577D01*
X72957473Y-66757763D01*
X72957473Y-66757762D01*
X72959831Y-66753982D01*
X73071948Y-66500379D01*
X73147213Y-66233507D01*
X73149055Y-66219790D01*
X73183698Y-65961876D01*
X73183699Y-65961868D01*
X73184125Y-65958694D01*
X73186509Y-65882835D01*
X73187898Y-65838658D01*
X73187898Y-65838653D01*
X73187999Y-65835436D01*
X73186458Y-65813665D01*
X73178552Y-65702015D01*
X73168415Y-65558847D01*
X73151595Y-65480717D01*
X73110992Y-65292123D01*
X73110991Y-65292121D01*
X73110056Y-65287776D01*
X73014084Y-65027633D01*
X72926614Y-64865522D01*
X72884528Y-64787524D01*
X72882415Y-64783608D01*
X72717676Y-64560569D01*
X72675582Y-64517808D01*
X72526285Y-64366149D01*
X72523154Y-64362968D01*
X72519614Y-64360267D01*
X72519608Y-64360261D01*
X72306271Y-64197448D01*
X72302731Y-64194746D01*
X72298842Y-64192568D01*
X72064690Y-64061436D01*
X72064687Y-64061435D01*
X72060804Y-64059260D01*
X72056665Y-64057659D01*
X72056657Y-64057655D01*
X71865014Y-63983515D01*
X71802200Y-63959214D01*
X71797879Y-63958212D01*
X71797871Y-63958210D01*
X71619929Y-63916966D01*
X71532080Y-63896604D01*
X71255832Y-63872678D01*
X71251397Y-63872922D01*
X71251393Y-63872922D01*
X70983413Y-63887670D01*
X70983406Y-63887671D01*
X70978970Y-63887915D01*
X70707016Y-63942010D01*
X70702806Y-63943488D01*
X70702804Y-63943489D01*
X70549557Y-63997306D01*
X70445398Y-64033884D01*
X70199334Y-64161703D01*
X70195707Y-64164295D01*
X70195702Y-64164298D01*
X70156143Y-64192568D01*
X69973736Y-64322919D01*
X69931754Y-64362968D01*
X69809269Y-64479812D01*
X69773103Y-64514312D01*
X69601440Y-64732066D01*
X69555417Y-64811300D01*
X69464405Y-64967988D01*
X69464402Y-64967994D01*
X69462171Y-64971835D01*
X69460501Y-64975958D01*
X69378027Y-65179578D01*
X69358075Y-65228836D01*
X69357004Y-65233149D01*
X69357002Y-65233154D01*
X69293787Y-65487640D01*
X69291229Y-65497939D01*
X69290775Y-65502367D01*
X69290775Y-65502369D01*
X69271295Y-65692500D01*
X69262968Y-65773777D01*
X68388752Y-65773777D01*
X68388864Y-65769345D01*
X68389757Y-65734126D01*
X68390125Y-65727184D01*
X68409458Y-65487640D01*
X68410209Y-65480727D01*
X68418175Y-65422397D01*
X68419306Y-65415535D01*
X68464913Y-65179574D01*
X68466420Y-65172786D01*
X68480758Y-65115711D01*
X68482638Y-65109016D01*
X68553961Y-64879516D01*
X68556206Y-64872938D01*
X68568583Y-64839702D01*
X68576764Y-64817734D01*
X68579357Y-64811320D01*
X68675537Y-64591059D01*
X68678494Y-64584767D01*
X68704976Y-64532230D01*
X68708276Y-64526108D01*
X68828148Y-64317760D01*
X68831781Y-64311831D01*
X68863884Y-64262540D01*
X68867838Y-64256820D01*
X68966706Y-64121924D01*
X69009940Y-64062936D01*
X69014165Y-64057492D01*
X69051572Y-64011955D01*
X69056070Y-64006778D01*
X69178871Y-63873062D01*
X69218674Y-63829722D01*
X69223516Y-63824733D01*
X69265654Y-63783649D01*
X69270765Y-63778934D01*
X69451846Y-63620901D01*
X69457211Y-63616474D01*
X69503613Y-63580288D01*
X69509211Y-63576166D01*
X69706599Y-63439045D01*
X69712419Y-63435236D01*
X69762540Y-63404373D01*
X69768557Y-63400892D01*
X69979851Y-63286350D01*
X69986044Y-63283211D01*
X70039298Y-63258038D01*
X70045614Y-63255264D01*
X70169751Y-63204763D01*
X70268214Y-63164708D01*
X70274724Y-63162267D01*
X70330440Y-63143110D01*
X70337076Y-63141031D01*
X70568282Y-63075553D01*
X70575021Y-63073844D01*
X70632459Y-63060952D01*
X70639261Y-63059621D01*
X70876371Y-63019997D01*
X70883220Y-63019046D01*
X70941722Y-63012562D01*
X70948624Y-63011989D01*
X71188621Y-62998729D01*
X71195572Y-62998537D01*
X71254428Y-62998537D01*
X71261379Y-62998729D01*
G37*
%TD.AperFunction*%
%TD*%
M02*
