%TF.GenerationSoftware,KiCad,Pcbnew,(5.99.0-10573-gc33b2cfa8d)*%
%TF.CreationDate,2021-05-20T09:22:53+02:00*%
%TF.ProjectId,sucker-one-ui-board,7375636b-6572-42d6-9f6e-652d75692d62,rev?*%
%TF.SameCoordinates,Original*%
%TF.FileFunction,Legend,Bot*%
%TF.FilePolarity,Positive*%
%FSLAX46Y46*%
G04 Gerber Fmt 4.6, Leading zero omitted, Abs format (unit mm)*
G04 Created by KiCad (PCBNEW (5.99.0-10573-gc33b2cfa8d)) date 2021-05-20 09:22:53*
%MOMM*%
%LPD*%
G01*
G04 APERTURE LIST*
%ADD10C,0.150000*%
%ADD11C,0.120000*%
%ADD12C,0.249999*%
G04 APERTURE END LIST*
D10*
X69718180Y-80287904D02*
X69718180Y-79811714D01*
X68718180Y-79811714D01*
X69718180Y-80621238D02*
X68718180Y-80621238D01*
X69194371Y-81430761D02*
X69194371Y-81097428D01*
X69718180Y-81097428D02*
X68718180Y-81097428D01*
X68718180Y-81573619D01*
X68718180Y-81811714D02*
X68718180Y-82383142D01*
X69718180Y-82097428D02*
X68718180Y-82097428D01*
X91058904Y-78240000D02*
X91154142Y-78192380D01*
X91297000Y-78192380D01*
X91439857Y-78240000D01*
X91535095Y-78335238D01*
X91582714Y-78430476D01*
X91630333Y-78620952D01*
X91630333Y-78763809D01*
X91582714Y-78954285D01*
X91535095Y-79049523D01*
X91439857Y-79144761D01*
X91297000Y-79192380D01*
X91201761Y-79192380D01*
X91058904Y-79144761D01*
X91011285Y-79097142D01*
X91011285Y-78763809D01*
X91201761Y-78763809D01*
X90582714Y-79192380D02*
X90582714Y-78192380D01*
X90011285Y-79192380D01*
X90011285Y-78192380D01*
X89535095Y-79192380D02*
X89535095Y-78192380D01*
X89297000Y-78192380D01*
X89154142Y-78240000D01*
X89058904Y-78335238D01*
X89011285Y-78430476D01*
X88963666Y-78620952D01*
X88963666Y-78763809D01*
X89011285Y-78954285D01*
X89058904Y-79049523D01*
X89154142Y-79144761D01*
X89297000Y-79192380D01*
X89535095Y-79192380D01*
X66121019Y-103772980D02*
X66597209Y-104106314D01*
X66121019Y-104344409D02*
X67121019Y-104344409D01*
X67121019Y-103963457D01*
X67073400Y-103868219D01*
X67025780Y-103820600D01*
X66930542Y-103772980D01*
X66787685Y-103772980D01*
X66692447Y-103820600D01*
X66644828Y-103868219D01*
X66597209Y-103963457D01*
X66597209Y-104344409D01*
X66644828Y-103344409D02*
X66644828Y-103011076D01*
X66121019Y-102868219D02*
X66121019Y-103344409D01*
X67121019Y-103344409D01*
X67121019Y-102868219D01*
X67121019Y-102582504D02*
X66121019Y-102249171D01*
X67121019Y-101915838D01*
X66644828Y-101582504D02*
X66644828Y-101249171D01*
X66121019Y-101106314D02*
X66121019Y-101582504D01*
X67121019Y-101582504D01*
X67121019Y-101106314D01*
X66121019Y-100106314D02*
X66597209Y-100439647D01*
X66121019Y-100677742D02*
X67121019Y-100677742D01*
X67121019Y-100296790D01*
X67073400Y-100201552D01*
X67025780Y-100153933D01*
X66930542Y-100106314D01*
X66787685Y-100106314D01*
X66692447Y-100153933D01*
X66644828Y-100201552D01*
X66597209Y-100296790D01*
X66597209Y-100677742D01*
X66168638Y-99725361D02*
X66121019Y-99582504D01*
X66121019Y-99344409D01*
X66168638Y-99249171D01*
X66216257Y-99201552D01*
X66311495Y-99153933D01*
X66406733Y-99153933D01*
X66501971Y-99201552D01*
X66549590Y-99249171D01*
X66597209Y-99344409D01*
X66644828Y-99534885D01*
X66692447Y-99630123D01*
X66740066Y-99677742D01*
X66835304Y-99725361D01*
X66930542Y-99725361D01*
X67025780Y-99677742D01*
X67073400Y-99630123D01*
X67121019Y-99534885D01*
X67121019Y-99296790D01*
X67073400Y-99153933D01*
X66644828Y-98725361D02*
X66644828Y-98392028D01*
X66121019Y-98249171D02*
X66121019Y-98725361D01*
X67121019Y-98725361D01*
X67121019Y-98249171D01*
X94248219Y-101502790D02*
X94248219Y-100931361D01*
X93248219Y-101217076D02*
X94248219Y-101217076D01*
X93248219Y-100026600D02*
X93724409Y-100359933D01*
X93248219Y-100598028D02*
X94248219Y-100598028D01*
X94248219Y-100217076D01*
X94200600Y-100121838D01*
X94152980Y-100074219D01*
X94057742Y-100026600D01*
X93914885Y-100026600D01*
X93819647Y-100074219D01*
X93772028Y-100121838D01*
X93724409Y-100217076D01*
X93724409Y-100598028D01*
X93248219Y-99598028D02*
X94248219Y-99598028D01*
X94200600Y-98598028D02*
X94248219Y-98693266D01*
X94248219Y-98836123D01*
X94200600Y-98978980D01*
X94105361Y-99074219D01*
X94010123Y-99121838D01*
X93819647Y-99169457D01*
X93676790Y-99169457D01*
X93486314Y-99121838D01*
X93391076Y-99074219D01*
X93295838Y-98978980D01*
X93248219Y-98836123D01*
X93248219Y-98740885D01*
X93295838Y-98598028D01*
X93343457Y-98550409D01*
X93676790Y-98550409D01*
X93676790Y-98740885D01*
X94200600Y-97598028D02*
X94248219Y-97693266D01*
X94248219Y-97836123D01*
X94200600Y-97978980D01*
X94105361Y-98074219D01*
X94010123Y-98121838D01*
X93819647Y-98169457D01*
X93676790Y-98169457D01*
X93486314Y-98121838D01*
X93391076Y-98074219D01*
X93295838Y-97978980D01*
X93248219Y-97836123D01*
X93248219Y-97740885D01*
X93295838Y-97598028D01*
X93343457Y-97550409D01*
X93676790Y-97550409D01*
X93676790Y-97740885D01*
X93772028Y-97121838D02*
X93772028Y-96788504D01*
X93248219Y-96645647D02*
X93248219Y-97121838D01*
X94248219Y-97121838D01*
X94248219Y-96645647D01*
X93248219Y-95645647D02*
X93724409Y-95978980D01*
X93248219Y-96217076D02*
X94248219Y-96217076D01*
X94248219Y-95836123D01*
X94200600Y-95740885D01*
X94152980Y-95693266D01*
X94057742Y-95645647D01*
X93914885Y-95645647D01*
X93819647Y-95693266D01*
X93772028Y-95740885D01*
X93724409Y-95836123D01*
X93724409Y-96217076D01*
X69210180Y-86768085D02*
X69210180Y-86291895D01*
X68210180Y-86291895D01*
X68210180Y-87291895D02*
X68210180Y-87482371D01*
X68257800Y-87577609D01*
X68353038Y-87672847D01*
X68543514Y-87720466D01*
X68876847Y-87720466D01*
X69067323Y-87672847D01*
X69162561Y-87577609D01*
X69210180Y-87482371D01*
X69210180Y-87291895D01*
X69162561Y-87196657D01*
X69067323Y-87101419D01*
X68876847Y-87053800D01*
X68543514Y-87053800D01*
X68353038Y-87101419D01*
X68257800Y-87196657D01*
X68210180Y-87291895D01*
X68210180Y-88053800D02*
X69210180Y-88291895D01*
X68495895Y-88482371D01*
X69210180Y-88672847D01*
X68210180Y-88910942D01*
X94188019Y-82608514D02*
X95188019Y-82608514D01*
X95188019Y-82370419D01*
X95140400Y-82227561D01*
X95045161Y-82132323D01*
X94949923Y-82084704D01*
X94759447Y-82037085D01*
X94616590Y-82037085D01*
X94426114Y-82084704D01*
X94330876Y-82132323D01*
X94235638Y-82227561D01*
X94188019Y-82370419D01*
X94188019Y-82608514D01*
X94188019Y-81037085D02*
X94664209Y-81370419D01*
X94188019Y-81608514D02*
X95188019Y-81608514D01*
X95188019Y-81227561D01*
X95140400Y-81132323D01*
X95092780Y-81084704D01*
X94997542Y-81037085D01*
X94854685Y-81037085D01*
X94759447Y-81084704D01*
X94711828Y-81132323D01*
X94664209Y-81227561D01*
X94664209Y-81608514D01*
X95188019Y-80418038D02*
X95188019Y-80227561D01*
X95140400Y-80132323D01*
X95045161Y-80037085D01*
X94854685Y-79989466D01*
X94521352Y-79989466D01*
X94330876Y-80037085D01*
X94235638Y-80132323D01*
X94188019Y-80227561D01*
X94188019Y-80418038D01*
X94235638Y-80513276D01*
X94330876Y-80608514D01*
X94521352Y-80656133D01*
X94854685Y-80656133D01*
X95045161Y-80608514D01*
X95140400Y-80513276D01*
X95188019Y-80418038D01*
X94188019Y-79560895D02*
X95188019Y-79560895D01*
X95188019Y-79179942D01*
X95140400Y-79084704D01*
X95092780Y-79037085D01*
X94997542Y-78989466D01*
X94854685Y-78989466D01*
X94759447Y-79037085D01*
X94711828Y-79084704D01*
X94664209Y-79179942D01*
X94664209Y-79560895D01*
X73469476Y-77938380D02*
X73945666Y-77938380D01*
X73993285Y-78414571D01*
X73945666Y-78366952D01*
X73850428Y-78319333D01*
X73612333Y-78319333D01*
X73517095Y-78366952D01*
X73469476Y-78414571D01*
X73421857Y-78509809D01*
X73421857Y-78747904D01*
X73469476Y-78843142D01*
X73517095Y-78890761D01*
X73612333Y-78938380D01*
X73850428Y-78938380D01*
X73945666Y-78890761D01*
X73993285Y-78843142D01*
X73136142Y-77938380D02*
X72802809Y-78938380D01*
X72469476Y-77938380D01*
X72105828Y-95107285D02*
X72105828Y-95869190D01*
X72486780Y-95488238D02*
X71724876Y-95488238D01*
X71486780Y-96821571D02*
X71486780Y-96345380D01*
X71962971Y-96297761D01*
X71915352Y-96345380D01*
X71867733Y-96440619D01*
X71867733Y-96678714D01*
X71915352Y-96773952D01*
X71962971Y-96821571D01*
X72058209Y-96869190D01*
X72296304Y-96869190D01*
X72391542Y-96821571D01*
X72439161Y-96773952D01*
X72486780Y-96678714D01*
X72486780Y-96440619D01*
X72439161Y-96345380D01*
X72391542Y-96297761D01*
X71486780Y-97154904D02*
X72486780Y-97488238D01*
X71486780Y-97821571D01*
X74277600Y-95554895D02*
X74229980Y-95459657D01*
X74229980Y-95316800D01*
X74277600Y-95173942D01*
X74372838Y-95078704D01*
X74468076Y-95031085D01*
X74658552Y-94983466D01*
X74801409Y-94983466D01*
X74991885Y-95031085D01*
X75087123Y-95078704D01*
X75182361Y-95173942D01*
X75229980Y-95316800D01*
X75229980Y-95412038D01*
X75182361Y-95554895D01*
X75134742Y-95602514D01*
X74801409Y-95602514D01*
X74801409Y-95412038D01*
X75229980Y-96031085D02*
X74229980Y-96031085D01*
X75229980Y-96602514D01*
X74229980Y-96602514D01*
X75229980Y-97078704D02*
X74229980Y-97078704D01*
X74229980Y-97316800D01*
X74277600Y-97459657D01*
X74372838Y-97554895D01*
X74468076Y-97602514D01*
X74658552Y-97650133D01*
X74801409Y-97650133D01*
X74991885Y-97602514D01*
X75087123Y-97554895D01*
X75182361Y-97459657D01*
X75229980Y-97316800D01*
X75229980Y-97078704D01*
X65867019Y-85718304D02*
X65867019Y-86194495D01*
X66867019Y-86194495D01*
X66390828Y-85384971D02*
X66390828Y-85051638D01*
X65867019Y-84908780D02*
X65867019Y-85384971D01*
X66867019Y-85384971D01*
X66867019Y-84908780D01*
X65867019Y-84480209D02*
X66867019Y-84480209D01*
X66867019Y-84242114D01*
X66819400Y-84099257D01*
X66724161Y-84004019D01*
X66628923Y-83956400D01*
X66438447Y-83908780D01*
X66295590Y-83908780D01*
X66105114Y-83956400D01*
X66009876Y-84004019D01*
X65914638Y-84099257D01*
X65867019Y-84242114D01*
X65867019Y-84480209D01*
X65867019Y-82718304D02*
X66867019Y-82718304D01*
X66867019Y-82480209D01*
X66819400Y-82337352D01*
X66724161Y-82242114D01*
X66628923Y-82194495D01*
X66438447Y-82146876D01*
X66295590Y-82146876D01*
X66105114Y-82194495D01*
X66009876Y-82242114D01*
X65914638Y-82337352D01*
X65867019Y-82480209D01*
X65867019Y-82718304D01*
X66152733Y-81765923D02*
X66152733Y-81289733D01*
X65867019Y-81861161D02*
X66867019Y-81527828D01*
X65867019Y-81194495D01*
X66867019Y-81004019D02*
X66867019Y-80432590D01*
X65867019Y-80718304D02*
X66867019Y-80718304D01*
X66152733Y-80146876D02*
X66152733Y-79670685D01*
X65867019Y-80242114D02*
X66867019Y-79908780D01*
X65867019Y-79575447D01*
X94315019Y-89253819D02*
X95315019Y-89253819D01*
X94838828Y-89253819D02*
X94838828Y-88682390D01*
X94315019Y-88682390D02*
X95315019Y-88682390D01*
X94315019Y-88206200D02*
X95315019Y-88206200D01*
X95267400Y-87206200D02*
X95315019Y-87301438D01*
X95315019Y-87444295D01*
X95267400Y-87587152D01*
X95172161Y-87682390D01*
X95076923Y-87730009D01*
X94886447Y-87777628D01*
X94743590Y-87777628D01*
X94553114Y-87730009D01*
X94457876Y-87682390D01*
X94362638Y-87587152D01*
X94315019Y-87444295D01*
X94315019Y-87349057D01*
X94362638Y-87206200D01*
X94410257Y-87158580D01*
X94743590Y-87158580D01*
X94743590Y-87349057D01*
X94315019Y-86730009D02*
X95315019Y-86730009D01*
X94838828Y-86730009D02*
X94838828Y-86158580D01*
X94315019Y-86158580D02*
X95315019Y-86158580D01*
%TO.C,C7*%
X93600542Y-68692733D02*
X93648161Y-68645114D01*
X93695780Y-68502257D01*
X93695780Y-68407019D01*
X93648161Y-68264161D01*
X93552923Y-68168923D01*
X93457685Y-68121304D01*
X93267209Y-68073685D01*
X93124352Y-68073685D01*
X92933876Y-68121304D01*
X92838638Y-68168923D01*
X92743400Y-68264161D01*
X92695780Y-68407019D01*
X92695780Y-68502257D01*
X92743400Y-68645114D01*
X92791019Y-68692733D01*
X92695780Y-69026066D02*
X92695780Y-69692733D01*
X93695780Y-69264161D01*
%TO.C,R1*%
X66714666Y-70175380D02*
X67048000Y-69699190D01*
X67286095Y-70175380D02*
X67286095Y-69175380D01*
X66905142Y-69175380D01*
X66809904Y-69223000D01*
X66762285Y-69270619D01*
X66714666Y-69365857D01*
X66714666Y-69508714D01*
X66762285Y-69603952D01*
X66809904Y-69651571D01*
X66905142Y-69699190D01*
X67286095Y-69699190D01*
X65762285Y-70175380D02*
X66333714Y-70175380D01*
X66048000Y-70175380D02*
X66048000Y-69175380D01*
X66143238Y-69318238D01*
X66238476Y-69413476D01*
X66333714Y-69461095D01*
%TO.C,Q1*%
X67349619Y-72548761D02*
X67302000Y-72453523D01*
X67206761Y-72358285D01*
X67063904Y-72215428D01*
X67016285Y-72120190D01*
X67016285Y-72024952D01*
X67254380Y-72072571D02*
X67206761Y-71977333D01*
X67111523Y-71882095D01*
X66921047Y-71834476D01*
X66587714Y-71834476D01*
X66397238Y-71882095D01*
X66302000Y-71977333D01*
X66254380Y-72072571D01*
X66254380Y-72263047D01*
X66302000Y-72358285D01*
X66397238Y-72453523D01*
X66587714Y-72501142D01*
X66921047Y-72501142D01*
X67111523Y-72453523D01*
X67206761Y-72358285D01*
X67254380Y-72263047D01*
X67254380Y-72072571D01*
X67254380Y-73453523D02*
X67254380Y-72882095D01*
X67254380Y-73167809D02*
X66254380Y-73167809D01*
X66397238Y-73072571D01*
X66492476Y-72977333D01*
X66540095Y-72882095D01*
%TO.C,TP10*%
X68997580Y-94999323D02*
X68997580Y-95618371D01*
X69378533Y-95285038D01*
X69378533Y-95427895D01*
X69426152Y-95523133D01*
X69473771Y-95570752D01*
X69569009Y-95618371D01*
X69807104Y-95618371D01*
X69902342Y-95570752D01*
X69949961Y-95523133D01*
X69997580Y-95427895D01*
X69997580Y-95142180D01*
X69949961Y-95046942D01*
X69902342Y-94999323D01*
X69330914Y-95951704D02*
X69997580Y-96189800D01*
X69330914Y-96427895D01*
X68997580Y-96713609D02*
X68997580Y-97332657D01*
X69378533Y-96999323D01*
X69378533Y-97142180D01*
X69426152Y-97237419D01*
X69473771Y-97285038D01*
X69569009Y-97332657D01*
X69807104Y-97332657D01*
X69902342Y-97285038D01*
X69949961Y-97237419D01*
X69997580Y-97142180D01*
X69997580Y-96856466D01*
X69949961Y-96761228D01*
X69902342Y-96713609D01*
%TO.C,R2*%
X66587666Y-75890380D02*
X66921000Y-75414190D01*
X67159095Y-75890380D02*
X67159095Y-74890380D01*
X66778142Y-74890380D01*
X66682904Y-74938000D01*
X66635285Y-74985619D01*
X66587666Y-75080857D01*
X66587666Y-75223714D01*
X66635285Y-75318952D01*
X66682904Y-75366571D01*
X66778142Y-75414190D01*
X67159095Y-75414190D01*
X66206714Y-74985619D02*
X66159095Y-74938000D01*
X66063857Y-74890380D01*
X65825761Y-74890380D01*
X65730523Y-74938000D01*
X65682904Y-74985619D01*
X65635285Y-75080857D01*
X65635285Y-75176095D01*
X65682904Y-75318952D01*
X66254333Y-75890380D01*
X65635285Y-75890380D01*
D11*
%TO.C,C7*%
X91209400Y-69480820D02*
X91209400Y-69761980D01*
X92229400Y-69480820D02*
X92229400Y-69761980D01*
%TO.C,TP9*%
X73035200Y-93573600D02*
G75*
G03*
X73035200Y-93573600I-950000J0D01*
G01*
%TO.C,TP3*%
X69657000Y-90297000D02*
G75*
G03*
X69657000Y-90297000I-950000J0D01*
G01*
%TO.C,R1*%
X68850742Y-69073500D02*
X69325258Y-69073500D01*
X68850742Y-70118500D02*
X69325258Y-70118500D01*
D10*
%TO.C,J1*%
X74610999Y-73970965D02*
X74160997Y-73970965D01*
X90160998Y-76470965D02*
X73160997Y-76470965D01*
X74160997Y-73970965D02*
X74160997Y-72570967D01*
X74610999Y-75370964D02*
X74610999Y-73970965D01*
X88710996Y-75370964D02*
X88710996Y-73970965D01*
X74610999Y-75370964D02*
X73160997Y-75370964D01*
X73160997Y-76470965D02*
X73160997Y-75370964D01*
X87860998Y-69770998D02*
X75460997Y-69770998D01*
X89160998Y-73970965D02*
X88710996Y-73970965D01*
X90160998Y-76470965D02*
X90160998Y-75370964D01*
X90160998Y-75370964D02*
X88710996Y-75370964D01*
X89160998Y-73970965D02*
X89160998Y-72570967D01*
D12*
X86285995Y-66920999D02*
G75*
G03*
X86285995Y-66920999I-125001J0D01*
G01*
D11*
%TO.C,TP4*%
X95717400Y-77724000D02*
G75*
G03*
X95717400Y-77724000I-950000J0D01*
G01*
%TO.C,TP2*%
X70190400Y-78130400D02*
G75*
G03*
X70190400Y-78130400I-950000J0D01*
G01*
%TO.C,TP7*%
X94650600Y-103124000D02*
G75*
G03*
X94650600Y-103124000I-950000J0D01*
G01*
%TO.C,TP5*%
X69631600Y-103657400D02*
G75*
G03*
X69631600Y-103657400I-950000J0D01*
G01*
%TO.C,TP1*%
X75575200Y-93573600D02*
G75*
G03*
X75575200Y-93573600I-950000J0D01*
G01*
%TO.C,Q1*%
X69596000Y-71084000D02*
X70246000Y-71084000D01*
X69596000Y-71084000D02*
X68946000Y-71084000D01*
X69596000Y-74204000D02*
X67921000Y-74204000D01*
X69596000Y-74204000D02*
X70246000Y-74204000D01*
%TO.C,TP8*%
X67320200Y-78130400D02*
G75*
G03*
X67320200Y-78130400I-950000J0D01*
G01*
%TO.C,TP10*%
X70495200Y-93573600D02*
G75*
G03*
X70495200Y-93573600I-950000J0D01*
G01*
%TO.C,TP6*%
X95768200Y-90830400D02*
G75*
G03*
X95768200Y-90830400I-950000J0D01*
G01*
%TO.C,R2*%
X69325258Y-75960500D02*
X68850742Y-75960500D01*
X69325258Y-74915500D02*
X68850742Y-74915500D01*
%TD*%
M02*
