M48
; DRILL file {KiCad (5.99.0-10573-gc33b2cfa8d)} date Thursday, May 20, 2021 at 09:02:07 AM
; FORMAT={-:-/ absolute / inch / decimal}
; #@! TF.CreationDate,2021-05-20T09:02:07+02:00
; #@! TF.GenerationSoftware,Kicad,Pcbnew,(5.99.0-10573-gc33b2cfa8d)
; #@! TF.FileFunction,Plated,1,4,PTH
FMAT,2
INCH
; #@! TA.AperFunction,Plated,PTH,ViaDrill
T1C0.0157
%
G90
G05
T1
X2.635Y-2.971
X2.657Y-3.828
X2.66Y-4.029
X2.6735Y-2.8574
X2.691Y-3.33
X2.712Y-3.796
X2.752Y-3.013
X2.763Y-2.822
X2.766Y-3.486
X2.777Y-3.988
X2.795Y-3.324
X2.795Y-3.842
X2.797Y-2.74
X2.81Y-3.016
X2.816Y-3.562
X2.82Y-4.057
X2.822Y-3.086
X2.831Y-3.489
X2.889Y-3.778
X2.91Y-2.699
X2.91Y-3.272
X2.93Y-3.11
X2.93Y-4.098
X2.931Y-3.607
X2.947Y-3.172
X2.964Y-3.487
X2.974Y-3.243
X2.981Y-2.937
X2.991Y-3.048
X2.992Y-2.693
X2.997Y-3.542
X2.999Y-4.033
X3.007Y-3.173
X3.034Y-3.825
X3.035Y-3.332
X3.038Y-2.761
X3.038Y-2.847
X3.078Y-2.791
X3.1136Y-2.9881
X3.127Y-3.487
X3.137Y-4.005
X3.141Y-2.898
X3.17Y-2.964
X3.1826Y-2.8632
X3.203Y-2.932
X3.222Y-2.837
X3.2289Y-2.8995
X3.249Y-2.996
X3.2613Y-2.8331
X3.268Y-2.893
X3.284Y-2.974
X3.289Y-3.013
X3.305Y-2.823
X3.31Y-2.894
X3.32Y-3.038
X3.331Y-3.332
X3.334Y-3.825
X3.3537Y-2.8568
X3.392Y-2.768
X3.417Y-3.988
X3.419Y-2.989
X3.427Y-3.492
X3.44Y-2.694
X3.466Y-3.555
X3.478Y-3.081
X3.478Y-3.995
X3.491Y-2.988
X3.506Y-3.243
X3.55Y-3.927
X3.552Y-3.236
X3.554Y-4.12
X3.581Y-3.116
X3.581Y-3.602
X3.62Y-2.994
X3.624Y-3.461
X3.636Y-3.996
X3.648Y-3.049
X3.649Y-3.541
X3.667Y-2.772
X3.675Y-2.845
X3.683Y-3.816
X3.686Y-3.323
X3.768Y-2.99
X3.777Y-3.981
X3.778Y-3.486
T0
M30
