%TF.GenerationSoftware,KiCad,Pcbnew,(5.99.0-10573-gc33b2cfa8d)*%
%TF.CreationDate,2021-05-20T09:22:53+02:00*%
%TF.ProjectId,sucker-one-ui-board,7375636b-6572-42d6-9f6e-652d75692d62,rev?*%
%TF.SameCoordinates,Original*%
%TF.FileFunction,Copper,L2,Inr*%
%TF.FilePolarity,Positive*%
%FSLAX46Y46*%
G04 Gerber Fmt 4.6, Leading zero omitted, Abs format (unit mm)*
G04 Created by KiCad (PCBNEW (5.99.0-10573-gc33b2cfa8d)) date 2021-05-20 09:22:53*
%MOMM*%
%LPD*%
G01*
G04 APERTURE LIST*
%TA.AperFunction,ViaPad*%
%ADD10C,0.800000*%
%TD*%
G04 APERTURE END LIST*
D10*
%TO.N,+3V3*%
X68884800Y-96418400D03*
%TO.N,REVERSE_BTN*%
X67564000Y-102336600D03*
%TO.N,LOW_BTN*%
X71907400Y-88620600D03*
%TO.N,DROP_BTN*%
X91948000Y-76047600D03*
%TO.N,LIFT_BTN*%
X71374000Y-76606400D03*
%TO.N,GND*%
X93141800Y-70408800D03*
%TO.N,TRIGGER_BTN*%
X89052400Y-82372200D03*
X83947000Y-71704200D03*
X84328000Y-77165200D03*
X84074000Y-73507600D03*
X90170000Y-99745800D03*
%TO.N,REVERSE_BTN*%
X83540600Y-76530200D03*
X74853800Y-80568800D03*
X76377800Y-80594200D03*
X82837036Y-71961472D03*
X83007200Y-73482200D03*
%TO.N,HIGH_BTN*%
X81838800Y-72059800D03*
X82014161Y-73646490D03*
X90220800Y-82194400D03*
X92049600Y-87909400D03*
X83413499Y-75538811D03*
%TO.N,LOW_BTN*%
X81356200Y-74472800D03*
X75539600Y-82372200D03*
X80837556Y-72726234D03*
X82524600Y-76098400D03*
X75285600Y-88569800D03*
%TO.N,DROP_BTN*%
X80518000Y-75285600D03*
X79781400Y-73609200D03*
X88671400Y-75895200D03*
%TO.N,LIFT_BTN*%
X75717400Y-74599800D03*
%TO.N,DO_HIGH*%
X73380600Y-95961200D03*
X70993000Y-97586800D03*
%TO.N,DO_DROP*%
X73914000Y-83108800D03*
X70993000Y-84429600D03*
%TO.N,LED_DATA*%
X70180200Y-71678800D03*
%TO.N,+3V3*%
X78181200Y-70891400D03*
%TO.N,GND*%
X73914000Y-68554600D03*
X87376000Y-68427600D03*
X86156800Y-70307200D03*
%TO.N,+5V*%
X71678800Y-78384400D03*
X88341200Y-78257400D03*
X88036400Y-90297000D03*
X71526400Y-90474800D03*
X71628000Y-103047800D03*
X88341200Y-101473000D03*
%TO.N,GND*%
X95935800Y-101117400D03*
%TO.N,+5V*%
X93548200Y-96926400D03*
%TO.N,GND*%
X86791800Y-101295200D03*
%TO.N,+5V*%
X84683600Y-97155000D03*
%TO.N,GND*%
X79679800Y-101727000D03*
%TO.N,+5V*%
X77063600Y-97155000D03*
%TO.N,GND*%
X70535800Y-101295200D03*
%TO.N,+5V*%
X67487800Y-97231200D03*
%TO.N,GND*%
X95961200Y-88544400D03*
%TO.N,+5V*%
X93624400Y-84404200D03*
%TO.N,GND*%
X87045800Y-88696800D03*
%TO.N,+5V*%
X84607400Y-84632800D03*
%TO.N,GND*%
X79425800Y-88569800D03*
%TO.N,+5V*%
X77089000Y-84632800D03*
%TO.N,GND*%
X70256400Y-88544400D03*
%TO.N,+5V*%
X68351400Y-84582000D03*
X93345000Y-72263000D03*
%TO.N,GND*%
X95707200Y-75946000D03*
X86842600Y-75920600D03*
%TO.N,+5V*%
X85185000Y-72563058D03*
%TO.N,GND*%
X79086158Y-75897278D03*
%TO.N,+5V*%
X77165200Y-72313800D03*
%TO.N,GND*%
X69900800Y-76530200D03*
%TO.N,+5V*%
X67906226Y-72577470D03*
%TO.N,GND*%
X74447400Y-91617800D03*
X76123800Y-89966800D03*
X90271600Y-104648000D03*
X92354400Y-101498400D03*
X92659200Y-77444600D03*
X74422000Y-104089200D03*
X74422000Y-78994000D03*
X75971400Y-77419200D03*
X76174600Y-102438200D03*
X92684600Y-89941400D03*
X90957400Y-79146400D03*
X90957400Y-91490800D03*
%TO.N,+5V*%
X75996800Y-68402200D03*
X77165200Y-70129400D03*
X66929000Y-75463400D03*
%TO.N,+3V3*%
X71043800Y-69596000D03*
%TD*%
%TA.AperFunction,Conductor*%
%TO.N,GND*%
G36*
X71261379Y-62998729D02*
G01*
X71501357Y-63011988D01*
X71508282Y-63012563D01*
X71520427Y-63013909D01*
X71566772Y-63019046D01*
X71573659Y-63020002D01*
X71810714Y-63059617D01*
X71817538Y-63060952D01*
X71874971Y-63073842D01*
X71881713Y-63075552D01*
X72112941Y-63141037D01*
X72119575Y-63143115D01*
X72175249Y-63162257D01*
X72181761Y-63164699D01*
X72404370Y-63255259D01*
X72410736Y-63258056D01*
X72463953Y-63283211D01*
X72470155Y-63286355D01*
X72598641Y-63356006D01*
X72681441Y-63400891D01*
X72687453Y-63404369D01*
X72737588Y-63435242D01*
X72743399Y-63439045D01*
X72940794Y-63576169D01*
X72946373Y-63580278D01*
X72992787Y-63616475D01*
X72998148Y-63620898D01*
X73179233Y-63778934D01*
X73179251Y-63778950D01*
X73184338Y-63783643D01*
X73226507Y-63824757D01*
X73231325Y-63829722D01*
X73351720Y-63960817D01*
X73393883Y-64006728D01*
X73398438Y-64011970D01*
X73410858Y-64027090D01*
X73435815Y-64057472D01*
X73440078Y-64062964D01*
X73514349Y-64164298D01*
X73582159Y-64256818D01*
X73586102Y-64262522D01*
X73609605Y-64298608D01*
X73618223Y-64311840D01*
X73621855Y-64317768D01*
X73647861Y-64362968D01*
X73741723Y-64526108D01*
X73745013Y-64532212D01*
X73747405Y-64536956D01*
X73771507Y-64584774D01*
X73774463Y-64591065D01*
X73870640Y-64811320D01*
X73873246Y-64817768D01*
X73893790Y-64872932D01*
X73896036Y-64879512D01*
X73967360Y-65109015D01*
X73969240Y-65115710D01*
X73983579Y-65172790D01*
X73985086Y-65179578D01*
X74030692Y-65415535D01*
X74031822Y-65422393D01*
X74038607Y-65472067D01*
X74039788Y-65480717D01*
X74040538Y-65487621D01*
X74059038Y-65716835D01*
X74059874Y-65727191D01*
X74060241Y-65734124D01*
X74062258Y-65813670D01*
X74062282Y-65818819D01*
X74060020Y-65962257D01*
X74065263Y-66003484D01*
X74065253Y-66005058D01*
X74065631Y-66006380D01*
X74065953Y-66008914D01*
X74065953Y-66008916D01*
X74070631Y-66045697D01*
X74074098Y-66072965D01*
X74077683Y-66081192D01*
X74087867Y-66104561D01*
X74104790Y-66143397D01*
X74105223Y-66144910D01*
X74105957Y-66146073D01*
X74132771Y-66207605D01*
X74181999Y-66266593D01*
X74182838Y-66267922D01*
X74183867Y-66268831D01*
X74198792Y-66286714D01*
X74221125Y-66313476D01*
X74221128Y-66313479D01*
X74226875Y-66320365D01*
X74290680Y-66363165D01*
X74291858Y-66364205D01*
X74293101Y-66364789D01*
X74295212Y-66366205D01*
X74295213Y-66366206D01*
X74322874Y-66384760D01*
X74348845Y-66402181D01*
X74357406Y-66404889D01*
X74416475Y-66423574D01*
X74416477Y-66423574D01*
X74422097Y-66425352D01*
X74423520Y-66426020D01*
X74424877Y-66426231D01*
X74488875Y-66446475D01*
X74568199Y-66448211D01*
X74626736Y-66449492D01*
X74626738Y-66449492D01*
X74635708Y-66449688D01*
X74644375Y-66447358D01*
X74653287Y-66446280D01*
X74653299Y-66446382D01*
X74675605Y-66443436D01*
X88671248Y-66443436D01*
X88690366Y-66446080D01*
X88690474Y-66445267D01*
X88699376Y-66446454D01*
X88708012Y-66448889D01*
X88780597Y-66448188D01*
X88845902Y-66447558D01*
X88845905Y-66447558D01*
X88854874Y-66447471D01*
X88873240Y-66441907D01*
X88915497Y-66429107D01*
X88915498Y-66429106D01*
X88919114Y-66428011D01*
X88920474Y-66427816D01*
X88921906Y-66427165D01*
X88995434Y-66404891D01*
X89002946Y-66399984D01*
X89002948Y-66399983D01*
X89048445Y-66370263D01*
X89051629Y-66368183D01*
X89052881Y-66367614D01*
X89054074Y-66366586D01*
X89118394Y-66324571D01*
X89162024Y-66273571D01*
X89163070Y-66272670D01*
X89163930Y-66271344D01*
X89166952Y-66267812D01*
X89166953Y-66267811D01*
X89208034Y-66219790D01*
X89208035Y-66219789D01*
X89213869Y-66212969D01*
X89241432Y-66151772D01*
X89242182Y-66150615D01*
X89242634Y-66149104D01*
X89274183Y-66079057D01*
X89283462Y-66012584D01*
X89283857Y-66011262D01*
X89283867Y-66009683D01*
X89290029Y-65965535D01*
X89287716Y-65818827D01*
X89287740Y-65813670D01*
X89287741Y-65813665D01*
X89288752Y-65773777D01*
X90162968Y-65773777D01*
X90164536Y-65813670D01*
X90165391Y-65835435D01*
X90165391Y-65835436D01*
X90173127Y-66032328D01*
X90173854Y-66050844D01*
X90223670Y-66323614D01*
X90249882Y-66402181D01*
X90303591Y-66563167D01*
X90311423Y-66586644D01*
X90360970Y-66685802D01*
X90418283Y-66800503D01*
X90435362Y-66834684D01*
X90593014Y-67062787D01*
X90596036Y-67066056D01*
X90778217Y-67263139D01*
X90778222Y-67263144D01*
X90781233Y-67266401D01*
X90996264Y-67441464D01*
X91000082Y-67443763D01*
X91000084Y-67443764D01*
X91225659Y-67579571D01*
X91233816Y-67584482D01*
X91332521Y-67626279D01*
X91485046Y-67690865D01*
X91485051Y-67690867D01*
X91489149Y-67692602D01*
X91493446Y-67693741D01*
X91493451Y-67693743D01*
X91605067Y-67723337D01*
X91757169Y-67763666D01*
X92032529Y-67796257D01*
X92309734Y-67789724D01*
X92314132Y-67788992D01*
X92578862Y-67744929D01*
X92578866Y-67744928D01*
X92583252Y-67744198D01*
X92587493Y-67742857D01*
X92587496Y-67742856D01*
X92843381Y-67661930D01*
X92843383Y-67661929D01*
X92847627Y-67660587D01*
X92851638Y-67658661D01*
X92851643Y-67658659D01*
X93093565Y-67542490D01*
X93093566Y-67542489D01*
X93097584Y-67540560D01*
X93213500Y-67463107D01*
X93324428Y-67388988D01*
X93324432Y-67388985D01*
X93328136Y-67386510D01*
X93331453Y-67383539D01*
X93331457Y-67383536D01*
X93531363Y-67204485D01*
X93531364Y-67204484D01*
X93534681Y-67201513D01*
X93713099Y-66989258D01*
X93849481Y-66770577D01*
X93857473Y-66757763D01*
X93857473Y-66757762D01*
X93859831Y-66753982D01*
X93971948Y-66500379D01*
X94047213Y-66233507D01*
X94049055Y-66219790D01*
X94083698Y-65961876D01*
X94083699Y-65961868D01*
X94084125Y-65958694D01*
X94086509Y-65882835D01*
X94087898Y-65838658D01*
X94087898Y-65838653D01*
X94087999Y-65835436D01*
X94086458Y-65813665D01*
X94078552Y-65702015D01*
X94068415Y-65558847D01*
X94051595Y-65480717D01*
X94010992Y-65292123D01*
X94010991Y-65292121D01*
X94010056Y-65287776D01*
X93914084Y-65027633D01*
X93826614Y-64865522D01*
X93784528Y-64787524D01*
X93782415Y-64783608D01*
X93617676Y-64560569D01*
X93575582Y-64517808D01*
X93426285Y-64366149D01*
X93423154Y-64362968D01*
X93419614Y-64360267D01*
X93419608Y-64360261D01*
X93206271Y-64197448D01*
X93202731Y-64194746D01*
X93198842Y-64192568D01*
X92964690Y-64061436D01*
X92964687Y-64061435D01*
X92960804Y-64059260D01*
X92956665Y-64057659D01*
X92956657Y-64057655D01*
X92765014Y-63983515D01*
X92702200Y-63959214D01*
X92697879Y-63958212D01*
X92697871Y-63958210D01*
X92519929Y-63916966D01*
X92432080Y-63896604D01*
X92155832Y-63872678D01*
X92151397Y-63872922D01*
X92151393Y-63872922D01*
X91883413Y-63887670D01*
X91883406Y-63887671D01*
X91878970Y-63887915D01*
X91607016Y-63942010D01*
X91602806Y-63943488D01*
X91602804Y-63943489D01*
X91449557Y-63997306D01*
X91345398Y-64033884D01*
X91099334Y-64161703D01*
X91095707Y-64164295D01*
X91095702Y-64164298D01*
X91056143Y-64192568D01*
X90873736Y-64322919D01*
X90831754Y-64362968D01*
X90709269Y-64479812D01*
X90673103Y-64514312D01*
X90501440Y-64732066D01*
X90455417Y-64811300D01*
X90364405Y-64967988D01*
X90364402Y-64967994D01*
X90362171Y-64971835D01*
X90360501Y-64975958D01*
X90278027Y-65179578D01*
X90258075Y-65228836D01*
X90257004Y-65233149D01*
X90257002Y-65233154D01*
X90193787Y-65487640D01*
X90191229Y-65497939D01*
X90190775Y-65502367D01*
X90190775Y-65502369D01*
X90171295Y-65692500D01*
X90162968Y-65773777D01*
X89288752Y-65773777D01*
X89288864Y-65769345D01*
X89289757Y-65734126D01*
X89290125Y-65727184D01*
X89309458Y-65487640D01*
X89310209Y-65480727D01*
X89318175Y-65422397D01*
X89319306Y-65415535D01*
X89364913Y-65179574D01*
X89366420Y-65172786D01*
X89380758Y-65115711D01*
X89382638Y-65109016D01*
X89453961Y-64879516D01*
X89456206Y-64872938D01*
X89468583Y-64839702D01*
X89476764Y-64817734D01*
X89479357Y-64811320D01*
X89575537Y-64591059D01*
X89578494Y-64584767D01*
X89604976Y-64532230D01*
X89608276Y-64526108D01*
X89728148Y-64317760D01*
X89731781Y-64311831D01*
X89763884Y-64262540D01*
X89767838Y-64256820D01*
X89866706Y-64121924D01*
X89909940Y-64062936D01*
X89914165Y-64057492D01*
X89951572Y-64011955D01*
X89956070Y-64006778D01*
X90078871Y-63873062D01*
X90118674Y-63829722D01*
X90123516Y-63824733D01*
X90165654Y-63783649D01*
X90170765Y-63778934D01*
X90351846Y-63620901D01*
X90357211Y-63616474D01*
X90403613Y-63580288D01*
X90409211Y-63576166D01*
X90606599Y-63439045D01*
X90612419Y-63435236D01*
X90662540Y-63404373D01*
X90668557Y-63400892D01*
X90879851Y-63286350D01*
X90886044Y-63283211D01*
X90939298Y-63258038D01*
X90945614Y-63255264D01*
X91069751Y-63204763D01*
X91168214Y-63164708D01*
X91174724Y-63162267D01*
X91230440Y-63143110D01*
X91237076Y-63141031D01*
X91468282Y-63075553D01*
X91475021Y-63073844D01*
X91532459Y-63060952D01*
X91539261Y-63059621D01*
X91776371Y-63019997D01*
X91783220Y-63019046D01*
X91841722Y-63012562D01*
X91848624Y-63011989D01*
X92088621Y-62998729D01*
X92095572Y-62998537D01*
X92154428Y-62998537D01*
X92161379Y-62998729D01*
X92401357Y-63011988D01*
X92408282Y-63012563D01*
X92420427Y-63013909D01*
X92466772Y-63019046D01*
X92473659Y-63020002D01*
X92710714Y-63059617D01*
X92717538Y-63060952D01*
X92774971Y-63073842D01*
X92781713Y-63075552D01*
X93012941Y-63141037D01*
X93019575Y-63143115D01*
X93075249Y-63162257D01*
X93081761Y-63164699D01*
X93304370Y-63255259D01*
X93310736Y-63258056D01*
X93363953Y-63283211D01*
X93370155Y-63286355D01*
X93498641Y-63356006D01*
X93581441Y-63400891D01*
X93587453Y-63404369D01*
X93637588Y-63435242D01*
X93643399Y-63439045D01*
X93840794Y-63576169D01*
X93846373Y-63580278D01*
X93892787Y-63616475D01*
X93898148Y-63620898D01*
X94079233Y-63778934D01*
X94079251Y-63778950D01*
X94084338Y-63783643D01*
X94126507Y-63824757D01*
X94131325Y-63829722D01*
X94251720Y-63960817D01*
X94293883Y-64006728D01*
X94298438Y-64011970D01*
X94310858Y-64027090D01*
X94335815Y-64057472D01*
X94340078Y-64062964D01*
X94414349Y-64164298D01*
X94482159Y-64256818D01*
X94486102Y-64262522D01*
X94509605Y-64298608D01*
X94518223Y-64311840D01*
X94521855Y-64317768D01*
X94547861Y-64362968D01*
X94641723Y-64526108D01*
X94645013Y-64532212D01*
X94647405Y-64536956D01*
X94671507Y-64584774D01*
X94674463Y-64591065D01*
X94770640Y-64811320D01*
X94773246Y-64817768D01*
X94793790Y-64872932D01*
X94796036Y-64879512D01*
X94867360Y-65109015D01*
X94869240Y-65115710D01*
X94883579Y-65172790D01*
X94885086Y-65179578D01*
X94930692Y-65415535D01*
X94931822Y-65422393D01*
X94938607Y-65472067D01*
X94939788Y-65480717D01*
X94940538Y-65487621D01*
X94959038Y-65716835D01*
X94959874Y-65727191D01*
X94960241Y-65734124D01*
X94962258Y-65813670D01*
X94962282Y-65818819D01*
X94960020Y-65962257D01*
X94965263Y-66003484D01*
X94965253Y-66005058D01*
X94965631Y-66006380D01*
X94965953Y-66008914D01*
X94965953Y-66008916D01*
X94970631Y-66045697D01*
X94974098Y-66072965D01*
X94977683Y-66081192D01*
X94987867Y-66104561D01*
X95004790Y-66143397D01*
X95005223Y-66144910D01*
X95005957Y-66146073D01*
X95032771Y-66207605D01*
X95081999Y-66266593D01*
X95082838Y-66267922D01*
X95083867Y-66268831D01*
X95098792Y-66286714D01*
X95121125Y-66313476D01*
X95121128Y-66313479D01*
X95126875Y-66320365D01*
X95190680Y-66363165D01*
X95191858Y-66364205D01*
X95193101Y-66364789D01*
X95195212Y-66366205D01*
X95195213Y-66366206D01*
X95222874Y-66384760D01*
X95248845Y-66402181D01*
X95257406Y-66404889D01*
X95316475Y-66423574D01*
X95316477Y-66423574D01*
X95322097Y-66425352D01*
X95323520Y-66426020D01*
X95324877Y-66426231D01*
X95388875Y-66446475D01*
X95468199Y-66448211D01*
X95526736Y-66449492D01*
X95526738Y-66449492D01*
X95535708Y-66449688D01*
X95544375Y-66447358D01*
X95553287Y-66446280D01*
X95553299Y-66446382D01*
X95575605Y-66443436D01*
X96843009Y-66443436D01*
X96864151Y-66445222D01*
X96874766Y-66447029D01*
X96874770Y-66447029D01*
X96879562Y-66447845D01*
X96884430Y-66447914D01*
X96884432Y-66447914D01*
X96952256Y-66448872D01*
X97023489Y-66449879D01*
X97028756Y-66450064D01*
X97052233Y-66451382D01*
X97102828Y-66454224D01*
X97109869Y-66454818D01*
X97341261Y-66480889D01*
X97348259Y-66481877D01*
X97376618Y-66486695D01*
X97401908Y-66490992D01*
X97408824Y-66492368D01*
X97443924Y-66500379D01*
X97635853Y-66544186D01*
X97642696Y-66545951D01*
X97695002Y-66561020D01*
X97701736Y-66563167D01*
X97836184Y-66610212D01*
X97921542Y-66640080D01*
X97928117Y-66642590D01*
X97949174Y-66651312D01*
X97978380Y-66663410D01*
X97984829Y-66666296D01*
X98194626Y-66767328D01*
X98200905Y-66770572D01*
X98248564Y-66796912D01*
X98254652Y-66800503D01*
X98451812Y-66924388D01*
X98457688Y-66928314D01*
X98502033Y-66959778D01*
X98507680Y-66964028D01*
X98689776Y-67109244D01*
X98695154Y-67113784D01*
X98735744Y-67150058D01*
X98740871Y-67154906D01*
X98905521Y-67319556D01*
X98910377Y-67324692D01*
X98946641Y-67365272D01*
X98951201Y-67370671D01*
X99096399Y-67552743D01*
X99100648Y-67558390D01*
X99132120Y-67602745D01*
X99136042Y-67608615D01*
X99188815Y-67692602D01*
X99259938Y-67805794D01*
X99263529Y-67811881D01*
X99289858Y-67859519D01*
X99293089Y-67865773D01*
X99394149Y-68075624D01*
X99397024Y-68082051D01*
X99417841Y-68132309D01*
X99420359Y-68138904D01*
X99497279Y-68358729D01*
X99499418Y-68365440D01*
X99514486Y-68417745D01*
X99516251Y-68424588D01*
X99568066Y-68651606D01*
X99569444Y-68658533D01*
X99578563Y-68712204D01*
X99579541Y-68719131D01*
X99589204Y-68804886D01*
X99605617Y-68950559D01*
X99606211Y-68957601D01*
X99610371Y-69031671D01*
X99610556Y-69036954D01*
X99612544Y-69177596D01*
X99613242Y-69182023D01*
X99615462Y-69196104D01*
X99616999Y-69215727D01*
X99616999Y-104053447D01*
X99615213Y-104074589D01*
X99612590Y-104090000D01*
X99612521Y-104094868D01*
X99612521Y-104094870D01*
X99610556Y-104233919D01*
X99610371Y-104239204D01*
X99606211Y-104313266D01*
X99605617Y-104320307D01*
X99579546Y-104551700D01*
X99578558Y-104558698D01*
X99569445Y-104612335D01*
X99568069Y-104619252D01*
X99536414Y-104757944D01*
X99516246Y-104846305D01*
X99514481Y-104853146D01*
X99499415Y-104905443D01*
X99497283Y-104912132D01*
X99420361Y-105131963D01*
X99417840Y-105138566D01*
X99397021Y-105188826D01*
X99394135Y-105195276D01*
X99293100Y-105405078D01*
X99289857Y-105411356D01*
X99263521Y-105459008D01*
X99259947Y-105465066D01*
X99222067Y-105525352D01*
X99136053Y-105662242D01*
X99132126Y-105668119D01*
X99100645Y-105712487D01*
X99096396Y-105718134D01*
X98951201Y-105900202D01*
X98946641Y-105905601D01*
X98910377Y-105946181D01*
X98905521Y-105951317D01*
X98740881Y-106115957D01*
X98735744Y-106120814D01*
X98695150Y-106157090D01*
X98689752Y-106161648D01*
X98507719Y-106306816D01*
X98502073Y-106311066D01*
X98477404Y-106328570D01*
X98457666Y-106342575D01*
X98451814Y-106346485D01*
X98254611Y-106470395D01*
X98248568Y-106473960D01*
X98200931Y-106500288D01*
X98194653Y-106503531D01*
X97984820Y-106604581D01*
X97978371Y-106607467D01*
X97961158Y-106614597D01*
X97928130Y-106628278D01*
X97921563Y-106630785D01*
X97760023Y-106687311D01*
X97701724Y-106707710D01*
X97694990Y-106709857D01*
X97642695Y-106724923D01*
X97635851Y-106726688D01*
X97408829Y-106778504D01*
X97401900Y-106779882D01*
X97390802Y-106781768D01*
X97348246Y-106788998D01*
X97341294Y-106789981D01*
X97150308Y-106811500D01*
X97109877Y-106816055D01*
X97102835Y-106816649D01*
X97059742Y-106819069D01*
X97028761Y-106820809D01*
X97023481Y-106820994D01*
X96882839Y-106822982D01*
X96878411Y-106823680D01*
X96878412Y-106823680D01*
X96864331Y-106825900D01*
X96844708Y-106827437D01*
X96163855Y-106827437D01*
X95078749Y-106827436D01*
X95059631Y-106824792D01*
X95059523Y-106825605D01*
X95050621Y-106824418D01*
X95041985Y-106821983D01*
X94964932Y-106822727D01*
X94904100Y-106823314D01*
X94904098Y-106823314D01*
X94895123Y-106823401D01*
X94886531Y-106826004D01*
X94886530Y-106826004D01*
X94881803Y-106827436D01*
X94830875Y-106842864D01*
X94829525Y-106843057D01*
X94828104Y-106843703D01*
X94754563Y-106865981D01*
X94698358Y-106902695D01*
X94697118Y-106903259D01*
X94695937Y-106904277D01*
X94692086Y-106906793D01*
X94692085Y-106906793D01*
X94685968Y-106910789D01*
X94631603Y-106946301D01*
X94587964Y-106997311D01*
X94586929Y-106998203D01*
X94586078Y-106999515D01*
X94536128Y-107057903D01*
X94508559Y-107119114D01*
X94507817Y-107120258D01*
X94507370Y-107121753D01*
X94475814Y-107191815D01*
X94474573Y-107200703D01*
X94474573Y-107200704D01*
X94472270Y-107217206D01*
X94466533Y-107258302D01*
X94466142Y-107259611D01*
X94466132Y-107261174D01*
X94459968Y-107305337D01*
X94462020Y-107435436D01*
X94462281Y-107452021D01*
X94462257Y-107457180D01*
X94461745Y-107477386D01*
X94460240Y-107536746D01*
X94459872Y-107543688D01*
X94440539Y-107783234D01*
X94439789Y-107790141D01*
X94431821Y-107848485D01*
X94430697Y-107855305D01*
X94405185Y-107987304D01*
X94385086Y-108091289D01*
X94383579Y-108098076D01*
X94369237Y-108155169D01*
X94367358Y-108161861D01*
X94296033Y-108391368D01*
X94293791Y-108397934D01*
X94293790Y-108397939D01*
X94273241Y-108453115D01*
X94270643Y-108459542D01*
X94215651Y-108585481D01*
X94174466Y-108679800D01*
X94171509Y-108686092D01*
X94145013Y-108738657D01*
X94141724Y-108744759D01*
X94021844Y-108953120D01*
X94018232Y-108959016D01*
X93986099Y-109008353D01*
X93982158Y-109014052D01*
X93840071Y-109207913D01*
X93835808Y-109213406D01*
X93798453Y-109258881D01*
X93793893Y-109264130D01*
X93631331Y-109441142D01*
X93626487Y-109446132D01*
X93584332Y-109487232D01*
X93579232Y-109491938D01*
X93508109Y-109554009D01*
X93398167Y-109649957D01*
X93392833Y-109654360D01*
X93346342Y-109690616D01*
X93340762Y-109694724D01*
X93143380Y-109831839D01*
X93137583Y-109835634D01*
X93087472Y-109866492D01*
X93081470Y-109869963D01*
X92870155Y-109984517D01*
X92863952Y-109987661D01*
X92810741Y-110012813D01*
X92804375Y-110015610D01*
X92581760Y-110106172D01*
X92575248Y-110108614D01*
X92519562Y-110127760D01*
X92512927Y-110129838D01*
X92341478Y-110178393D01*
X92281700Y-110195322D01*
X92274984Y-110197026D01*
X92217538Y-110209919D01*
X92210725Y-110211252D01*
X91973659Y-110250869D01*
X91966772Y-110251825D01*
X91908275Y-110258309D01*
X91901345Y-110258884D01*
X91661379Y-110272142D01*
X91654428Y-110272334D01*
X91595570Y-110272334D01*
X91588619Y-110272142D01*
X91348646Y-110258883D01*
X91341716Y-110258308D01*
X91283225Y-110251825D01*
X91276338Y-110250869D01*
X91039284Y-110211254D01*
X91032459Y-110209919D01*
X91032450Y-110209917D01*
X90975014Y-110197026D01*
X90968282Y-110195318D01*
X90737055Y-110129834D01*
X90730421Y-110127756D01*
X90710679Y-110120968D01*
X90674747Y-110108614D01*
X90668267Y-110106184D01*
X90445592Y-110015597D01*
X90439250Y-110012811D01*
X90386071Y-109987673D01*
X90379871Y-109984530D01*
X90168553Y-109869977D01*
X90162533Y-109866495D01*
X90112422Y-109835637D01*
X90106605Y-109831830D01*
X90019933Y-109771622D01*
X89909211Y-109694707D01*
X89903624Y-109690592D01*
X89857210Y-109654394D01*
X89851848Y-109649970D01*
X89670767Y-109491938D01*
X89665656Y-109487222D01*
X89623502Y-109446122D01*
X89618660Y-109441134D01*
X89528402Y-109342856D01*
X89456092Y-109264119D01*
X89451570Y-109258913D01*
X89414170Y-109213384D01*
X89409939Y-109207934D01*
X89267827Y-109014035D01*
X89263908Y-109008366D01*
X89231777Y-108959032D01*
X89231767Y-108959016D01*
X89228135Y-108953089D01*
X89131302Y-108784785D01*
X89108279Y-108744768D01*
X89104984Y-108738656D01*
X89078491Y-108686097D01*
X89075534Y-108679805D01*
X88979363Y-108459563D01*
X88979355Y-108459544D01*
X88976755Y-108453111D01*
X88956208Y-108397939D01*
X88953962Y-108391359D01*
X88952637Y-108387093D01*
X88882640Y-108161862D01*
X88880760Y-108155166D01*
X88866420Y-108098081D01*
X88864913Y-108091294D01*
X88819308Y-107855347D01*
X88818177Y-107848485D01*
X88818176Y-107848474D01*
X88810208Y-107790135D01*
X88809458Y-107783228D01*
X88790124Y-107543671D01*
X88789758Y-107536757D01*
X88787741Y-107457180D01*
X88787717Y-107452054D01*
X88788951Y-107373777D01*
X89662968Y-107373777D01*
X89664111Y-107402863D01*
X89665391Y-107435435D01*
X89665391Y-107435436D01*
X89673127Y-107632328D01*
X89673854Y-107650844D01*
X89723670Y-107923614D01*
X89746508Y-107992069D01*
X89795593Y-108139194D01*
X89811423Y-108186644D01*
X89873655Y-108311189D01*
X89931103Y-108426160D01*
X89935362Y-108434684D01*
X90093014Y-108662787D01*
X90096036Y-108666056D01*
X90278217Y-108863139D01*
X90278222Y-108863144D01*
X90281233Y-108866401D01*
X90496264Y-109041464D01*
X90500082Y-109043763D01*
X90500084Y-109043764D01*
X90709810Y-109170029D01*
X90733816Y-109184482D01*
X90789150Y-109207913D01*
X90985046Y-109290865D01*
X90985051Y-109290867D01*
X90989149Y-109292602D01*
X90993446Y-109293741D01*
X90993451Y-109293743D01*
X91123159Y-109328134D01*
X91257169Y-109363666D01*
X91532529Y-109396257D01*
X91809734Y-109389724D01*
X91814132Y-109388992D01*
X92078862Y-109344929D01*
X92078866Y-109344928D01*
X92083252Y-109344198D01*
X92087493Y-109342857D01*
X92087496Y-109342856D01*
X92343381Y-109261930D01*
X92343383Y-109261929D01*
X92347627Y-109260587D01*
X92351638Y-109258661D01*
X92351643Y-109258659D01*
X92593565Y-109142490D01*
X92593566Y-109142489D01*
X92597584Y-109140560D01*
X92713500Y-109063107D01*
X92824428Y-108988988D01*
X92824432Y-108988985D01*
X92828136Y-108986510D01*
X92831453Y-108983539D01*
X92831457Y-108983536D01*
X93031363Y-108804485D01*
X93031364Y-108804484D01*
X93034681Y-108801513D01*
X93213099Y-108589258D01*
X93359831Y-108353982D01*
X93471948Y-108100379D01*
X93547213Y-107833507D01*
X93551536Y-107801325D01*
X93583698Y-107561876D01*
X93583699Y-107561868D01*
X93584125Y-107558694D01*
X93584226Y-107555483D01*
X93587898Y-107438658D01*
X93587898Y-107438653D01*
X93587999Y-107435436D01*
X93568415Y-107158847D01*
X93566157Y-107148356D01*
X93510992Y-106892123D01*
X93510991Y-106892121D01*
X93510056Y-106887776D01*
X93414084Y-106627633D01*
X93405535Y-106611788D01*
X93284528Y-106387524D01*
X93282415Y-106383608D01*
X93117676Y-106160569D01*
X93114252Y-106157090D01*
X92926285Y-105966149D01*
X92923154Y-105962968D01*
X92919614Y-105960267D01*
X92919608Y-105960261D01*
X92706271Y-105797448D01*
X92702731Y-105794746D01*
X92698842Y-105792568D01*
X92464690Y-105661436D01*
X92464687Y-105661435D01*
X92460804Y-105659260D01*
X92456665Y-105657659D01*
X92456657Y-105657655D01*
X92265014Y-105583515D01*
X92202200Y-105559214D01*
X92197879Y-105558212D01*
X92197871Y-105558210D01*
X92019929Y-105516966D01*
X91932080Y-105496604D01*
X91655832Y-105472678D01*
X91651397Y-105472922D01*
X91651393Y-105472922D01*
X91383413Y-105487670D01*
X91383406Y-105487671D01*
X91378970Y-105487915D01*
X91107016Y-105542010D01*
X91102806Y-105543488D01*
X91102804Y-105543489D01*
X91037384Y-105566463D01*
X90845398Y-105633884D01*
X90599334Y-105761703D01*
X90595707Y-105764295D01*
X90595702Y-105764298D01*
X90556143Y-105792568D01*
X90373736Y-105922919D01*
X90173103Y-106114312D01*
X90001440Y-106332066D01*
X89938687Y-106440102D01*
X89864405Y-106567988D01*
X89864402Y-106567994D01*
X89862171Y-106571835D01*
X89860501Y-106575958D01*
X89759794Y-106824593D01*
X89758075Y-106828836D01*
X89757004Y-106833149D01*
X89757002Y-106833154D01*
X89702869Y-107051080D01*
X89691229Y-107097939D01*
X89690775Y-107102367D01*
X89690775Y-107102369D01*
X89673269Y-107273238D01*
X89662968Y-107373777D01*
X88788951Y-107373777D01*
X88789979Y-107308616D01*
X88784736Y-107267389D01*
X88784746Y-107265815D01*
X88784368Y-107264493D01*
X88783753Y-107259651D01*
X88777033Y-107206812D01*
X88775901Y-107197908D01*
X88769680Y-107183631D01*
X88747572Y-107132898D01*
X88747571Y-107132897D01*
X88745209Y-107127476D01*
X88744776Y-107125963D01*
X88744042Y-107124800D01*
X88717228Y-107063268D01*
X88668000Y-107004280D01*
X88667161Y-107002951D01*
X88666132Y-107002042D01*
X88651207Y-106984159D01*
X88628874Y-106957397D01*
X88628871Y-106957394D01*
X88623124Y-106950508D01*
X88559319Y-106907708D01*
X88558141Y-106906668D01*
X88556898Y-106906084D01*
X88554205Y-106904277D01*
X88508611Y-106873694D01*
X88501154Y-106868692D01*
X88484355Y-106863378D01*
X88433524Y-106847299D01*
X88433522Y-106847299D01*
X88427902Y-106845521D01*
X88426479Y-106844853D01*
X88425122Y-106844642D01*
X88361124Y-106824398D01*
X88281800Y-106822662D01*
X88223263Y-106821381D01*
X88223261Y-106821381D01*
X88214291Y-106821185D01*
X88205624Y-106823515D01*
X88196712Y-106824593D01*
X88196700Y-106824491D01*
X88174394Y-106827437D01*
X81775101Y-106827437D01*
X75178748Y-106827436D01*
X75159631Y-106824793D01*
X75159523Y-106825606D01*
X75150626Y-106824420D01*
X75141985Y-106821983D01*
X75068554Y-106822692D01*
X75004100Y-106823314D01*
X75004098Y-106823314D01*
X74995123Y-106823401D01*
X74986531Y-106826004D01*
X74986530Y-106826004D01*
X74981803Y-106827436D01*
X74930875Y-106842864D01*
X74929525Y-106843057D01*
X74928104Y-106843703D01*
X74854563Y-106865981D01*
X74798358Y-106902695D01*
X74797118Y-106903259D01*
X74795937Y-106904277D01*
X74792086Y-106906793D01*
X74792085Y-106906793D01*
X74785968Y-106910789D01*
X74731603Y-106946301D01*
X74687964Y-106997311D01*
X74686929Y-106998203D01*
X74686078Y-106999515D01*
X74636128Y-107057903D01*
X74608559Y-107119114D01*
X74607817Y-107120258D01*
X74607370Y-107121753D01*
X74575814Y-107191815D01*
X74574573Y-107200703D01*
X74574573Y-107200704D01*
X74572270Y-107217206D01*
X74566533Y-107258302D01*
X74566142Y-107259611D01*
X74566132Y-107261174D01*
X74559968Y-107305337D01*
X74562020Y-107435436D01*
X74562281Y-107452021D01*
X74562257Y-107457180D01*
X74561745Y-107477386D01*
X74560240Y-107536746D01*
X74559872Y-107543688D01*
X74540539Y-107783234D01*
X74539789Y-107790141D01*
X74531821Y-107848485D01*
X74530697Y-107855305D01*
X74505185Y-107987304D01*
X74485086Y-108091289D01*
X74483579Y-108098076D01*
X74469237Y-108155169D01*
X74467358Y-108161861D01*
X74396033Y-108391368D01*
X74393791Y-108397934D01*
X74393790Y-108397939D01*
X74373241Y-108453115D01*
X74370643Y-108459542D01*
X74315651Y-108585481D01*
X74274466Y-108679800D01*
X74271509Y-108686092D01*
X74245013Y-108738657D01*
X74241724Y-108744759D01*
X74121844Y-108953120D01*
X74118232Y-108959016D01*
X74086099Y-109008353D01*
X74082158Y-109014052D01*
X73940071Y-109207913D01*
X73935808Y-109213406D01*
X73898453Y-109258881D01*
X73893893Y-109264130D01*
X73731331Y-109441142D01*
X73726487Y-109446132D01*
X73684332Y-109487232D01*
X73679232Y-109491938D01*
X73608109Y-109554009D01*
X73498167Y-109649957D01*
X73492833Y-109654360D01*
X73446342Y-109690616D01*
X73440762Y-109694724D01*
X73243380Y-109831839D01*
X73237583Y-109835634D01*
X73187472Y-109866492D01*
X73181470Y-109869963D01*
X72970155Y-109984517D01*
X72963952Y-109987661D01*
X72910741Y-110012813D01*
X72904375Y-110015610D01*
X72681760Y-110106172D01*
X72675248Y-110108614D01*
X72619562Y-110127760D01*
X72612927Y-110129838D01*
X72441478Y-110178393D01*
X72381700Y-110195322D01*
X72374984Y-110197026D01*
X72317538Y-110209919D01*
X72310725Y-110211252D01*
X72073659Y-110250869D01*
X72066772Y-110251825D01*
X72008275Y-110258309D01*
X72001345Y-110258884D01*
X71761379Y-110272142D01*
X71754428Y-110272334D01*
X71695570Y-110272334D01*
X71688619Y-110272142D01*
X71448646Y-110258883D01*
X71441716Y-110258308D01*
X71383225Y-110251825D01*
X71376338Y-110250869D01*
X71139284Y-110211254D01*
X71132459Y-110209919D01*
X71132450Y-110209917D01*
X71075014Y-110197026D01*
X71068282Y-110195318D01*
X70837055Y-110129834D01*
X70830421Y-110127756D01*
X70810679Y-110120968D01*
X70774747Y-110108614D01*
X70768267Y-110106184D01*
X70545592Y-110015597D01*
X70539250Y-110012811D01*
X70486071Y-109987673D01*
X70479871Y-109984530D01*
X70268553Y-109869977D01*
X70262533Y-109866495D01*
X70212422Y-109835637D01*
X70206605Y-109831830D01*
X70119933Y-109771622D01*
X70009211Y-109694707D01*
X70003624Y-109690592D01*
X69957210Y-109654394D01*
X69951848Y-109649970D01*
X69770767Y-109491938D01*
X69765656Y-109487222D01*
X69723502Y-109446122D01*
X69718660Y-109441134D01*
X69628402Y-109342856D01*
X69556092Y-109264119D01*
X69551570Y-109258913D01*
X69514170Y-109213384D01*
X69509939Y-109207934D01*
X69367827Y-109014035D01*
X69363908Y-109008366D01*
X69331777Y-108959032D01*
X69331767Y-108959016D01*
X69328135Y-108953089D01*
X69231302Y-108784785D01*
X69208279Y-108744768D01*
X69204984Y-108738656D01*
X69178491Y-108686097D01*
X69175534Y-108679805D01*
X69079363Y-108459563D01*
X69079355Y-108459544D01*
X69076755Y-108453111D01*
X69056208Y-108397939D01*
X69053962Y-108391359D01*
X69052637Y-108387093D01*
X68982640Y-108161862D01*
X68980760Y-108155166D01*
X68966420Y-108098081D01*
X68964913Y-108091294D01*
X68919308Y-107855347D01*
X68918177Y-107848485D01*
X68918176Y-107848474D01*
X68910208Y-107790135D01*
X68909458Y-107783228D01*
X68890124Y-107543671D01*
X68889758Y-107536757D01*
X68887741Y-107457180D01*
X68887717Y-107452054D01*
X68888951Y-107373777D01*
X69762968Y-107373777D01*
X69764111Y-107402863D01*
X69765391Y-107435435D01*
X69765391Y-107435436D01*
X69773127Y-107632328D01*
X69773854Y-107650844D01*
X69823670Y-107923614D01*
X69846508Y-107992069D01*
X69895593Y-108139194D01*
X69911423Y-108186644D01*
X69973655Y-108311189D01*
X70031103Y-108426160D01*
X70035362Y-108434684D01*
X70193014Y-108662787D01*
X70196036Y-108666056D01*
X70378217Y-108863139D01*
X70378222Y-108863144D01*
X70381233Y-108866401D01*
X70596264Y-109041464D01*
X70600082Y-109043763D01*
X70600084Y-109043764D01*
X70809810Y-109170029D01*
X70833816Y-109184482D01*
X70889150Y-109207913D01*
X71085046Y-109290865D01*
X71085051Y-109290867D01*
X71089149Y-109292602D01*
X71093446Y-109293741D01*
X71093451Y-109293743D01*
X71223159Y-109328134D01*
X71357169Y-109363666D01*
X71632529Y-109396257D01*
X71909734Y-109389724D01*
X71914132Y-109388992D01*
X72178862Y-109344929D01*
X72178866Y-109344928D01*
X72183252Y-109344198D01*
X72187493Y-109342857D01*
X72187496Y-109342856D01*
X72443381Y-109261930D01*
X72443383Y-109261929D01*
X72447627Y-109260587D01*
X72451638Y-109258661D01*
X72451643Y-109258659D01*
X72693565Y-109142490D01*
X72693566Y-109142489D01*
X72697584Y-109140560D01*
X72813500Y-109063107D01*
X72924428Y-108988988D01*
X72924432Y-108988985D01*
X72928136Y-108986510D01*
X72931453Y-108983539D01*
X72931457Y-108983536D01*
X73131363Y-108804485D01*
X73131364Y-108804484D01*
X73134681Y-108801513D01*
X73313099Y-108589258D01*
X73459831Y-108353982D01*
X73571948Y-108100379D01*
X73647213Y-107833507D01*
X73651536Y-107801325D01*
X73683698Y-107561876D01*
X73683699Y-107561868D01*
X73684125Y-107558694D01*
X73684226Y-107555483D01*
X73687898Y-107438658D01*
X73687898Y-107438653D01*
X73687999Y-107435436D01*
X73668415Y-107158847D01*
X73666157Y-107148356D01*
X73610992Y-106892123D01*
X73610991Y-106892121D01*
X73610056Y-106887776D01*
X73514084Y-106627633D01*
X73505535Y-106611788D01*
X73384528Y-106387524D01*
X73382415Y-106383608D01*
X73217676Y-106160569D01*
X73214252Y-106157090D01*
X73026285Y-105966149D01*
X73023154Y-105962968D01*
X73019614Y-105960267D01*
X73019608Y-105960261D01*
X72806271Y-105797448D01*
X72802731Y-105794746D01*
X72798842Y-105792568D01*
X72564690Y-105661436D01*
X72564687Y-105661435D01*
X72560804Y-105659260D01*
X72556665Y-105657659D01*
X72556657Y-105657655D01*
X72365014Y-105583515D01*
X72302200Y-105559214D01*
X72297879Y-105558212D01*
X72297871Y-105558210D01*
X72119929Y-105516966D01*
X72032080Y-105496604D01*
X71755832Y-105472678D01*
X71751397Y-105472922D01*
X71751393Y-105472922D01*
X71483413Y-105487670D01*
X71483406Y-105487671D01*
X71478970Y-105487915D01*
X71207016Y-105542010D01*
X71202806Y-105543488D01*
X71202804Y-105543489D01*
X71137384Y-105566463D01*
X70945398Y-105633884D01*
X70699334Y-105761703D01*
X70695707Y-105764295D01*
X70695702Y-105764298D01*
X70656143Y-105792568D01*
X70473736Y-105922919D01*
X70273103Y-106114312D01*
X70101440Y-106332066D01*
X70038687Y-106440102D01*
X69964405Y-106567988D01*
X69964402Y-106567994D01*
X69962171Y-106571835D01*
X69960501Y-106575958D01*
X69859794Y-106824593D01*
X69858075Y-106828836D01*
X69857004Y-106833149D01*
X69857002Y-106833154D01*
X69802869Y-107051080D01*
X69791229Y-107097939D01*
X69790775Y-107102367D01*
X69790775Y-107102369D01*
X69773269Y-107273238D01*
X69762968Y-107373777D01*
X68888951Y-107373777D01*
X68889979Y-107308616D01*
X68884736Y-107267389D01*
X68884746Y-107265815D01*
X68884368Y-107264493D01*
X68883753Y-107259651D01*
X68877033Y-107206812D01*
X68875901Y-107197908D01*
X68869680Y-107183631D01*
X68847572Y-107132898D01*
X68847571Y-107132897D01*
X68845209Y-107127476D01*
X68844776Y-107125963D01*
X68844042Y-107124800D01*
X68817228Y-107063268D01*
X68768000Y-107004280D01*
X68767161Y-107002951D01*
X68766132Y-107002042D01*
X68751207Y-106984159D01*
X68728874Y-106957397D01*
X68728871Y-106957394D01*
X68723124Y-106950508D01*
X68659319Y-106907708D01*
X68658141Y-106906668D01*
X68656898Y-106906084D01*
X68654205Y-106904277D01*
X68608611Y-106873694D01*
X68601154Y-106868692D01*
X68584355Y-106863378D01*
X68533524Y-106847299D01*
X68533522Y-106847299D01*
X68527902Y-106845521D01*
X68526479Y-106844853D01*
X68525122Y-106844642D01*
X68461124Y-106824398D01*
X68381800Y-106822662D01*
X68323263Y-106821381D01*
X68323261Y-106821381D01*
X68314291Y-106821185D01*
X68305624Y-106823515D01*
X68296712Y-106824593D01*
X68296700Y-106824491D01*
X68274394Y-106827437D01*
X67006989Y-106827437D01*
X66985847Y-106825651D01*
X66975232Y-106823844D01*
X66975228Y-106823844D01*
X66970436Y-106823028D01*
X66965568Y-106822959D01*
X66965566Y-106822959D01*
X66897742Y-106822001D01*
X66826509Y-106820994D01*
X66821242Y-106820809D01*
X66797765Y-106819491D01*
X66747170Y-106816649D01*
X66740129Y-106816055D01*
X66567387Y-106796592D01*
X66508730Y-106789983D01*
X66501738Y-106788996D01*
X66500164Y-106788729D01*
X66448090Y-106779881D01*
X66441184Y-106778507D01*
X66214131Y-106726684D01*
X66207290Y-106724919D01*
X66189991Y-106719936D01*
X66154993Y-106709853D01*
X66148304Y-106707721D01*
X65928466Y-106630796D01*
X65921870Y-106628278D01*
X65871610Y-106607459D01*
X65865160Y-106604573D01*
X65655358Y-106503538D01*
X65649080Y-106500295D01*
X65645661Y-106498405D01*
X65601428Y-106473959D01*
X65595358Y-106470378D01*
X65398194Y-106346491D01*
X65392317Y-106342564D01*
X65347949Y-106311083D01*
X65342302Y-106306834D01*
X65160234Y-106161639D01*
X65154835Y-106157079D01*
X65114255Y-106120815D01*
X65109119Y-106115959D01*
X64944479Y-105951319D01*
X64939622Y-105946182D01*
X64903346Y-105905588D01*
X64898788Y-105900190D01*
X64753620Y-105718157D01*
X64749370Y-105712511D01*
X64730346Y-105685701D01*
X64717861Y-105668104D01*
X64713945Y-105662242D01*
X64590041Y-105465049D01*
X64586476Y-105459006D01*
X64560141Y-105411356D01*
X64556905Y-105405091D01*
X64455855Y-105195258D01*
X64452969Y-105188809D01*
X64445839Y-105171596D01*
X64432156Y-105138564D01*
X64429651Y-105132001D01*
X64352726Y-104912162D01*
X64350579Y-104905428D01*
X64335513Y-104853133D01*
X64333748Y-104846289D01*
X64281932Y-104619267D01*
X64280554Y-104612339D01*
X64280478Y-104611893D01*
X64271435Y-104558669D01*
X64270457Y-104551742D01*
X64244380Y-104320307D01*
X64243787Y-104313272D01*
X64239627Y-104239202D01*
X64239442Y-104233918D01*
X64237659Y-104107777D01*
X64237454Y-104093277D01*
X64234536Y-104074769D01*
X64232999Y-104055146D01*
X64232999Y-102336600D01*
X66650500Y-102336600D01*
X66670462Y-102526527D01*
X66729476Y-102708154D01*
X66824963Y-102873542D01*
X66952749Y-103015463D01*
X66958091Y-103019344D01*
X66958093Y-103019346D01*
X66988221Y-103041235D01*
X67107250Y-103127714D01*
X67113278Y-103130398D01*
X67113280Y-103130399D01*
X67275682Y-103202705D01*
X67281713Y-103205390D01*
X67375113Y-103225243D01*
X67462056Y-103243724D01*
X67462061Y-103243724D01*
X67468513Y-103245096D01*
X67659487Y-103245096D01*
X67665939Y-103243724D01*
X67665944Y-103243724D01*
X67752887Y-103225243D01*
X67846287Y-103205390D01*
X67852318Y-103202705D01*
X68014720Y-103130399D01*
X68014722Y-103130398D01*
X68020750Y-103127714D01*
X68130743Y-103047800D01*
X70714500Y-103047800D01*
X70734462Y-103237727D01*
X70793476Y-103419354D01*
X70888963Y-103584742D01*
X71016749Y-103726663D01*
X71022091Y-103730544D01*
X71022093Y-103730546D01*
X71165908Y-103835033D01*
X71171250Y-103838914D01*
X71177278Y-103841598D01*
X71177280Y-103841599D01*
X71339682Y-103913905D01*
X71345713Y-103916590D01*
X71439113Y-103936443D01*
X71526056Y-103954924D01*
X71526061Y-103954924D01*
X71532513Y-103956296D01*
X71723487Y-103956296D01*
X71729939Y-103954924D01*
X71729944Y-103954924D01*
X71816887Y-103936443D01*
X71910287Y-103916590D01*
X71916318Y-103913905D01*
X72078720Y-103841599D01*
X72078722Y-103841598D01*
X72084750Y-103838914D01*
X72090092Y-103835033D01*
X72233907Y-103730546D01*
X72233909Y-103730544D01*
X72239251Y-103726663D01*
X72367037Y-103584742D01*
X72462524Y-103419354D01*
X72521538Y-103237727D01*
X72541500Y-103047800D01*
X72521538Y-102857873D01*
X72462524Y-102676246D01*
X72367037Y-102510858D01*
X72239251Y-102368937D01*
X72233909Y-102365056D01*
X72233907Y-102365054D01*
X72090092Y-102260567D01*
X72090091Y-102260566D01*
X72084750Y-102256686D01*
X72078722Y-102254002D01*
X72078720Y-102254001D01*
X71916318Y-102181695D01*
X71916317Y-102181695D01*
X71910287Y-102179010D01*
X71800840Y-102155746D01*
X71729944Y-102140676D01*
X71729939Y-102140676D01*
X71723487Y-102139304D01*
X71532513Y-102139304D01*
X71526061Y-102140676D01*
X71526056Y-102140676D01*
X71455160Y-102155746D01*
X71345713Y-102179010D01*
X71339683Y-102181695D01*
X71339682Y-102181695D01*
X71177280Y-102254001D01*
X71177278Y-102254002D01*
X71171250Y-102256686D01*
X71165909Y-102260566D01*
X71165908Y-102260567D01*
X71022093Y-102365054D01*
X71022091Y-102365056D01*
X71016749Y-102368937D01*
X70888963Y-102510858D01*
X70793476Y-102676246D01*
X70734462Y-102857873D01*
X70714500Y-103047800D01*
X68130743Y-103047800D01*
X68139779Y-103041235D01*
X68169907Y-103019346D01*
X68169909Y-103019344D01*
X68175251Y-103015463D01*
X68303037Y-102873542D01*
X68398524Y-102708154D01*
X68457538Y-102526527D01*
X68477500Y-102336600D01*
X68470164Y-102266799D01*
X68458228Y-102153237D01*
X68458228Y-102153236D01*
X68457538Y-102146673D01*
X68398524Y-101965046D01*
X68303037Y-101799658D01*
X68175251Y-101657737D01*
X68169909Y-101653856D01*
X68169907Y-101653854D01*
X68026092Y-101549367D01*
X68026091Y-101549366D01*
X68020750Y-101545486D01*
X68014722Y-101542802D01*
X68014720Y-101542801D01*
X67857944Y-101473000D01*
X87427700Y-101473000D01*
X87428390Y-101479565D01*
X87435319Y-101545486D01*
X87447662Y-101662927D01*
X87506676Y-101844554D01*
X87602163Y-102009942D01*
X87729949Y-102151863D01*
X87735291Y-102155744D01*
X87735293Y-102155746D01*
X87874226Y-102256686D01*
X87884450Y-102264114D01*
X87890478Y-102266798D01*
X87890480Y-102266799D01*
X88047256Y-102336600D01*
X88058913Y-102341790D01*
X88152313Y-102361643D01*
X88239256Y-102380124D01*
X88239261Y-102380124D01*
X88245713Y-102381496D01*
X88436687Y-102381496D01*
X88443139Y-102380124D01*
X88443144Y-102380124D01*
X88530087Y-102361643D01*
X88623487Y-102341790D01*
X88635144Y-102336600D01*
X88791920Y-102266799D01*
X88791922Y-102266798D01*
X88797950Y-102264114D01*
X88808174Y-102256686D01*
X88947107Y-102155746D01*
X88947109Y-102155744D01*
X88952451Y-102151863D01*
X89080237Y-102009942D01*
X89175724Y-101844554D01*
X89234738Y-101662927D01*
X89247082Y-101545486D01*
X89254010Y-101479565D01*
X89254700Y-101473000D01*
X89234738Y-101283073D01*
X89175724Y-101101446D01*
X89080237Y-100936058D01*
X88952451Y-100794137D01*
X88947109Y-100790256D01*
X88947107Y-100790254D01*
X88803292Y-100685767D01*
X88803291Y-100685766D01*
X88797950Y-100681886D01*
X88791922Y-100679202D01*
X88791920Y-100679201D01*
X88629518Y-100606895D01*
X88629517Y-100606895D01*
X88623487Y-100604210D01*
X88530087Y-100584357D01*
X88443144Y-100565876D01*
X88443139Y-100565876D01*
X88436687Y-100564504D01*
X88245713Y-100564504D01*
X88239261Y-100565876D01*
X88239256Y-100565876D01*
X88152313Y-100584357D01*
X88058913Y-100604210D01*
X88052883Y-100606895D01*
X88052882Y-100606895D01*
X87890480Y-100679201D01*
X87890478Y-100679202D01*
X87884450Y-100681886D01*
X87879109Y-100685766D01*
X87879108Y-100685767D01*
X87735293Y-100790254D01*
X87735291Y-100790256D01*
X87729949Y-100794137D01*
X87602163Y-100936058D01*
X87506676Y-101101446D01*
X87447662Y-101283073D01*
X87427700Y-101473000D01*
X67857944Y-101473000D01*
X67852318Y-101470495D01*
X67852317Y-101470495D01*
X67846287Y-101467810D01*
X67752887Y-101447957D01*
X67665944Y-101429476D01*
X67665939Y-101429476D01*
X67659487Y-101428104D01*
X67468513Y-101428104D01*
X67462061Y-101429476D01*
X67462056Y-101429476D01*
X67375113Y-101447957D01*
X67281713Y-101467810D01*
X67275683Y-101470495D01*
X67275682Y-101470495D01*
X67113280Y-101542801D01*
X67113278Y-101542802D01*
X67107250Y-101545486D01*
X67101909Y-101549366D01*
X67101908Y-101549367D01*
X66958093Y-101653854D01*
X66958091Y-101653856D01*
X66952749Y-101657737D01*
X66824963Y-101799658D01*
X66729476Y-101965046D01*
X66670462Y-102146673D01*
X66669772Y-102153236D01*
X66669772Y-102153237D01*
X66657836Y-102266799D01*
X66650500Y-102336600D01*
X64232999Y-102336600D01*
X64232999Y-99745800D01*
X89256500Y-99745800D01*
X89276462Y-99935727D01*
X89335476Y-100117354D01*
X89430963Y-100282742D01*
X89558749Y-100424663D01*
X89564091Y-100428544D01*
X89564093Y-100428546D01*
X89707908Y-100533033D01*
X89713250Y-100536914D01*
X89719278Y-100539598D01*
X89719280Y-100539599D01*
X89881682Y-100611905D01*
X89887713Y-100614590D01*
X89981113Y-100634443D01*
X90068056Y-100652924D01*
X90068061Y-100652924D01*
X90074513Y-100654296D01*
X90265487Y-100654296D01*
X90271939Y-100652924D01*
X90271944Y-100652924D01*
X90358887Y-100634443D01*
X90452287Y-100614590D01*
X90458318Y-100611905D01*
X90620720Y-100539599D01*
X90620722Y-100539598D01*
X90626750Y-100536914D01*
X90632092Y-100533033D01*
X90775907Y-100428546D01*
X90775909Y-100428544D01*
X90781251Y-100424663D01*
X90909037Y-100282742D01*
X91004524Y-100117354D01*
X91063538Y-99935727D01*
X91083500Y-99745800D01*
X91063538Y-99555873D01*
X91004524Y-99374246D01*
X90909037Y-99208858D01*
X90781251Y-99066937D01*
X90775909Y-99063056D01*
X90775907Y-99063054D01*
X90632092Y-98958567D01*
X90632091Y-98958566D01*
X90626750Y-98954686D01*
X90620722Y-98952002D01*
X90620720Y-98952001D01*
X90458318Y-98879695D01*
X90458317Y-98879695D01*
X90452287Y-98877010D01*
X90358887Y-98857157D01*
X90271944Y-98838676D01*
X90271939Y-98838676D01*
X90265487Y-98837304D01*
X90074513Y-98837304D01*
X90068061Y-98838676D01*
X90068056Y-98838676D01*
X89981113Y-98857157D01*
X89887713Y-98877010D01*
X89881683Y-98879695D01*
X89881682Y-98879695D01*
X89719280Y-98952001D01*
X89719278Y-98952002D01*
X89713250Y-98954686D01*
X89707909Y-98958566D01*
X89707908Y-98958567D01*
X89564093Y-99063054D01*
X89564091Y-99063056D01*
X89558749Y-99066937D01*
X89430963Y-99208858D01*
X89335476Y-99374246D01*
X89276462Y-99555873D01*
X89256500Y-99745800D01*
X64232999Y-99745800D01*
X64232999Y-97231200D01*
X66574300Y-97231200D01*
X66574990Y-97237765D01*
X66580656Y-97291669D01*
X66594262Y-97421127D01*
X66596302Y-97427405D01*
X66596302Y-97427406D01*
X66607978Y-97463342D01*
X66653276Y-97602754D01*
X66748763Y-97768142D01*
X66753181Y-97773049D01*
X66753182Y-97773050D01*
X66872127Y-97905152D01*
X66876549Y-97910063D01*
X66881891Y-97913944D01*
X66881893Y-97913946D01*
X66943016Y-97958354D01*
X67031050Y-98022314D01*
X67037078Y-98024998D01*
X67037080Y-98024999D01*
X67123546Y-98063496D01*
X67205513Y-98099990D01*
X67298913Y-98119843D01*
X67385856Y-98138324D01*
X67385861Y-98138324D01*
X67392313Y-98139696D01*
X67583287Y-98139696D01*
X67589739Y-98138324D01*
X67589744Y-98138324D01*
X67676687Y-98119843D01*
X67770087Y-98099990D01*
X67852054Y-98063496D01*
X67938520Y-98024999D01*
X67938522Y-98024998D01*
X67944550Y-98022314D01*
X68032584Y-97958354D01*
X68093707Y-97913946D01*
X68093709Y-97913944D01*
X68099051Y-97910063D01*
X68103473Y-97905152D01*
X68222418Y-97773050D01*
X68222419Y-97773049D01*
X68226837Y-97768142D01*
X68322324Y-97602754D01*
X68327508Y-97586800D01*
X70079500Y-97586800D01*
X70080190Y-97593365D01*
X70093239Y-97717514D01*
X70099462Y-97776727D01*
X70101502Y-97783005D01*
X70101502Y-97783006D01*
X70118362Y-97834896D01*
X70158476Y-97958354D01*
X70253963Y-98123742D01*
X70258381Y-98128649D01*
X70258382Y-98128650D01*
X70268328Y-98139696D01*
X70381749Y-98265663D01*
X70387091Y-98269544D01*
X70387093Y-98269546D01*
X70530908Y-98374033D01*
X70536250Y-98377914D01*
X70542278Y-98380598D01*
X70542280Y-98380599D01*
X70704682Y-98452905D01*
X70710713Y-98455590D01*
X70804113Y-98475443D01*
X70891056Y-98493924D01*
X70891061Y-98493924D01*
X70897513Y-98495296D01*
X71088487Y-98495296D01*
X71094939Y-98493924D01*
X71094944Y-98493924D01*
X71181887Y-98475443D01*
X71275287Y-98455590D01*
X71281318Y-98452905D01*
X71443720Y-98380599D01*
X71443722Y-98380598D01*
X71449750Y-98377914D01*
X71455092Y-98374033D01*
X71598907Y-98269546D01*
X71598909Y-98269544D01*
X71604251Y-98265663D01*
X71717672Y-98139696D01*
X71727618Y-98128650D01*
X71727619Y-98128649D01*
X71732037Y-98123742D01*
X71827524Y-97958354D01*
X71867638Y-97834896D01*
X71884498Y-97783006D01*
X71884498Y-97783005D01*
X71886538Y-97776727D01*
X71892762Y-97717514D01*
X71905810Y-97593365D01*
X71906500Y-97586800D01*
X71886538Y-97396873D01*
X71827524Y-97215246D01*
X71792741Y-97155000D01*
X76150100Y-97155000D01*
X76150790Y-97161565D01*
X76165963Y-97305923D01*
X76170062Y-97344927D01*
X76229076Y-97526554D01*
X76324563Y-97691942D01*
X76328981Y-97696849D01*
X76328982Y-97696850D01*
X76406557Y-97783006D01*
X76452349Y-97833863D01*
X76457691Y-97837744D01*
X76457693Y-97837746D01*
X76562574Y-97913946D01*
X76606850Y-97946114D01*
X76612878Y-97948798D01*
X76612880Y-97948799D01*
X76769281Y-98018433D01*
X76781313Y-98023790D01*
X76874713Y-98043643D01*
X76961656Y-98062124D01*
X76961661Y-98062124D01*
X76968113Y-98063496D01*
X77159087Y-98063496D01*
X77165539Y-98062124D01*
X77165544Y-98062124D01*
X77252487Y-98043643D01*
X77345887Y-98023790D01*
X77357919Y-98018433D01*
X77514320Y-97948799D01*
X77514322Y-97948798D01*
X77520350Y-97946114D01*
X77564626Y-97913946D01*
X77669507Y-97837746D01*
X77669509Y-97837744D01*
X77674851Y-97833863D01*
X77720643Y-97783006D01*
X77798218Y-97696850D01*
X77798219Y-97696849D01*
X77802637Y-97691942D01*
X77898124Y-97526554D01*
X77957138Y-97344927D01*
X77961238Y-97305923D01*
X77976410Y-97161565D01*
X77977100Y-97155000D01*
X83770100Y-97155000D01*
X83770790Y-97161565D01*
X83785963Y-97305923D01*
X83790062Y-97344927D01*
X83849076Y-97526554D01*
X83944563Y-97691942D01*
X83948981Y-97696849D01*
X83948982Y-97696850D01*
X84026557Y-97783006D01*
X84072349Y-97833863D01*
X84077691Y-97837744D01*
X84077693Y-97837746D01*
X84182574Y-97913946D01*
X84226850Y-97946114D01*
X84232878Y-97948798D01*
X84232880Y-97948799D01*
X84389281Y-98018433D01*
X84401313Y-98023790D01*
X84494713Y-98043643D01*
X84581656Y-98062124D01*
X84581661Y-98062124D01*
X84588113Y-98063496D01*
X84779087Y-98063496D01*
X84785539Y-98062124D01*
X84785544Y-98062124D01*
X84872487Y-98043643D01*
X84965887Y-98023790D01*
X84977919Y-98018433D01*
X85134320Y-97948799D01*
X85134322Y-97948798D01*
X85140350Y-97946114D01*
X85184626Y-97913946D01*
X85289507Y-97837746D01*
X85289509Y-97837744D01*
X85294851Y-97833863D01*
X85340643Y-97783006D01*
X85418218Y-97696850D01*
X85418219Y-97696849D01*
X85422637Y-97691942D01*
X85518124Y-97526554D01*
X85577138Y-97344927D01*
X85581238Y-97305923D01*
X85596410Y-97161565D01*
X85597100Y-97155000D01*
X85591032Y-97097263D01*
X85577828Y-96971637D01*
X85577828Y-96971636D01*
X85577138Y-96965073D01*
X85564573Y-96926400D01*
X92634700Y-96926400D01*
X92635390Y-96932965D01*
X92646774Y-97041273D01*
X92654662Y-97116327D01*
X92656702Y-97122605D01*
X92656702Y-97122606D01*
X92669361Y-97161565D01*
X92713676Y-97297954D01*
X92716979Y-97303676D01*
X92716980Y-97303677D01*
X92730386Y-97326896D01*
X92809163Y-97463342D01*
X92936949Y-97605263D01*
X92942291Y-97609144D01*
X92942293Y-97609146D01*
X93056253Y-97691942D01*
X93091450Y-97717514D01*
X93097478Y-97720198D01*
X93097480Y-97720199D01*
X93224444Y-97776727D01*
X93265913Y-97795190D01*
X93359313Y-97815043D01*
X93446256Y-97833524D01*
X93446261Y-97833524D01*
X93452713Y-97834896D01*
X93643687Y-97834896D01*
X93650139Y-97833524D01*
X93650144Y-97833524D01*
X93737087Y-97815043D01*
X93830487Y-97795190D01*
X93871956Y-97776727D01*
X93998920Y-97720199D01*
X93998922Y-97720198D01*
X94004950Y-97717514D01*
X94040147Y-97691942D01*
X94154107Y-97609146D01*
X94154109Y-97609144D01*
X94159451Y-97605263D01*
X94287237Y-97463342D01*
X94366014Y-97326896D01*
X94379420Y-97303677D01*
X94379421Y-97303676D01*
X94382724Y-97297954D01*
X94427039Y-97161565D01*
X94439698Y-97122606D01*
X94439698Y-97122605D01*
X94441738Y-97116327D01*
X94449627Y-97041273D01*
X94461010Y-96932965D01*
X94461700Y-96926400D01*
X94455596Y-96868324D01*
X94442428Y-96743037D01*
X94442428Y-96743036D01*
X94441738Y-96736473D01*
X94436612Y-96720695D01*
X94384766Y-96561131D01*
X94382724Y-96554846D01*
X94287237Y-96389458D01*
X94278681Y-96379955D01*
X94163873Y-96252448D01*
X94163872Y-96252447D01*
X94159451Y-96247537D01*
X94154109Y-96243656D01*
X94154107Y-96243654D01*
X94010292Y-96139167D01*
X94010291Y-96139166D01*
X94004950Y-96135286D01*
X93998922Y-96132602D01*
X93998920Y-96132601D01*
X93836518Y-96060295D01*
X93836517Y-96060295D01*
X93830487Y-96057610D01*
X93737087Y-96037757D01*
X93650144Y-96019276D01*
X93650139Y-96019276D01*
X93643687Y-96017904D01*
X93452713Y-96017904D01*
X93446261Y-96019276D01*
X93446256Y-96019276D01*
X93359313Y-96037757D01*
X93265913Y-96057610D01*
X93259883Y-96060295D01*
X93259882Y-96060295D01*
X93097480Y-96132601D01*
X93097478Y-96132602D01*
X93091450Y-96135286D01*
X93086109Y-96139166D01*
X93086108Y-96139167D01*
X92942293Y-96243654D01*
X92942291Y-96243656D01*
X92936949Y-96247537D01*
X92932528Y-96252447D01*
X92932527Y-96252448D01*
X92817720Y-96379955D01*
X92809163Y-96389458D01*
X92713676Y-96554846D01*
X92711634Y-96561131D01*
X92659789Y-96720695D01*
X92654662Y-96736473D01*
X92653972Y-96743036D01*
X92653972Y-96743037D01*
X92640804Y-96868324D01*
X92634700Y-96926400D01*
X85564573Y-96926400D01*
X85522098Y-96795677D01*
X85518124Y-96783446D01*
X85422637Y-96618058D01*
X85359966Y-96548454D01*
X85299273Y-96481048D01*
X85299272Y-96481047D01*
X85294851Y-96476137D01*
X85289509Y-96472256D01*
X85289507Y-96472254D01*
X85145692Y-96367767D01*
X85145691Y-96367766D01*
X85140350Y-96363886D01*
X85134322Y-96361202D01*
X85134320Y-96361201D01*
X84971918Y-96288895D01*
X84971917Y-96288895D01*
X84965887Y-96286210D01*
X84872487Y-96266357D01*
X84785544Y-96247876D01*
X84785539Y-96247876D01*
X84779087Y-96246504D01*
X84588113Y-96246504D01*
X84581661Y-96247876D01*
X84581656Y-96247876D01*
X84494713Y-96266357D01*
X84401313Y-96286210D01*
X84395283Y-96288895D01*
X84395282Y-96288895D01*
X84232880Y-96361201D01*
X84232878Y-96361202D01*
X84226850Y-96363886D01*
X84221509Y-96367766D01*
X84221508Y-96367767D01*
X84077693Y-96472254D01*
X84077691Y-96472256D01*
X84072349Y-96476137D01*
X84067928Y-96481047D01*
X84067927Y-96481048D01*
X84007235Y-96548454D01*
X83944563Y-96618058D01*
X83849076Y-96783446D01*
X83845102Y-96795677D01*
X83802628Y-96926400D01*
X83790062Y-96965073D01*
X83789372Y-96971636D01*
X83789372Y-96971637D01*
X83776168Y-97097263D01*
X83770100Y-97155000D01*
X77977100Y-97155000D01*
X77971032Y-97097263D01*
X77957828Y-96971637D01*
X77957828Y-96971636D01*
X77957138Y-96965073D01*
X77944573Y-96926400D01*
X77902098Y-96795677D01*
X77898124Y-96783446D01*
X77802637Y-96618058D01*
X77739966Y-96548454D01*
X77679273Y-96481048D01*
X77679272Y-96481047D01*
X77674851Y-96476137D01*
X77669509Y-96472256D01*
X77669507Y-96472254D01*
X77525692Y-96367767D01*
X77525691Y-96367766D01*
X77520350Y-96363886D01*
X77514322Y-96361202D01*
X77514320Y-96361201D01*
X77351918Y-96288895D01*
X77351917Y-96288895D01*
X77345887Y-96286210D01*
X77252487Y-96266357D01*
X77165544Y-96247876D01*
X77165539Y-96247876D01*
X77159087Y-96246504D01*
X76968113Y-96246504D01*
X76961661Y-96247876D01*
X76961656Y-96247876D01*
X76874713Y-96266357D01*
X76781313Y-96286210D01*
X76775283Y-96288895D01*
X76775282Y-96288895D01*
X76612880Y-96361201D01*
X76612878Y-96361202D01*
X76606850Y-96363886D01*
X76601509Y-96367766D01*
X76601508Y-96367767D01*
X76457693Y-96472254D01*
X76457691Y-96472256D01*
X76452349Y-96476137D01*
X76447928Y-96481047D01*
X76447927Y-96481048D01*
X76387235Y-96548454D01*
X76324563Y-96618058D01*
X76229076Y-96783446D01*
X76225102Y-96795677D01*
X76182628Y-96926400D01*
X76170062Y-96965073D01*
X76169372Y-96971636D01*
X76169372Y-96971637D01*
X76156168Y-97097263D01*
X76150100Y-97155000D01*
X71792741Y-97155000D01*
X71732037Y-97049858D01*
X71718654Y-97034994D01*
X71608673Y-96912848D01*
X71608672Y-96912847D01*
X71604251Y-96907937D01*
X71598909Y-96904056D01*
X71598907Y-96904054D01*
X71455092Y-96799567D01*
X71455091Y-96799566D01*
X71449750Y-96795686D01*
X71443722Y-96793002D01*
X71443720Y-96793001D01*
X71281318Y-96720695D01*
X71281317Y-96720695D01*
X71275287Y-96718010D01*
X71163544Y-96694258D01*
X71094944Y-96679676D01*
X71094939Y-96679676D01*
X71088487Y-96678304D01*
X70897513Y-96678304D01*
X70891061Y-96679676D01*
X70891056Y-96679676D01*
X70822456Y-96694258D01*
X70710713Y-96718010D01*
X70704683Y-96720695D01*
X70704682Y-96720695D01*
X70542280Y-96793001D01*
X70542278Y-96793002D01*
X70536250Y-96795686D01*
X70530909Y-96799566D01*
X70530908Y-96799567D01*
X70387093Y-96904054D01*
X70387091Y-96904056D01*
X70381749Y-96907937D01*
X70377328Y-96912847D01*
X70377327Y-96912848D01*
X70267347Y-97034994D01*
X70253963Y-97049858D01*
X70158476Y-97215246D01*
X70099462Y-97396873D01*
X70079500Y-97586800D01*
X68327508Y-97586800D01*
X68367622Y-97463342D01*
X68379298Y-97427406D01*
X68379298Y-97427405D01*
X68381338Y-97421127D01*
X68382028Y-97414563D01*
X68386546Y-97371579D01*
X68413560Y-97305923D01*
X68471782Y-97265294D01*
X68542727Y-97262591D01*
X68563106Y-97269645D01*
X68596478Y-97284504D01*
X68596486Y-97284507D01*
X68602513Y-97287190D01*
X68690644Y-97305923D01*
X68782856Y-97325524D01*
X68782861Y-97325524D01*
X68789313Y-97326896D01*
X68980287Y-97326896D01*
X68986739Y-97325524D01*
X68986744Y-97325524D01*
X69078956Y-97305923D01*
X69167087Y-97287190D01*
X69206494Y-97269645D01*
X69335520Y-97212199D01*
X69335522Y-97212198D01*
X69341550Y-97209514D01*
X69372980Y-97186679D01*
X69490707Y-97101146D01*
X69490709Y-97101144D01*
X69496051Y-97097263D01*
X69623837Y-96955342D01*
X69719324Y-96789954D01*
X69766765Y-96643946D01*
X69776298Y-96614606D01*
X69776298Y-96614605D01*
X69778338Y-96608327D01*
X69783299Y-96561131D01*
X69797610Y-96424965D01*
X69798300Y-96418400D01*
X69778338Y-96228473D01*
X69719324Y-96046846D01*
X69703407Y-96019276D01*
X69669876Y-95961200D01*
X72467100Y-95961200D01*
X72487062Y-96151127D01*
X72546076Y-96332754D01*
X72641563Y-96498142D01*
X72645981Y-96503049D01*
X72645982Y-96503050D01*
X72740774Y-96608327D01*
X72769349Y-96640063D01*
X72774691Y-96643944D01*
X72774693Y-96643946D01*
X72911081Y-96743037D01*
X72923850Y-96752314D01*
X72929878Y-96754998D01*
X72929880Y-96754999D01*
X73092282Y-96827305D01*
X73098313Y-96829990D01*
X73191713Y-96849843D01*
X73278656Y-96868324D01*
X73278661Y-96868324D01*
X73285113Y-96869696D01*
X73476087Y-96869696D01*
X73482539Y-96868324D01*
X73482544Y-96868324D01*
X73569487Y-96849843D01*
X73662887Y-96829990D01*
X73668918Y-96827305D01*
X73831320Y-96754999D01*
X73831322Y-96754998D01*
X73837350Y-96752314D01*
X73850119Y-96743037D01*
X73986507Y-96643946D01*
X73986509Y-96643944D01*
X73991851Y-96640063D01*
X74020426Y-96608327D01*
X74115218Y-96503050D01*
X74115219Y-96503049D01*
X74119637Y-96498142D01*
X74215124Y-96332754D01*
X74274138Y-96151127D01*
X74294100Y-95961200D01*
X74274138Y-95771273D01*
X74263827Y-95739537D01*
X74227354Y-95627286D01*
X74215124Y-95589646D01*
X74119637Y-95424258D01*
X73991851Y-95282337D01*
X73986509Y-95278456D01*
X73986507Y-95278454D01*
X73842692Y-95173967D01*
X73842691Y-95173966D01*
X73837350Y-95170086D01*
X73831322Y-95167402D01*
X73831320Y-95167401D01*
X73668918Y-95095095D01*
X73668917Y-95095095D01*
X73662887Y-95092410D01*
X73569487Y-95072557D01*
X73482544Y-95054076D01*
X73482539Y-95054076D01*
X73476087Y-95052704D01*
X73285113Y-95052704D01*
X73278661Y-95054076D01*
X73278656Y-95054076D01*
X73191713Y-95072557D01*
X73098313Y-95092410D01*
X73092283Y-95095095D01*
X73092282Y-95095095D01*
X72929880Y-95167401D01*
X72929878Y-95167402D01*
X72923850Y-95170086D01*
X72918509Y-95173966D01*
X72918508Y-95173967D01*
X72774693Y-95278454D01*
X72774691Y-95278456D01*
X72769349Y-95282337D01*
X72641563Y-95424258D01*
X72546076Y-95589646D01*
X72533846Y-95627286D01*
X72497374Y-95739537D01*
X72487062Y-95771273D01*
X72467100Y-95961200D01*
X69669876Y-95961200D01*
X69627138Y-95887176D01*
X69623837Y-95881458D01*
X69530537Y-95777837D01*
X69500473Y-95744448D01*
X69500472Y-95744447D01*
X69496051Y-95739537D01*
X69490709Y-95735656D01*
X69490707Y-95735654D01*
X69346892Y-95631167D01*
X69346891Y-95631166D01*
X69341550Y-95627286D01*
X69335522Y-95624602D01*
X69335520Y-95624601D01*
X69173118Y-95552295D01*
X69173117Y-95552295D01*
X69167087Y-95549610D01*
X69073687Y-95529757D01*
X68986744Y-95511276D01*
X68986739Y-95511276D01*
X68980287Y-95509904D01*
X68789313Y-95509904D01*
X68782861Y-95511276D01*
X68782856Y-95511276D01*
X68695913Y-95529757D01*
X68602513Y-95549610D01*
X68596483Y-95552295D01*
X68596482Y-95552295D01*
X68434080Y-95624601D01*
X68434078Y-95624602D01*
X68428050Y-95627286D01*
X68422709Y-95631166D01*
X68422708Y-95631167D01*
X68278893Y-95735654D01*
X68278891Y-95735656D01*
X68273549Y-95739537D01*
X68269128Y-95744447D01*
X68269127Y-95744448D01*
X68239064Y-95777837D01*
X68145763Y-95881458D01*
X68142462Y-95887176D01*
X68066194Y-96019276D01*
X68050276Y-96046846D01*
X67991262Y-96228473D01*
X67990572Y-96235034D01*
X67990572Y-96235036D01*
X67986054Y-96278021D01*
X67959040Y-96343677D01*
X67900818Y-96384306D01*
X67829873Y-96387009D01*
X67809494Y-96379955D01*
X67776122Y-96365096D01*
X67776114Y-96365093D01*
X67770087Y-96362410D01*
X67676687Y-96342557D01*
X67589744Y-96324076D01*
X67589739Y-96324076D01*
X67583287Y-96322704D01*
X67392313Y-96322704D01*
X67385861Y-96324076D01*
X67385856Y-96324076D01*
X67298913Y-96342557D01*
X67205513Y-96362410D01*
X67199483Y-96365095D01*
X67199482Y-96365095D01*
X67037080Y-96437401D01*
X67037078Y-96437402D01*
X67031050Y-96440086D01*
X67025709Y-96443966D01*
X67025708Y-96443967D01*
X66881893Y-96548454D01*
X66881891Y-96548456D01*
X66876549Y-96552337D01*
X66872128Y-96557247D01*
X66872127Y-96557248D01*
X66761893Y-96679676D01*
X66748763Y-96694258D01*
X66653276Y-96859646D01*
X66594262Y-97041273D01*
X66593572Y-97047836D01*
X66593572Y-97047837D01*
X66585714Y-97122606D01*
X66574300Y-97231200D01*
X64232999Y-97231200D01*
X64232999Y-92823777D01*
X79962968Y-92823777D01*
X79963143Y-92828229D01*
X79965391Y-92885435D01*
X79965391Y-92885436D01*
X79973127Y-93082328D01*
X79973854Y-93100844D01*
X80023670Y-93373614D01*
X80025079Y-93377837D01*
X80095593Y-93589194D01*
X80111423Y-93636644D01*
X80235362Y-93884684D01*
X80393014Y-94112787D01*
X80396036Y-94116056D01*
X80578217Y-94313139D01*
X80578222Y-94313144D01*
X80581233Y-94316401D01*
X80796264Y-94491464D01*
X80800082Y-94493763D01*
X80800084Y-94493764D01*
X80964068Y-94592490D01*
X81033816Y-94634482D01*
X81132521Y-94676279D01*
X81285046Y-94740865D01*
X81285051Y-94740867D01*
X81289149Y-94742602D01*
X81293446Y-94743741D01*
X81293451Y-94743743D01*
X81423159Y-94778134D01*
X81557169Y-94813666D01*
X81832529Y-94846257D01*
X82109734Y-94839724D01*
X82114132Y-94838992D01*
X82378862Y-94794929D01*
X82378866Y-94794928D01*
X82383252Y-94794198D01*
X82387493Y-94792857D01*
X82387496Y-94792856D01*
X82643381Y-94711930D01*
X82643383Y-94711929D01*
X82647627Y-94710587D01*
X82651638Y-94708661D01*
X82651643Y-94708659D01*
X82893565Y-94592490D01*
X82893566Y-94592489D01*
X82897584Y-94590560D01*
X83013500Y-94513107D01*
X83124428Y-94438988D01*
X83124432Y-94438985D01*
X83128136Y-94436510D01*
X83131453Y-94433539D01*
X83131457Y-94433536D01*
X83331363Y-94254485D01*
X83331364Y-94254484D01*
X83334681Y-94251513D01*
X83513099Y-94039258D01*
X83659831Y-93803982D01*
X83771948Y-93550379D01*
X83847213Y-93283507D01*
X83848944Y-93270616D01*
X83883698Y-93011876D01*
X83883699Y-93011868D01*
X83884125Y-93008694D01*
X83887999Y-92885436D01*
X83868415Y-92608847D01*
X83845037Y-92500256D01*
X83810992Y-92342123D01*
X83810991Y-92342121D01*
X83810056Y-92337776D01*
X83714084Y-92077633D01*
X83582415Y-91833608D01*
X83417676Y-91610569D01*
X83375582Y-91567808D01*
X83226285Y-91416149D01*
X83223154Y-91412968D01*
X83219614Y-91410267D01*
X83219608Y-91410261D01*
X83033986Y-91268599D01*
X83002731Y-91244746D01*
X82998842Y-91242568D01*
X82764690Y-91111436D01*
X82764687Y-91111435D01*
X82760804Y-91109260D01*
X82756665Y-91107659D01*
X82756657Y-91107655D01*
X82521421Y-91016650D01*
X82502200Y-91009214D01*
X82497879Y-91008212D01*
X82497871Y-91008210D01*
X82319929Y-90966966D01*
X82232080Y-90946604D01*
X81955832Y-90922678D01*
X81951397Y-90922922D01*
X81951393Y-90922922D01*
X81683413Y-90937670D01*
X81683406Y-90937671D01*
X81678970Y-90937915D01*
X81407016Y-90992010D01*
X81402806Y-90993488D01*
X81402804Y-90993489D01*
X81336852Y-91016650D01*
X81145398Y-91083884D01*
X80899334Y-91211703D01*
X80895707Y-91214295D01*
X80895702Y-91214298D01*
X80819716Y-91268599D01*
X80673736Y-91372919D01*
X80473103Y-91564312D01*
X80301440Y-91782066D01*
X80238687Y-91890102D01*
X80164405Y-92017988D01*
X80164402Y-92017994D01*
X80162171Y-92021835D01*
X80160501Y-92025958D01*
X80139571Y-92077633D01*
X80058075Y-92278836D01*
X80057004Y-92283149D01*
X80057002Y-92283154D01*
X79992302Y-92543618D01*
X79991229Y-92547939D01*
X79990775Y-92552367D01*
X79990775Y-92552369D01*
X79976823Y-92688544D01*
X79962968Y-92823777D01*
X64232999Y-92823777D01*
X64232999Y-90474800D01*
X70612900Y-90474800D01*
X70632862Y-90664727D01*
X70691876Y-90846354D01*
X70787363Y-91011742D01*
X70791781Y-91016649D01*
X70791782Y-91016650D01*
X70858546Y-91090799D01*
X70915149Y-91153663D01*
X70920491Y-91157544D01*
X70920493Y-91157546D01*
X71064308Y-91262033D01*
X71069650Y-91265914D01*
X71075678Y-91268598D01*
X71075680Y-91268599D01*
X71238082Y-91340905D01*
X71244113Y-91343590D01*
X71337513Y-91363443D01*
X71424456Y-91381924D01*
X71424461Y-91381924D01*
X71430913Y-91383296D01*
X71621887Y-91383296D01*
X71628339Y-91381924D01*
X71628344Y-91381924D01*
X71715287Y-91363443D01*
X71808687Y-91343590D01*
X71814718Y-91340905D01*
X71977120Y-91268599D01*
X71977122Y-91268598D01*
X71983150Y-91265914D01*
X71988492Y-91262033D01*
X72132307Y-91157546D01*
X72132309Y-91157544D01*
X72137651Y-91153663D01*
X72194254Y-91090799D01*
X72261018Y-91016650D01*
X72261019Y-91016649D01*
X72265437Y-91011742D01*
X72360924Y-90846354D01*
X72419938Y-90664727D01*
X72439900Y-90474800D01*
X72421213Y-90297000D01*
X87122900Y-90297000D01*
X87142862Y-90486927D01*
X87201876Y-90668554D01*
X87297363Y-90833942D01*
X87301781Y-90838849D01*
X87301782Y-90838850D01*
X87391763Y-90938784D01*
X87425149Y-90975863D01*
X87430491Y-90979744D01*
X87430493Y-90979746D01*
X87573828Y-91083884D01*
X87579650Y-91088114D01*
X87585678Y-91090798D01*
X87585680Y-91090799D01*
X87748082Y-91163105D01*
X87754113Y-91165790D01*
X87847513Y-91185643D01*
X87934456Y-91204124D01*
X87934461Y-91204124D01*
X87940913Y-91205496D01*
X88131887Y-91205496D01*
X88138339Y-91204124D01*
X88138344Y-91204124D01*
X88225287Y-91185643D01*
X88318687Y-91165790D01*
X88324718Y-91163105D01*
X88487120Y-91090799D01*
X88487122Y-91090798D01*
X88493150Y-91088114D01*
X88498972Y-91083884D01*
X88642307Y-90979746D01*
X88642309Y-90979744D01*
X88647651Y-90975863D01*
X88681037Y-90938784D01*
X88771018Y-90838850D01*
X88771019Y-90838849D01*
X88775437Y-90833942D01*
X88870924Y-90668554D01*
X88929938Y-90486927D01*
X88949900Y-90297000D01*
X88929938Y-90107073D01*
X88870924Y-89925446D01*
X88775437Y-89760058D01*
X88706672Y-89683686D01*
X88652073Y-89623048D01*
X88652072Y-89623047D01*
X88647651Y-89618137D01*
X88642309Y-89614256D01*
X88642307Y-89614254D01*
X88498492Y-89509767D01*
X88498491Y-89509766D01*
X88493150Y-89505886D01*
X88487122Y-89503202D01*
X88487120Y-89503201D01*
X88324718Y-89430895D01*
X88324717Y-89430895D01*
X88318687Y-89428210D01*
X88222822Y-89407833D01*
X88138344Y-89389876D01*
X88138339Y-89389876D01*
X88131887Y-89388504D01*
X87940913Y-89388504D01*
X87934461Y-89389876D01*
X87934456Y-89389876D01*
X87849978Y-89407833D01*
X87754113Y-89428210D01*
X87748083Y-89430895D01*
X87748082Y-89430895D01*
X87585680Y-89503201D01*
X87585678Y-89503202D01*
X87579650Y-89505886D01*
X87574309Y-89509766D01*
X87574308Y-89509767D01*
X87430493Y-89614254D01*
X87430491Y-89614256D01*
X87425149Y-89618137D01*
X87420728Y-89623047D01*
X87420727Y-89623048D01*
X87366129Y-89683686D01*
X87297363Y-89760058D01*
X87201876Y-89925446D01*
X87142862Y-90107073D01*
X87122900Y-90297000D01*
X72421213Y-90297000D01*
X72419938Y-90284873D01*
X72360924Y-90103246D01*
X72265437Y-89937858D01*
X72137651Y-89795937D01*
X72088268Y-89760058D01*
X72051955Y-89733675D01*
X72008601Y-89677453D01*
X72002526Y-89606716D01*
X72035658Y-89543925D01*
X72099818Y-89508492D01*
X72189687Y-89489390D01*
X72217686Y-89476924D01*
X72358120Y-89414399D01*
X72358122Y-89414398D01*
X72364150Y-89411714D01*
X72430375Y-89363599D01*
X72513307Y-89303346D01*
X72513309Y-89303344D01*
X72518651Y-89299463D01*
X72560895Y-89252546D01*
X72642018Y-89162450D01*
X72642019Y-89162449D01*
X72646437Y-89157542D01*
X72741924Y-88992154D01*
X72800938Y-88810527D01*
X72820900Y-88620600D01*
X72815561Y-88569800D01*
X74372100Y-88569800D01*
X74372790Y-88576365D01*
X74385839Y-88700514D01*
X74392062Y-88759727D01*
X74394102Y-88766005D01*
X74394102Y-88766006D01*
X74398061Y-88778190D01*
X74451076Y-88941354D01*
X74546563Y-89106742D01*
X74550981Y-89111649D01*
X74550982Y-89111650D01*
X74669927Y-89243752D01*
X74674349Y-89248663D01*
X74679691Y-89252544D01*
X74679693Y-89252546D01*
X74749614Y-89303346D01*
X74828850Y-89360914D01*
X74834878Y-89363598D01*
X74834880Y-89363599D01*
X74997282Y-89435905D01*
X75003313Y-89438590D01*
X75096713Y-89458443D01*
X75183656Y-89476924D01*
X75183661Y-89476924D01*
X75190113Y-89478296D01*
X75381087Y-89478296D01*
X75387539Y-89476924D01*
X75387544Y-89476924D01*
X75474487Y-89458443D01*
X75567887Y-89438590D01*
X75573918Y-89435905D01*
X75736320Y-89363599D01*
X75736322Y-89363598D01*
X75742350Y-89360914D01*
X75821586Y-89303346D01*
X75891507Y-89252546D01*
X75891509Y-89252544D01*
X75896851Y-89248663D01*
X75901273Y-89243752D01*
X76020218Y-89111650D01*
X76020219Y-89111649D01*
X76024637Y-89106742D01*
X76120124Y-88941354D01*
X76173139Y-88778190D01*
X76177098Y-88766006D01*
X76177098Y-88766005D01*
X76179138Y-88759727D01*
X76185362Y-88700514D01*
X76198410Y-88576365D01*
X76199100Y-88569800D01*
X76179138Y-88379873D01*
X76120124Y-88198246D01*
X76024637Y-88032858D01*
X75942592Y-87941737D01*
X75913475Y-87909400D01*
X91136100Y-87909400D01*
X91156062Y-88099327D01*
X91215076Y-88280954D01*
X91310563Y-88446342D01*
X91438349Y-88588263D01*
X91443691Y-88592144D01*
X91443693Y-88592146D01*
X91473821Y-88614035D01*
X91592850Y-88700514D01*
X91598878Y-88703198D01*
X91598880Y-88703199D01*
X91711101Y-88753163D01*
X91767313Y-88778190D01*
X91860713Y-88798043D01*
X91947656Y-88816524D01*
X91947661Y-88816524D01*
X91954113Y-88817896D01*
X92145087Y-88817896D01*
X92151539Y-88816524D01*
X92151544Y-88816524D01*
X92238487Y-88798043D01*
X92331887Y-88778190D01*
X92388099Y-88753163D01*
X92500320Y-88703199D01*
X92500322Y-88703198D01*
X92506350Y-88700514D01*
X92625379Y-88614035D01*
X92655507Y-88592146D01*
X92655509Y-88592144D01*
X92660851Y-88588263D01*
X92788637Y-88446342D01*
X92884124Y-88280954D01*
X92943138Y-88099327D01*
X92963100Y-87909400D01*
X92949769Y-87782567D01*
X92943828Y-87726037D01*
X92943828Y-87726036D01*
X92943138Y-87719473D01*
X92938012Y-87703695D01*
X92886166Y-87544131D01*
X92884124Y-87537846D01*
X92788637Y-87372458D01*
X92660851Y-87230537D01*
X92655509Y-87226656D01*
X92655507Y-87226654D01*
X92511692Y-87122167D01*
X92511691Y-87122166D01*
X92506350Y-87118286D01*
X92500322Y-87115602D01*
X92500320Y-87115601D01*
X92337918Y-87043295D01*
X92337917Y-87043295D01*
X92331887Y-87040610D01*
X92238487Y-87020757D01*
X92151544Y-87002276D01*
X92151539Y-87002276D01*
X92145087Y-87000904D01*
X91954113Y-87000904D01*
X91947661Y-87002276D01*
X91947656Y-87002276D01*
X91860713Y-87020757D01*
X91767313Y-87040610D01*
X91761283Y-87043295D01*
X91761282Y-87043295D01*
X91598880Y-87115601D01*
X91598878Y-87115602D01*
X91592850Y-87118286D01*
X91587509Y-87122166D01*
X91587508Y-87122167D01*
X91443693Y-87226654D01*
X91443691Y-87226656D01*
X91438349Y-87230537D01*
X91310563Y-87372458D01*
X91215076Y-87537846D01*
X91213034Y-87544131D01*
X91161189Y-87703695D01*
X91156062Y-87719473D01*
X91155372Y-87726036D01*
X91155372Y-87726037D01*
X91149431Y-87782567D01*
X91136100Y-87909400D01*
X75913475Y-87909400D01*
X75901273Y-87895848D01*
X75901272Y-87895847D01*
X75896851Y-87890937D01*
X75891509Y-87887056D01*
X75891507Y-87887054D01*
X75747692Y-87782567D01*
X75747691Y-87782566D01*
X75742350Y-87778686D01*
X75736322Y-87776002D01*
X75736320Y-87776001D01*
X75573918Y-87703695D01*
X75573917Y-87703695D01*
X75567887Y-87701010D01*
X75474487Y-87681157D01*
X75387544Y-87662676D01*
X75387539Y-87662676D01*
X75381087Y-87661304D01*
X75190113Y-87661304D01*
X75183661Y-87662676D01*
X75183656Y-87662676D01*
X75096713Y-87681157D01*
X75003313Y-87701010D01*
X74997283Y-87703695D01*
X74997282Y-87703695D01*
X74834880Y-87776001D01*
X74834878Y-87776002D01*
X74828850Y-87778686D01*
X74823509Y-87782566D01*
X74823508Y-87782567D01*
X74679693Y-87887054D01*
X74679691Y-87887056D01*
X74674349Y-87890937D01*
X74669928Y-87895847D01*
X74669927Y-87895848D01*
X74628609Y-87941737D01*
X74546563Y-88032858D01*
X74451076Y-88198246D01*
X74392062Y-88379873D01*
X74372100Y-88569800D01*
X72815561Y-88569800D01*
X72800938Y-88430673D01*
X72741924Y-88249046D01*
X72646437Y-88083658D01*
X72596278Y-88027950D01*
X72523073Y-87946648D01*
X72523072Y-87946647D01*
X72518651Y-87941737D01*
X72513309Y-87937856D01*
X72513307Y-87937854D01*
X72369492Y-87833367D01*
X72369491Y-87833366D01*
X72364150Y-87829486D01*
X72358122Y-87826802D01*
X72358120Y-87826801D01*
X72195718Y-87754495D01*
X72195717Y-87754495D01*
X72189687Y-87751810D01*
X72096287Y-87731957D01*
X72009344Y-87713476D01*
X72009339Y-87713476D01*
X72002887Y-87712104D01*
X71811913Y-87712104D01*
X71805461Y-87713476D01*
X71805456Y-87713476D01*
X71718513Y-87731957D01*
X71625113Y-87751810D01*
X71619083Y-87754495D01*
X71619082Y-87754495D01*
X71456680Y-87826801D01*
X71456678Y-87826802D01*
X71450650Y-87829486D01*
X71445309Y-87833366D01*
X71445308Y-87833367D01*
X71301493Y-87937854D01*
X71301491Y-87937856D01*
X71296149Y-87941737D01*
X71291728Y-87946647D01*
X71291727Y-87946648D01*
X71218523Y-88027950D01*
X71168363Y-88083658D01*
X71072876Y-88249046D01*
X71013862Y-88430673D01*
X70993900Y-88620600D01*
X71013862Y-88810527D01*
X71072876Y-88992154D01*
X71168363Y-89157542D01*
X71172781Y-89162449D01*
X71172782Y-89162450D01*
X71253905Y-89252546D01*
X71296149Y-89299463D01*
X71301494Y-89303346D01*
X71381845Y-89361725D01*
X71425199Y-89417947D01*
X71431274Y-89488684D01*
X71398142Y-89551475D01*
X71333982Y-89586908D01*
X71244113Y-89606010D01*
X71238083Y-89608695D01*
X71238082Y-89608695D01*
X71075680Y-89681001D01*
X71075678Y-89681002D01*
X71069650Y-89683686D01*
X71064309Y-89687566D01*
X71064308Y-89687567D01*
X70920493Y-89792054D01*
X70920491Y-89792056D01*
X70915149Y-89795937D01*
X70787363Y-89937858D01*
X70691876Y-90103246D01*
X70632862Y-90284873D01*
X70612900Y-90474800D01*
X64232999Y-90474800D01*
X64232999Y-84582000D01*
X67437900Y-84582000D01*
X67457862Y-84771927D01*
X67516876Y-84953554D01*
X67520179Y-84959276D01*
X67520180Y-84959277D01*
X67527208Y-84971450D01*
X67612363Y-85118942D01*
X67616781Y-85123849D01*
X67616782Y-85123850D01*
X67683546Y-85197999D01*
X67740149Y-85260863D01*
X67745491Y-85264744D01*
X67745493Y-85264746D01*
X67889308Y-85369233D01*
X67894650Y-85373114D01*
X67900678Y-85375798D01*
X67900680Y-85375799D01*
X68014779Y-85426599D01*
X68069113Y-85450790D01*
X68162513Y-85470643D01*
X68249456Y-85489124D01*
X68249461Y-85489124D01*
X68255913Y-85490496D01*
X68446887Y-85490496D01*
X68453339Y-85489124D01*
X68453344Y-85489124D01*
X68540287Y-85470643D01*
X68633687Y-85450790D01*
X68688021Y-85426599D01*
X68802120Y-85375799D01*
X68802122Y-85375798D01*
X68808150Y-85373114D01*
X68813492Y-85369233D01*
X68957307Y-85264746D01*
X68957309Y-85264744D01*
X68962651Y-85260863D01*
X69019254Y-85197999D01*
X69086018Y-85123850D01*
X69086019Y-85123849D01*
X69090437Y-85118942D01*
X69175592Y-84971450D01*
X69182620Y-84959277D01*
X69182621Y-84959276D01*
X69185924Y-84953554D01*
X69244938Y-84771927D01*
X69264900Y-84582000D01*
X69248882Y-84429600D01*
X70079500Y-84429600D01*
X70099462Y-84619527D01*
X70101502Y-84625805D01*
X70101502Y-84625806D01*
X70105908Y-84639365D01*
X70158476Y-84801154D01*
X70253963Y-84966542D01*
X70381749Y-85108463D01*
X70387091Y-85112344D01*
X70387093Y-85112346D01*
X70504985Y-85197999D01*
X70536250Y-85220714D01*
X70542278Y-85223398D01*
X70542280Y-85223399D01*
X70656745Y-85274362D01*
X70710713Y-85298390D01*
X70778017Y-85312696D01*
X70891056Y-85336724D01*
X70891061Y-85336724D01*
X70897513Y-85338096D01*
X71088487Y-85338096D01*
X71094939Y-85336724D01*
X71094944Y-85336724D01*
X71207983Y-85312696D01*
X71275287Y-85298390D01*
X71329255Y-85274362D01*
X71443720Y-85223399D01*
X71443722Y-85223398D01*
X71449750Y-85220714D01*
X71481015Y-85197999D01*
X71598907Y-85112346D01*
X71598909Y-85112344D01*
X71604251Y-85108463D01*
X71732037Y-84966542D01*
X71827524Y-84801154D01*
X71880092Y-84639365D01*
X71882225Y-84632800D01*
X76175500Y-84632800D01*
X76195462Y-84822727D01*
X76254476Y-85004354D01*
X76349963Y-85169742D01*
X76354381Y-85174649D01*
X76354382Y-85174650D01*
X76435505Y-85264746D01*
X76477749Y-85311663D01*
X76483091Y-85315544D01*
X76483093Y-85315546D01*
X76562329Y-85373114D01*
X76632250Y-85423914D01*
X76638278Y-85426598D01*
X76638280Y-85426599D01*
X76778714Y-85489124D01*
X76806713Y-85501590D01*
X76900113Y-85521443D01*
X76987056Y-85539924D01*
X76987061Y-85539924D01*
X76993513Y-85541296D01*
X77184487Y-85541296D01*
X77190939Y-85539924D01*
X77190944Y-85539924D01*
X77277887Y-85521443D01*
X77371287Y-85501590D01*
X77399286Y-85489124D01*
X77539720Y-85426599D01*
X77539722Y-85426598D01*
X77545750Y-85423914D01*
X77615671Y-85373114D01*
X77694907Y-85315546D01*
X77694909Y-85315544D01*
X77700251Y-85311663D01*
X77742495Y-85264746D01*
X77823618Y-85174650D01*
X77823619Y-85174649D01*
X77828037Y-85169742D01*
X77923524Y-85004354D01*
X77982538Y-84822727D01*
X78002500Y-84632800D01*
X83693900Y-84632800D01*
X83713862Y-84822727D01*
X83772876Y-85004354D01*
X83868363Y-85169742D01*
X83872781Y-85174649D01*
X83872782Y-85174650D01*
X83953905Y-85264746D01*
X83996149Y-85311663D01*
X84001491Y-85315544D01*
X84001493Y-85315546D01*
X84080729Y-85373114D01*
X84150650Y-85423914D01*
X84156678Y-85426598D01*
X84156680Y-85426599D01*
X84297114Y-85489124D01*
X84325113Y-85501590D01*
X84418513Y-85521443D01*
X84505456Y-85539924D01*
X84505461Y-85539924D01*
X84511913Y-85541296D01*
X84702887Y-85541296D01*
X84709339Y-85539924D01*
X84709344Y-85539924D01*
X84796287Y-85521443D01*
X84889687Y-85501590D01*
X84917686Y-85489124D01*
X85058120Y-85426599D01*
X85058122Y-85426598D01*
X85064150Y-85423914D01*
X85134071Y-85373114D01*
X85213307Y-85315546D01*
X85213309Y-85315544D01*
X85218651Y-85311663D01*
X85260895Y-85264746D01*
X85342018Y-85174650D01*
X85342019Y-85174649D01*
X85346437Y-85169742D01*
X85441924Y-85004354D01*
X85500938Y-84822727D01*
X85520900Y-84632800D01*
X85500938Y-84442873D01*
X85498759Y-84436165D01*
X85488373Y-84404200D01*
X92710900Y-84404200D01*
X92730862Y-84594127D01*
X92732902Y-84600405D01*
X92732902Y-84600406D01*
X92745561Y-84639365D01*
X92789876Y-84775754D01*
X92885363Y-84941142D01*
X93013149Y-85083063D01*
X93018491Y-85086944D01*
X93018493Y-85086946D01*
X93132453Y-85169742D01*
X93167650Y-85195314D01*
X93173678Y-85197998D01*
X93173680Y-85197999D01*
X93336082Y-85270305D01*
X93342113Y-85272990D01*
X93435513Y-85292843D01*
X93522456Y-85311324D01*
X93522461Y-85311324D01*
X93528913Y-85312696D01*
X93719887Y-85312696D01*
X93726339Y-85311324D01*
X93726344Y-85311324D01*
X93813287Y-85292843D01*
X93906687Y-85272990D01*
X93912718Y-85270305D01*
X94075120Y-85197999D01*
X94075122Y-85197998D01*
X94081150Y-85195314D01*
X94116347Y-85169742D01*
X94230307Y-85086946D01*
X94230309Y-85086944D01*
X94235651Y-85083063D01*
X94363437Y-84941142D01*
X94458924Y-84775754D01*
X94503239Y-84639365D01*
X94515898Y-84600406D01*
X94515898Y-84600405D01*
X94517938Y-84594127D01*
X94537900Y-84404200D01*
X94517938Y-84214273D01*
X94458924Y-84032646D01*
X94363437Y-83867258D01*
X94343907Y-83845567D01*
X94240073Y-83730248D01*
X94240072Y-83730247D01*
X94235651Y-83725337D01*
X94230309Y-83721456D01*
X94230307Y-83721454D01*
X94086492Y-83616967D01*
X94086491Y-83616966D01*
X94081150Y-83613086D01*
X94075122Y-83610402D01*
X94075120Y-83610401D01*
X93912718Y-83538095D01*
X93912717Y-83538095D01*
X93906687Y-83535410D01*
X93813287Y-83515557D01*
X93726344Y-83497076D01*
X93726339Y-83497076D01*
X93719887Y-83495704D01*
X93528913Y-83495704D01*
X93522461Y-83497076D01*
X93522456Y-83497076D01*
X93435513Y-83515557D01*
X93342113Y-83535410D01*
X93336083Y-83538095D01*
X93336082Y-83538095D01*
X93173680Y-83610401D01*
X93173678Y-83610402D01*
X93167650Y-83613086D01*
X93162309Y-83616966D01*
X93162308Y-83616967D01*
X93018493Y-83721454D01*
X93018491Y-83721456D01*
X93013149Y-83725337D01*
X93008728Y-83730247D01*
X93008727Y-83730248D01*
X92904894Y-83845567D01*
X92885363Y-83867258D01*
X92789876Y-84032646D01*
X92730862Y-84214273D01*
X92710900Y-84404200D01*
X85488373Y-84404200D01*
X85443966Y-84267531D01*
X85441924Y-84261246D01*
X85346437Y-84095858D01*
X85296278Y-84040150D01*
X85223073Y-83958848D01*
X85223072Y-83958847D01*
X85218651Y-83953937D01*
X85213309Y-83950056D01*
X85213307Y-83950054D01*
X85069492Y-83845567D01*
X85069491Y-83845566D01*
X85064150Y-83841686D01*
X85058122Y-83839002D01*
X85058120Y-83839001D01*
X84895718Y-83766695D01*
X84895717Y-83766695D01*
X84889687Y-83764010D01*
X84796287Y-83744157D01*
X84709344Y-83725676D01*
X84709339Y-83725676D01*
X84702887Y-83724304D01*
X84511913Y-83724304D01*
X84505461Y-83725676D01*
X84505456Y-83725676D01*
X84418513Y-83744157D01*
X84325113Y-83764010D01*
X84319083Y-83766695D01*
X84319082Y-83766695D01*
X84156680Y-83839001D01*
X84156678Y-83839002D01*
X84150650Y-83841686D01*
X84145309Y-83845566D01*
X84145308Y-83845567D01*
X84001493Y-83950054D01*
X84001491Y-83950056D01*
X83996149Y-83953937D01*
X83991728Y-83958847D01*
X83991727Y-83958848D01*
X83918523Y-84040150D01*
X83868363Y-84095858D01*
X83772876Y-84261246D01*
X83770834Y-84267531D01*
X83716042Y-84436165D01*
X83713862Y-84442873D01*
X83693900Y-84632800D01*
X78002500Y-84632800D01*
X77982538Y-84442873D01*
X77980359Y-84436165D01*
X77925566Y-84267531D01*
X77923524Y-84261246D01*
X77828037Y-84095858D01*
X77777878Y-84040150D01*
X77704673Y-83958848D01*
X77704672Y-83958847D01*
X77700251Y-83953937D01*
X77694909Y-83950056D01*
X77694907Y-83950054D01*
X77551092Y-83845567D01*
X77551091Y-83845566D01*
X77545750Y-83841686D01*
X77539722Y-83839002D01*
X77539720Y-83839001D01*
X77377318Y-83766695D01*
X77377317Y-83766695D01*
X77371287Y-83764010D01*
X77277887Y-83744157D01*
X77190944Y-83725676D01*
X77190939Y-83725676D01*
X77184487Y-83724304D01*
X76993513Y-83724304D01*
X76987061Y-83725676D01*
X76987056Y-83725676D01*
X76900113Y-83744157D01*
X76806713Y-83764010D01*
X76800683Y-83766695D01*
X76800682Y-83766695D01*
X76638280Y-83839001D01*
X76638278Y-83839002D01*
X76632250Y-83841686D01*
X76626909Y-83845566D01*
X76626908Y-83845567D01*
X76483093Y-83950054D01*
X76483091Y-83950056D01*
X76477749Y-83953937D01*
X76473328Y-83958847D01*
X76473327Y-83958848D01*
X76400123Y-84040150D01*
X76349963Y-84095858D01*
X76254476Y-84261246D01*
X76252434Y-84267531D01*
X76197642Y-84436165D01*
X76195462Y-84442873D01*
X76175500Y-84632800D01*
X71882225Y-84632800D01*
X71884498Y-84625806D01*
X71884498Y-84625805D01*
X71886538Y-84619527D01*
X71906500Y-84429600D01*
X71886538Y-84239673D01*
X71827524Y-84058046D01*
X71820026Y-84045058D01*
X71770252Y-83958848D01*
X71732037Y-83892658D01*
X71633078Y-83782752D01*
X71608673Y-83755648D01*
X71608672Y-83755647D01*
X71604251Y-83750737D01*
X71598909Y-83746856D01*
X71598907Y-83746854D01*
X71455092Y-83642367D01*
X71455091Y-83642366D01*
X71449750Y-83638486D01*
X71443722Y-83635802D01*
X71443720Y-83635801D01*
X71281318Y-83563495D01*
X71281317Y-83563495D01*
X71275287Y-83560810D01*
X71181887Y-83540957D01*
X71094944Y-83522476D01*
X71094939Y-83522476D01*
X71088487Y-83521104D01*
X70897513Y-83521104D01*
X70891061Y-83522476D01*
X70891056Y-83522476D01*
X70804113Y-83540957D01*
X70710713Y-83560810D01*
X70704683Y-83563495D01*
X70704682Y-83563495D01*
X70542280Y-83635801D01*
X70542278Y-83635802D01*
X70536250Y-83638486D01*
X70530909Y-83642366D01*
X70530908Y-83642367D01*
X70387093Y-83746854D01*
X70387091Y-83746856D01*
X70381749Y-83750737D01*
X70377328Y-83755647D01*
X70377327Y-83755648D01*
X70352923Y-83782752D01*
X70253963Y-83892658D01*
X70215748Y-83958848D01*
X70165975Y-84045058D01*
X70158476Y-84058046D01*
X70099462Y-84239673D01*
X70079500Y-84429600D01*
X69248882Y-84429600D01*
X69244938Y-84392073D01*
X69185924Y-84210446D01*
X69090437Y-84045058D01*
X69008392Y-83953937D01*
X68967073Y-83908048D01*
X68967072Y-83908047D01*
X68962651Y-83903137D01*
X68957309Y-83899256D01*
X68957307Y-83899254D01*
X68813492Y-83794767D01*
X68813491Y-83794766D01*
X68808150Y-83790886D01*
X68802122Y-83788202D01*
X68802120Y-83788201D01*
X68639718Y-83715895D01*
X68639717Y-83715895D01*
X68633687Y-83713210D01*
X68540287Y-83693357D01*
X68453344Y-83674876D01*
X68453339Y-83674876D01*
X68446887Y-83673504D01*
X68255913Y-83673504D01*
X68249461Y-83674876D01*
X68249456Y-83674876D01*
X68162513Y-83693357D01*
X68069113Y-83713210D01*
X68063083Y-83715895D01*
X68063082Y-83715895D01*
X67900680Y-83788201D01*
X67900678Y-83788202D01*
X67894650Y-83790886D01*
X67889309Y-83794766D01*
X67889308Y-83794767D01*
X67745493Y-83899254D01*
X67745491Y-83899256D01*
X67740149Y-83903137D01*
X67735728Y-83908047D01*
X67735727Y-83908048D01*
X67694409Y-83953937D01*
X67612363Y-84045058D01*
X67516876Y-84210446D01*
X67457862Y-84392073D01*
X67437900Y-84582000D01*
X64232999Y-84582000D01*
X64232999Y-83108800D01*
X73000500Y-83108800D01*
X73020462Y-83298727D01*
X73079476Y-83480354D01*
X73174963Y-83645742D01*
X73179381Y-83650649D01*
X73179382Y-83650650D01*
X73280216Y-83762638D01*
X73302749Y-83787663D01*
X73308091Y-83791544D01*
X73308093Y-83791546D01*
X73447263Y-83892658D01*
X73457250Y-83899914D01*
X73463278Y-83902598D01*
X73463280Y-83902599D01*
X73625682Y-83974905D01*
X73631713Y-83977590D01*
X73725113Y-83997443D01*
X73812056Y-84015924D01*
X73812061Y-84015924D01*
X73818513Y-84017296D01*
X74009487Y-84017296D01*
X74015939Y-84015924D01*
X74015944Y-84015924D01*
X74102887Y-83997443D01*
X74196287Y-83977590D01*
X74202318Y-83974905D01*
X74364720Y-83902599D01*
X74364722Y-83902598D01*
X74370750Y-83899914D01*
X74380737Y-83892658D01*
X74519907Y-83791546D01*
X74519909Y-83791544D01*
X74525251Y-83787663D01*
X74547784Y-83762638D01*
X74648618Y-83650650D01*
X74648619Y-83650649D01*
X74653037Y-83645742D01*
X74748524Y-83480354D01*
X74807538Y-83298727D01*
X74813462Y-83242362D01*
X74817481Y-83204129D01*
X74844495Y-83138472D01*
X74902716Y-83097843D01*
X74973661Y-83095140D01*
X75016852Y-83115364D01*
X75082850Y-83163314D01*
X75088878Y-83165998D01*
X75088880Y-83165999D01*
X75251282Y-83238305D01*
X75257313Y-83240990D01*
X75350713Y-83260843D01*
X75437656Y-83279324D01*
X75437661Y-83279324D01*
X75444113Y-83280696D01*
X75635087Y-83280696D01*
X75641539Y-83279324D01*
X75641544Y-83279324D01*
X75728487Y-83260843D01*
X75821887Y-83240990D01*
X75827918Y-83238305D01*
X75990320Y-83165999D01*
X75990322Y-83165998D01*
X75996350Y-83163314D01*
X76001692Y-83159433D01*
X76145507Y-83054946D01*
X76145509Y-83054944D01*
X76150851Y-83051063D01*
X76192769Y-83004508D01*
X76274218Y-82914050D01*
X76274219Y-82914049D01*
X76278637Y-82909142D01*
X76374124Y-82743754D01*
X76433138Y-82562127D01*
X76446516Y-82434848D01*
X76452410Y-82378765D01*
X76453100Y-82372200D01*
X88138900Y-82372200D01*
X88139590Y-82378765D01*
X88145485Y-82434848D01*
X88158862Y-82562127D01*
X88217876Y-82743754D01*
X88313363Y-82909142D01*
X88317781Y-82914049D01*
X88317782Y-82914050D01*
X88399231Y-83004508D01*
X88441149Y-83051063D01*
X88446491Y-83054944D01*
X88446493Y-83054946D01*
X88590308Y-83159433D01*
X88595650Y-83163314D01*
X88601678Y-83165998D01*
X88601680Y-83165999D01*
X88764082Y-83238305D01*
X88770113Y-83240990D01*
X88863513Y-83260843D01*
X88950456Y-83279324D01*
X88950461Y-83279324D01*
X88956913Y-83280696D01*
X89147887Y-83280696D01*
X89154339Y-83279324D01*
X89154344Y-83279324D01*
X89241287Y-83260843D01*
X89334687Y-83240990D01*
X89340718Y-83238305D01*
X89503120Y-83165999D01*
X89503122Y-83165998D01*
X89509150Y-83163314D01*
X89514492Y-83159433D01*
X89658307Y-83054946D01*
X89658309Y-83054944D01*
X89663651Y-83051063D01*
X89668073Y-83046152D01*
X89673260Y-83040392D01*
X89733707Y-83003154D01*
X89804691Y-83004508D01*
X89818143Y-83009598D01*
X89932482Y-83060505D01*
X89938513Y-83063190D01*
X90031913Y-83083043D01*
X90118856Y-83101524D01*
X90118861Y-83101524D01*
X90125313Y-83102896D01*
X90316287Y-83102896D01*
X90322739Y-83101524D01*
X90322744Y-83101524D01*
X90409687Y-83083043D01*
X90503087Y-83063190D01*
X90509118Y-83060505D01*
X90671520Y-82988199D01*
X90671522Y-82988198D01*
X90677550Y-82985514D01*
X90682892Y-82981633D01*
X90826707Y-82877146D01*
X90826709Y-82877144D01*
X90832051Y-82873263D01*
X90959837Y-82731342D01*
X91055324Y-82565954D01*
X91097923Y-82434848D01*
X91112298Y-82390606D01*
X91112298Y-82390605D01*
X91114338Y-82384327D01*
X91116303Y-82365636D01*
X91133610Y-82200965D01*
X91134300Y-82194400D01*
X91114338Y-82004473D01*
X91110859Y-81993764D01*
X91057366Y-81829131D01*
X91055324Y-81822846D01*
X90959837Y-81657458D01*
X90927216Y-81621228D01*
X90836473Y-81520448D01*
X90836472Y-81520447D01*
X90832051Y-81515537D01*
X90826709Y-81511656D01*
X90826707Y-81511654D01*
X90682892Y-81407167D01*
X90682891Y-81407166D01*
X90677550Y-81403286D01*
X90671522Y-81400602D01*
X90671520Y-81400601D01*
X90509118Y-81328295D01*
X90509117Y-81328295D01*
X90503087Y-81325610D01*
X90409687Y-81305757D01*
X90322744Y-81287276D01*
X90322739Y-81287276D01*
X90316287Y-81285904D01*
X90125313Y-81285904D01*
X90118861Y-81287276D01*
X90118856Y-81287276D01*
X90031913Y-81305757D01*
X89938513Y-81325610D01*
X89932483Y-81328295D01*
X89932482Y-81328295D01*
X89770080Y-81400601D01*
X89770078Y-81400602D01*
X89764050Y-81403286D01*
X89758709Y-81407166D01*
X89758708Y-81407167D01*
X89614893Y-81511654D01*
X89614891Y-81511656D01*
X89609549Y-81515537D01*
X89605128Y-81520447D01*
X89605127Y-81520448D01*
X89599940Y-81526208D01*
X89539493Y-81563446D01*
X89468509Y-81562092D01*
X89455057Y-81557002D01*
X89340718Y-81506095D01*
X89340717Y-81506095D01*
X89334687Y-81503410D01*
X89211832Y-81477296D01*
X89154344Y-81465076D01*
X89154339Y-81465076D01*
X89147887Y-81463704D01*
X88956913Y-81463704D01*
X88950461Y-81465076D01*
X88950456Y-81465076D01*
X88892968Y-81477296D01*
X88770113Y-81503410D01*
X88764083Y-81506095D01*
X88764082Y-81506095D01*
X88601680Y-81578401D01*
X88601678Y-81578402D01*
X88595650Y-81581086D01*
X88590309Y-81584966D01*
X88590308Y-81584967D01*
X88446493Y-81689454D01*
X88446491Y-81689456D01*
X88441149Y-81693337D01*
X88313363Y-81835258D01*
X88217876Y-82000646D01*
X88158862Y-82182273D01*
X88138900Y-82372200D01*
X76453100Y-82372200D01*
X76433138Y-82182273D01*
X76374124Y-82000646D01*
X76278637Y-81835258D01*
X76166459Y-81710671D01*
X76135741Y-81646664D01*
X76144506Y-81576210D01*
X76189969Y-81521679D01*
X76257696Y-81500384D01*
X76273264Y-81501051D01*
X76275855Y-81501323D01*
X76282313Y-81502696D01*
X76473287Y-81502696D01*
X76479739Y-81501324D01*
X76479744Y-81501324D01*
X76592783Y-81477296D01*
X76660087Y-81462990D01*
X76714055Y-81438962D01*
X76828520Y-81387999D01*
X76828522Y-81387998D01*
X76834550Y-81385314D01*
X76865815Y-81362599D01*
X76983707Y-81276946D01*
X76983709Y-81276944D01*
X76989051Y-81273063D01*
X77015159Y-81244067D01*
X77112418Y-81136050D01*
X77112419Y-81136049D01*
X77116837Y-81131142D01*
X77212324Y-80965754D01*
X77271338Y-80784127D01*
X77291300Y-80594200D01*
X77287940Y-80562235D01*
X77272028Y-80410837D01*
X77272028Y-80410836D01*
X77271338Y-80404273D01*
X77266265Y-80388658D01*
X77245184Y-80323777D01*
X79962968Y-80323777D01*
X79963143Y-80328229D01*
X79965391Y-80385435D01*
X79965391Y-80385436D01*
X79973127Y-80582328D01*
X79973854Y-80600844D01*
X80023670Y-80873614D01*
X80025079Y-80877837D01*
X80095593Y-81089194D01*
X80111423Y-81136644D01*
X80170658Y-81255192D01*
X80224327Y-81362599D01*
X80235362Y-81384684D01*
X80393014Y-81612787D01*
X80396036Y-81616056D01*
X80578217Y-81813139D01*
X80578222Y-81813144D01*
X80581233Y-81816401D01*
X80796264Y-81991464D01*
X80800082Y-81993763D01*
X80800084Y-81993764D01*
X80964068Y-82092490D01*
X81033816Y-82134482D01*
X81131850Y-82175994D01*
X81285046Y-82240865D01*
X81285051Y-82240867D01*
X81289149Y-82242602D01*
X81293446Y-82243741D01*
X81293451Y-82243743D01*
X81418396Y-82276871D01*
X81557169Y-82313666D01*
X81832529Y-82346257D01*
X82109734Y-82339724D01*
X82114132Y-82338992D01*
X82378862Y-82294929D01*
X82378866Y-82294928D01*
X82383252Y-82294198D01*
X82387493Y-82292857D01*
X82387496Y-82292856D01*
X82643381Y-82211930D01*
X82643383Y-82211929D01*
X82647627Y-82210587D01*
X82651638Y-82208661D01*
X82651643Y-82208659D01*
X82893565Y-82092490D01*
X82893566Y-82092489D01*
X82897584Y-82090560D01*
X83032150Y-82000646D01*
X83124428Y-81938988D01*
X83124432Y-81938985D01*
X83128136Y-81936510D01*
X83131453Y-81933539D01*
X83131457Y-81933536D01*
X83331363Y-81754485D01*
X83331364Y-81754484D01*
X83334681Y-81751513D01*
X83513099Y-81539258D01*
X83659831Y-81303982D01*
X83771948Y-81050379D01*
X83847213Y-80783507D01*
X83851423Y-80752163D01*
X83883698Y-80511876D01*
X83883699Y-80511868D01*
X83884125Y-80508694D01*
X83887407Y-80404273D01*
X83887898Y-80388658D01*
X83887898Y-80388653D01*
X83887999Y-80385436D01*
X83868415Y-80108847D01*
X83858540Y-80062976D01*
X83810992Y-79842123D01*
X83810991Y-79842121D01*
X83810056Y-79837776D01*
X83714084Y-79577633D01*
X83582415Y-79333608D01*
X83417676Y-79110569D01*
X83375582Y-79067808D01*
X83322135Y-79013516D01*
X83223154Y-78912968D01*
X83219614Y-78910267D01*
X83219608Y-78910261D01*
X83017417Y-78755954D01*
X83002731Y-78744746D01*
X82998842Y-78742568D01*
X82764690Y-78611436D01*
X82764687Y-78611435D01*
X82760804Y-78609260D01*
X82756665Y-78607659D01*
X82756657Y-78607655D01*
X82565014Y-78533515D01*
X82502200Y-78509214D01*
X82497879Y-78508212D01*
X82497871Y-78508210D01*
X82319929Y-78466966D01*
X82232080Y-78446604D01*
X81955832Y-78422678D01*
X81951397Y-78422922D01*
X81951393Y-78422922D01*
X81683413Y-78437670D01*
X81683406Y-78437671D01*
X81678970Y-78437915D01*
X81407016Y-78492010D01*
X81402806Y-78493488D01*
X81402804Y-78493489D01*
X81249557Y-78547306D01*
X81145398Y-78583884D01*
X80899334Y-78711703D01*
X80895707Y-78714295D01*
X80895702Y-78714298D01*
X80791694Y-78788624D01*
X80673736Y-78872919D01*
X80553016Y-78988079D01*
X80479351Y-79058352D01*
X80473103Y-79064312D01*
X80301440Y-79282066D01*
X80238687Y-79390102D01*
X80164405Y-79517988D01*
X80164402Y-79517994D01*
X80162171Y-79521835D01*
X80160501Y-79525958D01*
X80095242Y-79687076D01*
X80058075Y-79778836D01*
X80057004Y-79783149D01*
X80057002Y-79783154D01*
X79993803Y-80037576D01*
X79991229Y-80047939D01*
X79990775Y-80052367D01*
X79990775Y-80052369D01*
X79976823Y-80188544D01*
X79962968Y-80323777D01*
X77245184Y-80323777D01*
X77214366Y-80228931D01*
X77212324Y-80222646D01*
X77116837Y-80057258D01*
X76989051Y-79915337D01*
X76983709Y-79911456D01*
X76983707Y-79911454D01*
X76839892Y-79806967D01*
X76839891Y-79806966D01*
X76834550Y-79803086D01*
X76828522Y-79800402D01*
X76828520Y-79800401D01*
X76666118Y-79728095D01*
X76666117Y-79728095D01*
X76660087Y-79725410D01*
X76566687Y-79705557D01*
X76479744Y-79687076D01*
X76479739Y-79687076D01*
X76473287Y-79685704D01*
X76282313Y-79685704D01*
X76275861Y-79687076D01*
X76275856Y-79687076D01*
X76188913Y-79705557D01*
X76095513Y-79725410D01*
X76089483Y-79728095D01*
X76089482Y-79728095D01*
X75927080Y-79800401D01*
X75927078Y-79800402D01*
X75921050Y-79803086D01*
X75915709Y-79806966D01*
X75915708Y-79806967D01*
X75771893Y-79911454D01*
X75771891Y-79911456D01*
X75766549Y-79915337D01*
X75720869Y-79966070D01*
X75660426Y-80003308D01*
X75589442Y-80001957D01*
X75533602Y-79966070D01*
X75465051Y-79889937D01*
X75459709Y-79886056D01*
X75459707Y-79886054D01*
X75315892Y-79781567D01*
X75315891Y-79781566D01*
X75310550Y-79777686D01*
X75304522Y-79775002D01*
X75304520Y-79775001D01*
X75142118Y-79702695D01*
X75142117Y-79702695D01*
X75136087Y-79700010D01*
X75042687Y-79680157D01*
X74955744Y-79661676D01*
X74955739Y-79661676D01*
X74949287Y-79660304D01*
X74758313Y-79660304D01*
X74751861Y-79661676D01*
X74751856Y-79661676D01*
X74664913Y-79680157D01*
X74571513Y-79700010D01*
X74565483Y-79702695D01*
X74565482Y-79702695D01*
X74403080Y-79775001D01*
X74403078Y-79775002D01*
X74397050Y-79777686D01*
X74391709Y-79781566D01*
X74391708Y-79781567D01*
X74247893Y-79886054D01*
X74247891Y-79886056D01*
X74242549Y-79889937D01*
X74238128Y-79894847D01*
X74238127Y-79894848D01*
X74143218Y-80000256D01*
X74114763Y-80031858D01*
X74019276Y-80197246D01*
X73960262Y-80378873D01*
X73959572Y-80385434D01*
X73959572Y-80385436D01*
X73958252Y-80397994D01*
X73940300Y-80568800D01*
X73960262Y-80758727D01*
X74019276Y-80940354D01*
X74114763Y-81105742D01*
X74242549Y-81247663D01*
X74247891Y-81251544D01*
X74247893Y-81251546D01*
X74325270Y-81307763D01*
X74397050Y-81359914D01*
X74403078Y-81362598D01*
X74403080Y-81362599D01*
X74565482Y-81434905D01*
X74571513Y-81437590D01*
X74664913Y-81457443D01*
X74751856Y-81475924D01*
X74751861Y-81475924D01*
X74758313Y-81477296D01*
X74841078Y-81477296D01*
X74909199Y-81497298D01*
X74955692Y-81550954D01*
X74965796Y-81621228D01*
X74936302Y-81685808D01*
X74930322Y-81691903D01*
X74928349Y-81693337D01*
X74800563Y-81835258D01*
X74705076Y-82000646D01*
X74646062Y-82182273D01*
X74645372Y-82188836D01*
X74645372Y-82188837D01*
X74636119Y-82276871D01*
X74609105Y-82342528D01*
X74550884Y-82383157D01*
X74479939Y-82385860D01*
X74436748Y-82365636D01*
X74376092Y-82321567D01*
X74376091Y-82321566D01*
X74370750Y-82317686D01*
X74364722Y-82315002D01*
X74364720Y-82315001D01*
X74202318Y-82242695D01*
X74202317Y-82242695D01*
X74196287Y-82240010D01*
X74102887Y-82220157D01*
X74015944Y-82201676D01*
X74015939Y-82201676D01*
X74009487Y-82200304D01*
X73818513Y-82200304D01*
X73812061Y-82201676D01*
X73812056Y-82201676D01*
X73725113Y-82220157D01*
X73631713Y-82240010D01*
X73625683Y-82242695D01*
X73625682Y-82242695D01*
X73463280Y-82315001D01*
X73463278Y-82315002D01*
X73457250Y-82317686D01*
X73451909Y-82321566D01*
X73451908Y-82321567D01*
X73308093Y-82426054D01*
X73308091Y-82426056D01*
X73302749Y-82429937D01*
X73174963Y-82571858D01*
X73079476Y-82737246D01*
X73075502Y-82749477D01*
X73035282Y-82873263D01*
X73020462Y-82918873D01*
X73019772Y-82925436D01*
X73019772Y-82925437D01*
X73006568Y-83051063D01*
X73000500Y-83108800D01*
X64232999Y-83108800D01*
X64232999Y-76606400D01*
X70460500Y-76606400D01*
X70461190Y-76612965D01*
X70462282Y-76623350D01*
X70480462Y-76796327D01*
X70539476Y-76977954D01*
X70542779Y-76983676D01*
X70542780Y-76983677D01*
X70556186Y-77006896D01*
X70634963Y-77143342D01*
X70639381Y-77148249D01*
X70639382Y-77148250D01*
X70758327Y-77280352D01*
X70762749Y-77285263D01*
X70768091Y-77289144D01*
X70768093Y-77289146D01*
X70908690Y-77391295D01*
X70917250Y-77397514D01*
X70923278Y-77400198D01*
X70923280Y-77400199D01*
X71073940Y-77467277D01*
X71128036Y-77513257D01*
X71148685Y-77581185D01*
X71129333Y-77649493D01*
X71096752Y-77684320D01*
X71067549Y-77705537D01*
X71063128Y-77710447D01*
X71063127Y-77710448D01*
X71048966Y-77726176D01*
X70939763Y-77847458D01*
X70844276Y-78012846D01*
X70785262Y-78194473D01*
X70765300Y-78384400D01*
X70765990Y-78390965D01*
X70771798Y-78446220D01*
X70785262Y-78574327D01*
X70787302Y-78580605D01*
X70787302Y-78580606D01*
X70796091Y-78607655D01*
X70844276Y-78755954D01*
X70939763Y-78921342D01*
X70944181Y-78926249D01*
X70944182Y-78926250D01*
X71063127Y-79058352D01*
X71067549Y-79063263D01*
X71072891Y-79067144D01*
X71072893Y-79067146D01*
X71132660Y-79110569D01*
X71222050Y-79175514D01*
X71228078Y-79178198D01*
X71228080Y-79178199D01*
X71390482Y-79250505D01*
X71396513Y-79253190D01*
X71489913Y-79273043D01*
X71576856Y-79291524D01*
X71576861Y-79291524D01*
X71583313Y-79292896D01*
X71774287Y-79292896D01*
X71780739Y-79291524D01*
X71780744Y-79291524D01*
X71867687Y-79273043D01*
X71961087Y-79253190D01*
X71967118Y-79250505D01*
X72129520Y-79178199D01*
X72129522Y-79178198D01*
X72135550Y-79175514D01*
X72224940Y-79110569D01*
X72284707Y-79067146D01*
X72284709Y-79067144D01*
X72290051Y-79063263D01*
X72294473Y-79058352D01*
X72413418Y-78926250D01*
X72413419Y-78926249D01*
X72417837Y-78921342D01*
X72513324Y-78755954D01*
X72561509Y-78607655D01*
X72570298Y-78580606D01*
X72570298Y-78580605D01*
X72572338Y-78574327D01*
X72585803Y-78446220D01*
X72591610Y-78390965D01*
X72592300Y-78384400D01*
X72578952Y-78257400D01*
X87427700Y-78257400D01*
X87447662Y-78447327D01*
X87506676Y-78628954D01*
X87602163Y-78794342D01*
X87606581Y-78799249D01*
X87606582Y-78799250D01*
X87711838Y-78916149D01*
X87729949Y-78936263D01*
X87735291Y-78940144D01*
X87735293Y-78940146D01*
X87879108Y-79044633D01*
X87884450Y-79048514D01*
X87890478Y-79051198D01*
X87890480Y-79051199D01*
X88031895Y-79114161D01*
X88058913Y-79126190D01*
X88152313Y-79146043D01*
X88239256Y-79164524D01*
X88239261Y-79164524D01*
X88245713Y-79165896D01*
X88436687Y-79165896D01*
X88443139Y-79164524D01*
X88443144Y-79164524D01*
X88530087Y-79146043D01*
X88623487Y-79126190D01*
X88650505Y-79114161D01*
X88791920Y-79051199D01*
X88791922Y-79051198D01*
X88797950Y-79048514D01*
X88803292Y-79044633D01*
X88947107Y-78940146D01*
X88947109Y-78940144D01*
X88952451Y-78936263D01*
X88970562Y-78916149D01*
X89075818Y-78799250D01*
X89075819Y-78799249D01*
X89080237Y-78794342D01*
X89175724Y-78628954D01*
X89234738Y-78447327D01*
X89254700Y-78257400D01*
X89234738Y-78067473D01*
X89175724Y-77885846D01*
X89080237Y-77720458D01*
X89068165Y-77707050D01*
X88956873Y-77583448D01*
X88956872Y-77583447D01*
X88952451Y-77578537D01*
X88947109Y-77574656D01*
X88947107Y-77574654D01*
X88803292Y-77470167D01*
X88803291Y-77470166D01*
X88797950Y-77466286D01*
X88791922Y-77463602D01*
X88791920Y-77463601D01*
X88629518Y-77391295D01*
X88629517Y-77391295D01*
X88623487Y-77388610D01*
X88530087Y-77368757D01*
X88443144Y-77350276D01*
X88443139Y-77350276D01*
X88436687Y-77348904D01*
X88245713Y-77348904D01*
X88239261Y-77350276D01*
X88239256Y-77350276D01*
X88152313Y-77368757D01*
X88058913Y-77388610D01*
X88052883Y-77391295D01*
X88052882Y-77391295D01*
X87890480Y-77463601D01*
X87890478Y-77463602D01*
X87884450Y-77466286D01*
X87879109Y-77470166D01*
X87879108Y-77470167D01*
X87735293Y-77574654D01*
X87735291Y-77574656D01*
X87729949Y-77578537D01*
X87725528Y-77583447D01*
X87725527Y-77583448D01*
X87614236Y-77707050D01*
X87602163Y-77720458D01*
X87506676Y-77885846D01*
X87447662Y-78067473D01*
X87427700Y-78257400D01*
X72578952Y-78257400D01*
X72572338Y-78194473D01*
X72513324Y-78012846D01*
X72417837Y-77847458D01*
X72308635Y-77726176D01*
X72294473Y-77710448D01*
X72294472Y-77710447D01*
X72290051Y-77705537D01*
X72284709Y-77701656D01*
X72284707Y-77701654D01*
X72140892Y-77597167D01*
X72140891Y-77597166D01*
X72135550Y-77593286D01*
X72129522Y-77590602D01*
X72129520Y-77590601D01*
X71978860Y-77523523D01*
X71924764Y-77477543D01*
X71904115Y-77409615D01*
X71923467Y-77341307D01*
X71956048Y-77306480D01*
X71985251Y-77285263D01*
X71989673Y-77280352D01*
X72108618Y-77148250D01*
X72108619Y-77148249D01*
X72113037Y-77143342D01*
X72191814Y-77006896D01*
X72205220Y-76983677D01*
X72205221Y-76983676D01*
X72208524Y-76977954D01*
X72267538Y-76796327D01*
X72285719Y-76623350D01*
X72286810Y-76612965D01*
X72287500Y-76606400D01*
X72286810Y-76599835D01*
X72268228Y-76423037D01*
X72268228Y-76423036D01*
X72267538Y-76416473D01*
X72239281Y-76329505D01*
X72228527Y-76296410D01*
X72208524Y-76234846D01*
X72113037Y-76069458D01*
X72049579Y-75998980D01*
X71989673Y-75932448D01*
X71989672Y-75932447D01*
X71985251Y-75927537D01*
X71979909Y-75923656D01*
X71979907Y-75923654D01*
X71836092Y-75819167D01*
X71836091Y-75819166D01*
X71830750Y-75815286D01*
X71824722Y-75812602D01*
X71824720Y-75812601D01*
X71662318Y-75740295D01*
X71662317Y-75740295D01*
X71656287Y-75737610D01*
X71562887Y-75717757D01*
X71475944Y-75699276D01*
X71475939Y-75699276D01*
X71469487Y-75697904D01*
X71278513Y-75697904D01*
X71272061Y-75699276D01*
X71272056Y-75699276D01*
X71185113Y-75717757D01*
X71091713Y-75737610D01*
X71085683Y-75740295D01*
X71085682Y-75740295D01*
X70923280Y-75812601D01*
X70923278Y-75812602D01*
X70917250Y-75815286D01*
X70911909Y-75819166D01*
X70911908Y-75819167D01*
X70768093Y-75923654D01*
X70768091Y-75923656D01*
X70762749Y-75927537D01*
X70758328Y-75932447D01*
X70758327Y-75932448D01*
X70698422Y-75998980D01*
X70634963Y-76069458D01*
X70539476Y-76234846D01*
X70519473Y-76296410D01*
X70508720Y-76329505D01*
X70480462Y-76416473D01*
X70479772Y-76423036D01*
X70479772Y-76423037D01*
X70461190Y-76599835D01*
X70460500Y-76606400D01*
X64232999Y-76606400D01*
X64232999Y-75463400D01*
X66015500Y-75463400D01*
X66035462Y-75653327D01*
X66037502Y-75659605D01*
X66037502Y-75659606D01*
X66069957Y-75759493D01*
X66094476Y-75834954D01*
X66097779Y-75840676D01*
X66097780Y-75840677D01*
X66118941Y-75877329D01*
X66189963Y-76000342D01*
X66194381Y-76005249D01*
X66194382Y-76005250D01*
X66278255Y-76098400D01*
X66317749Y-76142263D01*
X66323091Y-76146144D01*
X66323093Y-76146146D01*
X66466908Y-76250633D01*
X66472250Y-76254514D01*
X66478278Y-76257198D01*
X66478280Y-76257199D01*
X66572380Y-76299095D01*
X66646713Y-76332190D01*
X66740113Y-76352043D01*
X66827056Y-76370524D01*
X66827061Y-76370524D01*
X66833513Y-76371896D01*
X67024487Y-76371896D01*
X67030939Y-76370524D01*
X67030944Y-76370524D01*
X67117887Y-76352043D01*
X67211287Y-76332190D01*
X67285620Y-76299095D01*
X67379720Y-76257199D01*
X67379722Y-76257198D01*
X67385750Y-76254514D01*
X67391092Y-76250633D01*
X67534907Y-76146146D01*
X67534909Y-76146144D01*
X67540251Y-76142263D01*
X67579745Y-76098400D01*
X67663618Y-76005250D01*
X67663619Y-76005249D01*
X67668037Y-76000342D01*
X67739059Y-75877329D01*
X67760220Y-75840677D01*
X67760221Y-75840676D01*
X67763524Y-75834954D01*
X67788043Y-75759493D01*
X67820498Y-75659606D01*
X67820498Y-75659605D01*
X67822538Y-75653327D01*
X67842500Y-75463400D01*
X67835164Y-75393599D01*
X67823228Y-75280037D01*
X67823228Y-75280036D01*
X67822538Y-75273473D01*
X67803974Y-75216337D01*
X67778879Y-75139104D01*
X67763524Y-75091846D01*
X67668037Y-74926458D01*
X67599264Y-74850077D01*
X67544673Y-74789448D01*
X67544672Y-74789447D01*
X67540251Y-74784537D01*
X67534909Y-74780656D01*
X67534907Y-74780654D01*
X67391092Y-74676167D01*
X67391091Y-74676166D01*
X67385750Y-74672286D01*
X67379722Y-74669602D01*
X67379720Y-74669601D01*
X67222944Y-74599800D01*
X74803900Y-74599800D01*
X74804590Y-74606365D01*
X74819546Y-74748658D01*
X74823862Y-74789727D01*
X74882876Y-74971354D01*
X74978363Y-75136742D01*
X74982781Y-75141649D01*
X74982782Y-75141650D01*
X75083763Y-75253801D01*
X75106149Y-75278663D01*
X75111491Y-75282544D01*
X75111493Y-75282546D01*
X75223573Y-75363976D01*
X75260650Y-75390914D01*
X75266678Y-75393598D01*
X75266680Y-75393599D01*
X75423456Y-75463400D01*
X75435113Y-75468590D01*
X75528513Y-75488443D01*
X75615456Y-75506924D01*
X75615461Y-75506924D01*
X75621913Y-75508296D01*
X75812887Y-75508296D01*
X75819339Y-75506924D01*
X75819344Y-75506924D01*
X75906287Y-75488443D01*
X75999687Y-75468590D01*
X76011344Y-75463400D01*
X76168120Y-75393599D01*
X76168122Y-75393598D01*
X76174150Y-75390914D01*
X76211227Y-75363976D01*
X76323307Y-75282546D01*
X76323309Y-75282544D01*
X76328651Y-75278663D01*
X76351037Y-75253801D01*
X76452018Y-75141650D01*
X76452019Y-75141649D01*
X76456437Y-75136742D01*
X76551924Y-74971354D01*
X76610938Y-74789727D01*
X76615255Y-74748658D01*
X76630210Y-74606365D01*
X76630900Y-74599800D01*
X76610938Y-74409873D01*
X76551924Y-74228246D01*
X76456437Y-74062858D01*
X76444365Y-74049450D01*
X76333073Y-73925848D01*
X76333072Y-73925847D01*
X76328651Y-73920937D01*
X76323309Y-73917056D01*
X76323307Y-73917054D01*
X76179492Y-73812567D01*
X76179491Y-73812566D01*
X76174150Y-73808686D01*
X76168122Y-73806002D01*
X76168120Y-73806001D01*
X76005718Y-73733695D01*
X76005717Y-73733695D01*
X75999687Y-73731010D01*
X75906287Y-73711157D01*
X75819344Y-73692676D01*
X75819339Y-73692676D01*
X75812887Y-73691304D01*
X75621913Y-73691304D01*
X75615461Y-73692676D01*
X75615456Y-73692676D01*
X75528513Y-73711157D01*
X75435113Y-73731010D01*
X75429083Y-73733695D01*
X75429082Y-73733695D01*
X75266680Y-73806001D01*
X75266678Y-73806002D01*
X75260650Y-73808686D01*
X75255309Y-73812566D01*
X75255308Y-73812567D01*
X75111493Y-73917054D01*
X75111491Y-73917056D01*
X75106149Y-73920937D01*
X75101728Y-73925847D01*
X75101727Y-73925848D01*
X74990436Y-74049450D01*
X74978363Y-74062858D01*
X74882876Y-74228246D01*
X74823862Y-74409873D01*
X74803900Y-74599800D01*
X67222944Y-74599800D01*
X67217318Y-74597295D01*
X67217317Y-74597295D01*
X67211287Y-74594610D01*
X67117887Y-74574757D01*
X67030944Y-74556276D01*
X67030939Y-74556276D01*
X67024487Y-74554904D01*
X66833513Y-74554904D01*
X66827061Y-74556276D01*
X66827056Y-74556276D01*
X66740113Y-74574757D01*
X66646713Y-74594610D01*
X66640683Y-74597295D01*
X66640682Y-74597295D01*
X66478280Y-74669601D01*
X66478278Y-74669602D01*
X66472250Y-74672286D01*
X66466909Y-74676166D01*
X66466908Y-74676167D01*
X66323093Y-74780654D01*
X66323091Y-74780656D01*
X66317749Y-74784537D01*
X66313328Y-74789447D01*
X66313327Y-74789448D01*
X66258737Y-74850077D01*
X66189963Y-74926458D01*
X66094476Y-75091846D01*
X66079121Y-75139104D01*
X66054027Y-75216337D01*
X66035462Y-75273473D01*
X66034772Y-75280036D01*
X66034772Y-75280037D01*
X66022836Y-75393599D01*
X66015500Y-75463400D01*
X64232999Y-75463400D01*
X64232999Y-73609200D01*
X78867900Y-73609200D01*
X78868590Y-73615765D01*
X78875519Y-73681686D01*
X78887862Y-73799127D01*
X78946876Y-73980754D01*
X79042363Y-74146142D01*
X79046781Y-74151049D01*
X79046782Y-74151050D01*
X79159032Y-74275716D01*
X79170149Y-74288063D01*
X79175491Y-74291944D01*
X79175493Y-74291946D01*
X79309523Y-74389324D01*
X79324650Y-74400314D01*
X79330678Y-74402998D01*
X79330680Y-74402999D01*
X79414435Y-74440289D01*
X79499113Y-74477990D01*
X79576720Y-74494486D01*
X79679456Y-74516324D01*
X79679461Y-74516324D01*
X79685913Y-74517696D01*
X79703922Y-74517696D01*
X79772043Y-74537698D01*
X79818536Y-74591354D01*
X79828640Y-74661628D01*
X79797560Y-74728004D01*
X79778963Y-74748658D01*
X79683476Y-74914046D01*
X79624462Y-75095673D01*
X79623772Y-75102236D01*
X79623772Y-75102237D01*
X79619897Y-75139104D01*
X79604500Y-75285600D01*
X79624462Y-75475527D01*
X79626502Y-75481805D01*
X79626502Y-75481806D01*
X79638237Y-75517923D01*
X79683476Y-75657154D01*
X79778963Y-75822542D01*
X79783381Y-75827449D01*
X79783382Y-75827450D01*
X79884253Y-75939479D01*
X79906749Y-75964463D01*
X79912091Y-75968344D01*
X79912093Y-75968346D01*
X80051263Y-76069458D01*
X80061250Y-76076714D01*
X80067278Y-76079398D01*
X80067280Y-76079399D01*
X80229682Y-76151705D01*
X80235713Y-76154390D01*
X80329113Y-76174243D01*
X80416056Y-76192724D01*
X80416061Y-76192724D01*
X80422513Y-76194096D01*
X80613487Y-76194096D01*
X80619939Y-76192724D01*
X80619944Y-76192724D01*
X80706887Y-76174243D01*
X80800287Y-76154390D01*
X80806318Y-76151705D01*
X80968720Y-76079399D01*
X80968722Y-76079398D01*
X80974750Y-76076714D01*
X80984737Y-76069458D01*
X81123907Y-75968346D01*
X81123909Y-75968344D01*
X81129251Y-75964463D01*
X81151747Y-75939479D01*
X81252618Y-75827450D01*
X81252619Y-75827449D01*
X81257037Y-75822542D01*
X81352524Y-75657154D01*
X81411538Y-75475527D01*
X81412228Y-75468962D01*
X81412865Y-75465966D01*
X81446595Y-75403493D01*
X81509913Y-75368920D01*
X81638487Y-75341590D01*
X81644514Y-75338907D01*
X81644522Y-75338904D01*
X81672879Y-75326278D01*
X81743246Y-75316843D01*
X81807544Y-75346949D01*
X81845357Y-75407037D01*
X81844682Y-75478031D01*
X81817765Y-75525694D01*
X81785563Y-75561458D01*
X81782262Y-75567176D01*
X81705994Y-75699276D01*
X81690076Y-75726846D01*
X81688034Y-75733131D01*
X81633242Y-75901765D01*
X81631062Y-75908473D01*
X81611100Y-76098400D01*
X81611790Y-76104965D01*
X81626102Y-76241131D01*
X81631062Y-76288327D01*
X81633102Y-76294605D01*
X81633102Y-76294606D01*
X81645314Y-76332190D01*
X81690076Y-76469954D01*
X81785563Y-76635342D01*
X81789981Y-76640249D01*
X81789982Y-76640250D01*
X81871105Y-76730346D01*
X81913349Y-76777263D01*
X81918691Y-76781144D01*
X81918693Y-76781146D01*
X81997929Y-76838714D01*
X82067850Y-76889514D01*
X82073878Y-76892198D01*
X82073880Y-76892199D01*
X82214314Y-76954724D01*
X82242313Y-76967190D01*
X82335713Y-76987043D01*
X82422656Y-77005524D01*
X82422661Y-77005524D01*
X82429113Y-77006896D01*
X82620087Y-77006896D01*
X82635791Y-77003558D01*
X82661201Y-76998157D01*
X82731991Y-77003558D01*
X82788624Y-77046375D01*
X82796514Y-77058398D01*
X82798259Y-77061421D01*
X82798264Y-77061427D01*
X82801563Y-77067142D01*
X82805981Y-77072049D01*
X82805982Y-77072050D01*
X82889855Y-77165200D01*
X82929349Y-77209063D01*
X82934691Y-77212944D01*
X82934693Y-77212946D01*
X83039574Y-77289146D01*
X83083850Y-77321314D01*
X83089878Y-77323998D01*
X83089880Y-77323999D01*
X83246281Y-77393633D01*
X83258313Y-77398990D01*
X83386423Y-77426221D01*
X83391683Y-77427339D01*
X83454157Y-77461068D01*
X83485319Y-77511649D01*
X83493476Y-77536754D01*
X83588963Y-77702142D01*
X83593381Y-77707049D01*
X83593382Y-77707050D01*
X83605455Y-77720458D01*
X83716749Y-77844063D01*
X83722091Y-77847944D01*
X83722093Y-77847946D01*
X83782909Y-77892131D01*
X83871250Y-77956314D01*
X83877278Y-77958998D01*
X83877280Y-77958999D01*
X84012339Y-78019131D01*
X84045713Y-78033990D01*
X84139113Y-78053843D01*
X84226056Y-78072324D01*
X84226061Y-78072324D01*
X84232513Y-78073696D01*
X84423487Y-78073696D01*
X84429939Y-78072324D01*
X84429944Y-78072324D01*
X84516887Y-78053843D01*
X84610287Y-78033990D01*
X84643661Y-78019131D01*
X84778720Y-77958999D01*
X84778722Y-77958998D01*
X84784750Y-77956314D01*
X84873091Y-77892131D01*
X84933907Y-77847946D01*
X84933909Y-77847944D01*
X84939251Y-77844063D01*
X85050545Y-77720458D01*
X85062618Y-77707050D01*
X85062619Y-77707049D01*
X85067037Y-77702142D01*
X85162524Y-77536754D01*
X85207766Y-77397514D01*
X85219498Y-77361406D01*
X85219498Y-77361405D01*
X85221538Y-77355127D01*
X85241500Y-77165200D01*
X85240810Y-77158635D01*
X85222228Y-76981837D01*
X85222228Y-76981836D01*
X85221538Y-76975273D01*
X85219358Y-76968562D01*
X85164566Y-76799931D01*
X85162524Y-76793646D01*
X85067037Y-76628258D01*
X84939251Y-76486337D01*
X84933909Y-76482456D01*
X84933907Y-76482454D01*
X84790092Y-76377967D01*
X84790091Y-76377966D01*
X84784750Y-76374086D01*
X84778722Y-76371402D01*
X84778720Y-76371401D01*
X84616318Y-76299095D01*
X84616317Y-76299095D01*
X84610287Y-76296410D01*
X84476917Y-76268061D01*
X84414443Y-76234332D01*
X84383281Y-76183751D01*
X84377165Y-76164928D01*
X84375124Y-76158646D01*
X84279637Y-75993258D01*
X84276427Y-75989693D01*
X84252795Y-75923455D01*
X84256447Y-75895200D01*
X87757900Y-75895200D01*
X87777862Y-76085127D01*
X87779902Y-76091405D01*
X87779902Y-76091406D01*
X87797688Y-76146146D01*
X87836876Y-76266754D01*
X87932363Y-76432142D01*
X88060149Y-76574063D01*
X88065491Y-76577944D01*
X88065493Y-76577946D01*
X88151248Y-76640250D01*
X88214650Y-76686314D01*
X88220678Y-76688998D01*
X88220680Y-76688999D01*
X88304826Y-76726463D01*
X88389113Y-76763990D01*
X88469825Y-76781146D01*
X88569456Y-76802324D01*
X88569461Y-76802324D01*
X88575913Y-76803696D01*
X88766887Y-76803696D01*
X88773339Y-76802324D01*
X88773344Y-76802324D01*
X88872975Y-76781146D01*
X88953687Y-76763990D01*
X89037974Y-76726463D01*
X89122120Y-76688999D01*
X89122122Y-76688998D01*
X89128150Y-76686314D01*
X89191552Y-76640250D01*
X89277307Y-76577946D01*
X89277309Y-76577944D01*
X89282651Y-76574063D01*
X89410437Y-76432142D01*
X89505924Y-76266754D01*
X89545112Y-76146146D01*
X89562898Y-76091406D01*
X89562898Y-76091405D01*
X89564938Y-76085127D01*
X89568882Y-76047600D01*
X91034500Y-76047600D01*
X91035190Y-76054165D01*
X91044858Y-76146146D01*
X91054462Y-76237527D01*
X91113476Y-76419154D01*
X91116779Y-76424876D01*
X91116780Y-76424877D01*
X91123808Y-76437050D01*
X91208963Y-76584542D01*
X91213381Y-76589449D01*
X91213382Y-76589450D01*
X91297104Y-76682433D01*
X91336749Y-76726463D01*
X91342091Y-76730344D01*
X91342093Y-76730346D01*
X91485908Y-76834833D01*
X91491250Y-76838714D01*
X91497278Y-76841398D01*
X91497280Y-76841399D01*
X91611379Y-76892199D01*
X91665713Y-76916390D01*
X91759113Y-76936243D01*
X91846056Y-76954724D01*
X91846061Y-76954724D01*
X91852513Y-76956096D01*
X92043487Y-76956096D01*
X92049939Y-76954724D01*
X92049944Y-76954724D01*
X92136887Y-76936243D01*
X92230287Y-76916390D01*
X92284621Y-76892199D01*
X92398720Y-76841399D01*
X92398722Y-76841398D01*
X92404750Y-76838714D01*
X92410092Y-76834833D01*
X92553907Y-76730346D01*
X92553909Y-76730344D01*
X92559251Y-76726463D01*
X92598896Y-76682433D01*
X92682618Y-76589450D01*
X92682619Y-76589449D01*
X92687037Y-76584542D01*
X92772192Y-76437050D01*
X92779220Y-76424877D01*
X92779221Y-76424876D01*
X92782524Y-76419154D01*
X92841538Y-76237527D01*
X92851143Y-76146146D01*
X92860810Y-76054165D01*
X92861500Y-76047600D01*
X92841538Y-75857673D01*
X92828266Y-75816824D01*
X92802527Y-75737610D01*
X92782524Y-75676046D01*
X92765618Y-75646763D01*
X92695718Y-75525694D01*
X92687037Y-75510658D01*
X92661061Y-75481808D01*
X92563673Y-75373648D01*
X92563672Y-75373647D01*
X92559251Y-75368737D01*
X92553909Y-75364856D01*
X92553907Y-75364854D01*
X92410092Y-75260367D01*
X92410091Y-75260366D01*
X92404750Y-75256486D01*
X92398722Y-75253802D01*
X92398720Y-75253801D01*
X92236318Y-75181495D01*
X92236317Y-75181495D01*
X92230287Y-75178810D01*
X92136887Y-75158957D01*
X92049944Y-75140476D01*
X92049939Y-75140476D01*
X92043487Y-75139104D01*
X91852513Y-75139104D01*
X91846061Y-75140476D01*
X91846056Y-75140476D01*
X91759113Y-75158957D01*
X91665713Y-75178810D01*
X91659683Y-75181495D01*
X91659682Y-75181495D01*
X91497280Y-75253801D01*
X91497278Y-75253802D01*
X91491250Y-75256486D01*
X91485909Y-75260366D01*
X91485908Y-75260367D01*
X91342093Y-75364854D01*
X91342091Y-75364856D01*
X91336749Y-75368737D01*
X91332328Y-75373647D01*
X91332327Y-75373648D01*
X91234940Y-75481808D01*
X91208963Y-75510658D01*
X91200282Y-75525694D01*
X91130383Y-75646763D01*
X91113476Y-75676046D01*
X91093473Y-75737610D01*
X91067735Y-75816824D01*
X91054462Y-75857673D01*
X91034500Y-76047600D01*
X89568882Y-76047600D01*
X89584900Y-75895200D01*
X89564938Y-75705273D01*
X89505924Y-75523646D01*
X89498426Y-75510658D01*
X89467351Y-75456835D01*
X89410437Y-75358258D01*
X89400255Y-75346949D01*
X89287073Y-75221248D01*
X89287072Y-75221247D01*
X89282651Y-75216337D01*
X89277309Y-75212456D01*
X89277307Y-75212454D01*
X89133492Y-75107967D01*
X89133491Y-75107966D01*
X89128150Y-75104086D01*
X89122122Y-75101402D01*
X89122120Y-75101401D01*
X88959718Y-75029095D01*
X88959717Y-75029095D01*
X88953687Y-75026410D01*
X88860287Y-75006557D01*
X88773344Y-74988076D01*
X88773339Y-74988076D01*
X88766887Y-74986704D01*
X88575913Y-74986704D01*
X88569461Y-74988076D01*
X88569456Y-74988076D01*
X88482513Y-75006557D01*
X88389113Y-75026410D01*
X88383083Y-75029095D01*
X88383082Y-75029095D01*
X88220680Y-75101401D01*
X88220678Y-75101402D01*
X88214650Y-75104086D01*
X88209309Y-75107966D01*
X88209308Y-75107967D01*
X88065493Y-75212454D01*
X88065491Y-75212456D01*
X88060149Y-75216337D01*
X88055728Y-75221247D01*
X88055727Y-75221248D01*
X87942546Y-75346949D01*
X87932363Y-75358258D01*
X87875449Y-75456835D01*
X87844375Y-75510658D01*
X87836876Y-75523646D01*
X87777862Y-75705273D01*
X87757900Y-75895200D01*
X84256447Y-75895200D01*
X84258757Y-75877329D01*
X84304997Y-75735017D01*
X84304997Y-75735016D01*
X84307037Y-75728738D01*
X84326999Y-75538811D01*
X84307037Y-75348884D01*
X84248023Y-75167257D01*
X84152536Y-75001869D01*
X84138882Y-74986704D01*
X84029172Y-74864859D01*
X84029171Y-74864858D01*
X84024750Y-74859948D01*
X84019408Y-74856067D01*
X84019406Y-74856065D01*
X83875591Y-74751578D01*
X83875590Y-74751577D01*
X83870249Y-74747697D01*
X83864221Y-74745013D01*
X83864219Y-74745012D01*
X83701817Y-74672706D01*
X83701816Y-74672706D01*
X83695786Y-74670021D01*
X83602386Y-74650168D01*
X83515443Y-74631687D01*
X83515438Y-74631687D01*
X83508986Y-74630315D01*
X83318012Y-74630315D01*
X83311560Y-74631687D01*
X83311555Y-74631687D01*
X83224612Y-74650168D01*
X83131212Y-74670021D01*
X83125182Y-74672706D01*
X83125181Y-74672706D01*
X82962779Y-74745012D01*
X82962777Y-74745013D01*
X82956749Y-74747697D01*
X82951408Y-74751577D01*
X82951407Y-74751578D01*
X82807592Y-74856065D01*
X82807590Y-74856067D01*
X82802248Y-74859948D01*
X82797827Y-74864858D01*
X82797826Y-74864859D01*
X82688117Y-74986704D01*
X82674462Y-75001869D01*
X82615447Y-75104086D01*
X82602273Y-75126904D01*
X82550891Y-75175897D01*
X82493154Y-75189904D01*
X82429113Y-75189904D01*
X82422661Y-75191276D01*
X82422656Y-75191276D01*
X82335713Y-75209757D01*
X82242313Y-75229610D01*
X82236286Y-75232293D01*
X82236278Y-75232296D01*
X82207921Y-75244922D01*
X82137554Y-75254357D01*
X82073256Y-75224251D01*
X82035443Y-75164163D01*
X82036118Y-75093169D01*
X82063035Y-75045506D01*
X82090818Y-75014650D01*
X82090819Y-75014649D01*
X82095237Y-75009742D01*
X82153791Y-74908323D01*
X82187420Y-74850077D01*
X82187421Y-74850076D01*
X82190724Y-74844354D01*
X82249738Y-74662727D01*
X82256099Y-74602206D01*
X82283112Y-74536550D01*
X82330159Y-74500271D01*
X82413620Y-74463112D01*
X82464881Y-74440289D01*
X82464883Y-74440288D01*
X82470911Y-74437604D01*
X82582487Y-74356540D01*
X82649354Y-74332681D01*
X82707796Y-74343369D01*
X82724913Y-74350990D01*
X82818313Y-74370843D01*
X82905256Y-74389324D01*
X82905261Y-74389324D01*
X82911713Y-74390696D01*
X83102687Y-74390696D01*
X83109139Y-74389324D01*
X83109144Y-74389324D01*
X83196087Y-74370843D01*
X83289487Y-74350990D01*
X83430824Y-74288063D01*
X83457913Y-74276002D01*
X83457914Y-74276001D01*
X83458729Y-74275638D01*
X83458731Y-74275638D01*
X83463950Y-74273314D01*
X83464375Y-74274268D01*
X83527402Y-74258973D01*
X83595477Y-74282895D01*
X83607935Y-74291946D01*
X83617250Y-74298714D01*
X83623278Y-74301398D01*
X83623280Y-74301399D01*
X83737745Y-74352362D01*
X83791713Y-74376390D01*
X83859017Y-74390696D01*
X83972056Y-74414724D01*
X83972061Y-74414724D01*
X83978513Y-74416096D01*
X84169487Y-74416096D01*
X84175939Y-74414724D01*
X84175944Y-74414724D01*
X84288983Y-74390696D01*
X84356287Y-74376390D01*
X84410255Y-74352362D01*
X84524720Y-74301399D01*
X84524722Y-74301398D01*
X84530750Y-74298714D01*
X84536092Y-74294833D01*
X84679907Y-74190346D01*
X84679909Y-74190344D01*
X84685251Y-74186463D01*
X84796545Y-74062858D01*
X84808618Y-74049450D01*
X84808619Y-74049449D01*
X84813037Y-74044542D01*
X84908524Y-73879154D01*
X84967538Y-73697527D01*
X84975228Y-73624365D01*
X84979430Y-73584383D01*
X85006443Y-73518727D01*
X85064665Y-73478097D01*
X85104740Y-73471554D01*
X85280487Y-73471554D01*
X85286939Y-73470182D01*
X85286944Y-73470182D01*
X85388706Y-73448551D01*
X85467287Y-73431848D01*
X85603350Y-73371269D01*
X85635720Y-73356857D01*
X85635722Y-73356856D01*
X85641750Y-73354172D01*
X85771070Y-73260216D01*
X85790907Y-73245804D01*
X85790909Y-73245802D01*
X85796251Y-73241921D01*
X85805253Y-73231923D01*
X85919618Y-73104908D01*
X85919619Y-73104907D01*
X85924037Y-73100000D01*
X86019524Y-72934612D01*
X86048633Y-72845024D01*
X86076498Y-72759264D01*
X86076498Y-72759263D01*
X86078538Y-72752985D01*
X86079578Y-72743095D01*
X86097810Y-72569623D01*
X86098500Y-72563058D01*
X86078538Y-72373131D01*
X86071917Y-72352752D01*
X86042755Y-72263000D01*
X92431500Y-72263000D01*
X92432190Y-72269565D01*
X92441858Y-72361546D01*
X92451462Y-72452927D01*
X92510476Y-72634554D01*
X92513779Y-72640276D01*
X92513780Y-72640277D01*
X92521433Y-72653532D01*
X92605963Y-72799942D01*
X92610381Y-72804849D01*
X92610382Y-72804850D01*
X92719875Y-72926454D01*
X92733749Y-72941863D01*
X92739091Y-72945744D01*
X92739093Y-72945746D01*
X92809014Y-72996546D01*
X92888250Y-73054114D01*
X92894278Y-73056798D01*
X92894280Y-73056799D01*
X93023681Y-73114412D01*
X93062713Y-73131790D01*
X93156113Y-73151643D01*
X93243056Y-73170124D01*
X93243061Y-73170124D01*
X93249513Y-73171496D01*
X93440487Y-73171496D01*
X93446939Y-73170124D01*
X93446944Y-73170124D01*
X93533887Y-73151643D01*
X93627287Y-73131790D01*
X93666319Y-73114412D01*
X93795720Y-73056799D01*
X93795722Y-73056798D01*
X93801750Y-73054114D01*
X93880986Y-72996546D01*
X93950907Y-72945746D01*
X93950909Y-72945744D01*
X93956251Y-72941863D01*
X93970125Y-72926454D01*
X94079618Y-72804850D01*
X94079619Y-72804849D01*
X94084037Y-72799942D01*
X94168567Y-72653532D01*
X94176220Y-72640277D01*
X94176221Y-72640276D01*
X94179524Y-72634554D01*
X94238538Y-72452927D01*
X94248143Y-72361546D01*
X94257810Y-72269565D01*
X94258500Y-72263000D01*
X94238538Y-72073073D01*
X94229822Y-72046246D01*
X94196030Y-71942246D01*
X94179524Y-71891446D01*
X94162618Y-71862163D01*
X94087338Y-71731776D01*
X94084037Y-71726058D01*
X94070808Y-71711365D01*
X93960673Y-71589048D01*
X93960672Y-71589047D01*
X93956251Y-71584137D01*
X93950909Y-71580256D01*
X93950907Y-71580254D01*
X93807092Y-71475767D01*
X93807091Y-71475766D01*
X93801750Y-71471886D01*
X93795722Y-71469202D01*
X93795720Y-71469201D01*
X93633318Y-71396895D01*
X93633317Y-71396895D01*
X93627287Y-71394210D01*
X93523429Y-71372134D01*
X93446944Y-71355876D01*
X93446939Y-71355876D01*
X93440487Y-71354504D01*
X93249513Y-71354504D01*
X93243061Y-71355876D01*
X93243056Y-71355876D01*
X93166571Y-71372134D01*
X93062713Y-71394210D01*
X93056683Y-71396895D01*
X93056682Y-71396895D01*
X92894280Y-71469201D01*
X92894278Y-71469202D01*
X92888250Y-71471886D01*
X92882909Y-71475766D01*
X92882908Y-71475767D01*
X92739093Y-71580254D01*
X92739091Y-71580256D01*
X92733749Y-71584137D01*
X92729328Y-71589047D01*
X92729327Y-71589048D01*
X92619193Y-71711365D01*
X92605963Y-71726058D01*
X92602662Y-71731776D01*
X92527383Y-71862163D01*
X92510476Y-71891446D01*
X92493970Y-71942246D01*
X92460179Y-72046246D01*
X92451462Y-72073073D01*
X92431500Y-72263000D01*
X86042755Y-72263000D01*
X86021566Y-72197789D01*
X86019524Y-72191504D01*
X85924037Y-72026116D01*
X85845599Y-71939001D01*
X85800673Y-71889106D01*
X85800672Y-71889105D01*
X85796251Y-71884195D01*
X85790909Y-71880314D01*
X85790907Y-71880312D01*
X85647092Y-71775825D01*
X85647091Y-71775824D01*
X85641750Y-71771944D01*
X85635722Y-71769260D01*
X85635720Y-71769259D01*
X85473318Y-71696953D01*
X85473317Y-71696953D01*
X85467287Y-71694268D01*
X85363631Y-71672235D01*
X85286944Y-71655934D01*
X85286939Y-71655934D01*
X85280487Y-71654562D01*
X85089513Y-71654562D01*
X85083060Y-71655934D01*
X85083047Y-71655935D01*
X84997281Y-71674166D01*
X84926491Y-71668765D01*
X84869858Y-71625949D01*
X84845774Y-71564090D01*
X84841228Y-71520838D01*
X84840538Y-71514273D01*
X84781524Y-71332646D01*
X84686037Y-71167258D01*
X84672908Y-71152676D01*
X84562673Y-71030248D01*
X84562672Y-71030247D01*
X84558251Y-71025337D01*
X84552909Y-71021456D01*
X84552907Y-71021454D01*
X84409092Y-70916967D01*
X84409091Y-70916966D01*
X84403750Y-70913086D01*
X84397722Y-70910402D01*
X84397720Y-70910401D01*
X84235318Y-70838095D01*
X84235317Y-70838095D01*
X84229287Y-70835410D01*
X84135887Y-70815557D01*
X84048944Y-70797076D01*
X84048939Y-70797076D01*
X84042487Y-70795704D01*
X83851513Y-70795704D01*
X83845061Y-70797076D01*
X83845056Y-70797076D01*
X83758113Y-70815557D01*
X83664713Y-70835410D01*
X83658683Y-70838095D01*
X83658682Y-70838095D01*
X83496280Y-70910401D01*
X83496278Y-70910402D01*
X83490250Y-70913086D01*
X83484909Y-70916966D01*
X83484908Y-70916967D01*
X83341093Y-71021454D01*
X83341091Y-71021456D01*
X83335749Y-71025337D01*
X83331328Y-71030247D01*
X83331327Y-71030248D01*
X83291786Y-71074163D01*
X83231340Y-71111403D01*
X83160357Y-71110051D01*
X83146903Y-71104961D01*
X83125354Y-71095367D01*
X83125352Y-71095366D01*
X83119323Y-71092682D01*
X83025923Y-71072829D01*
X82938980Y-71054348D01*
X82938975Y-71054348D01*
X82932523Y-71052976D01*
X82741549Y-71052976D01*
X82735097Y-71054348D01*
X82735092Y-71054348D01*
X82648149Y-71072829D01*
X82554749Y-71092682D01*
X82548719Y-71095367D01*
X82548718Y-71095367D01*
X82386316Y-71167673D01*
X82386314Y-71167674D01*
X82380286Y-71170358D01*
X82323027Y-71211959D01*
X82256162Y-71235816D01*
X82197719Y-71225129D01*
X82127118Y-71193695D01*
X82127117Y-71193695D01*
X82121087Y-71191010D01*
X82023928Y-71170358D01*
X81940744Y-71152676D01*
X81940739Y-71152676D01*
X81934287Y-71151304D01*
X81743313Y-71151304D01*
X81736861Y-71152676D01*
X81736856Y-71152676D01*
X81653672Y-71170358D01*
X81556513Y-71191010D01*
X81550483Y-71193695D01*
X81550482Y-71193695D01*
X81388080Y-71266001D01*
X81388078Y-71266002D01*
X81382050Y-71268686D01*
X81376709Y-71272566D01*
X81376708Y-71272567D01*
X81232893Y-71377054D01*
X81232891Y-71377056D01*
X81227549Y-71380937D01*
X81223128Y-71385847D01*
X81223127Y-71385848D01*
X81113147Y-71507994D01*
X81099763Y-71522858D01*
X81061548Y-71589048D01*
X81009730Y-71678800D01*
X81004276Y-71688246D01*
X81002235Y-71694528D01*
X80990490Y-71730675D01*
X80950416Y-71789280D01*
X80885019Y-71816917D01*
X80870657Y-71817738D01*
X80742069Y-71817738D01*
X80735617Y-71819110D01*
X80735612Y-71819110D01*
X80669957Y-71833066D01*
X80555269Y-71857444D01*
X80549239Y-71860129D01*
X80549238Y-71860129D01*
X80386836Y-71932435D01*
X80386834Y-71932436D01*
X80380806Y-71935120D01*
X80375465Y-71939000D01*
X80375464Y-71939001D01*
X80231649Y-72043488D01*
X80231647Y-72043490D01*
X80226305Y-72047371D01*
X80221884Y-72052281D01*
X80221883Y-72052282D01*
X80197253Y-72079637D01*
X80098519Y-72189292D01*
X80003032Y-72354680D01*
X79944018Y-72536307D01*
X79943328Y-72542868D01*
X79943328Y-72542870D01*
X79938598Y-72587875D01*
X79911585Y-72653532D01*
X79853363Y-72694161D01*
X79813288Y-72700704D01*
X79685913Y-72700704D01*
X79679461Y-72702076D01*
X79679456Y-72702076D01*
X79611665Y-72716486D01*
X79499113Y-72740410D01*
X79493083Y-72743095D01*
X79493082Y-72743095D01*
X79330680Y-72815401D01*
X79330678Y-72815402D01*
X79324650Y-72818086D01*
X79319309Y-72821966D01*
X79319308Y-72821967D01*
X79175493Y-72926454D01*
X79175491Y-72926456D01*
X79170149Y-72930337D01*
X79165728Y-72935247D01*
X79165727Y-72935248D01*
X79114031Y-72992663D01*
X79042363Y-73072258D01*
X78946876Y-73237646D01*
X78944834Y-73243931D01*
X78909015Y-73354172D01*
X78887862Y-73419273D01*
X78887172Y-73425836D01*
X78887172Y-73425837D01*
X78877409Y-73518727D01*
X78867900Y-73609200D01*
X64232999Y-73609200D01*
X64232999Y-72577470D01*
X66992726Y-72577470D01*
X66993416Y-72584035D01*
X67009852Y-72740410D01*
X67012688Y-72767397D01*
X67014728Y-72773675D01*
X67014728Y-72773676D01*
X67024857Y-72804850D01*
X67071702Y-72949024D01*
X67167189Y-73114412D01*
X67171607Y-73119319D01*
X67171608Y-73119320D01*
X67278149Y-73237646D01*
X67294975Y-73256333D01*
X67300317Y-73260214D01*
X67300319Y-73260216D01*
X67429639Y-73354172D01*
X67449476Y-73368584D01*
X67455504Y-73371268D01*
X67455506Y-73371269D01*
X67617908Y-73443575D01*
X67623939Y-73446260D01*
X67717339Y-73466113D01*
X67804282Y-73484594D01*
X67804287Y-73484594D01*
X67810739Y-73485966D01*
X68001713Y-73485966D01*
X68008165Y-73484594D01*
X68008170Y-73484594D01*
X68095113Y-73466113D01*
X68188513Y-73446260D01*
X68194544Y-73443575D01*
X68356946Y-73371269D01*
X68356948Y-73371268D01*
X68362976Y-73368584D01*
X68382813Y-73354172D01*
X68512133Y-73260216D01*
X68512135Y-73260214D01*
X68517477Y-73256333D01*
X68534303Y-73237646D01*
X68640844Y-73119320D01*
X68640845Y-73119319D01*
X68645263Y-73114412D01*
X68740750Y-72949024D01*
X68787595Y-72804850D01*
X68797724Y-72773676D01*
X68797724Y-72773675D01*
X68799764Y-72767397D01*
X68802601Y-72740410D01*
X68819036Y-72584035D01*
X68819726Y-72577470D01*
X68808704Y-72472599D01*
X68800454Y-72394107D01*
X68800454Y-72394106D01*
X68799764Y-72387543D01*
X68790056Y-72357663D01*
X68742792Y-72212201D01*
X68740750Y-72205916D01*
X68734454Y-72195010D01*
X68689757Y-72117594D01*
X68645263Y-72040528D01*
X68632287Y-72026116D01*
X68521899Y-71903518D01*
X68521898Y-71903517D01*
X68517477Y-71898607D01*
X68512135Y-71894726D01*
X68512133Y-71894724D01*
X68368318Y-71790237D01*
X68368317Y-71790236D01*
X68362976Y-71786356D01*
X68356948Y-71783672D01*
X68356946Y-71783671D01*
X68194544Y-71711365D01*
X68194543Y-71711365D01*
X68188513Y-71708680D01*
X68078045Y-71685199D01*
X68047941Y-71678800D01*
X69266700Y-71678800D01*
X69267390Y-71685365D01*
X69279622Y-71801741D01*
X69286662Y-71868727D01*
X69288702Y-71875005D01*
X69288702Y-71875006D01*
X69297966Y-71903518D01*
X69345676Y-72050354D01*
X69348979Y-72056076D01*
X69348980Y-72056077D01*
X69382889Y-72114808D01*
X69441163Y-72215742D01*
X69445581Y-72220649D01*
X69445582Y-72220650D01*
X69529455Y-72313800D01*
X69568949Y-72357663D01*
X69574291Y-72361544D01*
X69574293Y-72361546D01*
X69718108Y-72466033D01*
X69723450Y-72469914D01*
X69729478Y-72472598D01*
X69729480Y-72472599D01*
X69891882Y-72544905D01*
X69897913Y-72547590D01*
X69991313Y-72567443D01*
X70078256Y-72585924D01*
X70078261Y-72585924D01*
X70084713Y-72587296D01*
X70275687Y-72587296D01*
X70282139Y-72585924D01*
X70282144Y-72585924D01*
X70369087Y-72567443D01*
X70462487Y-72547590D01*
X70468518Y-72544905D01*
X70630920Y-72472599D01*
X70630922Y-72472598D01*
X70636950Y-72469914D01*
X70642292Y-72466033D01*
X70786107Y-72361546D01*
X70786109Y-72361544D01*
X70791451Y-72357663D01*
X70830945Y-72313800D01*
X70914818Y-72220650D01*
X70914819Y-72220649D01*
X70919237Y-72215742D01*
X70977511Y-72114808D01*
X71011420Y-72056077D01*
X71011421Y-72056076D01*
X71014724Y-72050354D01*
X71062434Y-71903518D01*
X71071698Y-71875006D01*
X71071698Y-71875005D01*
X71073738Y-71868727D01*
X71080779Y-71801741D01*
X71093010Y-71685365D01*
X71093700Y-71678800D01*
X71083751Y-71584137D01*
X71074428Y-71495437D01*
X71074428Y-71495436D01*
X71073738Y-71488873D01*
X71060359Y-71447695D01*
X71016766Y-71313531D01*
X71014724Y-71307246D01*
X70919237Y-71141858D01*
X70877377Y-71095367D01*
X70795873Y-71004848D01*
X70795872Y-71004847D01*
X70791451Y-70999937D01*
X70786109Y-70996056D01*
X70786107Y-70996054D01*
X70642292Y-70891567D01*
X70642291Y-70891566D01*
X70636950Y-70887686D01*
X70630922Y-70885002D01*
X70630920Y-70885001D01*
X70468518Y-70812695D01*
X70468517Y-70812695D01*
X70462487Y-70810010D01*
X70369087Y-70790157D01*
X70282144Y-70771676D01*
X70282139Y-70771676D01*
X70275687Y-70770304D01*
X70084713Y-70770304D01*
X70078261Y-70771676D01*
X70078256Y-70771676D01*
X69991313Y-70790157D01*
X69897913Y-70810010D01*
X69891883Y-70812695D01*
X69891882Y-70812695D01*
X69729480Y-70885001D01*
X69729478Y-70885002D01*
X69723450Y-70887686D01*
X69718109Y-70891566D01*
X69718108Y-70891567D01*
X69574293Y-70996054D01*
X69574291Y-70996056D01*
X69568949Y-70999937D01*
X69564528Y-71004847D01*
X69564527Y-71004848D01*
X69483024Y-71095367D01*
X69441163Y-71141858D01*
X69345676Y-71307246D01*
X69343634Y-71313531D01*
X69300042Y-71447695D01*
X69286662Y-71488873D01*
X69285972Y-71495436D01*
X69285972Y-71495437D01*
X69276649Y-71584137D01*
X69266700Y-71678800D01*
X68047941Y-71678800D01*
X68008170Y-71670346D01*
X68008165Y-71670346D01*
X68001713Y-71668974D01*
X67810739Y-71668974D01*
X67804287Y-71670346D01*
X67804282Y-71670346D01*
X67734407Y-71685199D01*
X67623939Y-71708680D01*
X67617909Y-71711365D01*
X67617908Y-71711365D01*
X67455506Y-71783671D01*
X67455504Y-71783672D01*
X67449476Y-71786356D01*
X67444135Y-71790236D01*
X67444134Y-71790237D01*
X67300319Y-71894724D01*
X67300317Y-71894726D01*
X67294975Y-71898607D01*
X67290554Y-71903517D01*
X67290553Y-71903518D01*
X67180166Y-72026116D01*
X67167189Y-72040528D01*
X67122695Y-72117594D01*
X67077999Y-72195010D01*
X67071702Y-72205916D01*
X67069660Y-72212201D01*
X67022397Y-72357663D01*
X67012688Y-72387543D01*
X67011998Y-72394106D01*
X67011998Y-72394107D01*
X67003748Y-72472599D01*
X66992726Y-72577470D01*
X64232999Y-72577470D01*
X64232999Y-69596000D01*
X70130300Y-69596000D01*
X70130990Y-69602565D01*
X70147311Y-69757846D01*
X70150262Y-69785927D01*
X70209276Y-69967554D01*
X70304763Y-70132942D01*
X70309181Y-70137849D01*
X70309182Y-70137850D01*
X70380852Y-70217448D01*
X70432549Y-70274863D01*
X70437891Y-70278744D01*
X70437893Y-70278746D01*
X70549973Y-70360176D01*
X70587050Y-70387114D01*
X70593078Y-70389798D01*
X70593080Y-70389799D01*
X70755482Y-70462105D01*
X70761513Y-70464790D01*
X70854913Y-70484643D01*
X70941856Y-70503124D01*
X70941861Y-70503124D01*
X70948313Y-70504496D01*
X71139287Y-70504496D01*
X71145739Y-70503124D01*
X71145744Y-70503124D01*
X71232687Y-70484643D01*
X71326087Y-70464790D01*
X71332118Y-70462105D01*
X71494520Y-70389799D01*
X71494522Y-70389798D01*
X71500550Y-70387114D01*
X71537627Y-70360176D01*
X71649707Y-70278746D01*
X71649709Y-70278744D01*
X71655051Y-70274863D01*
X71706748Y-70217448D01*
X71778418Y-70137850D01*
X71778419Y-70137849D01*
X71782837Y-70132942D01*
X71784882Y-70129400D01*
X76251700Y-70129400D01*
X76252390Y-70135965D01*
X76266473Y-70269952D01*
X76271662Y-70319327D01*
X76273702Y-70325605D01*
X76273702Y-70325606D01*
X76292426Y-70383233D01*
X76330676Y-70500954D01*
X76426163Y-70666342D01*
X76430581Y-70671249D01*
X76430582Y-70671250D01*
X76521006Y-70771676D01*
X76553949Y-70808263D01*
X76559291Y-70812144D01*
X76559293Y-70812146D01*
X76698226Y-70913086D01*
X76708450Y-70920514D01*
X76714478Y-70923198D01*
X76714480Y-70923199D01*
X76876882Y-70995505D01*
X76882913Y-70998190D01*
X76976313Y-71018043D01*
X77063256Y-71036524D01*
X77063261Y-71036524D01*
X77069713Y-71037896D01*
X77182006Y-71037896D01*
X77250127Y-71057898D01*
X77296620Y-71111554D01*
X77301839Y-71124960D01*
X77339337Y-71240368D01*
X77341364Y-71311336D01*
X77304702Y-71372134D01*
X77240989Y-71403459D01*
X77219504Y-71405304D01*
X77069713Y-71405304D01*
X77063261Y-71406676D01*
X77063256Y-71406676D01*
X76976313Y-71425157D01*
X76882913Y-71445010D01*
X76876883Y-71447695D01*
X76876882Y-71447695D01*
X76714480Y-71520001D01*
X76714478Y-71520002D01*
X76708450Y-71522686D01*
X76703109Y-71526566D01*
X76703108Y-71526567D01*
X76559293Y-71631054D01*
X76559291Y-71631056D01*
X76553949Y-71634937D01*
X76549528Y-71639847D01*
X76549527Y-71639848D01*
X76430588Y-71771944D01*
X76426163Y-71776858D01*
X76330676Y-71942246D01*
X76271662Y-72123873D01*
X76251700Y-72313800D01*
X76271662Y-72503727D01*
X76273702Y-72510005D01*
X76273702Y-72510006D01*
X76285914Y-72547590D01*
X76330676Y-72685354D01*
X76333979Y-72691076D01*
X76333980Y-72691077D01*
X76348650Y-72716486D01*
X76426163Y-72850742D01*
X76430581Y-72855649D01*
X76430582Y-72855650D01*
X76508997Y-72942739D01*
X76553949Y-72992663D01*
X76559291Y-72996544D01*
X76559293Y-72996546D01*
X76671373Y-73077976D01*
X76708450Y-73104914D01*
X76714478Y-73107598D01*
X76714480Y-73107599D01*
X76854914Y-73170124D01*
X76882913Y-73182590D01*
X76976313Y-73202443D01*
X77063256Y-73220924D01*
X77063261Y-73220924D01*
X77069713Y-73222296D01*
X77260687Y-73222296D01*
X77267139Y-73220924D01*
X77267144Y-73220924D01*
X77354087Y-73202443D01*
X77447487Y-73182590D01*
X77475486Y-73170124D01*
X77615920Y-73107599D01*
X77615922Y-73107598D01*
X77621950Y-73104914D01*
X77659027Y-73077976D01*
X77771107Y-72996546D01*
X77771109Y-72996544D01*
X77776451Y-72992663D01*
X77821403Y-72942739D01*
X77899818Y-72855650D01*
X77899819Y-72855649D01*
X77904237Y-72850742D01*
X77981750Y-72716486D01*
X77996420Y-72691077D01*
X77996421Y-72691076D01*
X77999724Y-72685354D01*
X78044486Y-72547590D01*
X78056698Y-72510006D01*
X78056698Y-72510005D01*
X78058738Y-72503727D01*
X78078700Y-72313800D01*
X78058738Y-72123873D01*
X78035477Y-72052282D01*
X78007063Y-71964832D01*
X78005036Y-71893864D01*
X78041698Y-71833066D01*
X78105411Y-71801741D01*
X78126896Y-71799896D01*
X78276687Y-71799896D01*
X78283139Y-71798524D01*
X78283144Y-71798524D01*
X78385071Y-71776858D01*
X78463487Y-71760190D01*
X78540149Y-71726058D01*
X78631920Y-71685199D01*
X78631922Y-71685198D01*
X78637950Y-71682514D01*
X78654698Y-71670346D01*
X78787107Y-71574146D01*
X78787109Y-71574144D01*
X78792451Y-71570263D01*
X78835135Y-71522858D01*
X78915818Y-71433250D01*
X78915819Y-71433249D01*
X78920237Y-71428342D01*
X79015724Y-71262954D01*
X79052001Y-71151304D01*
X79072698Y-71087606D01*
X79072698Y-71087605D01*
X79074738Y-71081327D01*
X79077201Y-71057898D01*
X79094010Y-70897965D01*
X79094700Y-70891400D01*
X79074738Y-70701473D01*
X79061466Y-70660624D01*
X79017766Y-70526131D01*
X79015724Y-70519846D01*
X78920237Y-70354458D01*
X78848570Y-70274863D01*
X78796873Y-70217448D01*
X78796872Y-70217447D01*
X78792451Y-70212537D01*
X78787109Y-70208656D01*
X78787107Y-70208654D01*
X78643292Y-70104167D01*
X78643291Y-70104166D01*
X78637950Y-70100286D01*
X78631922Y-70097602D01*
X78631920Y-70097601D01*
X78469518Y-70025295D01*
X78469517Y-70025295D01*
X78463487Y-70022610D01*
X78370087Y-70002757D01*
X78283144Y-69984276D01*
X78283139Y-69984276D01*
X78276687Y-69982904D01*
X78164394Y-69982904D01*
X78096273Y-69962902D01*
X78049780Y-69909246D01*
X78044561Y-69895840D01*
X78001766Y-69764131D01*
X77999724Y-69757846D01*
X77904237Y-69592458D01*
X77776451Y-69450537D01*
X77771109Y-69446656D01*
X77771107Y-69446654D01*
X77627292Y-69342167D01*
X77627291Y-69342166D01*
X77621950Y-69338286D01*
X77615922Y-69335602D01*
X77615920Y-69335601D01*
X77453518Y-69263295D01*
X77453517Y-69263295D01*
X77447487Y-69260610D01*
X77354087Y-69240757D01*
X77267144Y-69222276D01*
X77267139Y-69222276D01*
X77260687Y-69220904D01*
X77069713Y-69220904D01*
X77063261Y-69222276D01*
X77063256Y-69222276D01*
X76976313Y-69240757D01*
X76882913Y-69260610D01*
X76876883Y-69263295D01*
X76876882Y-69263295D01*
X76714480Y-69335601D01*
X76714478Y-69335602D01*
X76708450Y-69338286D01*
X76703109Y-69342166D01*
X76703108Y-69342167D01*
X76559293Y-69446654D01*
X76559291Y-69446656D01*
X76553949Y-69450537D01*
X76426163Y-69592458D01*
X76330676Y-69757846D01*
X76271662Y-69939473D01*
X76270972Y-69946036D01*
X76270972Y-69946037D01*
X76263068Y-70021238D01*
X76251700Y-70129400D01*
X71784882Y-70129400D01*
X71878324Y-69967554D01*
X71937338Y-69785927D01*
X71940290Y-69757846D01*
X71956610Y-69602565D01*
X71957300Y-69596000D01*
X71956412Y-69587550D01*
X71938028Y-69412637D01*
X71938028Y-69412636D01*
X71937338Y-69406073D01*
X71878324Y-69224446D01*
X71782837Y-69059058D01*
X71762936Y-69036955D01*
X71659473Y-68922048D01*
X71659472Y-68922047D01*
X71655051Y-68917137D01*
X71649709Y-68913256D01*
X71649707Y-68913254D01*
X71505892Y-68808767D01*
X71505891Y-68808766D01*
X71500550Y-68804886D01*
X71494522Y-68802202D01*
X71494520Y-68802201D01*
X71332118Y-68729895D01*
X71332117Y-68729895D01*
X71326087Y-68727210D01*
X71232687Y-68707357D01*
X71145744Y-68688876D01*
X71145739Y-68688876D01*
X71139287Y-68687504D01*
X70948313Y-68687504D01*
X70941861Y-68688876D01*
X70941856Y-68688876D01*
X70854913Y-68707357D01*
X70761513Y-68727210D01*
X70755483Y-68729895D01*
X70755482Y-68729895D01*
X70593080Y-68802201D01*
X70593078Y-68802202D01*
X70587050Y-68804886D01*
X70581709Y-68808766D01*
X70581708Y-68808767D01*
X70437893Y-68913254D01*
X70437891Y-68913256D01*
X70432549Y-68917137D01*
X70428128Y-68922047D01*
X70428127Y-68922048D01*
X70324665Y-69036955D01*
X70304763Y-69059058D01*
X70209276Y-69224446D01*
X70150262Y-69406073D01*
X70149572Y-69412636D01*
X70149572Y-69412637D01*
X70131188Y-69587550D01*
X70130300Y-69596000D01*
X64232999Y-69596000D01*
X64232999Y-69217426D01*
X64234785Y-69196284D01*
X64236592Y-69185669D01*
X64236592Y-69185665D01*
X64237408Y-69180873D01*
X64239442Y-69036946D01*
X64239627Y-69031669D01*
X64243787Y-68957607D01*
X64244381Y-68950566D01*
X64270452Y-68719174D01*
X64271440Y-68712176D01*
X64280554Y-68658533D01*
X64281933Y-68651600D01*
X64295508Y-68592127D01*
X64314968Y-68506866D01*
X64333749Y-68424582D01*
X64335514Y-68417739D01*
X64339991Y-68402200D01*
X75083300Y-68402200D01*
X75103262Y-68592127D01*
X75105302Y-68598405D01*
X75105302Y-68598406D01*
X75133459Y-68685065D01*
X75162276Y-68773754D01*
X75257763Y-68939142D01*
X75262181Y-68944049D01*
X75262182Y-68944050D01*
X75341076Y-69031671D01*
X75385549Y-69081063D01*
X75390891Y-69084944D01*
X75390893Y-69084946D01*
X75534708Y-69189433D01*
X75540050Y-69193314D01*
X75546078Y-69195998D01*
X75546080Y-69195999D01*
X75708482Y-69268305D01*
X75714513Y-69270990D01*
X75807913Y-69290843D01*
X75894856Y-69309324D01*
X75894861Y-69309324D01*
X75901313Y-69310696D01*
X76092287Y-69310696D01*
X76098739Y-69309324D01*
X76098744Y-69309324D01*
X76185687Y-69290843D01*
X76279087Y-69270990D01*
X76285118Y-69268305D01*
X76447520Y-69195999D01*
X76447522Y-69195998D01*
X76453550Y-69193314D01*
X76458892Y-69189433D01*
X76602707Y-69084946D01*
X76602709Y-69084944D01*
X76608051Y-69081063D01*
X76652524Y-69031671D01*
X76731418Y-68944050D01*
X76731419Y-68944049D01*
X76735837Y-68939142D01*
X76831324Y-68773754D01*
X76860141Y-68685065D01*
X76888298Y-68598406D01*
X76888298Y-68598405D01*
X76890338Y-68592127D01*
X76910300Y-68402200D01*
X76890338Y-68212273D01*
X76831324Y-68030646D01*
X76735837Y-67865258D01*
X76730680Y-67859530D01*
X76612473Y-67728248D01*
X76612472Y-67728247D01*
X76608051Y-67723337D01*
X76602709Y-67719456D01*
X76602707Y-67719454D01*
X76458892Y-67614967D01*
X76458891Y-67614966D01*
X76453550Y-67611086D01*
X76447522Y-67608402D01*
X76447520Y-67608401D01*
X76285118Y-67536095D01*
X76285117Y-67536095D01*
X76279087Y-67533410D01*
X76185687Y-67513557D01*
X76098744Y-67495076D01*
X76098739Y-67495076D01*
X76092287Y-67493704D01*
X75901313Y-67493704D01*
X75894861Y-67495076D01*
X75894856Y-67495076D01*
X75807913Y-67513557D01*
X75714513Y-67533410D01*
X75708483Y-67536095D01*
X75708482Y-67536095D01*
X75546080Y-67608401D01*
X75546078Y-67608402D01*
X75540050Y-67611086D01*
X75534709Y-67614966D01*
X75534708Y-67614967D01*
X75390893Y-67719454D01*
X75390891Y-67719456D01*
X75385549Y-67723337D01*
X75381128Y-67728247D01*
X75381127Y-67728248D01*
X75262921Y-67859530D01*
X75257763Y-67865258D01*
X75162276Y-68030646D01*
X75103262Y-68212273D01*
X75083300Y-68402200D01*
X64339991Y-68402200D01*
X64350583Y-68365433D01*
X64352730Y-68358699D01*
X64429637Y-68138910D01*
X64429643Y-68138892D01*
X64432158Y-68132304D01*
X64452973Y-68082055D01*
X64455859Y-68075606D01*
X64556891Y-67865809D01*
X64560135Y-67859530D01*
X64586475Y-67811871D01*
X64590066Y-67805783D01*
X64713951Y-67608623D01*
X64717877Y-67602747D01*
X64749341Y-67558402D01*
X64753591Y-67552755D01*
X64898807Y-67370659D01*
X64903347Y-67365281D01*
X64939630Y-67324681D01*
X64944469Y-67319564D01*
X65109119Y-67154914D01*
X65114255Y-67150058D01*
X65154835Y-67113794D01*
X65160234Y-67109234D01*
X65342306Y-66964036D01*
X65347953Y-66959787D01*
X65392308Y-66928315D01*
X65398185Y-66924388D01*
X65595357Y-66800497D01*
X65601444Y-66796906D01*
X65649082Y-66770577D01*
X65655336Y-66767346D01*
X65865187Y-66666286D01*
X65871614Y-66663411D01*
X65871617Y-66663410D01*
X65874833Y-66662078D01*
X65921872Y-66642594D01*
X65928467Y-66640076D01*
X66148292Y-66563156D01*
X66154998Y-66561019D01*
X66168512Y-66557125D01*
X66207308Y-66545949D01*
X66214151Y-66544184D01*
X66441169Y-66492369D01*
X66448097Y-66490991D01*
X66448543Y-66490915D01*
X66501767Y-66481872D01*
X66508694Y-66480894D01*
X66689287Y-66460546D01*
X66740122Y-66454818D01*
X66747164Y-66454224D01*
X66788320Y-66451913D01*
X66821239Y-66450064D01*
X66826517Y-66449879D01*
X66967159Y-66447891D01*
X66985667Y-66444973D01*
X67005290Y-66443436D01*
X67771248Y-66443436D01*
X67790366Y-66446080D01*
X67790474Y-66445267D01*
X67799376Y-66446454D01*
X67808012Y-66448889D01*
X67880597Y-66448188D01*
X67945902Y-66447558D01*
X67945905Y-66447558D01*
X67954874Y-66447471D01*
X67973240Y-66441907D01*
X68015497Y-66429107D01*
X68015498Y-66429106D01*
X68019114Y-66428011D01*
X68020474Y-66427816D01*
X68021906Y-66427165D01*
X68095434Y-66404891D01*
X68102946Y-66399984D01*
X68102948Y-66399983D01*
X68148445Y-66370263D01*
X68151629Y-66368183D01*
X68152881Y-66367614D01*
X68154074Y-66366586D01*
X68218394Y-66324571D01*
X68262024Y-66273571D01*
X68263070Y-66272670D01*
X68263930Y-66271344D01*
X68266952Y-66267812D01*
X68266953Y-66267811D01*
X68308034Y-66219790D01*
X68308035Y-66219789D01*
X68313869Y-66212969D01*
X68341432Y-66151772D01*
X68342182Y-66150615D01*
X68342634Y-66149104D01*
X68374183Y-66079057D01*
X68383462Y-66012584D01*
X68383857Y-66011262D01*
X68383867Y-66009683D01*
X68390029Y-65965535D01*
X68387716Y-65818827D01*
X68387740Y-65813670D01*
X68387741Y-65813665D01*
X68388752Y-65773777D01*
X69262968Y-65773777D01*
X69264536Y-65813670D01*
X69265391Y-65835435D01*
X69265391Y-65835436D01*
X69273127Y-66032328D01*
X69273854Y-66050844D01*
X69323670Y-66323614D01*
X69349882Y-66402181D01*
X69403591Y-66563167D01*
X69411423Y-66586644D01*
X69460970Y-66685802D01*
X69518283Y-66800503D01*
X69535362Y-66834684D01*
X69693014Y-67062787D01*
X69696036Y-67066056D01*
X69878217Y-67263139D01*
X69878222Y-67263144D01*
X69881233Y-67266401D01*
X70096264Y-67441464D01*
X70100082Y-67443763D01*
X70100084Y-67443764D01*
X70325659Y-67579571D01*
X70333816Y-67584482D01*
X70432521Y-67626279D01*
X70585046Y-67690865D01*
X70585051Y-67690867D01*
X70589149Y-67692602D01*
X70593446Y-67693741D01*
X70593451Y-67693743D01*
X70705067Y-67723337D01*
X70857169Y-67763666D01*
X71132529Y-67796257D01*
X71409734Y-67789724D01*
X71414132Y-67788992D01*
X71678862Y-67744929D01*
X71678866Y-67744928D01*
X71683252Y-67744198D01*
X71687493Y-67742857D01*
X71687496Y-67742856D01*
X71943381Y-67661930D01*
X71943383Y-67661929D01*
X71947627Y-67660587D01*
X71951638Y-67658661D01*
X71951643Y-67658659D01*
X72193565Y-67542490D01*
X72193566Y-67542489D01*
X72197584Y-67540560D01*
X72313500Y-67463107D01*
X72424428Y-67388988D01*
X72424432Y-67388985D01*
X72428136Y-67386510D01*
X72431453Y-67383539D01*
X72431457Y-67383536D01*
X72631363Y-67204485D01*
X72631364Y-67204484D01*
X72634681Y-67201513D01*
X72813099Y-66989258D01*
X72949481Y-66770577D01*
X72957473Y-66757763D01*
X72957473Y-66757762D01*
X72959831Y-66753982D01*
X73071948Y-66500379D01*
X73147213Y-66233507D01*
X73149055Y-66219790D01*
X73183698Y-65961876D01*
X73183699Y-65961868D01*
X73184125Y-65958694D01*
X73186509Y-65882835D01*
X73187898Y-65838658D01*
X73187898Y-65838653D01*
X73187999Y-65835436D01*
X73186458Y-65813665D01*
X73178552Y-65702015D01*
X73168415Y-65558847D01*
X73151595Y-65480717D01*
X73110992Y-65292123D01*
X73110991Y-65292121D01*
X73110056Y-65287776D01*
X73014084Y-65027633D01*
X72926614Y-64865522D01*
X72884528Y-64787524D01*
X72882415Y-64783608D01*
X72717676Y-64560569D01*
X72675582Y-64517808D01*
X72526285Y-64366149D01*
X72523154Y-64362968D01*
X72519614Y-64360267D01*
X72519608Y-64360261D01*
X72306271Y-64197448D01*
X72302731Y-64194746D01*
X72298842Y-64192568D01*
X72064690Y-64061436D01*
X72064687Y-64061435D01*
X72060804Y-64059260D01*
X72056665Y-64057659D01*
X72056657Y-64057655D01*
X71865014Y-63983515D01*
X71802200Y-63959214D01*
X71797879Y-63958212D01*
X71797871Y-63958210D01*
X71619929Y-63916966D01*
X71532080Y-63896604D01*
X71255832Y-63872678D01*
X71251397Y-63872922D01*
X71251393Y-63872922D01*
X70983413Y-63887670D01*
X70983406Y-63887671D01*
X70978970Y-63887915D01*
X70707016Y-63942010D01*
X70702806Y-63943488D01*
X70702804Y-63943489D01*
X70549557Y-63997306D01*
X70445398Y-64033884D01*
X70199334Y-64161703D01*
X70195707Y-64164295D01*
X70195702Y-64164298D01*
X70156143Y-64192568D01*
X69973736Y-64322919D01*
X69931754Y-64362968D01*
X69809269Y-64479812D01*
X69773103Y-64514312D01*
X69601440Y-64732066D01*
X69555417Y-64811300D01*
X69464405Y-64967988D01*
X69464402Y-64967994D01*
X69462171Y-64971835D01*
X69460501Y-64975958D01*
X69378027Y-65179578D01*
X69358075Y-65228836D01*
X69357004Y-65233149D01*
X69357002Y-65233154D01*
X69293787Y-65487640D01*
X69291229Y-65497939D01*
X69290775Y-65502367D01*
X69290775Y-65502369D01*
X69271295Y-65692500D01*
X69262968Y-65773777D01*
X68388752Y-65773777D01*
X68388864Y-65769345D01*
X68389757Y-65734126D01*
X68390125Y-65727184D01*
X68409458Y-65487640D01*
X68410209Y-65480727D01*
X68418175Y-65422397D01*
X68419306Y-65415535D01*
X68464913Y-65179574D01*
X68466420Y-65172786D01*
X68480758Y-65115711D01*
X68482638Y-65109016D01*
X68553961Y-64879516D01*
X68556206Y-64872938D01*
X68568583Y-64839702D01*
X68576764Y-64817734D01*
X68579357Y-64811320D01*
X68675537Y-64591059D01*
X68678494Y-64584767D01*
X68704976Y-64532230D01*
X68708276Y-64526108D01*
X68828148Y-64317760D01*
X68831781Y-64311831D01*
X68863884Y-64262540D01*
X68867838Y-64256820D01*
X68966706Y-64121924D01*
X69009940Y-64062936D01*
X69014165Y-64057492D01*
X69051572Y-64011955D01*
X69056070Y-64006778D01*
X69178871Y-63873062D01*
X69218674Y-63829722D01*
X69223516Y-63824733D01*
X69265654Y-63783649D01*
X69270765Y-63778934D01*
X69451846Y-63620901D01*
X69457211Y-63616474D01*
X69503613Y-63580288D01*
X69509211Y-63576166D01*
X69706599Y-63439045D01*
X69712419Y-63435236D01*
X69762540Y-63404373D01*
X69768557Y-63400892D01*
X69979851Y-63286350D01*
X69986044Y-63283211D01*
X70039298Y-63258038D01*
X70045614Y-63255264D01*
X70169751Y-63204763D01*
X70268214Y-63164708D01*
X70274724Y-63162267D01*
X70330440Y-63143110D01*
X70337076Y-63141031D01*
X70568282Y-63075553D01*
X70575021Y-63073844D01*
X70632459Y-63060952D01*
X70639261Y-63059621D01*
X70876371Y-63019997D01*
X70883220Y-63019046D01*
X70941722Y-63012562D01*
X70948624Y-63011989D01*
X71188621Y-62998729D01*
X71195572Y-62998537D01*
X71254428Y-62998537D01*
X71261379Y-62998729D01*
G37*
%TD.AperFunction*%
%TD*%
M02*
