%TF.GenerationSoftware,KiCad,Pcbnew,(5.99.0-9379-gbf5cd2e233)*%
%TF.CreationDate,2021-03-05T23:03:01+01:00*%
%TF.ProjectId,sucker-one-ui-board,7375636b-6572-42d6-9f6e-652d75692d62,rev?*%
%TF.SameCoordinates,Original*%
%TF.FileFunction,Copper,L2,Bot*%
%TF.FilePolarity,Positive*%
%FSLAX46Y46*%
G04 Gerber Fmt 4.6, Leading zero omitted, Abs format (unit mm)*
G04 Created by KiCad (PCBNEW (5.99.0-9379-gbf5cd2e233)) date 2021-03-05 23:03:01*
%MOMM*%
%LPD*%
G01*
G04 APERTURE LIST*
G04 Aperture macros list*
%AMRoundRect*
0 Rectangle with rounded corners*
0 $1 Rounding radius*
0 $2 $3 $4 $5 $6 $7 $8 $9 X,Y pos of 4 corners*
0 Add a 4 corners polygon primitive as box body*
4,1,4,$2,$3,$4,$5,$6,$7,$8,$9,$2,$3,0*
0 Add four circle primitives for the rounded corners*
1,1,$1+$1,$2,$3*
1,1,$1+$1,$4,$5*
1,1,$1+$1,$6,$7*
1,1,$1+$1,$8,$9*
0 Add four rect primitives between the rounded corners*
20,1,$1+$1,$2,$3,$4,$5,0*
20,1,$1+$1,$4,$5,$6,$7,0*
20,1,$1+$1,$6,$7,$8,$9,0*
20,1,$1+$1,$8,$9,$2,$3,0*%
G04 Aperture macros list end*
%TA.AperFunction,SMDPad,CuDef*%
%ADD10RoundRect,0.200000X-0.200000X-0.275000X0.200000X-0.275000X0.200000X0.275000X-0.200000X0.275000X0*%
%TD*%
%TA.AperFunction,SMDPad,CuDef*%
%ADD11RoundRect,0.150000X-0.587500X-0.150000X0.587500X-0.150000X0.587500X0.150000X-0.587500X0.150000X0*%
%TD*%
%TA.AperFunction,SMDPad,CuDef*%
%ADD12RoundRect,0.200000X0.200000X0.275000X-0.200000X0.275000X-0.200000X-0.275000X0.200000X-0.275000X0*%
%TD*%
%TA.AperFunction,SMDPad,CuDef*%
%ADD13C,1.500000*%
%TD*%
%TA.AperFunction,SMDPad,CuDef*%
%ADD14R,0.599999X1.899999*%
%TD*%
%TA.AperFunction,SMDPad,CuDef*%
%ADD15R,2.100001X2.799999*%
%TD*%
%TA.AperFunction,ViaPad*%
%ADD16C,0.800000*%
%TD*%
%TA.AperFunction,Conductor*%
%ADD17C,0.250000*%
%TD*%
%TA.AperFunction,Conductor*%
%ADD18C,0.400000*%
%TD*%
G04 APERTURE END LIST*
D10*
%TO.P,R1,1*%
%TO.N,Net-(J1-Pad9)*%
X68263000Y-69596000D03*
%TO.P,R1,2*%
%TO.N,+3V3*%
X69913000Y-69596000D03*
%TD*%
D11*
%TO.P,Q1,1,G*%
%TO.N,+3V3*%
X68658500Y-73594000D03*
%TO.P,Q1,2,S*%
%TO.N,Net-(J1-Pad9)*%
X68658500Y-71694000D03*
%TO.P,Q1,3,D*%
%TO.N,LED_DATA*%
X70533500Y-72644000D03*
%TD*%
D12*
%TO.P,R2,1*%
%TO.N,LED_DATA*%
X69913000Y-75438000D03*
%TO.P,R2,2*%
%TO.N,+5V*%
X68263000Y-75438000D03*
%TD*%
D13*
%TO.P,TP9,1,1*%
%TO.N,+5V*%
X78486000Y-100330000D03*
%TD*%
%TO.P,TP3,1,1*%
%TO.N,LOW_BTN*%
X88646000Y-103124000D03*
%TD*%
D14*
%TO.P,J1,1,1*%
%TO.N,+5V*%
X86160996Y-68420999D03*
%TO.P,J1,2,2*%
%TO.N,+3V3*%
X85160996Y-68420999D03*
%TO.P,J1,3,3*%
%TO.N,LIFT_BTN*%
X84160995Y-68420999D03*
%TO.P,J1,4,4*%
%TO.N,DROP_BTN*%
X83160997Y-68420999D03*
%TO.P,J1,5,5*%
%TO.N,LOW_BTN*%
X82160996Y-68420999D03*
%TO.P,J1,6,6*%
%TO.N,HIGH_BTN*%
X81160996Y-68420999D03*
%TO.P,J1,7,7*%
%TO.N,REVERSE_BTN*%
X80160995Y-68420999D03*
%TO.P,J1,8,8*%
%TO.N,TRIGGER_BTN*%
X79160995Y-68420999D03*
%TO.P,J1,9,9*%
%TO.N,Net-(J1-Pad9)*%
X78160997Y-68420999D03*
%TO.P,J1,10,10*%
%TO.N,GND*%
X77160996Y-68420999D03*
D15*
%TO.P,J1,MP1,MP1*%
X89310997Y-70770999D03*
%TO.P,J1,MP2,MP2*%
X74010998Y-70770999D03*
%TD*%
D13*
%TO.P,TP4,1,1*%
%TO.N,DROP_BTN*%
X83566000Y-103124000D03*
%TD*%
%TO.P,TP2,1,1*%
%TO.N,LIFT_BTN*%
X81026000Y-103124000D03*
%TD*%
%TO.P,TP7,1,1*%
%TO.N,TRIGGER_BTN*%
X93726000Y-103124000D03*
%TD*%
%TO.P,TP5,1,1*%
%TO.N,REVERSE_BTN*%
X91186000Y-103124000D03*
%TD*%
%TO.P,TP1,1,1*%
%TO.N,GND*%
X81026000Y-100330000D03*
%TD*%
%TO.P,TP8,1,1*%
%TO.N,LED_DATA*%
X96266000Y-103124000D03*
%TD*%
%TO.P,TP10,1,1*%
%TO.N,+3V3*%
X75946000Y-100330000D03*
%TD*%
%TO.P,TP6,1,1*%
%TO.N,HIGH_BTN*%
X86106000Y-103124000D03*
%TD*%
D16*
%TO.N,Net-(U12-Pad3)*%
X87376000Y-99060000D03*
X92456000Y-99060000D03*
%TO.N,DO_REV*%
X86868000Y-97028000D03*
X82550000Y-98806000D03*
%TO.N,GND*%
X80010000Y-99060000D03*
X71628000Y-102108000D03*
X70104000Y-91948000D03*
X71120000Y-93726000D03*
X70612000Y-100838000D03*
%TO.N,Net-(U3-Pad1)*%
X71628000Y-99060000D03*
X74930000Y-95758000D03*
%TO.N,HIGH_BTN*%
X83820000Y-101092000D03*
X87122000Y-92710000D03*
X86106000Y-94742000D03*
%TO.N,TRIGGER_BTN*%
X92456000Y-102108000D03*
%TO.N,REVERSE_BTN*%
X89916000Y-102362000D03*
%TO.N,DO_HIGH*%
X92964000Y-89408000D03*
X74676000Y-99314000D03*
%TO.N,Net-(U11-Pad3)*%
X90424000Y-86868000D03*
X92964000Y-86360000D03*
%TO.N,DO_LOW*%
X84328000Y-86614000D03*
X79502000Y-86614000D03*
%TO.N,LOW_BTN*%
X87630000Y-102108000D03*
X68326000Y-95250000D03*
X66294000Y-97282000D03*
X73152000Y-89916000D03*
X79502000Y-103886000D03*
X66294000Y-102870000D03*
X68834000Y-103124000D03*
%TO.N,Net-(U2-Pad1)*%
X71882000Y-86106000D03*
X74422000Y-86106000D03*
%TO.N,DROP_BTN*%
X89662000Y-77470000D03*
X82296000Y-103886000D03*
X84743995Y-104938990D03*
%TO.N,LIFT_BTN*%
X66941288Y-101418586D03*
X68391299Y-101600000D03*
X66802000Y-82804000D03*
%TO.N,DO_DROP*%
X69088000Y-83312000D03*
X70358000Y-84836000D03*
X86360000Y-78486000D03*
X76454000Y-82550000D03*
%TO.N,Net-(U10-Pad3)*%
X87630000Y-74676000D03*
X95250000Y-72136000D03*
%TO.N,DO_LIFT*%
X84836000Y-76962000D03*
X87376000Y-73406000D03*
%TO.N,LOW_BTN*%
X74930000Y-87376000D03*
X83312000Y-72390000D03*
X82550000Y-70612000D03*
%TO.N,HIGH_BTN*%
X81534000Y-70866000D03*
X82296000Y-72390000D03*
X82296000Y-74639010D03*
%TO.N,REVERSE_BTN*%
X81280000Y-74676000D03*
X80264000Y-70866000D03*
X71882000Y-100838000D03*
X81282651Y-72334979D03*
X81026000Y-89408000D03*
%TO.N,TRIGGER_BTN*%
X80266775Y-72334979D03*
X79248000Y-70866000D03*
X80270590Y-74639010D03*
X87884000Y-94742000D03*
X87884000Y-96520000D03*
%TO.N,DROP_BTN*%
X84582000Y-70612000D03*
X91694000Y-69850000D03*
X86106000Y-70104000D03*
%TO.N,LIFT_BTN*%
X75948778Y-68889021D03*
X76068340Y-66670340D03*
X76708000Y-72136000D03*
X75006597Y-73203940D03*
X73660000Y-74930000D03*
%TO.N,LED_DATA*%
X68834000Y-76962000D03*
X67564000Y-78486000D03*
X70612000Y-74168000D03*
%TO.N,Net-(J1-Pad9)*%
X71120000Y-68580000D03*
X68834000Y-68580000D03*
%TO.N,+3V3*%
X91694000Y-96774000D03*
X90170000Y-94488000D03*
X88392000Y-77216000D03*
X90170000Y-83820000D03*
X75692000Y-99060000D03*
X72898000Y-95758000D03*
X72898000Y-93726000D03*
X72390000Y-82042000D03*
X72136000Y-84637021D03*
X70104000Y-79756000D03*
X72136000Y-71628000D03*
X77430208Y-70597288D03*
X72136000Y-69596000D03*
X88392000Y-73152000D03*
%TO.N,+5V*%
X77555000Y-96605000D03*
X66548000Y-75184000D03*
X87122000Y-68326000D03*
%TO.N,GND*%
X78740000Y-88646000D03*
X70104000Y-88392000D03*
X71120000Y-75692000D03*
X78486000Y-75946000D03*
X87122000Y-100838000D03*
X96012000Y-99314000D03*
X95250000Y-88392000D03*
X86868000Y-88392000D03*
X86868000Y-76200000D03*
X97790000Y-74422000D03*
%TD*%
D17*
%TO.N,Net-(U12-Pad3)*%
X87376000Y-99060000D02*
X92456000Y-99060000D01*
%TO.N,DO_REV*%
X82550000Y-98806000D02*
X83820000Y-98806000D01*
X83820000Y-98806000D02*
X84582000Y-98044000D01*
X84582000Y-98044000D02*
X85598000Y-97028000D01*
X85598000Y-97028000D02*
X86868000Y-97028000D01*
D18*
%TO.N,GND*%
X80010000Y-99314000D02*
X81026000Y-100330000D01*
X80010000Y-99060000D02*
X80010000Y-99314000D01*
X79248000Y-102108000D02*
X81026000Y-100330000D01*
X71628000Y-102108000D02*
X79248000Y-102108000D01*
D17*
%TO.N,LOW_BTN*%
X73152000Y-90424000D02*
X68326000Y-95250000D01*
X73152000Y-89916000D02*
X73152000Y-90424000D01*
D18*
%TO.N,GND*%
X70104000Y-88392000D02*
X70104000Y-91948000D01*
X71120000Y-93726000D02*
X71120000Y-98044000D01*
X70612000Y-98552000D02*
X70612000Y-100838000D01*
X71120000Y-98044000D02*
X70612000Y-98552000D01*
D17*
%TO.N,DO_HIGH*%
X74676000Y-97721413D02*
X74676000Y-99314000D01*
X82989413Y-89408000D02*
X74676000Y-97721413D01*
X92964000Y-89408000D02*
X82989413Y-89408000D01*
%TO.N,REVERSE_BTN*%
X71882000Y-99879002D02*
X71882000Y-100838000D01*
X81026000Y-90735002D02*
X71882000Y-99879002D01*
X81026000Y-89408000D02*
X81026000Y-90735002D01*
%TO.N,Net-(U3-Pad1)*%
X71628000Y-99060000D02*
X74930000Y-95758000D01*
%TO.N,GND*%
X86614000Y-100330000D02*
X87122000Y-100838000D01*
X81026000Y-100330000D02*
X86614000Y-100330000D01*
%TO.N,HIGH_BTN*%
X87122000Y-93726000D02*
X87122000Y-92710000D01*
X86106000Y-103124000D02*
X84074000Y-101092000D01*
X86106000Y-94742000D02*
X87122000Y-93726000D01*
X84074000Y-101092000D02*
X83820000Y-101092000D01*
%TO.N,TRIGGER_BTN*%
X92456000Y-102108000D02*
X92710000Y-102108000D01*
X92710000Y-102108000D02*
X93726000Y-103124000D01*
%TO.N,REVERSE_BTN*%
X89916000Y-102362000D02*
X90424000Y-102362000D01*
X90424000Y-102362000D02*
X91186000Y-103124000D01*
%TO.N,LED_DATA*%
X95176011Y-104213989D02*
X96266000Y-103124000D01*
X84395994Y-104213989D02*
X95176011Y-104213989D01*
X67564000Y-78486000D02*
X67564000Y-100968296D01*
X67666289Y-103226289D02*
X69088000Y-104648000D01*
X69088000Y-104648000D02*
X83961983Y-104648000D01*
X67666289Y-101070585D02*
X67666289Y-103226289D01*
X83961983Y-104648000D02*
X84395994Y-104213989D01*
X67564000Y-100968296D02*
X67666289Y-101070585D01*
%TO.N,DROP_BTN*%
X96991010Y-104938990D02*
X84743995Y-104938990D01*
X89662000Y-77470000D02*
X98298000Y-86106000D01*
X98298000Y-103632000D02*
X96991010Y-104938990D01*
X98298000Y-86106000D02*
X98298000Y-103632000D01*
%TO.N,Net-(U11-Pad3)*%
X90424000Y-86868000D02*
X90932000Y-86360000D01*
X90932000Y-86360000D02*
X92964000Y-86360000D01*
%TO.N,DO_LOW*%
X79502000Y-86614000D02*
X84328000Y-86614000D01*
%TO.N,LOW_BTN*%
X87630000Y-102108000D02*
X88646000Y-103124000D01*
%TO.N,LIFT_BTN*%
X67019001Y-83021001D02*
X67019001Y-101340873D01*
%TO.N,LOW_BTN*%
X66294000Y-101092000D02*
X65786000Y-101600000D01*
X69596000Y-103886000D02*
X79502000Y-103886000D01*
%TO.N,LIFT_BTN*%
X66802000Y-82804000D02*
X67019001Y-83021001D01*
X81026000Y-103124000D02*
X69915299Y-103124000D01*
%TO.N,LOW_BTN*%
X65786000Y-102362000D02*
X66294000Y-102870000D01*
%TO.N,LIFT_BTN*%
X67019001Y-101340873D02*
X66941288Y-101418586D01*
%TO.N,LOW_BTN*%
X66294000Y-97282000D02*
X66294000Y-101092000D01*
%TO.N,LIFT_BTN*%
X69915299Y-103124000D02*
X68391299Y-101600000D01*
%TO.N,LOW_BTN*%
X68834000Y-103124000D02*
X69596000Y-103886000D01*
X65786000Y-101600000D02*
X65786000Y-102362000D01*
D18*
%TO.N,GND*%
X71158001Y-75730001D02*
X71158001Y-85391997D01*
X71158001Y-85391997D02*
X70104000Y-86445998D01*
X70104000Y-86445998D02*
X70104000Y-88392000D01*
D17*
%TO.N,Net-(U2-Pad1)*%
X71882000Y-86106000D02*
X74422000Y-86106000D01*
%TO.N,DROP_BTN*%
X82804000Y-103886000D02*
X83566000Y-103124000D01*
X82296000Y-103886000D02*
X82804000Y-103886000D01*
D18*
%TO.N,GND*%
X71120000Y-75692000D02*
X71158001Y-75730001D01*
D17*
%TO.N,DO_DROP*%
X69088000Y-83566000D02*
X70358000Y-84836000D01*
%TO.N,+3V3*%
X72390000Y-82042000D02*
X72390000Y-84383021D01*
%TO.N,DO_DROP*%
X69088000Y-83312000D02*
X69088000Y-83566000D01*
%TO.N,+3V3*%
X72390000Y-84383021D02*
X72136000Y-84637021D01*
%TO.N,DO_DROP*%
X86360000Y-78486000D02*
X84836000Y-78486000D01*
X83566000Y-77216000D02*
X82804000Y-77216000D01*
D18*
%TO.N,GND*%
X87160001Y-88099999D02*
X86868000Y-88392000D01*
X87160001Y-76492001D02*
X87160001Y-88099999D01*
D17*
%TO.N,DO_DROP*%
X80772000Y-77216000D02*
X80264000Y-77724000D01*
X80264000Y-77724000D02*
X76454000Y-81534000D01*
X82804000Y-77216000D02*
X80772000Y-77216000D01*
D18*
%TO.N,GND*%
X86868000Y-76200000D02*
X87160001Y-76492001D01*
D17*
%TO.N,DO_DROP*%
X76454000Y-81534000D02*
X76454000Y-82550000D01*
X84328000Y-77978000D02*
X83566000Y-77216000D01*
X84836000Y-78486000D02*
X84328000Y-77978000D01*
%TO.N,Net-(U10-Pad3)*%
X87630000Y-74676000D02*
X90678000Y-74676000D01*
X90678000Y-74676000D02*
X92964000Y-72390000D01*
X92964000Y-72390000D02*
X93218000Y-72136000D01*
X93218000Y-72136000D02*
X95250000Y-72136000D01*
%TO.N,+3V3*%
X85852000Y-70866000D02*
X86106000Y-70866000D01*
%TO.N,TRIGGER_BTN*%
X80266775Y-72334979D02*
X80270590Y-72338794D01*
%TO.N,DO_LIFT*%
X85852000Y-76708000D02*
X85852000Y-74676000D01*
%TO.N,REVERSE_BTN*%
X81280000Y-72337630D02*
X81282651Y-72334979D01*
%TO.N,+3V3*%
X86106000Y-70866000D02*
X88392000Y-73152000D01*
%TO.N,DO_LIFT*%
X85598000Y-76962000D02*
X85852000Y-76708000D01*
%TO.N,HIGH_BTN*%
X82296000Y-72390000D02*
X82296000Y-74639010D01*
%TO.N,DO_LIFT*%
X85852000Y-74676000D02*
X86360000Y-74168000D01*
%TO.N,TRIGGER_BTN*%
X80270590Y-72338794D02*
X80270590Y-74639010D01*
%TO.N,DO_LIFT*%
X86868000Y-74168000D02*
X87376000Y-73660000D01*
X86360000Y-74168000D02*
X86868000Y-74168000D01*
X84836000Y-76962000D02*
X85598000Y-76962000D01*
X87376000Y-73660000D02*
X87376000Y-73406000D01*
%TO.N,REVERSE_BTN*%
X81280000Y-74676000D02*
X81280000Y-72337630D01*
%TO.N,+3V3*%
X85852000Y-70866000D02*
X85108022Y-71609978D01*
X78442898Y-71609978D02*
X77430208Y-70597288D01*
X85108022Y-71609978D02*
X78442898Y-71609978D01*
%TO.N,LOW_BTN*%
X83312000Y-72390000D02*
X83312000Y-74676000D01*
X83312000Y-74676000D02*
X82804000Y-75184000D01*
X82804000Y-75184000D02*
X82296000Y-75692000D01*
X82296000Y-75692000D02*
X80010000Y-75692000D01*
X80010000Y-75692000D02*
X75438000Y-80264000D01*
X75438000Y-80264000D02*
X75438000Y-85852000D01*
X75438000Y-85852000D02*
X75438000Y-86868000D01*
X75438000Y-86868000D02*
X74930000Y-87376000D01*
X82160996Y-70222996D02*
X82550000Y-70612000D01*
X82160996Y-68420999D02*
X82160996Y-70222996D01*
%TO.N,HIGH_BTN*%
X81160996Y-68420999D02*
X81160996Y-70492996D01*
X81160996Y-70492996D02*
X81534000Y-70866000D01*
%TO.N,REVERSE_BTN*%
X80160995Y-70762995D02*
X80264000Y-70866000D01*
X80160995Y-68420999D02*
X80160995Y-70762995D01*
D18*
%TO.N,GND*%
X78740000Y-88646000D02*
X79032001Y-88353999D01*
X79032001Y-88353999D02*
X86829999Y-88353999D01*
X86829999Y-88353999D02*
X86868000Y-88392000D01*
D17*
%TO.N,TRIGGER_BTN*%
X79160995Y-70778995D02*
X79248000Y-70866000D01*
X79160995Y-68420999D02*
X79160995Y-70778995D01*
X87884000Y-94742000D02*
X87884000Y-96520000D01*
%TO.N,+3V3*%
X85380999Y-70452001D02*
X85794998Y-70866000D01*
X85380999Y-68641002D02*
X85380999Y-70452001D01*
X85160996Y-68420999D02*
X85380999Y-68641002D01*
X85794998Y-70866000D02*
X85852000Y-70866000D01*
%TO.N,DROP_BTN*%
X83160997Y-68420999D02*
X83160997Y-69190997D01*
X87884000Y-68834000D02*
X90932000Y-68834000D01*
X83160997Y-69190997D02*
X84582000Y-70612000D01*
X91694000Y-69596000D02*
X91694000Y-69850000D01*
X90932000Y-68834000D02*
X91694000Y-69596000D01*
X86106000Y-70104000D02*
X86614000Y-70104000D01*
X86614000Y-70104000D02*
X87884000Y-68834000D01*
%TO.N,LIFT_BTN*%
X76190680Y-66548000D02*
X76068340Y-66670340D01*
%TO.N,Net-(J1-Pad9)*%
X76200000Y-67564000D02*
X76708000Y-67056000D01*
X73660000Y-68580000D02*
X74676000Y-67564000D01*
X76708000Y-67056000D02*
X77724000Y-67056000D01*
%TO.N,LIFT_BTN*%
X75948778Y-71376778D02*
X75948778Y-68889021D01*
D18*
%TO.N,GND*%
X74010998Y-69585000D02*
X75506987Y-68089011D01*
D17*
%TO.N,LIFT_BTN*%
X76708000Y-72136000D02*
X75948778Y-71376778D01*
X84160995Y-66888995D02*
X83820000Y-66548000D01*
D18*
%TO.N,GND*%
X75506987Y-68089011D02*
X76829008Y-68089011D01*
D17*
%TO.N,Net-(J1-Pad9)*%
X77724000Y-67056000D02*
X78160997Y-67492997D01*
X71120000Y-68580000D02*
X73660000Y-68580000D01*
%TO.N,LIFT_BTN*%
X84160995Y-68420999D02*
X84160995Y-66888995D01*
D18*
%TO.N,GND*%
X74010998Y-70770999D02*
X74010998Y-69585000D01*
D17*
%TO.N,Net-(J1-Pad9)*%
X78160997Y-67492997D02*
X78160997Y-68420999D01*
X74676000Y-67564000D02*
X76200000Y-67564000D01*
%TO.N,LIFT_BTN*%
X83820000Y-66548000D02*
X76190680Y-66548000D01*
D18*
%TO.N,GND*%
X76829008Y-68089011D02*
X77160996Y-68420999D01*
D17*
%TO.N,LIFT_BTN*%
X73660000Y-74550537D02*
X75006597Y-73203940D01*
X73660000Y-74930000D02*
X73660000Y-74550537D01*
D18*
%TO.N,GND*%
X71158001Y-75730001D02*
X75907999Y-75730001D01*
X75907999Y-75730001D02*
X75946000Y-75692000D01*
D17*
%TO.N,LED_DATA*%
X69913000Y-75438000D02*
X69913000Y-75883000D01*
X69913000Y-75883000D02*
X68834000Y-76962000D01*
X70612000Y-74168000D02*
X70612000Y-74739000D01*
X70612000Y-74739000D02*
X69913000Y-75438000D01*
X70533500Y-72644000D02*
X70533500Y-74089500D01*
X70533500Y-74089500D02*
X70612000Y-74168000D01*
%TO.N,Net-(J1-Pad9)*%
X68658500Y-70944500D02*
X68658500Y-71694000D01*
X68263000Y-69596000D02*
X68263000Y-70549000D01*
X68263000Y-70549000D02*
X68658500Y-70944500D01*
X78160997Y-68420999D02*
X78160997Y-67585982D01*
X68263000Y-69151000D02*
X68263000Y-69596000D01*
X68834000Y-68580000D02*
X68263000Y-69151000D01*
%TO.N,+3V3*%
X90170000Y-94488000D02*
X90170000Y-95250000D01*
X90170000Y-95250000D02*
X91694000Y-96774000D01*
X88392000Y-82042000D02*
X90170000Y-83820000D01*
X88392000Y-77216000D02*
X88392000Y-82042000D01*
X75692000Y-99060000D02*
X75692000Y-100076000D01*
X75692000Y-100076000D02*
X75946000Y-100330000D01*
X72898000Y-93726000D02*
X72898000Y-95758000D01*
X66548000Y-73660000D02*
X65786000Y-74422000D01*
X65786000Y-74422000D02*
X65786000Y-75692000D01*
X66802000Y-76962000D02*
X67310000Y-76962000D01*
X67310000Y-76962000D02*
X70104000Y-79756000D01*
X66548000Y-72390000D02*
X66548000Y-73660000D01*
X65786000Y-75692000D02*
X65786000Y-75946000D01*
X66294000Y-76454000D02*
X66802000Y-76962000D01*
X65786000Y-75946000D02*
X66294000Y-76454000D01*
X67752000Y-73594000D02*
X68658500Y-73594000D01*
X69913000Y-68389000D02*
X69342000Y-67818000D01*
X67564000Y-67818000D02*
X66548000Y-68834000D01*
X69913000Y-69596000D02*
X69913000Y-68389000D01*
X66548000Y-68834000D02*
X66548000Y-72390000D01*
X69342000Y-67818000D02*
X67564000Y-67818000D01*
X66548000Y-72390000D02*
X67752000Y-73594000D01*
X72136000Y-69596000D02*
X69913000Y-69596000D01*
X72136000Y-69596000D02*
X72136000Y-71628000D01*
%TO.N,+5V*%
X77555000Y-96605000D02*
X78486000Y-97536000D01*
X78486000Y-97536000D02*
X78486000Y-100330000D01*
D18*
X66548000Y-75184000D02*
X67310000Y-75184000D01*
X67310000Y-75184000D02*
X67564000Y-75438000D01*
X67564000Y-75438000D02*
X68263000Y-75438000D01*
X86160996Y-68420999D02*
X87027001Y-68420999D01*
X87027001Y-68420999D02*
X87122000Y-68326000D01*
%TO.N,GND*%
X70104000Y-88392000D02*
X78486000Y-88392000D01*
X78486000Y-88392000D02*
X78740000Y-88646000D01*
X75946000Y-75692000D02*
X78232000Y-75692000D01*
X75946000Y-72706001D02*
X74010998Y-70770999D01*
X75946000Y-75692000D02*
X75946000Y-72706001D01*
X78232000Y-75692000D02*
X78486000Y-75946000D01*
X96012000Y-99314000D02*
X94488000Y-100838000D01*
X94488000Y-100838000D02*
X87122000Y-100838000D01*
X95250000Y-88392000D02*
X95250000Y-98552000D01*
X95250000Y-98552000D02*
X96012000Y-99314000D01*
X86868000Y-88392000D02*
X95250000Y-88392000D01*
X86868000Y-76200000D02*
X97536000Y-76200000D01*
X97536000Y-76200000D02*
X97790000Y-75946000D01*
X97790000Y-75946000D02*
X97790000Y-74422000D01*
X89310997Y-70770999D02*
X96170999Y-70770999D01*
X96170999Y-70770999D02*
X97536000Y-72136000D01*
X97790000Y-72390000D02*
X97790000Y-74422000D01*
X97536000Y-72136000D02*
X97790000Y-72390000D01*
%TD*%
M02*
