M48
; DRILL file {KiCad (5.99.0-9379-gbf5cd2e233)} date Thursday, March 11, 2021 at 01:06:45 AM
; FORMAT={-:-/ absolute / inch / decimal}
; #@! TF.CreationDate,2021-03-11T01:06:45+01:00
; #@! TF.GenerationSoftware,Kicad,Pcbnew,(5.99.0-9379-gbf5cd2e233)
; #@! TF.FileFunction,Plated,1,2,PTH
FMAT,2
INCH
T1C0.0157
%
G90
G05
T1
X2.61Y-3.83
X2.61Y-4.05
X2.62Y-2.96
X2.63Y-3.26
X2.6355Y-3.9929
X2.66Y-3.09
X2.69Y-3.75
X2.6926Y-4.0
X2.71Y-2.7
X2.71Y-3.03
X2.71Y-4.06
X2.72Y-3.28
X2.76Y-3.14
X2.76Y-3.48
X2.76Y-3.62
X2.77Y-3.34
X2.78Y-2.92
X2.78Y-3.97
X2.79Y-2.77
X2.8Y-2.7
X2.8Y-2.98
X2.8Y-3.69
X2.82Y-3.9
X2.82Y-4.02
X2.83Y-3.39
X2.83Y-3.97
X2.84Y-2.82
X2.84Y-3.3322
X2.8423Y-2.743
X2.85Y-3.23
X2.87Y-3.69
X2.87Y-3.77
X2.88Y-3.54
X2.9Y-2.95
X2.93Y-3.39
X2.94Y-3.91
X2.95Y-3.44
X2.95Y-3.77
X2.98Y-3.9
X2.985Y-2.67
X3.01Y-3.25
X3.0484Y-2.7794
X3.0533Y-3.8033
X3.0625Y-2.8475
X3.09Y-2.755
X3.09Y-2.99
X3.1Y-3.49
X3.13Y-3.41
X3.13Y-4.09
X3.15Y-3.9
X3.1601Y-2.8478
X3.1603Y-2.9385
X3.19Y-3.52
X3.1953Y-2.6937
X3.2Y-2.94
X3.2001Y-2.8478
X3.2347Y-2.6937
X3.24Y-2.85
X3.24Y-2.9385
X3.24Y-4.09
X3.25Y-3.89
X3.2687Y-2.7459
X3.28Y-2.85
X3.3Y-3.98
X3.3134Y-2.6937
X3.32Y-3.41
X3.3364Y-4.1315
X3.34Y-3.03
X3.3404Y-2.785
X3.39Y-2.76
X3.39Y-3.73
X3.4Y-3.09
X3.42Y-3.0
X3.42Y-3.48
X3.42Y-3.82
X3.43Y-3.65
X3.43Y-3.97
X3.435Y-2.64
X3.44Y-2.89
X3.44Y-3.9
X3.45Y-2.94
X3.45Y-4.02
X3.46Y-3.73
X3.46Y-3.8
X3.48Y-2.88
X3.48Y-3.04
X3.53Y-3.05
X3.54Y-4.03
X3.55Y-3.3
X3.55Y-3.72
X3.56Y-3.42
X3.61Y-2.75
X3.61Y-3.81
X3.64Y-3.9
X3.64Y-4.02
X3.66Y-3.4
X3.66Y-3.52
X3.75Y-2.84
X3.75Y-3.48
X3.78Y-3.91
X3.85Y-2.93
T0
M30
