%TF.GenerationSoftware,KiCad,Pcbnew,(5.99.0-10573-gc33b2cfa8d)*%
%TF.CreationDate,2021-05-20T09:22:53+02:00*%
%TF.ProjectId,sucker-one-ui-board,7375636b-6572-42d6-9f6e-652d75692d62,rev?*%
%TF.SameCoordinates,Original*%
%TF.FileFunction,Copper,L4,Bot*%
%TF.FilePolarity,Positive*%
%FSLAX46Y46*%
G04 Gerber Fmt 4.6, Leading zero omitted, Abs format (unit mm)*
G04 Created by KiCad (PCBNEW (5.99.0-10573-gc33b2cfa8d)) date 2021-05-20 09:22:53*
%MOMM*%
%LPD*%
G01*
G04 APERTURE LIST*
G04 Aperture macros list*
%AMRoundRect*
0 Rectangle with rounded corners*
0 $1 Rounding radius*
0 $2 $3 $4 $5 $6 $7 $8 $9 X,Y pos of 4 corners*
0 Add a 4 corners polygon primitive as box body*
4,1,4,$2,$3,$4,$5,$6,$7,$8,$9,$2,$3,0*
0 Add four circle primitives for the rounded corners*
1,1,$1+$1,$2,$3*
1,1,$1+$1,$4,$5*
1,1,$1+$1,$6,$7*
1,1,$1+$1,$8,$9*
0 Add four rect primitives between the rounded corners*
20,1,$1+$1,$2,$3,$4,$5,0*
20,1,$1+$1,$4,$5,$6,$7,0*
20,1,$1+$1,$6,$7,$8,$9,0*
20,1,$1+$1,$8,$9,$2,$3,0*%
G04 Aperture macros list end*
%TA.AperFunction,SMDPad,CuDef*%
%ADD10RoundRect,0.225000X-0.250000X0.225000X-0.250000X-0.225000X0.250000X-0.225000X0.250000X0.225000X0*%
%TD*%
%TA.AperFunction,SMDPad,CuDef*%
%ADD11C,1.500000*%
%TD*%
%TA.AperFunction,SMDPad,CuDef*%
%ADD12RoundRect,0.200000X-0.200000X-0.275000X0.200000X-0.275000X0.200000X0.275000X-0.200000X0.275000X0*%
%TD*%
%TA.AperFunction,SMDPad,CuDef*%
%ADD13R,0.599999X1.899999*%
%TD*%
%TA.AperFunction,SMDPad,CuDef*%
%ADD14R,2.100001X2.799999*%
%TD*%
%TA.AperFunction,SMDPad,CuDef*%
%ADD15RoundRect,0.150000X-0.587500X-0.150000X0.587500X-0.150000X0.587500X0.150000X-0.587500X0.150000X0*%
%TD*%
%TA.AperFunction,SMDPad,CuDef*%
%ADD16RoundRect,0.200000X0.200000X0.275000X-0.200000X0.275000X-0.200000X-0.275000X0.200000X-0.275000X0*%
%TD*%
%TA.AperFunction,ViaPad*%
%ADD17C,0.800000*%
%TD*%
%TA.AperFunction,Conductor*%
%ADD18C,0.250000*%
%TD*%
%TA.AperFunction,Conductor*%
%ADD19C,0.400000*%
%TD*%
G04 APERTURE END LIST*
D10*
%TO.P,C7,1*%
%TO.N,DATA_IN*%
X91719400Y-68846400D03*
%TO.P,C7,2*%
%TO.N,GND*%
X91719400Y-70396400D03*
%TD*%
D11*
%TO.P,TP9,1,1*%
%TO.N,+5V*%
X72085200Y-93573600D03*
%TD*%
%TO.P,TP3,1,1*%
%TO.N,LOW_BTN*%
X68707000Y-90297000D03*
%TD*%
D12*
%TO.P,R1,1*%
%TO.N,DATA_IN*%
X68263000Y-69596000D03*
%TO.P,R1,2*%
%TO.N,+3V3*%
X69913000Y-69596000D03*
%TD*%
D13*
%TO.P,J1,1,1*%
%TO.N,GND*%
X86160996Y-68420999D03*
%TO.P,J1,2,2*%
%TO.N,DATA_IN*%
X85160996Y-68420999D03*
%TO.P,J1,3,3*%
%TO.N,TRIGGER_BTN*%
X84160995Y-68420999D03*
%TO.P,J1,4,4*%
%TO.N,REVERSE_BTN*%
X83160997Y-68420999D03*
%TO.P,J1,5,5*%
%TO.N,HIGH_BTN*%
X82160996Y-68420999D03*
%TO.P,J1,6,6*%
%TO.N,LOW_BTN*%
X81160996Y-68420999D03*
%TO.P,J1,7,7*%
%TO.N,DROP_BTN*%
X80160995Y-68420999D03*
%TO.P,J1,8,8*%
%TO.N,LIFT_BTN*%
X79160995Y-68420999D03*
%TO.P,J1,9,9*%
%TO.N,+3V3*%
X78160997Y-68420999D03*
%TO.P,J1,10,10*%
%TO.N,+5V*%
X77160996Y-68420999D03*
D14*
%TO.P,J1,MP1,MP1*%
%TO.N,GND*%
X89310997Y-70770999D03*
%TO.P,J1,MP2,MP2*%
X74010998Y-70770999D03*
%TD*%
D11*
%TO.P,TP4,1,1*%
%TO.N,DROP_BTN*%
X94767400Y-77724000D03*
%TD*%
%TO.P,TP2,1,1*%
%TO.N,LIFT_BTN*%
X69240400Y-78130400D03*
%TD*%
%TO.P,TP7,1,1*%
%TO.N,TRIGGER_BTN*%
X93700600Y-103124000D03*
%TD*%
%TO.P,TP5,1,1*%
%TO.N,REVERSE_BTN*%
X68681600Y-103657400D03*
%TD*%
%TO.P,TP1,1,1*%
%TO.N,GND*%
X74625200Y-93573600D03*
%TD*%
D15*
%TO.P,Q1,1,G*%
%TO.N,+3V3*%
X68658500Y-73594000D03*
%TO.P,Q1,2,S*%
%TO.N,DATA_IN*%
X68658500Y-71694000D03*
%TO.P,Q1,3,D*%
%TO.N,LED_DATA*%
X70533500Y-72644000D03*
%TD*%
D11*
%TO.P,TP8,1,1*%
%TO.N,LED_DATA*%
X66370200Y-78130400D03*
%TD*%
%TO.P,TP10,1,1*%
%TO.N,+3V3*%
X69545200Y-93573600D03*
%TD*%
%TO.P,TP6,1,1*%
%TO.N,HIGH_BTN*%
X94818200Y-90830400D03*
%TD*%
D16*
%TO.P,R2,1*%
%TO.N,LED_DATA*%
X69913000Y-75438000D03*
%TO.P,R2,2*%
%TO.N,+5V*%
X68263000Y-75438000D03*
%TD*%
D17*
%TO.N,+3V3*%
X68884800Y-96418400D03*
%TO.N,REVERSE_BTN*%
X67564000Y-102336600D03*
%TO.N,LOW_BTN*%
X71907400Y-88620600D03*
%TO.N,DROP_BTN*%
X91948000Y-76047600D03*
%TO.N,LIFT_BTN*%
X71374000Y-76606400D03*
%TO.N,GND*%
X93141800Y-70408800D03*
%TO.N,TRIGGER_BTN*%
X89052400Y-82372200D03*
X83947000Y-71704200D03*
X84328000Y-77165200D03*
X84074000Y-73507600D03*
X90170000Y-99745800D03*
%TO.N,REVERSE_BTN*%
X83540600Y-76530200D03*
X74853800Y-80568800D03*
X76377800Y-80594200D03*
X82837036Y-71961472D03*
X83007200Y-73482200D03*
%TO.N,HIGH_BTN*%
X81838800Y-72059800D03*
X82014161Y-73646490D03*
X90220800Y-82194400D03*
X92049600Y-87909400D03*
X83413499Y-75538811D03*
%TO.N,LOW_BTN*%
X81356200Y-74472800D03*
X75539600Y-82372200D03*
X80837556Y-72726234D03*
X82524600Y-76098400D03*
X75285600Y-88569800D03*
%TO.N,DROP_BTN*%
X80518000Y-75285600D03*
X79781400Y-73609200D03*
X88671400Y-75895200D03*
%TO.N,LIFT_BTN*%
X75717400Y-74599800D03*
%TO.N,DO_HIGH*%
X73380600Y-95961200D03*
X70993000Y-97586800D03*
%TO.N,DO_DROP*%
X73914000Y-83108800D03*
X70993000Y-84429600D03*
%TO.N,LED_DATA*%
X70180200Y-71678800D03*
%TO.N,+3V3*%
X78181200Y-70891400D03*
%TO.N,GND*%
X73914000Y-68554600D03*
X87376000Y-68427600D03*
X86156800Y-70307200D03*
%TO.N,+5V*%
X71678800Y-78384400D03*
X88341200Y-78257400D03*
X88036400Y-90297000D03*
X71526400Y-90474800D03*
X71628000Y-103047800D03*
X88341200Y-101473000D03*
%TO.N,GND*%
X95935800Y-101117400D03*
%TO.N,+5V*%
X93548200Y-96926400D03*
%TO.N,GND*%
X86791800Y-101295200D03*
%TO.N,+5V*%
X84683600Y-97155000D03*
%TO.N,GND*%
X79679800Y-101727000D03*
%TO.N,+5V*%
X77063600Y-97155000D03*
%TO.N,GND*%
X70535800Y-101295200D03*
%TO.N,+5V*%
X67487800Y-97231200D03*
%TO.N,GND*%
X95961200Y-88544400D03*
%TO.N,+5V*%
X93624400Y-84404200D03*
%TO.N,GND*%
X87045800Y-88696800D03*
%TO.N,+5V*%
X84607400Y-84632800D03*
%TO.N,GND*%
X79425800Y-88569800D03*
%TO.N,+5V*%
X77089000Y-84632800D03*
%TO.N,GND*%
X70256400Y-88544400D03*
%TO.N,+5V*%
X68351400Y-84582000D03*
X93345000Y-72263000D03*
%TO.N,GND*%
X95707200Y-75946000D03*
X86842600Y-75920600D03*
%TO.N,+5V*%
X85185000Y-72563058D03*
%TO.N,GND*%
X79086158Y-75897278D03*
%TO.N,+5V*%
X77165200Y-72313800D03*
%TO.N,GND*%
X69900800Y-76530200D03*
%TO.N,+5V*%
X67906226Y-72577470D03*
%TO.N,GND*%
X74447400Y-91617800D03*
X76123800Y-89966800D03*
X90271600Y-104648000D03*
X92354400Y-101498400D03*
X92659200Y-77444600D03*
X74422000Y-104089200D03*
X74422000Y-78994000D03*
X75971400Y-77419200D03*
X76174600Y-102438200D03*
X92684600Y-89941400D03*
X90957400Y-79146400D03*
X90957400Y-91490800D03*
%TO.N,+5V*%
X75996800Y-68402200D03*
X77165200Y-70129400D03*
X66929000Y-75463400D03*
%TO.N,+3V3*%
X71043800Y-69596000D03*
%TD*%
D18*
%TO.N,GND*%
X74625200Y-93573600D02*
X74625200Y-91795600D01*
X74625200Y-91795600D02*
X74447400Y-91617800D01*
%TO.N,+5V*%
X72085200Y-93573600D02*
X72085200Y-91033600D01*
X72085200Y-91033600D02*
X71526400Y-90474800D01*
%TO.N,+3V3*%
X69545200Y-95758000D02*
X68884800Y-96418400D01*
X69545200Y-93573600D02*
X69545200Y-95758000D01*
%TO.N,LED_DATA*%
X69570600Y-75438000D02*
X69913000Y-75438000D01*
X68656200Y-76631800D02*
X69189600Y-76098400D01*
X66370200Y-78130400D02*
X67868800Y-76631800D01*
X67868800Y-76631800D02*
X68656200Y-76631800D01*
X69189600Y-76098400D02*
X69189600Y-75819000D01*
X69189600Y-75819000D02*
X69570600Y-75438000D01*
%TO.N,TRIGGER_BTN*%
X92354400Y-99745800D02*
X90170000Y-99745800D01*
X93700600Y-103124000D02*
X93700600Y-101092000D01*
X93700600Y-101092000D02*
X92354400Y-99745800D01*
%TO.N,REVERSE_BTN*%
X68681600Y-103454200D02*
X67564000Y-102336600D01*
X68681600Y-103657400D02*
X68681600Y-103454200D01*
%TO.N,LOW_BTN*%
X68707000Y-90297000D02*
X69469000Y-89535000D01*
X70739000Y-89535000D02*
X71577200Y-88696800D01*
X69469000Y-89535000D02*
X70739000Y-89535000D01*
X71653400Y-88620600D02*
X71907400Y-88620600D01*
X71577200Y-88696800D02*
X71653400Y-88620600D01*
%TO.N,HIGH_BTN*%
X92837000Y-87909400D02*
X92049600Y-87909400D01*
X94818200Y-90830400D02*
X94818200Y-89890600D01*
X94818200Y-89890600D02*
X92837000Y-87909400D01*
%TO.N,DROP_BTN*%
X94767400Y-77724000D02*
X93700600Y-76657200D01*
X93700600Y-76657200D02*
X93573600Y-76657200D01*
X93573600Y-76657200D02*
X92557600Y-76657200D01*
X92557600Y-76657200D02*
X91948000Y-76047600D01*
%TO.N,LIFT_BTN*%
X69240400Y-78130400D02*
X69773800Y-77597000D01*
X69773800Y-77597000D02*
X70180200Y-77597000D01*
X70180200Y-77597000D02*
X70383400Y-77597000D01*
X70383400Y-77597000D02*
X71374000Y-76606400D01*
%TO.N,DATA_IN*%
X85160996Y-67315204D02*
X85160996Y-68420999D01*
X91719400Y-68846400D02*
X89852200Y-68846400D01*
X89852200Y-68846400D02*
X88011000Y-67005200D01*
X88011000Y-67005200D02*
X85471000Y-67005200D01*
X85471000Y-67005200D02*
X85160996Y-67315204D01*
%TO.N,GND*%
X93129400Y-70396400D02*
X93141800Y-70408800D01*
X91719400Y-70396400D02*
X93129400Y-70396400D01*
%TO.N,TRIGGER_BTN*%
X84963000Y-75869800D02*
X84963000Y-76530200D01*
X90220800Y-90551000D02*
X90170000Y-90601800D01*
%TO.N,DATA_IN*%
X83914963Y-72757699D02*
X84243961Y-72428701D01*
%TO.N,TRIGGER_BTN*%
X91262200Y-84277200D02*
X91262200Y-89509600D01*
X84160995Y-68420999D02*
X84160995Y-71490205D01*
X89357200Y-82372200D02*
X91262200Y-84277200D01*
X89052400Y-82372200D02*
X89357200Y-82372200D01*
%TO.N,DATA_IN*%
X81804088Y-72784301D02*
X82632837Y-72784301D01*
X84294761Y-72428701D02*
X84671501Y-72051961D01*
%TO.N,REVERSE_BTN*%
X83160997Y-68420999D02*
X82837036Y-68744960D01*
%TO.N,DATA_IN*%
X74818368Y-75326368D02*
X78584806Y-75326368D01*
X78738397Y-75172777D02*
X79415612Y-75172777D01*
X79415612Y-75172777D02*
X81804088Y-72784301D01*
X82659439Y-72757699D02*
X83914963Y-72757699D01*
X84243961Y-72428701D02*
X84294761Y-72428701D01*
X82632837Y-72784301D02*
X82659439Y-72757699D01*
%TO.N,TRIGGER_BTN*%
X84963000Y-76530200D02*
X84328000Y-77165200D01*
%TO.N,DATA_IN*%
X78584806Y-75326368D02*
X78738397Y-75172777D01*
X84671501Y-72001161D02*
X85160996Y-71511666D01*
X84671501Y-72051961D02*
X84671501Y-72001161D01*
%TO.N,TRIGGER_BTN*%
X84160995Y-71490205D02*
X83947000Y-71704200D01*
%TO.N,DROP_BTN*%
X86676899Y-77889701D02*
X88671400Y-75895200D01*
%TO.N,TRIGGER_BTN*%
X84963000Y-74396600D02*
X84963000Y-75869800D01*
%TO.N,DATA_IN*%
X73634600Y-74142600D02*
X74818368Y-75326368D01*
%TO.N,DROP_BTN*%
X83122101Y-77889701D02*
X86676899Y-77889701D01*
%TO.N,TRIGGER_BTN*%
X91262200Y-89509600D02*
X90220800Y-90551000D01*
%TO.N,REVERSE_BTN*%
X82837036Y-68744960D02*
X82837036Y-71961472D01*
%TO.N,TRIGGER_BTN*%
X84074000Y-73507600D02*
X84963000Y-74396600D01*
%TO.N,DATA_IN*%
X85160996Y-71511666D02*
X85160996Y-68420999D01*
%TO.N,TRIGGER_BTN*%
X90170000Y-90601800D02*
X90170000Y-99745800D01*
%TO.N,DROP_BTN*%
X80518000Y-75285600D02*
X83122101Y-77889701D01*
%TO.N,REVERSE_BTN*%
X84328000Y-75234800D02*
X84328000Y-75742800D01*
X83007200Y-73482200D02*
X83007200Y-73914000D01*
%TO.N,HIGH_BTN*%
X82014161Y-74139473D02*
X83413499Y-75538811D01*
%TO.N,REVERSE_BTN*%
X84328000Y-75742800D02*
X83540600Y-76530200D01*
X76377800Y-80594200D02*
X74879200Y-80594200D01*
X83007200Y-73914000D02*
X84328000Y-75234800D01*
%TO.N,HIGH_BTN*%
X82014161Y-73646490D02*
X82014161Y-74139473D01*
%TO.N,REVERSE_BTN*%
X74879200Y-80594200D02*
X74853800Y-80568800D01*
%TO.N,LOW_BTN*%
X81160996Y-68420999D02*
X80837556Y-68744439D01*
%TO.N,HIGH_BTN*%
X82160996Y-68420999D02*
X81838800Y-68743195D01*
X81838800Y-68743195D02*
X81838800Y-72059800D01*
%TO.N,LOW_BTN*%
X80837556Y-68744439D02*
X80837556Y-72726234D01*
X81356200Y-74930000D02*
X82524600Y-76098400D01*
X81356200Y-74472800D02*
X81356200Y-74930000D01*
%TO.N,HIGH_BTN*%
X92049600Y-84023200D02*
X92049600Y-87909400D01*
X90220800Y-82194400D02*
X92049600Y-84023200D01*
%TO.N,DROP_BTN*%
X80160995Y-68420999D02*
X80160995Y-72411343D01*
X79781400Y-72790938D02*
X79781400Y-73609200D01*
%TO.N,LOW_BTN*%
X75539600Y-88315800D02*
X75285600Y-88569800D01*
%TO.N,DROP_BTN*%
X80160995Y-72411343D02*
X79781400Y-72790938D01*
%TO.N,LOW_BTN*%
X75539600Y-82372200D02*
X75539600Y-88315800D01*
%TO.N,LIFT_BTN*%
X75717400Y-73812400D02*
X75717400Y-74599800D01*
X76149200Y-73380600D02*
X75717400Y-73812400D01*
X79160995Y-69620998D02*
X79171800Y-69631803D01*
X79171800Y-71907400D02*
X77698600Y-73380600D01*
X79160995Y-68420999D02*
X79160995Y-69620998D01*
X79171800Y-69631803D02*
X79171800Y-71907400D01*
X77698600Y-73380600D02*
X76149200Y-73380600D01*
%TO.N,DO_HIGH*%
X73380600Y-95961200D02*
X72618600Y-95961200D01*
X72618600Y-95961200D02*
X70993000Y-97586800D01*
%TO.N,DO_DROP*%
X73914000Y-83108800D02*
X72313800Y-83108800D01*
X72313800Y-83108800D02*
X70993000Y-84429600D01*
%TO.N,DATA_IN*%
X73634600Y-73883138D02*
X73634600Y-74142600D01*
X70705761Y-70954299D02*
X73634600Y-73883138D01*
X68658500Y-71694000D02*
X69398201Y-70954299D01*
%TO.N,LED_DATA*%
X70533500Y-72644000D02*
X70533500Y-72032100D01*
%TO.N,DATA_IN*%
X69398201Y-70954299D02*
X70705761Y-70954299D01*
%TO.N,LED_DATA*%
X70533500Y-72032100D02*
X70180200Y-71678800D01*
%TO.N,+3V3*%
X78160997Y-68420999D02*
X78160997Y-70871197D01*
X78160997Y-70871197D02*
X78181200Y-70891400D01*
D19*
%TO.N,GND*%
X74010998Y-70770999D02*
X74010998Y-68651598D01*
X74010998Y-68651598D02*
X73914000Y-68554600D01*
X89310997Y-70770999D02*
X89310997Y-70362597D01*
X89310997Y-70362597D02*
X87376000Y-68427600D01*
X87369399Y-68420999D02*
X87376000Y-68427600D01*
X86160996Y-68420999D02*
X87369399Y-68420999D01*
X86160996Y-70303004D02*
X86156800Y-70307200D01*
X86160996Y-68420999D02*
X86160996Y-70303004D01*
D18*
%TO.N,DATA_IN*%
X73634600Y-74142600D02*
X73761600Y-74142600D01*
%TO.N,+3V3*%
X67106800Y-69088000D02*
X67818000Y-68376800D01*
X67818000Y-68376800D02*
X68693800Y-68376800D01*
X68658500Y-73594000D02*
X67850494Y-73594000D01*
X67106800Y-72850306D02*
X67106800Y-69088000D01*
X67850494Y-73594000D02*
X67106800Y-72850306D01*
X68693800Y-68376800D02*
X69913000Y-69596000D01*
%TO.N,LED_DATA*%
X69926200Y-75438000D02*
X69913000Y-75438000D01*
X70533500Y-72644000D02*
X70533500Y-74830700D01*
X70533500Y-74830700D02*
X69926200Y-75438000D01*
%TO.N,DATA_IN*%
X68263000Y-69596000D02*
X68263000Y-71298500D01*
X68263000Y-71298500D02*
X68658500Y-71694000D01*
D19*
%TO.N,+5V*%
X77160996Y-68420999D02*
X76015599Y-68420999D01*
X76015599Y-68420999D02*
X75996800Y-68402200D01*
X77160996Y-68420999D02*
X77160996Y-70125196D01*
D18*
X66954400Y-75438000D02*
X66929000Y-75463400D01*
X68263000Y-75438000D02*
X66954400Y-75438000D01*
D19*
X77160996Y-70125196D02*
X77165200Y-70129400D01*
D18*
%TO.N,+3V3*%
X69913000Y-69596000D02*
X71043800Y-69596000D01*
%TD*%
M02*
