%TF.GenerationSoftware,KiCad,Pcbnew,(5.99.0-10573-gc33b2cfa8d)*%
%TF.CreationDate,2021-05-20T09:22:53+02:00*%
%TF.ProjectId,sucker-one-ui-board,7375636b-6572-42d6-9f6e-652d75692d62,rev?*%
%TF.SameCoordinates,Original*%
%TF.FileFunction,Copper,L1,Top*%
%TF.FilePolarity,Positive*%
%FSLAX46Y46*%
G04 Gerber Fmt 4.6, Leading zero omitted, Abs format (unit mm)*
G04 Created by KiCad (PCBNEW (5.99.0-10573-gc33b2cfa8d)) date 2021-05-20 09:22:53*
%MOMM*%
%LPD*%
G01*
G04 APERTURE LIST*
G04 Aperture macros list*
%AMRoundRect*
0 Rectangle with rounded corners*
0 $1 Rounding radius*
0 $2 $3 $4 $5 $6 $7 $8 $9 X,Y pos of 4 corners*
0 Add a 4 corners polygon primitive as box body*
4,1,4,$2,$3,$4,$5,$6,$7,$8,$9,$2,$3,0*
0 Add four circle primitives for the rounded corners*
1,1,$1+$1,$2,$3*
1,1,$1+$1,$4,$5*
1,1,$1+$1,$6,$7*
1,1,$1+$1,$8,$9*
0 Add four rect primitives between the rounded corners*
20,1,$1+$1,$2,$3,$4,$5,0*
20,1,$1+$1,$4,$5,$6,$7,0*
20,1,$1+$1,$6,$7,$8,$9,0*
20,1,$1+$1,$8,$9,$2,$3,0*%
G04 Aperture macros list end*
%TA.AperFunction,SMDPad,CuDef*%
%ADD10R,0.700000X0.700000*%
%TD*%
%TA.AperFunction,SMDPad,CuDef*%
%ADD11RoundRect,0.225000X-0.225000X-0.250000X0.225000X-0.250000X0.225000X0.250000X-0.225000X0.250000X0*%
%TD*%
%TA.AperFunction,SMDPad,CuDef*%
%ADD12R,1.700000X0.900000*%
%TD*%
%TA.AperFunction,ViaPad*%
%ADD13C,0.800000*%
%TD*%
%TA.AperFunction,Conductor*%
%ADD14C,0.250000*%
%TD*%
%TA.AperFunction,Conductor*%
%ADD15C,0.400000*%
%TD*%
G04 APERTURE END LIST*
D10*
%TO.P,U6,1,DO*%
%TO.N,DO_REV*%
X77555000Y-100102000D03*
%TO.P,U6,2,GND*%
%TO.N,GND*%
X78655000Y-100102000D03*
%TO.P,U6,3,DI*%
%TO.N,Net-(U3-Pad1)*%
X78655000Y-98272000D03*
%TO.P,U6,4,VDD*%
%TO.N,+5V*%
X77555000Y-98272000D03*
%TD*%
D11*
%TO.P,C4,1*%
%TO.N,+5V*%
X72859600Y-89966800D03*
%TO.P,C4,2*%
%TO.N,GND*%
X74409600Y-89966800D03*
%TD*%
D10*
%TO.P,U5,1,DO*%
%TO.N,DO_LOW*%
X77555000Y-87529000D03*
%TO.P,U5,2,GND*%
%TO.N,GND*%
X78655000Y-87529000D03*
%TO.P,U5,3,DI*%
%TO.N,Net-(U2-Pad1)*%
X78655000Y-85699000D03*
%TO.P,U5,4,VDD*%
%TO.N,+5V*%
X77555000Y-85699000D03*
%TD*%
%TO.P,U8,1,DO*%
%TO.N,Net-(U11-Pad3)*%
X85302000Y-87529000D03*
%TO.P,U8,2,GND*%
%TO.N,GND*%
X86402000Y-87529000D03*
%TO.P,U8,3,DI*%
%TO.N,DO_LOW*%
X86402000Y-85699000D03*
%TO.P,U8,4,VDD*%
%TO.N,+5V*%
X85302000Y-85699000D03*
%TD*%
%TO.P,U2,1,DO*%
%TO.N,Net-(U2-Pad1)*%
X68665000Y-87566522D03*
%TO.P,U2,2,GND*%
%TO.N,GND*%
X69765000Y-87566522D03*
%TO.P,U2,3,DI*%
%TO.N,DO_DROP*%
X69765000Y-85736522D03*
%TO.P,U2,4,VDD*%
%TO.N,+5V*%
X68665000Y-85736522D03*
%TD*%
D11*
%TO.P,C5,1*%
%TO.N,+5V*%
X89395000Y-102438200D03*
%TO.P,C5,2*%
%TO.N,GND*%
X90945000Y-102438200D03*
%TD*%
D12*
%TO.P,SW1,1,A*%
%TO.N,LIFT_BTN*%
X73660000Y-75817200D03*
%TO.P,SW1,2,B*%
%TO.N,+3V3*%
X73660000Y-72417200D03*
%TD*%
%TO.P,SW5,1,A*%
%TO.N,DROP_BTN*%
X90170000Y-75842600D03*
%TO.P,SW5,2,B*%
%TO.N,+3V3*%
X90170000Y-72442600D03*
%TD*%
D10*
%TO.P,U10,1,DO*%
%TO.N,DO_DROP*%
X94065000Y-74956000D03*
%TO.P,U10,2,GND*%
%TO.N,GND*%
X95165000Y-74956000D03*
%TO.P,U10,3,DI*%
%TO.N,Net-(U10-Pad3)*%
X95165000Y-73126000D03*
%TO.P,U10,4,VDD*%
%TO.N,+5V*%
X94065000Y-73126000D03*
%TD*%
D11*
%TO.P,C6,1*%
%TO.N,+5V*%
X72859600Y-102438200D03*
%TO.P,C6,2*%
%TO.N,GND*%
X74409600Y-102438200D03*
%TD*%
%TO.P,C2,1*%
%TO.N,+5V*%
X72859600Y-77419200D03*
%TO.P,C2,2*%
%TO.N,GND*%
X74409600Y-77419200D03*
%TD*%
D10*
%TO.P,U4,1,DO*%
%TO.N,DO_LIFT*%
X77555000Y-75045478D03*
%TO.P,U4,2,GND*%
%TO.N,GND*%
X78655000Y-75045478D03*
%TO.P,U4,3,DI*%
%TO.N,Net-(U1-Pad1)*%
X78655000Y-73215478D03*
%TO.P,U4,4,VDD*%
%TO.N,+5V*%
X77555000Y-73215478D03*
%TD*%
%TO.P,U11,1,DO*%
%TO.N,DO_HIGH*%
X94192000Y-87402000D03*
%TO.P,U11,2,GND*%
%TO.N,GND*%
X95292000Y-87402000D03*
%TO.P,U11,3,DI*%
%TO.N,Net-(U11-Pad3)*%
X95292000Y-85572000D03*
%TO.P,U11,4,VDD*%
%TO.N,+5V*%
X94192000Y-85572000D03*
%TD*%
%TO.P,U9,1,DO*%
%TO.N,Net-(U12-Pad3)*%
X85302000Y-99975000D03*
%TO.P,U9,2,GND*%
%TO.N,GND*%
X86402000Y-99975000D03*
%TO.P,U9,3,DI*%
%TO.N,DO_REV*%
X86402000Y-98145000D03*
%TO.P,U9,4,VDD*%
%TO.N,+5V*%
X85302000Y-98145000D03*
%TD*%
%TO.P,U7,1,DO*%
%TO.N,Net-(U10-Pad3)*%
X85302000Y-74956000D03*
%TO.P,U7,2,GND*%
%TO.N,GND*%
X86402000Y-74956000D03*
%TO.P,U7,3,DI*%
%TO.N,DO_LIFT*%
X86402000Y-73126000D03*
%TO.P,U7,4,VDD*%
%TO.N,+5V*%
X85302000Y-73126000D03*
%TD*%
D12*
%TO.P,SW4,1,A*%
%TO.N,TRIGGER_BTN*%
X90170000Y-100836200D03*
%TO.P,SW4,2,B*%
%TO.N,+3V3*%
X90170000Y-97436200D03*
%TD*%
%TO.P,SW3,1,A*%
%TO.N,REVERSE_BTN*%
X73685400Y-100836200D03*
%TO.P,SW3,2,B*%
%TO.N,+3V3*%
X73685400Y-97436200D03*
%TD*%
D10*
%TO.P,U3,1,DO*%
%TO.N,Net-(U3-Pad1)*%
X68665000Y-99975000D03*
%TO.P,U3,2,GND*%
%TO.N,GND*%
X69765000Y-99975000D03*
%TO.P,U3,3,DI*%
%TO.N,DO_HIGH*%
X69765000Y-98145000D03*
%TO.P,U3,4,VDD*%
%TO.N,+5V*%
X68665000Y-98145000D03*
%TD*%
D11*
%TO.P,C3,1*%
%TO.N,+5V*%
X89395000Y-77444600D03*
%TO.P,C3,2*%
%TO.N,GND*%
X90945000Y-77444600D03*
%TD*%
D10*
%TO.P,U12,1,DO*%
%TO.N,unconnected-(U12-Pad1)*%
X94065000Y-99975000D03*
%TO.P,U12,2,GND*%
%TO.N,GND*%
X95165000Y-99975000D03*
%TO.P,U12,3,DI*%
%TO.N,Net-(U12-Pad3)*%
X95165000Y-98145000D03*
%TO.P,U12,4,VDD*%
%TO.N,+5V*%
X94065000Y-98145000D03*
%TD*%
D11*
%TO.P,C1,1*%
%TO.N,+5V*%
X89420400Y-89916000D03*
%TO.P,C1,2*%
%TO.N,GND*%
X90970400Y-89916000D03*
%TD*%
D12*
%TO.P,SW2,1,A*%
%TO.N,LOW_BTN*%
X73660000Y-88339400D03*
%TO.P,SW2,2,B*%
%TO.N,+3V3*%
X73660000Y-84939400D03*
%TD*%
D10*
%TO.P,U1,1,DO*%
%TO.N,Net-(U1-Pad1)*%
X68792000Y-75083000D03*
%TO.P,U1,2,GND*%
%TO.N,GND*%
X69892000Y-75083000D03*
%TO.P,U1,3,DI*%
%TO.N,LED_DATA*%
X69892000Y-73253000D03*
%TO.P,U1,4,VDD*%
%TO.N,+5V*%
X68792000Y-73253000D03*
%TD*%
D12*
%TO.P,SW6,1,A*%
%TO.N,HIGH_BTN*%
X90170000Y-88314000D03*
%TO.P,SW6,2,B*%
%TO.N,+3V3*%
X90170000Y-84914000D03*
%TD*%
D13*
%TO.N,+3V3*%
X68884800Y-96418400D03*
%TO.N,REVERSE_BTN*%
X67564000Y-102336600D03*
%TO.N,LOW_BTN*%
X71907400Y-88620600D03*
%TO.N,DROP_BTN*%
X91948000Y-76047600D03*
%TO.N,LIFT_BTN*%
X71374000Y-76606400D03*
%TO.N,GND*%
X93141800Y-70408800D03*
%TO.N,TRIGGER_BTN*%
X89052400Y-82372200D03*
X83947000Y-71704200D03*
X84328000Y-77165200D03*
X84074000Y-73507600D03*
X90170000Y-99745800D03*
%TO.N,REVERSE_BTN*%
X83540600Y-76530200D03*
X74853800Y-80568800D03*
X76377800Y-80594200D03*
X82837036Y-71961472D03*
X83007200Y-73482200D03*
%TO.N,HIGH_BTN*%
X81838800Y-72059800D03*
X82014161Y-73646490D03*
X90220800Y-82194400D03*
X92049600Y-87909400D03*
X83413499Y-75538811D03*
%TO.N,LOW_BTN*%
X81356200Y-74472800D03*
X75539600Y-82372200D03*
X80837556Y-72726234D03*
X82524600Y-76098400D03*
X75285600Y-88569800D03*
%TO.N,DROP_BTN*%
X80518000Y-75285600D03*
X79781400Y-73609200D03*
X88671400Y-75895200D03*
%TO.N,LIFT_BTN*%
X75717400Y-74599800D03*
%TO.N,DO_HIGH*%
X73380600Y-95961200D03*
X70993000Y-97586800D03*
%TO.N,DO_DROP*%
X73914000Y-83108800D03*
X70993000Y-84429600D03*
%TO.N,LED_DATA*%
X70180200Y-71678800D03*
%TO.N,+3V3*%
X78181200Y-70891400D03*
%TO.N,GND*%
X73914000Y-68554600D03*
X87376000Y-68427600D03*
X86156800Y-70307200D03*
%TO.N,+5V*%
X71678800Y-78384400D03*
X88341200Y-78257400D03*
X88036400Y-90297000D03*
X71526400Y-90474800D03*
X71628000Y-103047800D03*
X88341200Y-101473000D03*
%TO.N,GND*%
X95935800Y-101117400D03*
%TO.N,+5V*%
X93548200Y-96926400D03*
%TO.N,GND*%
X86791800Y-101295200D03*
%TO.N,+5V*%
X84683600Y-97155000D03*
%TO.N,GND*%
X79679800Y-101727000D03*
%TO.N,+5V*%
X77063600Y-97155000D03*
%TO.N,GND*%
X70535800Y-101295200D03*
%TO.N,+5V*%
X67487800Y-97231200D03*
%TO.N,GND*%
X95961200Y-88544400D03*
%TO.N,+5V*%
X93624400Y-84404200D03*
%TO.N,GND*%
X87045800Y-88696800D03*
%TO.N,+5V*%
X84607400Y-84632800D03*
%TO.N,GND*%
X79425800Y-88569800D03*
%TO.N,+5V*%
X77089000Y-84632800D03*
%TO.N,GND*%
X70256400Y-88544400D03*
%TO.N,+5V*%
X68351400Y-84582000D03*
X93345000Y-72263000D03*
%TO.N,GND*%
X95707200Y-75946000D03*
X86842600Y-75920600D03*
%TO.N,+5V*%
X85185000Y-72563058D03*
%TO.N,GND*%
X79086158Y-75897278D03*
%TO.N,+5V*%
X77165200Y-72313800D03*
%TO.N,GND*%
X69900800Y-76530200D03*
%TO.N,+5V*%
X67906226Y-72577470D03*
%TO.N,GND*%
X74447400Y-91617800D03*
X76123800Y-89966800D03*
X90271600Y-104648000D03*
X92354400Y-101498400D03*
X92659200Y-77444600D03*
X74422000Y-104089200D03*
X74422000Y-78994000D03*
X75971400Y-77419200D03*
X76174600Y-102438200D03*
X92684600Y-89941400D03*
X90957400Y-79146400D03*
X90957400Y-91490800D03*
%TO.N,+5V*%
X75996800Y-68402200D03*
X77165200Y-70129400D03*
X66929000Y-75463400D03*
%TO.N,+3V3*%
X71043800Y-69596000D03*
%TD*%
D14*
%TO.N,+3V3*%
X67614800Y-96418400D02*
X68884800Y-96418400D01*
X68884800Y-96418400D02*
X71069200Y-96418400D01*
%TO.N,REVERSE_BTN*%
X68084700Y-101536500D02*
X68732400Y-102184200D01*
X66344800Y-99796600D02*
X68084700Y-101536500D01*
X67564000Y-102336600D02*
X68084700Y-101815900D01*
X68084700Y-101815900D02*
X68084700Y-101536500D01*
%TO.N,LOW_BTN*%
X71907400Y-88620600D02*
X73378800Y-88620600D01*
X73378800Y-88620600D02*
X73660000Y-88339400D01*
%TO.N,DROP_BTN*%
X90375000Y-76047600D02*
X90170000Y-75842600D01*
X91948000Y-76047600D02*
X90375000Y-76047600D01*
%TO.N,LIFT_BTN*%
X71374000Y-76606400D02*
X72163200Y-75817200D01*
X72163200Y-75817200D02*
X73660000Y-75817200D01*
%TO.N,Net-(U12-Pad3)*%
X85302000Y-101126200D02*
X86537800Y-102362000D01*
%TO.N,TRIGGER_BTN*%
X90170000Y-99745800D02*
X90170000Y-100836200D01*
%TO.N,Net-(U12-Pad3)*%
X86537800Y-102362000D02*
X86969600Y-102362000D01*
X87579200Y-101752400D02*
X87579200Y-100761800D01*
X89319701Y-99021299D02*
X94888701Y-99021299D01*
%TO.N,TRIGGER_BTN*%
X89052400Y-81889600D02*
X89052400Y-82372200D01*
%TO.N,Net-(U12-Pad3)*%
X94888701Y-99021299D02*
X95165000Y-98745000D01*
%TO.N,+3V3*%
X78169101Y-71538499D02*
X81237039Y-71538499D01*
%TO.N,Net-(U12-Pad3)*%
X85302000Y-99975000D02*
X85302000Y-101126200D01*
X95165000Y-98745000D02*
X95165000Y-98145000D01*
%TO.N,+3V3*%
X81237039Y-71538499D02*
X81846639Y-70928899D01*
%TO.N,Net-(U12-Pad3)*%
X86969600Y-102362000D02*
X87579200Y-101752400D01*
%TO.N,REVERSE_BTN*%
X82837036Y-73312036D02*
X82837036Y-71961472D01*
X83007200Y-73482200D02*
X82837036Y-73312036D01*
%TO.N,+5V*%
X85302000Y-72680058D02*
X85185000Y-72563058D01*
%TO.N,TRIGGER_BTN*%
X84328000Y-77165200D02*
X89052400Y-81889600D01*
%TO.N,HIGH_BTN*%
X90220800Y-82194400D02*
X90220800Y-81985738D01*
%TO.N,DO_LIFT*%
X84421761Y-74232101D02*
X84663662Y-73990200D01*
%TO.N,+3V3*%
X89770000Y-72442600D02*
X90170000Y-72442600D01*
%TO.N,HIGH_BTN*%
X83773873Y-75538811D02*
X83413499Y-75538811D01*
%TO.N,+3V3*%
X81846639Y-70928899D02*
X84320161Y-70928899D01*
X84599561Y-71208299D02*
X88535699Y-71208299D01*
%TO.N,HIGH_BTN*%
X90220800Y-81985738D02*
X83773873Y-75538811D01*
%TO.N,DO_LIFT*%
X78139014Y-76621778D02*
X80502622Y-76621778D01*
X80502622Y-76621778D02*
X82892299Y-74232101D01*
%TO.N,+3V3*%
X88535699Y-71208299D02*
X89770000Y-72442600D01*
%TO.N,TRIGGER_BTN*%
X83947000Y-71704200D02*
X83947000Y-73380600D01*
X83947000Y-73380600D02*
X84074000Y-73507600D01*
%TO.N,Net-(U12-Pad3)*%
X87579200Y-100761800D02*
X89319701Y-99021299D01*
%TO.N,+5V*%
X85302000Y-73126000D02*
X85302000Y-72680058D01*
%TO.N,DO_LIFT*%
X86137800Y-73990200D02*
X86402000Y-73726000D01*
X82892299Y-74232101D02*
X84421761Y-74232101D01*
X77555000Y-76037764D02*
X78139014Y-76621778D01*
X84663662Y-73990200D02*
X86137800Y-73990200D01*
X86402000Y-73726000D02*
X86402000Y-73126000D01*
X77555000Y-75045478D02*
X77555000Y-76037764D01*
%TO.N,+3V3*%
X84320161Y-70928899D02*
X84599561Y-71208299D01*
%TO.N,LOW_BTN*%
X77461607Y-77096689D02*
X75578301Y-78979995D01*
%TO.N,REVERSE_BTN*%
X70866000Y-102184200D02*
X72214000Y-100836200D01*
%TO.N,LOW_BTN*%
X81526311Y-77096689D02*
X77461607Y-77096689D01*
%TO.N,GND*%
X78655000Y-75045478D02*
X78655000Y-75466120D01*
%TO.N,REVERSE_BTN*%
X83540600Y-76530200D02*
X82499200Y-77571600D01*
%TO.N,LOW_BTN*%
X75578301Y-82333499D02*
X75539600Y-82372200D01*
%TO.N,REVERSE_BTN*%
X77622400Y-77571600D02*
X76377800Y-78816200D01*
%TO.N,LOW_BTN*%
X82524600Y-76098400D02*
X81526311Y-77096689D01*
%TO.N,REVERSE_BTN*%
X74853800Y-80568800D02*
X72542400Y-82880200D01*
X82499200Y-77571600D02*
X77622400Y-77571600D01*
X67538600Y-82880200D02*
X66344800Y-84074000D01*
%TO.N,LOW_BTN*%
X75578301Y-78979995D02*
X75578301Y-82333499D01*
%TO.N,REVERSE_BTN*%
X76377800Y-78816200D02*
X76377800Y-80594200D01*
%TO.N,GND*%
X78655000Y-75466120D02*
X79086158Y-75897278D01*
%TO.N,REVERSE_BTN*%
X66344800Y-84074000D02*
X66344800Y-99796600D01*
X72214000Y-100836200D02*
X73685400Y-100836200D01*
X72542400Y-82880200D02*
X67538600Y-82880200D01*
X68732400Y-102184200D02*
X70866000Y-102184200D01*
%TO.N,LOW_BTN*%
X81356200Y-74472800D02*
X80837556Y-73954156D01*
%TO.N,HIGH_BTN*%
X81838800Y-72059800D02*
X81838800Y-73471129D01*
%TO.N,LOW_BTN*%
X80837556Y-73954156D02*
X80837556Y-72726234D01*
%TO.N,HIGH_BTN*%
X81838800Y-73471129D02*
X82014161Y-73646490D01*
%TO.N,Net-(U10-Pad3)*%
X85302000Y-75802400D02*
X86436200Y-76936600D01*
X95165000Y-73726000D02*
X95165000Y-73126000D01*
X94850000Y-74041000D02*
X95165000Y-73726000D01*
X87045800Y-76936600D02*
X87946899Y-76035501D01*
X87946899Y-75070301D02*
X88976200Y-74041000D01*
X86436200Y-76936600D02*
X87045800Y-76936600D01*
X87946899Y-76035501D02*
X87946899Y-75070301D01*
X88976200Y-74041000D02*
X94850000Y-74041000D01*
X85302000Y-74956000D02*
X85302000Y-75802400D01*
%TO.N,HIGH_BTN*%
X90574600Y-87909400D02*
X90170000Y-88314000D01*
X92049600Y-87909400D02*
X90574600Y-87909400D01*
%TO.N,LOW_BTN*%
X75285600Y-88569800D02*
X73890400Y-88569800D01*
X73890400Y-88569800D02*
X73660000Y-88339400D01*
%TO.N,DROP_BTN*%
X79781400Y-73609200D02*
X79781400Y-74549000D01*
X79781400Y-74549000D02*
X80518000Y-75285600D01*
X88671400Y-75895200D02*
X90117400Y-75895200D01*
X90117400Y-75895200D02*
X90170000Y-75842600D01*
%TO.N,Net-(U1-Pad1)*%
X78569779Y-73900699D02*
X78655000Y-73815478D01*
X68792000Y-75083000D02*
X68792000Y-74483000D01*
X76065161Y-73875299D02*
X76090561Y-73900699D01*
X76090561Y-73900699D02*
X78569779Y-73900699D01*
X75369639Y-73875299D02*
X76065161Y-73875299D01*
X78655000Y-73815478D02*
X78655000Y-73215478D01*
X69157800Y-74117200D02*
X75127738Y-74117200D01*
X75127738Y-74117200D02*
X75369639Y-73875299D01*
X68792000Y-74483000D02*
X69157800Y-74117200D01*
%TO.N,LIFT_BTN*%
X74500000Y-75817200D02*
X73660000Y-75817200D01*
X75717400Y-74599800D02*
X74500000Y-75817200D01*
%TO.N,DO_REV*%
X86402000Y-98745000D02*
X86402000Y-98145000D01*
X84124800Y-99060000D02*
X86087000Y-99060000D01*
X77555000Y-100102000D02*
X77555000Y-101507200D01*
X77555000Y-101507200D02*
X78714600Y-102666800D01*
X78714600Y-102666800D02*
X80822800Y-102666800D01*
X80822800Y-102666800D02*
X83007200Y-100482400D01*
X83007200Y-100482400D02*
X83007200Y-100177600D01*
X83007200Y-100177600D02*
X84124800Y-99060000D01*
X86087000Y-99060000D02*
X86402000Y-98745000D01*
%TO.N,Net-(U3-Pad1)*%
X68665000Y-99975000D02*
X68665000Y-99375000D01*
X68665000Y-99375000D02*
X68903800Y-99136200D01*
X68903800Y-99136200D02*
X77927200Y-99136200D01*
X77927200Y-99136200D02*
X78655000Y-98408400D01*
X78655000Y-98408400D02*
X78655000Y-98272000D01*
%TO.N,DO_HIGH*%
X89027000Y-95961200D02*
X73380600Y-95961200D01*
X70323200Y-97586800D02*
X69765000Y-98145000D01*
X94192000Y-87402000D02*
X94192000Y-90796200D01*
X92100400Y-92887800D02*
X89027000Y-95961200D01*
X94192000Y-90796200D02*
X92100400Y-92887800D01*
X70993000Y-97586800D02*
X70323200Y-97586800D01*
%TO.N,Net-(U11-Pad3)*%
X95292000Y-85683000D02*
X95292000Y-85572000D01*
X85302000Y-87529000D02*
X85302000Y-88629400D01*
X87426800Y-89433400D02*
X88214200Y-88646000D01*
X85302000Y-88629400D02*
X86106000Y-89433400D01*
X88214200Y-88646000D02*
X88214200Y-87503000D01*
X86106000Y-89433400D02*
X87426800Y-89433400D01*
X94538800Y-86436200D02*
X95292000Y-85683000D01*
X88214200Y-87503000D02*
X89281000Y-86436200D01*
X89281000Y-86436200D02*
X94538800Y-86436200D01*
%TO.N,DO_LOW*%
X86402000Y-86299000D02*
X86402000Y-85699000D01*
X77555000Y-87529000D02*
X77555000Y-88197600D01*
X77555000Y-88197600D02*
X78765400Y-89408000D01*
X78765400Y-89408000D02*
X81127600Y-89408000D01*
X83896200Y-86639400D02*
X86061600Y-86639400D01*
X86061600Y-86639400D02*
X86402000Y-86299000D01*
X81127600Y-89408000D02*
X83896200Y-86639400D01*
%TO.N,Net-(U2-Pad1)*%
X78655000Y-86299000D02*
X78655000Y-85699000D01*
X68665000Y-87566522D02*
X68665000Y-87164000D01*
X68665000Y-87164000D02*
X69240400Y-86588600D01*
X78365400Y-86588600D02*
X78655000Y-86299000D01*
X69240400Y-86588600D02*
X78365400Y-86588600D01*
%TO.N,DO_DROP*%
X94065000Y-74956000D02*
X94065000Y-79620200D01*
X94065000Y-79620200D02*
X91719400Y-81965800D01*
X90576400Y-83108800D02*
X73914000Y-83108800D01*
X70993000Y-84508522D02*
X69765000Y-85736522D01*
X70993000Y-84429600D02*
X70993000Y-84508522D01*
X91719400Y-81965800D02*
X90576400Y-83108800D01*
%TO.N,LED_DATA*%
X70180200Y-71678800D02*
X69875400Y-71983600D01*
X69875400Y-73236400D02*
X69892000Y-73253000D01*
X69875400Y-71983600D02*
X69875400Y-73236400D01*
%TO.N,+3V3*%
X74938701Y-71538499D02*
X78169101Y-71538499D01*
X78181200Y-70891400D02*
X78181200Y-71526400D01*
X78181200Y-71526400D02*
X78169101Y-71538499D01*
%TO.N,+5V*%
X72644000Y-77419200D02*
X71678800Y-78384400D01*
X72859600Y-77419200D02*
X72644000Y-77419200D01*
X89154000Y-77444600D02*
X88341200Y-78257400D01*
X89395000Y-77444600D02*
X89154000Y-77444600D01*
X89420400Y-89916000D02*
X88417400Y-89916000D01*
X88417400Y-89916000D02*
X88036400Y-90297000D01*
X72859600Y-89966800D02*
X72034400Y-89966800D01*
X72034400Y-89966800D02*
X71526400Y-90474800D01*
X72237600Y-102438200D02*
X71628000Y-103047800D01*
X72859600Y-102438200D02*
X72237600Y-102438200D01*
X89395000Y-102438200D02*
X89306400Y-102438200D01*
X89306400Y-102438200D02*
X88341200Y-101473000D01*
%TO.N,GND*%
X95165000Y-100346600D02*
X95935800Y-101117400D01*
X95165000Y-99975000D02*
X95165000Y-100346600D01*
%TO.N,+5V*%
X94065000Y-97443200D02*
X93548200Y-96926400D01*
X94065000Y-98145000D02*
X94065000Y-97443200D01*
%TO.N,GND*%
X86402000Y-100905400D02*
X86791800Y-101295200D01*
X86402000Y-99975000D02*
X86402000Y-100905400D01*
%TO.N,+5V*%
X85302000Y-97773400D02*
X84683600Y-97155000D01*
X85302000Y-98145000D02*
X85302000Y-97773400D01*
%TO.N,GND*%
X79679800Y-100507800D02*
X79679800Y-101727000D01*
X79274000Y-100102000D02*
X79679800Y-100507800D01*
X78655000Y-100102000D02*
X79274000Y-100102000D01*
%TO.N,+5V*%
X77555000Y-98272000D02*
X77555000Y-97646400D01*
%TO.N,+3V3*%
X73685400Y-97436200D02*
X74691101Y-96430499D01*
X74691101Y-96430499D02*
X88764299Y-96430499D01*
X88764299Y-96430499D02*
X89770000Y-97436200D01*
%TO.N,+5V*%
X77555000Y-97646400D02*
X77063600Y-97155000D01*
%TO.N,+3V3*%
X89770000Y-97436200D02*
X90170000Y-97436200D01*
%TO.N,GND*%
X69765000Y-100524400D02*
X70535800Y-101295200D01*
X69765000Y-99975000D02*
X69765000Y-100524400D01*
%TO.N,+5V*%
X68665000Y-98145000D02*
X68401600Y-98145000D01*
X68401600Y-98145000D02*
X67487800Y-97231200D01*
%TO.N,GND*%
X95292000Y-87875200D02*
X95961200Y-88544400D01*
X95292000Y-87402000D02*
X95292000Y-87875200D01*
%TO.N,+5V*%
X94192000Y-84971800D02*
X93624400Y-84404200D01*
X94192000Y-85572000D02*
X94192000Y-84971800D01*
%TO.N,GND*%
X86402000Y-88053000D02*
X87045800Y-88696800D01*
X86402000Y-87529000D02*
X86402000Y-88053000D01*
%TO.N,+5V*%
X85302000Y-85327400D02*
X84607400Y-84632800D01*
X85302000Y-85699000D02*
X85302000Y-85327400D01*
%TO.N,GND*%
X78655000Y-87799000D02*
X79425800Y-88569800D01*
X78655000Y-87529000D02*
X78655000Y-87799000D01*
%TO.N,+5V*%
X77555000Y-85098800D02*
X77089000Y-84632800D01*
X77555000Y-85699000D02*
X77555000Y-85098800D01*
%TO.N,GND*%
X69765000Y-87566522D02*
X69765000Y-88053000D01*
X69765000Y-88053000D02*
X70256400Y-88544400D01*
%TO.N,+5V*%
X68665000Y-85736522D02*
X68665000Y-84895600D01*
X68665000Y-84895600D02*
X68351400Y-84582000D01*
%TO.N,+3V3*%
X93692761Y-71538499D02*
X93782262Y-71628000D01*
X96113600Y-71628000D02*
X97002600Y-72517000D01*
%TO.N,+5V*%
X94065000Y-73126000D02*
X94065000Y-72983000D01*
%TO.N,+3V3*%
X91074101Y-71538499D02*
X93692761Y-71538499D01*
%TO.N,+5V*%
X94065000Y-72983000D02*
X93345000Y-72263000D01*
%TO.N,+3V3*%
X90170000Y-72442600D02*
X91074101Y-71538499D01*
X97002600Y-72517000D02*
X97002600Y-78081400D01*
X93782262Y-71628000D02*
X96113600Y-71628000D01*
X97002600Y-78081400D02*
X90170000Y-84914000D01*
%TO.N,GND*%
X95165000Y-75403800D02*
X95707200Y-75946000D01*
X95165000Y-74956000D02*
X95165000Y-75403800D01*
X86402000Y-75480000D02*
X86842600Y-75920600D01*
X86402000Y-74956000D02*
X86402000Y-75480000D01*
%TO.N,+3V3*%
X74060000Y-72417200D02*
X74938701Y-71538499D01*
X73660000Y-72417200D02*
X74060000Y-72417200D01*
%TO.N,+5V*%
X77555000Y-72703600D02*
X77165200Y-72313800D01*
X77555000Y-73215478D02*
X77555000Y-72703600D01*
%TO.N,GND*%
X69892000Y-75083000D02*
X69892000Y-76521400D01*
X69892000Y-76521400D02*
X69900800Y-76530200D01*
%TO.N,+5V*%
X68792000Y-73253000D02*
X68581756Y-73253000D01*
X68581756Y-73253000D02*
X67906226Y-72577470D01*
%TO.N,+3V3*%
X72087000Y-97436200D02*
X73685400Y-97436200D01*
X72542400Y-83616800D02*
X67818000Y-83616800D01*
X73660000Y-84939400D02*
X73660000Y-84734400D01*
X73660000Y-84734400D02*
X72542400Y-83616800D01*
X67818000Y-83616800D02*
X66878200Y-84556600D01*
X66878200Y-84556600D02*
X66878200Y-95681800D01*
X66878200Y-95681800D02*
X67614800Y-96418400D01*
X71069200Y-96418400D02*
X72087000Y-97436200D01*
X75008000Y-83591400D02*
X73660000Y-84939400D01*
X90170000Y-84914000D02*
X89613000Y-84914000D01*
X89613000Y-84914000D02*
X88290400Y-83591400D01*
X88290400Y-83591400D02*
X75008000Y-83591400D01*
X73660000Y-71297800D02*
X73660000Y-72417200D01*
X71043800Y-69596000D02*
X71958200Y-69596000D01*
X71958200Y-69596000D02*
X73660000Y-71297800D01*
D15*
%TO.N,GND*%
X74409600Y-104076800D02*
X74422000Y-104089200D01*
X90945000Y-102438200D02*
X90945000Y-103974600D01*
X74409600Y-89966800D02*
X74409600Y-91580000D01*
X90945000Y-77444600D02*
X90945000Y-79134000D01*
X90945000Y-77444600D02*
X92659200Y-77444600D01*
X92659200Y-89916000D02*
X92684600Y-89941400D01*
X91414600Y-102438200D02*
X92354400Y-101498400D01*
X74409600Y-77419200D02*
X75971400Y-77419200D01*
X74409600Y-91580000D02*
X74447400Y-91617800D01*
X90970400Y-89916000D02*
X92659200Y-89916000D01*
X90970400Y-91477800D02*
X90957400Y-91490800D01*
X74409600Y-89966800D02*
X76123800Y-89966800D01*
X74409600Y-78981600D02*
X74422000Y-78994000D01*
X90945000Y-103974600D02*
X90271600Y-104648000D01*
X90970400Y-89916000D02*
X90970400Y-91477800D01*
X90945000Y-79134000D02*
X90957400Y-79146400D01*
X74409600Y-102438200D02*
X74409600Y-104076800D01*
X90945000Y-102438200D02*
X91414600Y-102438200D01*
X74409600Y-77419200D02*
X74409600Y-78981600D01*
X74409600Y-102438200D02*
X76174600Y-102438200D01*
%TD*%
M02*
