%TF.GenerationSoftware,KiCad,Pcbnew,(5.99.0-9379-gbf5cd2e233)*%
%TF.CreationDate,2021-03-11T01:06:43+01:00*%
%TF.ProjectId,sucker-one-ui-board,7375636b-6572-42d6-9f6e-652d75692d62,rev?*%
%TF.SameCoordinates,Original*%
%TF.FileFunction,Legend,Top*%
%TF.FilePolarity,Positive*%
%FSLAX46Y46*%
G04 Gerber Fmt 4.6, Leading zero omitted, Abs format (unit mm)*
G04 Created by KiCad (PCBNEW (5.99.0-9379-gbf5cd2e233)) date 2021-03-11 01:06:43*
%MOMM*%
%LPD*%
G01*
G04 APERTURE LIST*
%ADD10C,0.127000*%
%ADD11C,0.200000*%
%ADD12C,0.120000*%
G04 APERTURE END LIST*
D10*
%TO.C,U6*%
X77105000Y-99487000D02*
X77105000Y-98887000D01*
X79105000Y-99487000D02*
X79105000Y-98887000D01*
D11*
X77577956Y-100957000D02*
G75*
G03*
X77577956Y-100957000I-102956J0D01*
G01*
D10*
%TO.C,U5*%
X79105000Y-86914000D02*
X79105000Y-86314000D01*
X77105000Y-86914000D02*
X77105000Y-86314000D01*
D11*
X77577956Y-88384000D02*
G75*
G03*
X77577956Y-88384000I-102956J0D01*
G01*
D10*
%TO.C,U8*%
X86852000Y-86914000D02*
X86852000Y-86314000D01*
X84852000Y-86914000D02*
X84852000Y-86314000D01*
D11*
X85324956Y-88384000D02*
G75*
G03*
X85324956Y-88384000I-102956J0D01*
G01*
D10*
%TO.C,U2*%
X70215000Y-86951522D02*
X70215000Y-86351522D01*
X68215000Y-86951522D02*
X68215000Y-86351522D01*
D11*
X68687956Y-88421522D02*
G75*
G03*
X68687956Y-88421522I-102956J0D01*
G01*
D12*
%TO.C,SW1*%
X75060000Y-72467200D02*
X74760000Y-72467200D01*
X72260000Y-72467200D02*
X72560000Y-72467200D01*
X75060000Y-75767200D02*
X75060000Y-72467200D01*
X72560000Y-75767200D02*
X72260000Y-75767200D01*
X74760000Y-75767200D02*
X75060000Y-75767200D01*
X72260000Y-75767200D02*
X72260000Y-72467200D01*
%TO.C,SW5*%
X91570000Y-72492600D02*
X91270000Y-72492600D01*
X88770000Y-75792600D02*
X88770000Y-72492600D01*
X91270000Y-75792600D02*
X91570000Y-75792600D01*
X88770000Y-72492600D02*
X89070000Y-72492600D01*
X91570000Y-75792600D02*
X91570000Y-72492600D01*
X89070000Y-75792600D02*
X88770000Y-75792600D01*
D10*
%TO.C,U10*%
X93615000Y-74341000D02*
X93615000Y-73741000D01*
X95615000Y-74341000D02*
X95615000Y-73741000D01*
D11*
X94087956Y-75811000D02*
G75*
G03*
X94087956Y-75811000I-102956J0D01*
G01*
D10*
%TO.C,U4*%
X79105000Y-74430478D02*
X79105000Y-73830478D01*
X77105000Y-74430478D02*
X77105000Y-73830478D01*
D11*
X77577956Y-75900478D02*
G75*
G03*
X77577956Y-75900478I-102956J0D01*
G01*
D10*
%TO.C,U11*%
X93742000Y-86787000D02*
X93742000Y-86187000D01*
X95742000Y-86787000D02*
X95742000Y-86187000D01*
D11*
X94214956Y-88257000D02*
G75*
G03*
X94214956Y-88257000I-102956J0D01*
G01*
D10*
%TO.C,U9*%
X86852000Y-99360000D02*
X86852000Y-98760000D01*
X84852000Y-99360000D02*
X84852000Y-98760000D01*
D11*
X85324956Y-100830000D02*
G75*
G03*
X85324956Y-100830000I-102956J0D01*
G01*
D10*
%TO.C,U7*%
X86852000Y-74341000D02*
X86852000Y-73741000D01*
X84852000Y-74341000D02*
X84852000Y-73741000D01*
D11*
X85324956Y-75811000D02*
G75*
G03*
X85324956Y-75811000I-102956J0D01*
G01*
D12*
%TO.C,SW4*%
X88770000Y-97486200D02*
X89070000Y-97486200D01*
X91270000Y-100786200D02*
X91570000Y-100786200D01*
X89070000Y-100786200D02*
X88770000Y-100786200D01*
X91570000Y-100786200D02*
X91570000Y-97486200D01*
X88770000Y-100786200D02*
X88770000Y-97486200D01*
X91570000Y-97486200D02*
X91270000Y-97486200D01*
%TO.C,SW3*%
X72285400Y-97486200D02*
X72585400Y-97486200D01*
X75085400Y-100786200D02*
X75085400Y-97486200D01*
X75085400Y-97486200D02*
X74785400Y-97486200D01*
X72285400Y-100786200D02*
X72285400Y-97486200D01*
X74785400Y-100786200D02*
X75085400Y-100786200D01*
X72585400Y-100786200D02*
X72285400Y-100786200D01*
D10*
%TO.C,U3*%
X70215000Y-99360000D02*
X70215000Y-98760000D01*
X68215000Y-99360000D02*
X68215000Y-98760000D01*
D11*
X68687956Y-100830000D02*
G75*
G03*
X68687956Y-100830000I-102956J0D01*
G01*
D10*
%TO.C,U12*%
X95615000Y-99360000D02*
X95615000Y-98760000D01*
X93615000Y-99360000D02*
X93615000Y-98760000D01*
D11*
X94087956Y-100830000D02*
G75*
G03*
X94087956Y-100830000I-102956J0D01*
G01*
D12*
%TO.C,SW2*%
X72560000Y-88289400D02*
X72260000Y-88289400D01*
X72260000Y-84989400D02*
X72560000Y-84989400D01*
X74760000Y-88289400D02*
X75060000Y-88289400D01*
X75060000Y-84989400D02*
X74760000Y-84989400D01*
X72260000Y-88289400D02*
X72260000Y-84989400D01*
X75060000Y-88289400D02*
X75060000Y-84989400D01*
D10*
%TO.C,U1*%
X68342000Y-74468000D02*
X68342000Y-73868000D01*
X70342000Y-74468000D02*
X70342000Y-73868000D01*
D11*
X68814956Y-75938000D02*
G75*
G03*
X68814956Y-75938000I-102956J0D01*
G01*
D12*
%TO.C,SW6*%
X91570000Y-84964000D02*
X91270000Y-84964000D01*
X91270000Y-88264000D02*
X91570000Y-88264000D01*
X91570000Y-88264000D02*
X91570000Y-84964000D01*
X89070000Y-88264000D02*
X88770000Y-88264000D01*
X88770000Y-88264000D02*
X88770000Y-84964000D01*
X88770000Y-84964000D02*
X89070000Y-84964000D01*
%TD*%
M02*
