0
SECTION
2
HEADER
9
$INSUNITS
70
4
9
$ACADVER
1
AC1014
9
$HANDSEED
5
FFFF
0
ENDSEC
0
SECTION
2
TABLES
0
TABLE
2
VPORT
5
8
100
AcDbSymbolTable
0
ENDTAB
0
TABLE
2
LTYPE
5
5
100
AcDbSymbolTable
0
LTYPE
5
14
100
AcDbSymbolTableRecord
100
AcDbLinetypeTableRecord
2
BYBLOCK
70
0
0
LTYPE
5
15
100
AcDbSymbolTableRecord
100
AcDbLinetypeTableRecord
2
BYLAYER
70
0
0
ENDTAB
0
TABLE
2
LAYER
5
2
100
AcDbSymbolTable
70
2
0
LAYER
5
50
100
AcDbSymbolTableRecord
100
AcDbLayerTableRecord
2
0
70
0
6
CONTINUOUS
0
ENDTAB
0
TABLE
2
STYLE
5
3
100
AcDbSymbolTable
70
1
0
STYLE
5
11
100
AcDbSymbolTableRecord
100
AcDbTextStyleTableRecord
2
STANDARD
70
0
0
ENDTAB
0
TABLE
2
VIEW
5
6
100
AcDbSymbolTable
70
0
0
ENDTAB
0
TABLE
2
UCS
5
7
100
AcDbSymbolTable
70
0
0
ENDTAB
0
TABLE
2
APPID
5
9
100
AcDbSymbolTable
70
2
0
APPID
5
12
100
AcDbSymbolTableRecord
100
AcDbRegAppTableRecord
2
ACAD
70
0
0
ENDTAB
0
TABLE
2
DIMSTYLE
5
A
100
AcDbSymbolTable
70
1
0
ENDTAB
0
TABLE
2
BLOCK_RECORD
5
1
100
AcDbSymbolTable
70
1
0
BLOCK_RECORD
5
1F
100
AcDbSymbolTableRecord
100
AcDbBlockTableRecord
2
*MODEL_SPACE
0
BLOCK_RECORD
5
1B
100
AcDbSymbolTableRecord
100
AcDbBlockTableRecord
2
*PAPER_SPACE
0
ENDTAB
0
ENDSEC
0
SECTION
2
BLOCKS
0
BLOCK
5
20
100
AcDbEntity
100
AcDbBlockBegin
2
*MODEL_SPACE
0
ENDBLK
5
21
100
AcDbEntity
100
AcDbBlockEnd
0
BLOCK
5
1C
100
AcDbEntity
100
AcDbBlockBegin
2
*PAPER_SPACE
0
ENDBLK
5
1D
100
AcDbEntity
100
AcDbBlockEnd
0
ENDSEC
0
SECTION
2
ENTITIES
0
CIRCLE
5
100
100
AcDbEntity
8
0
100
AcDbCircle
10
-26.325000000516042
20
0.86456355743306901
30
0
40
1
210
-1.2134240273915918e-31
220
-5.5511151231257815e-17
230
1
0
CIRCLE
5
101
100
AcDbEntity
8
0
100
AcDbCircle
10
-9.8250000005160416
20
0.86456355743314894
30
-8.8817841970012523e-15
40
1
210
-1.2134240273915918e-31
220
-5.5511151231257815e-17
230
1
0
CIRCLE
5
102
100
AcDbEntity
8
0
100
AcDbCircle
10
-9.8250000005161038
20
13.364563557433149
30
0
40
1
210
-1.2134240273915918e-31
220
-5.5511151231257815e-17
230
1
0
CIRCLE
5
103
100
AcDbEntity
8
0
100
AcDbCircle
10
-26.325000000516106
20
13.364563557433067
30
0
40
1
210
-1.2134240273915918e-31
220
-5.5511151231257815e-17
230
1
0
CIRCLE
5
104
100
AcDbEntity
8
0
100
AcDbCircle
10
-26.325000000516162
20
25.86456355743308
30
0
40
1
210
-1.2134240273915918e-31
220
-5.5511151231257815e-17
230
1
0
CIRCLE
5
105
100
AcDbEntity
8
0
100
AcDbCircle
10
-9.825000000516166
20
25.864563557433158
30
8.8817841970012523e-15
40
1
210
-1.2134240273915918e-31
220
-5.5511151231257815e-17
230
1
0
LWPOLYLINE
5
106
100
AcDbEntity
8
0
100
AcDbPolyline
90
8
70
1
43
0.0
10
-21.575000000516212
20
31.164563557433048
10
-31.075000000516198
20
31.16456355743302
42
0.41421356237309509
10
-33.375000000516195
20
28.864563557432991
10
-33.37500000051616
20
22.864563557433009
42
0.41421356237309781
10
-31.075000000516152
20
20.564563557433022
10
-21.575000000516148
20
20.564563557433075
42
0.41421356237309509
10
-19.275000000516162
20
22.864563557433076
10
-19.275000000516208
20
28.864563557433058
42
0.41421356237309509
0
LWPOLYLINE
5
107
100
AcDbEntity
8
0
100
AcDbPolyline
90
8
70
1
43
0.0
10
-16.875000000516195
20
28.864563557433076
10
-16.87500000051616
20
22.864563557433087
42
0.41421356237309392
10
-14.575000000516148
20
20.564563557433104
10
-5.0750000005161491
20
20.564563557433161
42
0.41421356237309492
10
-2.7750000005161635
20
22.864563557433158
10
-2.7750000005162025
20
28.864563557433147
42
0.41421356237309698
10
-5.0750000005162086
20
31.164563557433134
10
-14.575000000516207
20
31.164563557433098
42
0.41421356237309509
0
LWPOLYLINE
5
108
100
AcDbEntity
8
0
100
AcDbPolyline
90
8
70
1
43
0.0
10
-21.575000000516155
20
18.664563557433031
42
-0.41421356237309509
10
-19.275000000516144
20
16.364563557433051
10
-19.275000000516105
20
10.364563557433051
42
-0.41421356237309359
10
-21.575000000516088
20
8.0645635574330541
10
-31.075000000516088
20
8.0645635574330186
42
-0.41421356237309509
10
-33.375000000516103
20
10.364563557432994
10
-33.375000000516131
20
16.364563557432991
42
-0.41421356237309565
10
-31.075000000516138
20
18.664563557433006
0
LWPOLYLINE
5
109
100
AcDbEntity
8
0
100
AcDbPolyline
90
8
70
1
43
0.0
10
-16.875000000516131
20
16.36456355743308
42
-0.41421356237309276
10
-14.575000000516132
20
18.664563557433077
10
-5.0750000005161455
20
18.664563557433119
42
-0.41421356237309509
10
-2.7750000005161435
20
16.364563557433129
10
-2.7750000005161004
20
10.36456355743314
42
-0.41421356237309392
10
-5.075000000516086
20
8.0645635574331358
10
-14.575000000516084
20
8.0645635574330861
42
-0.41421356237309392
10
-16.875000000516099
20
10.364563557433076
0
LWPOLYLINE
5
110
100
AcDbEntity
8
0
100
AcDbPolyline
90
8
70
1
43
0.0
10
-5.0750000005160834
20
6.1645635574331248
10
-14.575000000516079
20
6.1645635574330848
42
0.4142135623730942
10
-16.875000000516067
20
3.8645635574330637
10
-16.875000000516035
20
-2.1354364425669319
42
0.41421356237309342
10
-14.575000000516024
20
-4.4354364425669122
10
-5.0750000005160238
20
-4.435436442566858
42
0.41421356237309243
10
-2.7750000005160396
20
-2.1354364425668608
10
-2.7750000005160791
20
3.8645635574331223
42
0.41421356237309709
0
LWPOLYLINE
5
111
100
AcDbEntity
8
0
100
AcDbPolyline
90
8
70
1
43
0.0
10
-21.575000000516091
20
6.1645635574330431
42
-0.41421356237309731
10
-19.275000000516084
20
3.8645635574330424
10
-19.275000000516044
20
-2.1354364425669452
42
-0.41421356237309409
10
-21.575000000516024
20
-4.4354364425669379
10
-31.075000000516027
20
-4.4354364425669823
42
-0.41421356237309337
10
-33.375000000516039
20
-2.1354364425670092
10
-33.375000000516081
20
3.8645635574329864
42
-0.41421356237309404
10
-31.075000000516081
20
6.1645635574330049
0
LINE
5
112
100
AcDbEntity
8
0
100
AcDbLine
10
-31.075000000516187
20
28.864563557433005
30
0
11
-21.575000000516159
21
22.864563557433065
31
2.0253141867194622e-45
0
LINE
5
113
100
AcDbEntity
8
0
100
AcDbLine
10
-21.575000000516201
20
28.864563557433051
30
1.642146637880645e-45
11
-31.075000000516173
21
22.864563557433009
31
-1.3575078873146665e-44
0
ENDSEC
0
SECTION
2
OBJECTS
0
DICTIONARY
5
C
100
AcDbDictionary
3
ACAD_GROUP
350
D
3
ACAD_MLINESTYLE
350
17
0
DICTIONARY
5
D
100
AcDbDictionary
0
DICTIONARY
5
1A
330
C
100
AcDbDictionary
0
DICTIONARY
5
17
100
AcDbDictionary
0
ENDSEC
0
EOF
