0
SECTION
2
HEADER
9
$INSUNITS
70
4
9
$ACADVER
1
AC1014
9
$HANDSEED
5
FFFF
0
ENDSEC
0
SECTION
2
TABLES
0
TABLE
2
VPORT
5
8
100
AcDbSymbolTable
0
ENDTAB
0
TABLE
2
LTYPE
5
5
100
AcDbSymbolTable
0
LTYPE
5
14
100
AcDbSymbolTableRecord
100
AcDbLinetypeTableRecord
2
BYBLOCK
70
0
0
LTYPE
5
15
100
AcDbSymbolTableRecord
100
AcDbLinetypeTableRecord
2
BYLAYER
70
0
0
ENDTAB
0
TABLE
2
LAYER
5
2
100
AcDbSymbolTable
70
2
0
LAYER
5
50
100
AcDbSymbolTableRecord
100
AcDbLayerTableRecord
2
0
70
0
6
CONTINUOUS
0
ENDTAB
0
TABLE
2
STYLE
5
3
100
AcDbSymbolTable
70
1
0
STYLE
5
11
100
AcDbSymbolTableRecord
100
AcDbTextStyleTableRecord
2
STANDARD
70
0
0
ENDTAB
0
TABLE
2
VIEW
5
6
100
AcDbSymbolTable
70
0
0
ENDTAB
0
TABLE
2
UCS
5
7
100
AcDbSymbolTable
70
0
0
ENDTAB
0
TABLE
2
APPID
5
9
100
AcDbSymbolTable
70
2
0
APPID
5
12
100
AcDbSymbolTableRecord
100
AcDbRegAppTableRecord
2
ACAD
70
0
0
ENDTAB
0
TABLE
2
DIMSTYLE
5
A
100
AcDbSymbolTable
70
1
0
ENDTAB
0
TABLE
2
BLOCK_RECORD
5
1
100
AcDbSymbolTable
70
1
0
BLOCK_RECORD
5
1F
100
AcDbSymbolTableRecord
100
AcDbBlockTableRecord
2
*MODEL_SPACE
0
BLOCK_RECORD
5
1B
100
AcDbSymbolTableRecord
100
AcDbBlockTableRecord
2
*PAPER_SPACE
0
ENDTAB
0
ENDSEC
0
SECTION
2
BLOCKS
0
BLOCK
5
20
100
AcDbEntity
100
AcDbBlockBegin
2
*MODEL_SPACE
0
ENDBLK
5
21
100
AcDbEntity
100
AcDbBlockEnd
0
BLOCK
5
1C
100
AcDbEntity
100
AcDbBlockBegin
2
*PAPER_SPACE
0
ENDBLK
5
1D
100
AcDbEntity
100
AcDbBlockEnd
0
ENDSEC
0
SECTION
2
ENTITIES
0
LWPOLYLINE
5
100
100
AcDbEntity
8
0
100
AcDbPolyline
90
8
70
1
43
0.0
10
-15.57500000051612
20
22.864563557433119
42
0.41421356237309309
10
-14.575000000516114
20
21.864563557433129
10
-5.0750000005161215
20
21.864563557433176
42
0.41421356237309309
10
-4.0750000005161269
20
22.864563557433168
10
-4.0750000005161615
20
28.864563557433165
42
0.41421356237308887
10
-5.0750000005161624
20
29.864563557433151
10
-14.575000000516154
20
29.864563557433112
42
0.41421356237309509
10
-15.575000000516155
20
28.864563557433112
0
LWPOLYLINE
5
101
100
AcDbEntity
8
0
100
AcDbPolyline
90
8
70
1
43
0.0
10
-32.075000000516091
20
22.864563557433048
42
0.41421356237308982
10
-31.075000000516084
20
21.864563557433051
10
-21.57500000051612
20
21.864563557433087
42
0.4142135623730937
10
-20.57500000051612
20
22.864563557433087
10
-20.575000000516152
20
28.864563557433087
42
0.41421356237309637
10
-21.575000000516159
20
29.864563557433076
10
-31.07500000051612
20
29.864563557433033
42
0.4142135623730937
10
-32.07500000051612
20
28.86456355743303
0
LWPOLYLINE
5
102
100
AcDbEntity
8
0
100
AcDbPolyline
90
8
70
1
43
0.0
10
-32.075000000516027
20
10.364563557433044
42
0.41421356237309176
10
-31.07500000051602
20
9.3645635574330495
10
-21.575000000516049
20
9.3645635574330814
42
0.41421356237309243
10
-20.575000000516045
20
10.364563557433089
10
-20.575000000516091
20
16.364563557433087
42
0.41421356237309892
10
-21.575000000516091
20
17.364563557433097
10
-31.075000000516063
20
17.364563557433044
42
0.4142135623730937
10
-32.075000000516056
20
16.364563557433044
0
LWPOLYLINE
5
103
100
AcDbEntity
8
0
100
AcDbPolyline
90
8
70
1
43
0.0
10
-15.575000000516056
20
10.364563557433115
42
0.41421356237309637
10
-14.575000000516052
20
9.3645635574331205
10
-5.0750000005160505
20
9.3645635574331525
42
0.41421356237309309
10
-4.0750000005160549
20
10.364563557433158
10
-4.0750000005160905
20
16.364563557433168
42
0.4142135623730967
10
-5.0750000005160949
20
17.364563557433168
10
-14.575000000516091
20
17.364563557433122
42
0.41421356237309437
10
-15.575000000516081
20
16.364563557433115
0
LWPOLYLINE
5
104
100
AcDbEntity
8
0
100
AcDbPolyline
90
8
70
1
43
0.0
10
-4.0750000005160238
20
3.8645635574331831
42
0.4142135623730942
10
-5.0750000005160256
20
4.8645635574331774
10
-14.575000000516031
20
4.8645635574331338
42
0.41421356237309587
10
-15.57500000051602
20
3.8645635574331267
10
-15.575000000515999
20
-2.1354364425668573
42
0.41421356237309176
10
-14.575000000515995
20
-3.1354364425668493
10
-5.0750000005159812
20
-3.1354364425668111
42
0.41421356237309503
10
-4.0750000005159874
20
-2.1354364425668018
0
LWPOLYLINE
5
105
100
AcDbEntity
8
0
100
AcDbPolyline
90
8
70
1
43
0.0
10
-20.57500000051601
20
3.8645635574330988
42
0.41421356237309914
10
-21.575000000516017
20
4.8645635574330912
10
-31.075000000515999
20
4.8645635574330512
42
0.41421356237309881
10
-32.075000000515985
20
3.8645635574330477
10
-32.075000000515963
20
-2.1354364425669492
42
0.41421356237309209
10
-31.07500000051596
20
-3.1354364425669354
10
-21.575000000515978
20
-3.1354364425668937
42
0.41421356237309137
10
-20.575000000515978
20
-2.1354364425668946
0
LINE
5
106
100
AcDbEntity
8
0
100
AcDbLine
10
-31.075000000516081
20
22.864563557433062
30
-8.8817841970012523e-15
11
-21.575000000516148
21
28.86456355743308
31
-5.7007526353862181e-31
0
LINE
5
107
100
AcDbEntity
8
0
100
AcDbLine
10
-21.575000000516123
20
22.864563557433087
30
-1.5407439555097887e-31
11
-31.075000000516116
21
28.86456355743303
31
-1.0126570933597311e-45
0
ENDSEC
0
SECTION
2
OBJECTS
0
DICTIONARY
5
C
100
AcDbDictionary
3
ACAD_GROUP
350
D
3
ACAD_MLINESTYLE
350
17
0
DICTIONARY
5
D
100
AcDbDictionary
0
DICTIONARY
5
1A
330
C
100
AcDbDictionary
0
DICTIONARY
5
17
100
AcDbDictionary
0
ENDSEC
0
EOF
