G04 #@! TF.GenerationSoftware,KiCad,Pcbnew,6.0.0-d3dd2cf0fa~116~ubuntu20.04.1*
G04 #@! TF.CreationDate,2023-02-13T12:44:03+00:00*
G04 #@! TF.ProjectId,pixel-pump-ui-board-panel,70697865-6c2d-4707-956d-702d75692d62,rev?*
G04 #@! TF.SameCoordinates,Original*
G04 #@! TF.FileFunction,Soldermask,Bot*
G04 #@! TF.FilePolarity,Negative*
%FSLAX46Y46*%
G04 Gerber Fmt 4.6, Leading zero omitted, Abs format (unit mm)*
G04 Created by KiCad (PCBNEW 6.0.0-d3dd2cf0fa~116~ubuntu20.04.1) date 2023-02-13 12:44:03*
%MOMM*%
%LPD*%
G01*
G04 APERTURE LIST*
%ADD10C,0.500000*%
%ADD11C,3.000000*%
%ADD12C,1.500000*%
%ADD13C,1.000000*%
G04 APERTURE END LIST*
D10*
G04 #@! TO.C,REF\u002A\u002A*
X11200001Y-84089551D03*
G04 #@! TD*
G04 #@! TO.C,REF\u002A\u002A*
X94599999Y-108364550D03*
G04 #@! TD*
G04 #@! TO.C,REF\u002A\u002A*
X58600000Y-23064556D03*
G04 #@! TD*
D11*
G04 #@! TO.C,REF\u002A\u002A*
X4000000Y-7000000D03*
G04 #@! TD*
D10*
G04 #@! TO.C,REF\u002A\u002A*
X141999999Y-25964555D03*
G04 #@! TD*
G04 #@! TO.C,REF\u002A\u002A*
X141999999Y-50239554D03*
G04 #@! TD*
G04 #@! TO.C,REF\u002A\u002A*
X94599999Y-49514554D03*
G04 #@! TD*
G04 #@! TO.C,REF\u002A\u002A*
X58600000Y-108364551D03*
G04 #@! TD*
G04 #@! TO.C,REF\u002A\u002A*
X11200001Y-23789556D03*
G04 #@! TD*
D11*
G04 #@! TO.C,REF\u002A\u002A*
X4000000Y-124599990D03*
G04 #@! TD*
D10*
G04 #@! TO.C,REF\u002A\u002A*
X47199999Y-25239555D03*
G04 #@! TD*
G04 #@! TO.C,REF\u002A\u002A*
X106000000Y-50964555D03*
G04 #@! TD*
G04 #@! TO.C,REF\u002A\u002A*
X141999999Y-108364550D03*
G04 #@! TD*
G04 #@! TO.C,REF\u002A\u002A*
X47199999Y-50239554D03*
G04 #@! TD*
G04 #@! TO.C,REF\u002A\u002A*
X11200001Y-108364551D03*
G04 #@! TD*
G04 #@! TO.C,REF\u002A\u002A*
X58600000Y-24514556D03*
G04 #@! TD*
G04 #@! TO.C,REF\u002A\u002A*
X11200001Y-111264551D03*
G04 #@! TD*
G04 #@! TO.C,REF\u002A\u002A*
X94599999Y-109814550D03*
G04 #@! TD*
G04 #@! TO.C,REF\u002A\u002A*
X141999999Y-84814550D03*
G04 #@! TD*
G04 #@! TO.C,REF\u002A\u002A*
X141999999Y-48064554D03*
G04 #@! TD*
G04 #@! TO.C,REF\u002A\u002A*
X11200001Y-48789555D03*
G04 #@! TD*
G04 #@! TO.C,REF\u002A\u002A*
X58600000Y-25964556D03*
G04 #@! TD*
G04 #@! TO.C,REF\u002A\u002A*
X106000000Y-23789556D03*
G04 #@! TD*
G04 #@! TO.C,REF\u002A\u002A*
X58600000Y-50964555D03*
G04 #@! TD*
G04 #@! TO.C,REF\u002A\u002A*
X106000000Y-84814551D03*
G04 #@! TD*
G04 #@! TO.C,REF\u002A\u002A*
X141999999Y-109814550D03*
G04 #@! TD*
G04 #@! TO.C,REF\u002A\u002A*
X11200001Y-83364551D03*
G04 #@! TD*
G04 #@! TO.C,REF\u002A\u002A*
X141999999Y-50964554D03*
G04 #@! TD*
G04 #@! TO.C,REF\u002A\u002A*
X94599999Y-23064555D03*
G04 #@! TD*
G04 #@! TO.C,REF\u002A\u002A*
X141999999Y-84089550D03*
G04 #@! TD*
G04 #@! TO.C,REF\u002A\u002A*
X106000000Y-109814551D03*
G04 #@! TD*
G04 #@! TO.C,REF\u002A\u002A*
X11200001Y-24514556D03*
G04 #@! TD*
G04 #@! TO.C,REF\u002A\u002A*
X106000000Y-23064556D03*
G04 #@! TD*
G04 #@! TO.C,REF\u002A\u002A*
X58600000Y-49514555D03*
G04 #@! TD*
G04 #@! TO.C,REF\u002A\u002A*
X94599999Y-50239554D03*
G04 #@! TD*
G04 #@! TO.C,REF\u002A\u002A*
X106000000Y-48789555D03*
G04 #@! TD*
G04 #@! TO.C,REF\u002A\u002A*
X11200001Y-50964555D03*
G04 #@! TD*
G04 #@! TO.C,REF\u002A\u002A*
X47199999Y-84089550D03*
G04 #@! TD*
G04 #@! TO.C,REF\u002A\u002A*
X94599999Y-110539550D03*
G04 #@! TD*
G04 #@! TO.C,REF\u002A\u002A*
X47199999Y-50964554D03*
G04 #@! TD*
G04 #@! TO.C,REF\u002A\u002A*
X106000000Y-86264551D03*
G04 #@! TD*
G04 #@! TO.C,REF\u002A\u002A*
X11200001Y-84814551D03*
G04 #@! TD*
G04 #@! TO.C,REF\u002A\u002A*
X11200001Y-85539551D03*
G04 #@! TD*
G04 #@! TO.C,REF\u002A\u002A*
X58600000Y-50239555D03*
G04 #@! TD*
G04 #@! TO.C,REF\u002A\u002A*
X11200001Y-109089551D03*
G04 #@! TD*
G04 #@! TO.C,REF\u002A\u002A*
X94599999Y-48789554D03*
G04 #@! TD*
G04 #@! TO.C,REF\u002A\u002A*
X141999999Y-23064555D03*
G04 #@! TD*
G04 #@! TO.C,REF\u002A\u002A*
X58600000Y-84089551D03*
G04 #@! TD*
G04 #@! TO.C,REF\u002A\u002A*
X106000000Y-25964556D03*
G04 #@! TD*
G04 #@! TO.C,REF\u002A\u002A*
X47199999Y-48064554D03*
G04 #@! TD*
D11*
G04 #@! TO.C,REF\u002A\u002A*
X149200000Y-7000000D03*
G04 #@! TD*
D10*
G04 #@! TO.C,REF\u002A\u002A*
X11200001Y-109814551D03*
G04 #@! TD*
G04 #@! TO.C,REF\u002A\u002A*
X94599999Y-48064554D03*
G04 #@! TD*
G04 #@! TO.C,REF\u002A\u002A*
X94599999Y-83364550D03*
G04 #@! TD*
G04 #@! TO.C,REF\u002A\u002A*
X58600000Y-109089551D03*
G04 #@! TD*
G04 #@! TO.C,REF\u002A\u002A*
X58600000Y-23789556D03*
G04 #@! TD*
G04 #@! TO.C,REF\u002A\u002A*
X11200001Y-23064556D03*
G04 #@! TD*
G04 #@! TO.C,REF\u002A\u002A*
X11200001Y-49514555D03*
G04 #@! TD*
G04 #@! TO.C,REF\u002A\u002A*
X94599999Y-50964554D03*
G04 #@! TD*
G04 #@! TO.C,REF\u002A\u002A*
X47199999Y-25964555D03*
G04 #@! TD*
G04 #@! TO.C,REF\u002A\u002A*
X94599999Y-84814550D03*
G04 #@! TD*
G04 #@! TO.C,REF\u002A\u002A*
X58600000Y-83364551D03*
G04 #@! TD*
G04 #@! TO.C,REF\u002A\u002A*
X11200001Y-25964556D03*
G04 #@! TD*
G04 #@! TO.C,REF\u002A\u002A*
X94599999Y-23789555D03*
G04 #@! TD*
G04 #@! TO.C,REF\u002A\u002A*
X94599999Y-86264550D03*
G04 #@! TD*
G04 #@! TO.C,REF\u002A\u002A*
X58600000Y-85539551D03*
G04 #@! TD*
G04 #@! TO.C,REF\u002A\u002A*
X94599999Y-24514555D03*
G04 #@! TD*
G04 #@! TO.C,REF\u002A\u002A*
X47199999Y-48789554D03*
G04 #@! TD*
G04 #@! TO.C,REF\u002A\u002A*
X141999999Y-23789555D03*
G04 #@! TD*
G04 #@! TO.C,REF\u002A\u002A*
X141999999Y-85539550D03*
G04 #@! TD*
G04 #@! TO.C,REF\u002A\u002A*
X11200001Y-86264551D03*
G04 #@! TD*
G04 #@! TO.C,REF\u002A\u002A*
X106000000Y-48064555D03*
G04 #@! TD*
G04 #@! TO.C,REF\u002A\u002A*
X141999999Y-111264550D03*
G04 #@! TD*
G04 #@! TO.C,REF\u002A\u002A*
X58600000Y-86264551D03*
G04 #@! TD*
G04 #@! TO.C,REF\u002A\u002A*
X47199999Y-108364550D03*
G04 #@! TD*
G04 #@! TO.C,REF\u002A\u002A*
X141999999Y-110539550D03*
G04 #@! TD*
G04 #@! TO.C,REF\u002A\u002A*
X94599999Y-85539550D03*
G04 #@! TD*
G04 #@! TO.C,REF\u002A\u002A*
X106000000Y-49514555D03*
G04 #@! TD*
G04 #@! TO.C,REF\u002A\u002A*
X106000000Y-110539551D03*
G04 #@! TD*
G04 #@! TO.C,REF\u002A\u002A*
X47199999Y-85539550D03*
G04 #@! TD*
G04 #@! TO.C,REF\u002A\u002A*
X47199999Y-23789555D03*
G04 #@! TD*
G04 #@! TO.C,REF\u002A\u002A*
X106000000Y-111264551D03*
G04 #@! TD*
G04 #@! TO.C,REF\u002A\u002A*
X47199999Y-24514555D03*
G04 #@! TD*
G04 #@! TO.C,REF\u002A\u002A*
X47199999Y-109814550D03*
G04 #@! TD*
G04 #@! TO.C,REF\u002A\u002A*
X141999999Y-109089550D03*
G04 #@! TD*
G04 #@! TO.C,REF\u002A\u002A*
X141999999Y-25239555D03*
G04 #@! TD*
G04 #@! TO.C,REF\u002A\u002A*
X58600000Y-84814551D03*
G04 #@! TD*
G04 #@! TO.C,REF\u002A\u002A*
X47199999Y-23064555D03*
G04 #@! TD*
G04 #@! TO.C,REF\u002A\u002A*
X47199999Y-110539550D03*
G04 #@! TD*
G04 #@! TO.C,REF\u002A\u002A*
X106000000Y-25239556D03*
G04 #@! TD*
G04 #@! TO.C,REF\u002A\u002A*
X47199999Y-86264550D03*
G04 #@! TD*
G04 #@! TO.C,REF\u002A\u002A*
X141999999Y-24514555D03*
G04 #@! TD*
G04 #@! TO.C,REF\u002A\u002A*
X106000000Y-84089551D03*
G04 #@! TD*
G04 #@! TO.C,REF\u002A\u002A*
X94599999Y-25964555D03*
G04 #@! TD*
G04 #@! TO.C,REF\u002A\u002A*
X106000000Y-50239555D03*
G04 #@! TD*
G04 #@! TO.C,REF\u002A\u002A*
X94599999Y-109089550D03*
G04 #@! TD*
G04 #@! TO.C,REF\u002A\u002A*
X58600000Y-25239556D03*
G04 #@! TD*
G04 #@! TO.C,REF\u002A\u002A*
X47199999Y-83364550D03*
G04 #@! TD*
G04 #@! TO.C,REF\u002A\u002A*
X58600000Y-111264551D03*
G04 #@! TD*
G04 #@! TO.C,REF\u002A\u002A*
X106000000Y-24514556D03*
G04 #@! TD*
G04 #@! TO.C,REF\u002A\u002A*
X106000000Y-108364551D03*
G04 #@! TD*
G04 #@! TO.C,REF\u002A\u002A*
X58600000Y-48789555D03*
G04 #@! TD*
G04 #@! TO.C,REF\u002A\u002A*
X141999999Y-83364550D03*
G04 #@! TD*
G04 #@! TO.C,REF\u002A\u002A*
X11200001Y-25239556D03*
G04 #@! TD*
G04 #@! TO.C,REF\u002A\u002A*
X58600000Y-48064555D03*
G04 #@! TD*
G04 #@! TO.C,REF\u002A\u002A*
X47199999Y-111264550D03*
G04 #@! TD*
G04 #@! TO.C,REF\u002A\u002A*
X106000000Y-85539551D03*
G04 #@! TD*
G04 #@! TO.C,REF\u002A\u002A*
X94599999Y-111264550D03*
G04 #@! TD*
G04 #@! TO.C,REF\u002A\u002A*
X141999999Y-49514554D03*
G04 #@! TD*
G04 #@! TO.C,REF\u002A\u002A*
X106000000Y-109089551D03*
G04 #@! TD*
G04 #@! TO.C,REF\u002A\u002A*
X94599999Y-25239555D03*
G04 #@! TD*
G04 #@! TO.C,REF\u002A\u002A*
X47199999Y-49514554D03*
G04 #@! TD*
G04 #@! TO.C,REF\u002A\u002A*
X11200001Y-110539551D03*
G04 #@! TD*
G04 #@! TO.C,REF\u002A\u002A*
X94599999Y-84089550D03*
G04 #@! TD*
G04 #@! TO.C,REF\u002A\u002A*
X141999999Y-86264550D03*
G04 #@! TD*
G04 #@! TO.C,REF\u002A\u002A*
X141999999Y-48789554D03*
G04 #@! TD*
G04 #@! TO.C,REF\u002A\u002A*
X11200001Y-48064555D03*
G04 #@! TD*
G04 #@! TO.C,REF\u002A\u002A*
X58600000Y-110539551D03*
G04 #@! TD*
G04 #@! TO.C,REF\u002A\u002A*
X11200001Y-50239555D03*
G04 #@! TD*
G04 #@! TO.C,REF\u002A\u002A*
X106000000Y-83364551D03*
G04 #@! TD*
D11*
G04 #@! TO.C,REF\u002A\u002A*
X149200000Y-124599990D03*
G04 #@! TD*
D10*
G04 #@! TO.C,REF\u002A\u002A*
X47199999Y-109089550D03*
G04 #@! TD*
G04 #@! TO.C,REF\u002A\u002A*
X58600000Y-109814551D03*
G04 #@! TD*
G04 #@! TO.C,REF\u002A\u002A*
X47199999Y-84814550D03*
G04 #@! TD*
D12*
G04 #@! TO.C,TP8*
X64296400Y-79766151D03*
G04 #@! TD*
D13*
G04 #@! TO.C,REF\u002A\u002A*
X149200000Y-3000000D03*
G04 #@! TD*
D12*
G04 #@! TO.C,TP5*
X15956600Y-53171955D03*
G04 #@! TD*
G04 #@! TO.C,TP10*
X64220200Y-43088155D03*
G04 #@! TD*
G04 #@! TO.C,TP4*
X42042400Y-27238555D03*
G04 #@! TD*
G04 #@! TO.C,TP6*
X89493200Y-100644951D03*
G04 #@! TD*
G04 #@! TO.C,TP4*
X136842400Y-87538551D03*
G04 #@! TD*
G04 #@! TO.C,TP4*
X89442400Y-27238555D03*
G04 #@! TD*
G04 #@! TO.C,TP8*
X16896400Y-19466155D03*
G04 #@! TD*
G04 #@! TO.C,TP8*
X111696400Y-79766151D03*
G04 #@! TD*
G04 #@! TO.C,TP3*
X110782000Y-39811555D03*
G04 #@! TD*
G04 #@! TO.C,TP2*
X111315400Y-87944951D03*
G04 #@! TD*
G04 #@! TO.C,TP9*
X114160200Y-103388151D03*
G04 #@! TD*
G04 #@! TO.C,TP9*
X19360200Y-43088155D03*
G04 #@! TD*
G04 #@! TO.C,TP7*
X40975600Y-112938551D03*
G04 #@! TD*
G04 #@! TO.C,TP1*
X21900200Y-103388151D03*
G04 #@! TD*
G04 #@! TO.C,TP6*
X42093200Y-40344955D03*
G04 #@! TD*
G04 #@! TO.C,TP2*
X111315400Y-27644955D03*
G04 #@! TD*
G04 #@! TO.C,TP4*
X89442400Y-87538551D03*
G04 #@! TD*
G04 #@! TO.C,TP5*
X110756600Y-113471951D03*
G04 #@! TD*
G04 #@! TO.C,TP3*
X15982000Y-39811555D03*
G04 #@! TD*
G04 #@! TO.C,TP2*
X63915400Y-87944951D03*
G04 #@! TD*
G04 #@! TO.C,TP8*
X16896400Y-79766151D03*
G04 #@! TD*
G04 #@! TO.C,TP1*
X116700200Y-103388151D03*
G04 #@! TD*
G04 #@! TO.C,TP5*
X63356600Y-53171955D03*
G04 #@! TD*
G04 #@! TO.C,TP9*
X19360200Y-103388151D03*
G04 #@! TD*
G04 #@! TO.C,TP10*
X16820200Y-103388151D03*
G04 #@! TD*
G04 #@! TO.C,TP1*
X116700200Y-43088155D03*
G04 #@! TD*
G04 #@! TO.C,TP3*
X63382000Y-100111551D03*
G04 #@! TD*
G04 #@! TO.C,TP6*
X136893200Y-100644951D03*
G04 #@! TD*
G04 #@! TO.C,TP3*
X15982000Y-100111551D03*
G04 #@! TD*
G04 #@! TO.C,TP8*
X111696400Y-19466155D03*
G04 #@! TD*
G04 #@! TO.C,TP7*
X88375600Y-52638555D03*
G04 #@! TD*
G04 #@! TO.C,TP6*
X89493200Y-40344955D03*
G04 #@! TD*
G04 #@! TO.C,TP1*
X69300200Y-103388151D03*
G04 #@! TD*
G04 #@! TO.C,TP7*
X88375600Y-112938551D03*
G04 #@! TD*
D13*
G04 #@! TO.C,REF\u002A\u002A*
X4000000Y-3000000D03*
G04 #@! TD*
D12*
G04 #@! TO.C,TP6*
X42093200Y-100644951D03*
G04 #@! TD*
G04 #@! TO.C,TP9*
X66760200Y-43088155D03*
G04 #@! TD*
G04 #@! TO.C,TP6*
X136893200Y-40344955D03*
G04 #@! TD*
G04 #@! TO.C,TP2*
X63915400Y-27644955D03*
G04 #@! TD*
G04 #@! TO.C,TP5*
X63356600Y-113471951D03*
G04 #@! TD*
G04 #@! TO.C,TP7*
X135775600Y-52638555D03*
G04 #@! TD*
G04 #@! TO.C,TP5*
X110756600Y-53171955D03*
G04 #@! TD*
G04 #@! TO.C,TP2*
X16515400Y-87944951D03*
G04 #@! TD*
G04 #@! TO.C,TP10*
X16820200Y-43088155D03*
G04 #@! TD*
G04 #@! TO.C,TP10*
X111620200Y-43088155D03*
G04 #@! TD*
G04 #@! TO.C,TP9*
X66760200Y-103388151D03*
G04 #@! TD*
G04 #@! TO.C,TP3*
X110782000Y-100111551D03*
G04 #@! TD*
G04 #@! TO.C,TP4*
X136842400Y-27238555D03*
G04 #@! TD*
D13*
G04 #@! TO.C,REF\u002A\u002A*
X4000000Y-128599990D03*
G04 #@! TD*
D12*
G04 #@! TO.C,TP8*
X64296400Y-19466155D03*
G04 #@! TD*
G04 #@! TO.C,TP1*
X21900200Y-43088155D03*
G04 #@! TD*
G04 #@! TO.C,TP1*
X69300200Y-43088155D03*
G04 #@! TD*
D13*
G04 #@! TO.C,REF\u002A\u002A*
X149200000Y-128599990D03*
G04 #@! TD*
D12*
G04 #@! TO.C,TP7*
X40975600Y-52638555D03*
G04 #@! TD*
G04 #@! TO.C,TP2*
X16515400Y-27644955D03*
G04 #@! TD*
G04 #@! TO.C,TP4*
X42042400Y-87538551D03*
G04 #@! TD*
G04 #@! TO.C,TP7*
X135775600Y-112938551D03*
G04 #@! TD*
G04 #@! TO.C,TP5*
X15956600Y-113471951D03*
G04 #@! TD*
G04 #@! TO.C,TP3*
X63382000Y-39811555D03*
G04 #@! TD*
G04 #@! TO.C,TP10*
X64220200Y-103388151D03*
G04 #@! TD*
G04 #@! TO.C,TP10*
X111620200Y-103388151D03*
G04 #@! TD*
G04 #@! TO.C,TP9*
X114160200Y-43088155D03*
G04 #@! TD*
M02*
