G04 #@! TF.GenerationSoftware,KiCad,Pcbnew,6.0.0-d3dd2cf0fa~116~ubuntu20.04.1*
G04 #@! TF.CreationDate,2023-02-24T21:00:06+00:00*
G04 #@! TF.ProjectId,pixel-pump-ui-board-panel,70697865-6c2d-4707-956d-702d75692d62,6*
G04 #@! TF.SameCoordinates,Original*
G04 #@! TF.FileFunction,Legend,Top*
G04 #@! TF.FilePolarity,Positive*
%FSLAX46Y46*%
G04 Gerber Fmt 4.6, Leading zero omitted, Abs format (unit mm)*
G04 Created by KiCad (PCBNEW 6.0.0-d3dd2cf0fa~116~ubuntu20.04.1) date 2023-02-24 21:00:06*
%MOMM*%
%LPD*%
G01*
G04 APERTURE LIST*
%ADD10C,0.150000*%
%ADD11C,0.300000*%
%ADD12C,0.130000*%
%ADD13C,0.120000*%
%ADD14C,0.127000*%
%ADD15C,0.200000*%
G04 APERTURE END LIST*
D10*
X14673900Y-30985055D02*
G75*
G03*
X13429300Y-30985055I-622300J0D01*
G01*
X62073900Y-30985055D02*
G75*
G03*
X60829300Y-30985055I-622300J0D01*
G01*
X109473900Y-30985055D02*
G75*
G03*
X108229300Y-30985055I-622300J0D01*
G01*
X14673900Y-91285051D02*
G75*
G03*
X13429300Y-91285051I-622300J0D01*
G01*
X62073900Y-91285051D02*
G75*
G03*
X60829300Y-91285051I-622300J0D01*
G01*
X109473900Y-91285051D02*
G75*
G03*
X108229300Y-91285051I-622300J0D01*
G01*
X15664500Y-27124255D02*
G75*
G03*
X16909100Y-27124255I622300J0D01*
G01*
X63064500Y-27124255D02*
G75*
G03*
X64309100Y-27124255I622300J0D01*
G01*
X110464500Y-27124255D02*
G75*
G03*
X111709100Y-27124255I622300J0D01*
G01*
X15664500Y-87424251D02*
G75*
G03*
X16909100Y-87424251I622300J0D01*
G01*
X63064500Y-87424251D02*
G75*
G03*
X64309100Y-87424251I622300J0D01*
G01*
X110464500Y-87424251D02*
G75*
G03*
X111709100Y-87424251I622300J0D01*
G01*
X16909100Y-30985055D02*
G75*
G03*
X15664500Y-30985055I-622300J0D01*
G01*
X64309100Y-30985055D02*
G75*
G03*
X63064500Y-30985055I-622300J0D01*
G01*
X111709100Y-30985055D02*
G75*
G03*
X110464500Y-30985055I-622300J0D01*
G01*
X16909100Y-91285051D02*
G75*
G03*
X15664500Y-91285051I-622300J0D01*
G01*
X64309100Y-91285051D02*
G75*
G03*
X63064500Y-91285051I-622300J0D01*
G01*
X111709100Y-91285051D02*
G75*
G03*
X110464500Y-91285051I-622300J0D01*
G01*
X13429300Y-27124255D02*
G75*
G03*
X14673900Y-27124255I622300J0D01*
G01*
X60829300Y-27124255D02*
G75*
G03*
X62073900Y-27124255I622300J0D01*
G01*
X108229300Y-27124255D02*
G75*
G03*
X109473900Y-27124255I622300J0D01*
G01*
X13429300Y-87424251D02*
G75*
G03*
X14673900Y-87424251I622300J0D01*
G01*
X60829300Y-87424251D02*
G75*
G03*
X62073900Y-87424251I622300J0D01*
G01*
X108229300Y-87424251D02*
G75*
G03*
X109473900Y-87424251I622300J0D01*
G01*
X13429300Y-30985055D02*
X13429300Y-27124255D01*
X60829300Y-30985055D02*
X60829300Y-27124255D01*
X108229300Y-30985055D02*
X108229300Y-27124255D01*
X13429300Y-91285051D02*
X13429300Y-87424251D01*
X60829300Y-91285051D02*
X60829300Y-87424251D01*
X108229300Y-91285051D02*
X108229300Y-87424251D01*
X15664500Y-30985055D02*
X14673900Y-30985055D01*
X63064500Y-30985055D02*
X62073900Y-30985055D01*
X110464500Y-30985055D02*
X109473900Y-30985055D01*
X15664500Y-91285051D02*
X14673900Y-91285051D01*
X63064500Y-91285051D02*
X62073900Y-91285051D01*
X110464500Y-91285051D02*
X109473900Y-91285051D01*
X16909100Y-27124255D02*
X16909100Y-30985055D01*
X64309100Y-27124255D02*
X64309100Y-30985055D01*
X111709100Y-27124255D02*
X111709100Y-30985055D01*
X16909100Y-87424251D02*
X16909100Y-91285051D01*
X64309100Y-87424251D02*
X64309100Y-91285051D01*
X111709100Y-87424251D02*
X111709100Y-91285051D01*
X15270800Y-28127555D02*
X16515400Y-28127555D01*
X16515400Y-28127555D02*
X16515400Y-29829355D01*
X16515400Y-29829355D02*
X15270800Y-29829355D01*
X15270800Y-29829355D02*
X15270800Y-28127555D01*
G36*
X15270800Y-28127555D02*
G01*
X16515400Y-28127555D01*
X16515400Y-29829355D01*
X15270800Y-29829355D01*
X15270800Y-28127555D01*
G37*
X62670800Y-28127555D02*
X63915400Y-28127555D01*
X63915400Y-28127555D02*
X63915400Y-29829355D01*
X63915400Y-29829355D02*
X62670800Y-29829355D01*
X62670800Y-29829355D02*
X62670800Y-28127555D01*
G36*
X62670800Y-28127555D02*
G01*
X63915400Y-28127555D01*
X63915400Y-29829355D01*
X62670800Y-29829355D01*
X62670800Y-28127555D01*
G37*
X110070800Y-28127555D02*
X111315400Y-28127555D01*
X111315400Y-28127555D02*
X111315400Y-29829355D01*
X111315400Y-29829355D02*
X110070800Y-29829355D01*
X110070800Y-29829355D02*
X110070800Y-28127555D01*
G36*
X110070800Y-28127555D02*
G01*
X111315400Y-28127555D01*
X111315400Y-29829355D01*
X110070800Y-29829355D01*
X110070800Y-28127555D01*
G37*
X15270800Y-88427551D02*
X16515400Y-88427551D01*
X16515400Y-88427551D02*
X16515400Y-90129351D01*
X16515400Y-90129351D02*
X15270800Y-90129351D01*
X15270800Y-90129351D02*
X15270800Y-88427551D01*
G36*
X15270800Y-88427551D02*
G01*
X16515400Y-88427551D01*
X16515400Y-90129351D01*
X15270800Y-90129351D01*
X15270800Y-88427551D01*
G37*
X110070800Y-88427551D02*
X111315400Y-88427551D01*
X111315400Y-88427551D02*
X111315400Y-90129351D01*
X111315400Y-90129351D02*
X110070800Y-90129351D01*
X110070800Y-90129351D02*
X110070800Y-88427551D01*
G36*
X110070800Y-88427551D02*
G01*
X111315400Y-88427551D01*
X111315400Y-90129351D01*
X110070800Y-90129351D01*
X110070800Y-88427551D01*
G37*
X62670800Y-88427551D02*
X63915400Y-88427551D01*
X63915400Y-88427551D02*
X63915400Y-90129351D01*
X63915400Y-90129351D02*
X62670800Y-90129351D01*
X62670800Y-90129351D02*
X62670800Y-88427551D01*
G36*
X62670800Y-88427551D02*
G01*
X63915400Y-88427551D01*
X63915400Y-90129351D01*
X62670800Y-90129351D01*
X62670800Y-88427551D01*
G37*
X14648500Y-27124255D02*
X15664500Y-27124255D01*
X62048500Y-27124255D02*
X63064500Y-27124255D01*
X109448500Y-27124255D02*
X110464500Y-27124255D01*
X14648500Y-87424251D02*
X15664500Y-87424251D01*
X62048500Y-87424251D02*
X63064500Y-87424251D01*
X109448500Y-87424251D02*
X110464500Y-87424251D01*
X33881000Y-18069250D02*
X33928619Y-17974012D01*
X33928619Y-17831155D01*
X33881000Y-17688297D01*
X33785761Y-17593059D01*
X33690523Y-17545440D01*
X33500047Y-17497821D01*
X33357190Y-17497821D01*
X33166714Y-17545440D01*
X33071476Y-17593059D01*
X32976238Y-17688297D01*
X32928619Y-17831155D01*
X32928619Y-17926393D01*
X32976238Y-18069250D01*
X33023857Y-18116869D01*
X33357190Y-18116869D01*
X33357190Y-17926393D01*
X32928619Y-18545440D02*
X33928619Y-18545440D01*
X32928619Y-19116869D01*
X33928619Y-19116869D01*
X32928619Y-19593059D02*
X33928619Y-19593059D01*
X33928619Y-19831155D01*
X33881000Y-19974012D01*
X33785761Y-20069250D01*
X33690523Y-20116869D01*
X33500047Y-20164488D01*
X33357190Y-20164488D01*
X33166714Y-20116869D01*
X33071476Y-20069250D01*
X32976238Y-19974012D01*
X32928619Y-19831155D01*
X32928619Y-19593059D01*
X81281000Y-18069250D02*
X81328619Y-17974012D01*
X81328619Y-17831155D01*
X81281000Y-17688297D01*
X81185761Y-17593059D01*
X81090523Y-17545440D01*
X80900047Y-17497821D01*
X80757190Y-17497821D01*
X80566714Y-17545440D01*
X80471476Y-17593059D01*
X80376238Y-17688297D01*
X80328619Y-17831155D01*
X80328619Y-17926393D01*
X80376238Y-18069250D01*
X80423857Y-18116869D01*
X80757190Y-18116869D01*
X80757190Y-17926393D01*
X80328619Y-18545440D02*
X81328619Y-18545440D01*
X80328619Y-19116869D01*
X81328619Y-19116869D01*
X80328619Y-19593059D02*
X81328619Y-19593059D01*
X81328619Y-19831155D01*
X81281000Y-19974012D01*
X81185761Y-20069250D01*
X81090523Y-20116869D01*
X80900047Y-20164488D01*
X80757190Y-20164488D01*
X80566714Y-20116869D01*
X80471476Y-20069250D01*
X80376238Y-19974012D01*
X80328619Y-19831155D01*
X80328619Y-19593059D01*
X128681000Y-18069250D02*
X128728619Y-17974012D01*
X128728619Y-17831155D01*
X128681000Y-17688297D01*
X128585761Y-17593059D01*
X128490523Y-17545440D01*
X128300047Y-17497821D01*
X128157190Y-17497821D01*
X127966714Y-17545440D01*
X127871476Y-17593059D01*
X127776238Y-17688297D01*
X127728619Y-17831155D01*
X127728619Y-17926393D01*
X127776238Y-18069250D01*
X127823857Y-18116869D01*
X128157190Y-18116869D01*
X128157190Y-17926393D01*
X127728619Y-18545440D02*
X128728619Y-18545440D01*
X127728619Y-19116869D01*
X128728619Y-19116869D01*
X127728619Y-19593059D02*
X128728619Y-19593059D01*
X128728619Y-19831155D01*
X128681000Y-19974012D01*
X128585761Y-20069250D01*
X128490523Y-20116869D01*
X128300047Y-20164488D01*
X128157190Y-20164488D01*
X127966714Y-20116869D01*
X127871476Y-20069250D01*
X127776238Y-19974012D01*
X127728619Y-19831155D01*
X127728619Y-19593059D01*
X33881000Y-78369246D02*
X33928619Y-78274008D01*
X33928619Y-78131151D01*
X33881000Y-77988293D01*
X33785761Y-77893055D01*
X33690523Y-77845436D01*
X33500047Y-77797817D01*
X33357190Y-77797817D01*
X33166714Y-77845436D01*
X33071476Y-77893055D01*
X32976238Y-77988293D01*
X32928619Y-78131151D01*
X32928619Y-78226389D01*
X32976238Y-78369246D01*
X33023857Y-78416865D01*
X33357190Y-78416865D01*
X33357190Y-78226389D01*
X32928619Y-78845436D02*
X33928619Y-78845436D01*
X32928619Y-79416865D01*
X33928619Y-79416865D01*
X32928619Y-79893055D02*
X33928619Y-79893055D01*
X33928619Y-80131151D01*
X33881000Y-80274008D01*
X33785761Y-80369246D01*
X33690523Y-80416865D01*
X33500047Y-80464484D01*
X33357190Y-80464484D01*
X33166714Y-80416865D01*
X33071476Y-80369246D01*
X32976238Y-80274008D01*
X32928619Y-80131151D01*
X32928619Y-79893055D01*
X81281000Y-78369246D02*
X81328619Y-78274008D01*
X81328619Y-78131151D01*
X81281000Y-77988293D01*
X81185761Y-77893055D01*
X81090523Y-77845436D01*
X80900047Y-77797817D01*
X80757190Y-77797817D01*
X80566714Y-77845436D01*
X80471476Y-77893055D01*
X80376238Y-77988293D01*
X80328619Y-78131151D01*
X80328619Y-78226389D01*
X80376238Y-78369246D01*
X80423857Y-78416865D01*
X80757190Y-78416865D01*
X80757190Y-78226389D01*
X80328619Y-78845436D02*
X81328619Y-78845436D01*
X80328619Y-79416865D01*
X81328619Y-79416865D01*
X80328619Y-79893055D02*
X81328619Y-79893055D01*
X81328619Y-80131151D01*
X81281000Y-80274008D01*
X81185761Y-80369246D01*
X81090523Y-80416865D01*
X80900047Y-80464484D01*
X80757190Y-80464484D01*
X80566714Y-80416865D01*
X80471476Y-80369246D01*
X80376238Y-80274008D01*
X80328619Y-80131151D01*
X80328619Y-79893055D01*
X128681000Y-78369246D02*
X128728619Y-78274008D01*
X128728619Y-78131151D01*
X128681000Y-77988293D01*
X128585761Y-77893055D01*
X128490523Y-77845436D01*
X128300047Y-77797817D01*
X128157190Y-77797817D01*
X127966714Y-77845436D01*
X127871476Y-77893055D01*
X127776238Y-77988293D01*
X127728619Y-78131151D01*
X127728619Y-78226389D01*
X127776238Y-78369246D01*
X127823857Y-78416865D01*
X128157190Y-78416865D01*
X128157190Y-78226389D01*
X127728619Y-78845436D02*
X128728619Y-78845436D01*
X127728619Y-79416865D01*
X128728619Y-79416865D01*
X127728619Y-79893055D02*
X128728619Y-79893055D01*
X128728619Y-80131151D01*
X128681000Y-80274008D01*
X128585761Y-80369246D01*
X128490523Y-80416865D01*
X128300047Y-80464484D01*
X128157190Y-80464484D01*
X127966714Y-80416865D01*
X127871476Y-80369246D01*
X127776238Y-80274008D01*
X127728619Y-80131151D01*
X127728619Y-79893055D01*
D11*
X61171428Y-4678571D02*
X61171428Y-3178571D01*
X61742857Y-3178571D01*
X61885714Y-3250000D01*
X61957142Y-3321428D01*
X62028571Y-3464285D01*
X62028571Y-3678571D01*
X61957142Y-3821428D01*
X61885714Y-3892857D01*
X61742857Y-3964285D01*
X61171428Y-3964285D01*
X62671428Y-4678571D02*
X62671428Y-3678571D01*
X62671428Y-3178571D02*
X62600000Y-3250000D01*
X62671428Y-3321428D01*
X62742857Y-3250000D01*
X62671428Y-3178571D01*
X62671428Y-3321428D01*
X63242857Y-4678571D02*
X64028571Y-3678571D01*
X63242857Y-3678571D02*
X64028571Y-4678571D01*
X65171428Y-4607142D02*
X65028571Y-4678571D01*
X64742857Y-4678571D01*
X64600000Y-4607142D01*
X64528571Y-4464285D01*
X64528571Y-3892857D01*
X64600000Y-3750000D01*
X64742857Y-3678571D01*
X65028571Y-3678571D01*
X65171428Y-3750000D01*
X65242857Y-3892857D01*
X65242857Y-4035714D01*
X64528571Y-4178571D01*
X66100000Y-4678571D02*
X65957142Y-4607142D01*
X65885714Y-4464285D01*
X65885714Y-3178571D01*
X67814285Y-4678571D02*
X67814285Y-3178571D01*
X68385714Y-3178571D01*
X68528571Y-3250000D01*
X68600000Y-3321428D01*
X68671428Y-3464285D01*
X68671428Y-3678571D01*
X68600000Y-3821428D01*
X68528571Y-3892857D01*
X68385714Y-3964285D01*
X67814285Y-3964285D01*
X69957142Y-3678571D02*
X69957142Y-4678571D01*
X69314285Y-3678571D02*
X69314285Y-4464285D01*
X69385714Y-4607142D01*
X69528571Y-4678571D01*
X69742857Y-4678571D01*
X69885714Y-4607142D01*
X69957142Y-4535714D01*
X70671428Y-4678571D02*
X70671428Y-3678571D01*
X70671428Y-3821428D02*
X70742857Y-3750000D01*
X70885714Y-3678571D01*
X71100000Y-3678571D01*
X71242857Y-3750000D01*
X71314285Y-3892857D01*
X71314285Y-4678571D01*
X71314285Y-3892857D02*
X71385714Y-3750000D01*
X71528571Y-3678571D01*
X71742857Y-3678571D01*
X71885714Y-3750000D01*
X71957142Y-3892857D01*
X71957142Y-4678571D01*
X72671428Y-3678571D02*
X72671428Y-5178571D01*
X72671428Y-3750000D02*
X72814285Y-3678571D01*
X73100000Y-3678571D01*
X73242857Y-3750000D01*
X73314285Y-3821428D01*
X73385714Y-3964285D01*
X73385714Y-4392857D01*
X73314285Y-4535714D01*
X73242857Y-4607142D01*
X73100000Y-4678571D01*
X72814285Y-4678571D01*
X72671428Y-4607142D01*
X75171428Y-3178571D02*
X75171428Y-4392857D01*
X75242857Y-4535714D01*
X75314285Y-4607142D01*
X75457142Y-4678571D01*
X75742857Y-4678571D01*
X75885714Y-4607142D01*
X75957142Y-4535714D01*
X76028571Y-4392857D01*
X76028571Y-3178571D01*
X76742857Y-4678571D02*
X76742857Y-3178571D01*
X79100000Y-3892857D02*
X79314285Y-3964285D01*
X79385714Y-4035714D01*
X79457142Y-4178571D01*
X79457142Y-4392857D01*
X79385714Y-4535714D01*
X79314285Y-4607142D01*
X79171428Y-4678571D01*
X78600000Y-4678571D01*
X78600000Y-3178571D01*
X79100000Y-3178571D01*
X79242857Y-3250000D01*
X79314285Y-3321428D01*
X79385714Y-3464285D01*
X79385714Y-3607142D01*
X79314285Y-3750000D01*
X79242857Y-3821428D01*
X79100000Y-3892857D01*
X78600000Y-3892857D01*
X80314285Y-4678571D02*
X80171428Y-4607142D01*
X80100000Y-4535714D01*
X80028571Y-4392857D01*
X80028571Y-3964285D01*
X80100000Y-3821428D01*
X80171428Y-3750000D01*
X80314285Y-3678571D01*
X80528571Y-3678571D01*
X80671428Y-3750000D01*
X80742857Y-3821428D01*
X80814285Y-3964285D01*
X80814285Y-4392857D01*
X80742857Y-4535714D01*
X80671428Y-4607142D01*
X80528571Y-4678571D01*
X80314285Y-4678571D01*
X82100000Y-4678571D02*
X82100000Y-3892857D01*
X82028571Y-3750000D01*
X81885714Y-3678571D01*
X81600000Y-3678571D01*
X81457142Y-3750000D01*
X82100000Y-4607142D02*
X81957142Y-4678571D01*
X81600000Y-4678571D01*
X81457142Y-4607142D01*
X81385714Y-4464285D01*
X81385714Y-4321428D01*
X81457142Y-4178571D01*
X81600000Y-4107142D01*
X81957142Y-4107142D01*
X82100000Y-4035714D01*
X82814285Y-4678571D02*
X82814285Y-3678571D01*
X82814285Y-3964285D02*
X82885714Y-3821428D01*
X82957142Y-3750000D01*
X83100000Y-3678571D01*
X83242857Y-3678571D01*
X84385714Y-4678571D02*
X84385714Y-3178571D01*
X84385714Y-4607142D02*
X84242857Y-4678571D01*
X83957142Y-4678571D01*
X83814285Y-4607142D01*
X83742857Y-4535714D01*
X83671428Y-4392857D01*
X83671428Y-3964285D01*
X83742857Y-3821428D01*
X83814285Y-3750000D01*
X83957142Y-3678571D01*
X84242857Y-3678571D01*
X84385714Y-3750000D01*
X87100000Y-4678571D02*
X86600000Y-3964285D01*
X86242857Y-4678571D02*
X86242857Y-3178571D01*
X86814285Y-3178571D01*
X86957142Y-3250000D01*
X87028571Y-3321428D01*
X87100000Y-3464285D01*
X87100000Y-3678571D01*
X87028571Y-3821428D01*
X86957142Y-3892857D01*
X86814285Y-3964285D01*
X86242857Y-3964285D01*
X88314285Y-4607142D02*
X88171428Y-4678571D01*
X87885714Y-4678571D01*
X87742857Y-4607142D01*
X87671428Y-4464285D01*
X87671428Y-3892857D01*
X87742857Y-3750000D01*
X87885714Y-3678571D01*
X88171428Y-3678571D01*
X88314285Y-3750000D01*
X88385714Y-3892857D01*
X88385714Y-4035714D01*
X87671428Y-4178571D01*
X88885714Y-3678571D02*
X89242857Y-4678571D01*
X89600000Y-3678571D01*
X91957142Y-3178571D02*
X91671428Y-3178571D01*
X91528571Y-3250000D01*
X91457142Y-3321428D01*
X91314285Y-3535714D01*
X91242857Y-3821428D01*
X91242857Y-4392857D01*
X91314285Y-4535714D01*
X91385714Y-4607142D01*
X91528571Y-4678571D01*
X91814285Y-4678571D01*
X91957142Y-4607142D01*
X92028571Y-4535714D01*
X92100000Y-4392857D01*
X92100000Y-4035714D01*
X92028571Y-3892857D01*
X91957142Y-3821428D01*
X91814285Y-3750000D01*
X91528571Y-3750000D01*
X91385714Y-3821428D01*
X91314285Y-3892857D01*
X91242857Y-4035714D01*
D10*
X17526714Y-30913183D02*
X17241000Y-30913183D01*
X17241000Y-30313183D01*
X17726714Y-30598897D02*
X17926714Y-30598897D01*
X18012428Y-30913183D02*
X17726714Y-30913183D01*
X17726714Y-30313183D01*
X18012428Y-30313183D01*
X18269571Y-30913183D02*
X18269571Y-30313183D01*
X18412428Y-30313183D01*
X18498142Y-30341755D01*
X18555285Y-30398897D01*
X18583857Y-30456040D01*
X18612428Y-30570326D01*
X18612428Y-30656040D01*
X18583857Y-30770326D01*
X18555285Y-30827469D01*
X18498142Y-30884612D01*
X18412428Y-30913183D01*
X18269571Y-30913183D01*
X15926714Y-31279183D02*
X16041000Y-31279183D01*
X16098142Y-31307755D01*
X16155285Y-31364897D01*
X16183857Y-31479183D01*
X16183857Y-31679183D01*
X16155285Y-31793469D01*
X16098142Y-31850612D01*
X16041000Y-31879183D01*
X15926714Y-31879183D01*
X15869571Y-31850612D01*
X15812428Y-31793469D01*
X15783857Y-31679183D01*
X15783857Y-31479183D01*
X15812428Y-31364897D01*
X15869571Y-31307755D01*
X15926714Y-31279183D01*
X16441000Y-31879183D02*
X16441000Y-31479183D01*
X16441000Y-31593469D02*
X16469571Y-31536326D01*
X16498142Y-31507755D01*
X16555285Y-31479183D01*
X16612428Y-31479183D01*
X16812428Y-31879183D02*
X16812428Y-31479183D01*
X16812428Y-31279183D02*
X16783857Y-31307755D01*
X16812428Y-31336326D01*
X16841000Y-31307755D01*
X16812428Y-31279183D01*
X16812428Y-31336326D01*
X17326714Y-31850612D02*
X17269571Y-31879183D01*
X17155285Y-31879183D01*
X17098142Y-31850612D01*
X17069571Y-31793469D01*
X17069571Y-31564897D01*
X17098142Y-31507755D01*
X17155285Y-31479183D01*
X17269571Y-31479183D01*
X17326714Y-31507755D01*
X17355285Y-31564897D01*
X17355285Y-31622040D01*
X17069571Y-31679183D01*
X17612428Y-31479183D02*
X17612428Y-31879183D01*
X17612428Y-31536326D02*
X17641000Y-31507755D01*
X17698142Y-31479183D01*
X17783857Y-31479183D01*
X17841000Y-31507755D01*
X17869571Y-31564897D01*
X17869571Y-31879183D01*
X18069571Y-31479183D02*
X18298142Y-31479183D01*
X18155285Y-31279183D02*
X18155285Y-31793469D01*
X18183857Y-31850612D01*
X18241000Y-31879183D01*
X18298142Y-31879183D01*
X18755285Y-31879183D02*
X18755285Y-31564897D01*
X18726714Y-31507755D01*
X18669571Y-31479183D01*
X18555285Y-31479183D01*
X18498142Y-31507755D01*
X18755285Y-31850612D02*
X18698142Y-31879183D01*
X18555285Y-31879183D01*
X18498142Y-31850612D01*
X18469571Y-31793469D01*
X18469571Y-31736326D01*
X18498142Y-31679183D01*
X18555285Y-31650612D01*
X18698142Y-31650612D01*
X18755285Y-31622040D01*
X18955285Y-31479183D02*
X19183857Y-31479183D01*
X19041000Y-31279183D02*
X19041000Y-31793469D01*
X19069571Y-31850612D01*
X19126714Y-31879183D01*
X19183857Y-31879183D01*
X19383857Y-31879183D02*
X19383857Y-31479183D01*
X19383857Y-31279183D02*
X19355285Y-31307755D01*
X19383857Y-31336326D01*
X19412428Y-31307755D01*
X19383857Y-31279183D01*
X19383857Y-31336326D01*
X19755285Y-31879183D02*
X19698142Y-31850612D01*
X19669571Y-31822040D01*
X19641000Y-31764897D01*
X19641000Y-31593469D01*
X19669571Y-31536326D01*
X19698142Y-31507755D01*
X19755285Y-31479183D01*
X19841000Y-31479183D01*
X19898142Y-31507755D01*
X19926714Y-31536326D01*
X19955285Y-31593469D01*
X19955285Y-31764897D01*
X19926714Y-31822040D01*
X19898142Y-31850612D01*
X19841000Y-31879183D01*
X19755285Y-31879183D01*
X20212428Y-31479183D02*
X20212428Y-31879183D01*
X20212428Y-31536326D02*
X20241000Y-31507755D01*
X20298142Y-31479183D01*
X20383857Y-31479183D01*
X20441000Y-31507755D01*
X20469571Y-31564897D01*
X20469571Y-31879183D01*
X64926714Y-30913183D02*
X64641000Y-30913183D01*
X64641000Y-30313183D01*
X65126714Y-30598897D02*
X65326714Y-30598897D01*
X65412428Y-30913183D02*
X65126714Y-30913183D01*
X65126714Y-30313183D01*
X65412428Y-30313183D01*
X65669571Y-30913183D02*
X65669571Y-30313183D01*
X65812428Y-30313183D01*
X65898142Y-30341755D01*
X65955285Y-30398897D01*
X65983857Y-30456040D01*
X66012428Y-30570326D01*
X66012428Y-30656040D01*
X65983857Y-30770326D01*
X65955285Y-30827469D01*
X65898142Y-30884612D01*
X65812428Y-30913183D01*
X65669571Y-30913183D01*
X63326714Y-31279183D02*
X63441000Y-31279183D01*
X63498142Y-31307755D01*
X63555285Y-31364897D01*
X63583857Y-31479183D01*
X63583857Y-31679183D01*
X63555285Y-31793469D01*
X63498142Y-31850612D01*
X63441000Y-31879183D01*
X63326714Y-31879183D01*
X63269571Y-31850612D01*
X63212428Y-31793469D01*
X63183857Y-31679183D01*
X63183857Y-31479183D01*
X63212428Y-31364897D01*
X63269571Y-31307755D01*
X63326714Y-31279183D01*
X63841000Y-31879183D02*
X63841000Y-31479183D01*
X63841000Y-31593469D02*
X63869571Y-31536326D01*
X63898142Y-31507755D01*
X63955285Y-31479183D01*
X64012428Y-31479183D01*
X64212428Y-31879183D02*
X64212428Y-31479183D01*
X64212428Y-31279183D02*
X64183857Y-31307755D01*
X64212428Y-31336326D01*
X64241000Y-31307755D01*
X64212428Y-31279183D01*
X64212428Y-31336326D01*
X64726714Y-31850612D02*
X64669571Y-31879183D01*
X64555285Y-31879183D01*
X64498142Y-31850612D01*
X64469571Y-31793469D01*
X64469571Y-31564897D01*
X64498142Y-31507755D01*
X64555285Y-31479183D01*
X64669571Y-31479183D01*
X64726714Y-31507755D01*
X64755285Y-31564897D01*
X64755285Y-31622040D01*
X64469571Y-31679183D01*
X65012428Y-31479183D02*
X65012428Y-31879183D01*
X65012428Y-31536326D02*
X65041000Y-31507755D01*
X65098142Y-31479183D01*
X65183857Y-31479183D01*
X65241000Y-31507755D01*
X65269571Y-31564897D01*
X65269571Y-31879183D01*
X65469571Y-31479183D02*
X65698142Y-31479183D01*
X65555285Y-31279183D02*
X65555285Y-31793469D01*
X65583857Y-31850612D01*
X65641000Y-31879183D01*
X65698142Y-31879183D01*
X66155285Y-31879183D02*
X66155285Y-31564897D01*
X66126714Y-31507755D01*
X66069571Y-31479183D01*
X65955285Y-31479183D01*
X65898142Y-31507755D01*
X66155285Y-31850612D02*
X66098142Y-31879183D01*
X65955285Y-31879183D01*
X65898142Y-31850612D01*
X65869571Y-31793469D01*
X65869571Y-31736326D01*
X65898142Y-31679183D01*
X65955285Y-31650612D01*
X66098142Y-31650612D01*
X66155285Y-31622040D01*
X66355285Y-31479183D02*
X66583857Y-31479183D01*
X66441000Y-31279183D02*
X66441000Y-31793469D01*
X66469571Y-31850612D01*
X66526714Y-31879183D01*
X66583857Y-31879183D01*
X66783857Y-31879183D02*
X66783857Y-31479183D01*
X66783857Y-31279183D02*
X66755285Y-31307755D01*
X66783857Y-31336326D01*
X66812428Y-31307755D01*
X66783857Y-31279183D01*
X66783857Y-31336326D01*
X67155285Y-31879183D02*
X67098142Y-31850612D01*
X67069571Y-31822040D01*
X67041000Y-31764897D01*
X67041000Y-31593469D01*
X67069571Y-31536326D01*
X67098142Y-31507755D01*
X67155285Y-31479183D01*
X67241000Y-31479183D01*
X67298142Y-31507755D01*
X67326714Y-31536326D01*
X67355285Y-31593469D01*
X67355285Y-31764897D01*
X67326714Y-31822040D01*
X67298142Y-31850612D01*
X67241000Y-31879183D01*
X67155285Y-31879183D01*
X67612428Y-31479183D02*
X67612428Y-31879183D01*
X67612428Y-31536326D02*
X67641000Y-31507755D01*
X67698142Y-31479183D01*
X67783857Y-31479183D01*
X67841000Y-31507755D01*
X67869571Y-31564897D01*
X67869571Y-31879183D01*
X112326714Y-30913183D02*
X112041000Y-30913183D01*
X112041000Y-30313183D01*
X112526714Y-30598897D02*
X112726714Y-30598897D01*
X112812428Y-30913183D02*
X112526714Y-30913183D01*
X112526714Y-30313183D01*
X112812428Y-30313183D01*
X113069571Y-30913183D02*
X113069571Y-30313183D01*
X113212428Y-30313183D01*
X113298142Y-30341755D01*
X113355285Y-30398897D01*
X113383857Y-30456040D01*
X113412428Y-30570326D01*
X113412428Y-30656040D01*
X113383857Y-30770326D01*
X113355285Y-30827469D01*
X113298142Y-30884612D01*
X113212428Y-30913183D01*
X113069571Y-30913183D01*
X110726714Y-31279183D02*
X110841000Y-31279183D01*
X110898142Y-31307755D01*
X110955285Y-31364897D01*
X110983857Y-31479183D01*
X110983857Y-31679183D01*
X110955285Y-31793469D01*
X110898142Y-31850612D01*
X110841000Y-31879183D01*
X110726714Y-31879183D01*
X110669571Y-31850612D01*
X110612428Y-31793469D01*
X110583857Y-31679183D01*
X110583857Y-31479183D01*
X110612428Y-31364897D01*
X110669571Y-31307755D01*
X110726714Y-31279183D01*
X111241000Y-31879183D02*
X111241000Y-31479183D01*
X111241000Y-31593469D02*
X111269571Y-31536326D01*
X111298142Y-31507755D01*
X111355285Y-31479183D01*
X111412428Y-31479183D01*
X111612428Y-31879183D02*
X111612428Y-31479183D01*
X111612428Y-31279183D02*
X111583857Y-31307755D01*
X111612428Y-31336326D01*
X111641000Y-31307755D01*
X111612428Y-31279183D01*
X111612428Y-31336326D01*
X112126714Y-31850612D02*
X112069571Y-31879183D01*
X111955285Y-31879183D01*
X111898142Y-31850612D01*
X111869571Y-31793469D01*
X111869571Y-31564897D01*
X111898142Y-31507755D01*
X111955285Y-31479183D01*
X112069571Y-31479183D01*
X112126714Y-31507755D01*
X112155285Y-31564897D01*
X112155285Y-31622040D01*
X111869571Y-31679183D01*
X112412428Y-31479183D02*
X112412428Y-31879183D01*
X112412428Y-31536326D02*
X112441000Y-31507755D01*
X112498142Y-31479183D01*
X112583857Y-31479183D01*
X112641000Y-31507755D01*
X112669571Y-31564897D01*
X112669571Y-31879183D01*
X112869571Y-31479183D02*
X113098142Y-31479183D01*
X112955285Y-31279183D02*
X112955285Y-31793469D01*
X112983857Y-31850612D01*
X113041000Y-31879183D01*
X113098142Y-31879183D01*
X113555285Y-31879183D02*
X113555285Y-31564897D01*
X113526714Y-31507755D01*
X113469571Y-31479183D01*
X113355285Y-31479183D01*
X113298142Y-31507755D01*
X113555285Y-31850612D02*
X113498142Y-31879183D01*
X113355285Y-31879183D01*
X113298142Y-31850612D01*
X113269571Y-31793469D01*
X113269571Y-31736326D01*
X113298142Y-31679183D01*
X113355285Y-31650612D01*
X113498142Y-31650612D01*
X113555285Y-31622040D01*
X113755285Y-31479183D02*
X113983857Y-31479183D01*
X113841000Y-31279183D02*
X113841000Y-31793469D01*
X113869571Y-31850612D01*
X113926714Y-31879183D01*
X113983857Y-31879183D01*
X114183857Y-31879183D02*
X114183857Y-31479183D01*
X114183857Y-31279183D02*
X114155285Y-31307755D01*
X114183857Y-31336326D01*
X114212428Y-31307755D01*
X114183857Y-31279183D01*
X114183857Y-31336326D01*
X114555285Y-31879183D02*
X114498142Y-31850612D01*
X114469571Y-31822040D01*
X114441000Y-31764897D01*
X114441000Y-31593469D01*
X114469571Y-31536326D01*
X114498142Y-31507755D01*
X114555285Y-31479183D01*
X114641000Y-31479183D01*
X114698142Y-31507755D01*
X114726714Y-31536326D01*
X114755285Y-31593469D01*
X114755285Y-31764897D01*
X114726714Y-31822040D01*
X114698142Y-31850612D01*
X114641000Y-31879183D01*
X114555285Y-31879183D01*
X115012428Y-31479183D02*
X115012428Y-31879183D01*
X115012428Y-31536326D02*
X115041000Y-31507755D01*
X115098142Y-31479183D01*
X115183857Y-31479183D01*
X115241000Y-31507755D01*
X115269571Y-31564897D01*
X115269571Y-31879183D01*
X17526714Y-91213179D02*
X17241000Y-91213179D01*
X17241000Y-90613179D01*
X17726714Y-90898893D02*
X17926714Y-90898893D01*
X18012428Y-91213179D02*
X17726714Y-91213179D01*
X17726714Y-90613179D01*
X18012428Y-90613179D01*
X18269571Y-91213179D02*
X18269571Y-90613179D01*
X18412428Y-90613179D01*
X18498142Y-90641751D01*
X18555285Y-90698893D01*
X18583857Y-90756036D01*
X18612428Y-90870322D01*
X18612428Y-90956036D01*
X18583857Y-91070322D01*
X18555285Y-91127465D01*
X18498142Y-91184608D01*
X18412428Y-91213179D01*
X18269571Y-91213179D01*
X15926714Y-91579179D02*
X16041000Y-91579179D01*
X16098142Y-91607751D01*
X16155285Y-91664893D01*
X16183857Y-91779179D01*
X16183857Y-91979179D01*
X16155285Y-92093465D01*
X16098142Y-92150608D01*
X16041000Y-92179179D01*
X15926714Y-92179179D01*
X15869571Y-92150608D01*
X15812428Y-92093465D01*
X15783857Y-91979179D01*
X15783857Y-91779179D01*
X15812428Y-91664893D01*
X15869571Y-91607751D01*
X15926714Y-91579179D01*
X16441000Y-92179179D02*
X16441000Y-91779179D01*
X16441000Y-91893465D02*
X16469571Y-91836322D01*
X16498142Y-91807751D01*
X16555285Y-91779179D01*
X16612428Y-91779179D01*
X16812428Y-92179179D02*
X16812428Y-91779179D01*
X16812428Y-91579179D02*
X16783857Y-91607751D01*
X16812428Y-91636322D01*
X16841000Y-91607751D01*
X16812428Y-91579179D01*
X16812428Y-91636322D01*
X17326714Y-92150608D02*
X17269571Y-92179179D01*
X17155285Y-92179179D01*
X17098142Y-92150608D01*
X17069571Y-92093465D01*
X17069571Y-91864893D01*
X17098142Y-91807751D01*
X17155285Y-91779179D01*
X17269571Y-91779179D01*
X17326714Y-91807751D01*
X17355285Y-91864893D01*
X17355285Y-91922036D01*
X17069571Y-91979179D01*
X17612428Y-91779179D02*
X17612428Y-92179179D01*
X17612428Y-91836322D02*
X17641000Y-91807751D01*
X17698142Y-91779179D01*
X17783857Y-91779179D01*
X17841000Y-91807751D01*
X17869571Y-91864893D01*
X17869571Y-92179179D01*
X18069571Y-91779179D02*
X18298142Y-91779179D01*
X18155285Y-91579179D02*
X18155285Y-92093465D01*
X18183857Y-92150608D01*
X18241000Y-92179179D01*
X18298142Y-92179179D01*
X18755285Y-92179179D02*
X18755285Y-91864893D01*
X18726714Y-91807751D01*
X18669571Y-91779179D01*
X18555285Y-91779179D01*
X18498142Y-91807751D01*
X18755285Y-92150608D02*
X18698142Y-92179179D01*
X18555285Y-92179179D01*
X18498142Y-92150608D01*
X18469571Y-92093465D01*
X18469571Y-92036322D01*
X18498142Y-91979179D01*
X18555285Y-91950608D01*
X18698142Y-91950608D01*
X18755285Y-91922036D01*
X18955285Y-91779179D02*
X19183857Y-91779179D01*
X19041000Y-91579179D02*
X19041000Y-92093465D01*
X19069571Y-92150608D01*
X19126714Y-92179179D01*
X19183857Y-92179179D01*
X19383857Y-92179179D02*
X19383857Y-91779179D01*
X19383857Y-91579179D02*
X19355285Y-91607751D01*
X19383857Y-91636322D01*
X19412428Y-91607751D01*
X19383857Y-91579179D01*
X19383857Y-91636322D01*
X19755285Y-92179179D02*
X19698142Y-92150608D01*
X19669571Y-92122036D01*
X19641000Y-92064893D01*
X19641000Y-91893465D01*
X19669571Y-91836322D01*
X19698142Y-91807751D01*
X19755285Y-91779179D01*
X19841000Y-91779179D01*
X19898142Y-91807751D01*
X19926714Y-91836322D01*
X19955285Y-91893465D01*
X19955285Y-92064893D01*
X19926714Y-92122036D01*
X19898142Y-92150608D01*
X19841000Y-92179179D01*
X19755285Y-92179179D01*
X20212428Y-91779179D02*
X20212428Y-92179179D01*
X20212428Y-91836322D02*
X20241000Y-91807751D01*
X20298142Y-91779179D01*
X20383857Y-91779179D01*
X20441000Y-91807751D01*
X20469571Y-91864893D01*
X20469571Y-92179179D01*
X64926714Y-91213179D02*
X64641000Y-91213179D01*
X64641000Y-90613179D01*
X65126714Y-90898893D02*
X65326714Y-90898893D01*
X65412428Y-91213179D02*
X65126714Y-91213179D01*
X65126714Y-90613179D01*
X65412428Y-90613179D01*
X65669571Y-91213179D02*
X65669571Y-90613179D01*
X65812428Y-90613179D01*
X65898142Y-90641751D01*
X65955285Y-90698893D01*
X65983857Y-90756036D01*
X66012428Y-90870322D01*
X66012428Y-90956036D01*
X65983857Y-91070322D01*
X65955285Y-91127465D01*
X65898142Y-91184608D01*
X65812428Y-91213179D01*
X65669571Y-91213179D01*
X63326714Y-91579179D02*
X63441000Y-91579179D01*
X63498142Y-91607751D01*
X63555285Y-91664893D01*
X63583857Y-91779179D01*
X63583857Y-91979179D01*
X63555285Y-92093465D01*
X63498142Y-92150608D01*
X63441000Y-92179179D01*
X63326714Y-92179179D01*
X63269571Y-92150608D01*
X63212428Y-92093465D01*
X63183857Y-91979179D01*
X63183857Y-91779179D01*
X63212428Y-91664893D01*
X63269571Y-91607751D01*
X63326714Y-91579179D01*
X63841000Y-92179179D02*
X63841000Y-91779179D01*
X63841000Y-91893465D02*
X63869571Y-91836322D01*
X63898142Y-91807751D01*
X63955285Y-91779179D01*
X64012428Y-91779179D01*
X64212428Y-92179179D02*
X64212428Y-91779179D01*
X64212428Y-91579179D02*
X64183857Y-91607751D01*
X64212428Y-91636322D01*
X64241000Y-91607751D01*
X64212428Y-91579179D01*
X64212428Y-91636322D01*
X64726714Y-92150608D02*
X64669571Y-92179179D01*
X64555285Y-92179179D01*
X64498142Y-92150608D01*
X64469571Y-92093465D01*
X64469571Y-91864893D01*
X64498142Y-91807751D01*
X64555285Y-91779179D01*
X64669571Y-91779179D01*
X64726714Y-91807751D01*
X64755285Y-91864893D01*
X64755285Y-91922036D01*
X64469571Y-91979179D01*
X65012428Y-91779179D02*
X65012428Y-92179179D01*
X65012428Y-91836322D02*
X65041000Y-91807751D01*
X65098142Y-91779179D01*
X65183857Y-91779179D01*
X65241000Y-91807751D01*
X65269571Y-91864893D01*
X65269571Y-92179179D01*
X65469571Y-91779179D02*
X65698142Y-91779179D01*
X65555285Y-91579179D02*
X65555285Y-92093465D01*
X65583857Y-92150608D01*
X65641000Y-92179179D01*
X65698142Y-92179179D01*
X66155285Y-92179179D02*
X66155285Y-91864893D01*
X66126714Y-91807751D01*
X66069571Y-91779179D01*
X65955285Y-91779179D01*
X65898142Y-91807751D01*
X66155285Y-92150608D02*
X66098142Y-92179179D01*
X65955285Y-92179179D01*
X65898142Y-92150608D01*
X65869571Y-92093465D01*
X65869571Y-92036322D01*
X65898142Y-91979179D01*
X65955285Y-91950608D01*
X66098142Y-91950608D01*
X66155285Y-91922036D01*
X66355285Y-91779179D02*
X66583857Y-91779179D01*
X66441000Y-91579179D02*
X66441000Y-92093465D01*
X66469571Y-92150608D01*
X66526714Y-92179179D01*
X66583857Y-92179179D01*
X66783857Y-92179179D02*
X66783857Y-91779179D01*
X66783857Y-91579179D02*
X66755285Y-91607751D01*
X66783857Y-91636322D01*
X66812428Y-91607751D01*
X66783857Y-91579179D01*
X66783857Y-91636322D01*
X67155285Y-92179179D02*
X67098142Y-92150608D01*
X67069571Y-92122036D01*
X67041000Y-92064893D01*
X67041000Y-91893465D01*
X67069571Y-91836322D01*
X67098142Y-91807751D01*
X67155285Y-91779179D01*
X67241000Y-91779179D01*
X67298142Y-91807751D01*
X67326714Y-91836322D01*
X67355285Y-91893465D01*
X67355285Y-92064893D01*
X67326714Y-92122036D01*
X67298142Y-92150608D01*
X67241000Y-92179179D01*
X67155285Y-92179179D01*
X67612428Y-91779179D02*
X67612428Y-92179179D01*
X67612428Y-91836322D02*
X67641000Y-91807751D01*
X67698142Y-91779179D01*
X67783857Y-91779179D01*
X67841000Y-91807751D01*
X67869571Y-91864893D01*
X67869571Y-92179179D01*
X112326714Y-91213179D02*
X112041000Y-91213179D01*
X112041000Y-90613179D01*
X112526714Y-90898893D02*
X112726714Y-90898893D01*
X112812428Y-91213179D02*
X112526714Y-91213179D01*
X112526714Y-90613179D01*
X112812428Y-90613179D01*
X113069571Y-91213179D02*
X113069571Y-90613179D01*
X113212428Y-90613179D01*
X113298142Y-90641751D01*
X113355285Y-90698893D01*
X113383857Y-90756036D01*
X113412428Y-90870322D01*
X113412428Y-90956036D01*
X113383857Y-91070322D01*
X113355285Y-91127465D01*
X113298142Y-91184608D01*
X113212428Y-91213179D01*
X113069571Y-91213179D01*
X110726714Y-91579179D02*
X110841000Y-91579179D01*
X110898142Y-91607751D01*
X110955285Y-91664893D01*
X110983857Y-91779179D01*
X110983857Y-91979179D01*
X110955285Y-92093465D01*
X110898142Y-92150608D01*
X110841000Y-92179179D01*
X110726714Y-92179179D01*
X110669571Y-92150608D01*
X110612428Y-92093465D01*
X110583857Y-91979179D01*
X110583857Y-91779179D01*
X110612428Y-91664893D01*
X110669571Y-91607751D01*
X110726714Y-91579179D01*
X111241000Y-92179179D02*
X111241000Y-91779179D01*
X111241000Y-91893465D02*
X111269571Y-91836322D01*
X111298142Y-91807751D01*
X111355285Y-91779179D01*
X111412428Y-91779179D01*
X111612428Y-92179179D02*
X111612428Y-91779179D01*
X111612428Y-91579179D02*
X111583857Y-91607751D01*
X111612428Y-91636322D01*
X111641000Y-91607751D01*
X111612428Y-91579179D01*
X111612428Y-91636322D01*
X112126714Y-92150608D02*
X112069571Y-92179179D01*
X111955285Y-92179179D01*
X111898142Y-92150608D01*
X111869571Y-92093465D01*
X111869571Y-91864893D01*
X111898142Y-91807751D01*
X111955285Y-91779179D01*
X112069571Y-91779179D01*
X112126714Y-91807751D01*
X112155285Y-91864893D01*
X112155285Y-91922036D01*
X111869571Y-91979179D01*
X112412428Y-91779179D02*
X112412428Y-92179179D01*
X112412428Y-91836322D02*
X112441000Y-91807751D01*
X112498142Y-91779179D01*
X112583857Y-91779179D01*
X112641000Y-91807751D01*
X112669571Y-91864893D01*
X112669571Y-92179179D01*
X112869571Y-91779179D02*
X113098142Y-91779179D01*
X112955285Y-91579179D02*
X112955285Y-92093465D01*
X112983857Y-92150608D01*
X113041000Y-92179179D01*
X113098142Y-92179179D01*
X113555285Y-92179179D02*
X113555285Y-91864893D01*
X113526714Y-91807751D01*
X113469571Y-91779179D01*
X113355285Y-91779179D01*
X113298142Y-91807751D01*
X113555285Y-92150608D02*
X113498142Y-92179179D01*
X113355285Y-92179179D01*
X113298142Y-92150608D01*
X113269571Y-92093465D01*
X113269571Y-92036322D01*
X113298142Y-91979179D01*
X113355285Y-91950608D01*
X113498142Y-91950608D01*
X113555285Y-91922036D01*
X113755285Y-91779179D02*
X113983857Y-91779179D01*
X113841000Y-91579179D02*
X113841000Y-92093465D01*
X113869571Y-92150608D01*
X113926714Y-92179179D01*
X113983857Y-92179179D01*
X114183857Y-92179179D02*
X114183857Y-91779179D01*
X114183857Y-91579179D02*
X114155285Y-91607751D01*
X114183857Y-91636322D01*
X114212428Y-91607751D01*
X114183857Y-91579179D01*
X114183857Y-91636322D01*
X114555285Y-92179179D02*
X114498142Y-92150608D01*
X114469571Y-92122036D01*
X114441000Y-92064893D01*
X114441000Y-91893465D01*
X114469571Y-91836322D01*
X114498142Y-91807751D01*
X114555285Y-91779179D01*
X114641000Y-91779179D01*
X114698142Y-91807751D01*
X114726714Y-91836322D01*
X114755285Y-91893465D01*
X114755285Y-92064893D01*
X114726714Y-92122036D01*
X114698142Y-92150608D01*
X114641000Y-92179179D01*
X114555285Y-92179179D01*
X115012428Y-91779179D02*
X115012428Y-92179179D01*
X115012428Y-91836322D02*
X115041000Y-91807751D01*
X115098142Y-91779179D01*
X115183857Y-91779179D01*
X115241000Y-91807751D01*
X115269571Y-91864893D01*
X115269571Y-92179179D01*
X24911619Y-18081878D02*
X24911619Y-17605688D01*
X24435428Y-17558069D01*
X24483047Y-17605688D01*
X24530666Y-17700926D01*
X24530666Y-17939021D01*
X24483047Y-18034259D01*
X24435428Y-18081878D01*
X24340190Y-18129497D01*
X24102095Y-18129497D01*
X24006857Y-18081878D01*
X23959238Y-18034259D01*
X23911619Y-17939021D01*
X23911619Y-17700926D01*
X23959238Y-17605688D01*
X24006857Y-17558069D01*
X24911619Y-18415212D02*
X23911619Y-18748545D01*
X24911619Y-19081878D01*
X72311619Y-18081878D02*
X72311619Y-17605688D01*
X71835428Y-17558069D01*
X71883047Y-17605688D01*
X71930666Y-17700926D01*
X71930666Y-17939021D01*
X71883047Y-18034259D01*
X71835428Y-18081878D01*
X71740190Y-18129497D01*
X71502095Y-18129497D01*
X71406857Y-18081878D01*
X71359238Y-18034259D01*
X71311619Y-17939021D01*
X71311619Y-17700926D01*
X71359238Y-17605688D01*
X71406857Y-17558069D01*
X72311619Y-18415212D02*
X71311619Y-18748545D01*
X72311619Y-19081878D01*
X119711619Y-18081878D02*
X119711619Y-17605688D01*
X119235428Y-17558069D01*
X119283047Y-17605688D01*
X119330666Y-17700926D01*
X119330666Y-17939021D01*
X119283047Y-18034259D01*
X119235428Y-18081878D01*
X119140190Y-18129497D01*
X118902095Y-18129497D01*
X118806857Y-18081878D01*
X118759238Y-18034259D01*
X118711619Y-17939021D01*
X118711619Y-17700926D01*
X118759238Y-17605688D01*
X118806857Y-17558069D01*
X119711619Y-18415212D02*
X118711619Y-18748545D01*
X119711619Y-19081878D01*
X24911619Y-78381874D02*
X24911619Y-77905684D01*
X24435428Y-77858065D01*
X24483047Y-77905684D01*
X24530666Y-78000922D01*
X24530666Y-78239017D01*
X24483047Y-78334255D01*
X24435428Y-78381874D01*
X24340190Y-78429493D01*
X24102095Y-78429493D01*
X24006857Y-78381874D01*
X23959238Y-78334255D01*
X23911619Y-78239017D01*
X23911619Y-78000922D01*
X23959238Y-77905684D01*
X24006857Y-77858065D01*
X24911619Y-78715208D02*
X23911619Y-79048541D01*
X24911619Y-79381874D01*
X72311619Y-78381874D02*
X72311619Y-77905684D01*
X71835428Y-77858065D01*
X71883047Y-77905684D01*
X71930666Y-78000922D01*
X71930666Y-78239017D01*
X71883047Y-78334255D01*
X71835428Y-78381874D01*
X71740190Y-78429493D01*
X71502095Y-78429493D01*
X71406857Y-78381874D01*
X71359238Y-78334255D01*
X71311619Y-78239017D01*
X71311619Y-78000922D01*
X71359238Y-77905684D01*
X71406857Y-77858065D01*
X72311619Y-78715208D02*
X71311619Y-79048541D01*
X72311619Y-79381874D01*
X119711619Y-78381874D02*
X119711619Y-77905684D01*
X119235428Y-77858065D01*
X119283047Y-77905684D01*
X119330666Y-78000922D01*
X119330666Y-78239017D01*
X119283047Y-78334255D01*
X119235428Y-78381874D01*
X119140190Y-78429493D01*
X118902095Y-78429493D01*
X118806857Y-78381874D01*
X118759238Y-78334255D01*
X118711619Y-78239017D01*
X118711619Y-78000922D01*
X118759238Y-77905684D01*
X118806857Y-77858065D01*
X119711619Y-78715208D02*
X118711619Y-79048541D01*
X119711619Y-79381874D01*
D12*
G04 #@! TO.C,C7*
X113569266Y-80861893D02*
X113538314Y-80892846D01*
X113445457Y-80923798D01*
X113383552Y-80923798D01*
X113290695Y-80892846D01*
X113228790Y-80830941D01*
X113197838Y-80769036D01*
X113166885Y-80645227D01*
X113166885Y-80552370D01*
X113197838Y-80428560D01*
X113228790Y-80366655D01*
X113290695Y-80304751D01*
X113383552Y-80273798D01*
X113445457Y-80273798D01*
X113538314Y-80304751D01*
X113569266Y-80335703D01*
X113785933Y-80273798D02*
X114219266Y-80273798D01*
X113940695Y-80923798D01*
G04 #@! TO.C,C6*
X67744066Y-113805693D02*
X67713114Y-113836646D01*
X67620257Y-113867598D01*
X67558352Y-113867598D01*
X67465495Y-113836646D01*
X67403590Y-113774741D01*
X67372638Y-113712836D01*
X67341685Y-113589027D01*
X67341685Y-113496170D01*
X67372638Y-113372360D01*
X67403590Y-113310455D01*
X67465495Y-113248551D01*
X67558352Y-113217598D01*
X67620257Y-113217598D01*
X67713114Y-113248551D01*
X67744066Y-113279503D01*
X68301209Y-113217598D02*
X68177400Y-113217598D01*
X68115495Y-113248551D01*
X68084542Y-113279503D01*
X68022638Y-113372360D01*
X67991685Y-113496170D01*
X67991685Y-113743789D01*
X68022638Y-113805693D01*
X68053590Y-113836646D01*
X68115495Y-113867598D01*
X68239304Y-113867598D01*
X68301209Y-113836646D01*
X68332161Y-113805693D01*
X68363114Y-113743789D01*
X68363114Y-113589027D01*
X68332161Y-113527122D01*
X68301209Y-113496170D01*
X68239304Y-113465217D01*
X68115495Y-113465217D01*
X68053590Y-113496170D01*
X68022638Y-113527122D01*
X67991685Y-113589027D01*
X20344066Y-113805693D02*
X20313114Y-113836646D01*
X20220257Y-113867598D01*
X20158352Y-113867598D01*
X20065495Y-113836646D01*
X20003590Y-113774741D01*
X19972638Y-113712836D01*
X19941685Y-113589027D01*
X19941685Y-113496170D01*
X19972638Y-113372360D01*
X20003590Y-113310455D01*
X20065495Y-113248551D01*
X20158352Y-113217598D01*
X20220257Y-113217598D01*
X20313114Y-113248551D01*
X20344066Y-113279503D01*
X20901209Y-113217598D02*
X20777400Y-113217598D01*
X20715495Y-113248551D01*
X20684542Y-113279503D01*
X20622638Y-113372360D01*
X20591685Y-113496170D01*
X20591685Y-113743789D01*
X20622638Y-113805693D01*
X20653590Y-113836646D01*
X20715495Y-113867598D01*
X20839304Y-113867598D01*
X20901209Y-113836646D01*
X20932161Y-113805693D01*
X20963114Y-113743789D01*
X20963114Y-113589027D01*
X20932161Y-113527122D01*
X20901209Y-113496170D01*
X20839304Y-113465217D01*
X20715495Y-113465217D01*
X20653590Y-113496170D01*
X20622638Y-113527122D01*
X20591685Y-113589027D01*
G04 #@! TO.C,C4*
X115093266Y-101385093D02*
X115062314Y-101416046D01*
X114969457Y-101446998D01*
X114907552Y-101446998D01*
X114814695Y-101416046D01*
X114752790Y-101354141D01*
X114721838Y-101292236D01*
X114690885Y-101168427D01*
X114690885Y-101075570D01*
X114721838Y-100951760D01*
X114752790Y-100889855D01*
X114814695Y-100827951D01*
X114907552Y-100796998D01*
X114969457Y-100796998D01*
X115062314Y-100827951D01*
X115093266Y-100858903D01*
X115650409Y-101013665D02*
X115650409Y-101446998D01*
X115495647Y-100766046D02*
X115340885Y-101230331D01*
X115743266Y-101230331D01*
G04 #@! TO.C,C7*
X18769266Y-80861893D02*
X18738314Y-80892846D01*
X18645457Y-80923798D01*
X18583552Y-80923798D01*
X18490695Y-80892846D01*
X18428790Y-80830941D01*
X18397838Y-80769036D01*
X18366885Y-80645227D01*
X18366885Y-80552370D01*
X18397838Y-80428560D01*
X18428790Y-80366655D01*
X18490695Y-80304751D01*
X18583552Y-80273798D01*
X18645457Y-80273798D01*
X18738314Y-80304751D01*
X18769266Y-80335703D01*
X18985933Y-80273798D02*
X19419266Y-80273798D01*
X19140695Y-80923798D01*
X113569266Y-20561897D02*
X113538314Y-20592850D01*
X113445457Y-20623802D01*
X113383552Y-20623802D01*
X113290695Y-20592850D01*
X113228790Y-20530945D01*
X113197838Y-20469040D01*
X113166885Y-20345231D01*
X113166885Y-20252374D01*
X113197838Y-20128564D01*
X113228790Y-20066659D01*
X113290695Y-20004755D01*
X113383552Y-19973802D01*
X113445457Y-19973802D01*
X113538314Y-20004755D01*
X113569266Y-20035707D01*
X113785933Y-19973802D02*
X114219266Y-19973802D01*
X113940695Y-20623802D01*
G04 #@! TO.C,C3*
X36879466Y-88786693D02*
X36848514Y-88817646D01*
X36755657Y-88848598D01*
X36693752Y-88848598D01*
X36600895Y-88817646D01*
X36538990Y-88755741D01*
X36508038Y-88693836D01*
X36477085Y-88570027D01*
X36477085Y-88477170D01*
X36508038Y-88353360D01*
X36538990Y-88291455D01*
X36600895Y-88229551D01*
X36693752Y-88198598D01*
X36755657Y-88198598D01*
X36848514Y-88229551D01*
X36879466Y-88260503D01*
X37096133Y-88198598D02*
X37498514Y-88198598D01*
X37281847Y-88446217D01*
X37374704Y-88446217D01*
X37436609Y-88477170D01*
X37467561Y-88508122D01*
X37498514Y-88570027D01*
X37498514Y-88724789D01*
X37467561Y-88786693D01*
X37436609Y-88817646D01*
X37374704Y-88848598D01*
X37188990Y-88848598D01*
X37127085Y-88817646D01*
X37096133Y-88786693D01*
X131679466Y-88786693D02*
X131648514Y-88817646D01*
X131555657Y-88848598D01*
X131493752Y-88848598D01*
X131400895Y-88817646D01*
X131338990Y-88755741D01*
X131308038Y-88693836D01*
X131277085Y-88570027D01*
X131277085Y-88477170D01*
X131308038Y-88353360D01*
X131338990Y-88291455D01*
X131400895Y-88229551D01*
X131493752Y-88198598D01*
X131555657Y-88198598D01*
X131648514Y-88229551D01*
X131679466Y-88260503D01*
X131896133Y-88198598D02*
X132298514Y-88198598D01*
X132081847Y-88446217D01*
X132174704Y-88446217D01*
X132236609Y-88477170D01*
X132267561Y-88508122D01*
X132298514Y-88570027D01*
X132298514Y-88724789D01*
X132267561Y-88786693D01*
X132236609Y-88817646D01*
X132174704Y-88848598D01*
X131988990Y-88848598D01*
X131927085Y-88817646D01*
X131896133Y-88786693D01*
G04 #@! TO.C,C1*
X131704866Y-40983497D02*
X131673914Y-41014450D01*
X131581057Y-41045402D01*
X131519152Y-41045402D01*
X131426295Y-41014450D01*
X131364390Y-40952545D01*
X131333438Y-40890640D01*
X131302485Y-40766831D01*
X131302485Y-40673974D01*
X131333438Y-40550164D01*
X131364390Y-40488259D01*
X131426295Y-40426355D01*
X131519152Y-40395402D01*
X131581057Y-40395402D01*
X131673914Y-40426355D01*
X131704866Y-40457307D01*
X132323914Y-41045402D02*
X131952485Y-41045402D01*
X132138200Y-41045402D02*
X132138200Y-40395402D01*
X132076295Y-40488259D01*
X132014390Y-40550164D01*
X131952485Y-40581116D01*
G04 #@! TO.C,C5*
X36625466Y-113831093D02*
X36594514Y-113862046D01*
X36501657Y-113892998D01*
X36439752Y-113892998D01*
X36346895Y-113862046D01*
X36284990Y-113800141D01*
X36254038Y-113738236D01*
X36223085Y-113614427D01*
X36223085Y-113521570D01*
X36254038Y-113397760D01*
X36284990Y-113335855D01*
X36346895Y-113273951D01*
X36439752Y-113242998D01*
X36501657Y-113242998D01*
X36594514Y-113273951D01*
X36625466Y-113304903D01*
X37213561Y-113242998D02*
X36904038Y-113242998D01*
X36873085Y-113552522D01*
X36904038Y-113521570D01*
X36965942Y-113490617D01*
X37120704Y-113490617D01*
X37182609Y-113521570D01*
X37213561Y-113552522D01*
X37244514Y-113614427D01*
X37244514Y-113769189D01*
X37213561Y-113831093D01*
X37182609Y-113862046D01*
X37120704Y-113892998D01*
X36965942Y-113892998D01*
X36904038Y-113862046D01*
X36873085Y-113831093D01*
G04 #@! TO.C,C2*
X67667866Y-88786693D02*
X67636914Y-88817646D01*
X67544057Y-88848598D01*
X67482152Y-88848598D01*
X67389295Y-88817646D01*
X67327390Y-88755741D01*
X67296438Y-88693836D01*
X67265485Y-88570027D01*
X67265485Y-88477170D01*
X67296438Y-88353360D01*
X67327390Y-88291455D01*
X67389295Y-88229551D01*
X67482152Y-88198598D01*
X67544057Y-88198598D01*
X67636914Y-88229551D01*
X67667866Y-88260503D01*
X67915485Y-88260503D02*
X67946438Y-88229551D01*
X68008342Y-88198598D01*
X68163104Y-88198598D01*
X68225009Y-88229551D01*
X68255961Y-88260503D01*
X68286914Y-88322408D01*
X68286914Y-88384312D01*
X68255961Y-88477170D01*
X67884533Y-88848598D01*
X68286914Y-88848598D01*
G04 #@! TO.C,C6*
X115144066Y-53505697D02*
X115113114Y-53536650D01*
X115020257Y-53567602D01*
X114958352Y-53567602D01*
X114865495Y-53536650D01*
X114803590Y-53474745D01*
X114772638Y-53412840D01*
X114741685Y-53289031D01*
X114741685Y-53196174D01*
X114772638Y-53072364D01*
X114803590Y-53010459D01*
X114865495Y-52948555D01*
X114958352Y-52917602D01*
X115020257Y-52917602D01*
X115113114Y-52948555D01*
X115144066Y-52979507D01*
X115701209Y-52917602D02*
X115577400Y-52917602D01*
X115515495Y-52948555D01*
X115484542Y-52979507D01*
X115422638Y-53072364D01*
X115391685Y-53196174D01*
X115391685Y-53443793D01*
X115422638Y-53505697D01*
X115453590Y-53536650D01*
X115515495Y-53567602D01*
X115639304Y-53567602D01*
X115701209Y-53536650D01*
X115732161Y-53505697D01*
X115763114Y-53443793D01*
X115763114Y-53289031D01*
X115732161Y-53227126D01*
X115701209Y-53196174D01*
X115639304Y-53165221D01*
X115515495Y-53165221D01*
X115453590Y-53196174D01*
X115422638Y-53227126D01*
X115391685Y-53289031D01*
G04 #@! TO.C,C5*
X36625466Y-53531097D02*
X36594514Y-53562050D01*
X36501657Y-53593002D01*
X36439752Y-53593002D01*
X36346895Y-53562050D01*
X36284990Y-53500145D01*
X36254038Y-53438240D01*
X36223085Y-53314431D01*
X36223085Y-53221574D01*
X36254038Y-53097764D01*
X36284990Y-53035859D01*
X36346895Y-52973955D01*
X36439752Y-52943002D01*
X36501657Y-52943002D01*
X36594514Y-52973955D01*
X36625466Y-53004907D01*
X37213561Y-52943002D02*
X36904038Y-52943002D01*
X36873085Y-53252526D01*
X36904038Y-53221574D01*
X36965942Y-53190621D01*
X37120704Y-53190621D01*
X37182609Y-53221574D01*
X37213561Y-53252526D01*
X37244514Y-53314431D01*
X37244514Y-53469193D01*
X37213561Y-53531097D01*
X37182609Y-53562050D01*
X37120704Y-53593002D01*
X36965942Y-53593002D01*
X36904038Y-53562050D01*
X36873085Y-53531097D01*
G04 #@! TO.C,C3*
X84279466Y-28486697D02*
X84248514Y-28517650D01*
X84155657Y-28548602D01*
X84093752Y-28548602D01*
X84000895Y-28517650D01*
X83938990Y-28455745D01*
X83908038Y-28393840D01*
X83877085Y-28270031D01*
X83877085Y-28177174D01*
X83908038Y-28053364D01*
X83938990Y-27991459D01*
X84000895Y-27929555D01*
X84093752Y-27898602D01*
X84155657Y-27898602D01*
X84248514Y-27929555D01*
X84279466Y-27960507D01*
X84496133Y-27898602D02*
X84898514Y-27898602D01*
X84681847Y-28146221D01*
X84774704Y-28146221D01*
X84836609Y-28177174D01*
X84867561Y-28208126D01*
X84898514Y-28270031D01*
X84898514Y-28424793D01*
X84867561Y-28486697D01*
X84836609Y-28517650D01*
X84774704Y-28548602D01*
X84588990Y-28548602D01*
X84527085Y-28517650D01*
X84496133Y-28486697D01*
G04 #@! TO.C,C5*
X131425466Y-53531097D02*
X131394514Y-53562050D01*
X131301657Y-53593002D01*
X131239752Y-53593002D01*
X131146895Y-53562050D01*
X131084990Y-53500145D01*
X131054038Y-53438240D01*
X131023085Y-53314431D01*
X131023085Y-53221574D01*
X131054038Y-53097764D01*
X131084990Y-53035859D01*
X131146895Y-52973955D01*
X131239752Y-52943002D01*
X131301657Y-52943002D01*
X131394514Y-52973955D01*
X131425466Y-53004907D01*
X132013561Y-52943002D02*
X131704038Y-52943002D01*
X131673085Y-53252526D01*
X131704038Y-53221574D01*
X131765942Y-53190621D01*
X131920704Y-53190621D01*
X131982609Y-53221574D01*
X132013561Y-53252526D01*
X132044514Y-53314431D01*
X132044514Y-53469193D01*
X132013561Y-53531097D01*
X131982609Y-53562050D01*
X131920704Y-53593002D01*
X131765942Y-53593002D01*
X131704038Y-53562050D01*
X131673085Y-53531097D01*
G04 #@! TO.C,C4*
X20293266Y-101385093D02*
X20262314Y-101416046D01*
X20169457Y-101446998D01*
X20107552Y-101446998D01*
X20014695Y-101416046D01*
X19952790Y-101354141D01*
X19921838Y-101292236D01*
X19890885Y-101168427D01*
X19890885Y-101075570D01*
X19921838Y-100951760D01*
X19952790Y-100889855D01*
X20014695Y-100827951D01*
X20107552Y-100796998D01*
X20169457Y-100796998D01*
X20262314Y-100827951D01*
X20293266Y-100858903D01*
X20850409Y-101013665D02*
X20850409Y-101446998D01*
X20695647Y-100766046D02*
X20540885Y-101230331D01*
X20943266Y-101230331D01*
X67693266Y-41085097D02*
X67662314Y-41116050D01*
X67569457Y-41147002D01*
X67507552Y-41147002D01*
X67414695Y-41116050D01*
X67352790Y-41054145D01*
X67321838Y-40992240D01*
X67290885Y-40868431D01*
X67290885Y-40775574D01*
X67321838Y-40651764D01*
X67352790Y-40589859D01*
X67414695Y-40527955D01*
X67507552Y-40497002D01*
X67569457Y-40497002D01*
X67662314Y-40527955D01*
X67693266Y-40558907D01*
X68250409Y-40713669D02*
X68250409Y-41147002D01*
X68095647Y-40466050D02*
X67940885Y-40930335D01*
X68343266Y-40930335D01*
G04 #@! TO.C,C7*
X18769266Y-20561897D02*
X18738314Y-20592850D01*
X18645457Y-20623802D01*
X18583552Y-20623802D01*
X18490695Y-20592850D01*
X18428790Y-20530945D01*
X18397838Y-20469040D01*
X18366885Y-20345231D01*
X18366885Y-20252374D01*
X18397838Y-20128564D01*
X18428790Y-20066659D01*
X18490695Y-20004755D01*
X18583552Y-19973802D01*
X18645457Y-19973802D01*
X18738314Y-20004755D01*
X18769266Y-20035707D01*
X18985933Y-19973802D02*
X19419266Y-19973802D01*
X19140695Y-20623802D01*
G04 #@! TO.C,C6*
X20344066Y-53505697D02*
X20313114Y-53536650D01*
X20220257Y-53567602D01*
X20158352Y-53567602D01*
X20065495Y-53536650D01*
X20003590Y-53474745D01*
X19972638Y-53412840D01*
X19941685Y-53289031D01*
X19941685Y-53196174D01*
X19972638Y-53072364D01*
X20003590Y-53010459D01*
X20065495Y-52948555D01*
X20158352Y-52917602D01*
X20220257Y-52917602D01*
X20313114Y-52948555D01*
X20344066Y-52979507D01*
X20901209Y-52917602D02*
X20777400Y-52917602D01*
X20715495Y-52948555D01*
X20684542Y-52979507D01*
X20622638Y-53072364D01*
X20591685Y-53196174D01*
X20591685Y-53443793D01*
X20622638Y-53505697D01*
X20653590Y-53536650D01*
X20715495Y-53567602D01*
X20839304Y-53567602D01*
X20901209Y-53536650D01*
X20932161Y-53505697D01*
X20963114Y-53443793D01*
X20963114Y-53289031D01*
X20932161Y-53227126D01*
X20901209Y-53196174D01*
X20839304Y-53165221D01*
X20715495Y-53165221D01*
X20653590Y-53196174D01*
X20622638Y-53227126D01*
X20591685Y-53289031D01*
G04 #@! TO.C,C4*
X115093266Y-41085097D02*
X115062314Y-41116050D01*
X114969457Y-41147002D01*
X114907552Y-41147002D01*
X114814695Y-41116050D01*
X114752790Y-41054145D01*
X114721838Y-40992240D01*
X114690885Y-40868431D01*
X114690885Y-40775574D01*
X114721838Y-40651764D01*
X114752790Y-40589859D01*
X114814695Y-40527955D01*
X114907552Y-40497002D01*
X114969457Y-40497002D01*
X115062314Y-40527955D01*
X115093266Y-40558907D01*
X115650409Y-40713669D02*
X115650409Y-41147002D01*
X115495647Y-40466050D02*
X115340885Y-40930335D01*
X115743266Y-40930335D01*
G04 #@! TO.C,C1*
X36904866Y-101283493D02*
X36873914Y-101314446D01*
X36781057Y-101345398D01*
X36719152Y-101345398D01*
X36626295Y-101314446D01*
X36564390Y-101252541D01*
X36533438Y-101190636D01*
X36502485Y-101066827D01*
X36502485Y-100973970D01*
X36533438Y-100850160D01*
X36564390Y-100788255D01*
X36626295Y-100726351D01*
X36719152Y-100695398D01*
X36781057Y-100695398D01*
X36873914Y-100726351D01*
X36904866Y-100757303D01*
X37523914Y-101345398D02*
X37152485Y-101345398D01*
X37338200Y-101345398D02*
X37338200Y-100695398D01*
X37276295Y-100788255D01*
X37214390Y-100850160D01*
X37152485Y-100881112D01*
G04 #@! TO.C,C6*
X67744066Y-53505697D02*
X67713114Y-53536650D01*
X67620257Y-53567602D01*
X67558352Y-53567602D01*
X67465495Y-53536650D01*
X67403590Y-53474745D01*
X67372638Y-53412840D01*
X67341685Y-53289031D01*
X67341685Y-53196174D01*
X67372638Y-53072364D01*
X67403590Y-53010459D01*
X67465495Y-52948555D01*
X67558352Y-52917602D01*
X67620257Y-52917602D01*
X67713114Y-52948555D01*
X67744066Y-52979507D01*
X68301209Y-52917602D02*
X68177400Y-52917602D01*
X68115495Y-52948555D01*
X68084542Y-52979507D01*
X68022638Y-53072364D01*
X67991685Y-53196174D01*
X67991685Y-53443793D01*
X68022638Y-53505697D01*
X68053590Y-53536650D01*
X68115495Y-53567602D01*
X68239304Y-53567602D01*
X68301209Y-53536650D01*
X68332161Y-53505697D01*
X68363114Y-53443793D01*
X68363114Y-53289031D01*
X68332161Y-53227126D01*
X68301209Y-53196174D01*
X68239304Y-53165221D01*
X68115495Y-53165221D01*
X68053590Y-53196174D01*
X68022638Y-53227126D01*
X67991685Y-53289031D01*
G04 #@! TO.C,C7*
X66169266Y-20561897D02*
X66138314Y-20592850D01*
X66045457Y-20623802D01*
X65983552Y-20623802D01*
X65890695Y-20592850D01*
X65828790Y-20530945D01*
X65797838Y-20469040D01*
X65766885Y-20345231D01*
X65766885Y-20252374D01*
X65797838Y-20128564D01*
X65828790Y-20066659D01*
X65890695Y-20004755D01*
X65983552Y-19973802D01*
X66045457Y-19973802D01*
X66138314Y-20004755D01*
X66169266Y-20035707D01*
X66385933Y-19973802D02*
X66819266Y-19973802D01*
X66540695Y-20623802D01*
G04 #@! TO.C,C6*
X115144066Y-113805693D02*
X115113114Y-113836646D01*
X115020257Y-113867598D01*
X114958352Y-113867598D01*
X114865495Y-113836646D01*
X114803590Y-113774741D01*
X114772638Y-113712836D01*
X114741685Y-113589027D01*
X114741685Y-113496170D01*
X114772638Y-113372360D01*
X114803590Y-113310455D01*
X114865495Y-113248551D01*
X114958352Y-113217598D01*
X115020257Y-113217598D01*
X115113114Y-113248551D01*
X115144066Y-113279503D01*
X115701209Y-113217598D02*
X115577400Y-113217598D01*
X115515495Y-113248551D01*
X115484542Y-113279503D01*
X115422638Y-113372360D01*
X115391685Y-113496170D01*
X115391685Y-113743789D01*
X115422638Y-113805693D01*
X115453590Y-113836646D01*
X115515495Y-113867598D01*
X115639304Y-113867598D01*
X115701209Y-113836646D01*
X115732161Y-113805693D01*
X115763114Y-113743789D01*
X115763114Y-113589027D01*
X115732161Y-113527122D01*
X115701209Y-113496170D01*
X115639304Y-113465217D01*
X115515495Y-113465217D01*
X115453590Y-113496170D01*
X115422638Y-113527122D01*
X115391685Y-113589027D01*
G04 #@! TO.C,C3*
X131679466Y-28486697D02*
X131648514Y-28517650D01*
X131555657Y-28548602D01*
X131493752Y-28548602D01*
X131400895Y-28517650D01*
X131338990Y-28455745D01*
X131308038Y-28393840D01*
X131277085Y-28270031D01*
X131277085Y-28177174D01*
X131308038Y-28053364D01*
X131338990Y-27991459D01*
X131400895Y-27929555D01*
X131493752Y-27898602D01*
X131555657Y-27898602D01*
X131648514Y-27929555D01*
X131679466Y-27960507D01*
X131896133Y-27898602D02*
X132298514Y-27898602D01*
X132081847Y-28146221D01*
X132174704Y-28146221D01*
X132236609Y-28177174D01*
X132267561Y-28208126D01*
X132298514Y-28270031D01*
X132298514Y-28424793D01*
X132267561Y-28486697D01*
X132236609Y-28517650D01*
X132174704Y-28548602D01*
X131988990Y-28548602D01*
X131927085Y-28517650D01*
X131896133Y-28486697D01*
X84279466Y-88786693D02*
X84248514Y-88817646D01*
X84155657Y-88848598D01*
X84093752Y-88848598D01*
X84000895Y-88817646D01*
X83938990Y-88755741D01*
X83908038Y-88693836D01*
X83877085Y-88570027D01*
X83877085Y-88477170D01*
X83908038Y-88353360D01*
X83938990Y-88291455D01*
X84000895Y-88229551D01*
X84093752Y-88198598D01*
X84155657Y-88198598D01*
X84248514Y-88229551D01*
X84279466Y-88260503D01*
X84496133Y-88198598D02*
X84898514Y-88198598D01*
X84681847Y-88446217D01*
X84774704Y-88446217D01*
X84836609Y-88477170D01*
X84867561Y-88508122D01*
X84898514Y-88570027D01*
X84898514Y-88724789D01*
X84867561Y-88786693D01*
X84836609Y-88817646D01*
X84774704Y-88848598D01*
X84588990Y-88848598D01*
X84527085Y-88817646D01*
X84496133Y-88786693D01*
G04 #@! TO.C,C1*
X36904866Y-40983497D02*
X36873914Y-41014450D01*
X36781057Y-41045402D01*
X36719152Y-41045402D01*
X36626295Y-41014450D01*
X36564390Y-40952545D01*
X36533438Y-40890640D01*
X36502485Y-40766831D01*
X36502485Y-40673974D01*
X36533438Y-40550164D01*
X36564390Y-40488259D01*
X36626295Y-40426355D01*
X36719152Y-40395402D01*
X36781057Y-40395402D01*
X36873914Y-40426355D01*
X36904866Y-40457307D01*
X37523914Y-41045402D02*
X37152485Y-41045402D01*
X37338200Y-41045402D02*
X37338200Y-40395402D01*
X37276295Y-40488259D01*
X37214390Y-40550164D01*
X37152485Y-40581116D01*
X84304866Y-101283493D02*
X84273914Y-101314446D01*
X84181057Y-101345398D01*
X84119152Y-101345398D01*
X84026295Y-101314446D01*
X83964390Y-101252541D01*
X83933438Y-101190636D01*
X83902485Y-101066827D01*
X83902485Y-100973970D01*
X83933438Y-100850160D01*
X83964390Y-100788255D01*
X84026295Y-100726351D01*
X84119152Y-100695398D01*
X84181057Y-100695398D01*
X84273914Y-100726351D01*
X84304866Y-100757303D01*
X84923914Y-101345398D02*
X84552485Y-101345398D01*
X84738200Y-101345398D02*
X84738200Y-100695398D01*
X84676295Y-100788255D01*
X84614390Y-100850160D01*
X84552485Y-100881112D01*
G04 #@! TO.C,C5*
X84025466Y-113831093D02*
X83994514Y-113862046D01*
X83901657Y-113892998D01*
X83839752Y-113892998D01*
X83746895Y-113862046D01*
X83684990Y-113800141D01*
X83654038Y-113738236D01*
X83623085Y-113614427D01*
X83623085Y-113521570D01*
X83654038Y-113397760D01*
X83684990Y-113335855D01*
X83746895Y-113273951D01*
X83839752Y-113242998D01*
X83901657Y-113242998D01*
X83994514Y-113273951D01*
X84025466Y-113304903D01*
X84613561Y-113242998D02*
X84304038Y-113242998D01*
X84273085Y-113552522D01*
X84304038Y-113521570D01*
X84365942Y-113490617D01*
X84520704Y-113490617D01*
X84582609Y-113521570D01*
X84613561Y-113552522D01*
X84644514Y-113614427D01*
X84644514Y-113769189D01*
X84613561Y-113831093D01*
X84582609Y-113862046D01*
X84520704Y-113892998D01*
X84365942Y-113892998D01*
X84304038Y-113862046D01*
X84273085Y-113831093D01*
G04 #@! TO.C,C2*
X20267866Y-88786693D02*
X20236914Y-88817646D01*
X20144057Y-88848598D01*
X20082152Y-88848598D01*
X19989295Y-88817646D01*
X19927390Y-88755741D01*
X19896438Y-88693836D01*
X19865485Y-88570027D01*
X19865485Y-88477170D01*
X19896438Y-88353360D01*
X19927390Y-88291455D01*
X19989295Y-88229551D01*
X20082152Y-88198598D01*
X20144057Y-88198598D01*
X20236914Y-88229551D01*
X20267866Y-88260503D01*
X20515485Y-88260503D02*
X20546438Y-88229551D01*
X20608342Y-88198598D01*
X20763104Y-88198598D01*
X20825009Y-88229551D01*
X20855961Y-88260503D01*
X20886914Y-88322408D01*
X20886914Y-88384312D01*
X20855961Y-88477170D01*
X20484533Y-88848598D01*
X20886914Y-88848598D01*
G04 #@! TO.C,C5*
X131425466Y-113831093D02*
X131394514Y-113862046D01*
X131301657Y-113892998D01*
X131239752Y-113892998D01*
X131146895Y-113862046D01*
X131084990Y-113800141D01*
X131054038Y-113738236D01*
X131023085Y-113614427D01*
X131023085Y-113521570D01*
X131054038Y-113397760D01*
X131084990Y-113335855D01*
X131146895Y-113273951D01*
X131239752Y-113242998D01*
X131301657Y-113242998D01*
X131394514Y-113273951D01*
X131425466Y-113304903D01*
X132013561Y-113242998D02*
X131704038Y-113242998D01*
X131673085Y-113552522D01*
X131704038Y-113521570D01*
X131765942Y-113490617D01*
X131920704Y-113490617D01*
X131982609Y-113521570D01*
X132013561Y-113552522D01*
X132044514Y-113614427D01*
X132044514Y-113769189D01*
X132013561Y-113831093D01*
X131982609Y-113862046D01*
X131920704Y-113892998D01*
X131765942Y-113892998D01*
X131704038Y-113862046D01*
X131673085Y-113831093D01*
G04 #@! TO.C,C2*
X67667866Y-28486697D02*
X67636914Y-28517650D01*
X67544057Y-28548602D01*
X67482152Y-28548602D01*
X67389295Y-28517650D01*
X67327390Y-28455745D01*
X67296438Y-28393840D01*
X67265485Y-28270031D01*
X67265485Y-28177174D01*
X67296438Y-28053364D01*
X67327390Y-27991459D01*
X67389295Y-27929555D01*
X67482152Y-27898602D01*
X67544057Y-27898602D01*
X67636914Y-27929555D01*
X67667866Y-27960507D01*
X67915485Y-27960507D02*
X67946438Y-27929555D01*
X68008342Y-27898602D01*
X68163104Y-27898602D01*
X68225009Y-27929555D01*
X68255961Y-27960507D01*
X68286914Y-28022412D01*
X68286914Y-28084316D01*
X68255961Y-28177174D01*
X67884533Y-28548602D01*
X68286914Y-28548602D01*
G04 #@! TO.C,C1*
X84304866Y-40983497D02*
X84273914Y-41014450D01*
X84181057Y-41045402D01*
X84119152Y-41045402D01*
X84026295Y-41014450D01*
X83964390Y-40952545D01*
X83933438Y-40890640D01*
X83902485Y-40766831D01*
X83902485Y-40673974D01*
X83933438Y-40550164D01*
X83964390Y-40488259D01*
X84026295Y-40426355D01*
X84119152Y-40395402D01*
X84181057Y-40395402D01*
X84273914Y-40426355D01*
X84304866Y-40457307D01*
X84923914Y-41045402D02*
X84552485Y-41045402D01*
X84738200Y-41045402D02*
X84738200Y-40395402D01*
X84676295Y-40488259D01*
X84614390Y-40550164D01*
X84552485Y-40581116D01*
X131704866Y-101283493D02*
X131673914Y-101314446D01*
X131581057Y-101345398D01*
X131519152Y-101345398D01*
X131426295Y-101314446D01*
X131364390Y-101252541D01*
X131333438Y-101190636D01*
X131302485Y-101066827D01*
X131302485Y-100973970D01*
X131333438Y-100850160D01*
X131364390Y-100788255D01*
X131426295Y-100726351D01*
X131519152Y-100695398D01*
X131581057Y-100695398D01*
X131673914Y-100726351D01*
X131704866Y-100757303D01*
X132323914Y-101345398D02*
X131952485Y-101345398D01*
X132138200Y-101345398D02*
X132138200Y-100695398D01*
X132076295Y-100788255D01*
X132014390Y-100850160D01*
X131952485Y-100881112D01*
G04 #@! TO.C,C2*
X115067866Y-88786693D02*
X115036914Y-88817646D01*
X114944057Y-88848598D01*
X114882152Y-88848598D01*
X114789295Y-88817646D01*
X114727390Y-88755741D01*
X114696438Y-88693836D01*
X114665485Y-88570027D01*
X114665485Y-88477170D01*
X114696438Y-88353360D01*
X114727390Y-88291455D01*
X114789295Y-88229551D01*
X114882152Y-88198598D01*
X114944057Y-88198598D01*
X115036914Y-88229551D01*
X115067866Y-88260503D01*
X115315485Y-88260503D02*
X115346438Y-88229551D01*
X115408342Y-88198598D01*
X115563104Y-88198598D01*
X115625009Y-88229551D01*
X115655961Y-88260503D01*
X115686914Y-88322408D01*
X115686914Y-88384312D01*
X115655961Y-88477170D01*
X115284533Y-88848598D01*
X115686914Y-88848598D01*
X115067866Y-28486697D02*
X115036914Y-28517650D01*
X114944057Y-28548602D01*
X114882152Y-28548602D01*
X114789295Y-28517650D01*
X114727390Y-28455745D01*
X114696438Y-28393840D01*
X114665485Y-28270031D01*
X114665485Y-28177174D01*
X114696438Y-28053364D01*
X114727390Y-27991459D01*
X114789295Y-27929555D01*
X114882152Y-27898602D01*
X114944057Y-27898602D01*
X115036914Y-27929555D01*
X115067866Y-27960507D01*
X115315485Y-27960507D02*
X115346438Y-27929555D01*
X115408342Y-27898602D01*
X115563104Y-27898602D01*
X115625009Y-27929555D01*
X115655961Y-27960507D01*
X115686914Y-28022412D01*
X115686914Y-28084316D01*
X115655961Y-28177174D01*
X115284533Y-28548602D01*
X115686914Y-28548602D01*
G04 #@! TO.C,C7*
X66169266Y-80861893D02*
X66138314Y-80892846D01*
X66045457Y-80923798D01*
X65983552Y-80923798D01*
X65890695Y-80892846D01*
X65828790Y-80830941D01*
X65797838Y-80769036D01*
X65766885Y-80645227D01*
X65766885Y-80552370D01*
X65797838Y-80428560D01*
X65828790Y-80366655D01*
X65890695Y-80304751D01*
X65983552Y-80273798D01*
X66045457Y-80273798D01*
X66138314Y-80304751D01*
X66169266Y-80335703D01*
X66385933Y-80273798D02*
X66819266Y-80273798D01*
X66540695Y-80923798D01*
G04 #@! TO.C,C4*
X67693266Y-101385093D02*
X67662314Y-101416046D01*
X67569457Y-101446998D01*
X67507552Y-101446998D01*
X67414695Y-101416046D01*
X67352790Y-101354141D01*
X67321838Y-101292236D01*
X67290885Y-101168427D01*
X67290885Y-101075570D01*
X67321838Y-100951760D01*
X67352790Y-100889855D01*
X67414695Y-100827951D01*
X67507552Y-100796998D01*
X67569457Y-100796998D01*
X67662314Y-100827951D01*
X67693266Y-100858903D01*
X68250409Y-101013665D02*
X68250409Y-101446998D01*
X68095647Y-100766046D02*
X67940885Y-101230331D01*
X68343266Y-101230331D01*
X20293266Y-41085097D02*
X20262314Y-41116050D01*
X20169457Y-41147002D01*
X20107552Y-41147002D01*
X20014695Y-41116050D01*
X19952790Y-41054145D01*
X19921838Y-40992240D01*
X19890885Y-40868431D01*
X19890885Y-40775574D01*
X19921838Y-40651764D01*
X19952790Y-40589859D01*
X20014695Y-40527955D01*
X20107552Y-40497002D01*
X20169457Y-40497002D01*
X20262314Y-40527955D01*
X20293266Y-40558907D01*
X20850409Y-40713669D02*
X20850409Y-41147002D01*
X20695647Y-40466050D02*
X20540885Y-40930335D01*
X20943266Y-40930335D01*
G04 #@! TO.C,C2*
X20267866Y-28486697D02*
X20236914Y-28517650D01*
X20144057Y-28548602D01*
X20082152Y-28548602D01*
X19989295Y-28517650D01*
X19927390Y-28455745D01*
X19896438Y-28393840D01*
X19865485Y-28270031D01*
X19865485Y-28177174D01*
X19896438Y-28053364D01*
X19927390Y-27991459D01*
X19989295Y-27929555D01*
X20082152Y-27898602D01*
X20144057Y-27898602D01*
X20236914Y-27929555D01*
X20267866Y-27960507D01*
X20515485Y-27960507D02*
X20546438Y-27929555D01*
X20608342Y-27898602D01*
X20763104Y-27898602D01*
X20825009Y-27929555D01*
X20855961Y-27960507D01*
X20886914Y-28022412D01*
X20886914Y-28084316D01*
X20855961Y-28177174D01*
X20484533Y-28548602D01*
X20886914Y-28548602D01*
G04 #@! TO.C,C5*
X84025466Y-53531097D02*
X83994514Y-53562050D01*
X83901657Y-53593002D01*
X83839752Y-53593002D01*
X83746895Y-53562050D01*
X83684990Y-53500145D01*
X83654038Y-53438240D01*
X83623085Y-53314431D01*
X83623085Y-53221574D01*
X83654038Y-53097764D01*
X83684990Y-53035859D01*
X83746895Y-52973955D01*
X83839752Y-52943002D01*
X83901657Y-52943002D01*
X83994514Y-52973955D01*
X84025466Y-53004907D01*
X84613561Y-52943002D02*
X84304038Y-52943002D01*
X84273085Y-53252526D01*
X84304038Y-53221574D01*
X84365942Y-53190621D01*
X84520704Y-53190621D01*
X84582609Y-53221574D01*
X84613561Y-53252526D01*
X84644514Y-53314431D01*
X84644514Y-53469193D01*
X84613561Y-53531097D01*
X84582609Y-53562050D01*
X84520704Y-53593002D01*
X84365942Y-53593002D01*
X84304038Y-53562050D01*
X84273085Y-53531097D01*
G04 #@! TO.C,C3*
X36879466Y-28486697D02*
X36848514Y-28517650D01*
X36755657Y-28548602D01*
X36693752Y-28548602D01*
X36600895Y-28517650D01*
X36538990Y-28455745D01*
X36508038Y-28393840D01*
X36477085Y-28270031D01*
X36477085Y-28177174D01*
X36508038Y-28053364D01*
X36538990Y-27991459D01*
X36600895Y-27929555D01*
X36693752Y-27898602D01*
X36755657Y-27898602D01*
X36848514Y-27929555D01*
X36879466Y-27960507D01*
X37096133Y-27898602D02*
X37498514Y-27898602D01*
X37281847Y-28146221D01*
X37374704Y-28146221D01*
X37436609Y-28177174D01*
X37467561Y-28208126D01*
X37498514Y-28270031D01*
X37498514Y-28424793D01*
X37467561Y-28486697D01*
X37436609Y-28517650D01*
X37374704Y-28548602D01*
X37188990Y-28548602D01*
X37127085Y-28517650D01*
X37096133Y-28486697D01*
D13*
G04 #@! TO.C,C7*
X115619820Y-81139751D02*
X115900980Y-81139751D01*
X115619820Y-80119751D02*
X115900980Y-80119751D01*
D14*
G04 #@! TO.C,U7*
X126927000Y-23855555D02*
X126927000Y-23255555D01*
X128927000Y-23855555D02*
X128927000Y-23255555D01*
D15*
X127399956Y-25325555D02*
G75*
G03*
X127399956Y-25325555I-102956J0D01*
G01*
D14*
G04 #@! TO.C,U6*
X71780000Y-109301551D02*
X71780000Y-108701551D01*
X73780000Y-109301551D02*
X73780000Y-108701551D01*
D15*
X72252956Y-110771551D02*
G75*
G03*
X72252956Y-110771551I-102956J0D01*
G01*
D13*
G04 #@! TO.C,SW1*
X69735000Y-25281755D02*
X69735000Y-21981755D01*
X67235000Y-25281755D02*
X66935000Y-25281755D01*
X69735000Y-21981755D02*
X69435000Y-21981755D01*
X66935000Y-25281755D02*
X66935000Y-21981755D01*
X66935000Y-21981755D02*
X67235000Y-21981755D01*
X69435000Y-25281755D02*
X69735000Y-25281755D01*
G04 #@! TO.C,C6*
X68169020Y-112762751D02*
X68450180Y-112762751D01*
X68169020Y-111742751D02*
X68450180Y-111742751D01*
X20769020Y-111742751D02*
X21050180Y-111742751D01*
X20769020Y-112762751D02*
X21050180Y-112762751D01*
D14*
G04 #@! TO.C,U10*
X40890000Y-84155551D02*
X40890000Y-83555551D01*
X42890000Y-84155551D02*
X42890000Y-83555551D01*
D15*
X41362956Y-85625551D02*
G75*
G03*
X41362956Y-85625551I-102956J0D01*
G01*
D13*
G04 #@! TO.C,C4*
X115569020Y-99271351D02*
X115850180Y-99271351D01*
X115569020Y-100291351D02*
X115850180Y-100291351D01*
G04 #@! TO.C,SW2*
X22035000Y-37803955D02*
X22335000Y-37803955D01*
X19535000Y-37803955D02*
X19535000Y-34503955D01*
X19535000Y-34503955D02*
X19835000Y-34503955D01*
X22335000Y-34503955D02*
X22035000Y-34503955D01*
X19835000Y-37803955D02*
X19535000Y-37803955D01*
X22335000Y-37803955D02*
X22335000Y-34503955D01*
X22035000Y-98103951D02*
X22335000Y-98103951D01*
X19535000Y-98103951D02*
X19535000Y-94803951D01*
X19535000Y-94803951D02*
X19835000Y-94803951D01*
X22335000Y-98103951D02*
X22335000Y-94803951D01*
X19835000Y-98103951D02*
X19535000Y-98103951D01*
X22335000Y-94803951D02*
X22035000Y-94803951D01*
G04 #@! TO.C,SW6*
X36345000Y-37778555D02*
X36045000Y-37778555D01*
X38545000Y-37778555D02*
X38845000Y-37778555D01*
X38845000Y-34478555D02*
X38545000Y-34478555D01*
X36045000Y-34478555D02*
X36345000Y-34478555D01*
X36045000Y-37778555D02*
X36045000Y-34478555D01*
X38845000Y-37778555D02*
X38845000Y-34478555D01*
D14*
G04 #@! TO.C,U9*
X34127000Y-48874555D02*
X34127000Y-48274555D01*
X32127000Y-48874555D02*
X32127000Y-48274555D01*
D15*
X32599956Y-50344555D02*
G75*
G03*
X32599956Y-50344555I-102956J0D01*
G01*
D14*
G04 #@! TO.C,U5*
X119180000Y-36428555D02*
X119180000Y-35828555D01*
X121180000Y-36428555D02*
X121180000Y-35828555D01*
D15*
X119652956Y-37898555D02*
G75*
G03*
X119652956Y-37898555I-102956J0D01*
G01*
D13*
G04 #@! TO.C,SW4*
X133645000Y-110600751D02*
X133645000Y-107300751D01*
X130845000Y-110600751D02*
X130845000Y-107300751D01*
X131145000Y-110600751D02*
X130845000Y-110600751D01*
X130845000Y-107300751D02*
X131145000Y-107300751D01*
X133345000Y-110600751D02*
X133645000Y-110600751D01*
X133645000Y-107300751D02*
X133345000Y-107300751D01*
D14*
G04 #@! TO.C,U12*
X135690000Y-48874555D02*
X135690000Y-48274555D01*
X137690000Y-48874555D02*
X137690000Y-48274555D01*
D15*
X136162956Y-50344555D02*
G75*
G03*
X136162956Y-50344555I-102956J0D01*
G01*
D13*
G04 #@! TO.C,C7*
X20819820Y-81139751D02*
X21100980Y-81139751D01*
X20819820Y-80119751D02*
X21100980Y-80119751D01*
D14*
G04 #@! TO.C,U6*
X24380000Y-109301551D02*
X24380000Y-108701551D01*
X26380000Y-109301551D02*
X26380000Y-108701551D01*
D15*
X24852956Y-110771551D02*
G75*
G03*
X24852956Y-110771551I-102956J0D01*
G01*
D14*
G04 #@! TO.C,U2*
X110290000Y-36466077D02*
X110290000Y-35866077D01*
X112290000Y-36466077D02*
X112290000Y-35866077D01*
D15*
X110762956Y-37936077D02*
G75*
G03*
X110762956Y-37936077I-102956J0D01*
G01*
D13*
G04 #@! TO.C,SW4*
X38845000Y-50300755D02*
X38845000Y-47000755D01*
X38845000Y-47000755D02*
X38545000Y-47000755D01*
X36345000Y-50300755D02*
X36045000Y-50300755D01*
X38545000Y-50300755D02*
X38845000Y-50300755D01*
X36045000Y-50300755D02*
X36045000Y-47000755D01*
X36045000Y-47000755D02*
X36345000Y-47000755D01*
G04 #@! TO.C,SW6*
X36045000Y-94778551D02*
X36345000Y-94778551D01*
X38845000Y-94778551D02*
X38545000Y-94778551D01*
X36045000Y-98078551D02*
X36045000Y-94778551D01*
X36345000Y-98078551D02*
X36045000Y-98078551D01*
X38845000Y-98078551D02*
X38845000Y-94778551D01*
X38545000Y-98078551D02*
X38845000Y-98078551D01*
G04 #@! TO.C,SW5*
X36045000Y-25307155D02*
X36045000Y-22007155D01*
X36345000Y-25307155D02*
X36045000Y-25307155D01*
X38845000Y-25307155D02*
X38845000Y-22007155D01*
X38845000Y-22007155D02*
X38545000Y-22007155D01*
X36045000Y-22007155D02*
X36345000Y-22007155D01*
X38545000Y-25307155D02*
X38845000Y-25307155D01*
G04 #@! TO.C,C7*
X115619820Y-19819755D02*
X115900980Y-19819755D01*
X115619820Y-20839755D02*
X115900980Y-20839755D01*
G04 #@! TO.C,C3*
X37304420Y-87769151D02*
X37585580Y-87769151D01*
X37304420Y-86749151D02*
X37585580Y-86749151D01*
D14*
G04 #@! TO.C,U8*
X32127000Y-96728551D02*
X32127000Y-96128551D01*
X34127000Y-96728551D02*
X34127000Y-96128551D01*
D15*
X32599956Y-98198551D02*
G75*
G03*
X32599956Y-98198551I-102956J0D01*
G01*
D14*
X128927000Y-36428555D02*
X128927000Y-35828555D01*
X126927000Y-36428555D02*
X126927000Y-35828555D01*
D15*
X127399956Y-37898555D02*
G75*
G03*
X127399956Y-37898555I-102956J0D01*
G01*
D14*
G04 #@! TO.C,U12*
X42890000Y-48874555D02*
X42890000Y-48274555D01*
X40890000Y-48874555D02*
X40890000Y-48274555D01*
D15*
X41362956Y-50344555D02*
G75*
G03*
X41362956Y-50344555I-102956J0D01*
G01*
D13*
G04 #@! TO.C,C3*
X132104420Y-87769151D02*
X132385580Y-87769151D01*
X132104420Y-86749151D02*
X132385580Y-86749151D01*
D14*
G04 #@! TO.C,U9*
X128927000Y-109174551D02*
X128927000Y-108574551D01*
X126927000Y-109174551D02*
X126927000Y-108574551D01*
D15*
X127399956Y-110644551D02*
G75*
G03*
X127399956Y-110644551I-102956J0D01*
G01*
D13*
G04 #@! TO.C,C1*
X132129820Y-38920555D02*
X132410980Y-38920555D01*
X132129820Y-39940555D02*
X132410980Y-39940555D01*
G04 #@! TO.C,SW6*
X83745000Y-37778555D02*
X83445000Y-37778555D01*
X83445000Y-37778555D02*
X83445000Y-34478555D01*
X86245000Y-34478555D02*
X85945000Y-34478555D01*
X86245000Y-37778555D02*
X86245000Y-34478555D01*
X83445000Y-34478555D02*
X83745000Y-34478555D01*
X85945000Y-37778555D02*
X86245000Y-37778555D01*
D14*
G04 #@! TO.C,U9*
X81527000Y-48874555D02*
X81527000Y-48274555D01*
X79527000Y-48874555D02*
X79527000Y-48274555D01*
D15*
X79999956Y-50344555D02*
G75*
G03*
X79999956Y-50344555I-102956J0D01*
G01*
D13*
G04 #@! TO.C,C5*
X37304420Y-111742751D02*
X37585580Y-111742751D01*
X37304420Y-112762751D02*
X37585580Y-112762751D01*
D14*
G04 #@! TO.C,U5*
X26380000Y-96728551D02*
X26380000Y-96128551D01*
X24380000Y-96728551D02*
X24380000Y-96128551D01*
D15*
X24852956Y-98198551D02*
G75*
G03*
X24852956Y-98198551I-102956J0D01*
G01*
D13*
G04 #@! TO.C,C2*
X68169020Y-87743751D02*
X68450180Y-87743751D01*
X68169020Y-86723751D02*
X68450180Y-86723751D01*
G04 #@! TO.C,J1*
X128650600Y-11345555D02*
X118770600Y-11345555D01*
X128770600Y-15815555D02*
X128770600Y-16805555D01*
X129820600Y-15815555D02*
X128770600Y-15815555D01*
X129820600Y-13315555D02*
X129820600Y-15815555D01*
X117600600Y-15815555D02*
X118650600Y-15815555D01*
X117600600Y-13315555D02*
X117600600Y-15815555D01*
D14*
G04 #@! TO.C,U5*
X26380000Y-36428555D02*
X26380000Y-35828555D01*
X24380000Y-36428555D02*
X24380000Y-35828555D01*
D15*
X24852956Y-37898555D02*
G75*
G03*
X24852956Y-37898555I-102956J0D01*
G01*
D14*
G04 #@! TO.C,U1*
X63017000Y-84282551D02*
X63017000Y-83682551D01*
X65017000Y-84282551D02*
X65017000Y-83682551D01*
D15*
X63489956Y-85752551D02*
G75*
G03*
X63489956Y-85752551I-102956J0D01*
G01*
D13*
G04 #@! TO.C,C6*
X115569020Y-52462755D02*
X115850180Y-52462755D01*
X115569020Y-51442755D02*
X115850180Y-51442755D01*
G04 #@! TO.C,SW1*
X22335000Y-25281755D02*
X22335000Y-21981755D01*
X19535000Y-25281755D02*
X19535000Y-21981755D01*
X22335000Y-21981755D02*
X22035000Y-21981755D01*
X19835000Y-25281755D02*
X19535000Y-25281755D01*
X19535000Y-21981755D02*
X19835000Y-21981755D01*
X22035000Y-25281755D02*
X22335000Y-25281755D01*
D14*
G04 #@! TO.C,U1*
X110417000Y-23982555D02*
X110417000Y-23382555D01*
X112417000Y-23982555D02*
X112417000Y-23382555D01*
D15*
X110889956Y-25452555D02*
G75*
G03*
X110889956Y-25452555I-102956J0D01*
G01*
D14*
G04 #@! TO.C,U3*
X62890000Y-109174551D02*
X62890000Y-108574551D01*
X64890000Y-109174551D02*
X64890000Y-108574551D01*
D15*
X63362956Y-110644551D02*
G75*
G03*
X63362956Y-110644551I-102956J0D01*
G01*
D14*
X112290000Y-109174551D02*
X112290000Y-108574551D01*
X110290000Y-109174551D02*
X110290000Y-108574551D01*
D15*
X110762956Y-110644551D02*
G75*
G03*
X110762956Y-110644551I-102956J0D01*
G01*
D13*
G04 #@! TO.C,SW2*
X69735000Y-94803951D02*
X69435000Y-94803951D01*
X69435000Y-98103951D02*
X69735000Y-98103951D01*
X67235000Y-98103951D02*
X66935000Y-98103951D01*
X66935000Y-94803951D02*
X67235000Y-94803951D01*
X66935000Y-98103951D02*
X66935000Y-94803951D01*
X69735000Y-98103951D02*
X69735000Y-94803951D01*
X114335000Y-94803951D02*
X114635000Y-94803951D01*
X116835000Y-98103951D02*
X117135000Y-98103951D01*
X114635000Y-98103951D02*
X114335000Y-98103951D01*
X117135000Y-94803951D02*
X116835000Y-94803951D01*
X114335000Y-98103951D02*
X114335000Y-94803951D01*
X117135000Y-98103951D02*
X117135000Y-94803951D01*
G04 #@! TO.C,C5*
X37304420Y-51442755D02*
X37585580Y-51442755D01*
X37304420Y-52462755D02*
X37585580Y-52462755D01*
G04 #@! TO.C,C3*
X84704420Y-26449155D02*
X84985580Y-26449155D01*
X84704420Y-27469155D02*
X84985580Y-27469155D01*
D14*
G04 #@! TO.C,U10*
X90290000Y-84155551D02*
X90290000Y-83555551D01*
X88290000Y-84155551D02*
X88290000Y-83555551D01*
D15*
X88762956Y-85625551D02*
G75*
G03*
X88762956Y-85625551I-102956J0D01*
G01*
D13*
G04 #@! TO.C,C5*
X132104420Y-51442755D02*
X132385580Y-51442755D01*
X132104420Y-52462755D02*
X132385580Y-52462755D01*
D14*
G04 #@! TO.C,U4*
X121180000Y-84245029D02*
X121180000Y-83645029D01*
X119180000Y-84245029D02*
X119180000Y-83645029D01*
D15*
X119652956Y-85715029D02*
G75*
G03*
X119652956Y-85715029I-102956J0D01*
G01*
D14*
G04 #@! TO.C,U6*
X26380000Y-49001555D02*
X26380000Y-48401555D01*
X24380000Y-49001555D02*
X24380000Y-48401555D01*
D15*
X24852956Y-50471555D02*
G75*
G03*
X24852956Y-50471555I-102956J0D01*
G01*
D13*
G04 #@! TO.C,J1*
X128770600Y-76115551D02*
X128770600Y-77105551D01*
X129820600Y-73615551D02*
X129820600Y-76115551D01*
X117600600Y-76115551D02*
X118650600Y-76115551D01*
X117600600Y-73615551D02*
X117600600Y-76115551D01*
X129820600Y-76115551D02*
X128770600Y-76115551D01*
X128650600Y-71645551D02*
X118770600Y-71645551D01*
G04 #@! TO.C,C4*
X20769020Y-99271351D02*
X21050180Y-99271351D01*
X20769020Y-100291351D02*
X21050180Y-100291351D01*
X68169020Y-39991355D02*
X68450180Y-39991355D01*
X68169020Y-38971355D02*
X68450180Y-38971355D01*
D14*
G04 #@! TO.C,U6*
X71780000Y-49001555D02*
X71780000Y-48401555D01*
X73780000Y-49001555D02*
X73780000Y-48401555D01*
D15*
X72252956Y-50471555D02*
G75*
G03*
X72252956Y-50471555I-102956J0D01*
G01*
D14*
G04 #@! TO.C,U10*
X90290000Y-23855555D02*
X90290000Y-23255555D01*
X88290000Y-23855555D02*
X88290000Y-23255555D01*
D15*
X88762956Y-25325555D02*
G75*
G03*
X88762956Y-25325555I-102956J0D01*
G01*
D14*
G04 #@! TO.C,U8*
X79527000Y-36428555D02*
X79527000Y-35828555D01*
X81527000Y-36428555D02*
X81527000Y-35828555D01*
D15*
X79999956Y-37898555D02*
G75*
G03*
X79999956Y-37898555I-102956J0D01*
G01*
D13*
G04 #@! TO.C,SW2*
X66935000Y-34503955D02*
X67235000Y-34503955D01*
X66935000Y-37803955D02*
X66935000Y-34503955D01*
X67235000Y-37803955D02*
X66935000Y-37803955D01*
X69735000Y-34503955D02*
X69435000Y-34503955D01*
X69435000Y-37803955D02*
X69735000Y-37803955D01*
X69735000Y-37803955D02*
X69735000Y-34503955D01*
G04 #@! TO.C,SW5*
X133645000Y-25307155D02*
X133645000Y-22007155D01*
X131145000Y-25307155D02*
X130845000Y-25307155D01*
X133645000Y-22007155D02*
X133345000Y-22007155D01*
X130845000Y-25307155D02*
X130845000Y-22007155D01*
X133345000Y-25307155D02*
X133645000Y-25307155D01*
X130845000Y-22007155D02*
X131145000Y-22007155D01*
D14*
G04 #@! TO.C,U12*
X137690000Y-109174551D02*
X137690000Y-108574551D01*
X135690000Y-109174551D02*
X135690000Y-108574551D01*
D15*
X136162956Y-110644551D02*
G75*
G03*
X136162956Y-110644551I-102956J0D01*
G01*
D13*
G04 #@! TO.C,C7*
X20819820Y-19819755D02*
X21100980Y-19819755D01*
X20819820Y-20839755D02*
X21100980Y-20839755D01*
D14*
G04 #@! TO.C,U6*
X121180000Y-49001555D02*
X121180000Y-48401555D01*
X119180000Y-49001555D02*
X119180000Y-48401555D01*
D15*
X119652956Y-50471555D02*
G75*
G03*
X119652956Y-50471555I-102956J0D01*
G01*
D14*
G04 #@! TO.C,U1*
X17617000Y-23982555D02*
X17617000Y-23382555D01*
X15617000Y-23982555D02*
X15617000Y-23382555D01*
D15*
X16089956Y-25452555D02*
G75*
G03*
X16089956Y-25452555I-102956J0D01*
G01*
D14*
G04 #@! TO.C,U3*
X112290000Y-48874555D02*
X112290000Y-48274555D01*
X110290000Y-48874555D02*
X110290000Y-48274555D01*
D15*
X110762956Y-50344555D02*
G75*
G03*
X110762956Y-50344555I-102956J0D01*
G01*
D14*
G04 #@! TO.C,U11*
X41017000Y-36301555D02*
X41017000Y-35701555D01*
X43017000Y-36301555D02*
X43017000Y-35701555D01*
D15*
X41489956Y-37771555D02*
G75*
G03*
X41489956Y-37771555I-102956J0D01*
G01*
D14*
G04 #@! TO.C,U2*
X62890000Y-96766073D02*
X62890000Y-96166073D01*
X64890000Y-96766073D02*
X64890000Y-96166073D01*
D15*
X63362956Y-98236073D02*
G75*
G03*
X63362956Y-98236073I-102956J0D01*
G01*
D13*
G04 #@! TO.C,C6*
X20769020Y-52462755D02*
X21050180Y-52462755D01*
X20769020Y-51442755D02*
X21050180Y-51442755D01*
D14*
G04 #@! TO.C,U3*
X17490000Y-109174551D02*
X17490000Y-108574551D01*
X15490000Y-109174551D02*
X15490000Y-108574551D01*
D15*
X15962956Y-110644551D02*
G75*
G03*
X15962956Y-110644551I-102956J0D01*
G01*
D14*
G04 #@! TO.C,U10*
X137690000Y-23855555D02*
X137690000Y-23255555D01*
X135690000Y-23855555D02*
X135690000Y-23255555D01*
D15*
X136162956Y-25325555D02*
G75*
G03*
X136162956Y-25325555I-102956J0D01*
G01*
D14*
G04 #@! TO.C,U1*
X112417000Y-84282551D02*
X112417000Y-83682551D01*
X110417000Y-84282551D02*
X110417000Y-83682551D01*
D15*
X110889956Y-85752551D02*
G75*
G03*
X110889956Y-85752551I-102956J0D01*
G01*
D14*
G04 #@! TO.C,U10*
X137690000Y-84155551D02*
X137690000Y-83555551D01*
X135690000Y-84155551D02*
X135690000Y-83555551D01*
D15*
X136162956Y-85625551D02*
G75*
G03*
X136162956Y-85625551I-102956J0D01*
G01*
D13*
G04 #@! TO.C,C4*
X115569020Y-38971355D02*
X115850180Y-38971355D01*
X115569020Y-39991355D02*
X115850180Y-39991355D01*
D14*
G04 #@! TO.C,U1*
X63017000Y-23982555D02*
X63017000Y-23382555D01*
X65017000Y-23982555D02*
X65017000Y-23382555D01*
D15*
X63489956Y-25452555D02*
G75*
G03*
X63489956Y-25452555I-102956J0D01*
G01*
D14*
G04 #@! TO.C,U8*
X81527000Y-96728551D02*
X81527000Y-96128551D01*
X79527000Y-96728551D02*
X79527000Y-96128551D01*
D15*
X79999956Y-98198551D02*
G75*
G03*
X79999956Y-98198551I-102956J0D01*
G01*
D14*
G04 #@! TO.C,U7*
X81527000Y-23855555D02*
X81527000Y-23255555D01*
X79527000Y-23855555D02*
X79527000Y-23255555D01*
D15*
X79999956Y-25325555D02*
G75*
G03*
X79999956Y-25325555I-102956J0D01*
G01*
D13*
G04 #@! TO.C,C1*
X37329820Y-100240551D02*
X37610980Y-100240551D01*
X37329820Y-99220551D02*
X37610980Y-99220551D01*
G04 #@! TO.C,SW5*
X38545000Y-85607151D02*
X38845000Y-85607151D01*
X38845000Y-85607151D02*
X38845000Y-82307151D01*
X38845000Y-82307151D02*
X38545000Y-82307151D01*
X36045000Y-82307151D02*
X36345000Y-82307151D01*
X36045000Y-85607151D02*
X36045000Y-82307151D01*
X36345000Y-85607151D02*
X36045000Y-85607151D01*
D14*
G04 #@! TO.C,U1*
X15617000Y-84282551D02*
X15617000Y-83682551D01*
X17617000Y-84282551D02*
X17617000Y-83682551D01*
D15*
X16089956Y-85752551D02*
G75*
G03*
X16089956Y-85752551I-102956J0D01*
G01*
D13*
G04 #@! TO.C,SW1*
X66935000Y-82281751D02*
X67235000Y-82281751D01*
X66935000Y-85581751D02*
X66935000Y-82281751D01*
X67235000Y-85581751D02*
X66935000Y-85581751D01*
X69735000Y-82281751D02*
X69435000Y-82281751D01*
X69435000Y-85581751D02*
X69735000Y-85581751D01*
X69735000Y-85581751D02*
X69735000Y-82281751D01*
G04 #@! TO.C,J1*
X35020600Y-15815555D02*
X33970600Y-15815555D01*
X22800600Y-13315555D02*
X22800600Y-15815555D01*
X33970600Y-15815555D02*
X33970600Y-16805555D01*
X22800600Y-15815555D02*
X23850600Y-15815555D01*
X33850600Y-11345555D02*
X23970600Y-11345555D01*
X35020600Y-13315555D02*
X35020600Y-15815555D01*
G04 #@! TO.C,C6*
X68169020Y-52462755D02*
X68450180Y-52462755D01*
X68169020Y-51442755D02*
X68450180Y-51442755D01*
D14*
G04 #@! TO.C,U7*
X81527000Y-84155551D02*
X81527000Y-83555551D01*
X79527000Y-84155551D02*
X79527000Y-83555551D01*
D15*
X79999956Y-85625551D02*
G75*
G03*
X79999956Y-85625551I-102956J0D01*
G01*
D13*
G04 #@! TO.C,C7*
X68219820Y-19819755D02*
X68500980Y-19819755D01*
X68219820Y-20839755D02*
X68500980Y-20839755D01*
D14*
G04 #@! TO.C,U5*
X121180000Y-96728551D02*
X121180000Y-96128551D01*
X119180000Y-96728551D02*
X119180000Y-96128551D01*
D15*
X119652956Y-98198551D02*
G75*
G03*
X119652956Y-98198551I-102956J0D01*
G01*
D13*
G04 #@! TO.C,SW6*
X86245000Y-94778551D02*
X85945000Y-94778551D01*
X85945000Y-98078551D02*
X86245000Y-98078551D01*
X86245000Y-98078551D02*
X86245000Y-94778551D01*
X83445000Y-94778551D02*
X83745000Y-94778551D01*
X83445000Y-98078551D02*
X83445000Y-94778551D01*
X83745000Y-98078551D02*
X83445000Y-98078551D01*
G04 #@! TO.C,C6*
X115569020Y-111742751D02*
X115850180Y-111742751D01*
X115569020Y-112762751D02*
X115850180Y-112762751D01*
D14*
G04 #@! TO.C,U12*
X88290000Y-109174551D02*
X88290000Y-108574551D01*
X90290000Y-109174551D02*
X90290000Y-108574551D01*
D15*
X88762956Y-110644551D02*
G75*
G03*
X88762956Y-110644551I-102956J0D01*
G01*
D14*
G04 #@! TO.C,U9*
X81527000Y-109174551D02*
X81527000Y-108574551D01*
X79527000Y-109174551D02*
X79527000Y-108574551D01*
D15*
X79999956Y-110644551D02*
G75*
G03*
X79999956Y-110644551I-102956J0D01*
G01*
D14*
G04 #@! TO.C,U5*
X73780000Y-36428555D02*
X73780000Y-35828555D01*
X71780000Y-36428555D02*
X71780000Y-35828555D01*
D15*
X72252956Y-37898555D02*
G75*
G03*
X72252956Y-37898555I-102956J0D01*
G01*
D14*
G04 #@! TO.C,U8*
X128927000Y-96728551D02*
X128927000Y-96128551D01*
X126927000Y-96728551D02*
X126927000Y-96128551D01*
D15*
X127399956Y-98198551D02*
G75*
G03*
X127399956Y-98198551I-102956J0D01*
G01*
D14*
G04 #@! TO.C,U4*
X119180000Y-23945033D02*
X119180000Y-23345033D01*
X121180000Y-23945033D02*
X121180000Y-23345033D01*
D15*
X119652956Y-25415033D02*
G75*
G03*
X119652956Y-25415033I-102956J0D01*
G01*
D13*
G04 #@! TO.C,C3*
X132104420Y-27469155D02*
X132385580Y-27469155D01*
X132104420Y-26449155D02*
X132385580Y-26449155D01*
X84704420Y-86749151D02*
X84985580Y-86749151D01*
X84704420Y-87769151D02*
X84985580Y-87769151D01*
G04 #@! TO.C,SW4*
X83445000Y-110600751D02*
X83445000Y-107300751D01*
X83445000Y-107300751D02*
X83745000Y-107300751D01*
X85945000Y-110600751D02*
X86245000Y-110600751D01*
X86245000Y-107300751D02*
X85945000Y-107300751D01*
X83745000Y-110600751D02*
X83445000Y-110600751D01*
X86245000Y-110600751D02*
X86245000Y-107300751D01*
G04 #@! TO.C,SW3*
X69760400Y-50300755D02*
X69760400Y-47000755D01*
X69460400Y-50300755D02*
X69760400Y-50300755D01*
X69760400Y-47000755D02*
X69460400Y-47000755D01*
X67260400Y-50300755D02*
X66960400Y-50300755D01*
X66960400Y-50300755D02*
X66960400Y-47000755D01*
X66960400Y-47000755D02*
X67260400Y-47000755D01*
G04 #@! TO.C,C1*
X37329820Y-39940555D02*
X37610980Y-39940555D01*
X37329820Y-38920555D02*
X37610980Y-38920555D01*
D14*
G04 #@! TO.C,U2*
X17490000Y-96766073D02*
X17490000Y-96166073D01*
X15490000Y-96766073D02*
X15490000Y-96166073D01*
D15*
X15962956Y-98236073D02*
G75*
G03*
X15962956Y-98236073I-102956J0D01*
G01*
D14*
G04 #@! TO.C,U4*
X24380000Y-84245029D02*
X24380000Y-83645029D01*
X26380000Y-84245029D02*
X26380000Y-83645029D01*
D15*
X24852956Y-85715029D02*
G75*
G03*
X24852956Y-85715029I-102956J0D01*
G01*
D14*
G04 #@! TO.C,U11*
X41017000Y-96601551D02*
X41017000Y-96001551D01*
X43017000Y-96601551D02*
X43017000Y-96001551D01*
D15*
X41489956Y-98071551D02*
G75*
G03*
X41489956Y-98071551I-102956J0D01*
G01*
D14*
G04 #@! TO.C,U6*
X119180000Y-109301551D02*
X119180000Y-108701551D01*
X121180000Y-109301551D02*
X121180000Y-108701551D01*
D15*
X119652956Y-110771551D02*
G75*
G03*
X119652956Y-110771551I-102956J0D01*
G01*
D13*
G04 #@! TO.C,SW5*
X86245000Y-22007155D02*
X85945000Y-22007155D01*
X86245000Y-25307155D02*
X86245000Y-22007155D01*
X83445000Y-22007155D02*
X83745000Y-22007155D01*
X85945000Y-25307155D02*
X86245000Y-25307155D01*
X83745000Y-25307155D02*
X83445000Y-25307155D01*
X83445000Y-25307155D02*
X83445000Y-22007155D01*
D14*
G04 #@! TO.C,U7*
X32127000Y-84155551D02*
X32127000Y-83555551D01*
X34127000Y-84155551D02*
X34127000Y-83555551D01*
D15*
X32599956Y-85625551D02*
G75*
G03*
X32599956Y-85625551I-102956J0D01*
G01*
D13*
G04 #@! TO.C,C1*
X84729820Y-99220551D02*
X85010980Y-99220551D01*
X84729820Y-100240551D02*
X85010980Y-100240551D01*
G04 #@! TO.C,SW3*
X22360400Y-110600751D02*
X22360400Y-107300751D01*
X19860400Y-110600751D02*
X19560400Y-110600751D01*
X22360400Y-107300751D02*
X22060400Y-107300751D01*
X22060400Y-110600751D02*
X22360400Y-110600751D01*
X19560400Y-107300751D02*
X19860400Y-107300751D01*
X19560400Y-110600751D02*
X19560400Y-107300751D01*
D14*
G04 #@! TO.C,U2*
X15490000Y-36466077D02*
X15490000Y-35866077D01*
X17490000Y-36466077D02*
X17490000Y-35866077D01*
D15*
X15962956Y-37936077D02*
G75*
G03*
X15962956Y-37936077I-102956J0D01*
G01*
D14*
X62890000Y-36466077D02*
X62890000Y-35866077D01*
X64890000Y-36466077D02*
X64890000Y-35866077D01*
D15*
X63362956Y-37936077D02*
G75*
G03*
X63362956Y-37936077I-102956J0D01*
G01*
D13*
G04 #@! TO.C,SW1*
X114335000Y-82281751D02*
X114635000Y-82281751D01*
X116835000Y-85581751D02*
X117135000Y-85581751D01*
X117135000Y-85581751D02*
X117135000Y-82281751D01*
X114335000Y-85581751D02*
X114335000Y-82281751D01*
X117135000Y-82281751D02*
X116835000Y-82281751D01*
X114635000Y-85581751D02*
X114335000Y-85581751D01*
D14*
G04 #@! TO.C,U4*
X24380000Y-23945033D02*
X24380000Y-23345033D01*
X26380000Y-23945033D02*
X26380000Y-23345033D01*
D15*
X24852956Y-25415033D02*
G75*
G03*
X24852956Y-25415033I-102956J0D01*
G01*
D14*
G04 #@! TO.C,U11*
X90417000Y-36301555D02*
X90417000Y-35701555D01*
X88417000Y-36301555D02*
X88417000Y-35701555D01*
D15*
X88889956Y-37771555D02*
G75*
G03*
X88889956Y-37771555I-102956J0D01*
G01*
D14*
G04 #@! TO.C,U9*
X34127000Y-109174551D02*
X34127000Y-108574551D01*
X32127000Y-109174551D02*
X32127000Y-108574551D01*
D15*
X32599956Y-110644551D02*
G75*
G03*
X32599956Y-110644551I-102956J0D01*
G01*
D13*
G04 #@! TO.C,SW3*
X116860400Y-50300755D02*
X117160400Y-50300755D01*
X117160400Y-47000755D02*
X116860400Y-47000755D01*
X114660400Y-50300755D02*
X114360400Y-50300755D01*
X117160400Y-50300755D02*
X117160400Y-47000755D01*
X114360400Y-47000755D02*
X114660400Y-47000755D01*
X114360400Y-50300755D02*
X114360400Y-47000755D01*
D14*
G04 #@! TO.C,U9*
X126927000Y-48874555D02*
X126927000Y-48274555D01*
X128927000Y-48874555D02*
X128927000Y-48274555D01*
D15*
X127399956Y-50344555D02*
G75*
G03*
X127399956Y-50344555I-102956J0D01*
G01*
D14*
G04 #@! TO.C,U3*
X62890000Y-48874555D02*
X62890000Y-48274555D01*
X64890000Y-48874555D02*
X64890000Y-48274555D01*
D15*
X63362956Y-50344555D02*
G75*
G03*
X63362956Y-50344555I-102956J0D01*
G01*
D13*
G04 #@! TO.C,SW2*
X117135000Y-34503955D02*
X116835000Y-34503955D01*
X114635000Y-37803955D02*
X114335000Y-37803955D01*
X114335000Y-37803955D02*
X114335000Y-34503955D01*
X116835000Y-37803955D02*
X117135000Y-37803955D01*
X114335000Y-34503955D02*
X114635000Y-34503955D01*
X117135000Y-37803955D02*
X117135000Y-34503955D01*
G04 #@! TO.C,C5*
X84704420Y-112762751D02*
X84985580Y-112762751D01*
X84704420Y-111742751D02*
X84985580Y-111742751D01*
G04 #@! TO.C,C2*
X20769020Y-87743751D02*
X21050180Y-87743751D01*
X20769020Y-86723751D02*
X21050180Y-86723751D01*
D14*
G04 #@! TO.C,U3*
X15490000Y-48874555D02*
X15490000Y-48274555D01*
X17490000Y-48874555D02*
X17490000Y-48274555D01*
D15*
X15962956Y-50344555D02*
G75*
G03*
X15962956Y-50344555I-102956J0D01*
G01*
D13*
G04 #@! TO.C,C5*
X132104420Y-112762751D02*
X132385580Y-112762751D01*
X132104420Y-111742751D02*
X132385580Y-111742751D01*
G04 #@! TO.C,C2*
X68169020Y-27443755D02*
X68450180Y-27443755D01*
X68169020Y-26423755D02*
X68450180Y-26423755D01*
G04 #@! TO.C,SW3*
X69760400Y-110600751D02*
X69760400Y-107300751D01*
X66960400Y-107300751D02*
X67260400Y-107300751D01*
X67260400Y-110600751D02*
X66960400Y-110600751D01*
X69460400Y-110600751D02*
X69760400Y-110600751D01*
X69760400Y-107300751D02*
X69460400Y-107300751D01*
X66960400Y-110600751D02*
X66960400Y-107300751D01*
D14*
G04 #@! TO.C,U4*
X73780000Y-23945033D02*
X73780000Y-23345033D01*
X71780000Y-23945033D02*
X71780000Y-23345033D01*
D15*
X72252956Y-25415033D02*
G75*
G03*
X72252956Y-25415033I-102956J0D01*
G01*
D14*
G04 #@! TO.C,U8*
X32127000Y-36428555D02*
X32127000Y-35828555D01*
X34127000Y-36428555D02*
X34127000Y-35828555D01*
D15*
X32599956Y-37898555D02*
G75*
G03*
X32599956Y-37898555I-102956J0D01*
G01*
D13*
G04 #@! TO.C,J1*
X82420600Y-76115551D02*
X81370600Y-76115551D01*
X81370600Y-76115551D02*
X81370600Y-77105551D01*
X81250600Y-71645551D02*
X71370600Y-71645551D01*
X70200600Y-76115551D02*
X71250600Y-76115551D01*
X82420600Y-73615551D02*
X82420600Y-76115551D01*
X70200600Y-73615551D02*
X70200600Y-76115551D01*
G04 #@! TO.C,C1*
X84729820Y-38920555D02*
X85010980Y-38920555D01*
X84729820Y-39940555D02*
X85010980Y-39940555D01*
X132129820Y-99220551D02*
X132410980Y-99220551D01*
X132129820Y-100240551D02*
X132410980Y-100240551D01*
D14*
G04 #@! TO.C,U2*
X112290000Y-96766073D02*
X112290000Y-96166073D01*
X110290000Y-96766073D02*
X110290000Y-96166073D01*
D15*
X110762956Y-98236073D02*
G75*
G03*
X110762956Y-98236073I-102956J0D01*
G01*
D14*
G04 #@! TO.C,U11*
X137817000Y-96601551D02*
X137817000Y-96001551D01*
X135817000Y-96601551D02*
X135817000Y-96001551D01*
D15*
X136289956Y-98071551D02*
G75*
G03*
X136289956Y-98071551I-102956J0D01*
G01*
D13*
G04 #@! TO.C,J1*
X22800600Y-76115551D02*
X23850600Y-76115551D01*
X35020600Y-76115551D02*
X33970600Y-76115551D01*
X22800600Y-73615551D02*
X22800600Y-76115551D01*
X33970600Y-76115551D02*
X33970600Y-77105551D01*
X33850600Y-71645551D02*
X23970600Y-71645551D01*
X35020600Y-73615551D02*
X35020600Y-76115551D01*
G04 #@! TO.C,C2*
X115569020Y-86723751D02*
X115850180Y-86723751D01*
X115569020Y-87743751D02*
X115850180Y-87743751D01*
G04 #@! TO.C,SW1*
X116835000Y-25281755D02*
X117135000Y-25281755D01*
X114335000Y-25281755D02*
X114335000Y-21981755D01*
X117135000Y-25281755D02*
X117135000Y-21981755D01*
X114335000Y-21981755D02*
X114635000Y-21981755D01*
X117135000Y-21981755D02*
X116835000Y-21981755D01*
X114635000Y-25281755D02*
X114335000Y-25281755D01*
G04 #@! TO.C,C2*
X115569020Y-27443755D02*
X115850180Y-27443755D01*
X115569020Y-26423755D02*
X115850180Y-26423755D01*
G04 #@! TO.C,SW6*
X130845000Y-94778551D02*
X131145000Y-94778551D01*
X133345000Y-98078551D02*
X133645000Y-98078551D01*
X131145000Y-98078551D02*
X130845000Y-98078551D01*
X133645000Y-94778551D02*
X133345000Y-94778551D01*
X130845000Y-98078551D02*
X130845000Y-94778551D01*
X133645000Y-98078551D02*
X133645000Y-94778551D01*
D14*
G04 #@! TO.C,U7*
X128927000Y-84155551D02*
X128927000Y-83555551D01*
X126927000Y-84155551D02*
X126927000Y-83555551D01*
D15*
X127399956Y-85625551D02*
G75*
G03*
X127399956Y-85625551I-102956J0D01*
G01*
D14*
G04 #@! TO.C,U5*
X73780000Y-96728551D02*
X73780000Y-96128551D01*
X71780000Y-96728551D02*
X71780000Y-96128551D01*
D15*
X72252956Y-98198551D02*
G75*
G03*
X72252956Y-98198551I-102956J0D01*
G01*
D13*
G04 #@! TO.C,SW3*
X19560400Y-47000755D02*
X19860400Y-47000755D01*
X22360400Y-47000755D02*
X22060400Y-47000755D01*
X19560400Y-50300755D02*
X19560400Y-47000755D01*
X19860400Y-50300755D02*
X19560400Y-50300755D01*
X22060400Y-50300755D02*
X22360400Y-50300755D01*
X22360400Y-50300755D02*
X22360400Y-47000755D01*
G04 #@! TO.C,SW4*
X86245000Y-50300755D02*
X86245000Y-47000755D01*
X85945000Y-50300755D02*
X86245000Y-50300755D01*
X83445000Y-47000755D02*
X83745000Y-47000755D01*
X83445000Y-50300755D02*
X83445000Y-47000755D01*
X86245000Y-47000755D02*
X85945000Y-47000755D01*
X83745000Y-50300755D02*
X83445000Y-50300755D01*
G04 #@! TO.C,J1*
X82420600Y-13315555D02*
X82420600Y-15815555D01*
X70200600Y-13315555D02*
X70200600Y-15815555D01*
X82420600Y-15815555D02*
X81370600Y-15815555D01*
X70200600Y-15815555D02*
X71250600Y-15815555D01*
X81250600Y-11345555D02*
X71370600Y-11345555D01*
X81370600Y-15815555D02*
X81370600Y-16805555D01*
G04 #@! TO.C,C7*
X68219820Y-81139751D02*
X68500980Y-81139751D01*
X68219820Y-80119751D02*
X68500980Y-80119751D01*
G04 #@! TO.C,SW6*
X130845000Y-37778555D02*
X130845000Y-34478555D01*
X133645000Y-37778555D02*
X133645000Y-34478555D01*
X133345000Y-37778555D02*
X133645000Y-37778555D01*
X133645000Y-34478555D02*
X133345000Y-34478555D01*
X131145000Y-37778555D02*
X130845000Y-37778555D01*
X130845000Y-34478555D02*
X131145000Y-34478555D01*
D14*
G04 #@! TO.C,U4*
X73780000Y-84245029D02*
X73780000Y-83645029D01*
X71780000Y-84245029D02*
X71780000Y-83645029D01*
D15*
X72252956Y-85715029D02*
G75*
G03*
X72252956Y-85715029I-102956J0D01*
G01*
D14*
G04 #@! TO.C,U12*
X42890000Y-109174551D02*
X42890000Y-108574551D01*
X40890000Y-109174551D02*
X40890000Y-108574551D01*
D15*
X41362956Y-110644551D02*
G75*
G03*
X41362956Y-110644551I-102956J0D01*
G01*
D14*
G04 #@! TO.C,U11*
X137817000Y-36301555D02*
X137817000Y-35701555D01*
X135817000Y-36301555D02*
X135817000Y-35701555D01*
D15*
X136289956Y-37771555D02*
G75*
G03*
X136289956Y-37771555I-102956J0D01*
G01*
D13*
G04 #@! TO.C,SW1*
X22035000Y-85581751D02*
X22335000Y-85581751D01*
X19535000Y-82281751D02*
X19835000Y-82281751D01*
X19535000Y-85581751D02*
X19535000Y-82281751D01*
X22335000Y-82281751D02*
X22035000Y-82281751D01*
X19835000Y-85581751D02*
X19535000Y-85581751D01*
X22335000Y-85581751D02*
X22335000Y-82281751D01*
G04 #@! TO.C,SW5*
X86245000Y-82307151D02*
X85945000Y-82307151D01*
X85945000Y-85607151D02*
X86245000Y-85607151D01*
X86245000Y-85607151D02*
X86245000Y-82307151D01*
X83445000Y-82307151D02*
X83745000Y-82307151D01*
X83445000Y-85607151D02*
X83445000Y-82307151D01*
X83745000Y-85607151D02*
X83445000Y-85607151D01*
D14*
G04 #@! TO.C,U11*
X88417000Y-96601551D02*
X88417000Y-96001551D01*
X90417000Y-96601551D02*
X90417000Y-96001551D01*
D15*
X88889956Y-98071551D02*
G75*
G03*
X88889956Y-98071551I-102956J0D01*
G01*
D14*
G04 #@! TO.C,U12*
X90290000Y-48874555D02*
X90290000Y-48274555D01*
X88290000Y-48874555D02*
X88290000Y-48274555D01*
D15*
X88762956Y-50344555D02*
G75*
G03*
X88762956Y-50344555I-102956J0D01*
G01*
D13*
G04 #@! TO.C,C4*
X68169020Y-99271351D02*
X68450180Y-99271351D01*
X68169020Y-100291351D02*
X68450180Y-100291351D01*
X20769020Y-39991355D02*
X21050180Y-39991355D01*
X20769020Y-38971355D02*
X21050180Y-38971355D01*
G04 #@! TO.C,SW4*
X133645000Y-50300755D02*
X133645000Y-47000755D01*
X130845000Y-50300755D02*
X130845000Y-47000755D01*
X133645000Y-47000755D02*
X133345000Y-47000755D01*
X133345000Y-50300755D02*
X133645000Y-50300755D01*
X131145000Y-50300755D02*
X130845000Y-50300755D01*
X130845000Y-47000755D02*
X131145000Y-47000755D01*
G04 #@! TO.C,C2*
X20769020Y-27443755D02*
X21050180Y-27443755D01*
X20769020Y-26423755D02*
X21050180Y-26423755D01*
G04 #@! TO.C,SW3*
X117160400Y-107300751D02*
X116860400Y-107300751D01*
X116860400Y-110600751D02*
X117160400Y-110600751D01*
X117160400Y-110600751D02*
X117160400Y-107300751D01*
X114360400Y-107300751D02*
X114660400Y-107300751D01*
X114360400Y-110600751D02*
X114360400Y-107300751D01*
X114660400Y-110600751D02*
X114360400Y-110600751D01*
G04 #@! TO.C,C5*
X84704420Y-51442755D02*
X84985580Y-51442755D01*
X84704420Y-52462755D02*
X84985580Y-52462755D01*
G04 #@! TO.C,C3*
X37304420Y-27469155D02*
X37585580Y-27469155D01*
X37304420Y-26449155D02*
X37585580Y-26449155D01*
G04 #@! TO.C,SW5*
X131145000Y-85607151D02*
X130845000Y-85607151D01*
X133645000Y-82307151D02*
X133345000Y-82307151D01*
X133645000Y-85607151D02*
X133645000Y-82307151D01*
X130845000Y-85607151D02*
X130845000Y-82307151D01*
X133345000Y-85607151D02*
X133645000Y-85607151D01*
X130845000Y-82307151D02*
X131145000Y-82307151D01*
G04 #@! TO.C,SW4*
X36045000Y-107300751D02*
X36345000Y-107300751D01*
X36345000Y-110600751D02*
X36045000Y-110600751D01*
X38845000Y-110600751D02*
X38845000Y-107300751D01*
X38845000Y-107300751D02*
X38545000Y-107300751D01*
X36045000Y-110600751D02*
X36045000Y-107300751D01*
X38545000Y-110600751D02*
X38845000Y-110600751D01*
D14*
G04 #@! TO.C,U10*
X40890000Y-23855555D02*
X40890000Y-23255555D01*
X42890000Y-23855555D02*
X42890000Y-23255555D01*
D15*
X41362956Y-25325555D02*
G75*
G03*
X41362956Y-25325555I-102956J0D01*
G01*
D14*
G04 #@! TO.C,U7*
X32127000Y-23855555D02*
X32127000Y-23255555D01*
X34127000Y-23855555D02*
X34127000Y-23255555D01*
D15*
X32599956Y-25325555D02*
G75*
G03*
X32599956Y-25325555I-102956J0D01*
G01*
G04 #@! TD*
M02*
