G04 #@! TF.GenerationSoftware,KiCad,Pcbnew,6.0.0-d3dd2cf0fa~116~ubuntu20.04.1*
G04 #@! TF.CreationDate,2023-02-13T12:44:03+00:00*
G04 #@! TF.ProjectId,pixel-pump-ui-board-panel,70697865-6c2d-4707-956d-702d75692d62,rev?*
G04 #@! TF.SameCoordinates,Original*
G04 #@! TF.FileFunction,Soldermask,Top*
G04 #@! TF.FilePolarity,Negative*
%FSLAX46Y46*%
G04 Gerber Fmt 4.6, Leading zero omitted, Abs format (unit mm)*
G04 Created by KiCad (PCBNEW 6.0.0-d3dd2cf0fa~116~ubuntu20.04.1) date 2023-02-13 12:44:03*
%MOMM*%
%LPD*%
G01*
G04 APERTURE LIST*
G04 Aperture macros list*
%AMRoundRect*
0 Rectangle with rounded corners*
0 $1 Rounding radius*
0 $2 $3 $4 $5 $6 $7 $8 $9 X,Y pos of 4 corners*
0 Add a 4 corners polygon primitive as box body*
4,1,4,$2,$3,$4,$5,$6,$7,$8,$9,$2,$3,0*
0 Add four circle primitives for the rounded corners*
1,1,$1+$1,$2,$3*
1,1,$1+$1,$4,$5*
1,1,$1+$1,$6,$7*
1,1,$1+$1,$8,$9*
0 Add four rect primitives between the rounded corners*
20,1,$1+$1,$2,$3,$4,$5,0*
20,1,$1+$1,$4,$5,$6,$7,0*
20,1,$1+$1,$6,$7,$8,$9,0*
20,1,$1+$1,$8,$9,$2,$3,0*%
G04 Aperture macros list end*
%ADD10C,0.500000*%
%ADD11RoundRect,0.225000X-0.225000X-0.250000X0.225000X-0.250000X0.225000X0.250000X-0.225000X0.250000X0*%
%ADD12R,0.700000X0.700000*%
%ADD13R,1.700000X0.900000*%
%ADD14C,3.000000*%
%ADD15C,1.500000*%
%ADD16RoundRect,0.150000X0.150000X0.625000X-0.150000X0.625000X-0.150000X-0.625000X0.150000X-0.625000X0*%
%ADD17RoundRect,0.250000X0.350000X0.650000X-0.350000X0.650000X-0.350000X-0.650000X0.350000X-0.650000X0*%
%ADD18C,1.000000*%
G04 APERTURE END LIST*
D10*
G04 #@! TO.C,REF\u002A\u002A*
X11200001Y-84089551D03*
G04 #@! TD*
D11*
G04 #@! TO.C,C7*
X114985400Y-80629751D03*
X116535400Y-80629751D03*
G04 #@! TD*
D12*
G04 #@! TO.C,U7*
X127377000Y-24470555D03*
X128477000Y-24470555D03*
X128477000Y-22640555D03*
X127377000Y-22640555D03*
G04 #@! TD*
G04 #@! TO.C,U6*
X72230000Y-109916551D03*
X73330000Y-109916551D03*
X73330000Y-108086551D03*
X72230000Y-108086551D03*
G04 #@! TD*
D13*
G04 #@! TO.C,SW1*
X68335000Y-25331755D03*
X68335000Y-21931755D03*
G04 #@! TD*
D10*
G04 #@! TO.C,REF\u002A\u002A*
X94599999Y-108364550D03*
G04 #@! TD*
G04 #@! TO.C,REF\u002A\u002A*
X58600000Y-23064556D03*
G04 #@! TD*
D11*
G04 #@! TO.C,C6*
X67534600Y-112252751D03*
X69084600Y-112252751D03*
G04 #@! TD*
D14*
G04 #@! TO.C,REF\u002A\u002A*
X4000000Y-7000000D03*
G04 #@! TD*
D15*
G04 #@! TO.C,FID4*
X92475000Y-114814551D03*
G04 #@! TD*
D11*
G04 #@! TO.C,C6*
X20134600Y-112252751D03*
X21684600Y-112252751D03*
G04 #@! TD*
D12*
G04 #@! TO.C,U10*
X41340000Y-84770551D03*
X42440000Y-84770551D03*
X42440000Y-82940551D03*
X41340000Y-82940551D03*
G04 #@! TD*
D10*
G04 #@! TO.C,REF\u002A\u002A*
X141999999Y-25964555D03*
G04 #@! TD*
D11*
G04 #@! TO.C,C4*
X114934600Y-99781351D03*
X116484600Y-99781351D03*
G04 #@! TD*
D10*
G04 #@! TO.C,REF\u002A\u002A*
X141999999Y-50239554D03*
G04 #@! TD*
G04 #@! TO.C,REF\u002A\u002A*
X94599999Y-49514554D03*
G04 #@! TD*
G04 #@! TO.C,REF\u002A\u002A*
X58600000Y-108364551D03*
G04 #@! TD*
D13*
G04 #@! TO.C,SW2*
X20935000Y-37853955D03*
X20935000Y-34453955D03*
G04 #@! TD*
G04 #@! TO.C,SW2*
X20935000Y-98153951D03*
X20935000Y-94753951D03*
G04 #@! TD*
D10*
G04 #@! TO.C,REF\u002A\u002A*
X11200001Y-23789556D03*
G04 #@! TD*
D13*
G04 #@! TO.C,SW6*
X37445000Y-37828555D03*
X37445000Y-34428555D03*
G04 #@! TD*
D14*
G04 #@! TO.C,REF\u002A\u002A*
X4000000Y-124599990D03*
G04 #@! TD*
D15*
G04 #@! TO.C,FID2*
X13275000Y-18014555D03*
G04 #@! TD*
D10*
G04 #@! TO.C,REF\u002A\u002A*
X47199999Y-25239555D03*
G04 #@! TD*
D12*
G04 #@! TO.C,U9*
X32577000Y-49489555D03*
X33677000Y-49489555D03*
X33677000Y-47659555D03*
X32577000Y-47659555D03*
G04 #@! TD*
G04 #@! TO.C,U5*
X119630000Y-37043555D03*
X120730000Y-37043555D03*
X120730000Y-35213555D03*
X119630000Y-35213555D03*
G04 #@! TD*
D13*
G04 #@! TO.C,SW4*
X132245000Y-110650751D03*
X132245000Y-107250751D03*
G04 #@! TD*
D10*
G04 #@! TO.C,REF\u002A\u002A*
X106000000Y-50964555D03*
G04 #@! TD*
G04 #@! TO.C,REF\u002A\u002A*
X141999999Y-108364550D03*
G04 #@! TD*
D12*
G04 #@! TO.C,U12*
X136140000Y-49489555D03*
X137240000Y-49489555D03*
X137240000Y-47659555D03*
X136140000Y-47659555D03*
G04 #@! TD*
D10*
G04 #@! TO.C,REF\u002A\u002A*
X47199999Y-50239554D03*
G04 #@! TD*
D11*
G04 #@! TO.C,C7*
X20185400Y-80629751D03*
X21735400Y-80629751D03*
G04 #@! TD*
D12*
G04 #@! TO.C,U6*
X24830000Y-109916551D03*
X25930000Y-109916551D03*
X25930000Y-108086551D03*
X24830000Y-108086551D03*
G04 #@! TD*
G04 #@! TO.C,U2*
X110740000Y-37081077D03*
X111840000Y-37081077D03*
X111840000Y-35251077D03*
X110740000Y-35251077D03*
G04 #@! TD*
D13*
G04 #@! TO.C,SW4*
X37445000Y-50350755D03*
X37445000Y-46950755D03*
G04 #@! TD*
D10*
G04 #@! TO.C,REF\u002A\u002A*
X11200001Y-108364551D03*
G04 #@! TD*
D13*
G04 #@! TO.C,SW6*
X37445000Y-98128551D03*
X37445000Y-94728551D03*
G04 #@! TD*
G04 #@! TO.C,SW5*
X37445000Y-25357155D03*
X37445000Y-21957155D03*
G04 #@! TD*
D11*
G04 #@! TO.C,C7*
X114985400Y-20329755D03*
X116535400Y-20329755D03*
G04 #@! TD*
D10*
G04 #@! TO.C,REF\u002A\u002A*
X58600000Y-24514556D03*
G04 #@! TD*
D11*
G04 #@! TO.C,C3*
X36670000Y-87259151D03*
X38220000Y-87259151D03*
G04 #@! TD*
D10*
G04 #@! TO.C,REF\u002A\u002A*
X11200001Y-111264551D03*
G04 #@! TD*
D12*
G04 #@! TO.C,U8*
X32577000Y-97343551D03*
X33677000Y-97343551D03*
X33677000Y-95513551D03*
X32577000Y-95513551D03*
G04 #@! TD*
G04 #@! TO.C,U8*
X127377000Y-37043555D03*
X128477000Y-37043555D03*
X128477000Y-35213555D03*
X127377000Y-35213555D03*
G04 #@! TD*
D10*
G04 #@! TO.C,REF\u002A\u002A*
X94599999Y-109814550D03*
G04 #@! TD*
G04 #@! TO.C,REF\u002A\u002A*
X141999999Y-84814550D03*
G04 #@! TD*
D12*
G04 #@! TO.C,U12*
X41340000Y-49489555D03*
X42440000Y-49489555D03*
X42440000Y-47659555D03*
X41340000Y-47659555D03*
G04 #@! TD*
D10*
G04 #@! TO.C,REF\u002A\u002A*
X141999999Y-48064554D03*
G04 #@! TD*
G04 #@! TO.C,REF\u002A\u002A*
X11200001Y-48789555D03*
G04 #@! TD*
D11*
G04 #@! TO.C,C3*
X131470000Y-87259151D03*
X133020000Y-87259151D03*
G04 #@! TD*
D10*
G04 #@! TO.C,REF\u002A\u002A*
X58600000Y-25964556D03*
G04 #@! TD*
G04 #@! TO.C,REF\u002A\u002A*
X106000000Y-23789556D03*
G04 #@! TD*
G04 #@! TO.C,REF\u002A\u002A*
X58600000Y-50964555D03*
G04 #@! TD*
D15*
G04 #@! TO.C,FID2*
X108075000Y-78314551D03*
G04 #@! TD*
D10*
G04 #@! TO.C,REF\u002A\u002A*
X106000000Y-84814551D03*
G04 #@! TD*
D15*
G04 #@! TO.C,FID4*
X92475000Y-54514555D03*
G04 #@! TD*
D12*
G04 #@! TO.C,U9*
X127377000Y-109789551D03*
X128477000Y-109789551D03*
X128477000Y-107959551D03*
X127377000Y-107959551D03*
G04 #@! TD*
D11*
G04 #@! TO.C,C1*
X131495400Y-39430555D03*
X133045400Y-39430555D03*
G04 #@! TD*
D13*
G04 #@! TO.C,SW6*
X84845000Y-37828555D03*
X84845000Y-34428555D03*
G04 #@! TD*
D12*
G04 #@! TO.C,U9*
X79977000Y-49489555D03*
X81077000Y-49489555D03*
X81077000Y-47659555D03*
X79977000Y-47659555D03*
G04 #@! TD*
D11*
G04 #@! TO.C,C5*
X36670000Y-112252751D03*
X38220000Y-112252751D03*
G04 #@! TD*
D12*
G04 #@! TO.C,U5*
X24830000Y-97343551D03*
X25930000Y-97343551D03*
X25930000Y-95513551D03*
X24830000Y-95513551D03*
G04 #@! TD*
D11*
G04 #@! TO.C,C2*
X67534600Y-87233751D03*
X69084600Y-87233751D03*
G04 #@! TD*
D16*
G04 #@! TO.C,J1*
X128210600Y-16030555D03*
X127210600Y-16030555D03*
X126210600Y-16030555D03*
X125210600Y-16030555D03*
X124210600Y-16030555D03*
X123210600Y-16030555D03*
X122210600Y-16030555D03*
X121210600Y-16030555D03*
X120210600Y-16030555D03*
X119210600Y-16030555D03*
D17*
X129510600Y-12155555D03*
X117910600Y-12155555D03*
G04 #@! TD*
D12*
G04 #@! TO.C,U5*
X24830000Y-37043555D03*
X25930000Y-37043555D03*
X25930000Y-35213555D03*
X24830000Y-35213555D03*
G04 #@! TD*
D10*
G04 #@! TO.C,REF\u002A\u002A*
X141999999Y-109814550D03*
G04 #@! TD*
G04 #@! TO.C,REF\u002A\u002A*
X11200001Y-83364551D03*
G04 #@! TD*
G04 #@! TO.C,REF\u002A\u002A*
X141999999Y-50964554D03*
G04 #@! TD*
G04 #@! TO.C,REF\u002A\u002A*
X94599999Y-23064555D03*
G04 #@! TD*
G04 #@! TO.C,REF\u002A\u002A*
X141999999Y-84089550D03*
G04 #@! TD*
D12*
G04 #@! TO.C,U1*
X63467000Y-84897551D03*
X64567000Y-84897551D03*
X64567000Y-83067551D03*
X63467000Y-83067551D03*
G04 #@! TD*
D10*
G04 #@! TO.C,REF\u002A\u002A*
X106000000Y-109814551D03*
G04 #@! TD*
G04 #@! TO.C,REF\u002A\u002A*
X11200001Y-24514556D03*
G04 #@! TD*
D11*
G04 #@! TO.C,C6*
X114934600Y-51952755D03*
X116484600Y-51952755D03*
G04 #@! TD*
D10*
G04 #@! TO.C,REF\u002A\u002A*
X106000000Y-23064556D03*
G04 #@! TD*
D13*
G04 #@! TO.C,SW1*
X20935000Y-25331755D03*
X20935000Y-21931755D03*
G04 #@! TD*
D12*
G04 #@! TO.C,U1*
X110867000Y-24597555D03*
X111967000Y-24597555D03*
X111967000Y-22767555D03*
X110867000Y-22767555D03*
G04 #@! TD*
D10*
G04 #@! TO.C,REF\u002A\u002A*
X58600000Y-49514555D03*
G04 #@! TD*
D12*
G04 #@! TO.C,U3*
X63340000Y-109789551D03*
X64440000Y-109789551D03*
X64440000Y-107959551D03*
X63340000Y-107959551D03*
G04 #@! TD*
G04 #@! TO.C,U3*
X110740000Y-109789551D03*
X111840000Y-109789551D03*
X111840000Y-107959551D03*
X110740000Y-107959551D03*
G04 #@! TD*
D10*
G04 #@! TO.C,REF\u002A\u002A*
X94599999Y-50239554D03*
G04 #@! TD*
G04 #@! TO.C,REF\u002A\u002A*
X106000000Y-48789555D03*
G04 #@! TD*
D13*
G04 #@! TO.C,SW2*
X68335000Y-98153951D03*
X68335000Y-94753951D03*
G04 #@! TD*
D10*
G04 #@! TO.C,REF\u002A\u002A*
X11200001Y-50964555D03*
G04 #@! TD*
G04 #@! TO.C,REF\u002A\u002A*
X47199999Y-84089550D03*
G04 #@! TD*
G04 #@! TO.C,REF\u002A\u002A*
X94599999Y-110539550D03*
G04 #@! TD*
D13*
G04 #@! TO.C,SW2*
X115735000Y-98153951D03*
X115735000Y-94753951D03*
G04 #@! TD*
D11*
G04 #@! TO.C,C5*
X36670000Y-51952755D03*
X38220000Y-51952755D03*
G04 #@! TD*
G04 #@! TO.C,C3*
X84070000Y-26959155D03*
X85620000Y-26959155D03*
G04 #@! TD*
D12*
G04 #@! TO.C,U10*
X88740000Y-84770551D03*
X89840000Y-84770551D03*
X89840000Y-82940551D03*
X88740000Y-82940551D03*
G04 #@! TD*
D11*
G04 #@! TO.C,C5*
X131470000Y-51952755D03*
X133020000Y-51952755D03*
G04 #@! TD*
D12*
G04 #@! TO.C,U4*
X119630000Y-84860029D03*
X120730000Y-84860029D03*
X120730000Y-83030029D03*
X119630000Y-83030029D03*
G04 #@! TD*
D10*
G04 #@! TO.C,REF\u002A\u002A*
X47199999Y-50964554D03*
G04 #@! TD*
D12*
G04 #@! TO.C,U6*
X24830000Y-49616555D03*
X25930000Y-49616555D03*
X25930000Y-47786555D03*
X24830000Y-47786555D03*
G04 #@! TD*
D16*
G04 #@! TO.C,J1*
X128210600Y-76330551D03*
X127210600Y-76330551D03*
X126210600Y-76330551D03*
X125210600Y-76330551D03*
X124210600Y-76330551D03*
X123210600Y-76330551D03*
X122210600Y-76330551D03*
X121210600Y-76330551D03*
X120210600Y-76330551D03*
X119210600Y-76330551D03*
D17*
X117910600Y-72455551D03*
X129510600Y-72455551D03*
G04 #@! TD*
D11*
G04 #@! TO.C,C4*
X20134600Y-99781351D03*
X21684600Y-99781351D03*
G04 #@! TD*
G04 #@! TO.C,C4*
X67534600Y-39481355D03*
X69084600Y-39481355D03*
G04 #@! TD*
D12*
G04 #@! TO.C,U6*
X72230000Y-49616555D03*
X73330000Y-49616555D03*
X73330000Y-47786555D03*
X72230000Y-47786555D03*
G04 #@! TD*
G04 #@! TO.C,U10*
X88740000Y-24470555D03*
X89840000Y-24470555D03*
X89840000Y-22640555D03*
X88740000Y-22640555D03*
G04 #@! TD*
D10*
G04 #@! TO.C,REF\u002A\u002A*
X106000000Y-86264551D03*
G04 #@! TD*
D15*
G04 #@! TO.C,FID4*
X45075000Y-54514555D03*
G04 #@! TD*
D12*
G04 #@! TO.C,U8*
X79977000Y-37043555D03*
X81077000Y-37043555D03*
X81077000Y-35213555D03*
X79977000Y-35213555D03*
G04 #@! TD*
D13*
G04 #@! TO.C,SW2*
X68335000Y-37853955D03*
X68335000Y-34453955D03*
G04 #@! TD*
D10*
G04 #@! TO.C,REF\u002A\u002A*
X11200001Y-84814551D03*
G04 #@! TD*
G04 #@! TO.C,REF\u002A\u002A*
X11200001Y-85539551D03*
G04 #@! TD*
G04 #@! TO.C,REF\u002A\u002A*
X58600000Y-50239555D03*
G04 #@! TD*
G04 #@! TO.C,REF\u002A\u002A*
X11200001Y-109089551D03*
G04 #@! TD*
D13*
G04 #@! TO.C,SW5*
X132245000Y-25357155D03*
X132245000Y-21957155D03*
G04 #@! TD*
D12*
G04 #@! TO.C,U12*
X136140000Y-109789551D03*
X137240000Y-109789551D03*
X137240000Y-107959551D03*
X136140000Y-107959551D03*
G04 #@! TD*
D10*
G04 #@! TO.C,REF\u002A\u002A*
X94599999Y-48789554D03*
G04 #@! TD*
D11*
G04 #@! TO.C,C7*
X20185400Y-20329755D03*
X21735400Y-20329755D03*
G04 #@! TD*
D15*
G04 #@! TO.C,FID3*
X45075000Y-18014555D03*
G04 #@! TD*
D10*
G04 #@! TO.C,REF\u002A\u002A*
X141999999Y-23064555D03*
G04 #@! TD*
G04 #@! TO.C,REF\u002A\u002A*
X58600000Y-84089551D03*
G04 #@! TD*
D12*
G04 #@! TO.C,U6*
X119630000Y-49616555D03*
X120730000Y-49616555D03*
X120730000Y-47786555D03*
X119630000Y-47786555D03*
G04 #@! TD*
D10*
G04 #@! TO.C,REF\u002A\u002A*
X106000000Y-25964556D03*
G04 #@! TD*
D15*
G04 #@! TO.C,FID3*
X45075000Y-78314551D03*
G04 #@! TD*
D12*
G04 #@! TO.C,U1*
X16067000Y-24597555D03*
X17167000Y-24597555D03*
X17167000Y-22767555D03*
X16067000Y-22767555D03*
G04 #@! TD*
G04 #@! TO.C,U3*
X110740000Y-49489555D03*
X111840000Y-49489555D03*
X111840000Y-47659555D03*
X110740000Y-47659555D03*
G04 #@! TD*
G04 #@! TO.C,U11*
X41467000Y-36916555D03*
X42567000Y-36916555D03*
X42567000Y-35086555D03*
X41467000Y-35086555D03*
G04 #@! TD*
D10*
G04 #@! TO.C,REF\u002A\u002A*
X47199999Y-48064554D03*
G04 #@! TD*
D15*
G04 #@! TO.C,FID1*
X108075000Y-54514555D03*
G04 #@! TD*
D14*
G04 #@! TO.C,REF\u002A\u002A*
X149200000Y-7000000D03*
G04 #@! TD*
D10*
G04 #@! TO.C,REF\u002A\u002A*
X11200001Y-109814551D03*
G04 #@! TD*
G04 #@! TO.C,REF\u002A\u002A*
X94599999Y-48064554D03*
G04 #@! TD*
D12*
G04 #@! TO.C,U2*
X63340000Y-97381073D03*
X64440000Y-97381073D03*
X64440000Y-95551073D03*
X63340000Y-95551073D03*
G04 #@! TD*
D11*
G04 #@! TO.C,C6*
X20134600Y-51952755D03*
X21684600Y-51952755D03*
G04 #@! TD*
D12*
G04 #@! TO.C,U3*
X15940000Y-109789551D03*
X17040000Y-109789551D03*
X17040000Y-107959551D03*
X15940000Y-107959551D03*
G04 #@! TD*
G04 #@! TO.C,U10*
X136140000Y-24470555D03*
X137240000Y-24470555D03*
X137240000Y-22640555D03*
X136140000Y-22640555D03*
G04 #@! TD*
D10*
G04 #@! TO.C,REF\u002A\u002A*
X94599999Y-83364550D03*
G04 #@! TD*
D12*
G04 #@! TO.C,U1*
X110867000Y-84897551D03*
X111967000Y-84897551D03*
X111967000Y-83067551D03*
X110867000Y-83067551D03*
G04 #@! TD*
D15*
G04 #@! TO.C,FID1*
X13275000Y-54514555D03*
G04 #@! TD*
D10*
G04 #@! TO.C,REF\u002A\u002A*
X58600000Y-109089551D03*
G04 #@! TD*
D12*
G04 #@! TO.C,U10*
X136140000Y-84770551D03*
X137240000Y-84770551D03*
X137240000Y-82940551D03*
X136140000Y-82940551D03*
G04 #@! TD*
D10*
G04 #@! TO.C,REF\u002A\u002A*
X58600000Y-23789556D03*
G04 #@! TD*
D11*
G04 #@! TO.C,C4*
X114934600Y-39481355D03*
X116484600Y-39481355D03*
G04 #@! TD*
D12*
G04 #@! TO.C,U1*
X63467000Y-24597555D03*
X64567000Y-24597555D03*
X64567000Y-22767555D03*
X63467000Y-22767555D03*
G04 #@! TD*
D15*
G04 #@! TO.C,FID2*
X13275000Y-78314551D03*
G04 #@! TD*
D12*
G04 #@! TO.C,U8*
X79977000Y-97343551D03*
X81077000Y-97343551D03*
X81077000Y-95513551D03*
X79977000Y-95513551D03*
G04 #@! TD*
G04 #@! TO.C,U7*
X79977000Y-24470555D03*
X81077000Y-24470555D03*
X81077000Y-22640555D03*
X79977000Y-22640555D03*
G04 #@! TD*
D10*
G04 #@! TO.C,REF\u002A\u002A*
X11200001Y-23064556D03*
G04 #@! TD*
D11*
G04 #@! TO.C,C1*
X36695400Y-99730551D03*
X38245400Y-99730551D03*
G04 #@! TD*
D13*
G04 #@! TO.C,SW5*
X37445000Y-85657151D03*
X37445000Y-82257151D03*
G04 #@! TD*
D12*
G04 #@! TO.C,U1*
X16067000Y-84897551D03*
X17167000Y-84897551D03*
X17167000Y-83067551D03*
X16067000Y-83067551D03*
G04 #@! TD*
D13*
G04 #@! TO.C,SW1*
X68335000Y-85631751D03*
X68335000Y-82231751D03*
G04 #@! TD*
D16*
G04 #@! TO.C,J1*
X33410600Y-16030555D03*
X32410600Y-16030555D03*
X31410600Y-16030555D03*
X30410600Y-16030555D03*
X29410600Y-16030555D03*
X28410600Y-16030555D03*
X27410600Y-16030555D03*
X26410600Y-16030555D03*
X25410600Y-16030555D03*
X24410600Y-16030555D03*
D17*
X23110600Y-12155555D03*
X34710600Y-12155555D03*
G04 #@! TD*
D11*
G04 #@! TO.C,C6*
X67534600Y-51952755D03*
X69084600Y-51952755D03*
G04 #@! TD*
D10*
G04 #@! TO.C,REF\u002A\u002A*
X11200001Y-49514555D03*
G04 #@! TD*
G04 #@! TO.C,REF\u002A\u002A*
X94599999Y-50964554D03*
G04 #@! TD*
D12*
G04 #@! TO.C,U7*
X79977000Y-84770551D03*
X81077000Y-84770551D03*
X81077000Y-82940551D03*
X79977000Y-82940551D03*
G04 #@! TD*
D15*
G04 #@! TO.C,FID4*
X139875000Y-54514555D03*
G04 #@! TD*
D11*
G04 #@! TO.C,C7*
X67585400Y-20329755D03*
X69135400Y-20329755D03*
G04 #@! TD*
D10*
G04 #@! TO.C,REF\u002A\u002A*
X47199999Y-25964555D03*
G04 #@! TD*
G04 #@! TO.C,REF\u002A\u002A*
X94599999Y-84814550D03*
G04 #@! TD*
G04 #@! TO.C,REF\u002A\u002A*
X58600000Y-83364551D03*
G04 #@! TD*
G04 #@! TO.C,REF\u002A\u002A*
X11200001Y-25964556D03*
G04 #@! TD*
G04 #@! TO.C,REF\u002A\u002A*
X94599999Y-23789555D03*
G04 #@! TD*
G04 #@! TO.C,REF\u002A\u002A*
X94599999Y-86264550D03*
G04 #@! TD*
D12*
G04 #@! TO.C,U5*
X119630000Y-97343551D03*
X120730000Y-97343551D03*
X120730000Y-95513551D03*
X119630000Y-95513551D03*
G04 #@! TD*
D15*
G04 #@! TO.C,FID2*
X108075000Y-18014555D03*
G04 #@! TD*
D13*
G04 #@! TO.C,SW6*
X84845000Y-98128551D03*
X84845000Y-94728551D03*
G04 #@! TD*
D10*
G04 #@! TO.C,REF\u002A\u002A*
X58600000Y-85539551D03*
G04 #@! TD*
G04 #@! TO.C,REF\u002A\u002A*
X94599999Y-24514555D03*
G04 #@! TD*
G04 #@! TO.C,REF\u002A\u002A*
X47199999Y-48789554D03*
G04 #@! TD*
D15*
G04 #@! TO.C,FID1*
X13275000Y-114814551D03*
G04 #@! TD*
G04 #@! TO.C,FID1*
X108075000Y-114814551D03*
G04 #@! TD*
D10*
G04 #@! TO.C,REF\u002A\u002A*
X141999999Y-23789555D03*
G04 #@! TD*
G04 #@! TO.C,REF\u002A\u002A*
X141999999Y-85539550D03*
G04 #@! TD*
G04 #@! TO.C,REF\u002A\u002A*
X11200001Y-86264551D03*
G04 #@! TD*
D11*
G04 #@! TO.C,C6*
X114934600Y-112252751D03*
X116484600Y-112252751D03*
G04 #@! TD*
D10*
G04 #@! TO.C,REF\u002A\u002A*
X106000000Y-48064555D03*
G04 #@! TD*
G04 #@! TO.C,REF\u002A\u002A*
X141999999Y-111264550D03*
G04 #@! TD*
D12*
G04 #@! TO.C,U12*
X88740000Y-109789551D03*
X89840000Y-109789551D03*
X89840000Y-107959551D03*
X88740000Y-107959551D03*
G04 #@! TD*
G04 #@! TO.C,U9*
X79977000Y-109789551D03*
X81077000Y-109789551D03*
X81077000Y-107959551D03*
X79977000Y-107959551D03*
G04 #@! TD*
D10*
G04 #@! TO.C,REF\u002A\u002A*
X58600000Y-86264551D03*
G04 #@! TD*
D12*
G04 #@! TO.C,U5*
X72230000Y-37043555D03*
X73330000Y-37043555D03*
X73330000Y-35213555D03*
X72230000Y-35213555D03*
G04 #@! TD*
G04 #@! TO.C,U8*
X127377000Y-97343551D03*
X128477000Y-97343551D03*
X128477000Y-95513551D03*
X127377000Y-95513551D03*
G04 #@! TD*
D10*
G04 #@! TO.C,REF\u002A\u002A*
X47199999Y-108364550D03*
G04 #@! TD*
G04 #@! TO.C,REF\u002A\u002A*
X141999999Y-110539550D03*
G04 #@! TD*
G04 #@! TO.C,REF\u002A\u002A*
X94599999Y-85539550D03*
G04 #@! TD*
D12*
G04 #@! TO.C,U4*
X119630000Y-24560033D03*
X120730000Y-24560033D03*
X120730000Y-22730033D03*
X119630000Y-22730033D03*
G04 #@! TD*
D11*
G04 #@! TO.C,C3*
X131470000Y-26959155D03*
X133020000Y-26959155D03*
G04 #@! TD*
G04 #@! TO.C,C3*
X84070000Y-87259151D03*
X85620000Y-87259151D03*
G04 #@! TD*
D13*
G04 #@! TO.C,SW4*
X84845000Y-110650751D03*
X84845000Y-107250751D03*
G04 #@! TD*
G04 #@! TO.C,SW3*
X68360400Y-50350755D03*
X68360400Y-46950755D03*
G04 #@! TD*
D10*
G04 #@! TO.C,REF\u002A\u002A*
X106000000Y-49514555D03*
G04 #@! TD*
D11*
G04 #@! TO.C,C1*
X36695400Y-39430555D03*
X38245400Y-39430555D03*
G04 #@! TD*
D10*
G04 #@! TO.C,REF\u002A\u002A*
X106000000Y-110539551D03*
G04 #@! TD*
G04 #@! TO.C,REF\u002A\u002A*
X47199999Y-85539550D03*
G04 #@! TD*
D12*
G04 #@! TO.C,U2*
X15940000Y-97381073D03*
X17040000Y-97381073D03*
X17040000Y-95551073D03*
X15940000Y-95551073D03*
G04 #@! TD*
D10*
G04 #@! TO.C,REF\u002A\u002A*
X47199999Y-23789555D03*
G04 #@! TD*
D12*
G04 #@! TO.C,U4*
X24830000Y-84860029D03*
X25930000Y-84860029D03*
X25930000Y-83030029D03*
X24830000Y-83030029D03*
G04 #@! TD*
G04 #@! TO.C,U11*
X41467000Y-97216551D03*
X42567000Y-97216551D03*
X42567000Y-95386551D03*
X41467000Y-95386551D03*
G04 #@! TD*
G04 #@! TO.C,U6*
X119630000Y-109916551D03*
X120730000Y-109916551D03*
X120730000Y-108086551D03*
X119630000Y-108086551D03*
G04 #@! TD*
D13*
G04 #@! TO.C,SW5*
X84845000Y-25357155D03*
X84845000Y-21957155D03*
G04 #@! TD*
D10*
G04 #@! TO.C,REF\u002A\u002A*
X106000000Y-111264551D03*
G04 #@! TD*
D12*
G04 #@! TO.C,U7*
X32577000Y-84770551D03*
X33677000Y-84770551D03*
X33677000Y-82940551D03*
X32577000Y-82940551D03*
G04 #@! TD*
D10*
G04 #@! TO.C,REF\u002A\u002A*
X47199999Y-24514555D03*
G04 #@! TD*
D11*
G04 #@! TO.C,C1*
X84095400Y-99730551D03*
X85645400Y-99730551D03*
G04 #@! TD*
D10*
G04 #@! TO.C,REF\u002A\u002A*
X47199999Y-109814550D03*
G04 #@! TD*
G04 #@! TO.C,REF\u002A\u002A*
X141999999Y-109089550D03*
G04 #@! TD*
G04 #@! TO.C,REF\u002A\u002A*
X141999999Y-25239555D03*
G04 #@! TD*
D13*
G04 #@! TO.C,SW3*
X20960400Y-110650751D03*
X20960400Y-107250751D03*
G04 #@! TD*
D12*
G04 #@! TO.C,U2*
X15940000Y-37081077D03*
X17040000Y-37081077D03*
X17040000Y-35251077D03*
X15940000Y-35251077D03*
G04 #@! TD*
G04 #@! TO.C,U2*
X63340000Y-37081077D03*
X64440000Y-37081077D03*
X64440000Y-35251077D03*
X63340000Y-35251077D03*
G04 #@! TD*
D10*
G04 #@! TO.C,REF\u002A\u002A*
X58600000Y-84814551D03*
G04 #@! TD*
D15*
G04 #@! TO.C,FID4*
X139875000Y-114814551D03*
G04 #@! TD*
D13*
G04 #@! TO.C,SW1*
X115735000Y-85631751D03*
X115735000Y-82231751D03*
G04 #@! TD*
D15*
G04 #@! TO.C,FID4*
X45075000Y-114814551D03*
G04 #@! TD*
D10*
G04 #@! TO.C,REF\u002A\u002A*
X47199999Y-23064555D03*
G04 #@! TD*
D18*
G04 #@! TO.C,REF\u002A\u002A*
X149200000Y-128599990D03*
G04 #@! TD*
D12*
G04 #@! TO.C,U4*
X24830000Y-24560033D03*
X25930000Y-24560033D03*
X25930000Y-22730033D03*
X24830000Y-22730033D03*
G04 #@! TD*
D15*
G04 #@! TO.C,FID2*
X60675000Y-18014555D03*
G04 #@! TD*
D10*
G04 #@! TO.C,REF\u002A\u002A*
X47199999Y-110539550D03*
G04 #@! TD*
D15*
G04 #@! TO.C,FID2*
X60675000Y-78314551D03*
G04 #@! TD*
D10*
G04 #@! TO.C,REF\u002A\u002A*
X106000000Y-25239556D03*
G04 #@! TD*
G04 #@! TO.C,REF\u002A\u002A*
X47199999Y-86264550D03*
G04 #@! TD*
G04 #@! TO.C,REF\u002A\u002A*
X141999999Y-24514555D03*
G04 #@! TD*
D12*
G04 #@! TO.C,U11*
X88867000Y-36916555D03*
X89967000Y-36916555D03*
X89967000Y-35086555D03*
X88867000Y-35086555D03*
G04 #@! TD*
D15*
G04 #@! TO.C,FID3*
X139875000Y-18014555D03*
G04 #@! TD*
D12*
G04 #@! TO.C,U9*
X32577000Y-109789551D03*
X33677000Y-109789551D03*
X33677000Y-107959551D03*
X32577000Y-107959551D03*
G04 #@! TD*
D13*
G04 #@! TO.C,SW3*
X115760400Y-50350755D03*
X115760400Y-46950755D03*
G04 #@! TD*
D12*
G04 #@! TO.C,U9*
X127377000Y-49489555D03*
X128477000Y-49489555D03*
X128477000Y-47659555D03*
X127377000Y-47659555D03*
G04 #@! TD*
D10*
G04 #@! TO.C,REF\u002A\u002A*
X106000000Y-84089551D03*
G04 #@! TD*
D12*
G04 #@! TO.C,U3*
X63340000Y-49489555D03*
X64440000Y-49489555D03*
X64440000Y-47659555D03*
X63340000Y-47659555D03*
G04 #@! TD*
D13*
G04 #@! TO.C,SW2*
X115735000Y-37853955D03*
X115735000Y-34453955D03*
G04 #@! TD*
D10*
G04 #@! TO.C,REF\u002A\u002A*
X94599999Y-25964555D03*
G04 #@! TD*
D11*
G04 #@! TO.C,C5*
X84070000Y-112252751D03*
X85620000Y-112252751D03*
G04 #@! TD*
D10*
G04 #@! TO.C,REF\u002A\u002A*
X106000000Y-50239555D03*
G04 #@! TD*
D11*
G04 #@! TO.C,C2*
X20134600Y-87233751D03*
X21684600Y-87233751D03*
G04 #@! TD*
D12*
G04 #@! TO.C,U3*
X15940000Y-49489555D03*
X17040000Y-49489555D03*
X17040000Y-47659555D03*
X15940000Y-47659555D03*
G04 #@! TD*
D11*
G04 #@! TO.C,C5*
X131470000Y-112252751D03*
X133020000Y-112252751D03*
G04 #@! TD*
D10*
G04 #@! TO.C,REF\u002A\u002A*
X94599999Y-109089550D03*
G04 #@! TD*
D11*
G04 #@! TO.C,C2*
X67534600Y-26933755D03*
X69084600Y-26933755D03*
G04 #@! TD*
D13*
G04 #@! TO.C,SW3*
X68360400Y-110650751D03*
X68360400Y-107250751D03*
G04 #@! TD*
D10*
G04 #@! TO.C,REF\u002A\u002A*
X58600000Y-25239556D03*
G04 #@! TD*
G04 #@! TO.C,REF\u002A\u002A*
X47199999Y-83364550D03*
G04 #@! TD*
G04 #@! TO.C,REF\u002A\u002A*
X58600000Y-111264551D03*
G04 #@! TD*
G04 #@! TO.C,REF\u002A\u002A*
X106000000Y-24514556D03*
G04 #@! TD*
G04 #@! TO.C,REF\u002A\u002A*
X106000000Y-108364551D03*
G04 #@! TD*
D12*
G04 #@! TO.C,U4*
X72230000Y-24560033D03*
X73330000Y-24560033D03*
X73330000Y-22730033D03*
X72230000Y-22730033D03*
G04 #@! TD*
G04 #@! TO.C,U8*
X32577000Y-37043555D03*
X33677000Y-37043555D03*
X33677000Y-35213555D03*
X32577000Y-35213555D03*
G04 #@! TD*
D16*
G04 #@! TO.C,J1*
X80810600Y-76330551D03*
X79810600Y-76330551D03*
X78810600Y-76330551D03*
X77810600Y-76330551D03*
X76810600Y-76330551D03*
X75810600Y-76330551D03*
X74810600Y-76330551D03*
X73810600Y-76330551D03*
X72810600Y-76330551D03*
X71810600Y-76330551D03*
D17*
X70510600Y-72455551D03*
X82110600Y-72455551D03*
G04 #@! TD*
D11*
G04 #@! TO.C,C1*
X84095400Y-39430555D03*
X85645400Y-39430555D03*
G04 #@! TD*
D10*
G04 #@! TO.C,REF\u002A\u002A*
X58600000Y-48789555D03*
G04 #@! TD*
D15*
G04 #@! TO.C,FID1*
X60675000Y-114814551D03*
G04 #@! TD*
D11*
G04 #@! TO.C,C1*
X131495400Y-99730551D03*
X133045400Y-99730551D03*
G04 #@! TD*
D12*
G04 #@! TO.C,U2*
X110740000Y-97381073D03*
X111840000Y-97381073D03*
X111840000Y-95551073D03*
X110740000Y-95551073D03*
G04 #@! TD*
G04 #@! TO.C,U11*
X136267000Y-97216551D03*
X137367000Y-97216551D03*
X137367000Y-95386551D03*
X136267000Y-95386551D03*
G04 #@! TD*
D10*
G04 #@! TO.C,REF\u002A\u002A*
X141999999Y-83364550D03*
G04 #@! TD*
G04 #@! TO.C,REF\u002A\u002A*
X11200001Y-25239556D03*
G04 #@! TD*
D16*
G04 #@! TO.C,J1*
X33410600Y-76330551D03*
X32410600Y-76330551D03*
X31410600Y-76330551D03*
X30410600Y-76330551D03*
X29410600Y-76330551D03*
X28410600Y-76330551D03*
X27410600Y-76330551D03*
X26410600Y-76330551D03*
X25410600Y-76330551D03*
X24410600Y-76330551D03*
D17*
X34710600Y-72455551D03*
X23110600Y-72455551D03*
G04 #@! TD*
D10*
G04 #@! TO.C,REF\u002A\u002A*
X58600000Y-48064555D03*
G04 #@! TD*
D11*
G04 #@! TO.C,C2*
X114934600Y-87233751D03*
X116484600Y-87233751D03*
G04 #@! TD*
D10*
G04 #@! TO.C,REF\u002A\u002A*
X47199999Y-111264550D03*
G04 #@! TD*
D13*
G04 #@! TO.C,SW1*
X115735000Y-25331755D03*
X115735000Y-21931755D03*
G04 #@! TD*
D10*
G04 #@! TO.C,REF\u002A\u002A*
X106000000Y-85539551D03*
G04 #@! TD*
G04 #@! TO.C,REF\u002A\u002A*
X94599999Y-111264550D03*
G04 #@! TD*
G04 #@! TO.C,REF\u002A\u002A*
X141999999Y-49514554D03*
G04 #@! TD*
D11*
G04 #@! TO.C,C2*
X114934600Y-26933755D03*
X116484600Y-26933755D03*
G04 #@! TD*
D10*
G04 #@! TO.C,REF\u002A\u002A*
X106000000Y-109089551D03*
G04 #@! TD*
D13*
G04 #@! TO.C,SW6*
X132245000Y-98128551D03*
X132245000Y-94728551D03*
G04 #@! TD*
D18*
G04 #@! TO.C,REF\u002A\u002A*
X149200000Y-3000000D03*
G04 #@! TD*
D12*
G04 #@! TO.C,U7*
X127377000Y-84770551D03*
X128477000Y-84770551D03*
X128477000Y-82940551D03*
X127377000Y-82940551D03*
G04 #@! TD*
G04 #@! TO.C,U5*
X72230000Y-97343551D03*
X73330000Y-97343551D03*
X73330000Y-95513551D03*
X72230000Y-95513551D03*
G04 #@! TD*
D10*
G04 #@! TO.C,REF\u002A\u002A*
X94599999Y-25239555D03*
G04 #@! TD*
G04 #@! TO.C,REF\u002A\u002A*
X47199999Y-49514554D03*
G04 #@! TD*
D13*
G04 #@! TO.C,SW3*
X20960400Y-50350755D03*
X20960400Y-46950755D03*
G04 #@! TD*
G04 #@! TO.C,SW4*
X84845000Y-50350755D03*
X84845000Y-46950755D03*
G04 #@! TD*
D15*
G04 #@! TO.C,FID3*
X139875000Y-78314551D03*
G04 #@! TD*
D16*
G04 #@! TO.C,J1*
X80810600Y-16030555D03*
X79810600Y-16030555D03*
X78810600Y-16030555D03*
X77810600Y-16030555D03*
X76810600Y-16030555D03*
X75810600Y-16030555D03*
X74810600Y-16030555D03*
X73810600Y-16030555D03*
X72810600Y-16030555D03*
X71810600Y-16030555D03*
D17*
X70510600Y-12155555D03*
X82110600Y-12155555D03*
G04 #@! TD*
D15*
G04 #@! TO.C,FID1*
X60675000Y-54514555D03*
G04 #@! TD*
D10*
G04 #@! TO.C,REF\u002A\u002A*
X11200001Y-110539551D03*
G04 #@! TD*
D11*
G04 #@! TO.C,C7*
X67585400Y-80629751D03*
X69135400Y-80629751D03*
G04 #@! TD*
D13*
G04 #@! TO.C,SW6*
X132245000Y-37828555D03*
X132245000Y-34428555D03*
G04 #@! TD*
D10*
G04 #@! TO.C,REF\u002A\u002A*
X94599999Y-84089550D03*
G04 #@! TD*
D12*
G04 #@! TO.C,U4*
X72230000Y-84860029D03*
X73330000Y-84860029D03*
X73330000Y-83030029D03*
X72230000Y-83030029D03*
G04 #@! TD*
G04 #@! TO.C,U12*
X41340000Y-109789551D03*
X42440000Y-109789551D03*
X42440000Y-107959551D03*
X41340000Y-107959551D03*
G04 #@! TD*
G04 #@! TO.C,U11*
X136267000Y-36916555D03*
X137367000Y-36916555D03*
X137367000Y-35086555D03*
X136267000Y-35086555D03*
G04 #@! TD*
D13*
G04 #@! TO.C,SW1*
X20935000Y-85631751D03*
X20935000Y-82231751D03*
G04 #@! TD*
G04 #@! TO.C,SW5*
X84845000Y-85657151D03*
X84845000Y-82257151D03*
G04 #@! TD*
D18*
G04 #@! TO.C,REF\u002A\u002A*
X4000000Y-128599990D03*
G04 #@! TD*
D12*
G04 #@! TO.C,U11*
X88867000Y-97216551D03*
X89967000Y-97216551D03*
X89967000Y-95386551D03*
X88867000Y-95386551D03*
G04 #@! TD*
D18*
G04 #@! TO.C,REF\u002A\u002A*
X4000000Y-3000000D03*
G04 #@! TD*
D10*
G04 #@! TO.C,REF\u002A\u002A*
X141999999Y-86264550D03*
G04 #@! TD*
G04 #@! TO.C,REF\u002A\u002A*
X141999999Y-48789554D03*
G04 #@! TD*
D12*
G04 #@! TO.C,U12*
X88740000Y-49489555D03*
X89840000Y-49489555D03*
X89840000Y-47659555D03*
X88740000Y-47659555D03*
G04 #@! TD*
D11*
G04 #@! TO.C,C4*
X67534600Y-99781351D03*
X69084600Y-99781351D03*
G04 #@! TD*
G04 #@! TO.C,C4*
X20134600Y-39481355D03*
X21684600Y-39481355D03*
G04 #@! TD*
D13*
G04 #@! TO.C,SW4*
X132245000Y-50350755D03*
X132245000Y-46950755D03*
G04 #@! TD*
D15*
G04 #@! TO.C,FID3*
X92475000Y-78314551D03*
G04 #@! TD*
D10*
G04 #@! TO.C,REF\u002A\u002A*
X11200001Y-48064555D03*
G04 #@! TD*
G04 #@! TO.C,REF\u002A\u002A*
X58600000Y-110539551D03*
G04 #@! TD*
D11*
G04 #@! TO.C,C2*
X20134600Y-26933755D03*
X21684600Y-26933755D03*
G04 #@! TD*
D13*
G04 #@! TO.C,SW3*
X115760400Y-110650751D03*
X115760400Y-107250751D03*
G04 #@! TD*
D11*
G04 #@! TO.C,C5*
X84070000Y-51952755D03*
X85620000Y-51952755D03*
G04 #@! TD*
G04 #@! TO.C,C3*
X36670000Y-26959155D03*
X38220000Y-26959155D03*
G04 #@! TD*
D13*
G04 #@! TO.C,SW5*
X132245000Y-85657151D03*
X132245000Y-82257151D03*
G04 #@! TD*
D15*
G04 #@! TO.C,FID3*
X92475000Y-18014555D03*
G04 #@! TD*
D10*
G04 #@! TO.C,REF\u002A\u002A*
X11200001Y-50239555D03*
G04 #@! TD*
D13*
G04 #@! TO.C,SW4*
X37445000Y-110650751D03*
X37445000Y-107250751D03*
G04 #@! TD*
D10*
G04 #@! TO.C,REF\u002A\u002A*
X106000000Y-83364551D03*
G04 #@! TD*
D14*
G04 #@! TO.C,REF\u002A\u002A*
X149200000Y-124599990D03*
G04 #@! TD*
D10*
G04 #@! TO.C,REF\u002A\u002A*
X47199999Y-109089550D03*
G04 #@! TD*
G04 #@! TO.C,REF\u002A\u002A*
X58600000Y-109814551D03*
G04 #@! TD*
D12*
G04 #@! TO.C,U10*
X41340000Y-24470555D03*
X42440000Y-24470555D03*
X42440000Y-22640555D03*
X41340000Y-22640555D03*
G04 #@! TD*
D10*
G04 #@! TO.C,REF\u002A\u002A*
X47199999Y-84814550D03*
G04 #@! TD*
D12*
G04 #@! TO.C,U7*
X32577000Y-24470555D03*
X33677000Y-24470555D03*
X33677000Y-22640555D03*
X32577000Y-22640555D03*
G04 #@! TD*
M02*
