M48
; DRILL file {KiCad 6.0.0-d3dd2cf0fa~116~ubuntu20.04.1} date Mon Feb 13 12:44:03 2023
; FORMAT={-:-/ absolute / metric / decimal}
; #@! TF.CreationDate,2023-02-13T12:44:03+00:00
; #@! TF.GenerationSoftware,Kicad,Pcbnew,6.0.0-d3dd2cf0fa~116~ubuntu20.04.1
; #@! TF.FileFunction,MixedPlating,1,4
FMAT,2
METRIC
; #@! TA.AperFunction,Plated,PTH,ViaDrill
T1C0.400
; #@! TA.AperFunction,NonPlated,NPTH,ComponentDrill
T2C0.500
; #@! TA.AperFunction,NonPlated,NPTH,ComponentDrill
T3C3.000
%
G90
G05
T1
X13.975Y-52.415
X13.975Y-112.715
X14.525Y-23.765
X14.525Y-84.065
X14.763Y-46.746
X14.763Y-107.046
X15.075Y-44.815
X15.075Y-105.115
X15.626Y-34.097
X15.626Y-94.397
X17.176Y-26.045
X17.176Y-86.345
X18.268Y-33.944
X18.268Y-47.101
X18.268Y-94.244
X18.268Y-107.401
X18.275Y-19.765
X18.275Y-80.065
X18.475Y-36.915
X18.475Y-97.215
X18.575Y-49.515
X18.575Y-109.815
X18.649Y-26.121
X18.649Y-86.421
X18.801Y-39.989
X18.801Y-100.289
X18.903Y-52.562
X18.903Y-112.862
X18.954Y-27.899
X18.954Y-88.199
X19.182Y-38.135
X19.182Y-98.435
X20.249Y-18.603
X20.249Y-78.903
X20.656Y-45.476
X20.656Y-105.776
X21.189Y-32.623
X21.189Y-92.923
X21.341Y-19.111
X21.341Y-79.411
X21.697Y-28.509
X21.697Y-53.604
X21.697Y-88.809
X21.697Y-113.904
X21.722Y-41.132
X21.722Y-101.432
X22.129Y-30.083
X22.129Y-90.383
X22.561Y-38.084
X22.561Y-98.384
X22.815Y-31.887
X22.815Y-92.187
X22.992Y-24.114
X22.992Y-84.414
X23.094Y-16.698
X23.094Y-76.998
X23.119Y-14.183
X23.119Y-74.483
X23.246Y-26.934
X23.246Y-87.234
X23.399Y-22.667
X23.399Y-39.481
X23.399Y-82.967
X23.399Y-99.781
X23.45Y-51.953
X23.45Y-112.253
X23.653Y-30.109
X23.653Y-90.409
X24.339Y-46.67
X24.339Y-106.97
X24.364Y-34.147
X24.364Y-94.447
X26.361Y-25.412
X26.361Y-85.712
X26.396Y-19.111
X26.396Y-79.411
X26.701Y-38.084
X26.701Y-98.384
X26.955Y-51.242
X26.955Y-111.542
X27.437Y-19.669
X27.437Y-79.969
X28.403Y-18.755
X28.403Y-79.055
X29.52Y-19.669
X29.52Y-79.969
X29.763Y-25.694
X29.763Y-85.994
X30.206Y-24.775
X30.206Y-85.075
X30.282Y-18.603
X30.282Y-78.903
X30.816Y-26.045
X30.816Y-86.345
X31.501Y-19.568
X31.501Y-79.868
X31.603Y-26.68
X31.603Y-86.98
X31.882Y-34.147
X31.882Y-94.447
X31.959Y-46.67
X31.959Y-106.97
X32.416Y-17.891
X32.416Y-78.191
X32.568Y-21.498
X32.568Y-81.798
X34.067Y-50.81
X34.067Y-111.11
X34.118Y-25.435
X34.118Y-85.735
X34.321Y-38.211
X34.321Y-98.511
X34.702Y-13.878
X34.702Y-74.178
X34.778Y-16.571
X34.778Y-76.871
X35.311Y-39.812
X35.311Y-100.112
X35.616Y-27.772
X35.616Y-50.988
X35.616Y-88.072
X35.616Y-111.288
X35.946Y-25.41
X35.946Y-85.71
X36.327Y-31.887
X36.327Y-92.187
X37.445Y-49.26
X37.445Y-109.56
X37.496Y-31.709
X37.496Y-92.009
X37.547Y-54.163
X37.547Y-114.463
X38.232Y-28.661
X38.232Y-41.005
X38.232Y-88.961
X38.232Y-101.305
X39.223Y-25.562
X39.223Y-85.862
X39.325Y-37.424
X39.325Y-97.724
X39.375Y-51.715
X39.375Y-112.015
X39.934Y-26.959
X39.934Y-87.259
X39.96Y-39.456
X39.96Y-99.756
X40.62Y-21.778
X40.62Y-82.078
X40.823Y-46.441
X40.823Y-106.741
X40.899Y-33.919
X40.899Y-94.219
X42.982Y-25.461
X42.982Y-85.761
X43.236Y-38.059
X43.236Y-98.359
X43.875Y-49.115
X43.875Y-109.415
X61.375Y-52.415
X61.375Y-112.715
X61.925Y-23.765
X61.925Y-84.065
X62.163Y-46.746
X62.163Y-107.046
X62.475Y-44.815
X62.475Y-105.115
X63.026Y-34.097
X63.026Y-94.397
X64.576Y-26.045
X64.576Y-86.345
X65.668Y-33.944
X65.668Y-47.101
X65.668Y-94.244
X65.668Y-107.401
X65.675Y-19.765
X65.675Y-80.065
X65.875Y-36.915
X65.875Y-97.215
X65.975Y-49.515
X65.975Y-109.815
X66.049Y-26.121
X66.049Y-86.421
X66.201Y-39.989
X66.201Y-100.289
X66.303Y-52.562
X66.303Y-112.862
X66.354Y-27.899
X66.354Y-88.199
X66.582Y-38.135
X66.582Y-98.435
X67.649Y-18.603
X67.649Y-78.903
X68.056Y-45.476
X68.056Y-105.776
X68.589Y-32.623
X68.589Y-92.923
X68.741Y-19.111
X68.741Y-79.411
X69.097Y-28.509
X69.097Y-53.604
X69.097Y-88.809
X69.097Y-113.904
X69.122Y-41.132
X69.122Y-101.432
X69.529Y-30.083
X69.529Y-90.383
X69.961Y-38.084
X69.961Y-98.384
X70.215Y-31.887
X70.215Y-92.187
X70.392Y-24.114
X70.392Y-84.414
X70.494Y-16.698
X70.494Y-76.998
X70.519Y-14.183
X70.519Y-74.483
X70.646Y-26.934
X70.646Y-87.234
X70.799Y-22.667
X70.799Y-39.481
X70.799Y-82.967
X70.799Y-99.781
X70.85Y-51.953
X70.85Y-112.253
X71.053Y-30.109
X71.053Y-90.409
X71.739Y-46.67
X71.739Y-106.97
X71.764Y-34.147
X71.764Y-94.447
X73.761Y-25.412
X73.761Y-85.712
X73.796Y-19.111
X73.796Y-79.411
X74.101Y-38.084
X74.101Y-98.384
X74.355Y-51.242
X74.355Y-111.542
X74.837Y-19.669
X74.837Y-79.969
X75.803Y-18.755
X75.803Y-79.055
X76.92Y-19.669
X76.92Y-79.969
X77.163Y-25.694
X77.163Y-85.994
X77.606Y-24.775
X77.606Y-85.075
X77.682Y-18.603
X77.682Y-78.903
X78.216Y-26.045
X78.216Y-86.345
X78.901Y-19.568
X78.901Y-79.868
X79.003Y-26.68
X79.003Y-86.98
X79.282Y-34.147
X79.282Y-94.447
X79.359Y-46.67
X79.359Y-106.97
X79.816Y-17.891
X79.816Y-78.191
X79.968Y-21.498
X79.968Y-81.798
X81.467Y-50.81
X81.467Y-111.11
X81.518Y-25.435
X81.518Y-85.735
X81.721Y-38.211
X81.721Y-98.511
X82.102Y-13.878
X82.102Y-74.178
X82.178Y-16.571
X82.178Y-76.871
X82.711Y-39.812
X82.711Y-100.112
X83.016Y-27.772
X83.016Y-50.988
X83.016Y-88.072
X83.016Y-111.288
X83.346Y-25.41
X83.346Y-85.71
X83.727Y-31.887
X83.727Y-92.187
X84.845Y-49.26
X84.845Y-109.56
X84.896Y-31.709
X84.896Y-92.009
X84.947Y-54.163
X84.947Y-114.463
X85.632Y-28.661
X85.632Y-41.005
X85.632Y-88.961
X85.632Y-101.305
X86.623Y-25.562
X86.623Y-85.862
X86.725Y-37.424
X86.725Y-97.724
X86.775Y-51.715
X86.775Y-112.015
X87.334Y-26.959
X87.334Y-87.259
X87.36Y-39.456
X87.36Y-99.756
X88.02Y-21.778
X88.02Y-82.078
X88.223Y-46.441
X88.223Y-106.741
X88.299Y-33.919
X88.299Y-94.219
X90.382Y-25.461
X90.382Y-85.761
X90.636Y-38.059
X90.636Y-98.359
X91.275Y-49.115
X91.275Y-109.415
X108.775Y-52.415
X108.775Y-112.715
X109.325Y-23.765
X109.325Y-84.065
X109.563Y-46.746
X109.563Y-107.046
X109.875Y-44.815
X109.875Y-105.115
X110.426Y-34.097
X110.426Y-94.397
X111.976Y-26.045
X111.976Y-86.345
X113.068Y-33.944
X113.068Y-47.101
X113.068Y-94.244
X113.068Y-107.401
X113.075Y-19.765
X113.075Y-80.065
X113.275Y-36.915
X113.275Y-97.215
X113.375Y-49.515
X113.375Y-109.815
X113.449Y-26.121
X113.449Y-86.421
X113.601Y-39.989
X113.601Y-100.289
X113.703Y-52.562
X113.703Y-112.862
X113.754Y-27.899
X113.754Y-88.199
X113.982Y-38.135
X113.982Y-98.435
X115.049Y-18.603
X115.049Y-78.903
X115.456Y-45.476
X115.456Y-105.776
X115.989Y-32.623
X115.989Y-92.923
X116.141Y-19.111
X116.141Y-79.411
X116.497Y-28.509
X116.497Y-53.604
X116.497Y-88.809
X116.497Y-113.904
X116.522Y-41.132
X116.522Y-101.432
X116.929Y-30.083
X116.929Y-90.383
X117.361Y-38.084
X117.361Y-98.384
X117.615Y-31.887
X117.615Y-92.187
X117.792Y-24.114
X117.792Y-84.414
X117.894Y-16.698
X117.894Y-76.998
X117.919Y-14.183
X117.919Y-74.483
X118.046Y-26.934
X118.046Y-87.234
X118.199Y-22.667
X118.199Y-39.481
X118.199Y-82.967
X118.199Y-99.781
X118.25Y-51.953
X118.25Y-112.253
X118.453Y-30.109
X118.453Y-90.409
X119.139Y-46.67
X119.139Y-106.97
X119.164Y-34.147
X119.164Y-94.447
X121.161Y-25.412
X121.161Y-85.712
X121.196Y-19.111
X121.196Y-79.411
X121.501Y-38.084
X121.501Y-98.384
X121.755Y-51.242
X121.755Y-111.542
X122.237Y-19.669
X122.237Y-79.969
X123.203Y-18.755
X123.203Y-79.055
X124.32Y-19.669
X124.32Y-79.969
X124.563Y-25.694
X124.563Y-85.994
X125.006Y-24.775
X125.006Y-85.075
X125.082Y-18.603
X125.082Y-78.903
X125.616Y-26.045
X125.616Y-86.345
X126.301Y-19.568
X126.301Y-79.868
X126.403Y-26.68
X126.403Y-86.98
X126.682Y-34.147
X126.682Y-94.447
X126.759Y-46.67
X126.759Y-106.97
X127.216Y-17.891
X127.216Y-78.191
X127.368Y-21.498
X127.368Y-81.798
X128.867Y-50.81
X128.867Y-111.11
X128.918Y-25.435
X128.918Y-85.735
X129.121Y-38.211
X129.121Y-98.511
X129.502Y-13.878
X129.502Y-74.178
X129.578Y-16.571
X129.578Y-76.871
X130.111Y-39.812
X130.111Y-100.112
X130.416Y-27.772
X130.416Y-50.988
X130.416Y-88.072
X130.416Y-111.288
X130.746Y-25.41
X130.746Y-85.71
X131.127Y-31.887
X131.127Y-92.187
X132.245Y-49.26
X132.245Y-109.56
X132.296Y-31.709
X132.296Y-92.009
X132.347Y-54.163
X132.347Y-114.463
X133.032Y-28.661
X133.032Y-41.005
X133.032Y-88.961
X133.032Y-101.305
X134.023Y-25.562
X134.023Y-85.862
X134.125Y-37.424
X134.125Y-97.724
X134.175Y-51.715
X134.175Y-112.015
X134.734Y-26.959
X134.734Y-87.259
X134.76Y-39.456
X134.76Y-99.756
X135.42Y-21.778
X135.42Y-82.078
X135.623Y-46.441
X135.623Y-106.741
X135.699Y-33.919
X135.699Y-94.219
X137.782Y-25.461
X137.782Y-85.761
X138.036Y-38.059
X138.036Y-98.359
X138.675Y-49.115
X138.675Y-109.415
T2
X11.2Y-23.065
X11.2Y-23.79
X11.2Y-24.515
X11.2Y-25.24
X11.2Y-25.965
X11.2Y-48.065
X11.2Y-48.79
X11.2Y-49.515
X11.2Y-50.24
X11.2Y-50.965
X11.2Y-83.365
X11.2Y-84.09
X11.2Y-84.815
X11.2Y-85.54
X11.2Y-86.265
X11.2Y-108.365
X11.2Y-109.09
X11.2Y-109.815
X11.2Y-110.54
X11.2Y-111.265
X47.2Y-23.065
X47.2Y-23.79
X47.2Y-24.515
X47.2Y-25.24
X47.2Y-25.965
X47.2Y-48.065
X47.2Y-48.79
X47.2Y-49.515
X47.2Y-50.24
X47.2Y-50.965
X47.2Y-83.365
X47.2Y-84.09
X47.2Y-84.815
X47.2Y-85.54
X47.2Y-86.265
X47.2Y-108.365
X47.2Y-109.09
X47.2Y-109.815
X47.2Y-110.54
X47.2Y-111.265
X58.6Y-23.065
X58.6Y-23.79
X58.6Y-24.515
X58.6Y-25.24
X58.6Y-25.965
X58.6Y-48.065
X58.6Y-48.79
X58.6Y-49.515
X58.6Y-50.24
X58.6Y-50.965
X58.6Y-83.365
X58.6Y-84.09
X58.6Y-84.815
X58.6Y-85.54
X58.6Y-86.265
X58.6Y-108.365
X58.6Y-109.09
X58.6Y-109.815
X58.6Y-110.54
X58.6Y-111.265
X94.6Y-23.065
X94.6Y-23.79
X94.6Y-24.515
X94.6Y-25.24
X94.6Y-25.965
X94.6Y-48.065
X94.6Y-48.79
X94.6Y-49.515
X94.6Y-50.24
X94.6Y-50.965
X94.6Y-83.365
X94.6Y-84.09
X94.6Y-84.815
X94.6Y-85.54
X94.6Y-86.265
X94.6Y-108.365
X94.6Y-109.09
X94.6Y-109.815
X94.6Y-110.54
X94.6Y-111.265
X106.0Y-23.065
X106.0Y-23.79
X106.0Y-24.515
X106.0Y-25.24
X106.0Y-25.965
X106.0Y-48.065
X106.0Y-48.79
X106.0Y-49.515
X106.0Y-50.24
X106.0Y-50.965
X106.0Y-83.365
X106.0Y-84.09
X106.0Y-84.815
X106.0Y-85.54
X106.0Y-86.265
X106.0Y-108.365
X106.0Y-109.09
X106.0Y-109.815
X106.0Y-110.54
X106.0Y-111.265
X142.0Y-23.065
X142.0Y-23.79
X142.0Y-24.515
X142.0Y-25.24
X142.0Y-25.965
X142.0Y-48.065
X142.0Y-48.79
X142.0Y-49.515
X142.0Y-50.24
X142.0Y-50.965
X142.0Y-83.365
X142.0Y-84.09
X142.0Y-84.815
X142.0Y-85.54
X142.0Y-86.265
X142.0Y-108.365
X142.0Y-109.09
X142.0Y-109.815
X142.0Y-110.54
X142.0Y-111.265
T3
X4.0Y-7.0
X4.0Y-124.6
X149.2Y-7.0
X149.2Y-124.6
T0
M30
